<?xml version="1.0" encoding="utf-8" standalone="no"?>
<!DOCTYPE svg PUBLIC "-//W3C//DTD SVG 1.1//EN"
  "http://www.w3.org/Graphics/SVG/1.1/DTD/svg11.dtd">
<svg xmlns:xlink="http://www.w3.org/1999/xlink" width="460.8pt" height="345.6pt" viewBox="0 0 460.8 345.6" xmlns="http://www.w3.org/2000/svg" version="1.1">
 <metadata>
  <rdf:RDF xmlns:dc="http://purl.org/dc/elements/1.1/" xmlns:cc="http://creativecommons.org/ns#" xmlns:rdf="http://www.w3.org/1999/02/22-rdf-syntax-ns#">
   <cc:Work>
    <dc:type rdf:resource="http://purl.org/dc/dcmitype/StillImage"/>
    <dc:date>2024-05-02T16:23:39.825484</dc:date>
    <dc:format>image/svg+xml</dc:format>
    <dc:creator>
     <cc:Agent>
      <dc:title>Matplotlib v3.5.3, https://matplotlib.org/</dc:title>
     </cc:Agent>
    </dc:creator>
   </cc:Work>
  </rdf:RDF>
 </metadata>
 <defs>
  <style type="text/css">*{stroke-linejoin: round; stroke-linecap: butt}</style>
 </defs>
 <g id="figure_1">
  <g id="patch_1">
   <path d="M 0 345.6 
L 460.8 345.6 
L 460.8 0 
L 0 0 
z
" style="fill: #ffffff"/>
  </g>
  <g id="axes_1">
   <g id="patch_2">
    <path d="M 57.6 307.584 
L 414.72 307.584 
L 414.72 41.472 
L 57.6 41.472 
z
" style="fill: #ffffff"/>
   </g>
   <g id="PolyCollection_1">
    <path d="M 73.832727 226.140066 
L 73.832727 240.97955 
L 73.832733 236.781311 
L 73.83274 238.102772 
L 73.832746 235.642354 
L 73.832752 235.514645 
L 73.832758 234.629909 
L 73.832764 235.064044 
L 73.832771 233.371561 
L 73.832777 239.433496 
L 73.832783 233.714523 
L 73.832795 234.740435 
L 73.832808 232.920883 
L 73.832814 241.839287 
L 73.83282 235.362982 
L 73.832833 241.961117 
L 73.832845 237.817517 
L 73.832851 244.442258 
L 73.83287 242.020339 
L 73.832876 251.442517 
L 73.832888 247.965591 
L 73.832894 246.205968 
L 73.832907 244.998089 
L 73.832919 244.621908 
L 73.832938 260.053896 
L 73.832944 241.753535 
L 73.832969 245.342952 
L 73.832981 248.932742 
L 73.832994 244.641216 
L 73.833 268.362653 
L 73.833018 250.602661 
L 73.833025 258.376413 
L 73.833031 253.328491 
L 73.833055 256.854712 
L 73.833068 256.991437 
L 73.833093 256.456519 
L 73.833111 259.43848 
L 73.833117 254.372432 
L 73.83313 262.931681 
L 73.833155 256.930566 
L 73.833167 261.796147 
L 73.833186 274.167644 
L 73.833216 262.706672 
L 73.833223 273.194007 
L 73.833241 261.829936 
L 73.833266 270.44371 
L 73.833278 269.62253 
L 73.833316 264.038222 
L 73.833328 262.873902 
L 73.833334 278.076378 
L 73.83334 268.026295 
L 73.833371 270.974379 
L 73.83339 268.353913 
L 73.833402 271.275215 
L 73.833415 265.158162 
L 73.833464 267.918994 
L 73.833495 277.895671 
L 73.833501 269.063196 
L 73.833514 258.443999 
L 73.833538 270.355191 
L 73.833557 273.543046 
L 73.833588 269.219365 
L 73.833613 268.407589 
L 73.833631 272.593678 
L 73.83365 275.618648 
L 73.833675 267.396879 
L 73.833712 270.170594 
L 73.833724 269.557568 
L 73.833743 274.814267 
L 73.833761 266.659953 
L 73.833805 276.509654 
L 73.833811 269.248959 
L 73.833836 269.482105 
L 73.833891 272.040123 
L 73.83391 263.06133 
L 73.833935 260.841993 
L 73.833947 271.370508 
L 73.83396 273.983036 
L 73.834021 271.437 
L 73.834059 270.152639 
L 73.834083 275.211201 
L 73.834108 264.019383 
L 73.834114 277.298641 
L 73.834152 270.804792 
L 73.834207 269.270106 
L 73.83422 279.341605 
L 73.834226 272.605408 
L 73.834238 271.088454 
L 73.834269 278.066416 
L 73.834282 267.417897 
L 73.834306 220.776543 
L 73.834356 269.522371 
L 73.834393 271.843957 
L 73.834424 278.389714 
L 73.834455 269.703403 
L 73.834504 269.159179 
L 73.834542 271.429422 
L 73.83456 275.028889 
L 73.834579 273.719697 
L 73.834628 272.106372 
L 73.834672 269.860868 
L 73.834703 263.181336 
L 73.834727 271.961076 
L 73.834765 273.465702 
L 73.834802 268.736975 
L 73.834845 263.14425 
L 73.834888 271.417416 
L 73.834901 269.888459 
L 73.83495 268.023997 
L 73.834969 278.52588 
L 73.835062 271.916909 
L 73.835099 198.629589 
L 73.835105 271.74887 
L 73.835148 269.049574 
L 73.835173 270.034388 
L 73.835198 270.168535 
L 73.835229 269.437178 
L 73.835322 261.487989 
L 73.835396 268.847056 
L 73.835446 270.609454 
L 73.835452 269.736944 
L 73.835495 249.6215 
L 73.835508 272.620008 
L 73.835582 266.856737 
L 73.835693 266.554514 
L 73.835718 278.519112 
L 73.835731 272.050561 
L 73.835755 272.481534 
L 73.835786 272.862745 
L 73.835817 278.851137 
L 73.835842 264.50385 
L 73.835892 157.835826 
L 73.835991 272.462799 
L 73.836059 277.663808 
L 73.836065 269.503108 
L 73.836127 278.808352 
L 73.836189 269.060831 
L 73.836232 273.313762 
L 73.836288 257.352317 
L 73.836399 266.981841 
L 73.836436 261.36797 
L 73.836467 278.516847 
L 73.836536 266.594871 
L 73.836622 267.16566 
L 73.836684 202.319589 
L 73.836734 272.139011 
L 73.836808 274.175457 
L 73.837012 266.893975 
L 73.837056 263.677567 
L 73.83708 263.482026 
L 73.83718 267.711246 
L 73.837217 263.216512 
L 73.837235 278.664782 
L 73.837477 71.410245 
L 73.837489 263.610594 
L 73.837625 266.450041 
L 73.837675 263.567392 
L 73.837737 263.575153 
L 73.837966 263.118042 
L 73.83817 263.742323 
L 73.838238 272.711476 
L 73.838269 67.267486 
L 73.838294 263.846773 
L 73.838666 68.05282 
L 73.838715 263.831251 
L 73.838851 272.899593 
L 73.839062 77.242557 
L 73.839464 278.676181 
L 73.839855 70.911752 
L 73.840647 95.177611 
L 73.841044 69.876682 
L 73.842232 80.72471 
L 73.842629 95.55179 
L 73.842629 72.794487 
L 73.842629 72.794487 
L 73.842232 68.556889 
L 73.841044 53.568 
L 73.840647 68.65302 
L 73.839855 62.940354 
L 73.839464 253.681951 
L 73.839062 66.402441 
L 73.838851 255.188774 
L 73.838715 256.538859 
L 73.838666 60.608527 
L 73.838294 254.573526 
L 73.838269 61.427137 
L 73.838238 254.65444 
L 73.83817 256.292938 
L 73.837966 255.324648 
L 73.837737 255.209639 
L 73.837675 255.485202 
L 73.837625 256.521427 
L 73.837489 255.987986 
L 73.837477 66.381469 
L 73.837235 254.725175 
L 73.837217 252.98579 
L 73.83718 256.163214 
L 73.83708 256.193196 
L 73.837056 256.788978 
L 73.837012 256.275565 
L 73.836808 252.86302 
L 73.836734 256.231617 
L 73.836684 87.360906 
L 73.836622 257.137815 
L 73.836536 257.009996 
L 73.836467 256.033022 
L 73.836436 252.751191 
L 73.836399 255.889059 
L 73.836288 132.869527 
L 73.836232 256.462822 
L 73.836189 256.191981 
L 73.836127 255.142847 
L 73.836065 256.293304 
L 73.836059 254.88344 
L 73.835991 257.631143 
L 73.835892 73.602551 
L 73.835842 257.391038 
L 73.835817 255.138903 
L 73.835786 258.007737 
L 73.835755 254.384219 
L 73.835731 256.497724 
L 73.835718 254.619072 
L 73.835693 255.884651 
L 73.835582 255.714467 
L 73.835508 257.074337 
L 73.835495 131.961165 
L 73.835452 256.382125 
L 73.835446 258.458519 
L 73.835396 258.502128 
L 73.835322 254.892807 
L 73.835229 255.936863 
L 73.835198 257.795025 
L 73.835173 258.201523 
L 73.835148 255.555599 
L 73.835105 258.419963 
L 73.835099 108.777769 
L 73.835062 259.845288 
L 73.834969 254.481926 
L 73.83495 260.079195 
L 73.834901 256.513544 
L 73.834888 257.289577 
L 73.834845 254.58803 
L 73.834802 258.771808 
L 73.834765 260.420377 
L 73.834727 260.251924 
L 73.834703 193.107917 
L 73.834672 257.599628 
L 73.834628 257.167151 
L 73.834579 259.736916 
L 73.83456 259.179708 
L 73.834542 256.735033 
L 73.834504 260.228662 
L 73.834455 261.247142 
L 73.834424 260.640753 
L 73.834393 263.267742 
L 73.834356 259.689027 
L 73.834306 125.430073 
L 73.834282 258.69502 
L 73.834269 260.03831 
L 73.834238 255.358998 
L 73.834226 258.423049 
L 73.83422 272.914529 
L 73.834207 261.273672 
L 73.834152 257.674013 
L 73.834114 262.680221 
L 73.834108 256.180107 
L 73.834083 264.159519 
L 73.834059 262.638362 
L 73.834021 261.883242 
L 73.83396 263.849312 
L 73.833947 260.707698 
L 73.833935 252.090267 
L 73.83391 208.020328 
L 73.833891 260.507453 
L 73.833836 262.434702 
L 73.833811 257.034236 
L 73.833805 256.740206 
L 73.833761 258.148938 
L 73.833743 260.076207 
L 73.833724 260.943564 
L 73.833712 262.065076 
L 73.833675 253.769577 
L 73.83365 265.64488 
L 73.833631 254.839039 
L 73.833613 261.000291 
L 73.833588 259.409967 
L 73.833557 262.600006 
L 73.833538 256.751474 
L 73.833514 187.644907 
L 73.833501 259.977066 
L 73.833495 268.905393 
L 73.833464 259.939823 
L 73.833415 254.303125 
L 73.833402 251.098977 
L 73.83339 259.239252 
L 73.833371 257.742134 
L 73.83334 251.115458 
L 73.833334 248.949148 
L 73.833328 250.834838 
L 73.833316 253.067226 
L 73.833278 258.455099 
L 73.833266 247.331963 
L 73.833241 249.44675 
L 73.833223 256.034807 
L 73.833216 250.584012 
L 73.833186 257.626205 
L 73.833167 252.133441 
L 73.833155 238.892455 
L 73.83313 240.070128 
L 73.833117 223.433374 
L 73.833111 241.017674 
L 73.833093 244.527712 
L 73.833068 245.571933 
L 73.833055 241.664235 
L 73.833031 230.710624 
L 73.833025 241.265376 
L 73.833018 241.801304 
L 73.833 240.669627 
L 73.832994 224.372973 
L 73.832981 236.80473 
L 73.832969 234.77528 
L 73.832944 232.149287 
L 73.832938 241.002475 
L 73.832919 233.108877 
L 73.832907 233.559007 
L 73.832894 232.33944 
L 73.832888 228.656781 
L 73.832876 227.892174 
L 73.83287 233.364851 
L 73.832851 228.280466 
L 73.832845 228.802476 
L 73.832833 230.632325 
L 73.83282 229.092214 
L 73.832814 228.338648 
L 73.832808 225.788016 
L 73.832795 229.389435 
L 73.832783 226.94916 
L 73.832777 227.58026 
L 73.832771 228.577783 
L 73.832764 224.335088 
L 73.832758 229.019876 
L 73.832752 226.364776 
L 73.832746 230.148644 
L 73.83274 229.561678 
L 73.832733 229.741968 
L 73.832727 226.140066 
z
" clip-path="url(#p15557d9c04)" style="fill: #1f77b4; fill-opacity: 0.2; stroke: #1f77b4; stroke-opacity: 0.2"/>
    <path d="M 73.843818 64.824464 
L 73.843818 94.687981 
L 73.84461 98.451128 
L 73.845403 105.012717 
L 73.846592 122.30125 
L 73.846988 95.760808 
L 73.848573 106.191014 
L 73.849366 106.585252 
L 73.850159 82.29648 
L 73.850555 84.180899 
L 73.851744 113.066741 
L 73.85214 140.756226 
L 73.852536 93.976012 
L 73.854122 98.467615 
L 73.854914 122.37197 
L 73.856499 120.584081 
L 73.857688 116.458769 
L 73.858085 202.668739 
L 73.858877 116.513601 
L 73.860463 115.050365 
L 73.861255 152.508075 
L 73.862444 131.644044 
L 73.864426 157.686392 
L 73.864822 137.830618 
L 73.866011 159.708409 
L 73.867596 132.244025 
L 73.868389 137.279596 
L 73.870767 162.643219 
L 73.871559 219.891661 
L 73.871955 144.878743 
L 73.872352 143.116948 
L 73.874333 147.400611 
L 73.875522 139.970544 
L 73.876315 145.845125 
L 73.877107 149.335805 
L 73.880278 147.392409 
L 73.880278 137.119428 
L 73.880278 137.119428 
L 73.877107 121.79079 
L 73.876315 114.569133 
L 73.875522 127.193332 
L 73.874333 135.831699 
L 73.872352 121.027291 
L 73.871955 126.537333 
L 73.871559 99.191625 
L 73.870767 134.071856 
L 73.868389 119.977444 
L 73.867596 118.188231 
L 73.866011 110.970365 
L 73.864822 131.275098 
L 73.864426 127.303179 
L 73.862444 121.43444 
L 73.861255 120.228578 
L 73.860463 85.787617 
L 73.858877 81.603881 
L 73.858085 118.577604 
L 73.857688 111.46605 
L 73.856499 98.437046 
L 73.854914 89.190578 
L 73.854122 75.036215 
L 73.852536 68.093617 
L 73.85214 99.714255 
L 73.851744 93.549158 
L 73.850555 78.710587 
L 73.850159 57.512014 
L 73.849366 75.831483 
L 73.848573 74.446418 
L 73.846988 69.762792 
L 73.846592 86.551632 
L 73.845403 70.917808 
L 73.84461 73.427916 
L 73.843818 64.824464 
z
" clip-path="url(#p15557d9c04)" style="fill: #1f77b4; fill-opacity: 0.2; stroke: #1f77b4; stroke-opacity: 0.2"/>
    <path d="M 73.882656 129.98569 
L 73.882656 146.315184 
L 73.883448 275.257259 
L 73.885034 150.373788 
L 73.886223 151.812114 
L 73.888204 149.799017 
L 73.889789 152.267276 
L 73.889789 141.484755 
L 73.889789 141.484755 
L 73.888204 135.140371 
L 73.886223 146.866277 
L 73.885034 135.041052 
L 73.883448 169.191033 
L 73.882656 129.98569 
z
" clip-path="url(#p15557d9c04)" style="fill: #1f77b4; fill-opacity: 0.2; stroke: #1f77b4; stroke-opacity: 0.2"/>
    <path d="M 73.892167 142.269699 
L 73.892167 149.740601 
L 73.893752 142.161271 
L 73.89613 155.365865 
L 73.896923 151.884478 
L 73.898112 158.519474 
L 73.899301 154.024343 
L 73.902075 154.271833 
L 73.902471 151.43121 
L 73.904056 151.694423 
L 73.907623 154.357581 
L 73.908812 258.870105 
L 73.908812 165.081124 
L 73.908812 165.081124 
L 73.907623 153.539795 
L 73.904056 144.121356 
L 73.902471 141.03179 
L 73.902075 153.445396 
L 73.899301 140.465122 
L 73.898112 148.376471 
L 73.896923 146.305068 
L 73.89613 147.284513 
L 73.893752 131.196984 
L 73.892167 142.269699 
z
" clip-path="url(#p15557d9c04)" style="fill: #1f77b4; fill-opacity: 0.2; stroke: #1f77b4; stroke-opacity: 0.2"/>
    <path d="M 73.91119 142.718709 
L 73.91119 152.562472 
L 73.911982 154.558375 
L 73.915946 152.546739 
L 73.918323 155.994299 
L 73.919909 156.616629 
L 73.921494 154.938479 
L 73.92189 153.5057 
L 73.924268 156.380673 
L 73.927835 154.566642 
L 73.927835 148.399625 
L 73.927835 148.399625 
L 73.924268 154.42679 
L 73.92189 153.171105 
L 73.921494 154.02146 
L 73.919909 147.091851 
L 73.918323 148.804626 
L 73.915946 144.788643 
L 73.911982 149.392198 
L 73.91119 142.718709 
z
" clip-path="url(#p15557d9c04)" style="fill: #1f77b4; fill-opacity: 0.2; stroke: #1f77b4; stroke-opacity: 0.2"/>
    <path d="M 73.931798 154.256821 
L 73.931798 161.022767 
L 73.93259 152.099064 
L 73.934176 295.488 
L 73.937346 153.088308 
L 73.939724 154.582935 
L 73.941705 162.625261 
L 73.943687 154.681999 
L 73.946857 150.46521 
L 73.946857 147.08917 
L 73.946857 147.08917 
L 73.943687 152.190728 
L 73.941705 154.061916 
L 73.939724 148.531894 
L 73.937346 148.217112 
L 73.934176 234.195955 
L 73.93259 145.141585 
L 73.931798 154.256821 
z
" clip-path="url(#p15557d9c04)" style="fill: #1f77b4; fill-opacity: 0.2; stroke: #1f77b4; stroke-opacity: 0.2"/>
    <path d="M 73.950424 154.80973 
L 73.950424 154.959344 
L 73.951613 155.081528 
L 73.954784 154.491165 
L 73.957558 155.789089 
L 73.959539 271.529869 
L 73.961124 158.083673 
L 73.963502 157.876682 
L 73.96588 148.477104 
L 73.971428 153.345654 
L 73.972221 152.635752 
L 73.975392 156.671037 
L 73.975392 150.56282 
L 73.975392 150.56282 
L 73.972221 151.878524 
L 73.971428 148.283217 
L 73.96588 147.833358 
L 73.963502 150.008697 
L 73.961124 147.725474 
L 73.959539 176.646806 
L 73.957558 152.823024 
L 73.954784 152.681298 
L 73.951613 149.848257 
L 73.950424 154.80973 
z
" clip-path="url(#p15557d9c04)" style="fill: #1f77b4; fill-opacity: 0.2; stroke: #1f77b4; stroke-opacity: 0.2"/>
    <path d="M 73.982525 148.966402 
L 73.982525 151.502709 
L 73.984903 295.321695 
L 73.985299 161.61486 
L 73.989659 158.039273 
L 73.991244 155.572047 
L 73.991244 148.982177 
L 73.991244 148.982177 
L 73.989659 150.186084 
L 73.985299 152.917932 
L 73.984903 246.490223 
L 73.982525 148.966402 
z
" clip-path="url(#p15557d9c04)" style="fill: #1f77b4; fill-opacity: 0.2; stroke: #1f77b4; stroke-opacity: 0.2"/>
    <path d="M 73.99917 149.430764 
L 73.99917 149.797673 
L 74.003926 153.076705 
L 74.007096 156.581303 
L 74.010267 294.285934 
L 74.011059 156.152945 
L 74.015815 150.057971 
L 74.022948 150.851584 
L 74.022948 150.254656 
L 74.022948 150.254656 
L 74.015815 149.386236 
L 74.011059 149.594372 
L 74.010267 294.163897 
L 74.007096 154.127181 
L 74.003926 149.656711 
L 73.99917 149.430764 
z
" clip-path="url(#p15557d9c04)" style="fill: #1f77b4; fill-opacity: 0.2; stroke: #1f77b4; stroke-opacity: 0.2"/>
    <path d="M 74.028893 156.377111 
L 74.028893 156.497209 
L 74.028893 156.377111 
L 74.028893 156.377111 
z
" clip-path="url(#p15557d9c04)" style="fill: #1f77b4; fill-opacity: 0.2; stroke: #1f77b4; stroke-opacity: 0.2"/>
    <path d="M 74.03563 294.591806 
L 74.03563 295.244516 
L 74.041971 150.482385 
L 74.046727 154.320432 
L 74.05069 157.222632 
L 74.060994 294.957205 
L 74.068127 150.890514 
L 74.068127 150.528439 
L 74.068127 150.528439 
L 74.060994 294.92774 
L 74.05069 156.746565 
L 74.046727 150.996109 
L 74.041971 149.207361 
L 74.03563 294.591806 
z
" clip-path="url(#p15557d9c04)" style="fill: #1f77b4; fill-opacity: 0.2; stroke: #1f77b4; stroke-opacity: 0.2"/>
    <path d="M 74.086357 294.72875 
L 74.086357 294.782061 
L 74.094284 151.47701 
L 74.094284 151.369125 
L 74.094284 151.369125 
L 74.086357 294.72875 
z
" clip-path="url(#p15557d9c04)" style="fill: #1f77b4; fill-opacity: 0.2; stroke: #1f77b4; stroke-opacity: 0.2"/>
    <path d="M 74.137085 294.530146 
L 74.137085 294.877634 
L 74.187812 294.333963 
L 74.213176 294.160878 
L 74.238539 295.01921 
L 74.289267 294.777925 
L 74.339994 294.321108 
L 74.365357 293.222125 
L 74.441448 294.371387 
L 74.466812 292.95894 
L 74.466812 292.608874 
L 74.466812 292.608874 
L 74.441448 293.460894 
L 74.365357 293.068764 
L 74.339994 293.487952 
L 74.289267 293.858138 
L 74.238539 294.234863 
L 74.213176 294.0665 
L 74.187812 294.229378 
L 74.137085 294.530146 
z
" clip-path="url(#p15557d9c04)" style="fill: #1f77b4; fill-opacity: 0.2; stroke: #1f77b4; stroke-opacity: 0.2"/>
    <path d="M 74.542903 292.393374 
L 74.542903 293.74588 
L 74.59363 293.914097 
L 74.644357 294.767854 
L 74.720448 291.337177 
L 74.745812 293.733066 
L 74.847267 293.673447 
L 74.897994 293.332685 
L 74.948721 293.445464 
L 74.974085 293.200077 
L 75.050176 294.08206 
L 75.050176 292.628799 
L 75.050176 292.628799 
L 74.974085 293.050387 
L 74.948721 293.179085 
L 74.897994 291.217726 
L 74.847267 292.101393 
L 74.745812 292.935192 
L 74.720448 291.294831 
L 74.644357 293.409818 
L 74.59363 292.417926 
L 74.542903 292.393374 
z
" clip-path="url(#p15557d9c04)" style="fill: #1f77b4; fill-opacity: 0.2; stroke: #1f77b4; stroke-opacity: 0.2"/>
    <path d="M 75.100903 292.522974 
L 75.100903 292.767037 
L 75.202357 292.454197 
L 75.253085 293.240956 
L 75.354539 292.175921 
L 75.43063 291.738265 
L 75.455994 294.485936 
L 75.506721 291.839356 
L 75.608176 291.501383 
L 75.658903 292.911815 
L 75.734994 290.900149 
L 75.861812 292.726462 
L 75.887176 290.776362 
L 75.963267 290.628477 
L 76.064721 290.324416 
L 76.115448 290.124445 
L 76.26763 293.792655 
L 76.26763 291.777923 
L 76.26763 291.777923 
L 76.115448 289.865517 
L 76.064721 290.172933 
L 75.963267 290.275241 
L 75.887176 290.574892 
L 75.861812 290.863505 
L 75.734994 290.757762 
L 75.658903 291.285911 
L 75.608176 291.391883 
L 75.506721 291.639064 
L 75.455994 292.515263 
L 75.43063 291.678573 
L 75.354539 291.959378 
L 75.253085 290.653636 
L 75.202357 292.264362 
L 75.100903 292.522974 
z
" clip-path="url(#p15557d9c04)" style="fill: #1f77b4; fill-opacity: 0.2; stroke: #1f77b4; stroke-opacity: 0.2"/>
    <path d="M 76.343721 289.484163 
L 76.343721 289.833516 
L 76.369085 289.661807 
L 76.495903 289.895009 
L 76.571994 290.164547 
L 76.622721 289.751203 
L 76.673448 293.567696 
L 76.876358 291.288209 
L 76.876358 289.006532 
L 76.876358 289.006532 
L 76.673448 289.811988 
L 76.622721 289.186361 
L 76.571994 289.436333 
L 76.495903 289.540154 
L 76.369085 289.376913 
L 76.343721 289.484163 
z
" clip-path="url(#p15557d9c04)" style="fill: #1f77b4; fill-opacity: 0.2; stroke: #1f77b4; stroke-opacity: 0.2"/>
    <path d="M 77.028539 287.962989 
L 77.028539 288.683539 
L 77.079267 294.227819 
L 77.180721 288.308335 
L 77.256812 288.040875 
L 77.38363 287.810249 
L 77.485085 292.671954 
L 77.485085 288.987397 
L 77.485085 288.987397 
L 77.38363 287.404775 
L 77.256812 287.462292 
L 77.180721 287.999103 
L 77.079267 291.418876 
L 77.028539 287.962989 
z
" clip-path="url(#p15557d9c04)" style="fill: #1f77b4; fill-opacity: 0.2; stroke: #1f77b4; stroke-opacity: 0.2"/>
    <path d="M 77.637267 286.645784 
L 77.637267 287.278057 
L 77.738721 286.733257 
L 77.890903 291.946868 
L 77.94163 286.897857 
L 78.017721 286.682393 
L 78.093812 292.324409 
L 78.271358 285.316736 
L 78.296721 285.383172 
L 78.398176 286.130188 
L 78.626448 284.836344 
L 78.702539 293.846284 
L 78.702539 290.795628 
L 78.702539 290.795628 
L 78.626448 284.730291 
L 78.398176 284.865855 
L 78.296721 284.786581 
L 78.271358 285.151729 
L 78.093812 287.539148 
L 78.017721 285.969413 
L 77.94163 286.133708 
L 77.890903 287.882391 
L 77.738721 286.390799 
L 77.637267 286.645784 
z
" clip-path="url(#p15557d9c04)" style="fill: #1f77b4; fill-opacity: 0.2; stroke: #1f77b4; stroke-opacity: 0.2"/>
    <path d="M 78.854721 284.054149 
L 78.854721 286.233113 
L 78.905448 288.570604 
L 79.159085 284.484631 
L 79.311267 290.359457 
L 79.412721 284.657958 
L 79.514176 293.418161 
L 79.514176 287.332765 
L 79.514176 287.332765 
L 79.412721 283.824776 
L 79.311267 284.160864 
L 79.159085 283.98625 
L 78.905448 283.842037 
L 78.854721 284.054149 
z
" clip-path="url(#p15557d9c04)" style="fill: #1f77b4; fill-opacity: 0.2; stroke: #1f77b4; stroke-opacity: 0.2"/>
    <path d="M 79.691721 283.895 
L 79.691721 284.56279 
L 79.919994 291.758732 
L 79.919994 286.199433 
L 79.919994 286.199433 
L 79.691721 283.895 
z
" clip-path="url(#p15557d9c04)" style="fill: #1f77b4; fill-opacity: 0.2; stroke: #1f77b4; stroke-opacity: 0.2"/>
    <path d="M 80.224358 283.401936 
L 80.224358 283.406262 
L 80.325812 294.373115 
L 80.528721 283.466723 
L 80.680903 285.704994 
L 80.680903 281.828601 
L 80.680903 281.828601 
L 80.528721 282.697874 
L 80.325812 290.770254 
L 80.224358 283.401936 
z
" clip-path="url(#p15557d9c04)" style="fill: #1f77b4; fill-opacity: 0.2; stroke: #1f77b4; stroke-opacity: 0.2"/>
    <path d="M 80.934539 282.033185 
L 80.934539 289.648326 
L 81.137448 293.668573 
L 81.365721 281.396401 
L 81.441812 282.520437 
L 81.644721 281.148292 
L 81.644721 280.82708 
L 81.644721 280.82708 
L 81.441812 280.862652 
L 81.365721 280.74263 
L 81.137448 288.261523 
L 80.934539 282.033185 
z
" clip-path="url(#p15557d9c04)" style="fill: #1f77b4; fill-opacity: 0.2; stroke: #1f77b4; stroke-opacity: 0.2"/>
    <path d="M 81.949085 287.27475 
L 81.949085 293.174078 
L 81.949085 287.27475 
L 81.949085 287.27475 
z
" clip-path="url(#p15557d9c04)" style="fill: #1f77b4; fill-opacity: 0.2; stroke: #1f77b4; stroke-opacity: 0.2"/>
    <path d="M 82.202721 280.731994 
L 82.202721 284.844537 
L 82.354903 293.299045 
L 82.354903 291.343384 
L 82.354903 291.343384 
L 82.202721 280.731994 
z
" clip-path="url(#p15557d9c04)" style="fill: #1f77b4; fill-opacity: 0.2; stroke: #1f77b4; stroke-opacity: 0.2"/>
    <path d="M 82.760721 280.034192 
L 82.760721 293.234287 
L 82.96363 293.184149 
L 82.96363 279.117172 
L 82.96363 279.117172 
L 82.760721 280.034192 
z
" clip-path="url(#p15557d9c04)" style="fill: #1f77b4; fill-opacity: 0.2; stroke: #1f77b4; stroke-opacity: 0.2"/>
    <path d="M 83.572358 291.920257 
L 83.572358 293.077438 
L 83.572358 291.920257 
L 83.572358 291.920257 
z
" clip-path="url(#p15557d9c04)" style="fill: #1f77b4; fill-opacity: 0.2; stroke: #1f77b4; stroke-opacity: 0.2"/>
    <path d="M 83.876721 278.609007 
L 83.876721 280.018785 
L 83.978176 292.944182 
L 84.789812 292.473789 
L 84.992721 277.393295 
L 85.19563 292.541019 
L 86.007267 292.152163 
L 86.007267 291.965601 
L 86.007267 291.965601 
L 85.19563 289.793766 
L 84.992721 277.047631 
L 84.789812 292.306076 
L 83.978176 277.891574 
L 83.876721 278.609007 
z
" clip-path="url(#p15557d9c04)" style="fill: #1f77b4; fill-opacity: 0.2; stroke: #1f77b4; stroke-opacity: 0.2"/>
    <path d="M 86.615994 291.789205 
L 86.615994 291.91401 
L 86.818903 293.657171 
L 87.224721 291.758786 
L 88.036358 291.257084 
L 88.442176 291.375931 
L 88.442176 291.085016 
L 88.442176 291.085016 
L 88.036358 291.148411 
L 87.224721 291.52859 
L 86.818903 291.207076 
L 86.615994 291.789205 
z
" clip-path="url(#p15557d9c04)" style="fill: #1f77b4; fill-opacity: 0.2; stroke: #1f77b4; stroke-opacity: 0.2"/>
    <path d="M 90.065449 290.59316 
L 90.065449 290.893365 
L 90.268358 290.92941 
L 90.877085 290.424306 
L 91.688721 290.372201 
L 92.09454 290.144806 
L 93.311994 292.311806 
L 93.311994 289.702405 
L 93.311994 289.702405 
L 92.09454 289.894464 
L 91.688721 290.113227 
L 90.877085 290.204947 
L 90.268358 290.155083 
L 90.065449 290.59316 
z
" clip-path="url(#p15557d9c04)" style="fill: #1f77b4; fill-opacity: 0.2; stroke: #1f77b4; stroke-opacity: 0.2"/>
    <path d="M 93.920721 289.050843 
L 93.920721 289.695454 
L 94.123631 289.989694 
L 95.138176 289.474011 
L 95.746903 289.527525 
L 96.152722 289.34315 
L 96.55854 292.647244 
L 98.181812 290.900066 
L 99.399267 288.786392 
L 99.805085 293.518615 
L 100.616722 288.342713 
L 101.225449 288.004845 
L 102.239994 288.199928 
L 103.051631 291.952014 
L 103.051631 288.076303 
L 103.051631 288.076303 
L 102.239994 287.530306 
L 101.225449 287.98365 
L 100.616722 287.781539 
L 99.805085 289.337206 
L 99.399267 288.356711 
L 98.181812 288.784518 
L 96.55854 289.970241 
L 96.152722 289.14425 
L 95.746903 289.12029 
L 95.138176 289.42592 
L 94.123631 289.24127 
L 93.920721 289.050843 
z
" clip-path="url(#p15557d9c04)" style="fill: #1f77b4; fill-opacity: 0.2; stroke: #1f77b4; stroke-opacity: 0.2"/>
    <path d="M 104.269085 286.621377 
L 104.269085 286.89058 
L 105.080722 286.370393 
L 106.298176 290.239665 
L 106.703994 287.069811 
L 107.312722 286.60751 
L 107.921449 291.773964 
L 109.544722 285.70077 
L 110.356358 285.993547 
L 112.18254 284.811281 
L 112.791267 292.772358 
L 114.008722 284.359139 
L 114.41454 284.276209 
L 116.443631 284.531952 
L 117.661086 284.095706 
L 118.472722 285.213813 
L 119.284358 293.325544 
L 120.704722 283.53295 
L 122.530904 293.089063 
L 122.530904 283.900737 
L 122.530904 283.900737 
L 120.704722 283.022864 
L 119.284358 290.306783 
L 118.472722 283.94337 
L 117.661086 283.549794 
L 116.443631 283.865993 
L 114.41454 283.884593 
L 114.008722 283.901844 
L 112.791267 289.204494 
L 112.18254 284.634366 
L 110.356358 285.114058 
L 109.544722 285.152772 
L 107.921449 285.237197 
L 107.312722 285.801607 
L 106.703994 285.777689 
L 106.298176 286.364495 
L 105.080722 286.265205 
L 104.269085 286.621377 
z
" clip-path="url(#p15557d9c04)" style="fill: #1f77b4; fill-opacity: 0.2; stroke: #1f77b4; stroke-opacity: 0.2"/>
    <path d="M 125.777449 289.459202 
L 125.777449 292.870851 
L 127.400722 282.697658 
L 128.618177 282.729413 
L 128.618177 282.618678 
L 128.618177 282.618678 
L 127.400722 282.436928 
L 125.777449 289.459202 
z
" clip-path="url(#p15557d9c04)" style="fill: #1f77b4; fill-opacity: 0.2; stroke: #1f77b4; stroke-opacity: 0.2"/>
    <path d="M 132.27054 292.389038 
L 132.27054 292.42172 
L 134.096722 281.559449 
L 134.096722 281.104527 
L 134.096722 281.104527 
L 132.27054 292.389038 
z
" clip-path="url(#p15557d9c04)" style="fill: #1f77b4; fill-opacity: 0.2; stroke: #1f77b4; stroke-opacity: 0.2"/>
    <path d="M 138.763631 287.750833 
L 138.763631 292.049299 
L 140.792722 280.652073 
L 142.010177 291.898235 
L 142.010177 291.779206 
L 142.010177 291.779206 
L 140.792722 280.13611 
L 138.763631 287.750833 
z
" clip-path="url(#p15557d9c04)" style="fill: #1f77b4; fill-opacity: 0.2; stroke: #1f77b4; stroke-opacity: 0.2"/>
    <path d="M 146.879995 291.359982 
L 146.879995 291.495703 
L 146.879995 291.359982 
L 146.879995 291.359982 
z
" clip-path="url(#p15557d9c04)" style="fill: #1f77b4; fill-opacity: 0.2; stroke: #1f77b4; stroke-opacity: 0.2"/>
    <path d="M 151.749813 287.584184 
L 151.749813 291.181743 
L 151.749813 287.584184 
L 151.749813 287.584184 
z
" clip-path="url(#p15557d9c04)" style="fill: #1f77b4; fill-opacity: 0.2; stroke: #1f77b4; stroke-opacity: 0.2"/>
    <path d="M 161.48945 290.482045 
L 161.48945 290.654508 
L 164.735996 290.370191 
L 171.229087 289.933487 
L 171.229087 289.921554 
L 171.229087 289.921554 
L 164.735996 290.33635 
L 161.48945 290.482045 
z
" clip-path="url(#p15557d9c04)" style="fill: #1f77b4; fill-opacity: 0.2; stroke: #1f77b4; stroke-opacity: 0.2"/>
    <path d="M 177.722178 289.480931 
L 177.722178 289.505511 
L 177.722178 289.480931 
L 177.722178 289.480931 
z
" clip-path="url(#p15557d9c04)" style="fill: #1f77b4; fill-opacity: 0.2; stroke: #1f77b4; stroke-opacity: 0.2"/>
    <path d="M 187.461814 288.757366 
L 187.461814 288.778485 
L 190.70836 288.789935 
L 190.70836 288.695846 
L 190.70836 288.695846 
L 187.461814 288.757366 
z
" clip-path="url(#p15557d9c04)" style="fill: #1f77b4; fill-opacity: 0.2; stroke: #1f77b4; stroke-opacity: 0.2"/>
    <path d="M 210.187633 287.376315 
L 210.187633 287.53715 
L 219.927269 286.967117 
L 219.927269 286.701706 
L 219.927269 286.701706 
L 210.187633 287.376315 
z
" clip-path="url(#p15557d9c04)" style="fill: #1f77b4; fill-opacity: 0.2; stroke: #1f77b4; stroke-opacity: 0.2"/>
    <path d="M 236.159997 285.790385 
L 236.159997 286.597765 
L 244.276361 285.853615 
L 249.146179 285.804711 
L 255.63927 285.523346 
L 268.625452 284.701005 
L 278.365089 284.2757 
L 278.365089 284.076851 
L 278.365089 284.076851 
L 268.625452 284.568134 
L 255.63927 285.416606 
L 249.146179 285.727843 
L 244.276361 285.113053 
L 236.159997 285.790385 
z
" clip-path="url(#p15557d9c04)" style="fill: #1f77b4; fill-opacity: 0.2; stroke: #1f77b4; stroke-opacity: 0.2"/>
    <path d="M 288.104725 283.556155 
L 288.104725 283.638621 
L 288.104725 283.556155 
L 288.104725 283.556155 
z
" clip-path="url(#p15557d9c04)" style="fill: #1f77b4; fill-opacity: 0.2; stroke: #1f77b4; stroke-opacity: 0.2"/>
    <path d="M 395.240727 276.955013 
L 395.240727 277.17633 
L 395.240727 276.955013 
L 395.240727 276.955013 
z
" clip-path="url(#p15557d9c04)" style="fill: #1f77b4; fill-opacity: 0.2; stroke: #1f77b4; stroke-opacity: 0.2"/>
   </g>
   <g id="matplotlib.axis_1">
    <g id="xtick_1">
     <g id="line2d_1">
      <defs>
       <path id="me894cdab34" d="M 0 0 
L 0 3.5 
" style="stroke: #000000; stroke-width: 0.8"/>
      </defs>
      <g>
       <use xlink:href="#me894cdab34" x="73.832721" y="307.584" style="stroke: #000000; stroke-width: 0.8"/>
      </g>
     </g>
     <g id="text_1">
      <!-- 0.0 -->
      <g transform="translate(65.881159 322.182437)scale(0.1 -0.1)">
       <defs>
        <path id="DejaVuSans-30" d="M 2034 4250 
Q 1547 4250 1301 3770 
Q 1056 3291 1056 2328 
Q 1056 1369 1301 889 
Q 1547 409 2034 409 
Q 2525 409 2770 889 
Q 3016 1369 3016 2328 
Q 3016 3291 2770 3770 
Q 2525 4250 2034 4250 
z
M 2034 4750 
Q 2819 4750 3233 4129 
Q 3647 3509 3647 2328 
Q 3647 1150 3233 529 
Q 2819 -91 2034 -91 
Q 1250 -91 836 529 
Q 422 1150 422 2328 
Q 422 3509 836 4129 
Q 1250 4750 2034 4750 
z
" transform="scale(0.015625)"/>
        <path id="DejaVuSans-2e" d="M 684 794 
L 1344 794 
L 1344 0 
L 684 0 
L 684 794 
z
" transform="scale(0.015625)"/>
       </defs>
       <use xlink:href="#DejaVuSans-30"/>
       <use xlink:href="#DejaVuSans-2e" x="63.623047"/>
       <use xlink:href="#DejaVuSans-30" x="95.410156"/>
      </g>
     </g>
    </g>
    <g id="xtick_2">
     <g id="line2d_2">
      <g>
       <use xlink:href="#me894cdab34" x="134.304344" y="307.584" style="stroke: #000000; stroke-width: 0.8"/>
      </g>
     </g>
     <g id="text_2">
      <!-- 0.5 -->
      <g transform="translate(126.352781 322.182437)scale(0.1 -0.1)">
       <defs>
        <path id="DejaVuSans-35" d="M 691 4666 
L 3169 4666 
L 3169 4134 
L 1269 4134 
L 1269 2991 
Q 1406 3038 1543 3061 
Q 1681 3084 1819 3084 
Q 2600 3084 3056 2656 
Q 3513 2228 3513 1497 
Q 3513 744 3044 326 
Q 2575 -91 1722 -91 
Q 1428 -91 1123 -41 
Q 819 9 494 109 
L 494 744 
Q 775 591 1075 516 
Q 1375 441 1709 441 
Q 2250 441 2565 725 
Q 2881 1009 2881 1497 
Q 2881 1984 2565 2268 
Q 2250 2553 1709 2553 
Q 1456 2553 1204 2497 
Q 953 2441 691 2322 
L 691 4666 
z
" transform="scale(0.015625)"/>
       </defs>
       <use xlink:href="#DejaVuSans-30"/>
       <use xlink:href="#DejaVuSans-2e" x="63.623047"/>
       <use xlink:href="#DejaVuSans-35" x="95.410156"/>
      </g>
     </g>
    </g>
    <g id="xtick_3">
     <g id="line2d_3">
      <g>
       <use xlink:href="#me894cdab34" x="194.775966" y="307.584" style="stroke: #000000; stroke-width: 0.8"/>
      </g>
     </g>
     <g id="text_3">
      <!-- 1.0 -->
      <g transform="translate(186.824404 322.182437)scale(0.1 -0.1)">
       <defs>
        <path id="DejaVuSans-31" d="M 794 531 
L 1825 531 
L 1825 4091 
L 703 3866 
L 703 4441 
L 1819 4666 
L 2450 4666 
L 2450 531 
L 3481 531 
L 3481 0 
L 794 0 
L 794 531 
z
" transform="scale(0.015625)"/>
       </defs>
       <use xlink:href="#DejaVuSans-31"/>
       <use xlink:href="#DejaVuSans-2e" x="63.623047"/>
       <use xlink:href="#DejaVuSans-30" x="95.410156"/>
      </g>
     </g>
    </g>
    <g id="xtick_4">
     <g id="line2d_4">
      <g>
       <use xlink:href="#me894cdab34" x="255.247589" y="307.584" style="stroke: #000000; stroke-width: 0.8"/>
      </g>
     </g>
     <g id="text_4">
      <!-- 1.5 -->
      <g transform="translate(247.296026 322.182437)scale(0.1 -0.1)">
       <use xlink:href="#DejaVuSans-31"/>
       <use xlink:href="#DejaVuSans-2e" x="63.623047"/>
       <use xlink:href="#DejaVuSans-35" x="95.410156"/>
      </g>
     </g>
    </g>
    <g id="xtick_5">
     <g id="line2d_5">
      <g>
       <use xlink:href="#me894cdab34" x="315.719211" y="307.584" style="stroke: #000000; stroke-width: 0.8"/>
      </g>
     </g>
     <g id="text_5">
      <!-- 2.0 -->
      <g transform="translate(307.767649 322.182437)scale(0.1 -0.1)">
       <defs>
        <path id="DejaVuSans-32" d="M 1228 531 
L 3431 531 
L 3431 0 
L 469 0 
L 469 531 
Q 828 903 1448 1529 
Q 2069 2156 2228 2338 
Q 2531 2678 2651 2914 
Q 2772 3150 2772 3378 
Q 2772 3750 2511 3984 
Q 2250 4219 1831 4219 
Q 1534 4219 1204 4116 
Q 875 4013 500 3803 
L 500 4441 
Q 881 4594 1212 4672 
Q 1544 4750 1819 4750 
Q 2544 4750 2975 4387 
Q 3406 4025 3406 3419 
Q 3406 3131 3298 2873 
Q 3191 2616 2906 2266 
Q 2828 2175 2409 1742 
Q 1991 1309 1228 531 
z
" transform="scale(0.015625)"/>
       </defs>
       <use xlink:href="#DejaVuSans-32"/>
       <use xlink:href="#DejaVuSans-2e" x="63.623047"/>
       <use xlink:href="#DejaVuSans-30" x="95.410156"/>
      </g>
     </g>
    </g>
    <g id="xtick_6">
     <g id="line2d_6">
      <g>
       <use xlink:href="#me894cdab34" x="376.190834" y="307.584" style="stroke: #000000; stroke-width: 0.8"/>
      </g>
     </g>
     <g id="text_6">
      <!-- 2.5 -->
      <g transform="translate(368.239271 322.182437)scale(0.1 -0.1)">
       <use xlink:href="#DejaVuSans-32"/>
       <use xlink:href="#DejaVuSans-2e" x="63.623047"/>
       <use xlink:href="#DejaVuSans-35" x="95.410156"/>
      </g>
     </g>
    </g>
    <g id="text_7">
     <!-- Global Problem Size -->
     <g transform="translate(186.327969 335.860562)scale(0.1 -0.1)">
      <defs>
       <path id="DejaVuSans-47" d="M 3809 666 
L 3809 1919 
L 2778 1919 
L 2778 2438 
L 4434 2438 
L 4434 434 
Q 4069 175 3628 42 
Q 3188 -91 2688 -91 
Q 1594 -91 976 548 
Q 359 1188 359 2328 
Q 359 3472 976 4111 
Q 1594 4750 2688 4750 
Q 3144 4750 3555 4637 
Q 3966 4525 4313 4306 
L 4313 3634 
Q 3963 3931 3569 4081 
Q 3175 4231 2741 4231 
Q 1884 4231 1454 3753 
Q 1025 3275 1025 2328 
Q 1025 1384 1454 906 
Q 1884 428 2741 428 
Q 3075 428 3337 486 
Q 3600 544 3809 666 
z
" transform="scale(0.015625)"/>
       <path id="DejaVuSans-6c" d="M 603 4863 
L 1178 4863 
L 1178 0 
L 603 0 
L 603 4863 
z
" transform="scale(0.015625)"/>
       <path id="DejaVuSans-6f" d="M 1959 3097 
Q 1497 3097 1228 2736 
Q 959 2375 959 1747 
Q 959 1119 1226 758 
Q 1494 397 1959 397 
Q 2419 397 2687 759 
Q 2956 1122 2956 1747 
Q 2956 2369 2687 2733 
Q 2419 3097 1959 3097 
z
M 1959 3584 
Q 2709 3584 3137 3096 
Q 3566 2609 3566 1747 
Q 3566 888 3137 398 
Q 2709 -91 1959 -91 
Q 1206 -91 779 398 
Q 353 888 353 1747 
Q 353 2609 779 3096 
Q 1206 3584 1959 3584 
z
" transform="scale(0.015625)"/>
       <path id="DejaVuSans-62" d="M 3116 1747 
Q 3116 2381 2855 2742 
Q 2594 3103 2138 3103 
Q 1681 3103 1420 2742 
Q 1159 2381 1159 1747 
Q 1159 1113 1420 752 
Q 1681 391 2138 391 
Q 2594 391 2855 752 
Q 3116 1113 3116 1747 
z
M 1159 2969 
Q 1341 3281 1617 3432 
Q 1894 3584 2278 3584 
Q 2916 3584 3314 3078 
Q 3713 2572 3713 1747 
Q 3713 922 3314 415 
Q 2916 -91 2278 -91 
Q 1894 -91 1617 61 
Q 1341 213 1159 525 
L 1159 0 
L 581 0 
L 581 4863 
L 1159 4863 
L 1159 2969 
z
" transform="scale(0.015625)"/>
       <path id="DejaVuSans-61" d="M 2194 1759 
Q 1497 1759 1228 1600 
Q 959 1441 959 1056 
Q 959 750 1161 570 
Q 1363 391 1709 391 
Q 2188 391 2477 730 
Q 2766 1069 2766 1631 
L 2766 1759 
L 2194 1759 
z
M 3341 1997 
L 3341 0 
L 2766 0 
L 2766 531 
Q 2569 213 2275 61 
Q 1981 -91 1556 -91 
Q 1019 -91 701 211 
Q 384 513 384 1019 
Q 384 1609 779 1909 
Q 1175 2209 1959 2209 
L 2766 2209 
L 2766 2266 
Q 2766 2663 2505 2880 
Q 2244 3097 1772 3097 
Q 1472 3097 1187 3025 
Q 903 2953 641 2809 
L 641 3341 
Q 956 3463 1253 3523 
Q 1550 3584 1831 3584 
Q 2591 3584 2966 3190 
Q 3341 2797 3341 1997 
z
" transform="scale(0.015625)"/>
       <path id="DejaVuSans-20" transform="scale(0.015625)"/>
       <path id="DejaVuSans-50" d="M 1259 4147 
L 1259 2394 
L 2053 2394 
Q 2494 2394 2734 2622 
Q 2975 2850 2975 3272 
Q 2975 3691 2734 3919 
Q 2494 4147 2053 4147 
L 1259 4147 
z
M 628 4666 
L 2053 4666 
Q 2838 4666 3239 4311 
Q 3641 3956 3641 3272 
Q 3641 2581 3239 2228 
Q 2838 1875 2053 1875 
L 1259 1875 
L 1259 0 
L 628 0 
L 628 4666 
z
" transform="scale(0.015625)"/>
       <path id="DejaVuSans-72" d="M 2631 2963 
Q 2534 3019 2420 3045 
Q 2306 3072 2169 3072 
Q 1681 3072 1420 2755 
Q 1159 2438 1159 1844 
L 1159 0 
L 581 0 
L 581 3500 
L 1159 3500 
L 1159 2956 
Q 1341 3275 1631 3429 
Q 1922 3584 2338 3584 
Q 2397 3584 2469 3576 
Q 2541 3569 2628 3553 
L 2631 2963 
z
" transform="scale(0.015625)"/>
       <path id="DejaVuSans-65" d="M 3597 1894 
L 3597 1613 
L 953 1613 
Q 991 1019 1311 708 
Q 1631 397 2203 397 
Q 2534 397 2845 478 
Q 3156 559 3463 722 
L 3463 178 
Q 3153 47 2828 -22 
Q 2503 -91 2169 -91 
Q 1331 -91 842 396 
Q 353 884 353 1716 
Q 353 2575 817 3079 
Q 1281 3584 2069 3584 
Q 2775 3584 3186 3129 
Q 3597 2675 3597 1894 
z
M 3022 2063 
Q 3016 2534 2758 2815 
Q 2500 3097 2075 3097 
Q 1594 3097 1305 2825 
Q 1016 2553 972 2059 
L 3022 2063 
z
" transform="scale(0.015625)"/>
       <path id="DejaVuSans-6d" d="M 3328 2828 
Q 3544 3216 3844 3400 
Q 4144 3584 4550 3584 
Q 5097 3584 5394 3201 
Q 5691 2819 5691 2113 
L 5691 0 
L 5113 0 
L 5113 2094 
Q 5113 2597 4934 2840 
Q 4756 3084 4391 3084 
Q 3944 3084 3684 2787 
Q 3425 2491 3425 1978 
L 3425 0 
L 2847 0 
L 2847 2094 
Q 2847 2600 2669 2842 
Q 2491 3084 2119 3084 
Q 1678 3084 1418 2786 
Q 1159 2488 1159 1978 
L 1159 0 
L 581 0 
L 581 3500 
L 1159 3500 
L 1159 2956 
Q 1356 3278 1631 3431 
Q 1906 3584 2284 3584 
Q 2666 3584 2933 3390 
Q 3200 3197 3328 2828 
z
" transform="scale(0.015625)"/>
       <path id="DejaVuSans-53" d="M 3425 4513 
L 3425 3897 
Q 3066 4069 2747 4153 
Q 2428 4238 2131 4238 
Q 1616 4238 1336 4038 
Q 1056 3838 1056 3469 
Q 1056 3159 1242 3001 
Q 1428 2844 1947 2747 
L 2328 2669 
Q 3034 2534 3370 2195 
Q 3706 1856 3706 1288 
Q 3706 609 3251 259 
Q 2797 -91 1919 -91 
Q 1588 -91 1214 -16 
Q 841 59 441 206 
L 441 856 
Q 825 641 1194 531 
Q 1563 422 1919 422 
Q 2459 422 2753 634 
Q 3047 847 3047 1241 
Q 3047 1584 2836 1778 
Q 2625 1972 2144 2069 
L 1759 2144 
Q 1053 2284 737 2584 
Q 422 2884 422 3419 
Q 422 4038 858 4394 
Q 1294 4750 2059 4750 
Q 2388 4750 2728 4690 
Q 3069 4631 3425 4513 
z
" transform="scale(0.015625)"/>
       <path id="DejaVuSans-69" d="M 603 3500 
L 1178 3500 
L 1178 0 
L 603 0 
L 603 3500 
z
M 603 4863 
L 1178 4863 
L 1178 4134 
L 603 4134 
L 603 4863 
z
" transform="scale(0.015625)"/>
       <path id="DejaVuSans-7a" d="M 353 3500 
L 3084 3500 
L 3084 2975 
L 922 459 
L 3084 459 
L 3084 0 
L 275 0 
L 275 525 
L 2438 3041 
L 353 3041 
L 353 3500 
z
" transform="scale(0.015625)"/>
      </defs>
      <use xlink:href="#DejaVuSans-47"/>
      <use xlink:href="#DejaVuSans-6c" x="77.490234"/>
      <use xlink:href="#DejaVuSans-6f" x="105.273438"/>
      <use xlink:href="#DejaVuSans-62" x="166.455078"/>
      <use xlink:href="#DejaVuSans-61" x="229.931641"/>
      <use xlink:href="#DejaVuSans-6c" x="291.210938"/>
      <use xlink:href="#DejaVuSans-20" x="318.994141"/>
      <use xlink:href="#DejaVuSans-50" x="350.78125"/>
      <use xlink:href="#DejaVuSans-72" x="409.333984"/>
      <use xlink:href="#DejaVuSans-6f" x="448.197266"/>
      <use xlink:href="#DejaVuSans-62" x="509.378906"/>
      <use xlink:href="#DejaVuSans-6c" x="572.855469"/>
      <use xlink:href="#DejaVuSans-65" x="600.638672"/>
      <use xlink:href="#DejaVuSans-6d" x="662.162109"/>
      <use xlink:href="#DejaVuSans-20" x="759.574219"/>
      <use xlink:href="#DejaVuSans-53" x="791.361328"/>
      <use xlink:href="#DejaVuSans-69" x="854.837891"/>
      <use xlink:href="#DejaVuSans-7a" x="882.621094"/>
      <use xlink:href="#DejaVuSans-65" x="935.111328"/>
     </g>
    </g>
    <g id="text_8">
     <!-- 1e10 -->
     <g transform="translate(389.479375 334.860562)scale(0.1 -0.1)">
      <use xlink:href="#DejaVuSans-31"/>
      <use xlink:href="#DejaVuSans-65" x="63.623047"/>
      <use xlink:href="#DejaVuSans-31" x="125.146484"/>
      <use xlink:href="#DejaVuSans-30" x="188.769531"/>
     </g>
    </g>
   </g>
   <g id="matplotlib.axis_2">
    <g id="ytick_1">
     <g id="line2d_7">
      <defs>
       <path id="m2be7fcd18d" d="M 0 0 
L -3.5 0 
" style="stroke: #000000; stroke-width: 0.8"/>
      </defs>
      <g>
       <use xlink:href="#m2be7fcd18d" x="57.6" y="296.150595" style="stroke: #000000; stroke-width: 0.8"/>
      </g>
     </g>
     <g id="text_9">
      <!-- 0 -->
      <g transform="translate(44.2375 299.949814)scale(0.1 -0.1)">
       <use xlink:href="#DejaVuSans-30"/>
      </g>
     </g>
    </g>
    <g id="ytick_2">
     <g id="line2d_8">
      <g>
       <use xlink:href="#m2be7fcd18d" x="57.6" y="245.261604" style="stroke: #000000; stroke-width: 0.8"/>
      </g>
     </g>
     <g id="text_10">
      <!-- 2 -->
      <g transform="translate(44.2375 249.060823)scale(0.1 -0.1)">
       <use xlink:href="#DejaVuSans-32"/>
      </g>
     </g>
    </g>
    <g id="ytick_3">
     <g id="line2d_9">
      <g>
       <use xlink:href="#m2be7fcd18d" x="57.6" y="194.372613" style="stroke: #000000; stroke-width: 0.8"/>
      </g>
     </g>
     <g id="text_11">
      <!-- 4 -->
      <g transform="translate(44.2375 198.171832)scale(0.1 -0.1)">
       <defs>
        <path id="DejaVuSans-34" d="M 2419 4116 
L 825 1625 
L 2419 1625 
L 2419 4116 
z
M 2253 4666 
L 3047 4666 
L 3047 1625 
L 3713 1625 
L 3713 1100 
L 3047 1100 
L 3047 0 
L 2419 0 
L 2419 1100 
L 313 1100 
L 313 1709 
L 2253 4666 
z
" transform="scale(0.015625)"/>
       </defs>
       <use xlink:href="#DejaVuSans-34"/>
      </g>
     </g>
    </g>
    <g id="ytick_4">
     <g id="line2d_10">
      <g>
       <use xlink:href="#m2be7fcd18d" x="57.6" y="143.483622" style="stroke: #000000; stroke-width: 0.8"/>
      </g>
     </g>
     <g id="text_12">
      <!-- 6 -->
      <g transform="translate(44.2375 147.282841)scale(0.1 -0.1)">
       <defs>
        <path id="DejaVuSans-36" d="M 2113 2584 
Q 1688 2584 1439 2293 
Q 1191 2003 1191 1497 
Q 1191 994 1439 701 
Q 1688 409 2113 409 
Q 2538 409 2786 701 
Q 3034 994 3034 1497 
Q 3034 2003 2786 2293 
Q 2538 2584 2113 2584 
z
M 3366 4563 
L 3366 3988 
Q 3128 4100 2886 4159 
Q 2644 4219 2406 4219 
Q 1781 4219 1451 3797 
Q 1122 3375 1075 2522 
Q 1259 2794 1537 2939 
Q 1816 3084 2150 3084 
Q 2853 3084 3261 2657 
Q 3669 2231 3669 1497 
Q 3669 778 3244 343 
Q 2819 -91 2113 -91 
Q 1303 -91 875 529 
Q 447 1150 447 2328 
Q 447 3434 972 4092 
Q 1497 4750 2381 4750 
Q 2619 4750 2861 4703 
Q 3103 4656 3366 4563 
z
" transform="scale(0.015625)"/>
       </defs>
       <use xlink:href="#DejaVuSans-36"/>
      </g>
     </g>
    </g>
    <g id="ytick_5">
     <g id="line2d_11">
      <g>
       <use xlink:href="#m2be7fcd18d" x="57.6" y="92.594631" style="stroke: #000000; stroke-width: 0.8"/>
      </g>
     </g>
     <g id="text_13">
      <!-- 8 -->
      <g transform="translate(44.2375 96.393849)scale(0.1 -0.1)">
       <defs>
        <path id="DejaVuSans-38" d="M 2034 2216 
Q 1584 2216 1326 1975 
Q 1069 1734 1069 1313 
Q 1069 891 1326 650 
Q 1584 409 2034 409 
Q 2484 409 2743 651 
Q 3003 894 3003 1313 
Q 3003 1734 2745 1975 
Q 2488 2216 2034 2216 
z
M 1403 2484 
Q 997 2584 770 2862 
Q 544 3141 544 3541 
Q 544 4100 942 4425 
Q 1341 4750 2034 4750 
Q 2731 4750 3128 4425 
Q 3525 4100 3525 3541 
Q 3525 3141 3298 2862 
Q 3072 2584 2669 2484 
Q 3125 2378 3379 2068 
Q 3634 1759 3634 1313 
Q 3634 634 3220 271 
Q 2806 -91 2034 -91 
Q 1263 -91 848 271 
Q 434 634 434 1313 
Q 434 1759 690 2068 
Q 947 2378 1403 2484 
z
M 1172 3481 
Q 1172 3119 1398 2916 
Q 1625 2713 2034 2713 
Q 2441 2713 2670 2916 
Q 2900 3119 2900 3481 
Q 2900 3844 2670 4047 
Q 2441 4250 2034 4250 
Q 1625 4250 1398 4047 
Q 1172 3844 1172 3481 
z
" transform="scale(0.015625)"/>
       </defs>
       <use xlink:href="#DejaVuSans-38"/>
      </g>
     </g>
    </g>
    <g id="ytick_6">
     <g id="line2d_12">
      <g>
       <use xlink:href="#m2be7fcd18d" x="57.6" y="41.705639" style="stroke: #000000; stroke-width: 0.8"/>
      </g>
     </g>
     <g id="text_14">
      <!-- 10 -->
      <g transform="translate(37.875 45.504858)scale(0.1 -0.1)">
       <use xlink:href="#DejaVuSans-31"/>
       <use xlink:href="#DejaVuSans-30" x="63.623047"/>
      </g>
     </g>
    </g>
    <g id="text_15">
     <!-- GFLOPS -->
     <g transform="translate(31.795312 194.007688)rotate(-90)scale(0.1 -0.1)">
      <defs>
       <path id="DejaVuSans-46" d="M 628 4666 
L 3309 4666 
L 3309 4134 
L 1259 4134 
L 1259 2759 
L 3109 2759 
L 3109 2228 
L 1259 2228 
L 1259 0 
L 628 0 
L 628 4666 
z
" transform="scale(0.015625)"/>
       <path id="DejaVuSans-4c" d="M 628 4666 
L 1259 4666 
L 1259 531 
L 3531 531 
L 3531 0 
L 628 0 
L 628 4666 
z
" transform="scale(0.015625)"/>
       <path id="DejaVuSans-4f" d="M 2522 4238 
Q 1834 4238 1429 3725 
Q 1025 3213 1025 2328 
Q 1025 1447 1429 934 
Q 1834 422 2522 422 
Q 3209 422 3611 934 
Q 4013 1447 4013 2328 
Q 4013 3213 3611 3725 
Q 3209 4238 2522 4238 
z
M 2522 4750 
Q 3503 4750 4090 4092 
Q 4678 3434 4678 2328 
Q 4678 1225 4090 567 
Q 3503 -91 2522 -91 
Q 1538 -91 948 565 
Q 359 1222 359 2328 
Q 359 3434 948 4092 
Q 1538 4750 2522 4750 
z
" transform="scale(0.015625)"/>
      </defs>
      <use xlink:href="#DejaVuSans-47"/>
      <use xlink:href="#DejaVuSans-46" x="77.490234"/>
      <use xlink:href="#DejaVuSans-4c" x="135.009766"/>
      <use xlink:href="#DejaVuSans-4f" x="187.097656"/>
      <use xlink:href="#DejaVuSans-50" x="265.808594"/>
      <use xlink:href="#DejaVuSans-53" x="326.111328"/>
     </g>
    </g>
   </g>
   <g id="line2d_13">
    <path d="M 73.832727 234.195284 
L 73.841044 59.951081 
L 73.83422 276.128067 
L 73.943687 153.436363 
L 73.949235 146.777666 
L 73.959539 224.272483 
L 73.982525 150.234555 
L 74.03563 294.943418 
L 73.99917 149.614219 
L 74.086357 294.753305 
L 74.12044 151.366581 
L 74.187812 294.28167 
L 74.238539 294.606865 
L 74.365357 293.134856 
L 74.441448 293.932927 
L 74.466812 292.813355 
L 74.517539 294.340125 
L 74.542903 293.051464 
L 74.59363 293.253369 
L 74.644357 294.114237 
L 74.720448 291.31359 
L 74.745812 293.4548 
L 74.897994 292.278117 
L 75.050176 293.41587 
L 75.075539 290.091319 
L 75.100903 292.62314 
L 75.43063 291.708419 
L 75.455994 293.558173 
L 75.506721 291.753163 
L 75.608176 291.444 
L 75.658903 292.047826 
L 75.734994 290.83982 
L 75.861812 291.819313 
L 75.963267 290.469412 
L 76.115448 289.99774 
L 76.26763 292.808181 
L 76.369085 289.516397 
L 76.571994 289.757535 
L 76.622721 289.456598 
L 76.673448 291.687682 
L 77.028539 288.288183 
L 77.079267 292.885828 
L 77.256812 287.699545 
L 77.38363 287.612932 
L 77.485085 290.83403 
L 77.561176 286.62438 
L 77.637267 286.951927 
L 77.738721 286.562028 
L 77.890903 289.789609 
L 78.017721 286.35047 
L 78.093812 289.77625 
L 78.296721 285.101253 
L 78.398176 285.395684 
L 78.626448 284.783318 
L 78.702539 292.477547 
L 78.803994 284.196288 
L 78.854721 284.988725 
L 78.905448 285.625942 
L 79.159085 284.277208 
L 79.311267 286.384626 
L 79.412721 284.302982 
L 79.514176 290.466544 
L 79.539539 284.016115 
L 79.691721 284.228895 
L 79.919994 289.058444 
L 79.970721 282.764373 
L 80.046812 283.640046 
L 80.224358 283.404099 
L 80.325812 292.886918 
L 80.528721 283.035109 
L 80.680903 283.455556 
L 80.807721 282.116531 
L 81.137448 291.342951 
L 81.365721 281.069516 
L 81.441812 281.691544 
L 81.644721 280.987686 
L 81.822267 281.263326 
L 81.949085 290.447025 
L 82.050539 281.094375 
L 82.202721 282.172492 
L 82.354903 292.347589 
L 82.709994 279.44832 
L 82.760721 286.634239 
L 82.96363 286.15066 
L 83.039721 284.638539 
L 83.572358 292.579298 
L 83.597721 278.44115 
L 83.775267 290.192538 
L 83.876721 279.313896 
L 83.978176 285.417878 
L 84.789812 292.387151 
L 84.992721 277.220463 
L 85.19563 291.189183 
L 86.007267 292.049523 
L 86.108721 277.096358 
L 86.615994 291.851608 
L 86.818903 292.491361 
L 87.224721 291.643688 
L 88.036358 291.202748 
L 88.442176 291.228329 
L 89.050903 290.683209 
L 90.065449 290.745316 
L 90.268358 290.542247 
L 90.877085 290.331643 
L 91.688721 290.20939 
L 92.09454 290.014655 
L 93.311994 290.971442 
L 93.717812 289.390069 
L 93.920721 289.373149 
L 94.123631 289.621555 
L 96.152722 289.2437 
L 96.55854 291.325238 
L 98.181812 289.66128 
L 99.399267 288.601372 
L 99.805085 291.417236 
L 100.616722 288.057836 
L 102.239994 287.88965 
L 103.051631 290.037237 
L 103.660358 287.258228 
L 104.269085 286.755979 
L 105.080722 286.317799 
L 106.298176 288.282708 
L 106.703994 286.368654 
L 107.312722 286.204558 
L 107.921449 287.518627 
L 109.544722 285.422713 
L 110.356358 285.553803 
L 112.18254 284.722824 
L 112.791267 291.238533 
L 114.008722 284.094185 
L 114.41454 284.080401 
L 116.443631 284.198972 
L 117.661086 283.82275 
L 118.472722 284.578591 
L 119.284358 291.816164 
L 120.704722 283.277907 
L 122.530904 288.4949 
L 122.936722 283.162682 
L 123.139631 283.519261 
L 125.777449 291.717155 
L 127.400722 282.567293 
L 128.618177 282.674045 
L 130.647268 288.879271 
L 132.27054 292.402331 
L 134.096722 281.331988 
L 134.70545 280.899928 
L 138.763631 289.196055 
L 140.792722 280.394091 
L 142.010177 291.822945 
L 145.256722 291.638396 
L 146.879995 291.427842 
L 147.488722 279.220057 
L 151.749813 289.972926 
L 153.373086 286.016816 
L 161.48945 290.549303 
L 171.229087 289.927521 
L 176.098905 289.324804 
L 177.722178 289.493221 
L 180.968723 289.345083 
L 187.461814 288.767926 
L 190.70836 288.741311 
L 210.187633 287.456733 
L 229.666906 286.255384 
L 236.159997 286.194075 
L 244.276361 285.483334 
L 249.146179 285.766277 
L 255.63927 285.469976 
L 268.625452 284.634569 
L 278.365089 284.176276 
L 281.611634 283.871107 
L 288.104725 283.587868 
L 292.974543 283.013908 
L 301.090907 282.912613 
L 317.323635 281.757535 
L 323.816726 281.112593 
L 333.556362 281.106232 
L 366.021818 278.839814 
L 380.631272 278.084545 
L 395.240727 277.071464 
L 398.487273 276.98028 
L 398.487273 276.98028 
" clip-path="url(#p15557d9c04)" style="fill: none; stroke: #1f77b4; stroke-width: 1.5; stroke-linecap: square"/>
   </g>
   <g id="line2d_14"/>
   <g id="patch_3">
    <path d="M 57.6 307.584 
L 57.6 41.472 
" style="fill: none; stroke: #000000; stroke-width: 0.8; stroke-linejoin: miter; stroke-linecap: square"/>
   </g>
   <g id="patch_4">
    <path d="M 414.72 307.584 
L 414.72 41.472 
" style="fill: none; stroke: #000000; stroke-width: 0.8; stroke-linejoin: miter; stroke-linecap: square"/>
   </g>
   <g id="patch_5">
    <path d="M 57.6 307.584 
L 414.72 307.584 
" style="fill: none; stroke: #000000; stroke-width: 0.8; stroke-linejoin: miter; stroke-linecap: square"/>
   </g>
   <g id="patch_6">
    <path d="M 57.6 41.472 
L 414.72 41.472 
" style="fill: none; stroke: #000000; stroke-width: 0.8; stroke-linejoin: miter; stroke-linecap: square"/>
   </g>
   <g id="text_16">
    <!-- Performance vs Global Problem Size -->
    <g transform="translate(127.8525 35.472)scale(0.12 -0.12)">
     <defs>
      <path id="DejaVuSans-66" d="M 2375 4863 
L 2375 4384 
L 1825 4384 
Q 1516 4384 1395 4259 
Q 1275 4134 1275 3809 
L 1275 3500 
L 2222 3500 
L 2222 3053 
L 1275 3053 
L 1275 0 
L 697 0 
L 697 3053 
L 147 3053 
L 147 3500 
L 697 3500 
L 697 3744 
Q 697 4328 969 4595 
Q 1241 4863 1831 4863 
L 2375 4863 
z
" transform="scale(0.015625)"/>
      <path id="DejaVuSans-6e" d="M 3513 2113 
L 3513 0 
L 2938 0 
L 2938 2094 
Q 2938 2591 2744 2837 
Q 2550 3084 2163 3084 
Q 1697 3084 1428 2787 
Q 1159 2491 1159 1978 
L 1159 0 
L 581 0 
L 581 3500 
L 1159 3500 
L 1159 2956 
Q 1366 3272 1645 3428 
Q 1925 3584 2291 3584 
Q 2894 3584 3203 3211 
Q 3513 2838 3513 2113 
z
" transform="scale(0.015625)"/>
      <path id="DejaVuSans-63" d="M 3122 3366 
L 3122 2828 
Q 2878 2963 2633 3030 
Q 2388 3097 2138 3097 
Q 1578 3097 1268 2742 
Q 959 2388 959 1747 
Q 959 1106 1268 751 
Q 1578 397 2138 397 
Q 2388 397 2633 464 
Q 2878 531 3122 666 
L 3122 134 
Q 2881 22 2623 -34 
Q 2366 -91 2075 -91 
Q 1284 -91 818 406 
Q 353 903 353 1747 
Q 353 2603 823 3093 
Q 1294 3584 2113 3584 
Q 2378 3584 2631 3529 
Q 2884 3475 3122 3366 
z
" transform="scale(0.015625)"/>
      <path id="DejaVuSans-76" d="M 191 3500 
L 800 3500 
L 1894 563 
L 2988 3500 
L 3597 3500 
L 2284 0 
L 1503 0 
L 191 3500 
z
" transform="scale(0.015625)"/>
      <path id="DejaVuSans-73" d="M 2834 3397 
L 2834 2853 
Q 2591 2978 2328 3040 
Q 2066 3103 1784 3103 
Q 1356 3103 1142 2972 
Q 928 2841 928 2578 
Q 928 2378 1081 2264 
Q 1234 2150 1697 2047 
L 1894 2003 
Q 2506 1872 2764 1633 
Q 3022 1394 3022 966 
Q 3022 478 2636 193 
Q 2250 -91 1575 -91 
Q 1294 -91 989 -36 
Q 684 19 347 128 
L 347 722 
Q 666 556 975 473 
Q 1284 391 1588 391 
Q 1994 391 2212 530 
Q 2431 669 2431 922 
Q 2431 1156 2273 1281 
Q 2116 1406 1581 1522 
L 1381 1569 
Q 847 1681 609 1914 
Q 372 2147 372 2553 
Q 372 3047 722 3315 
Q 1072 3584 1716 3584 
Q 2034 3584 2315 3537 
Q 2597 3491 2834 3397 
z
" transform="scale(0.015625)"/>
     </defs>
     <use xlink:href="#DejaVuSans-50"/>
     <use xlink:href="#DejaVuSans-65" x="56.677734"/>
     <use xlink:href="#DejaVuSans-72" x="118.201172"/>
     <use xlink:href="#DejaVuSans-66" x="159.314453"/>
     <use xlink:href="#DejaVuSans-6f" x="194.519531"/>
     <use xlink:href="#DejaVuSans-72" x="255.701172"/>
     <use xlink:href="#DejaVuSans-6d" x="295.064453"/>
     <use xlink:href="#DejaVuSans-61" x="392.476562"/>
     <use xlink:href="#DejaVuSans-6e" x="453.755859"/>
     <use xlink:href="#DejaVuSans-63" x="517.134766"/>
     <use xlink:href="#DejaVuSans-65" x="572.115234"/>
     <use xlink:href="#DejaVuSans-20" x="633.638672"/>
     <use xlink:href="#DejaVuSans-76" x="665.425781"/>
     <use xlink:href="#DejaVuSans-73" x="724.605469"/>
     <use xlink:href="#DejaVuSans-20" x="776.705078"/>
     <use xlink:href="#DejaVuSans-47" x="808.492188"/>
     <use xlink:href="#DejaVuSans-6c" x="885.982422"/>
     <use xlink:href="#DejaVuSans-6f" x="913.765625"/>
     <use xlink:href="#DejaVuSans-62" x="974.947266"/>
     <use xlink:href="#DejaVuSans-61" x="1038.423828"/>
     <use xlink:href="#DejaVuSans-6c" x="1099.703125"/>
     <use xlink:href="#DejaVuSans-20" x="1127.486328"/>
     <use xlink:href="#DejaVuSans-50" x="1159.273438"/>
     <use xlink:href="#DejaVuSans-72" x="1217.826172"/>
     <use xlink:href="#DejaVuSans-6f" x="1256.689453"/>
     <use xlink:href="#DejaVuSans-62" x="1317.871094"/>
     <use xlink:href="#DejaVuSans-6c" x="1381.347656"/>
     <use xlink:href="#DejaVuSans-65" x="1409.130859"/>
     <use xlink:href="#DejaVuSans-6d" x="1470.654297"/>
     <use xlink:href="#DejaVuSans-20" x="1568.066406"/>
     <use xlink:href="#DejaVuSans-53" x="1599.853516"/>
     <use xlink:href="#DejaVuSans-69" x="1663.330078"/>
     <use xlink:href="#DejaVuSans-7a" x="1691.113281"/>
     <use xlink:href="#DejaVuSans-65" x="1743.603516"/>
    </g>
   </g>
   <g id="legend_1">
    <g id="patch_7">
     <path d="M 339.12 78.82825 
L 407.72 78.82825 
Q 409.72 78.82825 409.72 76.82825 
L 409.72 48.472 
Q 409.72 46.472 407.72 46.472 
L 339.12 46.472 
Q 337.12 46.472 337.12 48.472 
L 337.12 76.82825 
Q 337.12 78.82825 339.12 78.82825 
z
" style="fill: #ffffff; opacity: 0.8; stroke: #cccccc; stroke-linejoin: miter"/>
    </g>
    <g id="text_17">
     <!-- Cluster -->
     <g transform="translate(355.673906 58.070437)scale(0.1 -0.1)">
      <defs>
       <path id="DejaVuSans-43" d="M 4122 4306 
L 4122 3641 
Q 3803 3938 3442 4084 
Q 3081 4231 2675 4231 
Q 1875 4231 1450 3742 
Q 1025 3253 1025 2328 
Q 1025 1406 1450 917 
Q 1875 428 2675 428 
Q 3081 428 3442 575 
Q 3803 722 4122 1019 
L 4122 359 
Q 3791 134 3420 21 
Q 3050 -91 2638 -91 
Q 1578 -91 968 557 
Q 359 1206 359 2328 
Q 359 3453 968 4101 
Q 1578 4750 2638 4750 
Q 3056 4750 3426 4639 
Q 3797 4528 4122 4306 
z
" transform="scale(0.015625)"/>
       <path id="DejaVuSans-75" d="M 544 1381 
L 544 3500 
L 1119 3500 
L 1119 1403 
Q 1119 906 1312 657 
Q 1506 409 1894 409 
Q 2359 409 2629 706 
Q 2900 1003 2900 1516 
L 2900 3500 
L 3475 3500 
L 3475 0 
L 2900 0 
L 2900 538 
Q 2691 219 2414 64 
Q 2138 -91 1772 -91 
Q 1169 -91 856 284 
Q 544 659 544 1381 
z
M 1991 3584 
L 1991 3584 
z
" transform="scale(0.015625)"/>
       <path id="DejaVuSans-74" d="M 1172 4494 
L 1172 3500 
L 2356 3500 
L 2356 3053 
L 1172 3053 
L 1172 1153 
Q 1172 725 1289 603 
Q 1406 481 1766 481 
L 2356 481 
L 2356 0 
L 1766 0 
Q 1100 0 847 248 
Q 594 497 594 1153 
L 594 3053 
L 172 3053 
L 172 3500 
L 594 3500 
L 594 4494 
L 1172 4494 
z
" transform="scale(0.015625)"/>
      </defs>
      <use xlink:href="#DejaVuSans-43"/>
      <use xlink:href="#DejaVuSans-6c" x="69.824219"/>
      <use xlink:href="#DejaVuSans-75" x="97.607422"/>
      <use xlink:href="#DejaVuSans-73" x="160.986328"/>
      <use xlink:href="#DejaVuSans-74" x="213.085938"/>
      <use xlink:href="#DejaVuSans-65" x="252.294922"/>
      <use xlink:href="#DejaVuSans-72" x="313.818359"/>
     </g>
    </g>
    <g id="line2d_15">
     <path d="M 341.12 69.248562 
L 351.12 69.248562 
L 361.12 69.248562 
" style="fill: none; stroke: #1f77b4; stroke-width: 1.5; stroke-linecap: square"/>
    </g>
    <g id="text_18">
     <!-- Hopper -->
     <g transform="translate(369.12 72.748562)scale(0.1 -0.1)">
      <defs>
       <path id="DejaVuSans-48" d="M 628 4666 
L 1259 4666 
L 1259 2753 
L 3553 2753 
L 3553 4666 
L 4184 4666 
L 4184 0 
L 3553 0 
L 3553 2222 
L 1259 2222 
L 1259 0 
L 628 0 
L 628 4666 
z
" transform="scale(0.015625)"/>
       <path id="DejaVuSans-70" d="M 1159 525 
L 1159 -1331 
L 581 -1331 
L 581 3500 
L 1159 3500 
L 1159 2969 
Q 1341 3281 1617 3432 
Q 1894 3584 2278 3584 
Q 2916 3584 3314 3078 
Q 3713 2572 3713 1747 
Q 3713 922 3314 415 
Q 2916 -91 2278 -91 
Q 1894 -91 1617 61 
Q 1341 213 1159 525 
z
M 3116 1747 
Q 3116 2381 2855 2742 
Q 2594 3103 2138 3103 
Q 1681 3103 1420 2742 
Q 1159 2381 1159 1747 
Q 1159 1113 1420 752 
Q 1681 391 2138 391 
Q 2594 391 2855 752 
Q 3116 1113 3116 1747 
z
" transform="scale(0.015625)"/>
      </defs>
      <use xlink:href="#DejaVuSans-48"/>
      <use xlink:href="#DejaVuSans-6f" x="75.195312"/>
      <use xlink:href="#DejaVuSans-70" x="136.376953"/>
      <use xlink:href="#DejaVuSans-70" x="199.853516"/>
      <use xlink:href="#DejaVuSans-65" x="263.330078"/>
      <use xlink:href="#DejaVuSans-72" x="324.853516"/>
     </g>
    </g>
   </g>
  </g>
 </g>
 <defs>
  <clipPath id="p15557d9c04">
   <rect x="57.6" y="41.472" width="357.12" height="266.112"/>
  </clipPath>
 </defs>
</svg>
