<?xml version="1.0" encoding="utf-8" standalone="no"?>
<!DOCTYPE svg PUBLIC "-//W3C//DTD SVG 1.1//EN"
  "http://www.w3.org/Graphics/SVG/1.1/DTD/svg11.dtd">
<svg xmlns:xlink="http://www.w3.org/1999/xlink" width="460.8pt" height="345.6pt" viewBox="0 0 460.8 345.6" xmlns="http://www.w3.org/2000/svg" version="1.1">
 <metadata>
  <rdf:RDF xmlns:dc="http://purl.org/dc/elements/1.1/" xmlns:cc="http://creativecommons.org/ns#" xmlns:rdf="http://www.w3.org/1999/02/22-rdf-syntax-ns#">
   <cc:Work>
    <dc:type rdf:resource="http://purl.org/dc/dcmitype/StillImage"/>
    <dc:date>2024-05-04T11:10:04.605261</dc:date>
    <dc:format>image/svg+xml</dc:format>
    <dc:creator>
     <cc:Agent>
      <dc:title>Matplotlib v3.5.3, https://matplotlib.org/</dc:title>
     </cc:Agent>
    </dc:creator>
   </cc:Work>
  </rdf:RDF>
 </metadata>
 <defs>
  <style type="text/css">*{stroke-linejoin: round; stroke-linecap: butt}</style>
 </defs>
 <g id="figure_1">
  <g id="patch_1">
   <path d="M 0 345.6 
L 460.8 345.6 
L 460.8 0 
L 0 0 
z
" style="fill: #ffffff"/>
  </g>
  <g id="axes_1">
   <g id="patch_2">
    <path d="M 57.6 307.584 
L 414.72 307.584 
L 414.72 41.472 
L 57.6 41.472 
z
" style="fill: #ffffff"/>
   </g>
   <g id="PolyCollection_1">
    <path d="M 73.832727 212.753458 
L 73.832727 221.141787 
L 73.832733 218.977972 
L 73.83274 217.398264 
L 73.832746 216.677796 
L 73.832752 214.00263 
L 73.832758 214.09743 
L 73.832764 213.22363 
L 73.832771 211.577441 
L 73.832777 215.296918 
L 73.832783 212.511667 
L 73.832795 212.233295 
L 73.832808 211.496081 
L 73.832814 213.477098 
L 73.83282 208.02818 
L 73.832833 213.316708 
L 73.832845 211.896285 
L 73.832851 214.075593 
L 73.83287 210.046619 
L 73.832876 218.622312 
L 73.832888 219.425374 
L 73.832894 215.919758 
L 73.832907 214.57938 
L 73.832919 206.782462 
L 73.832938 224.390955 
L 73.832944 212.56595 
L 73.832969 210.267367 
L 73.832981 218.782798 
L 73.832994 214.817517 
L 73.833 223.059664 
L 73.833018 207.62097 
L 73.833025 232.480066 
L 73.833031 218.282775 
L 73.833055 218.212369 
L 73.833068 217.892403 
L 73.833093 218.671545 
L 73.833111 222.684166 
L 73.833117 201.863466 
L 73.83313 224.442909 
L 73.833155 221.755786 
L 73.833167 218.16169 
L 73.833186 232.458338 
L 73.833216 212.055436 
L 73.833223 233.059809 
L 73.833241 226.189317 
L 73.833266 232.00011 
L 73.833278 229.375647 
L 73.833316 203.064376 
L 73.833328 235.193137 
L 73.833334 236.501466 
L 73.83334 231.985974 
L 73.833371 234.69934 
L 73.83339 234.532407 
L 73.833402 235.846344 
L 73.833415 211.656309 
L 73.833464 225.749838 
L 73.833495 252.735128 
L 73.833501 236.736272 
L 73.833514 190.856446 
L 73.833538 238.676576 
L 73.833557 240.576036 
L 73.833588 238.732329 
L 73.833613 220.414994 
L 73.833631 242.374533 
L 73.83365 242.621832 
L 73.833675 241.042103 
L 73.833712 217.267689 
L 73.833724 241.732899 
L 73.833743 244.725377 
L 73.833761 224.221275 
L 73.833805 246.047051 
L 73.833811 242.280522 
L 73.833836 241.955036 
L 73.833891 244.440779 
L 73.83391 190.986947 
L 73.833935 242.35677 
L 73.833947 244.01448 
L 73.83396 232.954559 
L 73.834021 244.310617 
L 73.834059 241.429995 
L 73.834083 246.196058 
L 73.834108 205.192706 
L 73.834114 249.037565 
L 73.834152 245.544207 
L 73.834207 216.657408 
L 73.83422 256.958824 
L 73.834226 247.360535 
L 73.834238 246.284334 
L 73.834269 250.69896 
L 73.834282 244.298593 
L 73.834306 176.395929 
L 73.834356 245.13323 
L 73.834393 245.647248 
L 73.834424 250.939282 
L 73.834455 229.480217 
L 73.834504 208.621378 
L 73.834542 247.103714 
L 73.83456 247.938031 
L 73.834579 247.223581 
L 73.834628 247.343763 
L 73.834672 245.452348 
L 73.834703 197.850613 
L 73.834727 247.312752 
L 73.834765 246.804579 
L 73.834802 203.134362 
L 73.834845 247.452589 
L 73.834888 247.142593 
L 73.834901 231.005258 
L 73.83495 237.220357 
L 73.834969 254.534244 
L 73.835062 247.037212 
L 73.835099 167.207629 
L 73.835105 247.772434 
L 73.835148 224.953942 
L 73.835173 246.954671 
L 73.835198 231.421445 
L 73.835229 247.20461 
L 73.835322 244.469937 
L 73.835396 208.833258 
L 73.835446 246.528781 
L 73.835452 247.411006 
L 73.835495 187.938008 
L 73.835508 248.023391 
L 73.835582 246.114648 
L 73.835693 186.789693 
L 73.835718 254.922041 
L 73.835731 249.418555 
L 73.835755 248.627014 
L 73.835786 248.161798 
L 73.835817 254.884639 
L 73.835842 231.030247 
L 73.835892 161.464898 
L 73.835991 222.194974 
L 73.836059 251.304751 
L 73.836065 247.905547 
L 73.836127 251.425686 
L 73.836189 213.481181 
L 73.836232 249.322537 
L 73.836288 181.482187 
L 73.836399 247.135459 
L 73.836436 214.046918 
L 73.836467 255.339061 
L 73.836536 247.053441 
L 73.836622 247.257999 
L 73.836684 177.22771 
L 73.836734 231.658351 
L 73.836808 249.232828 
L 73.836882 164.816051 
L 73.837012 246.934465 
L 73.837056 249.258927 
L 73.83708 216.682704 
L 73.83718 202.476075 
L 73.837217 248.40451 
L 73.837235 256.006304 
L 73.837477 151.14235 
L 73.837489 247.372957 
L 73.837576 179.582873 
L 73.837625 234.715486 
L 73.837675 193.31941 
L 73.837737 248.206771 
L 73.837923 172.506223 
L 73.837966 248.360734 
L 73.838071 170.659893 
L 73.83817 221.386947 
L 73.838238 250.142375 
L 73.838269 164.446743 
L 73.838294 250.524765 
L 73.838666 170.824637 
L 73.838715 249.408751 
L 73.838851 250.866425 
L 73.838913 211.805059 
L 73.838963 179.724839 
L 73.839062 153.763759 
L 73.83926 183.224623 
L 73.839409 186.115334 
L 73.839464 255.353891 
L 73.839656 184.112357 
L 73.839855 173.170914 
L 73.840003 187.131067 
L 73.840152 185.671547 
L 73.84035 189.977666 
L 73.840647 172.267722 
L 73.840746 190.144945 
L 73.840895 188.595044 
L 73.841044 173.604878 
L 73.84139 188.571052 
L 73.84144 192.534278 
L 73.841638 187.888298 
L 73.842084 191.036777 
L 73.842232 149.7341 
L 73.842431 192.888834 
L 73.84253 189.728107 
L 73.842629 185.347898 
L 73.843124 189.123579 
L 73.843421 189.58827 
L 73.84362 191.98263 
L 73.843818 170.734004 
L 73.843867 196.956702 
L 73.844164 193.755383 
L 73.84461 173.703981 
L 73.844709 199.436443 
L 73.844759 197.855419 
L 73.844858 197.821375 
L 73.845106 201.261445 
L 73.845205 192.256429 
L 73.845403 159.237884 
L 73.845799 196.258845 
L 73.846096 192.985774 
L 73.846344 199.207558 
L 73.846592 185.049412 
L 73.846988 166.504779 
L 73.847285 202.679672 
L 73.847434 193.325434 
L 73.847583 195.238095 
L 73.847979 195.471883 
L 73.848326 194.133364 
L 73.848573 167.820122 
L 73.848772 194.579805 
L 73.849069 194.00479 
L 73.849366 167.084226 
L 73.849713 199.690638 
L 73.85006 197.21995 
L 73.850159 194.915489 
L 73.850555 190.903015 
L 73.850704 198.791579 
L 73.851447 193.769972 
L 73.851744 136.585646 
L 73.851793 196.146837 
L 73.85214 191.657992 
L 73.852338 199.331826 
L 73.852536 189.572431 
L 73.852784 199.822344 
L 73.853527 198.641985 
L 73.854122 180.617076 
L 73.854518 201.2611 
L 73.854567 201.633854 
L 73.854914 168.428774 
L 73.855013 198.699028 
L 73.855608 197.299904 
L 73.856499 152.98722 
L 73.856698 213.100159 
L 73.856797 197.432015 
L 73.856995 198.839731 
L 73.857243 196.00286 
L 73.85749 200.420912 
L 73.857688 190.564935 
L 73.858085 189.876389 
L 73.858877 187.890272 
L 73.859422 198.741447 
L 73.859472 197.362248 
L 73.859967 203.718956 
L 73.860463 183.903376 
L 73.860809 201.640988 
L 73.861255 155.671848 
L 73.862147 197.918586 
L 73.862444 183.316223 
L 73.862692 199.992494 
L 73.863237 200.468988 
L 73.86393 199.568115 
L 73.864426 159.012714 
L 73.864822 195.611312 
L 73.865416 199.965237 
L 73.866011 120.293751 
L 73.867051 198.585082 
L 73.867398 205.346415 
L 73.867596 191.187984 
L 73.868389 167.47811 
L 73.868686 200.734119 
L 73.868835 205.976482 
L 73.870767 131.963671 
L 73.870866 201.684868 
L 73.871559 202.321353 
L 73.871955 199.794588 
L 73.872352 161.967828 
L 73.872847 211.077545 
L 73.874333 110.463445 
L 73.87468 202.427031 
L 73.875522 104.391919 
L 73.876315 185.437905 
L 73.87686 203.552121 
L 73.877107 115.955492 
L 73.877306 208.63128 
L 73.880278 113.126847 
L 73.880674 208.732882 
L 73.881764 203.564711 
L 73.881764 186.322191 
L 73.881764 186.322191 
L 73.880674 182.2241 
L 73.880278 100.19438 
L 73.877306 183.774143 
L 73.877107 81.469092 
L 73.87686 184.790317 
L 73.876315 124.250173 
L 73.875522 87.906895 
L 73.87468 180.608518 
L 73.874333 78.00111 
L 73.872847 200.927631 
L 73.872352 104.072814 
L 73.871955 160.208664 
L 73.871559 53.568 
L 73.870866 181.472929 
L 73.870767 95.545445 
L 73.868835 177.965322 
L 73.868686 179.582472 
L 73.868389 129.274865 
L 73.867596 128.132933 
L 73.867398 179.769525 
L 73.867051 183.6961 
L 73.866011 64.217662 
L 73.865416 182.214042 
L 73.864822 155.707459 
L 73.864426 108.643647 
L 73.86393 185.162934 
L 73.863237 185.936064 
L 73.862692 180.938784 
L 73.862444 114.167245 
L 73.862147 184.457435 
L 73.861255 111.211798 
L 73.860809 183.599866 
L 73.860463 135.598212 
L 73.859967 186.196026 
L 73.859472 184.046817 
L 73.859422 181.193244 
L 73.858877 134.277925 
L 73.858085 96.006982 
L 73.857688 156.402814 
L 73.85749 179.435527 
L 73.857243 183.480598 
L 73.856995 181.478661 
L 73.856797 183.205623 
L 73.856698 182.253577 
L 73.856499 107.552232 
L 73.855608 183.263534 
L 73.855013 183.793497 
L 73.854914 113.692341 
L 73.854567 182.106629 
L 73.854518 188.875852 
L 73.854122 128.489979 
L 73.853527 183.310423 
L 73.852784 183.354435 
L 73.852536 147.802307 
L 73.852338 186.931764 
L 73.85214 148.215927 
L 73.851793 181.367441 
L 73.851744 84.897795 
L 73.851447 183.132121 
L 73.850704 176.254881 
L 73.850555 168.145101 
L 73.850159 143.115037 
L 73.85006 182.561284 
L 73.849713 172.064872 
L 73.849366 123.158901 
L 73.849069 182.907403 
L 73.848772 182.505072 
L 73.848573 123.059756 
L 73.848326 181.817097 
L 73.847979 179.906298 
L 73.847583 183.097199 
L 73.847434 180.672026 
L 73.847285 183.524743 
L 73.846988 123.347124 
L 73.846592 158.778229 
L 73.846344 175.310562 
L 73.846096 183.007683 
L 73.845799 184.819212 
L 73.845403 93.543398 
L 73.845205 181.546196 
L 73.845106 175.165807 
L 73.844858 179.183418 
L 73.844759 179.873247 
L 73.844709 178.087996 
L 73.84461 148.29045 
L 73.844164 177.356918 
L 73.843867 179.766745 
L 73.843818 123.050668 
L 73.84362 179.037628 
L 73.843421 174.347788 
L 73.843124 179.083715 
L 73.842629 158.197712 
L 73.84253 178.022307 
L 73.842431 172.189008 
L 73.842232 104.302357 
L 73.842084 176.995561 
L 73.841638 178.434503 
L 73.84144 177.436839 
L 73.84139 168.316882 
L 73.841044 143.155552 
L 73.840895 170.211575 
L 73.840746 176.542116 
L 73.840647 136.580561 
L 73.84035 173.30443 
L 73.840152 170.685038 
L 73.840003 166.223576 
L 73.839855 144.245849 
L 73.839656 169.795083 
L 73.839464 240.730319 
L 73.839409 167.535663 
L 73.83926 166.576585 
L 73.839062 104.810744 
L 73.838963 165.508377 
L 73.838913 186.876738 
L 73.838851 242.357189 
L 73.838715 240.646309 
L 73.838666 151.780214 
L 73.838294 242.108151 
L 73.838269 132.627753 
L 73.838238 240.595309 
L 73.83817 190.906617 
L 73.838071 156.691296 
L 73.837966 239.736611 
L 73.837923 148.899579 
L 73.837737 241.001458 
L 73.837675 167.596292 
L 73.837625 211.885482 
L 73.837576 146.759519 
L 73.837489 238.842075 
L 73.837477 119.064264 
L 73.837235 238.415024 
L 73.837217 237.863973 
L 73.83718 181.554924 
L 73.83708 186.929854 
L 73.837056 238.16108 
L 73.837012 241.045285 
L 73.836882 144.279277 
L 73.836808 239.226321 
L 73.836734 204.043676 
L 73.836684 149.723015 
L 73.836622 240.885449 
L 73.836536 240.72594 
L 73.836467 237.522881 
L 73.836436 168.434124 
L 73.836399 240.422756 
L 73.836288 161.267889 
L 73.836232 240.503166 
L 73.836189 187.943215 
L 73.836127 238.987658 
L 73.836065 240.68285 
L 73.836059 238.439565 
L 73.835991 193.440064 
L 73.835892 130.347885 
L 73.835842 207.428676 
L 73.835817 236.102899 
L 73.835786 239.599156 
L 73.835755 238.552463 
L 73.835731 239.271474 
L 73.835718 236.704692 
L 73.835693 166.036345 
L 73.835582 239.677924 
L 73.835508 239.518518 
L 73.835495 159.850922 
L 73.835452 238.907637 
L 73.835446 239.689155 
L 73.835396 185.720554 
L 73.835322 238.26474 
L 73.835229 238.449583 
L 73.835198 208.733982 
L 73.835173 239.74479 
L 73.835148 195.930965 
L 73.835105 239.412251 
L 73.835099 144.662681 
L 73.835062 239.42156 
L 73.834969 233.774133 
L 73.83495 222.683626 
L 73.834901 202.58624 
L 73.834888 238.196008 
L 73.834845 233.2568 
L 73.834802 183.909768 
L 73.834765 238.500876 
L 73.834727 239.837575 
L 73.834703 175.70893 
L 73.834672 238.3779 
L 73.834628 237.658981 
L 73.834579 238.392477 
L 73.83456 237.304292 
L 73.834542 237.48178 
L 73.834504 189.975145 
L 73.834455 214.134338 
L 73.834424 235.59565 
L 73.834393 239.000084 
L 73.834356 238.391352 
L 73.834306 149.614491 
L 73.834282 238.296111 
L 73.834269 235.841276 
L 73.834238 235.707514 
L 73.834226 237.119649 
L 73.83422 233.018376 
L 73.834207 202.653888 
L 73.834152 235.895448 
L 73.834114 235.689424 
L 73.834108 182.485505 
L 73.834083 237.351202 
L 73.834059 232.188858 
L 73.834021 237.390772 
L 73.83396 215.285218 
L 73.833947 236.408342 
L 73.833935 233.673161 
L 73.83391 172.910084 
L 73.833891 235.516904 
L 73.833836 236.598598 
L 73.833811 234.159695 
L 73.833805 232.803052 
L 73.833761 208.171177 
L 73.833743 232.354819 
L 73.833724 234.117442 
L 73.833712 201.898194 
L 73.833675 231.150747 
L 73.83365 232.321862 
L 73.833631 228.571023 
L 73.833613 207.97892 
L 73.833588 230.985669 
L 73.833557 229.567136 
L 73.833538 229.553046 
L 73.833514 168.64245 
L 73.833501 228.924248 
L 73.833495 220.947888 
L 73.833464 215.400582 
L 73.833415 194.064295 
L 73.833402 221.854589 
L 73.83339 226.283715 
L 73.833371 222.141869 
L 73.83334 220.282002 
L 73.833334 213.501147 
L 73.833328 218.617958 
L 73.833316 189.98266 
L 73.833278 220.424523 
L 73.833266 215.910227 
L 73.833241 217.108868 
L 73.833223 212.854344 
L 73.833216 199.039966 
L 73.833186 211.167742 
L 73.833167 208.791381 
L 73.833155 210.09501 
L 73.83313 209.434312 
L 73.833117 186.412267 
L 73.833111 207.585069 
L 73.833093 211.07283 
L 73.833068 205.460091 
L 73.833055 208.686137 
L 73.833031 204.119837 
L 73.833025 217.534517 
L 73.833018 199.407372 
L 73.833 204.551726 
L 73.832994 201.855612 
L 73.832981 211.337347 
L 73.832969 201.032984 
L 73.832944 207.189437 
L 73.832938 212.196101 
L 73.832919 196.953625 
L 73.832907 207.757267 
L 73.832894 208.062385 
L 73.832888 203.38678 
L 73.832876 204.548119 
L 73.83287 204.281402 
L 73.832851 205.16582 
L 73.832845 206.332854 
L 73.832833 207.013491 
L 73.83282 200.886431 
L 73.832814 205.875603 
L 73.832808 205.982478 
L 73.832795 208.8023 
L 73.832783 207.977553 
L 73.832777 207.668755 
L 73.832771 205.418388 
L 73.832764 205.490723 
L 73.832758 210.248729 
L 73.832752 207.065295 
L 73.832746 212.723148 
L 73.83274 211.311089 
L 73.832733 213.930791 
L 73.832727 212.753458 
z
" clip-path="url(#pbfda325751)" style="fill: #1f77b4; fill-opacity: 0.2; stroke: #1f77b4; stroke-opacity: 0.2"/>
    <path d="M 73.882656 87.048288 
L 73.882656 109.109617 
L 73.883448 270.560343 
L 73.885034 116.753048 
L 73.886223 118.409857 
L 73.886668 208.884029 
L 73.888204 116.611276 
L 73.889789 119.088184 
L 73.890978 118.271566 
L 73.892167 115.620647 
L 73.893752 106.524728 
L 73.89613 122.58111 
L 73.896923 118.600892 
L 73.898112 125.860444 
L 73.899301 119.058072 
L 73.902075 121.450049 
L 73.902471 117.949202 
L 73.904056 118.644753 
L 73.907623 121.555726 
L 73.908812 250.486667 
L 73.908812 121.264595 
L 73.908812 121.264595 
L 73.907623 101.051755 
L 73.904056 108.679335 
L 73.902471 105.132731 
L 73.902075 120.431529 
L 73.899301 102.9046 
L 73.898112 114.184476 
L 73.896923 111.391732 
L 73.89613 112.568294 
L 73.893752 93.012101 
L 73.892167 106.74314 
L 73.890978 88.490541 
L 73.889789 105.348913 
L 73.888204 98.569789 
L 73.886668 173.690866 
L 73.886223 112.323279 
L 73.885034 98.338474 
L 73.883448 137.422146 
L 73.882656 87.048288 
z
" clip-path="url(#pbfda325751)" style="fill: #1f77b4; fill-opacity: 0.2; stroke: #1f77b4; stroke-opacity: 0.2"/>
    <path d="M 73.91119 107.211727 
L 73.91119 120.360722 
L 73.911982 121.738008 
L 73.915946 118.16284 
L 73.918323 123.586232 
L 73.919909 124.339825 
L 73.921494 122.271637 
L 73.92189 120.505849 
L 73.924268 124.049029 
L 73.927835 121.928147 
L 73.927835 114.434606 
L 73.927835 114.434606 
L 73.924268 107.721363 
L 73.92189 120.093486 
L 73.921494 121.141482 
L 73.919909 112.813264 
L 73.918323 114.61905 
L 73.915946 107.931372 
L 73.911982 115.43628 
L 73.91119 107.211727 
z
" clip-path="url(#pbfda325751)" style="fill: #1f77b4; fill-opacity: 0.2; stroke: #1f77b4; stroke-opacity: 0.2"/>
    <path d="M 73.931798 121.431547 
L 73.931798 129.770046 
L 73.93259 118.772281 
L 73.934176 295.488 
L 73.937346 120.222343 
L 73.939724 121.856975 
L 73.941705 131.744995 
L 73.943687 121.955545 
L 73.946857 116.758683 
L 73.946857 112.597978 
L 73.946857 112.597978 
L 73.943687 118.885249 
L 73.941705 121.191342 
L 73.939724 114.375814 
L 73.937346 113.988078 
L 73.934176 220.010603 
L 73.93259 110.197732 
L 73.931798 121.431547 
z
" clip-path="url(#pbfda325751)" style="fill: #1f77b4; fill-opacity: 0.2; stroke: #1f77b4; stroke-opacity: 0.2"/>
    <path d="M 73.950424 122.112964 
L 73.950424 122.297351 
L 73.951613 122.447934 
L 73.954784 121.720358 
L 73.957558 123.319947 
L 73.959539 265.968797 
L 73.961124 126.147843 
L 73.963502 125.554543 
L 73.96588 114.308498 
L 73.971428 120.308605 
L 73.972221 119.433707 
L 73.975392 124.40688 
L 73.975392 116.696175 
L 73.975392 116.696175 
L 73.972221 118.500482 
L 73.971428 114.069547 
L 73.96588 113.515132 
L 73.963502 116.453105 
L 73.961124 113.382172 
L 73.959539 149.250188 
L 73.957558 119.664504 
L 73.954784 119.489838 
L 73.951613 116.074287 
L 73.950424 122.112964 
z
" clip-path="url(#pbfda325751)" style="fill: #1f77b4; fill-opacity: 0.2; stroke: #1f77b4; stroke-opacity: 0.2"/>
    <path d="M 73.982525 114.911519 
L 73.982525 118.037319 
L 73.984903 295.179187 
L 73.985299 130.499755 
L 73.989659 126.093123 
L 73.991244 123.05246 
L 73.991244 114.930961 
L 73.991244 114.930961 
L 73.989659 116.414681 
L 73.985299 119.781471 
L 73.984903 235.091443 
L 73.982525 114.911519 
z
" clip-path="url(#pbfda325751)" style="fill: #1f77b4; fill-opacity: 0.2; stroke: #1f77b4; stroke-opacity: 0.2"/>
    <path d="M 73.99917 115.483809 
L 73.99917 115.935996 
L 74.003926 119.977147 
L 74.007096 124.296289 
L 74.010267 294.006475 
L 74.011059 123.768371 
L 74.015815 116.256792 
L 74.022948 117.234859 
L 74.022948 116.499192 
L 74.022948 116.499192 
L 74.015815 115.428932 
L 74.011059 115.685443 
L 74.010267 293.856074 
L 74.007096 121.271776 
L 74.003926 115.762271 
L 73.99917 115.483809 
z
" clip-path="url(#pbfda325751)" style="fill: #1f77b4; fill-opacity: 0.2; stroke: #1f77b4; stroke-opacity: 0.2"/>
    <path d="M 74.028893 124.044639 
L 74.028893 124.19265 
L 74.028893 124.044639 
L 74.028893 124.044639 
z
" clip-path="url(#pbfda325751)" style="fill: #1f77b4; fill-opacity: 0.2; stroke: #1f77b4; stroke-opacity: 0.2"/>
    <path d="M 74.03563 294.393645 
L 74.03563 295.183684 
L 74.041971 116.779849 
L 74.046727 121.509943 
L 74.05069 125.086677 
L 74.060994 294.833765 
L 74.068127 117.282837 
L 74.068127 116.836608 
L 74.068127 116.836608 
L 74.060994 294.797452 
L 74.05069 124.499962 
L 74.046727 117.412975 
L 74.041971 115.208483 
L 74.03563 294.393645 
z
" clip-path="url(#pbfda325751)" style="fill: #1f77b4; fill-opacity: 0.2; stroke: #1f77b4; stroke-opacity: 0.2"/>
    <path d="M 74.086357 294.550755 
L 74.086357 294.616377 
L 74.094284 118.005647 
L 74.094284 117.872688 
L 74.094284 117.872688 
L 74.086357 294.550755 
z
" clip-path="url(#pbfda325751)" style="fill: #1f77b4; fill-opacity: 0.2; stroke: #1f77b4; stroke-opacity: 0.2"/>
    <path d="M 74.137085 294.287177 
L 74.137085 294.733691 
L 74.187812 294.071015 
L 74.213176 293.852354 
L 74.238539 294.883697 
L 74.289267 294.590204 
L 74.339994 294.05436 
L 74.365357 292.695414 
L 74.441448 294.070331 
L 74.466812 292.371059 
L 74.466812 291.939631 
L 74.466812 291.939631 
L 74.441448 293.031012 
L 74.365357 292.506409 
L 74.339994 293.13517 
L 74.289267 293.445401 
L 74.238539 293.957828 
L 74.213176 293.737141 
L 74.187812 293.936775 
L 74.137085 294.287177 
z
" clip-path="url(#pbfda325751)" style="fill: #1f77b4; fill-opacity: 0.2; stroke: #1f77b4; stroke-opacity: 0.2"/>
    <path d="M 74.542903 291.663123 
L 74.542903 293.340901 
L 74.59363 293.54233 
L 74.644357 294.634205 
L 74.720448 290.372364 
L 74.745812 293.324776 
L 74.847267 293.106919 
L 74.897994 292.825002 
L 74.948721 292.970662 
L 74.974085 292.668242 
L 75.050176 293.772017 
L 75.050176 292.031482 
L 75.050176 292.031482 
L 74.974085 292.483761 
L 74.948721 292.642371 
L 74.897994 290.232146 
L 74.847267 291.17097 
L 74.745812 292.339726 
L 74.720448 290.320818 
L 74.644357 292.851849 
L 74.59363 291.934659 
L 74.542903 291.663123 
z
" clip-path="url(#pbfda325751)" style="fill: #1f77b4; fill-opacity: 0.2; stroke: #1f77b4; stroke-opacity: 0.2"/>
    <path d="M 75.100903 291.833765 
L 75.100903 292.134554 
L 75.202357 291.749462 
L 75.253085 292.642955 
L 75.354539 291.383719 
L 75.43063 290.866673 
L 75.455994 294.240342 
L 75.506721 290.99126 
L 75.608176 290.574735 
L 75.658903 292.290448 
L 75.734994 289.833761 
L 75.861812 291.972193 
L 75.887176 289.681202 
L 75.963267 289.522214 
L 76.064721 289.124215 
L 76.115448 288.877617 
L 76.26763 293.44794 
L 76.26763 290.895736 
L 76.26763 290.895736 
L 76.115448 288.560469 
L 76.064721 288.937523 
L 75.963267 289.117776 
L 75.887176 289.432907 
L 75.861812 289.847037 
L 75.734994 289.658279 
L 75.658903 290.338638 
L 75.608176 290.439784 
L 75.506721 290.721171 
L 75.455994 291.802092 
L 75.43063 290.793107 
L 75.354539 291.139634 
L 75.253085 289.463035 
L 75.202357 291.508051 
L 75.100903 291.833765 
z
" clip-path="url(#pbfda325751)" style="fill: #1f77b4; fill-opacity: 0.2; stroke: #1f77b4; stroke-opacity: 0.2"/>
    <path d="M 76.343721 288.088668 
L 76.343721 288.519218 
L 76.369085 288.322696 
L 76.495903 288.565158 
L 76.571994 288.94254 
L 76.622721 288.417774 
L 76.673448 293.135743 
L 76.876358 290.107022 
L 76.876358 287.559602 
L 76.876358 287.559602 
L 76.673448 288.552819 
L 76.622721 287.72165 
L 76.571994 288.019291 
L 76.495903 288.157672 
L 76.369085 287.952228 
L 76.343721 288.088668 
z
" clip-path="url(#pbfda325751)" style="fill: #1f77b4; fill-opacity: 0.2; stroke: #1f77b4; stroke-opacity: 0.2"/>
    <path d="M 77.028539 286.213941 
L 77.028539 287.104274 
L 77.079267 293.896171 
L 77.180721 286.63409 
L 77.256812 286.309929 
L 77.38363 286.025566 
L 77.485085 291.889407 
L 77.485085 287.407621 
L 77.485085 287.407621 
L 77.38363 285.529619 
L 77.256812 285.596871 
L 77.180721 286.258449 
L 77.079267 290.34843 
L 77.028539 286.213941 
z
" clip-path="url(#pbfda325751)" style="fill: #1f77b4; fill-opacity: 0.2; stroke: #1f77b4; stroke-opacity: 0.2"/>
    <path d="M 77.637267 284.607954 
L 77.637267 285.405367 
L 77.738721 284.698392 
L 77.890903 290.765498 
L 77.94163 284.901249 
L 78.017721 284.635706 
L 78.093812 291.575041 
L 78.271358 282.952641 
L 78.296721 283.034518 
L 78.398176 284.073185 
L 78.626448 282.360595 
L 78.702539 293.396621 
L 78.702539 289.896589 
L 78.702539 289.896589 
L 78.626448 282.229894 
L 78.398176 282.404041 
L 78.296721 282.372386 
L 78.271358 282.749282 
L 78.093812 285.471829 
L 78.017721 283.757014 
L 77.94163 283.959495 
L 77.890903 285.951957 
L 77.738721 284.27634 
L 77.637267 284.607954 
z
" clip-path="url(#pbfda325751)" style="fill: #1f77b4; fill-opacity: 0.2; stroke: #1f77b4; stroke-opacity: 0.2"/>
    <path d="M 78.854721 281.3966 
L 78.854721 284.260221 
L 78.905448 286.922053 
L 79.159085 281.927137 
L 79.311267 289.1674 
L 79.412721 282.140115 
L 79.514176 292.621138 
L 79.514176 285.656993 
L 79.514176 285.656993 
L 79.412721 281.114164 
L 79.311267 281.600733 
L 79.159085 281.317585 
L 78.905448 281.101986 
L 78.854721 281.3966 
z
" clip-path="url(#pbfda325751)" style="fill: #1f77b4; fill-opacity: 0.2; stroke: #1f77b4; stroke-opacity: 0.2"/>
    <path d="M 79.691721 281.200462 
L 79.691721 282.023462 
L 79.919994 291.074206 
L 79.919994 284.054304 
L 79.919994 284.054304 
L 79.691721 281.200462 
z
" clip-path="url(#pbfda325751)" style="fill: #1f77b4; fill-opacity: 0.2; stroke: #1f77b4; stroke-opacity: 0.2"/>
    <path d="M 80.224358 280.5928 
L 80.224358 280.598131 
L 80.325812 294.025621 
L 80.528721 280.671642 
L 80.680903 283.431138 
L 80.680903 278.653787 
L 80.680903 278.653787 
L 80.528721 279.685007 
L 80.325812 289.625573 
L 80.224358 280.5928 
z
" clip-path="url(#pbfda325751)" style="fill: #1f77b4; fill-opacity: 0.2; stroke: #1f77b4; stroke-opacity: 0.2"/>
    <path d="M 80.934539 278.905921 
L 80.934539 288.290986 
L 81.137448 293.020996 
L 81.365721 278.121134 
L 81.441812 279.506421 
L 81.644721 277.815359 
L 81.644721 277.419491 
L 81.644721 277.419491 
L 81.441812 277.46333 
L 81.365721 277.315413 
L 81.137448 286.687015 
L 80.934539 278.905921 
z
" clip-path="url(#pbfda325751)" style="fill: #1f77b4; fill-opacity: 0.2; stroke: #1f77b4; stroke-opacity: 0.2"/>
    <path d="M 81.949085 285.035292 
L 81.949085 292.653583 
L 81.949085 285.035292 
L 81.949085 285.035292 
z
" clip-path="url(#pbfda325751)" style="fill: #1f77b4; fill-opacity: 0.2; stroke: #1f77b4; stroke-opacity: 0.2"/>
    <path d="M 82.202721 277.302305 
L 82.202721 282.370693 
L 82.354903 292.787132 
L 82.354903 290.402355 
L 82.354903 290.402355 
L 82.202721 277.302305 
z
" clip-path="url(#pbfda325751)" style="fill: #1f77b4; fill-opacity: 0.2; stroke: #1f77b4; stroke-opacity: 0.2"/>
    <path d="M 82.760721 276.442318 
L 82.760721 292.710403 
L 82.96363 292.648612 
L 82.96363 275.312163 
L 82.96363 275.312163 
L 82.760721 276.442318 
z
" clip-path="url(#pbfda325751)" style="fill: #1f77b4; fill-opacity: 0.2; stroke: #1f77b4; stroke-opacity: 0.2"/>
    <path d="M 83.572358 291.196619 
L 83.572358 292.55769 
L 83.572358 291.196619 
L 83.572358 291.196619 
z
" clip-path="url(#pbfda325751)" style="fill: #1f77b4; fill-opacity: 0.2; stroke: #1f77b4; stroke-opacity: 0.2"/>
    <path d="M 83.876721 274.68589 
L 83.876721 276.423331 
L 83.978176 292.352871 
L 84.789812 291.781396 
L 84.992721 273.187619 
L 85.19563 291.814736 
L 86.007267 291.371164 
L 86.007267 291.151048 
L 86.007267 291.151048 
L 85.19563 288.991569 
L 84.992721 272.761616 
L 84.789812 291.563437 
L 83.978176 273.80171 
L 83.876721 274.68589 
z
" clip-path="url(#pbfda325751)" style="fill: #1f77b4; fill-opacity: 0.2; stroke: #1f77b4; stroke-opacity: 0.2"/>
    <path d="M 86.615994 290.929453 
L 86.615994 291.083265 
L 86.818903 293.157517 
L 87.224721 290.891964 
L 88.036358 290.273655 
L 88.442176 290.404493 
L 88.442176 290.090371 
L 88.442176 290.090371 
L 88.036358 290.139724 
L 87.224721 290.608265 
L 86.818903 290.11839 
L 86.615994 290.929453 
z
" clip-path="url(#pbfda325751)" style="fill: #1f77b4; fill-opacity: 0.2; stroke: #1f77b4; stroke-opacity: 0.2"/>
    <path d="M 90.065449 289.442319 
L 90.065449 289.831016 
L 90.268358 289.869823 
L 90.877085 289.279941 
L 91.688721 289.183106 
L 92.09454 288.924213 
L 93.311994 291.246199 
L 93.311994 288.55217 
L 93.311994 288.55217 
L 92.09454 288.594296 
L 91.688721 288.863941 
L 90.877085 289.035723 
L 90.268358 288.915525 
L 90.065449 289.442319 
z
" clip-path="url(#pbfda325751)" style="fill: #1f77b4; fill-opacity: 0.2; stroke: #1f77b4; stroke-opacity: 0.2"/>
    <path d="M 93.920721 287.554636 
L 93.920721 288.349068 
L 94.123631 288.711696 
L 95.138176 288.076156 
L 95.746903 288.158995 
L 96.152722 287.91488 
L 96.55854 291.985355 
L 98.181812 289.2683 
L 99.399267 287.22872 
L 99.805085 293.026697 
L 100.616722 286.661073 
L 101.225449 286.265525 
L 102.239994 286.50595 
L 103.051631 290.956791 
L 103.051631 286.251171 
L 103.051631 286.251171 
L 102.239994 285.680692 
L 101.225449 286.239404 
L 100.616722 285.990318 
L 99.805085 287.907555 
L 99.399267 286.716349 
L 98.181812 287.228163 
L 96.55854 288.661341 
L 96.152722 287.669752 
L 95.746903 287.643661 
L 95.138176 288.016889 
L 94.123631 287.789322 
L 93.920721 287.554636 
z
" clip-path="url(#pbfda325751)" style="fill: #1f77b4; fill-opacity: 0.2; stroke: #1f77b4; stroke-opacity: 0.2"/>
    <path d="M 104.269085 284.560509 
L 104.269085 284.89228 
L 105.080722 284.25119 
L 106.298176 289.027192 
L 106.703994 285.113169 
L 107.312722 284.543419 
L 107.921449 288.896655 
L 109.544722 283.425932 
L 110.356358 283.786757 
L 112.18254 282.329707 
L 112.791267 291.834934 
L 114.008722 281.773652 
L 114.41454 281.670273 
L 116.443631 281.985455 
L 117.661086 282.254604 
L 118.472722 282.825796 
L 119.284358 292.82287 
L 120.704722 280.754264 
L 122.530904 290.324814 
L 122.530904 280.968976 
L 122.530904 280.968976 
L 120.704722 280.125623 
L 119.284358 289.102484 
L 118.472722 281.077098 
L 117.661086 280.775023 
L 116.443631 281.164713 
L 114.41454 281.187636 
L 114.008722 281.208897 
L 112.791267 286.565727 
L 112.18254 282.111673 
L 110.356358 282.702856 
L 109.544722 282.750568 
L 107.921449 283.044113 
L 107.312722 283.550206 
L 106.703994 283.520729 
L 106.298176 284.208743 
L 105.080722 284.121555 
L 104.269085 284.560509 
z
" clip-path="url(#pbfda325751)" style="fill: #1f77b4; fill-opacity: 0.2; stroke: #1f77b4; stroke-opacity: 0.2"/>
    <path d="M 125.777449 288.057906 
L 125.777449 292.262496 
L 127.400722 280.324498 
L 128.618177 279.763967 
L 128.618177 279.627495 
L 128.618177 279.627495 
L 127.400722 279.403503 
L 125.777449 288.057906 
z
" clip-path="url(#pbfda325751)" style="fill: #1f77b4; fill-opacity: 0.2; stroke: #1f77b4; stroke-opacity: 0.2"/>
    <path d="M 132.27054 291.668732 
L 132.27054 291.708977 
L 134.096722 278.322079 
L 134.096722 277.761423 
L 134.096722 277.761423 
L 132.27054 291.668732 
z
" clip-path="url(#pbfda325751)" style="fill: #1f77b4; fill-opacity: 0.2; stroke: #1f77b4; stroke-opacity: 0.2"/>
    <path d="M 138.763631 285.952475 
L 138.763631 291.249998 
L 140.792722 277.203809 
L 142.010177 291.063823 
L 142.010177 290.917129 
L 142.010177 290.917129 
L 140.792722 276.567924 
L 138.763631 285.952475 
z
" clip-path="url(#pbfda325751)" style="fill: #1f77b4; fill-opacity: 0.2; stroke: #1f77b4; stroke-opacity: 0.2"/>
    <path d="M 146.879995 290.400469 
L 146.879995 290.567734 
L 146.879995 290.400469 
L 146.879995 290.400469 
z
" clip-path="url(#pbfda325751)" style="fill: #1f77b4; fill-opacity: 0.2; stroke: #1f77b4; stroke-opacity: 0.2"/>
    <path d="M 151.749813 285.747093 
L 151.749813 290.180803 
L 151.749813 285.747093 
L 151.749813 285.747093 
z
" clip-path="url(#pbfda325751)" style="fill: #1f77b4; fill-opacity: 0.2; stroke: #1f77b4; stroke-opacity: 0.2"/>
    <path d="M 161.48945 289.31848 
L 161.48945 289.531027 
L 164.735996 289.180629 
L 171.229087 288.642425 
L 171.229087 288.627718 
L 171.229087 288.627718 
L 164.735996 289.138922 
L 161.48945 289.31848 
z
" clip-path="url(#pbfda325751)" style="fill: #1f77b4; fill-opacity: 0.2; stroke: #1f77b4; stroke-opacity: 0.2"/>
    <path d="M 177.722178 288.084686 
L 177.722178 288.114978 
L 177.722178 288.084686 
L 177.722178 288.084686 
z
" clip-path="url(#pbfda325751)" style="fill: #1f77b4; fill-opacity: 0.2; stroke: #1f77b4; stroke-opacity: 0.2"/>
    <path d="M 187.461814 287.192948 
L 187.461814 287.218976 
L 190.70836 287.235591 
L 190.70836 287.117122 
L 190.70836 287.117122 
L 187.461814 287.192948 
z
" clip-path="url(#pbfda325751)" style="fill: #1f77b4; fill-opacity: 0.2; stroke: #1f77b4; stroke-opacity: 0.2"/>
    <path d="M 210.187633 285.490911 
L 210.187633 285.689127 
L 219.927269 284.986606 
L 229.666906 284.10945 
L 229.666906 284.013996 
L 229.666906 284.013996 
L 219.927269 284.659507 
L 210.187633 285.490911 
z
" clip-path="url(#pbfda325751)" style="fill: #1f77b4; fill-opacity: 0.2; stroke: #1f77b4; stroke-opacity: 0.2"/>
    <path d="M 236.159997 283.536377 
L 236.159997 284.531408 
L 244.276361 283.614302 
L 249.146179 283.554031 
L 255.63927 283.207271 
L 268.625452 282.198284 
L 278.365089 281.669645 
L 278.365089 281.42458 
L 278.365089 281.42458 
L 268.625452 282.030047 
L 255.63927 283.075722 
L 249.146179 283.459298 
L 244.276361 282.701617 
L 236.159997 283.536377 
z
" clip-path="url(#pbfda325751)" style="fill: #1f77b4; fill-opacity: 0.2; stroke: #1f77b4; stroke-opacity: 0.2"/>
    <path d="M 288.104725 280.782863 
L 288.104725 280.884495 
L 288.104725 280.782863 
L 288.104725 280.782863 
z
" clip-path="url(#pbfda325751)" style="fill: #1f77b4; fill-opacity: 0.2; stroke: #1f77b4; stroke-opacity: 0.2"/>
    <path d="M 395.240727 272.647472 
L 395.240727 272.920227 
L 395.240727 272.647472 
L 395.240727 272.647472 
z
" clip-path="url(#pbfda325751)" style="fill: #1f77b4; fill-opacity: 0.2; stroke: #1f77b4; stroke-opacity: 0.2"/>
   </g>
   <g id="matplotlib.axis_1">
    <g id="xtick_1">
     <g id="line2d_1">
      <defs>
       <path id="m2da352b674" d="M 0 0 
L 0 3.5 
" style="stroke: #000000; stroke-width: 0.8"/>
      </defs>
      <g>
       <use xlink:href="#m2da352b674" x="73.832721" y="307.584" style="stroke: #000000; stroke-width: 0.8"/>
      </g>
     </g>
     <g id="text_1">
      <!-- 0.0 -->
      <g transform="translate(65.881159 322.182437)scale(0.1 -0.1)">
       <defs>
        <path id="DejaVuSans-30" d="M 2034 4250 
Q 1547 4250 1301 3770 
Q 1056 3291 1056 2328 
Q 1056 1369 1301 889 
Q 1547 409 2034 409 
Q 2525 409 2770 889 
Q 3016 1369 3016 2328 
Q 3016 3291 2770 3770 
Q 2525 4250 2034 4250 
z
M 2034 4750 
Q 2819 4750 3233 4129 
Q 3647 3509 3647 2328 
Q 3647 1150 3233 529 
Q 2819 -91 2034 -91 
Q 1250 -91 836 529 
Q 422 1150 422 2328 
Q 422 3509 836 4129 
Q 1250 4750 2034 4750 
z
" transform="scale(0.015625)"/>
        <path id="DejaVuSans-2e" d="M 684 794 
L 1344 794 
L 1344 0 
L 684 0 
L 684 794 
z
" transform="scale(0.015625)"/>
       </defs>
       <use xlink:href="#DejaVuSans-30"/>
       <use xlink:href="#DejaVuSans-2e" x="63.623047"/>
       <use xlink:href="#DejaVuSans-30" x="95.410156"/>
      </g>
     </g>
    </g>
    <g id="xtick_2">
     <g id="line2d_2">
      <g>
       <use xlink:href="#m2da352b674" x="134.304344" y="307.584" style="stroke: #000000; stroke-width: 0.8"/>
      </g>
     </g>
     <g id="text_2">
      <!-- 0.5 -->
      <g transform="translate(126.352781 322.182437)scale(0.1 -0.1)">
       <defs>
        <path id="DejaVuSans-35" d="M 691 4666 
L 3169 4666 
L 3169 4134 
L 1269 4134 
L 1269 2991 
Q 1406 3038 1543 3061 
Q 1681 3084 1819 3084 
Q 2600 3084 3056 2656 
Q 3513 2228 3513 1497 
Q 3513 744 3044 326 
Q 2575 -91 1722 -91 
Q 1428 -91 1123 -41 
Q 819 9 494 109 
L 494 744 
Q 775 591 1075 516 
Q 1375 441 1709 441 
Q 2250 441 2565 725 
Q 2881 1009 2881 1497 
Q 2881 1984 2565 2268 
Q 2250 2553 1709 2553 
Q 1456 2553 1204 2497 
Q 953 2441 691 2322 
L 691 4666 
z
" transform="scale(0.015625)"/>
       </defs>
       <use xlink:href="#DejaVuSans-30"/>
       <use xlink:href="#DejaVuSans-2e" x="63.623047"/>
       <use xlink:href="#DejaVuSans-35" x="95.410156"/>
      </g>
     </g>
    </g>
    <g id="xtick_3">
     <g id="line2d_3">
      <g>
       <use xlink:href="#m2da352b674" x="194.775966" y="307.584" style="stroke: #000000; stroke-width: 0.8"/>
      </g>
     </g>
     <g id="text_3">
      <!-- 1.0 -->
      <g transform="translate(186.824404 322.182437)scale(0.1 -0.1)">
       <defs>
        <path id="DejaVuSans-31" d="M 794 531 
L 1825 531 
L 1825 4091 
L 703 3866 
L 703 4441 
L 1819 4666 
L 2450 4666 
L 2450 531 
L 3481 531 
L 3481 0 
L 794 0 
L 794 531 
z
" transform="scale(0.015625)"/>
       </defs>
       <use xlink:href="#DejaVuSans-31"/>
       <use xlink:href="#DejaVuSans-2e" x="63.623047"/>
       <use xlink:href="#DejaVuSans-30" x="95.410156"/>
      </g>
     </g>
    </g>
    <g id="xtick_4">
     <g id="line2d_4">
      <g>
       <use xlink:href="#m2da352b674" x="255.247589" y="307.584" style="stroke: #000000; stroke-width: 0.8"/>
      </g>
     </g>
     <g id="text_4">
      <!-- 1.5 -->
      <g transform="translate(247.296026 322.182437)scale(0.1 -0.1)">
       <use xlink:href="#DejaVuSans-31"/>
       <use xlink:href="#DejaVuSans-2e" x="63.623047"/>
       <use xlink:href="#DejaVuSans-35" x="95.410156"/>
      </g>
     </g>
    </g>
    <g id="xtick_5">
     <g id="line2d_5">
      <g>
       <use xlink:href="#m2da352b674" x="315.719211" y="307.584" style="stroke: #000000; stroke-width: 0.8"/>
      </g>
     </g>
     <g id="text_5">
      <!-- 2.0 -->
      <g transform="translate(307.767649 322.182437)scale(0.1 -0.1)">
       <defs>
        <path id="DejaVuSans-32" d="M 1228 531 
L 3431 531 
L 3431 0 
L 469 0 
L 469 531 
Q 828 903 1448 1529 
Q 2069 2156 2228 2338 
Q 2531 2678 2651 2914 
Q 2772 3150 2772 3378 
Q 2772 3750 2511 3984 
Q 2250 4219 1831 4219 
Q 1534 4219 1204 4116 
Q 875 4013 500 3803 
L 500 4441 
Q 881 4594 1212 4672 
Q 1544 4750 1819 4750 
Q 2544 4750 2975 4387 
Q 3406 4025 3406 3419 
Q 3406 3131 3298 2873 
Q 3191 2616 2906 2266 
Q 2828 2175 2409 1742 
Q 1991 1309 1228 531 
z
" transform="scale(0.015625)"/>
       </defs>
       <use xlink:href="#DejaVuSans-32"/>
       <use xlink:href="#DejaVuSans-2e" x="63.623047"/>
       <use xlink:href="#DejaVuSans-30" x="95.410156"/>
      </g>
     </g>
    </g>
    <g id="xtick_6">
     <g id="line2d_6">
      <g>
       <use xlink:href="#m2da352b674" x="376.190834" y="307.584" style="stroke: #000000; stroke-width: 0.8"/>
      </g>
     </g>
     <g id="text_6">
      <!-- 2.5 -->
      <g transform="translate(368.239271 322.182437)scale(0.1 -0.1)">
       <use xlink:href="#DejaVuSans-32"/>
       <use xlink:href="#DejaVuSans-2e" x="63.623047"/>
       <use xlink:href="#DejaVuSans-35" x="95.410156"/>
      </g>
     </g>
    </g>
    <g id="text_7">
     <!-- Global Problem Size -->
     <g transform="translate(186.327969 335.860562)scale(0.1 -0.1)">
      <defs>
       <path id="DejaVuSans-47" d="M 3809 666 
L 3809 1919 
L 2778 1919 
L 2778 2438 
L 4434 2438 
L 4434 434 
Q 4069 175 3628 42 
Q 3188 -91 2688 -91 
Q 1594 -91 976 548 
Q 359 1188 359 2328 
Q 359 3472 976 4111 
Q 1594 4750 2688 4750 
Q 3144 4750 3555 4637 
Q 3966 4525 4313 4306 
L 4313 3634 
Q 3963 3931 3569 4081 
Q 3175 4231 2741 4231 
Q 1884 4231 1454 3753 
Q 1025 3275 1025 2328 
Q 1025 1384 1454 906 
Q 1884 428 2741 428 
Q 3075 428 3337 486 
Q 3600 544 3809 666 
z
" transform="scale(0.015625)"/>
       <path id="DejaVuSans-6c" d="M 603 4863 
L 1178 4863 
L 1178 0 
L 603 0 
L 603 4863 
z
" transform="scale(0.015625)"/>
       <path id="DejaVuSans-6f" d="M 1959 3097 
Q 1497 3097 1228 2736 
Q 959 2375 959 1747 
Q 959 1119 1226 758 
Q 1494 397 1959 397 
Q 2419 397 2687 759 
Q 2956 1122 2956 1747 
Q 2956 2369 2687 2733 
Q 2419 3097 1959 3097 
z
M 1959 3584 
Q 2709 3584 3137 3096 
Q 3566 2609 3566 1747 
Q 3566 888 3137 398 
Q 2709 -91 1959 -91 
Q 1206 -91 779 398 
Q 353 888 353 1747 
Q 353 2609 779 3096 
Q 1206 3584 1959 3584 
z
" transform="scale(0.015625)"/>
       <path id="DejaVuSans-62" d="M 3116 1747 
Q 3116 2381 2855 2742 
Q 2594 3103 2138 3103 
Q 1681 3103 1420 2742 
Q 1159 2381 1159 1747 
Q 1159 1113 1420 752 
Q 1681 391 2138 391 
Q 2594 391 2855 752 
Q 3116 1113 3116 1747 
z
M 1159 2969 
Q 1341 3281 1617 3432 
Q 1894 3584 2278 3584 
Q 2916 3584 3314 3078 
Q 3713 2572 3713 1747 
Q 3713 922 3314 415 
Q 2916 -91 2278 -91 
Q 1894 -91 1617 61 
Q 1341 213 1159 525 
L 1159 0 
L 581 0 
L 581 4863 
L 1159 4863 
L 1159 2969 
z
" transform="scale(0.015625)"/>
       <path id="DejaVuSans-61" d="M 2194 1759 
Q 1497 1759 1228 1600 
Q 959 1441 959 1056 
Q 959 750 1161 570 
Q 1363 391 1709 391 
Q 2188 391 2477 730 
Q 2766 1069 2766 1631 
L 2766 1759 
L 2194 1759 
z
M 3341 1997 
L 3341 0 
L 2766 0 
L 2766 531 
Q 2569 213 2275 61 
Q 1981 -91 1556 -91 
Q 1019 -91 701 211 
Q 384 513 384 1019 
Q 384 1609 779 1909 
Q 1175 2209 1959 2209 
L 2766 2209 
L 2766 2266 
Q 2766 2663 2505 2880 
Q 2244 3097 1772 3097 
Q 1472 3097 1187 3025 
Q 903 2953 641 2809 
L 641 3341 
Q 956 3463 1253 3523 
Q 1550 3584 1831 3584 
Q 2591 3584 2966 3190 
Q 3341 2797 3341 1997 
z
" transform="scale(0.015625)"/>
       <path id="DejaVuSans-20" transform="scale(0.015625)"/>
       <path id="DejaVuSans-50" d="M 1259 4147 
L 1259 2394 
L 2053 2394 
Q 2494 2394 2734 2622 
Q 2975 2850 2975 3272 
Q 2975 3691 2734 3919 
Q 2494 4147 2053 4147 
L 1259 4147 
z
M 628 4666 
L 2053 4666 
Q 2838 4666 3239 4311 
Q 3641 3956 3641 3272 
Q 3641 2581 3239 2228 
Q 2838 1875 2053 1875 
L 1259 1875 
L 1259 0 
L 628 0 
L 628 4666 
z
" transform="scale(0.015625)"/>
       <path id="DejaVuSans-72" d="M 2631 2963 
Q 2534 3019 2420 3045 
Q 2306 3072 2169 3072 
Q 1681 3072 1420 2755 
Q 1159 2438 1159 1844 
L 1159 0 
L 581 0 
L 581 3500 
L 1159 3500 
L 1159 2956 
Q 1341 3275 1631 3429 
Q 1922 3584 2338 3584 
Q 2397 3584 2469 3576 
Q 2541 3569 2628 3553 
L 2631 2963 
z
" transform="scale(0.015625)"/>
       <path id="DejaVuSans-65" d="M 3597 1894 
L 3597 1613 
L 953 1613 
Q 991 1019 1311 708 
Q 1631 397 2203 397 
Q 2534 397 2845 478 
Q 3156 559 3463 722 
L 3463 178 
Q 3153 47 2828 -22 
Q 2503 -91 2169 -91 
Q 1331 -91 842 396 
Q 353 884 353 1716 
Q 353 2575 817 3079 
Q 1281 3584 2069 3584 
Q 2775 3584 3186 3129 
Q 3597 2675 3597 1894 
z
M 3022 2063 
Q 3016 2534 2758 2815 
Q 2500 3097 2075 3097 
Q 1594 3097 1305 2825 
Q 1016 2553 972 2059 
L 3022 2063 
z
" transform="scale(0.015625)"/>
       <path id="DejaVuSans-6d" d="M 3328 2828 
Q 3544 3216 3844 3400 
Q 4144 3584 4550 3584 
Q 5097 3584 5394 3201 
Q 5691 2819 5691 2113 
L 5691 0 
L 5113 0 
L 5113 2094 
Q 5113 2597 4934 2840 
Q 4756 3084 4391 3084 
Q 3944 3084 3684 2787 
Q 3425 2491 3425 1978 
L 3425 0 
L 2847 0 
L 2847 2094 
Q 2847 2600 2669 2842 
Q 2491 3084 2119 3084 
Q 1678 3084 1418 2786 
Q 1159 2488 1159 1978 
L 1159 0 
L 581 0 
L 581 3500 
L 1159 3500 
L 1159 2956 
Q 1356 3278 1631 3431 
Q 1906 3584 2284 3584 
Q 2666 3584 2933 3390 
Q 3200 3197 3328 2828 
z
" transform="scale(0.015625)"/>
       <path id="DejaVuSans-53" d="M 3425 4513 
L 3425 3897 
Q 3066 4069 2747 4153 
Q 2428 4238 2131 4238 
Q 1616 4238 1336 4038 
Q 1056 3838 1056 3469 
Q 1056 3159 1242 3001 
Q 1428 2844 1947 2747 
L 2328 2669 
Q 3034 2534 3370 2195 
Q 3706 1856 3706 1288 
Q 3706 609 3251 259 
Q 2797 -91 1919 -91 
Q 1588 -91 1214 -16 
Q 841 59 441 206 
L 441 856 
Q 825 641 1194 531 
Q 1563 422 1919 422 
Q 2459 422 2753 634 
Q 3047 847 3047 1241 
Q 3047 1584 2836 1778 
Q 2625 1972 2144 2069 
L 1759 2144 
Q 1053 2284 737 2584 
Q 422 2884 422 3419 
Q 422 4038 858 4394 
Q 1294 4750 2059 4750 
Q 2388 4750 2728 4690 
Q 3069 4631 3425 4513 
z
" transform="scale(0.015625)"/>
       <path id="DejaVuSans-69" d="M 603 3500 
L 1178 3500 
L 1178 0 
L 603 0 
L 603 3500 
z
M 603 4863 
L 1178 4863 
L 1178 4134 
L 603 4134 
L 603 4863 
z
" transform="scale(0.015625)"/>
       <path id="DejaVuSans-7a" d="M 353 3500 
L 3084 3500 
L 3084 2975 
L 922 459 
L 3084 459 
L 3084 0 
L 275 0 
L 275 525 
L 2438 3041 
L 353 3041 
L 353 3500 
z
" transform="scale(0.015625)"/>
      </defs>
      <use xlink:href="#DejaVuSans-47"/>
      <use xlink:href="#DejaVuSans-6c" x="77.490234"/>
      <use xlink:href="#DejaVuSans-6f" x="105.273438"/>
      <use xlink:href="#DejaVuSans-62" x="166.455078"/>
      <use xlink:href="#DejaVuSans-61" x="229.931641"/>
      <use xlink:href="#DejaVuSans-6c" x="291.210938"/>
      <use xlink:href="#DejaVuSans-20" x="318.994141"/>
      <use xlink:href="#DejaVuSans-50" x="350.78125"/>
      <use xlink:href="#DejaVuSans-72" x="409.333984"/>
      <use xlink:href="#DejaVuSans-6f" x="448.197266"/>
      <use xlink:href="#DejaVuSans-62" x="509.378906"/>
      <use xlink:href="#DejaVuSans-6c" x="572.855469"/>
      <use xlink:href="#DejaVuSans-65" x="600.638672"/>
      <use xlink:href="#DejaVuSans-6d" x="662.162109"/>
      <use xlink:href="#DejaVuSans-20" x="759.574219"/>
      <use xlink:href="#DejaVuSans-53" x="791.361328"/>
      <use xlink:href="#DejaVuSans-69" x="854.837891"/>
      <use xlink:href="#DejaVuSans-7a" x="882.621094"/>
      <use xlink:href="#DejaVuSans-65" x="935.111328"/>
     </g>
    </g>
    <g id="text_8">
     <!-- 1e10 -->
     <g transform="translate(389.479375 334.860562)scale(0.1 -0.1)">
      <use xlink:href="#DejaVuSans-31"/>
      <use xlink:href="#DejaVuSans-65" x="63.623047"/>
      <use xlink:href="#DejaVuSans-31" x="125.146484"/>
      <use xlink:href="#DejaVuSans-30" x="188.769531"/>
     </g>
    </g>
   </g>
   <g id="matplotlib.axis_2">
    <g id="ytick_1">
     <g id="line2d_7">
      <defs>
       <path id="mbfdef0f414" d="M 0 0 
L -3.5 0 
" style="stroke: #000000; stroke-width: 0.8"/>
      </defs>
      <g>
       <use xlink:href="#mbfdef0f414" x="57.6" y="296.304525" style="stroke: #000000; stroke-width: 0.8"/>
      </g>
     </g>
     <g id="text_9">
      <!-- 0 -->
      <g transform="translate(44.2375 300.103744)scale(0.1 -0.1)">
       <use xlink:href="#DejaVuSans-30"/>
      </g>
     </g>
    </g>
    <g id="ytick_2">
     <g id="line2d_8">
      <g>
       <use xlink:href="#mbfdef0f414" x="57.6" y="264.946174" style="stroke: #000000; stroke-width: 0.8"/>
      </g>
     </g>
     <g id="text_10">
      <!-- 1 -->
      <g transform="translate(44.2375 268.745393)scale(0.1 -0.1)">
       <use xlink:href="#DejaVuSans-31"/>
      </g>
     </g>
    </g>
    <g id="ytick_3">
     <g id="line2d_9">
      <g>
       <use xlink:href="#mbfdef0f414" x="57.6" y="233.587824" style="stroke: #000000; stroke-width: 0.8"/>
      </g>
     </g>
     <g id="text_11">
      <!-- 2 -->
      <g transform="translate(44.2375 237.387042)scale(0.1 -0.1)">
       <use xlink:href="#DejaVuSans-32"/>
      </g>
     </g>
    </g>
    <g id="ytick_4">
     <g id="line2d_10">
      <g>
       <use xlink:href="#mbfdef0f414" x="57.6" y="202.229473" style="stroke: #000000; stroke-width: 0.8"/>
      </g>
     </g>
     <g id="text_12">
      <!-- 3 -->
      <g transform="translate(44.2375 206.028692)scale(0.1 -0.1)">
       <defs>
        <path id="DejaVuSans-33" d="M 2597 2516 
Q 3050 2419 3304 2112 
Q 3559 1806 3559 1356 
Q 3559 666 3084 287 
Q 2609 -91 1734 -91 
Q 1441 -91 1130 -33 
Q 819 25 488 141 
L 488 750 
Q 750 597 1062 519 
Q 1375 441 1716 441 
Q 2309 441 2620 675 
Q 2931 909 2931 1356 
Q 2931 1769 2642 2001 
Q 2353 2234 1838 2234 
L 1294 2234 
L 1294 2753 
L 1863 2753 
Q 2328 2753 2575 2939 
Q 2822 3125 2822 3475 
Q 2822 3834 2567 4026 
Q 2313 4219 1838 4219 
Q 1578 4219 1281 4162 
Q 984 4106 628 3988 
L 628 4550 
Q 988 4650 1302 4700 
Q 1616 4750 1894 4750 
Q 2613 4750 3031 4423 
Q 3450 4097 3450 3541 
Q 3450 3153 3228 2886 
Q 3006 2619 2597 2516 
z
" transform="scale(0.015625)"/>
       </defs>
       <use xlink:href="#DejaVuSans-33"/>
      </g>
     </g>
    </g>
    <g id="ytick_5">
     <g id="line2d_11">
      <g>
       <use xlink:href="#mbfdef0f414" x="57.6" y="170.871123" style="stroke: #000000; stroke-width: 0.8"/>
      </g>
     </g>
     <g id="text_13">
      <!-- 4 -->
      <g transform="translate(44.2375 174.670341)scale(0.1 -0.1)">
       <defs>
        <path id="DejaVuSans-34" d="M 2419 4116 
L 825 1625 
L 2419 1625 
L 2419 4116 
z
M 2253 4666 
L 3047 4666 
L 3047 1625 
L 3713 1625 
L 3713 1100 
L 3047 1100 
L 3047 0 
L 2419 0 
L 2419 1100 
L 313 1100 
L 313 1709 
L 2253 4666 
z
" transform="scale(0.015625)"/>
       </defs>
       <use xlink:href="#DejaVuSans-34"/>
      </g>
     </g>
    </g>
    <g id="ytick_6">
     <g id="line2d_12">
      <g>
       <use xlink:href="#mbfdef0f414" x="57.6" y="139.512772" style="stroke: #000000; stroke-width: 0.8"/>
      </g>
     </g>
     <g id="text_14">
      <!-- 5 -->
      <g transform="translate(44.2375 143.311991)scale(0.1 -0.1)">
       <use xlink:href="#DejaVuSans-35"/>
      </g>
     </g>
    </g>
    <g id="ytick_7">
     <g id="line2d_13">
      <g>
       <use xlink:href="#mbfdef0f414" x="57.6" y="108.154422" style="stroke: #000000; stroke-width: 0.8"/>
      </g>
     </g>
     <g id="text_15">
      <!-- 6 -->
      <g transform="translate(44.2375 111.95364)scale(0.1 -0.1)">
       <defs>
        <path id="DejaVuSans-36" d="M 2113 2584 
Q 1688 2584 1439 2293 
Q 1191 2003 1191 1497 
Q 1191 994 1439 701 
Q 1688 409 2113 409 
Q 2538 409 2786 701 
Q 3034 994 3034 1497 
Q 3034 2003 2786 2293 
Q 2538 2584 2113 2584 
z
M 3366 4563 
L 3366 3988 
Q 3128 4100 2886 4159 
Q 2644 4219 2406 4219 
Q 1781 4219 1451 3797 
Q 1122 3375 1075 2522 
Q 1259 2794 1537 2939 
Q 1816 3084 2150 3084 
Q 2853 3084 3261 2657 
Q 3669 2231 3669 1497 
Q 3669 778 3244 343 
Q 2819 -91 2113 -91 
Q 1303 -91 875 529 
Q 447 1150 447 2328 
Q 447 3434 972 4092 
Q 1497 4750 2381 4750 
Q 2619 4750 2861 4703 
Q 3103 4656 3366 4563 
z
" transform="scale(0.015625)"/>
       </defs>
       <use xlink:href="#DejaVuSans-36"/>
      </g>
     </g>
    </g>
    <g id="ytick_8">
     <g id="line2d_14">
      <g>
       <use xlink:href="#mbfdef0f414" x="57.6" y="76.796071" style="stroke: #000000; stroke-width: 0.8"/>
      </g>
     </g>
     <g id="text_16">
      <!-- 7 -->
      <g transform="translate(44.2375 80.59529)scale(0.1 -0.1)">
       <defs>
        <path id="DejaVuSans-37" d="M 525 4666 
L 3525 4666 
L 3525 4397 
L 1831 0 
L 1172 0 
L 2766 4134 
L 525 4134 
L 525 4666 
z
" transform="scale(0.015625)"/>
       </defs>
       <use xlink:href="#DejaVuSans-37"/>
      </g>
     </g>
    </g>
    <g id="ytick_9">
     <g id="line2d_15">
      <g>
       <use xlink:href="#mbfdef0f414" x="57.6" y="45.43772" style="stroke: #000000; stroke-width: 0.8"/>
      </g>
     </g>
     <g id="text_17">
      <!-- 8 -->
      <g transform="translate(44.2375 49.236939)scale(0.1 -0.1)">
       <defs>
        <path id="DejaVuSans-38" d="M 2034 2216 
Q 1584 2216 1326 1975 
Q 1069 1734 1069 1313 
Q 1069 891 1326 650 
Q 1584 409 2034 409 
Q 2484 409 2743 651 
Q 3003 894 3003 1313 
Q 3003 1734 2745 1975 
Q 2488 2216 2034 2216 
z
M 1403 2484 
Q 997 2584 770 2862 
Q 544 3141 544 3541 
Q 544 4100 942 4425 
Q 1341 4750 2034 4750 
Q 2731 4750 3128 4425 
Q 3525 4100 3525 3541 
Q 3525 3141 3298 2862 
Q 3072 2584 2669 2484 
Q 3125 2378 3379 2068 
Q 3634 1759 3634 1313 
Q 3634 634 3220 271 
Q 2806 -91 2034 -91 
Q 1263 -91 848 271 
Q 434 634 434 1313 
Q 434 1759 690 2068 
Q 947 2378 1403 2484 
z
M 1172 3481 
Q 1172 3119 1398 2916 
Q 1625 2713 2034 2713 
Q 2441 2713 2670 2916 
Q 2900 3119 2900 3481 
Q 2900 3844 2670 4047 
Q 2441 4250 2034 4250 
Q 1625 4250 1398 4047 
Q 1172 3844 1172 3481 
z
" transform="scale(0.015625)"/>
       </defs>
       <use xlink:href="#DejaVuSans-38"/>
      </g>
     </g>
    </g>
    <g id="text_18">
     <!-- GFLOPS -->
     <g transform="translate(38.157812 194.007688)rotate(-90)scale(0.1 -0.1)">
      <defs>
       <path id="DejaVuSans-46" d="M 628 4666 
L 3309 4666 
L 3309 4134 
L 1259 4134 
L 1259 2759 
L 3109 2759 
L 3109 2228 
L 1259 2228 
L 1259 0 
L 628 0 
L 628 4666 
z
" transform="scale(0.015625)"/>
       <path id="DejaVuSans-4c" d="M 628 4666 
L 1259 4666 
L 1259 531 
L 3531 531 
L 3531 0 
L 628 0 
L 628 4666 
z
" transform="scale(0.015625)"/>
       <path id="DejaVuSans-4f" d="M 2522 4238 
Q 1834 4238 1429 3725 
Q 1025 3213 1025 2328 
Q 1025 1447 1429 934 
Q 1834 422 2522 422 
Q 3209 422 3611 934 
Q 4013 1447 4013 2328 
Q 4013 3213 3611 3725 
Q 3209 4238 2522 4238 
z
M 2522 4750 
Q 3503 4750 4090 4092 
Q 4678 3434 4678 2328 
Q 4678 1225 4090 567 
Q 3503 -91 2522 -91 
Q 1538 -91 948 565 
Q 359 1222 359 2328 
Q 359 3434 948 4092 
Q 1538 4750 2522 4750 
z
" transform="scale(0.015625)"/>
      </defs>
      <use xlink:href="#DejaVuSans-47"/>
      <use xlink:href="#DejaVuSans-46" x="77.490234"/>
      <use xlink:href="#DejaVuSans-4c" x="135.009766"/>
      <use xlink:href="#DejaVuSans-4f" x="187.097656"/>
      <use xlink:href="#DejaVuSans-50" x="265.808594"/>
      <use xlink:href="#DejaVuSans-53" x="326.111328"/>
     </g>
    </g>
   </g>
   <g id="line2d_16">
    <path d="M 73.832727 216.77818 
L 73.866011 89.238218 
L 73.934176 270.226184 
L 73.943687 120.420397 
L 73.949235 112.214074 
L 73.959539 207.720373 
L 73.982525 116.474419 
L 74.03563 294.816773 
L 73.99917 115.709903 
L 74.086357 294.582474 
L 74.12044 117.869552 
L 74.187812 294.001221 
L 74.238539 294.401998 
L 74.365357 292.587863 
L 74.441448 293.571422 
L 74.466812 292.191637 
L 74.517539 294.073262 
L 74.542903 292.485088 
L 74.59363 292.73392 
L 74.644357 293.794873 
L 74.720448 290.343295 
L 74.745812 292.982168 
L 74.897994 291.531998 
L 75.050176 292.93419 
L 75.075539 288.836941 
L 75.100903 291.957212 
L 75.43063 290.82989 
L 75.455994 293.109568 
L 75.506721 290.885034 
L 75.608176 290.504014 
L 75.658903 291.248183 
L 75.734994 289.75941 
L 75.861812 290.894444 
L 75.963267 289.302911 
L 76.115448 288.721612 
L 76.26763 292.185261 
L 76.369085 288.128394 
L 76.571994 288.425578 
L 76.622721 288.054697 
L 76.673448 290.804333 
L 77.028539 286.614716 
L 77.079267 292.280954 
L 77.256812 285.889267 
L 77.38363 285.782523 
L 77.485085 289.752274 
L 77.561176 284.564209 
L 77.637267 284.967885 
L 77.738721 284.487366 
L 77.890903 288.15496 
L 78.017721 284.226637 
L 78.093812 288.448643 
L 78.296721 282.687075 
L 78.398176 283.049938 
L 78.626448 282.295244 
L 78.702539 291.806186 
L 78.803994 281.571776 
L 78.854721 282.548393 
L 78.905448 283.333713 
L 79.159085 281.671503 
L 79.311267 284.268731 
L 79.412721 281.703268 
L 79.514176 289.58018 
L 79.539539 281.349727 
L 79.691721 281.611962 
L 79.919994 287.564004 
L 79.970721 279.807053 
L 80.046812 280.886251 
L 80.224358 280.595465 
L 80.325812 292.282298 
L 80.528721 280.140714 
L 80.680903 280.658882 
L 80.807721 279.008638 
L 81.137448 290.379479 
L 81.365721 277.718274 
L 81.441812 278.484876 
L 81.644721 277.617425 
L 81.822267 277.95713 
L 81.949085 289.27532 
L 82.050539 277.748911 
L 82.202721 279.077606 
L 82.354903 291.617617 
L 82.709994 275.720276 
L 82.760721 284.576361 
L 82.96363 283.980387 
L 83.039721 282.116815 
L 83.572358 291.930068 
L 83.597721 274.479019 
L 83.775267 288.961685 
L 83.876721 275.55461 
L 83.978176 283.07729 
L 84.789812 291.666374 
L 84.992721 272.974618 
L 85.19563 290.424688 
L 86.007267 291.250274 
L 86.108721 272.821667 
L 86.615994 291.006359 
L 86.818903 291.794805 
L 87.224721 290.750114 
L 88.036358 290.20669 
L 88.442176 290.244389 
L 89.050903 289.566399 
L 90.065449 289.642941 
L 90.268358 289.392674 
L 92.09454 288.742459 
L 93.311994 289.729582 
L 93.717812 287.972705 
L 93.920721 287.951852 
L 94.123631 288.257993 
L 96.152722 287.792316 
L 96.55854 290.357649 
L 98.181812 288.22108 
L 99.399267 287.000698 
L 99.805085 290.47103 
L 100.616722 286.330832 
L 102.239994 286.123555 
L 103.051631 288.452414 
L 103.660358 285.345377 
L 104.269085 284.726395 
L 105.080722 284.186372 
L 106.298176 286.607969 
L 106.703994 284.249047 
L 107.312722 284.046812 
L 107.921449 285.3433 
L 109.544722 283.083248 
L 110.356358 283.244807 
L 112.18254 282.22069 
L 112.791267 289.346459 
L 114.008722 281.445943 
L 114.41454 281.428954 
L 116.443631 281.575084 
L 117.661086 281.492481 
L 118.472722 281.720989 
L 119.284358 290.962677 
L 120.704722 280.439943 
L 122.530904 285.615147 
L 122.936722 280.297937 
L 123.139631 280.737393 
L 125.777449 290.840656 
L 127.400722 279.817611 
L 128.618177 279.695731 
L 130.647268 287.343186 
L 132.27054 291.685082 
L 134.096722 278.041751 
L 134.70545 277.50927 
L 138.763631 287.733598 
L 140.792722 276.885866 
L 142.010177 290.971034 
L 145.256722 290.743592 
L 146.879995 290.484101 
L 147.488722 275.438961 
L 151.749813 288.691031 
L 153.373086 283.815435 
L 161.48945 289.401371 
L 171.229087 288.635072 
L 176.098905 287.892271 
L 177.722178 288.099832 
L 180.968723 287.917264 
L 187.461814 287.205962 
L 190.70836 287.173161 
L 210.187633 285.590019 
L 229.666906 284.061723 
L 236.159997 284.033893 
L 244.276361 283.15796 
L 249.146179 283.506665 
L 255.63927 283.141497 
L 268.625452 282.14071 
L 278.365089 281.547113 
L 281.611634 281.171016 
L 288.104725 280.821946 
L 292.974543 280.114585 
L 301.090907 279.989747 
L 317.323635 278.566203 
L 323.816726 277.771363 
L 333.556362 277.763524 
L 346.542544 276.093315 
L 359.528727 275.531123 
L 366.021818 274.970341 
L 380.631272 274.039531 
L 395.240727 272.790988 
L 398.487273 272.67861 
L 398.487273 272.67861 
" clip-path="url(#pbfda325751)" style="fill: none; stroke: #1f77b4; stroke-width: 1.5; stroke-linecap: square"/>
   </g>
   <g id="line2d_17"/>
   <g id="patch_3">
    <path d="M 57.6 307.584 
L 57.6 41.472 
" style="fill: none; stroke: #000000; stroke-width: 0.8; stroke-linejoin: miter; stroke-linecap: square"/>
   </g>
   <g id="patch_4">
    <path d="M 414.72 307.584 
L 414.72 41.472 
" style="fill: none; stroke: #000000; stroke-width: 0.8; stroke-linejoin: miter; stroke-linecap: square"/>
   </g>
   <g id="patch_5">
    <path d="M 57.6 307.584 
L 414.72 307.584 
" style="fill: none; stroke: #000000; stroke-width: 0.8; stroke-linejoin: miter; stroke-linecap: square"/>
   </g>
   <g id="patch_6">
    <path d="M 57.6 41.472 
L 414.72 41.472 
" style="fill: none; stroke: #000000; stroke-width: 0.8; stroke-linejoin: miter; stroke-linecap: square"/>
   </g>
   <g id="text_19">
    <!-- Performance vs Global Problem Size -->
    <g transform="translate(127.8525 35.472)scale(0.12 -0.12)">
     <defs>
      <path id="DejaVuSans-66" d="M 2375 4863 
L 2375 4384 
L 1825 4384 
Q 1516 4384 1395 4259 
Q 1275 4134 1275 3809 
L 1275 3500 
L 2222 3500 
L 2222 3053 
L 1275 3053 
L 1275 0 
L 697 0 
L 697 3053 
L 147 3053 
L 147 3500 
L 697 3500 
L 697 3744 
Q 697 4328 969 4595 
Q 1241 4863 1831 4863 
L 2375 4863 
z
" transform="scale(0.015625)"/>
      <path id="DejaVuSans-6e" d="M 3513 2113 
L 3513 0 
L 2938 0 
L 2938 2094 
Q 2938 2591 2744 2837 
Q 2550 3084 2163 3084 
Q 1697 3084 1428 2787 
Q 1159 2491 1159 1978 
L 1159 0 
L 581 0 
L 581 3500 
L 1159 3500 
L 1159 2956 
Q 1366 3272 1645 3428 
Q 1925 3584 2291 3584 
Q 2894 3584 3203 3211 
Q 3513 2838 3513 2113 
z
" transform="scale(0.015625)"/>
      <path id="DejaVuSans-63" d="M 3122 3366 
L 3122 2828 
Q 2878 2963 2633 3030 
Q 2388 3097 2138 3097 
Q 1578 3097 1268 2742 
Q 959 2388 959 1747 
Q 959 1106 1268 751 
Q 1578 397 2138 397 
Q 2388 397 2633 464 
Q 2878 531 3122 666 
L 3122 134 
Q 2881 22 2623 -34 
Q 2366 -91 2075 -91 
Q 1284 -91 818 406 
Q 353 903 353 1747 
Q 353 2603 823 3093 
Q 1294 3584 2113 3584 
Q 2378 3584 2631 3529 
Q 2884 3475 3122 3366 
z
" transform="scale(0.015625)"/>
      <path id="DejaVuSans-76" d="M 191 3500 
L 800 3500 
L 1894 563 
L 2988 3500 
L 3597 3500 
L 2284 0 
L 1503 0 
L 191 3500 
z
" transform="scale(0.015625)"/>
      <path id="DejaVuSans-73" d="M 2834 3397 
L 2834 2853 
Q 2591 2978 2328 3040 
Q 2066 3103 1784 3103 
Q 1356 3103 1142 2972 
Q 928 2841 928 2578 
Q 928 2378 1081 2264 
Q 1234 2150 1697 2047 
L 1894 2003 
Q 2506 1872 2764 1633 
Q 3022 1394 3022 966 
Q 3022 478 2636 193 
Q 2250 -91 1575 -91 
Q 1294 -91 989 -36 
Q 684 19 347 128 
L 347 722 
Q 666 556 975 473 
Q 1284 391 1588 391 
Q 1994 391 2212 530 
Q 2431 669 2431 922 
Q 2431 1156 2273 1281 
Q 2116 1406 1581 1522 
L 1381 1569 
Q 847 1681 609 1914 
Q 372 2147 372 2553 
Q 372 3047 722 3315 
Q 1072 3584 1716 3584 
Q 2034 3584 2315 3537 
Q 2597 3491 2834 3397 
z
" transform="scale(0.015625)"/>
     </defs>
     <use xlink:href="#DejaVuSans-50"/>
     <use xlink:href="#DejaVuSans-65" x="56.677734"/>
     <use xlink:href="#DejaVuSans-72" x="118.201172"/>
     <use xlink:href="#DejaVuSans-66" x="159.314453"/>
     <use xlink:href="#DejaVuSans-6f" x="194.519531"/>
     <use xlink:href="#DejaVuSans-72" x="255.701172"/>
     <use xlink:href="#DejaVuSans-6d" x="295.064453"/>
     <use xlink:href="#DejaVuSans-61" x="392.476562"/>
     <use xlink:href="#DejaVuSans-6e" x="453.755859"/>
     <use xlink:href="#DejaVuSans-63" x="517.134766"/>
     <use xlink:href="#DejaVuSans-65" x="572.115234"/>
     <use xlink:href="#DejaVuSans-20" x="633.638672"/>
     <use xlink:href="#DejaVuSans-76" x="665.425781"/>
     <use xlink:href="#DejaVuSans-73" x="724.605469"/>
     <use xlink:href="#DejaVuSans-20" x="776.705078"/>
     <use xlink:href="#DejaVuSans-47" x="808.492188"/>
     <use xlink:href="#DejaVuSans-6c" x="885.982422"/>
     <use xlink:href="#DejaVuSans-6f" x="913.765625"/>
     <use xlink:href="#DejaVuSans-62" x="974.947266"/>
     <use xlink:href="#DejaVuSans-61" x="1038.423828"/>
     <use xlink:href="#DejaVuSans-6c" x="1099.703125"/>
     <use xlink:href="#DejaVuSans-20" x="1127.486328"/>
     <use xlink:href="#DejaVuSans-50" x="1159.273438"/>
     <use xlink:href="#DejaVuSans-72" x="1217.826172"/>
     <use xlink:href="#DejaVuSans-6f" x="1256.689453"/>
     <use xlink:href="#DejaVuSans-62" x="1317.871094"/>
     <use xlink:href="#DejaVuSans-6c" x="1381.347656"/>
     <use xlink:href="#DejaVuSans-65" x="1409.130859"/>
     <use xlink:href="#DejaVuSans-6d" x="1470.654297"/>
     <use xlink:href="#DejaVuSans-20" x="1568.066406"/>
     <use xlink:href="#DejaVuSans-53" x="1599.853516"/>
     <use xlink:href="#DejaVuSans-69" x="1663.330078"/>
     <use xlink:href="#DejaVuSans-7a" x="1691.113281"/>
     <use xlink:href="#DejaVuSans-65" x="1743.603516"/>
    </g>
   </g>
   <g id="legend_1">
    <g id="patch_7">
     <path d="M 339.12 78.82825 
L 407.72 78.82825 
Q 409.72 78.82825 409.72 76.82825 
L 409.72 48.472 
Q 409.72 46.472 407.72 46.472 
L 339.12 46.472 
Q 337.12 46.472 337.12 48.472 
L 337.12 76.82825 
Q 337.12 78.82825 339.12 78.82825 
z
" style="fill: #ffffff; opacity: 0.8; stroke: #cccccc; stroke-linejoin: miter"/>
    </g>
    <g id="text_20">
     <!-- Cluster -->
     <g transform="translate(355.673906 58.070437)scale(0.1 -0.1)">
      <defs>
       <path id="DejaVuSans-43" d="M 4122 4306 
L 4122 3641 
Q 3803 3938 3442 4084 
Q 3081 4231 2675 4231 
Q 1875 4231 1450 3742 
Q 1025 3253 1025 2328 
Q 1025 1406 1450 917 
Q 1875 428 2675 428 
Q 3081 428 3442 575 
Q 3803 722 4122 1019 
L 4122 359 
Q 3791 134 3420 21 
Q 3050 -91 2638 -91 
Q 1578 -91 968 557 
Q 359 1206 359 2328 
Q 359 3453 968 4101 
Q 1578 4750 2638 4750 
Q 3056 4750 3426 4639 
Q 3797 4528 4122 4306 
z
" transform="scale(0.015625)"/>
       <path id="DejaVuSans-75" d="M 544 1381 
L 544 3500 
L 1119 3500 
L 1119 1403 
Q 1119 906 1312 657 
Q 1506 409 1894 409 
Q 2359 409 2629 706 
Q 2900 1003 2900 1516 
L 2900 3500 
L 3475 3500 
L 3475 0 
L 2900 0 
L 2900 538 
Q 2691 219 2414 64 
Q 2138 -91 1772 -91 
Q 1169 -91 856 284 
Q 544 659 544 1381 
z
M 1991 3584 
L 1991 3584 
z
" transform="scale(0.015625)"/>
       <path id="DejaVuSans-74" d="M 1172 4494 
L 1172 3500 
L 2356 3500 
L 2356 3053 
L 1172 3053 
L 1172 1153 
Q 1172 725 1289 603 
Q 1406 481 1766 481 
L 2356 481 
L 2356 0 
L 1766 0 
Q 1100 0 847 248 
Q 594 497 594 1153 
L 594 3053 
L 172 3053 
L 172 3500 
L 594 3500 
L 594 4494 
L 1172 4494 
z
" transform="scale(0.015625)"/>
      </defs>
      <use xlink:href="#DejaVuSans-43"/>
      <use xlink:href="#DejaVuSans-6c" x="69.824219"/>
      <use xlink:href="#DejaVuSans-75" x="97.607422"/>
      <use xlink:href="#DejaVuSans-73" x="160.986328"/>
      <use xlink:href="#DejaVuSans-74" x="213.085938"/>
      <use xlink:href="#DejaVuSans-65" x="252.294922"/>
      <use xlink:href="#DejaVuSans-72" x="313.818359"/>
     </g>
    </g>
    <g id="line2d_18">
     <path d="M 341.12 69.248562 
L 351.12 69.248562 
L 361.12 69.248562 
" style="fill: none; stroke: #1f77b4; stroke-width: 1.5; stroke-linecap: square"/>
    </g>
    <g id="text_21">
     <!-- Hopper -->
     <g transform="translate(369.12 72.748562)scale(0.1 -0.1)">
      <defs>
       <path id="DejaVuSans-48" d="M 628 4666 
L 1259 4666 
L 1259 2753 
L 3553 2753 
L 3553 4666 
L 4184 4666 
L 4184 0 
L 3553 0 
L 3553 2222 
L 1259 2222 
L 1259 0 
L 628 0 
L 628 4666 
z
" transform="scale(0.015625)"/>
       <path id="DejaVuSans-70" d="M 1159 525 
L 1159 -1331 
L 581 -1331 
L 581 3500 
L 1159 3500 
L 1159 2969 
Q 1341 3281 1617 3432 
Q 1894 3584 2278 3584 
Q 2916 3584 3314 3078 
Q 3713 2572 3713 1747 
Q 3713 922 3314 415 
Q 2916 -91 2278 -91 
Q 1894 -91 1617 61 
Q 1341 213 1159 525 
z
M 3116 1747 
Q 3116 2381 2855 2742 
Q 2594 3103 2138 3103 
Q 1681 3103 1420 2742 
Q 1159 2381 1159 1747 
Q 1159 1113 1420 752 
Q 1681 391 2138 391 
Q 2594 391 2855 752 
Q 3116 1113 3116 1747 
z
" transform="scale(0.015625)"/>
      </defs>
      <use xlink:href="#DejaVuSans-48"/>
      <use xlink:href="#DejaVuSans-6f" x="75.195312"/>
      <use xlink:href="#DejaVuSans-70" x="136.376953"/>
      <use xlink:href="#DejaVuSans-70" x="199.853516"/>
      <use xlink:href="#DejaVuSans-65" x="263.330078"/>
      <use xlink:href="#DejaVuSans-72" x="324.853516"/>
     </g>
    </g>
   </g>
  </g>
 </g>
 <defs>
  <clipPath id="pbfda325751">
   <rect x="57.6" y="41.472" width="357.12" height="266.112"/>
  </clipPath>
 </defs>
</svg>
