<?xml version="1.0" encoding="utf-8" standalone="no"?>
<!DOCTYPE svg PUBLIC "-//W3C//DTD SVG 1.1//EN"
  "http://www.w3.org/Graphics/SVG/1.1/DTD/svg11.dtd">
<svg xmlns:xlink="http://www.w3.org/1999/xlink" width="460.8pt" height="345.6pt" viewBox="0 0 460.8 345.6" xmlns="http://www.w3.org/2000/svg" version="1.1">
 <metadata>
  <rdf:RDF xmlns:dc="http://purl.org/dc/elements/1.1/" xmlns:cc="http://creativecommons.org/ns#" xmlns:rdf="http://www.w3.org/1999/02/22-rdf-syntax-ns#">
   <cc:Work>
    <dc:type rdf:resource="http://purl.org/dc/dcmitype/StillImage"/>
    <dc:date>2024-05-04T11:10:35.433038</dc:date>
    <dc:format>image/svg+xml</dc:format>
    <dc:creator>
     <cc:Agent>
      <dc:title>Matplotlib v3.5.3, https://matplotlib.org/</dc:title>
     </cc:Agent>
    </dc:creator>
   </cc:Work>
  </rdf:RDF>
 </metadata>
 <defs>
  <style type="text/css">*{stroke-linejoin: round; stroke-linecap: butt}</style>
 </defs>
 <g id="figure_1">
  <g id="patch_1">
   <path d="M 0 345.6 
L 460.8 345.6 
L 460.8 0 
L 0 0 
z
" style="fill: #ffffff"/>
  </g>
  <g id="axes_1">
   <g id="patch_2">
    <path d="M 57.6 307.584 
L 414.72 307.584 
L 414.72 41.472 
L 57.6 41.472 
z
" style="fill: #ffffff"/>
   </g>
   <g id="PolyCollection_1">
    <defs>
     <path id="mcbee327251" d="M 73.832727 -228.568008 
L 73.832727 -94.115347 
L 73.832727 -93.153419 
L 73.832727 -109.287266 
L 73.832727 -104.637043 
L 73.832727 -81.171919 
L 107.139229 -59.692932 
L 107.139469 -58.062373 
L 107.141742 -74.521749 
L 107.142078 -74.366296 
L 107.14532 -84.314181 
L 107.145809 -80.182419 
L 107.150664 -92.203565 
L 107.151416 -79.409756 
L 107.159162 -99.050723 
L 107.160405 -95.671865 
L 107.173894 -113.128893 
L 107.176169 -111.200297 
L 107.202899 -139.861924 
L 107.207763 -141.064926 
L 107.273188 -124.754988 
L 107.286724 -125.468741 
L 107.530423 -102.341151 
L 107.530423 -113.388268 
L 107.596512 -109.041515 
L 131.552076 -57.78405 
L 131.552076 -62.448764 
L 131.563509 -81.670939 
L 131.579548 -87.717258 
L 131.603063 -93.429496 
L 131.639575 -98.708746 
L 131.700893 -108.732772 
L 131.700893 -95.906239 
L 131.816346 -138.228307 
L 132.077874 -154.028238 
L 132.932612 -140.283466 
L 140.498137 -70.280574 
L 140.501449 -54.34677 
L 140.51506 -66.287996 
L 140.519611 -67.845286 
L 140.53868 -74.705391 
L 140.545174 -69.46919 
L 140.573071 -81.007957 
L 140.582798 -82.432534 
L 140.625977 -91.975807 
L 140.641506 -86.580185 
L 140.713648 -107.821768 
L 140.74072 -97.076363 
L 140.875309 -127.942907 
L 140.929062 -114.292775 
L 141.228118 -108.708622 
L 141.228118 -118.120292 
L 141.360296 -138.994909 
L 142.285976 -116.444414 
L 142.786015 -133.108581 
L 162.113133 -71.758285 
L 162.125366 -73.453122 
L 162.15957 -83.364234 
L 162.176714 -68.706848 
L 162.176714 -77.161677 
L 162.225965 -85.657185 
L 162.225965 -89.22604 
L 162.251058 -87.117133 
L 162.325806 -98.02134 
L 162.36467 -92.56475 
L 162.486502 -107.986308 
L 162.551508 -109.501257 
L 162.771653 -138.699826 
L 162.893171 -126.938162 
L 163.362467 -155.877272 
L 163.633614 -154.286282 
L 165.018565 -136.874782 
L 165.86804 -147.140017 
L 173.991956 -72.408973 
L 174.011721 -54.639127 
L 174.058802 -79.735523 
L 174.086519 -68.077072 
L 174.154109 -89.26974 
L 174.194716 -82.397067 
L 174.296842 -92.667487 
L 174.359829 -87.286759 
L 174.525123 -104.799498 
L 174.630731 -95.062731 
L 174.925813 -135.668807 
L 175.12408 -113.538657 
L 175.738128 -147.353456 
L 176.184581 -143.209608 
L 177.886226 -134.264922 
L 179.322208 -137.577542 
L 189.664526 -81.509298 
L 189.799965 -90.092993 
L 190.001764 -92.354623 
L 190.001764 -87.176127 
L 190.323021 -92.768976 
L 190.885583 -105.629331 
L 190.885583 -117.040437 
L 192.032497 -150.232408 
L 194.402215 -80.400429 
L 194.467236 -74.256736 
L 194.539489 -89.271201 
L 194.632856 -83.733418 
L 194.740717 -95.407021 
L 194.881842 -89.525645 
L 195.054056 -93.718299 
L 195.18041 -143.947987 
L 195.282604 -98.47103 
L 195.585646 -130.15785 
L 195.994082 -117.791416 
L 196.617572 -152.470793 
L 197.469474 -151.575084 
L 199.217806 -151.953065 
L 201.596007 -149.052038 
L 207.729253 -76.429419 
L 207.804033 -66.162484 
L 207.91789 -92.898599 
L 208.025397 -85.354637 
L 208.194169 -88.41615 
L 208.356951 -86.633244 
L 208.623508 -72.65517 
L 208.623508 -90.949639 
L 208.887864 -82.01576 
L 209.348512 -138.885913 
L 209.823253 -99.77075 
L 210.739224 -151.17252 
L 211.739304 -120.770712 
L 214.107194 -148.090228 
L 216.975609 -140.880075 
L 220.045735 -82.157651 
L 220.045735 -70.996259 
L 220.1303 -91.322379 
L 220.367625 -84.843924 
L 220.367625 -79.99161 
L 220.492662 -91.482269 
L 220.865472 -96.340311 
L 221.062205 -93.923665 
L 221.704845 -104.821044 
L 222.042736 -77.35924 
L 222.042736 -99.224438 
L 223.328825 -144.527745 
L 223.993345 -142.448515 
L 227.447868 -165.060199 
L 227.597609 -89.362737 
L 227.816814 -89.559594 
L 227.935732 -95.534977 
L 228.260278 -86.080859 
L 228.448467 -96.932711 
L 228.960146 -89.144068 
L 229.127455 -144.411312 
L 229.288317 -103.655488 
L 229.288317 -96.352394 
L 230.170098 -97.421337 
L 230.84004 -156.107153 
L 232.585094 -136.123425 
L 234.458259 -157.311288 
L 238.932493 -154.05215 
L 241.872818 -91.568043 
L 242.095598 -85.976194 
L 242.321204 -81.784647 
L 242.651649 -79.43227 
L 243.001555 -86.14696 
L 243.524035 -83.274789 
L 244.114999 -111.454655 
L 245.019846 -82.928403 
L 246.160259 -108.56055 
L 246.160259 -148.565305 
L 247.968586 -107.608426 
L 249.070617 -73.810582 
L 249.070617 -78.826756 
L 249.842311 -88.484685 
L 250.79835 -113.697994 
L 250.79835 -137.239415 
L 251.132382 -97.626169 
L 252.18149 -90.119063 
L 252.534322 -88.947632 
L 252.892207 -94.970272 
L 253.434501 -87.055071 
L 253.600626 -112.914752 
L 253.600626 -126.503696 
L 254.053097 -103.047887 
L 254.955895 -89.153149 
L 254.955895 -77.73975 
L 255.556114 -129.735733 
L 256.204402 -138.343141 
L 257.903353 -117.229712 
L 259.746685 -148.460934 
L 261.324007 -160.172723 
L 261.610142 -96.20882 
L 262.211027 -82.752436 
L 262.361331 -95.11372 
L 263.287388 -82.220543 
L 263.557285 -109.551064 
L 265.105754 -85.303158 
L 265.331237 -128.324529 
L 265.331237 -128.063826 
L 265.682425 -142.725871 
L 268.619656 -116.221509 
L 270.352538 -158.665776 
L 276.672152 -79.963707 
L 277.249911 -77.277103 
L 277.402072 -138.243662 
L 277.643529 -80.010758 
L 278.536436 -72.816512 
L 279.192473 -108.322155 
L 280.468511 -87.712077 
L 280.692592 -77.996407 
L 280.839704 -83.626805 
L 281.939725 -135.538804 
L 282.100288 -100.985846 
L 282.701035 -90.276312 
L 284.811689 -94.65182 
L 285.116486 -117.069318 
L 285.833167 -89.651893 
L 286.203072 -114.714135 
L 286.877231 -78.202288 
L 287.350553 -97.653084 
L 287.857974 -154.699205 
L 287.857974 -123.415887 
L 289.043651 -80.515441 
L 290.064152 -121.9878 
L 292.272776 -139.477212 
L 293.137009 -101.401545 
L 294.681587 -127.388719 
L 294.917989 -120.205949 
L 296.195432 -138.779778 
L 296.657863 -88.347648 
L 298.135516 -77.191866 
L 298.246253 -99.559888 
L 300.654705 -81.133316 
L 300.980511 -144.527632 
L 303.055465 -124.312608 
L 305.391184 -79.672857 
L 305.391184 -91.181998 
L 306.713167 -135.239407 
L 306.713167 -144.53894 
L 312.456026 -84.943295 
L 312.531069 -80.476096 
L 313.91493 -56.242389 
L 314.30883 -92.453205 
L 314.549569 -73.017648 
L 314.549569 -66.140566 
L 315.763367 -58.859469 
L 315.763367 -75.902183 
L 316.528093 -111.944655 
L 316.750405 -114.475512 
L 316.815132 -59.307374 
L 317.894207 -117.208811 
L 318.027182 -125.177488 
L 320.443503 -93.021124 
L 321.303294 -80.931063 
L 321.303294 -93.205903 
L 322.21185 -88.750036 
L 324.004885 -82.792896 
L 324.602885 -115.216784 
L 325.214733 -126.358766 
L 329.359286 -82.533523 
L 333.273134 -97.343782 
L 334.949228 -100.220178 
L 336.639539 -131.809855 
L 336.731262 -76.331263 
L 342.786717 -86.005374 
L 348.276494 -100.440283 
L 349.774843 -97.019973 
L 350.15808 -90.616754 
L 350.15808 -87.055862 
L 351.559095 -104.685491 
L 351.559095 -102.012864 
L 353.360144 -58.531781 
L 354.381661 -133.400732 
L 355.907502 -86.860562 
L 359.645867 -113.592557 
L 360.11849 -50.112 
L 366.368625 -75.366965 
L 366.368625 -70.393217 
L 372.597337 -129.624324 
L 380.726809 -61.007754 
L 380.726809 -58.631733 
L 390.96975 -115.426824 
L 390.96975 -116.852717 
L 398.487273 -58.845376 
L 398.487273 -156.095117 
L 398.487273 -156.095117 
L 390.96975 -241.558292 
L 390.96975 -265.074928 
L 380.726809 -153.37797 
L 380.726809 -157.516082 
L 372.597337 -192.570617 
L 366.368625 -138.353328 
L 366.368625 -134.100692 
L 360.11849 -146.398066 
L 359.645867 -166.802259 
L 355.907502 -130.5676 
L 354.381661 -230.993955 
L 353.360144 -148.14409 
L 351.559095 -167.888782 
L 351.559095 -204.598264 
L 350.15808 -197.986832 
L 350.15808 -216.820897 
L 349.774843 -146.11022 
L 348.276494 -151.94549 
L 342.786717 -129.299518 
L 336.731262 -138.177564 
L 336.639539 -194.35533 
L 334.949228 -150.945954 
L 333.273134 -147.354991 
L 329.359286 -127.738518 
L 325.214733 -202.644561 
L 324.602885 -176.355128 
L 324.004885 -126.457448 
L 322.21185 -136.422898 
L 321.303294 -158.096088 
L 321.303294 -153.773227 
L 320.443503 -144.444312 
L 318.027182 -196.545926 
L 317.894207 -169.389127 
L 316.815132 -148.445508 
L 316.750405 -154.685332 
L 316.528093 -158.575732 
L 315.763367 -117.2493 
L 315.763367 -143.945639 
L 314.549569 -184.719468 
L 314.549569 -181.401069 
L 314.30883 -137.521536 
L 313.91493 -153.448036 
L 312.531069 -146.852259 
L 312.456026 -131.630746 
L 306.713167 -208.233216 
L 306.713167 -222.125872 
L 305.391184 -134.665319 
L 305.391184 -143.679125 
L 303.055465 -164.96742 
L 300.980511 -198.556945 
L 300.654705 -122.958825 
L 298.246253 -152.844922 
L 298.135516 -137.771049 
L 296.657863 -136.702422 
L 296.195432 -193.090039 
L 294.917989 -186.078118 
L 294.681587 -172.975357 
L 293.137009 -142.377018 
L 292.272776 -183.199068 
L 290.064152 -167.076973 
L 289.043651 -122.658259 
L 287.857974 -292.032 
L 287.857974 -245.409657 
L 287.350553 -146.491049 
L 286.877231 -118.415787 
L 286.203072 -160.819467 
L 285.833167 -136.303092 
L 285.116486 -163.931967 
L 284.811689 -143.083607 
L 282.701035 -134.272233 
L 282.100288 -148.647171 
L 281.939725 -211.939643 
L 280.839704 -125.328943 
L 280.692592 -124.601559 
L 280.468511 -128.830452 
L 279.192473 -174.880159 
L 278.536436 -160.121883 
L 277.643529 -150.041984 
L 277.402072 -185.440895 
L 277.249911 -166.969674 
L 276.672152 -147.627334 
L 270.352538 -213.812661 
L 268.619656 -155.883412 
L 265.682425 -192.52023 
L 265.331237 -195.057925 
L 265.331237 -213.009877 
L 265.105754 -118.093279 
L 263.557285 -158.938284 
L 263.287388 -125.469954 
L 262.361331 -141.192302 
L 262.211027 -144.440975 
L 261.610142 -142.528719 
L 261.324007 -220.398982 
L 259.746685 -202.736181 
L 257.903353 -161.737636 
L 256.204402 -189.012164 
L 255.556114 -191.359681 
L 254.955895 -141.125237 
L 254.955895 -133.224961 
L 254.053097 -140.897749 
L 253.600626 -182.101625 
L 253.600626 -194.941367 
L 253.434501 -126.980862 
L 252.892207 -142.551648 
L 252.534322 -129.034902 
L 252.18149 -129.3659 
L 251.132382 -136.652376 
L 250.79835 -230.676419 
L 250.79835 -283.428985 
L 249.842311 -128.305239 
L 249.070617 -121.410791 
L 249.070617 -164.193513 
L 247.968586 -171.465109 
L 246.160259 -245.019328 
L 246.160259 -244.308123 
L 245.019846 -131.213302 
L 244.114999 -180.852803 
L 243.524035 -128.231207 
L 243.001555 -141.70461 
L 242.651649 -164.435315 
L 242.321204 -146.577564 
L 242.095598 -170.009113 
L 241.872818 -154.419495 
L 238.932493 -204.987183 
L 234.458259 -212.947483 
L 232.585094 -181.381293 
L 230.84004 -210.914738 
L 230.170098 -133.991273 
L 229.288317 -183.223804 
L 229.288317 -154.687356 
L 229.127455 -200.888698 
L 228.960146 -120.792746 
L 228.448467 -135.132216 
L 228.260278 -127.61079 
L 227.935732 -140.196829 
L 227.816814 -150.231514 
L 227.597609 -129.907809 
L 227.447868 -225.060032 
L 223.993345 -190.745491 
L 223.328825 -200.056982 
L 222.042736 -148.334788 
L 222.042736 -137.170117 
L 221.704845 -147.124411 
L 221.062205 -125.711152 
L 220.865472 -133.390385 
L 220.492662 -133.096696 
L 220.367625 -138.838249 
L 220.367625 -137.574261 
L 220.1303 -129.270457 
L 220.045735 -130.428074 
L 220.045735 -138.984157 
L 216.975609 -220.824367 
L 214.107194 -231.6348 
L 211.739304 -185.050507 
L 210.739224 -223.462907 
L 209.823253 -156.580766 
L 209.348512 -216.940442 
L 208.887864 -126.858015 
L 208.623508 -157.872286 
L 208.623508 -171.338756 
L 208.356951 -127.752968 
L 208.194169 -138.395913 
L 208.025397 -169.345145 
L 207.91789 -156.614141 
L 207.804033 -131.474631 
L 207.729253 -128.109455 
L 201.596007 -208.982825 
L 199.217806 -208.389232 
L 197.469474 -201.812765 
L 196.617572 -207.581798 
L 195.994082 -160.881013 
L 195.585646 -180.00628 
L 195.282604 -129.851453 
L 195.18041 -202.795872 
L 195.054056 -131.948186 
L 194.881842 -120.918755 
L 194.740717 -131.204277 
L 194.632856 -124.787849 
L 194.539489 -130.382715 
L 194.467236 -121.140024 
L 194.402215 -112.679524 
L 192.032497 -203.284844 
L 190.885583 -170.032264 
L 190.885583 -185.886985 
L 190.323021 -131.354785 
L 190.001764 -124.173881 
L 190.001764 -145.773492 
L 189.799965 -130.715744 
L 189.664526 -113.438009 
L 179.322208 -220.73786 
L 177.886226 -213.955576 
L 176.184581 -217.289132 
L 175.738128 -224.237107 
L 175.12408 -178.822624 
L 174.925813 -211.940382 
L 174.630731 -142.616942 
L 174.525123 -168.884845 
L 174.359829 -133.45747 
L 174.296842 -144.590618 
L 174.194716 -126.659915 
L 174.154109 -143.02165 
L 174.086519 -131.460695 
L 174.058802 -126.228343 
L 174.011721 -109.446281 
L 173.991956 -117.297347 
L 165.86804 -205.474605 
L 165.018565 -188.633722 
L 163.633614 -209.957253 
L 163.362467 -211.326225 
L 162.893171 -178.037011 
L 162.771653 -188.978345 
L 162.551508 -146.464305 
L 162.486502 -148.201554 
L 162.36467 -124.806135 
L 162.325806 -135.074535 
L 162.251058 -117.592103 
L 162.225965 -147.242042 
L 162.225965 -125.03528 
L 162.176714 -112.853116 
L 162.176714 -131.416386 
L 162.15957 -116.50083 
L 162.125366 -115.478483 
L 162.113133 -102.025075 
L 142.786015 -213.267689 
L 142.285976 -195.700104 
L 141.360296 -218.70096 
L 141.228118 -207.757741 
L 141.228118 -239.490558 
L 140.929062 -186.931331 
L 140.875309 -213.069268 
L 140.74072 -158.349231 
L 140.713648 -172.253356 
L 140.641506 -133.20673 
L 140.625977 -147.381191 
L 140.582798 -125.594978 
L 140.573071 -134.196645 
L 140.545174 -108.872396 
L 140.53868 -110.828176 
L 140.519611 -129.66852 
L 140.51506 -107.76261 
L 140.501449 -123.147425 
L 140.498137 -114.631867 
L 132.932612 -189.53786 
L 132.077874 -210.802701 
L 131.816346 -192.826025 
L 131.700893 -178.603511 
L 131.700893 -162.447742 
L 131.639575 -138.472904 
L 131.603063 -124.683463 
L 131.579548 -114.49524 
L 131.563509 -115.198986 
L 131.552076 -113.887686 
L 131.552076 -127.115701 
L 107.596512 -177.767001 
L 107.530423 -199.67791 
L 107.530423 -258.2442 
L 107.286724 -209.1595 
L 107.273188 -197.272098 
L 107.207763 -217.386023 
L 107.202899 -224.348682 
L 107.176169 -179.567992 
L 107.173894 -178.936303 
L 107.160405 -152.499526 
L 107.159162 -153.877179 
L 107.151416 -125.546702 
L 107.150664 -143.883723 
L 107.145809 -120.811442 
L 107.14532 -121.106955 
L 107.142078 -110.262237 
L 107.141742 -108.460881 
L 107.139469 -114.13323 
L 107.139229 -92.929859 
L 73.832727 -119.731882 
L 73.832727 -169.559728 
L 73.832727 -245.762949 
L 73.832727 -204.420557 
L 73.832727 -228.568008 
z
" style="stroke: #1f77b4; stroke-opacity: 0.2"/>
    </defs>
    <g clip-path="url(#pd897bcdb0a)">
     <use xlink:href="#mcbee327251" x="0" y="345.6" style="fill: #1f77b4; fill-opacity: 0.2; stroke: #1f77b4; stroke-opacity: 0.2"/>
    </g>
   </g>
   <g id="matplotlib.axis_1">
    <g id="xtick_1">
     <g id="line2d_1">
      <defs>
       <path id="m6507c1c937" d="M 0 0 
L 0 3.5 
" style="stroke: #000000; stroke-width: 0.8"/>
      </defs>
      <g>
       <use xlink:href="#m6507c1c937" x="73.832727" y="307.584" style="stroke: #000000; stroke-width: 0.8"/>
      </g>
     </g>
     <g id="text_1">
      <!-- 0 -->
      <g transform="translate(70.651477 322.182437)scale(0.1 -0.1)">
       <defs>
        <path id="DejaVuSans-30" d="M 2034 4250 
Q 1547 4250 1301 3770 
Q 1056 3291 1056 2328 
Q 1056 1369 1301 889 
Q 1547 409 2034 409 
Q 2525 409 2770 889 
Q 3016 1369 3016 2328 
Q 3016 3291 2770 3770 
Q 2525 4250 2034 4250 
z
M 2034 4750 
Q 2819 4750 3233 4129 
Q 3647 3509 3647 2328 
Q 3647 1150 3233 529 
Q 2819 -91 2034 -91 
Q 1250 -91 836 529 
Q 422 1150 422 2328 
Q 422 3509 836 4129 
Q 1250 4750 2034 4750 
z
" transform="scale(0.015625)"/>
       </defs>
       <use xlink:href="#DejaVuSans-30"/>
      </g>
     </g>
    </g>
    <g id="xtick_2">
     <g id="line2d_2">
      <g>
       <use xlink:href="#m6507c1c937" x="124.80716" y="307.584" style="stroke: #000000; stroke-width: 0.8"/>
      </g>
     </g>
     <g id="text_2">
      <!-- 10 -->
      <g transform="translate(118.44466 322.182437)scale(0.1 -0.1)">
       <defs>
        <path id="DejaVuSans-31" d="M 794 531 
L 1825 531 
L 1825 4091 
L 703 3866 
L 703 4441 
L 1819 4666 
L 2450 4666 
L 2450 531 
L 3481 531 
L 3481 0 
L 794 0 
L 794 531 
z
" transform="scale(0.015625)"/>
       </defs>
       <use xlink:href="#DejaVuSans-31"/>
       <use xlink:href="#DejaVuSans-30" x="63.623047"/>
      </g>
     </g>
    </g>
    <g id="xtick_3">
     <g id="line2d_3">
      <g>
       <use xlink:href="#m6507c1c937" x="175.781593" y="307.584" style="stroke: #000000; stroke-width: 0.8"/>
      </g>
     </g>
     <g id="text_3">
      <!-- 20 -->
      <g transform="translate(169.419093 322.182437)scale(0.1 -0.1)">
       <defs>
        <path id="DejaVuSans-32" d="M 1228 531 
L 3431 531 
L 3431 0 
L 469 0 
L 469 531 
Q 828 903 1448 1529 
Q 2069 2156 2228 2338 
Q 2531 2678 2651 2914 
Q 2772 3150 2772 3378 
Q 2772 3750 2511 3984 
Q 2250 4219 1831 4219 
Q 1534 4219 1204 4116 
Q 875 4013 500 3803 
L 500 4441 
Q 881 4594 1212 4672 
Q 1544 4750 1819 4750 
Q 2544 4750 2975 4387 
Q 3406 4025 3406 3419 
Q 3406 3131 3298 2873 
Q 3191 2616 2906 2266 
Q 2828 2175 2409 1742 
Q 1991 1309 1228 531 
z
" transform="scale(0.015625)"/>
       </defs>
       <use xlink:href="#DejaVuSans-32"/>
       <use xlink:href="#DejaVuSans-30" x="63.623047"/>
      </g>
     </g>
    </g>
    <g id="xtick_4">
     <g id="line2d_4">
      <g>
       <use xlink:href="#m6507c1c937" x="226.756026" y="307.584" style="stroke: #000000; stroke-width: 0.8"/>
      </g>
     </g>
     <g id="text_4">
      <!-- 30 -->
      <g transform="translate(220.393526 322.182437)scale(0.1 -0.1)">
       <defs>
        <path id="DejaVuSans-33" d="M 2597 2516 
Q 3050 2419 3304 2112 
Q 3559 1806 3559 1356 
Q 3559 666 3084 287 
Q 2609 -91 1734 -91 
Q 1441 -91 1130 -33 
Q 819 25 488 141 
L 488 750 
Q 750 597 1062 519 
Q 1375 441 1716 441 
Q 2309 441 2620 675 
Q 2931 909 2931 1356 
Q 2931 1769 2642 2001 
Q 2353 2234 1838 2234 
L 1294 2234 
L 1294 2753 
L 1863 2753 
Q 2328 2753 2575 2939 
Q 2822 3125 2822 3475 
Q 2822 3834 2567 4026 
Q 2313 4219 1838 4219 
Q 1578 4219 1281 4162 
Q 984 4106 628 3988 
L 628 4550 
Q 988 4650 1302 4700 
Q 1616 4750 1894 4750 
Q 2613 4750 3031 4423 
Q 3450 4097 3450 3541 
Q 3450 3153 3228 2886 
Q 3006 2619 2597 2516 
z
" transform="scale(0.015625)"/>
       </defs>
       <use xlink:href="#DejaVuSans-33"/>
       <use xlink:href="#DejaVuSans-30" x="63.623047"/>
      </g>
     </g>
    </g>
    <g id="xtick_5">
     <g id="line2d_5">
      <g>
       <use xlink:href="#m6507c1c937" x="277.730458" y="307.584" style="stroke: #000000; stroke-width: 0.8"/>
      </g>
     </g>
     <g id="text_5">
      <!-- 40 -->
      <g transform="translate(271.367958 322.182437)scale(0.1 -0.1)">
       <defs>
        <path id="DejaVuSans-34" d="M 2419 4116 
L 825 1625 
L 2419 1625 
L 2419 4116 
z
M 2253 4666 
L 3047 4666 
L 3047 1625 
L 3713 1625 
L 3713 1100 
L 3047 1100 
L 3047 0 
L 2419 0 
L 2419 1100 
L 313 1100 
L 313 1709 
L 2253 4666 
z
" transform="scale(0.015625)"/>
       </defs>
       <use xlink:href="#DejaVuSans-34"/>
       <use xlink:href="#DejaVuSans-30" x="63.623047"/>
      </g>
     </g>
    </g>
    <g id="xtick_6">
     <g id="line2d_6">
      <g>
       <use xlink:href="#m6507c1c937" x="328.704891" y="307.584" style="stroke: #000000; stroke-width: 0.8"/>
      </g>
     </g>
     <g id="text_6">
      <!-- 50 -->
      <g transform="translate(322.342391 322.182437)scale(0.1 -0.1)">
       <defs>
        <path id="DejaVuSans-35" d="M 691 4666 
L 3169 4666 
L 3169 4134 
L 1269 4134 
L 1269 2991 
Q 1406 3038 1543 3061 
Q 1681 3084 1819 3084 
Q 2600 3084 3056 2656 
Q 3513 2228 3513 1497 
Q 3513 744 3044 326 
Q 2575 -91 1722 -91 
Q 1428 -91 1123 -41 
Q 819 9 494 109 
L 494 744 
Q 775 591 1075 516 
Q 1375 441 1709 441 
Q 2250 441 2565 725 
Q 2881 1009 2881 1497 
Q 2881 1984 2565 2268 
Q 2250 2553 1709 2553 
Q 1456 2553 1204 2497 
Q 953 2441 691 2322 
L 691 4666 
z
" transform="scale(0.015625)"/>
       </defs>
       <use xlink:href="#DejaVuSans-35"/>
       <use xlink:href="#DejaVuSans-30" x="63.623047"/>
      </g>
     </g>
    </g>
    <g id="xtick_7">
     <g id="line2d_7">
      <g>
       <use xlink:href="#m6507c1c937" x="379.679324" y="307.584" style="stroke: #000000; stroke-width: 0.8"/>
      </g>
     </g>
     <g id="text_7">
      <!-- 60 -->
      <g transform="translate(373.316824 322.182437)scale(0.1 -0.1)">
       <defs>
        <path id="DejaVuSans-36" d="M 2113 2584 
Q 1688 2584 1439 2293 
Q 1191 2003 1191 1497 
Q 1191 994 1439 701 
Q 1688 409 2113 409 
Q 2538 409 2786 701 
Q 3034 994 3034 1497 
Q 3034 2003 2786 2293 
Q 2538 2584 2113 2584 
z
M 3366 4563 
L 3366 3988 
Q 3128 4100 2886 4159 
Q 2644 4219 2406 4219 
Q 1781 4219 1451 3797 
Q 1122 3375 1075 2522 
Q 1259 2794 1537 2939 
Q 1816 3084 2150 3084 
Q 2853 3084 3261 2657 
Q 3669 2231 3669 1497 
Q 3669 778 3244 343 
Q 2819 -91 2113 -91 
Q 1303 -91 875 529 
Q 447 1150 447 2328 
Q 447 3434 972 4092 
Q 1497 4750 2381 4750 
Q 2619 4750 2861 4703 
Q 3103 4656 3366 4563 
z
" transform="scale(0.015625)"/>
       </defs>
       <use xlink:href="#DejaVuSans-36"/>
       <use xlink:href="#DejaVuSans-30" x="63.623047"/>
      </g>
     </g>
    </g>
    <g id="text_8">
     <!-- Local close to cube -->
     <g transform="translate(188.365469 335.860562)scale(0.1 -0.1)">
      <defs>
       <path id="DejaVuSans-4c" d="M 628 4666 
L 1259 4666 
L 1259 531 
L 3531 531 
L 3531 0 
L 628 0 
L 628 4666 
z
" transform="scale(0.015625)"/>
       <path id="DejaVuSans-6f" d="M 1959 3097 
Q 1497 3097 1228 2736 
Q 959 2375 959 1747 
Q 959 1119 1226 758 
Q 1494 397 1959 397 
Q 2419 397 2687 759 
Q 2956 1122 2956 1747 
Q 2956 2369 2687 2733 
Q 2419 3097 1959 3097 
z
M 1959 3584 
Q 2709 3584 3137 3096 
Q 3566 2609 3566 1747 
Q 3566 888 3137 398 
Q 2709 -91 1959 -91 
Q 1206 -91 779 398 
Q 353 888 353 1747 
Q 353 2609 779 3096 
Q 1206 3584 1959 3584 
z
" transform="scale(0.015625)"/>
       <path id="DejaVuSans-63" d="M 3122 3366 
L 3122 2828 
Q 2878 2963 2633 3030 
Q 2388 3097 2138 3097 
Q 1578 3097 1268 2742 
Q 959 2388 959 1747 
Q 959 1106 1268 751 
Q 1578 397 2138 397 
Q 2388 397 2633 464 
Q 2878 531 3122 666 
L 3122 134 
Q 2881 22 2623 -34 
Q 2366 -91 2075 -91 
Q 1284 -91 818 406 
Q 353 903 353 1747 
Q 353 2603 823 3093 
Q 1294 3584 2113 3584 
Q 2378 3584 2631 3529 
Q 2884 3475 3122 3366 
z
" transform="scale(0.015625)"/>
       <path id="DejaVuSans-61" d="M 2194 1759 
Q 1497 1759 1228 1600 
Q 959 1441 959 1056 
Q 959 750 1161 570 
Q 1363 391 1709 391 
Q 2188 391 2477 730 
Q 2766 1069 2766 1631 
L 2766 1759 
L 2194 1759 
z
M 3341 1997 
L 3341 0 
L 2766 0 
L 2766 531 
Q 2569 213 2275 61 
Q 1981 -91 1556 -91 
Q 1019 -91 701 211 
Q 384 513 384 1019 
Q 384 1609 779 1909 
Q 1175 2209 1959 2209 
L 2766 2209 
L 2766 2266 
Q 2766 2663 2505 2880 
Q 2244 3097 1772 3097 
Q 1472 3097 1187 3025 
Q 903 2953 641 2809 
L 641 3341 
Q 956 3463 1253 3523 
Q 1550 3584 1831 3584 
Q 2591 3584 2966 3190 
Q 3341 2797 3341 1997 
z
" transform="scale(0.015625)"/>
       <path id="DejaVuSans-6c" d="M 603 4863 
L 1178 4863 
L 1178 0 
L 603 0 
L 603 4863 
z
" transform="scale(0.015625)"/>
       <path id="DejaVuSans-20" transform="scale(0.015625)"/>
       <path id="DejaVuSans-73" d="M 2834 3397 
L 2834 2853 
Q 2591 2978 2328 3040 
Q 2066 3103 1784 3103 
Q 1356 3103 1142 2972 
Q 928 2841 928 2578 
Q 928 2378 1081 2264 
Q 1234 2150 1697 2047 
L 1894 2003 
Q 2506 1872 2764 1633 
Q 3022 1394 3022 966 
Q 3022 478 2636 193 
Q 2250 -91 1575 -91 
Q 1294 -91 989 -36 
Q 684 19 347 128 
L 347 722 
Q 666 556 975 473 
Q 1284 391 1588 391 
Q 1994 391 2212 530 
Q 2431 669 2431 922 
Q 2431 1156 2273 1281 
Q 2116 1406 1581 1522 
L 1381 1569 
Q 847 1681 609 1914 
Q 372 2147 372 2553 
Q 372 3047 722 3315 
Q 1072 3584 1716 3584 
Q 2034 3584 2315 3537 
Q 2597 3491 2834 3397 
z
" transform="scale(0.015625)"/>
       <path id="DejaVuSans-65" d="M 3597 1894 
L 3597 1613 
L 953 1613 
Q 991 1019 1311 708 
Q 1631 397 2203 397 
Q 2534 397 2845 478 
Q 3156 559 3463 722 
L 3463 178 
Q 3153 47 2828 -22 
Q 2503 -91 2169 -91 
Q 1331 -91 842 396 
Q 353 884 353 1716 
Q 353 2575 817 3079 
Q 1281 3584 2069 3584 
Q 2775 3584 3186 3129 
Q 3597 2675 3597 1894 
z
M 3022 2063 
Q 3016 2534 2758 2815 
Q 2500 3097 2075 3097 
Q 1594 3097 1305 2825 
Q 1016 2553 972 2059 
L 3022 2063 
z
" transform="scale(0.015625)"/>
       <path id="DejaVuSans-74" d="M 1172 4494 
L 1172 3500 
L 2356 3500 
L 2356 3053 
L 1172 3053 
L 1172 1153 
Q 1172 725 1289 603 
Q 1406 481 1766 481 
L 2356 481 
L 2356 0 
L 1766 0 
Q 1100 0 847 248 
Q 594 497 594 1153 
L 594 3053 
L 172 3053 
L 172 3500 
L 594 3500 
L 594 4494 
L 1172 4494 
z
" transform="scale(0.015625)"/>
       <path id="DejaVuSans-75" d="M 544 1381 
L 544 3500 
L 1119 3500 
L 1119 1403 
Q 1119 906 1312 657 
Q 1506 409 1894 409 
Q 2359 409 2629 706 
Q 2900 1003 2900 1516 
L 2900 3500 
L 3475 3500 
L 3475 0 
L 2900 0 
L 2900 538 
Q 2691 219 2414 64 
Q 2138 -91 1772 -91 
Q 1169 -91 856 284 
Q 544 659 544 1381 
z
M 1991 3584 
L 1991 3584 
z
" transform="scale(0.015625)"/>
       <path id="DejaVuSans-62" d="M 3116 1747 
Q 3116 2381 2855 2742 
Q 2594 3103 2138 3103 
Q 1681 3103 1420 2742 
Q 1159 2381 1159 1747 
Q 1159 1113 1420 752 
Q 1681 391 2138 391 
Q 2594 391 2855 752 
Q 3116 1113 3116 1747 
z
M 1159 2969 
Q 1341 3281 1617 3432 
Q 1894 3584 2278 3584 
Q 2916 3584 3314 3078 
Q 3713 2572 3713 1747 
Q 3713 922 3314 415 
Q 2916 -91 2278 -91 
Q 1894 -91 1617 61 
Q 1341 213 1159 525 
L 1159 0 
L 581 0 
L 581 4863 
L 1159 4863 
L 1159 2969 
z
" transform="scale(0.015625)"/>
      </defs>
      <use xlink:href="#DejaVuSans-4c"/>
      <use xlink:href="#DejaVuSans-6f" x="53.962891"/>
      <use xlink:href="#DejaVuSans-63" x="115.144531"/>
      <use xlink:href="#DejaVuSans-61" x="170.125"/>
      <use xlink:href="#DejaVuSans-6c" x="231.404297"/>
      <use xlink:href="#DejaVuSans-20" x="259.1875"/>
      <use xlink:href="#DejaVuSans-63" x="290.974609"/>
      <use xlink:href="#DejaVuSans-6c" x="345.955078"/>
      <use xlink:href="#DejaVuSans-6f" x="373.738281"/>
      <use xlink:href="#DejaVuSans-73" x="434.919922"/>
      <use xlink:href="#DejaVuSans-65" x="487.019531"/>
      <use xlink:href="#DejaVuSans-20" x="548.542969"/>
      <use xlink:href="#DejaVuSans-74" x="580.330078"/>
      <use xlink:href="#DejaVuSans-6f" x="619.539062"/>
      <use xlink:href="#DejaVuSans-20" x="680.720703"/>
      <use xlink:href="#DejaVuSans-63" x="712.507812"/>
      <use xlink:href="#DejaVuSans-75" x="767.488281"/>
      <use xlink:href="#DejaVuSans-62" x="830.867188"/>
      <use xlink:href="#DejaVuSans-65" x="894.34375"/>
     </g>
    </g>
   </g>
   <g id="matplotlib.axis_2">
    <g id="ytick_1">
     <g id="line2d_8">
      <defs>
       <path id="m6f49dc1ef7" d="M 0 0 
L -3.5 0 
" style="stroke: #000000; stroke-width: 0.8"/>
      </defs>
      <g>
       <use xlink:href="#m6f49dc1ef7" x="57.6" y="296.333539" style="stroke: #000000; stroke-width: 0.8"/>
      </g>
     </g>
     <g id="text_9">
      <!-- 1.5 -->
      <g transform="translate(34.696875 300.132758)scale(0.1 -0.1)">
       <defs>
        <path id="DejaVuSans-2e" d="M 684 794 
L 1344 794 
L 1344 0 
L 684 0 
L 684 794 
z
" transform="scale(0.015625)"/>
       </defs>
       <use xlink:href="#DejaVuSans-31"/>
       <use xlink:href="#DejaVuSans-2e" x="63.623047"/>
       <use xlink:href="#DejaVuSans-35" x="95.410156"/>
      </g>
     </g>
    </g>
    <g id="ytick_2">
     <g id="line2d_9">
      <g>
       <use xlink:href="#m6f49dc1ef7" x="57.6" y="262.867085" style="stroke: #000000; stroke-width: 0.8"/>
      </g>
     </g>
     <g id="text_10">
      <!-- 2.0 -->
      <g transform="translate(34.696875 266.666303)scale(0.1 -0.1)">
       <use xlink:href="#DejaVuSans-32"/>
       <use xlink:href="#DejaVuSans-2e" x="63.623047"/>
       <use xlink:href="#DejaVuSans-30" x="95.410156"/>
      </g>
     </g>
    </g>
    <g id="ytick_3">
     <g id="line2d_10">
      <g>
       <use xlink:href="#m6f49dc1ef7" x="57.6" y="229.40063" style="stroke: #000000; stroke-width: 0.8"/>
      </g>
     </g>
     <g id="text_11">
      <!-- 2.5 -->
      <g transform="translate(34.696875 233.199849)scale(0.1 -0.1)">
       <use xlink:href="#DejaVuSans-32"/>
       <use xlink:href="#DejaVuSans-2e" x="63.623047"/>
       <use xlink:href="#DejaVuSans-35" x="95.410156"/>
      </g>
     </g>
    </g>
    <g id="ytick_4">
     <g id="line2d_11">
      <g>
       <use xlink:href="#m6f49dc1ef7" x="57.6" y="195.934176" style="stroke: #000000; stroke-width: 0.8"/>
      </g>
     </g>
     <g id="text_12">
      <!-- 3.0 -->
      <g transform="translate(34.696875 199.733395)scale(0.1 -0.1)">
       <use xlink:href="#DejaVuSans-33"/>
       <use xlink:href="#DejaVuSans-2e" x="63.623047"/>
       <use xlink:href="#DejaVuSans-30" x="95.410156"/>
      </g>
     </g>
    </g>
    <g id="ytick_5">
     <g id="line2d_12">
      <g>
       <use xlink:href="#m6f49dc1ef7" x="57.6" y="162.467722" style="stroke: #000000; stroke-width: 0.8"/>
      </g>
     </g>
     <g id="text_13">
      <!-- 3.5 -->
      <g transform="translate(34.696875 166.266941)scale(0.1 -0.1)">
       <use xlink:href="#DejaVuSans-33"/>
       <use xlink:href="#DejaVuSans-2e" x="63.623047"/>
       <use xlink:href="#DejaVuSans-35" x="95.410156"/>
      </g>
     </g>
    </g>
    <g id="ytick_6">
     <g id="line2d_13">
      <g>
       <use xlink:href="#m6f49dc1ef7" x="57.6" y="129.001268" style="stroke: #000000; stroke-width: 0.8"/>
      </g>
     </g>
     <g id="text_14">
      <!-- 4.0 -->
      <g transform="translate(34.696875 132.800486)scale(0.1 -0.1)">
       <use xlink:href="#DejaVuSans-34"/>
       <use xlink:href="#DejaVuSans-2e" x="63.623047"/>
       <use xlink:href="#DejaVuSans-30" x="95.410156"/>
      </g>
     </g>
    </g>
    <g id="ytick_7">
     <g id="line2d_14">
      <g>
       <use xlink:href="#m6f49dc1ef7" x="57.6" y="95.534813" style="stroke: #000000; stroke-width: 0.8"/>
      </g>
     </g>
     <g id="text_15">
      <!-- 4.5 -->
      <g transform="translate(34.696875 99.334032)scale(0.1 -0.1)">
       <use xlink:href="#DejaVuSans-34"/>
       <use xlink:href="#DejaVuSans-2e" x="63.623047"/>
       <use xlink:href="#DejaVuSans-35" x="95.410156"/>
      </g>
     </g>
    </g>
    <g id="ytick_8">
     <g id="line2d_15">
      <g>
       <use xlink:href="#m6f49dc1ef7" x="57.6" y="62.068359" style="stroke: #000000; stroke-width: 0.8"/>
      </g>
     </g>
     <g id="text_16">
      <!-- 5.0 -->
      <g transform="translate(34.696875 65.867578)scale(0.1 -0.1)">
       <use xlink:href="#DejaVuSans-35"/>
       <use xlink:href="#DejaVuSans-2e" x="63.623047"/>
       <use xlink:href="#DejaVuSans-30" x="95.410156"/>
      </g>
     </g>
    </g>
    <g id="text_17">
     <!-- GFLOPS -->
     <g transform="translate(28.617187 194.007688)rotate(-90)scale(0.1 -0.1)">
      <defs>
       <path id="DejaVuSans-47" d="M 3809 666 
L 3809 1919 
L 2778 1919 
L 2778 2438 
L 4434 2438 
L 4434 434 
Q 4069 175 3628 42 
Q 3188 -91 2688 -91 
Q 1594 -91 976 548 
Q 359 1188 359 2328 
Q 359 3472 976 4111 
Q 1594 4750 2688 4750 
Q 3144 4750 3555 4637 
Q 3966 4525 4313 4306 
L 4313 3634 
Q 3963 3931 3569 4081 
Q 3175 4231 2741 4231 
Q 1884 4231 1454 3753 
Q 1025 3275 1025 2328 
Q 1025 1384 1454 906 
Q 1884 428 2741 428 
Q 3075 428 3337 486 
Q 3600 544 3809 666 
z
" transform="scale(0.015625)"/>
       <path id="DejaVuSans-46" d="M 628 4666 
L 3309 4666 
L 3309 4134 
L 1259 4134 
L 1259 2759 
L 3109 2759 
L 3109 2228 
L 1259 2228 
L 1259 0 
L 628 0 
L 628 4666 
z
" transform="scale(0.015625)"/>
       <path id="DejaVuSans-4f" d="M 2522 4238 
Q 1834 4238 1429 3725 
Q 1025 3213 1025 2328 
Q 1025 1447 1429 934 
Q 1834 422 2522 422 
Q 3209 422 3611 934 
Q 4013 1447 4013 2328 
Q 4013 3213 3611 3725 
Q 3209 4238 2522 4238 
z
M 2522 4750 
Q 3503 4750 4090 4092 
Q 4678 3434 4678 2328 
Q 4678 1225 4090 567 
Q 3503 -91 2522 -91 
Q 1538 -91 948 565 
Q 359 1222 359 2328 
Q 359 3434 948 4092 
Q 1538 4750 2522 4750 
z
" transform="scale(0.015625)"/>
       <path id="DejaVuSans-50" d="M 1259 4147 
L 1259 2394 
L 2053 2394 
Q 2494 2394 2734 2622 
Q 2975 2850 2975 3272 
Q 2975 3691 2734 3919 
Q 2494 4147 2053 4147 
L 1259 4147 
z
M 628 4666 
L 2053 4666 
Q 2838 4666 3239 4311 
Q 3641 3956 3641 3272 
Q 3641 2581 3239 2228 
Q 2838 1875 2053 1875 
L 1259 1875 
L 1259 0 
L 628 0 
L 628 4666 
z
" transform="scale(0.015625)"/>
       <path id="DejaVuSans-53" d="M 3425 4513 
L 3425 3897 
Q 3066 4069 2747 4153 
Q 2428 4238 2131 4238 
Q 1616 4238 1336 4038 
Q 1056 3838 1056 3469 
Q 1056 3159 1242 3001 
Q 1428 2844 1947 2747 
L 2328 2669 
Q 3034 2534 3370 2195 
Q 3706 1856 3706 1288 
Q 3706 609 3251 259 
Q 2797 -91 1919 -91 
Q 1588 -91 1214 -16 
Q 841 59 441 206 
L 441 856 
Q 825 641 1194 531 
Q 1563 422 1919 422 
Q 2459 422 2753 634 
Q 3047 847 3047 1241 
Q 3047 1584 2836 1778 
Q 2625 1972 2144 2069 
L 1759 2144 
Q 1053 2284 737 2584 
Q 422 2884 422 3419 
Q 422 4038 858 4394 
Q 1294 4750 2059 4750 
Q 2388 4750 2728 4690 
Q 3069 4631 3425 4513 
z
" transform="scale(0.015625)"/>
      </defs>
      <use xlink:href="#DejaVuSans-47"/>
      <use xlink:href="#DejaVuSans-46" x="77.490234"/>
      <use xlink:href="#DejaVuSans-4c" x="135.009766"/>
      <use xlink:href="#DejaVuSans-4f" x="187.097656"/>
      <use xlink:href="#DejaVuSans-50" x="265.808594"/>
      <use xlink:href="#DejaVuSans-53" x="326.111328"/>
     </g>
    </g>
   </g>
   <g id="line2d_16">
    <path d="M 73.832727 189.7973 
L 73.832727 169.190558 
L 73.832727 246.671117 
L 107.139229 269.851232 
L 107.202899 162.521641 
L 107.207763 167.665889 
L 107.273188 184.956877 
L 107.286724 178.491791 
L 107.530423 168.583759 
L 107.596512 203.219783 
L 131.552076 254.453819 
L 131.552076 259.688441 
L 131.639575 227.268158 
L 131.816346 181.020841 
L 132.077874 164.907579 
L 132.932612 181.720426 
L 140.498137 253.684224 
L 140.501449 259.390553 
L 140.573071 238.525473 
L 140.582798 242.916759 
L 140.713648 206.343222 
L 140.74072 219.373633 
L 140.875309 176.305535 
L 140.929062 193.772134 
L 141.228118 176.599668 
L 141.228118 186.370595 
L 141.360296 168.034529 
L 142.285976 189.482805 
L 142.786015 175.048646 
L 162.113133 260.278588 
L 162.225965 229.425684 
L 162.251058 243.910813 
L 162.486502 218.460067 
L 162.551508 217.966725 
L 162.771653 182.877504 
L 162.893171 194.208937 
L 163.362467 163.685756 
L 163.633614 163.218739 
L 165.018565 183.425923 
L 165.86804 169.787363 
L 173.991956 251.880746 
L 174.011721 266.092983 
L 174.058802 242.824719 
L 174.086519 247.512229 
L 174.154109 230.412877 
L 174.194716 240.819108 
L 174.296842 227.370013 
L 174.359829 237.060397 
L 174.525123 208.732281 
L 174.630731 227.989154 
L 174.925813 172.265524 
L 175.12408 198.834136 
L 175.738128 162.167987 
L 176.184581 165.588262 
L 177.886226 176.267034 
L 179.322208 169.096829 
L 189.664526 248.908274 
L 189.799965 235.885945 
L 190.001764 227.59043 
L 190.001764 240.436124 
L 190.323021 234.137001 
L 190.885583 198.725377 
L 190.885583 202.982922 
L 192.032497 169.623333 
L 194.402215 250.361447 
L 194.467236 249.159079 
L 194.539489 235.463413 
L 194.632856 242.199028 
L 194.740717 233.023234 
L 194.881842 240.816617 
L 195.054056 233.139195 
L 195.18041 172.352733 
L 195.282604 232.340405 
L 195.585646 191.057818 
L 195.994082 207.006658 
L 196.617572 164.70154 
L 197.469474 168.511297 
L 199.217806 166.209283 
L 201.596007 164.792967 
L 207.729253 243.763209 
L 207.804033 247.60019 
L 208.025397 221.671601 
L 208.356951 239.195833 
L 208.623508 222.507632 
L 208.887864 242.355021 
L 209.348512 169.538885 
L 209.823253 218.489001 
L 210.739224 159.033196 
L 211.739304 192.157013 
L 214.107194 155.294351 
L 216.975609 165.517328 
L 220.045735 236.55062 
L 220.045735 246.424806 
L 220.1303 236.242016 
L 220.367625 236.138099 
L 220.367625 239.420289 
L 220.492662 234.688545 
L 220.865472 231.118175 
L 221.062205 236.668962 
L 221.704845 219.363558 
L 222.042736 240.604415 
L 222.042736 222.477995 
L 223.328825 172.515489 
L 223.993345 178.894724 
L 227.447868 151.555251 
L 227.597609 235.780709 
L 227.816814 226.799791 
L 227.935732 228.564531 
L 228.260278 239.376112 
L 228.448467 229.773506 
L 228.960146 241.868321 
L 229.127455 173.386571 
L 229.288317 216.297055 
L 229.288317 206.874599 
L 230.170098 230.038792 
L 230.84004 162.144165 
L 232.585094 187.087749 
L 234.458259 161.884066 
L 238.932493 167.524035 
L 241.872818 224.928523 
L 242.095598 222.072433 
L 242.321204 232.850578 
L 242.651649 225.383843 
L 243.524035 240.801186 
L 244.114999 200.840412 
L 245.019846 240.188863 
L 246.160259 175.171688 
L 246.160259 150.594078 
L 247.968586 205.688392 
L 249.070617 230.433899 
L 249.070617 246.80818 
L 249.842311 237.730433 
L 250.79835 153.900659 
L 250.79835 162.605768 
L 251.132382 229.314535 
L 252.18149 237.077078 
L 252.534322 237.355546 
L 252.892207 228.064443 
L 253.434501 239.168923 
L 253.600626 191.343512 
L 254.053097 223.236894 
L 254.955895 235.267223 
L 255.556114 187.459416 
L 256.204402 181.862185 
L 257.903353 205.965731 
L 259.746685 170.58998 
L 261.324007 156.47919 
L 261.610142 227.984655 
L 262.211027 234.165087 
L 262.361331 227.928319 
L 263.287388 242.082944 
L 263.557285 212.47942 
L 265.105754 244.411633 
L 265.331237 175.134299 
L 265.331237 184.393817 
L 265.682425 178.114063 
L 268.619656 209.626048 
L 270.352538 159.531725 
L 276.672152 232.378679 
L 277.249911 226.954481 
L 277.402072 183.038564 
L 277.643529 230.241963 
L 278.536436 232.818992 
L 279.192473 204.654006 
L 280.692592 245.398214 
L 280.839704 241.911018 
L 281.939725 172.909089 
L 282.100288 219.878681 
L 282.701035 233.010389 
L 284.811689 227.255434 
L 285.116486 204.379724 
L 285.833167 233.979171 
L 286.203072 208.67883 
L 286.877231 248.024495 
L 287.350553 223.842804 
L 287.857974 146.42365 
L 287.857974 146.51564 
L 289.043651 245.2493 
L 290.064152 201.223312 
L 292.272776 185.199401 
L 293.137009 224.379384 
L 294.681587 196.141952 
L 294.917989 194.541232 
L 296.195432 180.159581 
L 296.657863 233.017384 
L 298.135516 239.944478 
L 298.246253 220.66751 
L 300.654705 244.309128 
L 300.980511 175.104289 
L 303.055465 199.97219 
L 305.391184 235.816322 
L 305.391184 233.3298 
L 306.713167 168.175007 
L 306.713167 170.79534 
L 312.456026 238.122768 
L 312.531069 233.936408 
L 313.91493 246.259619 
L 314.30883 230.207238 
L 314.549569 215.383799 
L 314.549569 218.488487 
L 315.763367 246.506263 
L 315.763367 250.135197 
L 316.528093 209.952429 
L 316.750405 212.287335 
L 316.815132 243.778716 
L 317.894207 203.308415 
L 318.027182 184.611593 
L 320.443503 227.205735 
L 321.303294 228.112317 
L 321.303294 221.648355 
L 322.21185 233.421881 
L 324.004885 240.580059 
L 324.602885 199.302515 
L 325.214733 181.223459 
L 329.359286 240.986847 
L 333.273134 222.658227 
L 334.949228 219.940678 
L 336.639539 182.119755 
L 336.731262 241.380041 
L 342.786717 237.657466 
L 348.276494 220.489559 
L 349.774843 225.166651 
L 350.15808 192.918137 
L 350.15808 205.223292 
L 351.559095 192.524464 
L 351.559095 211.779373 
L 353.360144 243.407939 
L 354.381661 161.166958 
L 355.907502 236.538742 
L 359.645867 206.79393 
L 360.11849 250.470976 
L 366.368625 241.676022 
L 366.368625 243.391626 
L 372.597337 183.659729 
L 380.726809 239.353897 
L 380.726809 239.017078 
L 390.96975 161.531055 
L 390.96975 168.280321 
L 398.487273 239.42201 
L 398.487273 239.42201 
" clip-path="url(#pd897bcdb0a)" style="fill: none; stroke: #1f77b4; stroke-width: 1.5; stroke-linecap: square"/>
   </g>
   <g id="line2d_17"/>
   <g id="patch_3">
    <path d="M 57.6 307.584 
L 57.6 41.472 
" style="fill: none; stroke: #000000; stroke-width: 0.8; stroke-linejoin: miter; stroke-linecap: square"/>
   </g>
   <g id="patch_4">
    <path d="M 414.72 307.584 
L 414.72 41.472 
" style="fill: none; stroke: #000000; stroke-width: 0.8; stroke-linejoin: miter; stroke-linecap: square"/>
   </g>
   <g id="patch_5">
    <path d="M 57.6 307.584 
L 414.72 307.584 
" style="fill: none; stroke: #000000; stroke-width: 0.8; stroke-linejoin: miter; stroke-linecap: square"/>
   </g>
   <g id="patch_6">
    <path d="M 57.6 41.472 
L 414.72 41.472 
" style="fill: none; stroke: #000000; stroke-width: 0.8; stroke-linejoin: miter; stroke-linecap: square"/>
   </g>
   <g id="text_18">
    <!-- Local Cubeness -->
    <g transform="translate(189.462187 35.472)scale(0.12 -0.12)">
     <defs>
      <path id="DejaVuSans-43" d="M 4122 4306 
L 4122 3641 
Q 3803 3938 3442 4084 
Q 3081 4231 2675 4231 
Q 1875 4231 1450 3742 
Q 1025 3253 1025 2328 
Q 1025 1406 1450 917 
Q 1875 428 2675 428 
Q 3081 428 3442 575 
Q 3803 722 4122 1019 
L 4122 359 
Q 3791 134 3420 21 
Q 3050 -91 2638 -91 
Q 1578 -91 968 557 
Q 359 1206 359 2328 
Q 359 3453 968 4101 
Q 1578 4750 2638 4750 
Q 3056 4750 3426 4639 
Q 3797 4528 4122 4306 
z
" transform="scale(0.015625)"/>
      <path id="DejaVuSans-6e" d="M 3513 2113 
L 3513 0 
L 2938 0 
L 2938 2094 
Q 2938 2591 2744 2837 
Q 2550 3084 2163 3084 
Q 1697 3084 1428 2787 
Q 1159 2491 1159 1978 
L 1159 0 
L 581 0 
L 581 3500 
L 1159 3500 
L 1159 2956 
Q 1366 3272 1645 3428 
Q 1925 3584 2291 3584 
Q 2894 3584 3203 3211 
Q 3513 2838 3513 2113 
z
" transform="scale(0.015625)"/>
     </defs>
     <use xlink:href="#DejaVuSans-4c"/>
     <use xlink:href="#DejaVuSans-6f" x="53.962891"/>
     <use xlink:href="#DejaVuSans-63" x="115.144531"/>
     <use xlink:href="#DejaVuSans-61" x="170.125"/>
     <use xlink:href="#DejaVuSans-6c" x="231.404297"/>
     <use xlink:href="#DejaVuSans-20" x="259.1875"/>
     <use xlink:href="#DejaVuSans-43" x="290.974609"/>
     <use xlink:href="#DejaVuSans-75" x="360.798828"/>
     <use xlink:href="#DejaVuSans-62" x="424.177734"/>
     <use xlink:href="#DejaVuSans-65" x="487.654297"/>
     <use xlink:href="#DejaVuSans-6e" x="549.177734"/>
     <use xlink:href="#DejaVuSans-65" x="612.556641"/>
     <use xlink:href="#DejaVuSans-73" x="674.080078"/>
     <use xlink:href="#DejaVuSans-73" x="726.179688"/>
    </g>
   </g>
   <g id="legend_1">
    <g id="patch_7">
     <path d="M 339.12 78.82825 
L 407.72 78.82825 
Q 409.72 78.82825 409.72 76.82825 
L 409.72 48.472 
Q 409.72 46.472 407.72 46.472 
L 339.12 46.472 
Q 337.12 46.472 337.12 48.472 
L 337.12 76.82825 
Q 337.12 78.82825 339.12 78.82825 
z
" style="fill: #ffffff; opacity: 0.8; stroke: #cccccc; stroke-linejoin: miter"/>
    </g>
    <g id="text_19">
     <!-- Cluster -->
     <g transform="translate(355.673906 58.070437)scale(0.1 -0.1)">
      <defs>
       <path id="DejaVuSans-72" d="M 2631 2963 
Q 2534 3019 2420 3045 
Q 2306 3072 2169 3072 
Q 1681 3072 1420 2755 
Q 1159 2438 1159 1844 
L 1159 0 
L 581 0 
L 581 3500 
L 1159 3500 
L 1159 2956 
Q 1341 3275 1631 3429 
Q 1922 3584 2338 3584 
Q 2397 3584 2469 3576 
Q 2541 3569 2628 3553 
L 2631 2963 
z
" transform="scale(0.015625)"/>
      </defs>
      <use xlink:href="#DejaVuSans-43"/>
      <use xlink:href="#DejaVuSans-6c" x="69.824219"/>
      <use xlink:href="#DejaVuSans-75" x="97.607422"/>
      <use xlink:href="#DejaVuSans-73" x="160.986328"/>
      <use xlink:href="#DejaVuSans-74" x="213.085938"/>
      <use xlink:href="#DejaVuSans-65" x="252.294922"/>
      <use xlink:href="#DejaVuSans-72" x="313.818359"/>
     </g>
    </g>
    <g id="line2d_18">
     <path d="M 341.12 69.248562 
L 351.12 69.248562 
L 361.12 69.248562 
" style="fill: none; stroke: #1f77b4; stroke-width: 1.5; stroke-linecap: square"/>
    </g>
    <g id="text_20">
     <!-- Hopper -->
     <g transform="translate(369.12 72.748562)scale(0.1 -0.1)">
      <defs>
       <path id="DejaVuSans-48" d="M 628 4666 
L 1259 4666 
L 1259 2753 
L 3553 2753 
L 3553 4666 
L 4184 4666 
L 4184 0 
L 3553 0 
L 3553 2222 
L 1259 2222 
L 1259 0 
L 628 0 
L 628 4666 
z
" transform="scale(0.015625)"/>
       <path id="DejaVuSans-70" d="M 1159 525 
L 1159 -1331 
L 581 -1331 
L 581 3500 
L 1159 3500 
L 1159 2969 
Q 1341 3281 1617 3432 
Q 1894 3584 2278 3584 
Q 2916 3584 3314 3078 
Q 3713 2572 3713 1747 
Q 3713 922 3314 415 
Q 2916 -91 2278 -91 
Q 1894 -91 1617 61 
Q 1341 213 1159 525 
z
M 3116 1747 
Q 3116 2381 2855 2742 
Q 2594 3103 2138 3103 
Q 1681 3103 1420 2742 
Q 1159 2381 1159 1747 
Q 1159 1113 1420 752 
Q 1681 391 2138 391 
Q 2594 391 2855 752 
Q 3116 1113 3116 1747 
z
" transform="scale(0.015625)"/>
      </defs>
      <use xlink:href="#DejaVuSans-48"/>
      <use xlink:href="#DejaVuSans-6f" x="75.195312"/>
      <use xlink:href="#DejaVuSans-70" x="136.376953"/>
      <use xlink:href="#DejaVuSans-70" x="199.853516"/>
      <use xlink:href="#DejaVuSans-65" x="263.330078"/>
      <use xlink:href="#DejaVuSans-72" x="324.853516"/>
     </g>
    </g>
   </g>
  </g>
 </g>
 <defs>
  <clipPath id="pd897bcdb0a">
   <rect x="57.6" y="41.472" width="357.12" height="266.112"/>
  </clipPath>
 </defs>
</svg>
