<?xml version="1.0" encoding="utf-8" standalone="no"?>
<!DOCTYPE svg PUBLIC "-//W3C//DTD SVG 1.1//EN"
  "http://www.w3.org/Graphics/SVG/1.1/DTD/svg11.dtd">
<svg xmlns:xlink="http://www.w3.org/1999/xlink" width="460.8pt" height="345.6pt" viewBox="0 0 460.8 345.6" xmlns="http://www.w3.org/2000/svg" version="1.1">
 <metadata>
  <rdf:RDF xmlns:dc="http://purl.org/dc/elements/1.1/" xmlns:cc="http://creativecommons.org/ns#" xmlns:rdf="http://www.w3.org/1999/02/22-rdf-syntax-ns#">
   <cc:Work>
    <dc:type rdf:resource="http://purl.org/dc/dcmitype/StillImage"/>
    <dc:date>2024-05-04T18:12:30.539257</dc:date>
    <dc:format>image/svg+xml</dc:format>
    <dc:creator>
     <cc:Agent>
      <dc:title>Matplotlib v3.5.3, https://matplotlib.org/</dc:title>
     </cc:Agent>
    </dc:creator>
   </cc:Work>
  </rdf:RDF>
 </metadata>
 <defs>
  <style type="text/css">*{stroke-linejoin: round; stroke-linecap: butt}</style>
 </defs>
 <g id="figure_1">
  <g id="patch_1">
   <path d="M 0 345.6 
L 460.8 345.6 
L 460.8 0 
L 0 0 
z
" style="fill: #ffffff"/>
  </g>
  <g id="axes_1">
   <g id="patch_2">
    <path d="M 57.6 307.584 
L 414.72 307.584 
L 414.72 41.472 
L 57.6 41.472 
z
" style="fill: #ffffff"/>
   </g>
   <g id="PolyCollection_1">
    <path d="M 73.832727 230.553403 
L 73.832727 232.143918 
L 73.832904 231.159522 
L 73.833081 231.667463 
L 73.833258 230.764855 
L 73.833435 228.593965 
L 73.833612 231.082918 
L 73.833789 230.134509 
L 73.833966 229.015349 
L 73.834143 234.087339 
L 73.83432 228.902304 
L 73.834673 232.230477 
L 73.835027 229.790216 
L 73.835204 239.443638 
L 73.835381 229.224501 
L 73.835735 239.160326 
L 73.836089 235.716632 
L 73.836266 243.085111 
L 73.836796 236.714272 
L 73.836973 251.746566 
L 73.837327 240.262376 
L 73.837504 244.371427 
L 73.837858 243.032381 
L 73.838212 234.092276 
L 73.838743 257.401273 
L 73.83892 239.443054 
L 73.839627 238.496522 
L 73.839981 248.415111 
L 73.840335 243.320695 
L 73.840512 259.203806 
L 73.841043 237.259475 
L 73.84122 255.748436 
L 73.841396 247.321328 
L 73.842104 249.323556 
L 73.842458 249.65786 
L 73.843166 250.791828 
L 73.843696 251.150868 
L 73.843873 229.443566 
L 73.844227 258.804156 
L 73.844935 251.809357 
L 73.845289 250.675962 
L 73.84582 266.446896 
L 73.846704 244.452758 
L 73.846881 264.773469 
L 73.847412 254.824516 
L 73.84812 263.860217 
L 73.848473 259.53546 
L 73.849535 236.890594 
L 73.849889 259.552194 
L 73.850066 275.254034 
L 73.850243 261.185902 
L 73.851127 263.447612 
L 73.851658 263.624078 
L 73.852012 265.858323 
L 73.852366 248.04286 
L 73.853781 254.49202 
L 73.854666 275.044036 
L 73.854843 262.750955 
L 73.855196 216.906403 
L 73.855904 266.027174 
L 73.856435 265.87108 
L 73.85732 262.629434 
L 73.858027 252.894883 
L 73.858558 268.15597 
L 73.859089 266.460867 
L 73.859796 262.239134 
L 73.860858 249.713875 
L 73.861212 263.317075 
L 73.861743 267.957992 
L 73.862273 253.62381 
L 73.863512 270.201668 
L 73.863689 265.654498 
L 73.864396 264.136711 
L 73.865989 266.707718 
L 73.86652 219.364659 
L 73.867227 256.891809 
L 73.867581 265.24804 
L 73.867935 262.877795 
L 73.869704 267.159497 
L 73.870766 265.446443 
L 73.871473 268.296946 
L 73.872181 241.196836 
L 73.872358 271.374612 
L 73.87342 267.474044 
L 73.875012 248.21389 
L 73.875366 276.724352 
L 73.875543 265.63018 
L 73.875896 265.77876 
L 73.876781 275.242458 
L 73.877135 265.14788 
L 73.877843 200.303781 
L 73.879258 266.679867 
L 73.88032 266.863384 
L 73.881204 275.620012 
L 73.882089 257.605089 
L 73.883504 239.368248 
L 73.884566 268.619151 
L 73.885096 272.315204 
L 73.885627 269.580528 
L 73.887043 268.627132 
L 73.888281 265.208797 
L 73.889166 228.625318 
L 73.889873 268.030238 
L 73.890935 269.258743 
L 73.891996 242.391262 
L 73.893235 257.901452 
L 73.894473 265.757021 
L 73.894827 262.614979 
L 73.896243 262.325263 
L 73.896773 275.7764 
L 73.899427 268.204993 
L 73.900489 190.555031 
L 73.900666 265.79176 
L 73.901904 258.516193 
L 73.902612 268.140841 
L 73.903319 259.110195 
L 73.904204 266.502007 
L 73.906858 257.152738 
L 73.908981 245.95805 
L 73.910396 267.607303 
L 73.910573 266.203358 
L 73.911812 223.874806 
L 73.912166 270.714401 
L 73.914289 263.545254 
L 73.917473 224.875946 
L 73.918181 275.768535 
L 73.918535 269.657406 
L 73.919243 269.821497 
L 73.920127 269.703482 
L 73.921012 276.15438 
L 73.921719 257.201191 
L 73.923135 174.59913 
L 73.925966 258.864442 
L 73.927912 274.774588 
L 73.928089 266.60822 
L 73.929858 276.10466 
L 73.931627 252.575016 
L 73.932866 269.642336 
L 73.934458 219.906432 
L 73.937642 263.575087 
L 73.938704 244.479385 
L 73.939589 275.765903 
L 73.941535 263.158004 
L 73.944012 264.316712 
L 73.945781 203.216679 
L 73.947196 262.442122 
L 73.949319 270.763586 
L 73.951442 211.130815 
L 73.955158 264.278853 
L 73.956396 258.521218 
L 73.957104 250.829487 
L 73.959935 238.197282 
L 73.960996 257.985428 
L 73.961527 275.937817 
L 73.968427 151.143248 
L 73.968781 258.613916 
L 73.971258 215.307344 
L 73.972673 260.934691 
L 73.974089 236.245218 
L 73.975858 258.402203 
L 73.981165 215.409565 
L 73.982404 257.870996 
L 73.985412 212.74237 
L 73.988242 249.047275 
L 73.990189 271.258682 
L 73.991073 178.535003 
L 73.991781 258.717851 
L 74.002396 199.390665 
L 74.003812 258.699814 
L 74.007704 271.646575 
L 74.007704 254.839806 
L 74.007704 254.839806 
L 74.003812 253.731044 
L 74.002396 135.109357 
L 73.991781 257.427166 
L 73.991073 88.225309 
L 73.990189 254.422366 
L 73.988242 209.447993 
L 73.985412 201.15857 
L 73.982404 254.336616 
L 73.981165 208.616821 
L 73.975858 257.376455 
L 73.974089 211.262653 
L 73.972673 225.986563 
L 73.971258 201.955473 
L 73.968781 256.208776 
L 73.968427 91.479357 
L 73.961527 257.214565 
L 73.960996 254.242883 
L 73.959935 215.381787 
L 73.957104 216.555106 
L 73.956396 255.813291 
L 73.955158 255.254592 
L 73.951442 205.670534 
L 73.949319 255.547022 
L 73.947196 216.925557 
L 73.945781 134.98506 
L 73.944012 255.774593 
L 73.941535 255.161895 
L 73.939589 254.356723 
L 73.938704 184.897131 
L 73.937642 255.126004 
L 73.934458 171.815069 
L 73.932866 255.458333 
L 73.931627 221.322661 
L 73.929858 254.775716 
L 73.928089 256.366633 
L 73.927912 255.013894 
L 73.925966 221.337555 
L 73.923135 103.528264 
L 73.921719 228.249152 
L 73.921012 253.579355 
L 73.920127 255.146315 
L 73.919243 254.667493 
L 73.918535 256.168611 
L 73.918181 255.151833 
L 73.917473 197.771302 
L 73.914289 255.669307 
L 73.912166 256.511516 
L 73.911812 157.931129 
L 73.910573 255.150358 
L 73.910396 256.871376 
L 73.908981 213.703574 
L 73.906858 255.701725 
L 73.904204 256.174544 
L 73.903319 222.748029 
L 73.902612 256.792722 
L 73.901904 226.707313 
L 73.900666 254.53931 
L 73.900489 137.960329 
L 73.899427 257.083183 
L 73.896773 255.627006 
L 73.896243 243.831732 
L 73.894827 215.631891 
L 73.894473 254.456445 
L 73.893235 255.437765 
L 73.891996 213.611275 
L 73.890935 257.597997 
L 73.889873 257.64143 
L 73.889166 178.042563 
L 73.888281 254.138638 
L 73.887043 256.118592 
L 73.885627 256.52095 
L 73.885096 256.210361 
L 73.884566 255.695114 
L 73.883504 209.057255 
L 73.882089 237.717937 
L 73.881204 250.099456 
L 73.88032 257.979707 
L 73.879258 256.846886 
L 73.877843 135.674295 
L 73.877135 256.432488 
L 73.876781 250.760692 
L 73.875896 254.273085 
L 73.875543 252.97876 
L 73.875366 251.929702 
L 73.875012 225.019152 
L 73.87342 253.555916 
L 73.872358 254.025965 
L 73.872181 209.218824 
L 73.871473 255.317229 
L 73.870766 248.279452 
L 73.869704 257.694869 
L 73.867935 235.222782 
L 73.867581 254.439845 
L 73.867227 251.755442 
L 73.86652 182.279587 
L 73.865989 255.168007 
L 73.864396 257.165239 
L 73.863689 253.598384 
L 73.863512 251.202049 
L 73.862273 228.971974 
L 73.861743 251.011781 
L 73.861212 254.404283 
L 73.860858 221.682055 
L 73.859796 248.758849 
L 73.859089 252.525874 
L 73.858558 252.194223 
L 73.858027 228.566735 
L 73.85732 251.244542 
L 73.856435 251.989049 
L 73.855904 252.583867 
L 73.855196 167.317238 
L 73.854843 252.824456 
L 73.854666 251.621593 
L 73.853781 234.705771 
L 73.852366 214.520782 
L 73.852012 240.999629 
L 73.851658 254.842492 
L 73.851127 246.909971 
L 73.850243 243.413408 
L 73.850066 237.514679 
L 73.849889 252.132636 
L 73.849535 210.65458 
L 73.848473 246.956251 
L 73.84812 240.060629 
L 73.847412 243.952932 
L 73.846881 239.020163 
L 73.846704 220.048766 
L 73.84582 237.444369 
L 73.845289 233.711029 
L 73.844935 233.775928 
L 73.844227 235.867792 
L 73.843873 195.117771 
L 73.843696 229.343588 
L 73.843166 239.176201 
L 73.842458 228.464912 
L 73.842104 232.104516 
L 73.841396 225.409144 
L 73.84122 249.185504 
L 73.841043 220.483939 
L 73.840512 230.846629 
L 73.840335 227.641376 
L 73.839981 236.025867 
L 73.839627 220.282261 
L 73.83892 230.011153 
L 73.838743 239.652428 
L 73.838212 212.601717 
L 73.837858 230.997681 
L 73.837504 232.472197 
L 73.837327 225.005672 
L 73.836973 226.419168 
L 73.836796 224.456554 
L 73.836266 227.414464 
L 73.836089 227.142584 
L 73.835735 228.82406 
L 73.835381 215.468892 
L 73.835204 226.937954 
L 73.835027 226.753578 
L 73.834673 228.318053 
L 73.83432 227.735274 
L 73.834143 227.845131 
L 73.833966 220.0216 
L 73.833789 226.218591 
L 73.833612 229.141848 
L 73.833435 227.434329 
L 73.833258 228.908785 
L 73.833081 229.649246 
L 73.832904 230.002582 
L 73.832727 230.553403 
z
" clip-path="url(#p2221e88954)" style="fill: #1f77b4; fill-opacity: 0.2; stroke: #1f77b4; stroke-opacity: 0.2"/>
    <path d="M 74.010889 209.136962 
L 74.010889 213.456357 
L 74.013719 145.658342 
L 74.019381 215.266237 
L 74.023627 214.712315 
L 74.025219 275.951064 
L 74.030704 215.078076 
L 74.036365 185.011195 
L 74.040612 215.722196 
L 74.044858 215.671971 
L 74.050519 215.504495 
L 74.059012 178.819909 
L 74.061842 215.912376 
L 74.066088 216.880709 
L 74.070335 191.972616 
L 74.080242 213.332432 
L 74.081658 216.684765 
L 74.087319 215.829959 
L 74.100058 216.838721 
L 74.104304 121.236582 
L 74.109965 217.26688 
L 74.112796 216.172332 
L 74.115627 214.606117 
L 74.129781 216.963539 
L 74.138273 215.840134 
L 74.143934 216.524846 
L 74.149596 163.237307 
L 74.151011 216.844635 
L 74.159504 217.10255 
L 74.172242 171.750891 
L 74.172242 105.932495 
L 74.172242 105.932495 
L 74.159504 207.1605 
L 74.151011 210.424914 
L 74.149596 73.258166 
L 74.143934 209.538239 
L 74.138273 172.854753 
L 74.129781 214.46629 
L 74.115627 124.989591 
L 74.112796 207.752074 
L 74.109965 216.559294 
L 74.104304 62.105129 
L 74.100058 207.910122 
L 74.087319 211.902874 
L 74.081658 212.943156 
L 74.080242 211.094652 
L 74.070335 100.344702 
L 74.066088 215.250719 
L 74.061842 210.612658 
L 74.059012 104.920587 
L 74.050519 209.115009 
L 74.044858 211.566778 
L 74.040612 213.595596 
L 74.036365 118.616338 
L 74.030704 206.779794 
L 74.025219 253.419091 
L 74.023627 199.796285 
L 74.019381 213.224931 
L 74.013719 58.257033 
L 74.010889 209.136962 
z
" clip-path="url(#p2221e88954)" style="fill: #1f77b4; fill-opacity: 0.2; stroke: #1f77b4; stroke-opacity: 0.2"/>
    <path d="M 74.176488 205.618182 
L 74.176488 216.731385 
L 74.179319 217.952584 
L 74.186396 217.27782 
L 74.189227 217.242518 
L 74.194888 144.321992 
L 74.206211 216.423082 
L 74.214704 216.659562 
L 74.22178 216.040654 
L 74.228857 201.337189 
L 74.24018 153.177455 
L 74.248673 218.066129 
L 74.252919 216.574965 
L 74.257165 217.117379 
L 74.268488 218.058145 
L 74.278396 217.659729 
L 74.285473 148.250074 
L 74.291134 217.173392 
L 74.299626 216.753983 
L 74.308119 152.562096 
L 74.308119 78.463426 
L 74.308119 78.463426 
L 74.299626 213.647538 
L 74.291134 213.410849 
L 74.285473 77.185678 
L 74.278396 215.507673 
L 74.268488 214.274795 
L 74.257165 211.967914 
L 74.252919 210.330589 
L 74.248673 215.986247 
L 74.24018 81.517602 
L 74.228857 133.188442 
L 74.22178 214.111278 
L 74.214704 211.504389 
L 74.206211 213.957833 
L 74.194888 53.568 
L 74.189227 211.903646 
L 74.186396 214.225119 
L 74.179319 217.678775 
L 74.176488 205.618182 
z
" clip-path="url(#p2221e88954)" style="fill: #1f77b4; fill-opacity: 0.2; stroke: #1f77b4; stroke-opacity: 0.2"/>
    <path d="M 74.327934 214.309095 
L 74.327934 218.301941 
L 74.330765 217.576959 
L 74.342088 216.27826 
L 74.342088 143.626981 
L 74.342088 143.626981 
L 74.330765 89.536546 
L 74.327934 214.309095 
z
" clip-path="url(#p2221e88954)" style="fill: #1f77b4; fill-opacity: 0.2; stroke: #1f77b4; stroke-opacity: 0.2"/>
    <path d="M 74.367565 211.808003 
L 74.367565 216.881004 
L 74.376057 120.791859 
L 74.377473 218.557048 
L 74.38738 215.043293 
L 74.393042 218.842462 
L 74.398703 214.777083 
L 74.40578 218.388431 
L 74.427011 218.17583 
L 74.443995 167.47259 
L 74.455319 218.836135 
L 74.456734 215.586179 
L 74.466642 157.433596 
L 74.469472 215.012023 
L 74.486457 218.946249 
L 74.511934 133.833645 
L 74.511934 82.511923 
L 74.511934 82.511923 
L 74.486457 215.415344 
L 74.469472 210.525597 
L 74.466642 77.668662 
L 74.456734 210.488192 
L 74.455319 217.981315 
L 74.443995 84.669433 
L 74.427011 213.989898 
L 74.40578 214.631101 
L 74.398703 94.130201 
L 74.393042 217.805205 
L 74.38738 106.996645 
L 74.377473 215.037601 
L 74.376057 72.297413 
L 74.367565 211.808003 
z
" clip-path="url(#p2221e88954)" style="fill: #1f77b4; fill-opacity: 0.2; stroke: #1f77b4; stroke-opacity: 0.2"/>
    <path d="M 74.520426 208.109368 
L 74.520426 215.297586 
L 74.526088 215.178423 
L 74.533165 218.516169 
L 74.533165 209.679185 
L 74.533165 209.679185 
L 74.526088 214.249661 
L 74.520426 208.109368 
z
" clip-path="url(#p2221e88954)" style="fill: #1f77b4; fill-opacity: 0.2; stroke: #1f77b4; stroke-opacity: 0.2"/>
    <path d="M 74.545903 114.865964 
L 74.545903 203.695164 
L 74.557226 192.683226 
L 74.579872 199.206593 
L 74.595441 214.387453 
L 74.596857 215.148262 
L 74.611011 218.898791 
L 74.625164 188.080054 
L 74.635072 219.308026 
L 74.647811 153.073424 
L 74.673287 218.359305 
L 74.68178 186.278594 
L 74.68178 95.784816 
L 74.68178 95.784816 
L 74.673287 216.294504 
L 74.647811 104.617 
L 74.635072 210.296881 
L 74.625164 91.082738 
L 74.611011 215.232534 
L 74.596857 212.484689 
L 74.595441 213.710619 
L 74.579872 86.215716 
L 74.557226 96.932942 
L 74.545903 114.865964 
z
" clip-path="url(#p2221e88954)" style="fill: #1f77b4; fill-opacity: 0.2; stroke: #1f77b4; stroke-opacity: 0.2"/>
    <path d="M 74.704426 213.672031 
L 74.704426 219.799536 
L 74.724241 219.3064 
L 74.738395 157.393492 
L 74.749718 212.78375 
L 74.766703 218.879276 
L 74.783687 128.278088 
L 74.81341 218.578116 
L 74.81341 214.172338 
L 74.81341 214.172338 
L 74.783687 76.360175 
L 74.766703 215.240518 
L 74.749718 127.940544 
L 74.738395 107.908026 
L 74.724241 214.048444 
L 74.704426 213.672031 
z
" clip-path="url(#p2221e88954)" style="fill: #1f77b4; fill-opacity: 0.2; stroke: #1f77b4; stroke-opacity: 0.2"/>
    <path d="M 74.828979 97.787108 
L 74.828979 191.738505 
L 74.851626 158.701611 
L 74.851626 108.258835 
L 74.851626 108.258835 
L 74.828979 97.787108 
z
" clip-path="url(#p2221e88954)" style="fill: #1f77b4; fill-opacity: 0.2; stroke: #1f77b4; stroke-opacity: 0.2"/>
    <path d="M 74.919564 106.43838 
L 74.919564 140.933493 
L 74.922395 218.365367 
L 74.94221 207.637743 
L 74.953533 218.38412 
L 74.964856 151.735983 
L 74.97901 218.431897 
L 75.021471 120.598212 
L 75.021471 91.163658 
L 75.021471 91.163658 
L 74.97901 213.356678 
L 74.964856 97.61692 
L 74.953533 127.216459 
L 74.94221 67.372579 
L 74.922395 214.673089 
L 74.919564 106.43838 
z
" clip-path="url(#p2221e88954)" style="fill: #1f77b4; fill-opacity: 0.2; stroke: #1f77b4; stroke-opacity: 0.2"/>
    <path d="M 75.055441 100.448052 
L 75.055441 115.491963 
L 75.078087 182.312655 
L 75.093656 218.506707 
L 75.100733 125.921929 
L 75.100733 91.511448 
L 75.100733 91.511448 
L 75.093656 210.831783 
L 75.078087 96.742555 
L 75.055441 100.448052 
z
" clip-path="url(#p2221e88954)" style="fill: #1f77b4; fill-opacity: 0.2; stroke: #1f77b4; stroke-opacity: 0.2"/>
    <path d="M 75.191317 111.625489 
L 75.191317 123.589208 
L 75.191317 111.625489 
L 75.191317 111.625489 
z
" clip-path="url(#p2221e88954)" style="fill: #1f77b4; fill-opacity: 0.2; stroke: #1f77b4; stroke-opacity: 0.2"/>
    <path d="M 75.233779 211.604125 
L 75.233779 218.655439 
L 75.233779 211.604125 
L 75.233779 211.604125 
z
" clip-path="url(#p2221e88954)" style="fill: #1f77b4; fill-opacity: 0.2; stroke: #1f77b4; stroke-opacity: 0.2"/>
    <path d="M 75.259256 98.803418 
L 75.259256 119.27861 
L 75.281902 271.989326 
L 75.327194 126.619448 
L 75.361163 128.514418 
L 75.361163 122.775154 
L 75.361163 122.775154 
L 75.327194 108.772365 
L 75.281902 148.775523 
L 75.259256 98.803418 
z
" clip-path="url(#p2221e88954)" style="fill: #1f77b4; fill-opacity: 0.2; stroke: #1f77b4; stroke-opacity: 0.2"/>
    <path d="M 75.417778 109.806468 
L 75.417778 126.694403 
L 75.463071 129.345173 
L 75.49704 128.384019 
L 75.531009 126.121137 
L 75.576301 117.307481 
L 75.64424 132.756088 
L 75.666886 128.608986 
L 75.700855 134.818302 
L 75.734824 129.461142 
L 75.814086 131.381131 
L 75.825409 128.08005 
L 75.870701 128.55276 
L 75.972608 131.480778 
L 76.006578 253.07531 
L 76.006578 141.77372 
L 76.006578 141.77372 
L 75.972608 112.146808 
L 75.870701 118.988474 
L 75.825409 115.994914 
L 75.814086 130.42073 
L 75.734824 112.467645 
L 75.700855 124.530147 
L 75.666886 122.123439 
L 75.64424 122.719842 
L 75.576301 104.565914 
L 75.531009 117.383013 
L 75.49704 100.302364 
L 75.463071 116.24362 
L 75.417778 109.806468 
z
" clip-path="url(#p2221e88954)" style="fill: #1f77b4; fill-opacity: 0.2; stroke: #1f77b4; stroke-opacity: 0.2"/>
    <path d="M 76.074516 117.955278 
L 76.074516 129.394687 
L 76.097162 131.747363 
L 76.210393 127.974327 
L 76.278331 133.345417 
L 76.323623 134.008566 
L 76.368915 132.155838 
L 76.380238 130.490809 
L 76.448177 133.831807 
L 76.550084 131.632008 
L 76.550084 124.35272 
L 76.550084 124.35272 
L 76.448177 118.435833 
L 76.380238 130.101977 
L 76.368915 131.090172 
L 76.323623 123.23951 
L 76.278331 125.058495 
L 76.210393 118.544898 
L 76.097162 125.708873 
L 76.074516 117.955278 
z
" clip-path="url(#p2221e88954)" style="fill: #1f77b4; fill-opacity: 0.2; stroke: #1f77b4; stroke-opacity: 0.2"/>
    <path d="M 76.663315 131.363685 
L 76.663315 139.226371 
L 76.685961 128.856162 
L 76.731253 295.488 
L 76.821838 130.296304 
L 76.889776 131.740541 
L 76.946391 141.088625 
L 77.003007 131.857782 
L 77.093591 126.957464 
L 77.093591 123.034179 
L 77.093591 123.034179 
L 77.003007 128.962684 
L 76.946391 131.137186 
L 76.889776 124.801294 
L 76.821838 124.472442 
L 76.731253 224.26933 
L 76.685961 120.770895 
L 76.663315 131.363685 
z
" clip-path="url(#p2221e88954)" style="fill: #1f77b4; fill-opacity: 0.2; stroke: #1f77b4; stroke-opacity: 0.2"/>
    <path d="M 77.195499 132.006219 
L 77.195499 132.180084 
L 77.229468 132.322074 
L 77.320052 131.636015 
L 77.399314 133.144328 
L 77.455929 267.646356 
L 77.501221 135.810859 
L 77.56916 135.570315 
L 77.637098 124.647092 
L 77.795621 130.30482 
L 77.818267 129.479845 
L 77.908851 134.361633 
L 77.908851 126.96461 
L 77.908851 126.96461 
L 77.818267 128.599873 
L 77.795621 124.421777 
L 77.637098 123.898997 
L 77.56916 126.170387 
L 77.501221 123.773625 
L 77.455929 157.599099 
L 77.399314 129.697473 
L 77.320052 129.532774 
L 77.229468 126.312121 
L 77.195499 132.006219 
z
" clip-path="url(#p2221e88954)" style="fill: #1f77b4; fill-opacity: 0.2; stroke: #1f77b4; stroke-opacity: 0.2"/>
    <path d="M 78.112666 125.215704 
L 78.112666 128.163139 
L 78.180605 295.205822 
L 78.191928 139.914441 
L 78.316481 135.759261 
L 78.361774 132.892105 
L 78.361774 125.234036 
L 78.361774 125.234036 
L 78.316481 126.633092 
L 78.191928 129.807765 
L 78.180605 238.442127 
L 78.112666 125.215704 
z
" clip-path="url(#p2221e88954)" style="fill: #1f77b4; fill-opacity: 0.2; stroke: #1f77b4; stroke-opacity: 0.2"/>
    <path d="M 78.588235 125.755337 
L 78.588235 126.181722 
L 78.724111 129.992276 
L 78.814696 134.064959 
L 78.90528 294.091113 
L 78.927927 133.567165 
L 79.063803 126.484213 
L 79.267618 127.406469 
L 79.267618 126.712781 
L 79.267618 126.712781 
L 79.063803 125.703592 
L 78.927927 125.945466 
L 78.90528 293.949294 
L 78.814696 131.213031 
L 78.724111 126.01791 
L 78.588235 125.755337 
z
" clip-path="url(#p2221e88954)" style="fill: #1f77b4; fill-opacity: 0.2; stroke: #1f77b4; stroke-opacity: 0.2"/>
    <path d="M 79.437464 133.827668 
L 79.437464 133.967233 
L 79.437464 133.827668 
L 79.437464 133.827668 
z
" clip-path="url(#p2221e88954)" style="fill: #1f77b4; fill-opacity: 0.2; stroke: #1f77b4; stroke-opacity: 0.2"/>
    <path d="M 79.629956 294.463935 
L 79.629956 295.204628 
L 79.811125 126.977423 
L 79.947002 131.437607 
L 80.060232 134.810245 
L 80.354632 294.871195 
L 80.558447 127.451709 
L 80.558447 127.030943 
L 80.558447 127.030943 
L 80.354632 294.836955 
L 80.060232 134.257009 
L 79.947002 127.574421 
L 79.811125 125.495722 
L 79.629956 294.463935 
z
" clip-path="url(#p2221e88954)" style="fill: #1f77b4; fill-opacity: 0.2; stroke: #1f77b4; stroke-opacity: 0.2"/>
    <path d="M 81.079308 294.605233 
L 81.079308 294.667112 
L 81.305769 128.133274 
L 81.305769 128.007902 
L 81.305769 128.007902 
L 81.079308 294.605233 
z
" clip-path="url(#p2221e88954)" style="fill: #1f77b4; fill-opacity: 0.2; stroke: #1f77b4; stroke-opacity: 0.2"/>
    <path d="M 82.528659 294.363345 
L 82.528659 294.796847 
L 83.97801 294.146927 
L 84.702686 293.947316 
L 85.427362 294.930827 
L 86.876713 294.641507 
L 88.326065 294.136552 
L 89.05074 292.854863 
L 91.224768 294.181494 
L 91.949443 292.549017 
L 91.949443 292.142207 
L 91.949443 292.142207 
L 91.224768 293.164548 
L 89.05074 292.676644 
L 88.326065 293.171238 
L 86.876713 293.597482 
L 85.427362 294.047171 
L 84.702686 293.835599 
L 83.97801 294.02539 
L 82.528659 294.363345 
z
" clip-path="url(#p2221e88954)" style="fill: #1f77b4; fill-opacity: 0.2; stroke: #1f77b4; stroke-opacity: 0.2"/>
    <path d="M 94.12347 291.895955 
L 94.12347 293.44958 
L 95.572822 293.652461 
L 97.022173 294.649883 
L 99.196201 290.664372 
L 99.920876 293.450084 
L 102.819579 293.224851 
L 104.268931 292.977057 
L 105.718282 293.114405 
L 106.442958 292.829242 
L 108.616985 293.919879 
L 108.616985 292.172146 
L 108.616985 292.172146 
L 106.442958 292.655288 
L 105.718282 292.804847 
L 104.268931 290.501906 
L 102.819579 291.399956 
L 99.920876 292.516959 
L 99.196201 290.615768 
L 97.022173 293.045339 
L 95.572822 292.127064 
L 94.12347 291.895955 
z
" clip-path="url(#p2221e88954)" style="fill: #1f77b4; fill-opacity: 0.2; stroke: #1f77b4; stroke-opacity: 0.2"/>
    <path d="M 110.066336 292.042382 
L 110.066336 292.326007 
L 112.965039 291.962467 
L 114.414391 292.785408 
L 117.313094 291.619904 
L 119.487121 291.130475 
L 120.211796 294.294442 
L 121.661148 291.249933 
L 124.559851 290.865174 
L 126.009202 292.466167 
L 128.183229 290.156502 
L 131.806608 292.157511 
L 132.531284 290.012649 
L 134.705311 289.845865 
L 137.604014 289.487445 
L 139.053365 289.251862 
L 143.401419 293.571039 
L 143.401419 291.188415 
L 143.401419 291.188415 
L 139.053365 288.962062 
L 137.604014 289.311406 
L 134.705311 289.454668 
L 132.531284 289.778522 
L 131.806608 290.186481 
L 128.183229 289.991034 
L 126.009202 290.574563 
L 124.559851 290.727945 
L 121.661148 291.015193 
L 120.211796 292.037147 
L 119.487121 291.061106 
L 117.313094 291.391254 
L 114.414391 289.910972 
L 112.965039 291.741759 
L 110.066336 292.042382 
z
" clip-path="url(#p2221e88954)" style="fill: #1f77b4; fill-opacity: 0.2; stroke: #1f77b4; stroke-opacity: 0.2"/>
    <path d="M 145.575447 288.510989 
L 145.575447 288.916971 
L 146.300122 288.721288 
L 149.923501 288.960289 
L 152.097528 289.270142 
L 153.54688 288.821315 
L 154.996231 293.245499 
L 160.793637 290.20268 
L 160.793637 287.984781 
L 160.793637 287.984781 
L 154.996231 288.886536 
L 153.54688 288.164913 
L 152.097528 288.430482 
L 149.923501 288.576055 
L 146.300122 288.365421 
L 145.575447 288.510989 
z
" clip-path="url(#p2221e88954)" style="fill: #1f77b4; fill-opacity: 0.2; stroke: #1f77b4; stroke-opacity: 0.2"/>
    <path d="M 165.141691 286.708508 
L 165.141691 287.580586 
L 166.591042 294.021545 
L 169.489745 287.149712 
L 171.663772 286.661213 
L 175.287151 286.580692 
L 178.185854 292.323428 
L 178.185854 288.210052 
L 178.185854 288.210052 
L 175.287151 286.087097 
L 171.663772 286.161379 
L 169.489745 286.785205 
L 166.591042 290.820232 
L 165.141691 286.708508 
z
" clip-path="url(#p2221e88954)" style="fill: #1f77b4; fill-opacity: 0.2; stroke: #1f77b4; stroke-opacity: 0.2"/>
    <path d="M 182.533908 285.212416 
L 182.533908 285.963791 
L 185.432611 285.314169 
L 189.780665 291.069002 
L 191.230017 285.50545 
L 193.404044 285.25506 
L 195.578071 291.810907 
L 200.650801 283.668034 
L 201.375477 283.745239 
L 204.27418 284.631672 
L 210.796261 283.109772 
L 212.970289 293.542586 
L 212.970289 290.152493 
L 212.970289 290.152493 
L 210.796261 282.986528 
L 204.27418 283.166744 
L 201.375477 283.051942 
L 200.650801 283.476279 
L 195.578071 286.139822 
L 193.404044 284.426508 
L 191.230017 284.617435 
L 189.780665 286.131867 
L 185.432611 284.9162 
L 182.533908 285.212416 
z
" clip-path="url(#p2221e88954)" style="fill: #1f77b4; fill-opacity: 0.2; stroke: #1f77b4; stroke-opacity: 0.2"/>
    <path d="M 217.318343 282.200785 
L 217.318343 284.901001 
L 218.767694 287.450078 
L 226.014451 282.701047 
L 230.362506 289.528976 
L 233.261209 282.90247 
L 236.159912 292.725188 
L 236.159912 286.513284 
L 236.159912 286.513284 
L 233.261209 281.934232 
L 230.362506 282.324798 
L 226.014451 282.126278 
L 218.767694 281.905685 
L 217.318343 282.200785 
z
" clip-path="url(#p2221e88954)" style="fill: #1f77b4; fill-opacity: 0.2; stroke: #1f77b4; stroke-opacity: 0.2"/>
    <path d="M 241.232642 282.015838 
L 241.232642 282.791876 
L 247.754723 291.347125 
L 247.754723 284.792191 
L 247.754723 284.792191 
L 241.232642 282.015838 
z
" clip-path="url(#p2221e88954)" style="fill: #1f77b4; fill-opacity: 0.2; stroke: #1f77b4; stroke-opacity: 0.2"/>
    <path d="M 256.450832 281.442851 
L 256.450832 281.447877 
L 259.349535 294.193038 
L 265.14694 281.517194 
L 269.494995 284.119227 
L 269.494995 279.614483 
L 269.494995 279.614483 
L 265.14694 280.586858 
L 259.349535 289.905804 
L 256.450832 281.442851 
z
" clip-path="url(#p2221e88954)" style="fill: #1f77b4; fill-opacity: 0.2; stroke: #1f77b4; stroke-opacity: 0.2"/>
    <path d="M 276.741752 279.852229 
L 276.741752 288.701762 
L 282.539158 293.374159 
L 289.061239 279.112224 
L 291.235266 280.418463 
L 297.032672 278.823897 
L 297.032672 278.450618 
L 297.032672 278.450618 
L 291.235266 278.491956 
L 289.061239 278.352479 
L 282.539158 287.119127 
L 276.741752 279.852229 
z
" clip-path="url(#p2221e88954)" style="fill: #1f77b4; fill-opacity: 0.2; stroke: #1f77b4; stroke-opacity: 0.2"/>
    <path d="M 305.728781 285.641556 
L 305.728781 292.520866 
L 305.728781 285.641556 
L 305.728781 285.641556 
z
" clip-path="url(#p2221e88954)" style="fill: #1f77b4; fill-opacity: 0.2; stroke: #1f77b4; stroke-opacity: 0.2"/>
    <path d="M 312.975538 278.340119 
L 312.975538 283.119293 
L 317.323592 292.941526 
L 317.323592 290.681965 
L 317.323592 290.681965 
L 312.975538 278.340119 
z
" clip-path="url(#p2221e88954)" style="fill: #1f77b4; fill-opacity: 0.2; stroke: #1f77b4; stroke-opacity: 0.2"/>
    <path d="M 328.918404 277.529204 
L 328.918404 292.868997 
L 334.715809 292.810732 
L 334.715809 276.463539 
L 334.715809 276.463539 
L 328.918404 277.529204 
z
" clip-path="url(#p2221e88954)" style="fill: #1f77b4; fill-opacity: 0.2; stroke: #1f77b4; stroke-opacity: 0.2"/>
    <path d="M 352.108027 291.387268 
L 352.108027 292.692771 
L 352.108027 291.387268 
L 352.108027 291.387268 
z
" clip-path="url(#p2221e88954)" style="fill: #1f77b4; fill-opacity: 0.2; stroke: #1f77b4; stroke-opacity: 0.2"/>
    <path d="M 360.804135 275.873002 
L 360.804135 277.5113 
L 363.702838 292.531867 
L 386.892461 291.991733 
L 392.689867 274.460226 
L 398.487273 292.022847 
L 398.487273 289.319325 
L 398.487273 289.319325 
L 392.689867 274.058531 
L 386.892461 291.791036 
L 363.702838 275.039275 
L 360.804135 275.873002 
z
" clip-path="url(#p2221e88954)" style="fill: #1f77b4; fill-opacity: 0.2; stroke: #1f77b4; stroke-opacity: 0.2"/>
   </g>
   <g id="matplotlib.axis_1">
    <g id="xtick_1">
     <g id="line2d_1">
      <defs>
       <path id="m523721ef82" d="M 0 0 
L 0 3.5 
" style="stroke: #000000; stroke-width: 0.8"/>
      </defs>
      <g>
       <use xlink:href="#m523721ef82" x="73.83255" y="307.584" style="stroke: #000000; stroke-width: 0.8"/>
      </g>
     </g>
     <g id="text_1">
      <!-- 0 -->
      <g transform="translate(70.6513 322.182437)scale(0.1 -0.1)">
       <defs>
        <path id="DejaVuSans-30" d="M 2034 4250 
Q 1547 4250 1301 3770 
Q 1056 3291 1056 2328 
Q 1056 1369 1301 889 
Q 1547 409 2034 409 
Q 2525 409 2770 889 
Q 3016 1369 3016 2328 
Q 3016 3291 2770 3770 
Q 2525 4250 2034 4250 
z
M 2034 4750 
Q 2819 4750 3233 4129 
Q 3647 3509 3647 2328 
Q 3647 1150 3233 529 
Q 2819 -91 2034 -91 
Q 1250 -91 836 529 
Q 422 1150 422 2328 
Q 422 3509 836 4129 
Q 1250 4750 2034 4750 
z
" transform="scale(0.015625)"/>
       </defs>
       <use xlink:href="#DejaVuSans-30"/>
      </g>
     </g>
    </g>
    <g id="xtick_2">
     <g id="line2d_2">
      <g>
       <use xlink:href="#m523721ef82" x="142.943012" y="307.584" style="stroke: #000000; stroke-width: 0.8"/>
      </g>
     </g>
     <g id="text_2">
      <!-- 2 -->
      <g transform="translate(139.761762 322.182437)scale(0.1 -0.1)">
       <defs>
        <path id="DejaVuSans-32" d="M 1228 531 
L 3431 531 
L 3431 0 
L 469 0 
L 469 531 
Q 828 903 1448 1529 
Q 2069 2156 2228 2338 
Q 2531 2678 2651 2914 
Q 2772 3150 2772 3378 
Q 2772 3750 2511 3984 
Q 2250 4219 1831 4219 
Q 1534 4219 1204 4116 
Q 875 4013 500 3803 
L 500 4441 
Q 881 4594 1212 4672 
Q 1544 4750 1819 4750 
Q 2544 4750 2975 4387 
Q 3406 4025 3406 3419 
Q 3406 3131 3298 2873 
Q 3191 2616 2906 2266 
Q 2828 2175 2409 1742 
Q 1991 1309 1228 531 
z
" transform="scale(0.015625)"/>
       </defs>
       <use xlink:href="#DejaVuSans-32"/>
      </g>
     </g>
    </g>
    <g id="xtick_3">
     <g id="line2d_3">
      <g>
       <use xlink:href="#m523721ef82" x="212.053475" y="307.584" style="stroke: #000000; stroke-width: 0.8"/>
      </g>
     </g>
     <g id="text_3">
      <!-- 4 -->
      <g transform="translate(208.872225 322.182437)scale(0.1 -0.1)">
       <defs>
        <path id="DejaVuSans-34" d="M 2419 4116 
L 825 1625 
L 2419 1625 
L 2419 4116 
z
M 2253 4666 
L 3047 4666 
L 3047 1625 
L 3713 1625 
L 3713 1100 
L 3047 1100 
L 3047 0 
L 2419 0 
L 2419 1100 
L 313 1100 
L 313 1709 
L 2253 4666 
z
" transform="scale(0.015625)"/>
       </defs>
       <use xlink:href="#DejaVuSans-34"/>
      </g>
     </g>
    </g>
    <g id="xtick_4">
     <g id="line2d_4">
      <g>
       <use xlink:href="#m523721ef82" x="281.163937" y="307.584" style="stroke: #000000; stroke-width: 0.8"/>
      </g>
     </g>
     <g id="text_4">
      <!-- 6 -->
      <g transform="translate(277.982687 322.182437)scale(0.1 -0.1)">
       <defs>
        <path id="DejaVuSans-36" d="M 2113 2584 
Q 1688 2584 1439 2293 
Q 1191 2003 1191 1497 
Q 1191 994 1439 701 
Q 1688 409 2113 409 
Q 2538 409 2786 701 
Q 3034 994 3034 1497 
Q 3034 2003 2786 2293 
Q 2538 2584 2113 2584 
z
M 3366 4563 
L 3366 3988 
Q 3128 4100 2886 4159 
Q 2644 4219 2406 4219 
Q 1781 4219 1451 3797 
Q 1122 3375 1075 2522 
Q 1259 2794 1537 2939 
Q 1816 3084 2150 3084 
Q 2853 3084 3261 2657 
Q 3669 2231 3669 1497 
Q 3669 778 3244 343 
Q 2819 -91 2113 -91 
Q 1303 -91 875 529 
Q 447 1150 447 2328 
Q 447 3434 972 4092 
Q 1497 4750 2381 4750 
Q 2619 4750 2861 4703 
Q 3103 4656 3366 4563 
z
" transform="scale(0.015625)"/>
       </defs>
       <use xlink:href="#DejaVuSans-36"/>
      </g>
     </g>
    </g>
    <g id="xtick_5">
     <g id="line2d_5">
      <g>
       <use xlink:href="#m523721ef82" x="350.274399" y="307.584" style="stroke: #000000; stroke-width: 0.8"/>
      </g>
     </g>
     <g id="text_5">
      <!-- 8 -->
      <g transform="translate(347.093149 322.182437)scale(0.1 -0.1)">
       <defs>
        <path id="DejaVuSans-38" d="M 2034 2216 
Q 1584 2216 1326 1975 
Q 1069 1734 1069 1313 
Q 1069 891 1326 650 
Q 1584 409 2034 409 
Q 2484 409 2743 651 
Q 3003 894 3003 1313 
Q 3003 1734 2745 1975 
Q 2488 2216 2034 2216 
z
M 1403 2484 
Q 997 2584 770 2862 
Q 544 3141 544 3541 
Q 544 4100 942 4425 
Q 1341 4750 2034 4750 
Q 2731 4750 3128 4425 
Q 3525 4100 3525 3541 
Q 3525 3141 3298 2862 
Q 3072 2584 2669 2484 
Q 3125 2378 3379 2068 
Q 3634 1759 3634 1313 
Q 3634 634 3220 271 
Q 2806 -91 2034 -91 
Q 1263 -91 848 271 
Q 434 634 434 1313 
Q 434 1759 690 2068 
Q 947 2378 1403 2484 
z
M 1172 3481 
Q 1172 3119 1398 2916 
Q 1625 2713 2034 2713 
Q 2441 2713 2670 2916 
Q 2900 3119 2900 3481 
Q 2900 3844 2670 4047 
Q 2441 4250 2034 4250 
Q 1625 4250 1398 4047 
Q 1172 3844 1172 3481 
z
" transform="scale(0.015625)"/>
       </defs>
       <use xlink:href="#DejaVuSans-38"/>
      </g>
     </g>
    </g>
    <g id="text_6">
     <!-- Global Problem Size -->
     <g transform="translate(186.327969 335.860562)scale(0.1 -0.1)">
      <defs>
       <path id="DejaVuSans-47" d="M 3809 666 
L 3809 1919 
L 2778 1919 
L 2778 2438 
L 4434 2438 
L 4434 434 
Q 4069 175 3628 42 
Q 3188 -91 2688 -91 
Q 1594 -91 976 548 
Q 359 1188 359 2328 
Q 359 3472 976 4111 
Q 1594 4750 2688 4750 
Q 3144 4750 3555 4637 
Q 3966 4525 4313 4306 
L 4313 3634 
Q 3963 3931 3569 4081 
Q 3175 4231 2741 4231 
Q 1884 4231 1454 3753 
Q 1025 3275 1025 2328 
Q 1025 1384 1454 906 
Q 1884 428 2741 428 
Q 3075 428 3337 486 
Q 3600 544 3809 666 
z
" transform="scale(0.015625)"/>
       <path id="DejaVuSans-6c" d="M 603 4863 
L 1178 4863 
L 1178 0 
L 603 0 
L 603 4863 
z
" transform="scale(0.015625)"/>
       <path id="DejaVuSans-6f" d="M 1959 3097 
Q 1497 3097 1228 2736 
Q 959 2375 959 1747 
Q 959 1119 1226 758 
Q 1494 397 1959 397 
Q 2419 397 2687 759 
Q 2956 1122 2956 1747 
Q 2956 2369 2687 2733 
Q 2419 3097 1959 3097 
z
M 1959 3584 
Q 2709 3584 3137 3096 
Q 3566 2609 3566 1747 
Q 3566 888 3137 398 
Q 2709 -91 1959 -91 
Q 1206 -91 779 398 
Q 353 888 353 1747 
Q 353 2609 779 3096 
Q 1206 3584 1959 3584 
z
" transform="scale(0.015625)"/>
       <path id="DejaVuSans-62" d="M 3116 1747 
Q 3116 2381 2855 2742 
Q 2594 3103 2138 3103 
Q 1681 3103 1420 2742 
Q 1159 2381 1159 1747 
Q 1159 1113 1420 752 
Q 1681 391 2138 391 
Q 2594 391 2855 752 
Q 3116 1113 3116 1747 
z
M 1159 2969 
Q 1341 3281 1617 3432 
Q 1894 3584 2278 3584 
Q 2916 3584 3314 3078 
Q 3713 2572 3713 1747 
Q 3713 922 3314 415 
Q 2916 -91 2278 -91 
Q 1894 -91 1617 61 
Q 1341 213 1159 525 
L 1159 0 
L 581 0 
L 581 4863 
L 1159 4863 
L 1159 2969 
z
" transform="scale(0.015625)"/>
       <path id="DejaVuSans-61" d="M 2194 1759 
Q 1497 1759 1228 1600 
Q 959 1441 959 1056 
Q 959 750 1161 570 
Q 1363 391 1709 391 
Q 2188 391 2477 730 
Q 2766 1069 2766 1631 
L 2766 1759 
L 2194 1759 
z
M 3341 1997 
L 3341 0 
L 2766 0 
L 2766 531 
Q 2569 213 2275 61 
Q 1981 -91 1556 -91 
Q 1019 -91 701 211 
Q 384 513 384 1019 
Q 384 1609 779 1909 
Q 1175 2209 1959 2209 
L 2766 2209 
L 2766 2266 
Q 2766 2663 2505 2880 
Q 2244 3097 1772 3097 
Q 1472 3097 1187 3025 
Q 903 2953 641 2809 
L 641 3341 
Q 956 3463 1253 3523 
Q 1550 3584 1831 3584 
Q 2591 3584 2966 3190 
Q 3341 2797 3341 1997 
z
" transform="scale(0.015625)"/>
       <path id="DejaVuSans-20" transform="scale(0.015625)"/>
       <path id="DejaVuSans-50" d="M 1259 4147 
L 1259 2394 
L 2053 2394 
Q 2494 2394 2734 2622 
Q 2975 2850 2975 3272 
Q 2975 3691 2734 3919 
Q 2494 4147 2053 4147 
L 1259 4147 
z
M 628 4666 
L 2053 4666 
Q 2838 4666 3239 4311 
Q 3641 3956 3641 3272 
Q 3641 2581 3239 2228 
Q 2838 1875 2053 1875 
L 1259 1875 
L 1259 0 
L 628 0 
L 628 4666 
z
" transform="scale(0.015625)"/>
       <path id="DejaVuSans-72" d="M 2631 2963 
Q 2534 3019 2420 3045 
Q 2306 3072 2169 3072 
Q 1681 3072 1420 2755 
Q 1159 2438 1159 1844 
L 1159 0 
L 581 0 
L 581 3500 
L 1159 3500 
L 1159 2956 
Q 1341 3275 1631 3429 
Q 1922 3584 2338 3584 
Q 2397 3584 2469 3576 
Q 2541 3569 2628 3553 
L 2631 2963 
z
" transform="scale(0.015625)"/>
       <path id="DejaVuSans-65" d="M 3597 1894 
L 3597 1613 
L 953 1613 
Q 991 1019 1311 708 
Q 1631 397 2203 397 
Q 2534 397 2845 478 
Q 3156 559 3463 722 
L 3463 178 
Q 3153 47 2828 -22 
Q 2503 -91 2169 -91 
Q 1331 -91 842 396 
Q 353 884 353 1716 
Q 353 2575 817 3079 
Q 1281 3584 2069 3584 
Q 2775 3584 3186 3129 
Q 3597 2675 3597 1894 
z
M 3022 2063 
Q 3016 2534 2758 2815 
Q 2500 3097 2075 3097 
Q 1594 3097 1305 2825 
Q 1016 2553 972 2059 
L 3022 2063 
z
" transform="scale(0.015625)"/>
       <path id="DejaVuSans-6d" d="M 3328 2828 
Q 3544 3216 3844 3400 
Q 4144 3584 4550 3584 
Q 5097 3584 5394 3201 
Q 5691 2819 5691 2113 
L 5691 0 
L 5113 0 
L 5113 2094 
Q 5113 2597 4934 2840 
Q 4756 3084 4391 3084 
Q 3944 3084 3684 2787 
Q 3425 2491 3425 1978 
L 3425 0 
L 2847 0 
L 2847 2094 
Q 2847 2600 2669 2842 
Q 2491 3084 2119 3084 
Q 1678 3084 1418 2786 
Q 1159 2488 1159 1978 
L 1159 0 
L 581 0 
L 581 3500 
L 1159 3500 
L 1159 2956 
Q 1356 3278 1631 3431 
Q 1906 3584 2284 3584 
Q 2666 3584 2933 3390 
Q 3200 3197 3328 2828 
z
" transform="scale(0.015625)"/>
       <path id="DejaVuSans-53" d="M 3425 4513 
L 3425 3897 
Q 3066 4069 2747 4153 
Q 2428 4238 2131 4238 
Q 1616 4238 1336 4038 
Q 1056 3838 1056 3469 
Q 1056 3159 1242 3001 
Q 1428 2844 1947 2747 
L 2328 2669 
Q 3034 2534 3370 2195 
Q 3706 1856 3706 1288 
Q 3706 609 3251 259 
Q 2797 -91 1919 -91 
Q 1588 -91 1214 -16 
Q 841 59 441 206 
L 441 856 
Q 825 641 1194 531 
Q 1563 422 1919 422 
Q 2459 422 2753 634 
Q 3047 847 3047 1241 
Q 3047 1584 2836 1778 
Q 2625 1972 2144 2069 
L 1759 2144 
Q 1053 2284 737 2584 
Q 422 2884 422 3419 
Q 422 4038 858 4394 
Q 1294 4750 2059 4750 
Q 2388 4750 2728 4690 
Q 3069 4631 3425 4513 
z
" transform="scale(0.015625)"/>
       <path id="DejaVuSans-69" d="M 603 3500 
L 1178 3500 
L 1178 0 
L 603 0 
L 603 3500 
z
M 603 4863 
L 1178 4863 
L 1178 4134 
L 603 4134 
L 603 4863 
z
" transform="scale(0.015625)"/>
       <path id="DejaVuSans-7a" d="M 353 3500 
L 3084 3500 
L 3084 2975 
L 922 459 
L 3084 459 
L 3084 0 
L 275 0 
L 275 525 
L 2438 3041 
L 353 3041 
L 353 3500 
z
" transform="scale(0.015625)"/>
      </defs>
      <use xlink:href="#DejaVuSans-47"/>
      <use xlink:href="#DejaVuSans-6c" x="77.490234"/>
      <use xlink:href="#DejaVuSans-6f" x="105.273438"/>
      <use xlink:href="#DejaVuSans-62" x="166.455078"/>
      <use xlink:href="#DejaVuSans-61" x="229.931641"/>
      <use xlink:href="#DejaVuSans-6c" x="291.210938"/>
      <use xlink:href="#DejaVuSans-20" x="318.994141"/>
      <use xlink:href="#DejaVuSans-50" x="350.78125"/>
      <use xlink:href="#DejaVuSans-72" x="409.333984"/>
      <use xlink:href="#DejaVuSans-6f" x="448.197266"/>
      <use xlink:href="#DejaVuSans-62" x="509.378906"/>
      <use xlink:href="#DejaVuSans-6c" x="572.855469"/>
      <use xlink:href="#DejaVuSans-65" x="600.638672"/>
      <use xlink:href="#DejaVuSans-6d" x="662.162109"/>
      <use xlink:href="#DejaVuSans-20" x="759.574219"/>
      <use xlink:href="#DejaVuSans-53" x="791.361328"/>
      <use xlink:href="#DejaVuSans-69" x="854.837891"/>
      <use xlink:href="#DejaVuSans-7a" x="882.621094"/>
      <use xlink:href="#DejaVuSans-65" x="935.111328"/>
     </g>
    </g>
    <g id="text_7">
     <!-- 1e8 -->
     <g transform="translate(395.841875 334.860562)scale(0.1 -0.1)">
      <defs>
       <path id="DejaVuSans-31" d="M 794 531 
L 1825 531 
L 1825 4091 
L 703 3866 
L 703 4441 
L 1819 4666 
L 2450 4666 
L 2450 531 
L 3481 531 
L 3481 0 
L 794 0 
L 794 531 
z
" transform="scale(0.015625)"/>
      </defs>
      <use xlink:href="#DejaVuSans-31"/>
      <use xlink:href="#DejaVuSans-65" x="63.623047"/>
      <use xlink:href="#DejaVuSans-38" x="125.146484"/>
     </g>
    </g>
   </g>
   <g id="matplotlib.axis_2">
    <g id="ytick_1">
     <g id="line2d_6">
      <defs>
       <path id="m5925527861" d="M 0 0 
L -3.5 0 
" style="stroke: #000000; stroke-width: 0.8"/>
      </defs>
      <g>
       <use xlink:href="#m5925527861" x="57.6" y="296.258031" style="stroke: #000000; stroke-width: 0.8"/>
      </g>
     </g>
     <g id="text_8">
      <!-- 0 -->
      <g transform="translate(44.2375 300.057249)scale(0.1 -0.1)">
       <use xlink:href="#DejaVuSans-30"/>
      </g>
     </g>
    </g>
    <g id="ytick_2">
     <g id="line2d_7">
      <g>
       <use xlink:href="#m5925527861" x="57.6" y="266.689056" style="stroke: #000000; stroke-width: 0.8"/>
      </g>
     </g>
     <g id="text_9">
      <!-- 1 -->
      <g transform="translate(44.2375 270.488274)scale(0.1 -0.1)">
       <use xlink:href="#DejaVuSans-31"/>
      </g>
     </g>
    </g>
    <g id="ytick_3">
     <g id="line2d_8">
      <g>
       <use xlink:href="#m5925527861" x="57.6" y="237.120081" style="stroke: #000000; stroke-width: 0.8"/>
      </g>
     </g>
     <g id="text_10">
      <!-- 2 -->
      <g transform="translate(44.2375 240.919299)scale(0.1 -0.1)">
       <use xlink:href="#DejaVuSans-32"/>
      </g>
     </g>
    </g>
    <g id="ytick_4">
     <g id="line2d_9">
      <g>
       <use xlink:href="#m5925527861" x="57.6" y="207.551106" style="stroke: #000000; stroke-width: 0.8"/>
      </g>
     </g>
     <g id="text_11">
      <!-- 3 -->
      <g transform="translate(44.2375 211.350324)scale(0.1 -0.1)">
       <defs>
        <path id="DejaVuSans-33" d="M 2597 2516 
Q 3050 2419 3304 2112 
Q 3559 1806 3559 1356 
Q 3559 666 3084 287 
Q 2609 -91 1734 -91 
Q 1441 -91 1130 -33 
Q 819 25 488 141 
L 488 750 
Q 750 597 1062 519 
Q 1375 441 1716 441 
Q 2309 441 2620 675 
Q 2931 909 2931 1356 
Q 2931 1769 2642 2001 
Q 2353 2234 1838 2234 
L 1294 2234 
L 1294 2753 
L 1863 2753 
Q 2328 2753 2575 2939 
Q 2822 3125 2822 3475 
Q 2822 3834 2567 4026 
Q 2313 4219 1838 4219 
Q 1578 4219 1281 4162 
Q 984 4106 628 3988 
L 628 4550 
Q 988 4650 1302 4700 
Q 1616 4750 1894 4750 
Q 2613 4750 3031 4423 
Q 3450 4097 3450 3541 
Q 3450 3153 3228 2886 
Q 3006 2619 2597 2516 
z
" transform="scale(0.015625)"/>
       </defs>
       <use xlink:href="#DejaVuSans-33"/>
      </g>
     </g>
    </g>
    <g id="ytick_5">
     <g id="line2d_10">
      <g>
       <use xlink:href="#m5925527861" x="57.6" y="177.982131" style="stroke: #000000; stroke-width: 0.8"/>
      </g>
     </g>
     <g id="text_12">
      <!-- 4 -->
      <g transform="translate(44.2375 181.78135)scale(0.1 -0.1)">
       <use xlink:href="#DejaVuSans-34"/>
      </g>
     </g>
    </g>
    <g id="ytick_6">
     <g id="line2d_11">
      <g>
       <use xlink:href="#m5925527861" x="57.6" y="148.413156" style="stroke: #000000; stroke-width: 0.8"/>
      </g>
     </g>
     <g id="text_13">
      <!-- 5 -->
      <g transform="translate(44.2375 152.212375)scale(0.1 -0.1)">
       <defs>
        <path id="DejaVuSans-35" d="M 691 4666 
L 3169 4666 
L 3169 4134 
L 1269 4134 
L 1269 2991 
Q 1406 3038 1543 3061 
Q 1681 3084 1819 3084 
Q 2600 3084 3056 2656 
Q 3513 2228 3513 1497 
Q 3513 744 3044 326 
Q 2575 -91 1722 -91 
Q 1428 -91 1123 -41 
Q 819 9 494 109 
L 494 744 
Q 775 591 1075 516 
Q 1375 441 1709 441 
Q 2250 441 2565 725 
Q 2881 1009 2881 1497 
Q 2881 1984 2565 2268 
Q 2250 2553 1709 2553 
Q 1456 2553 1204 2497 
Q 953 2441 691 2322 
L 691 4666 
z
" transform="scale(0.015625)"/>
       </defs>
       <use xlink:href="#DejaVuSans-35"/>
      </g>
     </g>
    </g>
    <g id="ytick_7">
     <g id="line2d_12">
      <g>
       <use xlink:href="#m5925527861" x="57.6" y="118.844181" style="stroke: #000000; stroke-width: 0.8"/>
      </g>
     </g>
     <g id="text_14">
      <!-- 6 -->
      <g transform="translate(44.2375 122.6434)scale(0.1 -0.1)">
       <use xlink:href="#DejaVuSans-36"/>
      </g>
     </g>
    </g>
    <g id="ytick_8">
     <g id="line2d_13">
      <g>
       <use xlink:href="#m5925527861" x="57.6" y="89.275206" style="stroke: #000000; stroke-width: 0.8"/>
      </g>
     </g>
     <g id="text_15">
      <!-- 7 -->
      <g transform="translate(44.2375 93.074425)scale(0.1 -0.1)">
       <defs>
        <path id="DejaVuSans-37" d="M 525 4666 
L 3525 4666 
L 3525 4397 
L 1831 0 
L 1172 0 
L 2766 4134 
L 525 4134 
L 525 4666 
z
" transform="scale(0.015625)"/>
       </defs>
       <use xlink:href="#DejaVuSans-37"/>
      </g>
     </g>
    </g>
    <g id="ytick_9">
     <g id="line2d_14">
      <g>
       <use xlink:href="#m5925527861" x="57.6" y="59.706231" style="stroke: #000000; stroke-width: 0.8"/>
      </g>
     </g>
     <g id="text_16">
      <!-- 8 -->
      <g transform="translate(44.2375 63.50545)scale(0.1 -0.1)">
       <use xlink:href="#DejaVuSans-38"/>
      </g>
     </g>
    </g>
    <g id="text_17">
     <!-- GFLOPS -->
     <g transform="translate(38.157812 194.007688)rotate(-90)scale(0.1 -0.1)">
      <defs>
       <path id="DejaVuSans-46" d="M 628 4666 
L 3309 4666 
L 3309 4134 
L 1259 4134 
L 1259 2759 
L 3109 2759 
L 3109 2228 
L 1259 2228 
L 1259 0 
L 628 0 
L 628 4666 
z
" transform="scale(0.015625)"/>
       <path id="DejaVuSans-4c" d="M 628 4666 
L 1259 4666 
L 1259 531 
L 3531 531 
L 3531 0 
L 628 0 
L 628 4666 
z
" transform="scale(0.015625)"/>
       <path id="DejaVuSans-4f" d="M 2522 4238 
Q 1834 4238 1429 3725 
Q 1025 3213 1025 2328 
Q 1025 1447 1429 934 
Q 1834 422 2522 422 
Q 3209 422 3611 934 
Q 4013 1447 4013 2328 
Q 4013 3213 3611 3725 
Q 3209 4238 2522 4238 
z
M 2522 4750 
Q 3503 4750 4090 4092 
Q 4678 3434 4678 2328 
Q 4678 1225 4090 567 
Q 3503 -91 2522 -91 
Q 1538 -91 948 565 
Q 359 1222 359 2328 
Q 359 3434 948 4092 
Q 1538 4750 2522 4750 
z
" transform="scale(0.015625)"/>
      </defs>
      <use xlink:href="#DejaVuSans-47"/>
      <use xlink:href="#DejaVuSans-46" x="77.490234"/>
      <use xlink:href="#DejaVuSans-4c" x="135.009766"/>
      <use xlink:href="#DejaVuSans-4f" x="187.097656"/>
      <use xlink:href="#DejaVuSans-50" x="265.808594"/>
      <use xlink:href="#DejaVuSans-53" x="326.111328"/>
     </g>
    </g>
   </g>
   <g id="line2d_15">
    <path d="M 73.832727 231.34866 
L 73.923135 138.747339 
L 73.896773 265.701703 
L 73.938704 214.696153 
L 73.961527 266.576191 
L 74.013719 102.126991 
L 74.044858 213.751931 
L 74.050519 212.292713 
L 74.104304 91.164094 
L 74.109965 216.800281 
L 74.159504 212.755171 
L 74.194888 97.875208 
L 74.179319 217.848994 
L 74.268488 216.383802 
L 74.278396 216.788749 
L 74.376057 93.072217 
L 74.377473 217.220382 
L 74.38738 165.690249 
L 74.455319 218.422681 
L 74.466642 114.255829 
L 74.486457 217.369188 
L 74.511934 106.085006 
L 74.517595 217.801487 
L 74.596857 213.552918 
L 74.611011 217.065663 
L 74.647811 127.047682 
L 74.673287 217.419751 
L 74.704426 216.596551 
L 74.724241 217.218091 
L 74.783687 101.007377 
L 74.823318 218.166368 
L 74.828979 144.460493 
L 74.851626 130.834197 
L 74.864364 218.141234 
L 74.919564 122.992547 
L 74.953533 174.931381 
L 75.021471 107.980894 
L 74.97901 215.894288 
L 75.055441 108.034436 
L 75.093656 214.669245 
L 75.106394 213.587612 
L 75.191317 118.059264 
L 75.20264 213.683415 
L 75.233779 215.129782 
L 75.259256 110.254024 
L 75.327194 118.215138 
L 75.361163 124.999776 
L 75.373902 213.825938 
L 75.417778 118.623596 
L 75.463071 123.055744 
L 75.576301 109.300498 
L 75.700855 129.218012 
L 75.734824 121.030553 
L 75.814086 130.90093 
L 75.825409 122.037482 
L 75.972608 124.719339 
L 76.006578 189.666018 
L 76.074516 123.585921 
L 76.097162 129.323299 
L 76.210393 123.639001 
L 76.368915 131.623005 
L 76.380238 130.296393 
L 76.57273 121.23572 
L 76.731253 271.667777 
L 76.821838 127.165777 
L 76.889776 128.284175 
L 76.946391 136.112906 
L 77.003007 130.410233 
L 77.161529 122.67218 
L 77.195499 132.093151 
L 77.229468 130.008953 
L 77.399314 131.420901 
L 77.455929 212.728683 
L 77.501221 128.666107 
L 77.56916 130.7109 
L 77.637098 124.273045 
L 77.908851 130.597701 
L 77.94282 126.156588 
L 78.112666 126.689421 
L 78.180605 276.23491 
L 78.191928 134.861103 
L 78.361774 129.464667 
L 78.418389 133.944761 
L 78.588235 125.96853 
L 78.724111 128.005093 
L 78.814696 132.638995 
L 78.90528 294.020203 
L 78.927927 129.756315 
L 79.063803 126.093902 
L 79.267618 127.059625 
L 79.31291 128.513236 
L 79.437464 133.89745 
L 79.494079 134.468427 
L 79.629956 294.855173 
L 79.811125 126.236572 
L 80.060232 134.533627 
L 80.354632 294.849233 
L 80.558447 127.241326 
L 80.626385 127.475956 
L 80.683001 134.073681 
L 81.079308 294.634244 
L 81.305769 128.070588 
L 82.053091 128.004945 
L 82.528659 294.567076 
L 84.702686 293.88988 
L 85.427362 294.464066 
L 88.326065 293.634205 
L 89.05074 292.753449 
L 91.224768 293.680884 
L 91.949443 292.379833 
L 93.398795 294.154089 
L 94.12347 292.656539 
L 95.572822 292.891172 
L 97.022173 293.891585 
L 99.196201 290.636961 
L 99.920876 293.125255 
L 102.819579 292.369182 
L 104.268931 291.757835 
L 105.718282 292.959626 
L 106.442958 292.766043 
L 108.616985 293.080015 
L 109.341661 289.216564 
L 110.066336 292.158785 
L 112.965039 291.855457 
L 114.414391 291.462722 
L 117.313094 291.497738 
L 119.487121 291.09579 
L 120.211796 293.245384 
L 121.661148 291.147787 
L 124.559851 290.788509 
L 126.009202 291.490215 
L 128.183229 290.086394 
L 131.806608 291.156661 
L 132.531284 289.895586 
L 139.053365 289.107815 
L 143.401419 292.373821 
L 144.850771 289.037109 
L 145.575447 288.71398 
L 146.300122 288.548448 
L 152.097528 288.828674 
L 153.54688 288.478956 
L 154.996231 291.071692 
L 160.793637 289.069713 
L 164.417015 287.332044 
L 165.141691 287.121143 
L 166.591042 292.464054 
L 169.489745 286.962309 
L 171.663772 286.43709 
L 175.287151 286.336437 
L 178.185854 290.079666 
L 180.359881 285.187643 
L 182.533908 285.568284 
L 185.432611 285.115184 
L 189.780665 288.573498 
L 191.230017 285.124671 
L 193.404044 284.869333 
L 195.578071 288.850422 
L 200.650801 283.572157 
L 201.375477 283.417622 
L 204.27418 283.759779 
L 210.796261 283.04815 
L 212.970289 292.016377 
L 215.868991 282.365964 
L 217.318343 283.286853 
L 218.767694 284.027361 
L 226.014451 282.460001 
L 230.362506 284.909026 
L 233.261209 282.489953 
L 236.159912 289.917391 
L 236.884587 282.156586 
L 241.232642 282.403857 
L 247.754723 288.016262 
L 249.204074 280.701941 
L 251.378102 281.719557 
L 255.00148 281.430195 
L 256.450832 281.445364 
L 259.349535 292.46532 
L 265.14694 281.016562 
L 269.494995 281.505162 
L 273.118373 279.949085 
L 276.741752 284.276995 
L 282.539158 290.671081 
L 289.061239 278.732351 
L 291.235266 279.455209 
L 297.032672 278.637257 
L 302.105402 278.957578 
L 305.728781 289.629928 
L 308.627483 278.76124 
L 312.975538 280.014117 
L 317.323592 291.838568 
L 327.469052 276.848364 
L 328.918404 285.199101 
L 334.715809 284.637135 
L 336.889837 282.879903 
L 352.108027 292.133189 
L 352.832702 275.677935 
L 357.905432 289.334189 
L 360.804135 276.692151 
L 363.702838 283.785571 
L 386.892461 291.884543 
L 392.689867 274.259379 
L 398.487273 290.71371 
L 398.487273 290.71371 
" clip-path="url(#p2221e88954)" style="fill: none; stroke: #1f77b4; stroke-width: 1.5; stroke-linecap: square"/>
   </g>
   <g id="line2d_16"/>
   <g id="patch_3">
    <path d="M 57.6 307.584 
L 57.6 41.472 
" style="fill: none; stroke: #000000; stroke-width: 0.8; stroke-linejoin: miter; stroke-linecap: square"/>
   </g>
   <g id="patch_4">
    <path d="M 414.72 307.584 
L 414.72 41.472 
" style="fill: none; stroke: #000000; stroke-width: 0.8; stroke-linejoin: miter; stroke-linecap: square"/>
   </g>
   <g id="patch_5">
    <path d="M 57.6 307.584 
L 414.72 307.584 
" style="fill: none; stroke: #000000; stroke-width: 0.8; stroke-linejoin: miter; stroke-linecap: square"/>
   </g>
   <g id="patch_6">
    <path d="M 57.6 41.472 
L 414.72 41.472 
" style="fill: none; stroke: #000000; stroke-width: 0.8; stroke-linejoin: miter; stroke-linecap: square"/>
   </g>
   <g id="text_18">
    <!-- Gustafson-like Scaling -->
    <g transform="translate(169.757812 35.472)scale(0.12 -0.12)">
     <defs>
      <path id="DejaVuSans-75" d="M 544 1381 
L 544 3500 
L 1119 3500 
L 1119 1403 
Q 1119 906 1312 657 
Q 1506 409 1894 409 
Q 2359 409 2629 706 
Q 2900 1003 2900 1516 
L 2900 3500 
L 3475 3500 
L 3475 0 
L 2900 0 
L 2900 538 
Q 2691 219 2414 64 
Q 2138 -91 1772 -91 
Q 1169 -91 856 284 
Q 544 659 544 1381 
z
M 1991 3584 
L 1991 3584 
z
" transform="scale(0.015625)"/>
      <path id="DejaVuSans-73" d="M 2834 3397 
L 2834 2853 
Q 2591 2978 2328 3040 
Q 2066 3103 1784 3103 
Q 1356 3103 1142 2972 
Q 928 2841 928 2578 
Q 928 2378 1081 2264 
Q 1234 2150 1697 2047 
L 1894 2003 
Q 2506 1872 2764 1633 
Q 3022 1394 3022 966 
Q 3022 478 2636 193 
Q 2250 -91 1575 -91 
Q 1294 -91 989 -36 
Q 684 19 347 128 
L 347 722 
Q 666 556 975 473 
Q 1284 391 1588 391 
Q 1994 391 2212 530 
Q 2431 669 2431 922 
Q 2431 1156 2273 1281 
Q 2116 1406 1581 1522 
L 1381 1569 
Q 847 1681 609 1914 
Q 372 2147 372 2553 
Q 372 3047 722 3315 
Q 1072 3584 1716 3584 
Q 2034 3584 2315 3537 
Q 2597 3491 2834 3397 
z
" transform="scale(0.015625)"/>
      <path id="DejaVuSans-74" d="M 1172 4494 
L 1172 3500 
L 2356 3500 
L 2356 3053 
L 1172 3053 
L 1172 1153 
Q 1172 725 1289 603 
Q 1406 481 1766 481 
L 2356 481 
L 2356 0 
L 1766 0 
Q 1100 0 847 248 
Q 594 497 594 1153 
L 594 3053 
L 172 3053 
L 172 3500 
L 594 3500 
L 594 4494 
L 1172 4494 
z
" transform="scale(0.015625)"/>
      <path id="DejaVuSans-66" d="M 2375 4863 
L 2375 4384 
L 1825 4384 
Q 1516 4384 1395 4259 
Q 1275 4134 1275 3809 
L 1275 3500 
L 2222 3500 
L 2222 3053 
L 1275 3053 
L 1275 0 
L 697 0 
L 697 3053 
L 147 3053 
L 147 3500 
L 697 3500 
L 697 3744 
Q 697 4328 969 4595 
Q 1241 4863 1831 4863 
L 2375 4863 
z
" transform="scale(0.015625)"/>
      <path id="DejaVuSans-6e" d="M 3513 2113 
L 3513 0 
L 2938 0 
L 2938 2094 
Q 2938 2591 2744 2837 
Q 2550 3084 2163 3084 
Q 1697 3084 1428 2787 
Q 1159 2491 1159 1978 
L 1159 0 
L 581 0 
L 581 3500 
L 1159 3500 
L 1159 2956 
Q 1366 3272 1645 3428 
Q 1925 3584 2291 3584 
Q 2894 3584 3203 3211 
Q 3513 2838 3513 2113 
z
" transform="scale(0.015625)"/>
      <path id="DejaVuSans-2d" d="M 313 2009 
L 1997 2009 
L 1997 1497 
L 313 1497 
L 313 2009 
z
" transform="scale(0.015625)"/>
      <path id="DejaVuSans-6b" d="M 581 4863 
L 1159 4863 
L 1159 1991 
L 2875 3500 
L 3609 3500 
L 1753 1863 
L 3688 0 
L 2938 0 
L 1159 1709 
L 1159 0 
L 581 0 
L 581 4863 
z
" transform="scale(0.015625)"/>
      <path id="DejaVuSans-63" d="M 3122 3366 
L 3122 2828 
Q 2878 2963 2633 3030 
Q 2388 3097 2138 3097 
Q 1578 3097 1268 2742 
Q 959 2388 959 1747 
Q 959 1106 1268 751 
Q 1578 397 2138 397 
Q 2388 397 2633 464 
Q 2878 531 3122 666 
L 3122 134 
Q 2881 22 2623 -34 
Q 2366 -91 2075 -91 
Q 1284 -91 818 406 
Q 353 903 353 1747 
Q 353 2603 823 3093 
Q 1294 3584 2113 3584 
Q 2378 3584 2631 3529 
Q 2884 3475 3122 3366 
z
" transform="scale(0.015625)"/>
      <path id="DejaVuSans-67" d="M 2906 1791 
Q 2906 2416 2648 2759 
Q 2391 3103 1925 3103 
Q 1463 3103 1205 2759 
Q 947 2416 947 1791 
Q 947 1169 1205 825 
Q 1463 481 1925 481 
Q 2391 481 2648 825 
Q 2906 1169 2906 1791 
z
M 3481 434 
Q 3481 -459 3084 -895 
Q 2688 -1331 1869 -1331 
Q 1566 -1331 1297 -1286 
Q 1028 -1241 775 -1147 
L 775 -588 
Q 1028 -725 1275 -790 
Q 1522 -856 1778 -856 
Q 2344 -856 2625 -561 
Q 2906 -266 2906 331 
L 2906 616 
Q 2728 306 2450 153 
Q 2172 0 1784 0 
Q 1141 0 747 490 
Q 353 981 353 1791 
Q 353 2603 747 3093 
Q 1141 3584 1784 3584 
Q 2172 3584 2450 3431 
Q 2728 3278 2906 2969 
L 2906 3500 
L 3481 3500 
L 3481 434 
z
" transform="scale(0.015625)"/>
     </defs>
     <use xlink:href="#DejaVuSans-47"/>
     <use xlink:href="#DejaVuSans-75" x="77.490234"/>
     <use xlink:href="#DejaVuSans-73" x="140.869141"/>
     <use xlink:href="#DejaVuSans-74" x="192.96875"/>
     <use xlink:href="#DejaVuSans-61" x="232.177734"/>
     <use xlink:href="#DejaVuSans-66" x="293.457031"/>
     <use xlink:href="#DejaVuSans-73" x="328.662109"/>
     <use xlink:href="#DejaVuSans-6f" x="380.761719"/>
     <use xlink:href="#DejaVuSans-6e" x="441.943359"/>
     <use xlink:href="#DejaVuSans-2d" x="505.322266"/>
     <use xlink:href="#DejaVuSans-6c" x="541.40625"/>
     <use xlink:href="#DejaVuSans-69" x="569.189453"/>
     <use xlink:href="#DejaVuSans-6b" x="596.972656"/>
     <use xlink:href="#DejaVuSans-65" x="651.257812"/>
     <use xlink:href="#DejaVuSans-20" x="712.78125"/>
     <use xlink:href="#DejaVuSans-53" x="744.568359"/>
     <use xlink:href="#DejaVuSans-63" x="808.044922"/>
     <use xlink:href="#DejaVuSans-61" x="863.025391"/>
     <use xlink:href="#DejaVuSans-6c" x="924.304688"/>
     <use xlink:href="#DejaVuSans-69" x="952.087891"/>
     <use xlink:href="#DejaVuSans-6e" x="979.871094"/>
     <use xlink:href="#DejaVuSans-67" x="1043.25"/>
    </g>
   </g>
   <g id="legend_1">
    <g id="patch_7">
     <path d="M 339.12 78.82825 
L 407.72 78.82825 
Q 409.72 78.82825 409.72 76.82825 
L 409.72 48.472 
Q 409.72 46.472 407.72 46.472 
L 339.12 46.472 
Q 337.12 46.472 337.12 48.472 
L 337.12 76.82825 
Q 337.12 78.82825 339.12 78.82825 
z
" style="fill: #ffffff; opacity: 0.8; stroke: #cccccc; stroke-linejoin: miter"/>
    </g>
    <g id="text_19">
     <!-- Cluster -->
     <g transform="translate(355.673906 58.070437)scale(0.1 -0.1)">
      <defs>
       <path id="DejaVuSans-43" d="M 4122 4306 
L 4122 3641 
Q 3803 3938 3442 4084 
Q 3081 4231 2675 4231 
Q 1875 4231 1450 3742 
Q 1025 3253 1025 2328 
Q 1025 1406 1450 917 
Q 1875 428 2675 428 
Q 3081 428 3442 575 
Q 3803 722 4122 1019 
L 4122 359 
Q 3791 134 3420 21 
Q 3050 -91 2638 -91 
Q 1578 -91 968 557 
Q 359 1206 359 2328 
Q 359 3453 968 4101 
Q 1578 4750 2638 4750 
Q 3056 4750 3426 4639 
Q 3797 4528 4122 4306 
z
" transform="scale(0.015625)"/>
      </defs>
      <use xlink:href="#DejaVuSans-43"/>
      <use xlink:href="#DejaVuSans-6c" x="69.824219"/>
      <use xlink:href="#DejaVuSans-75" x="97.607422"/>
      <use xlink:href="#DejaVuSans-73" x="160.986328"/>
      <use xlink:href="#DejaVuSans-74" x="213.085938"/>
      <use xlink:href="#DejaVuSans-65" x="252.294922"/>
      <use xlink:href="#DejaVuSans-72" x="313.818359"/>
     </g>
    </g>
    <g id="line2d_17">
     <path d="M 341.12 69.248562 
L 351.12 69.248562 
L 361.12 69.248562 
" style="fill: none; stroke: #1f77b4; stroke-width: 1.5; stroke-linecap: square"/>
    </g>
    <g id="text_20">
     <!-- Hopper -->
     <g transform="translate(369.12 72.748562)scale(0.1 -0.1)">
      <defs>
       <path id="DejaVuSans-48" d="M 628 4666 
L 1259 4666 
L 1259 2753 
L 3553 2753 
L 3553 4666 
L 4184 4666 
L 4184 0 
L 3553 0 
L 3553 2222 
L 1259 2222 
L 1259 0 
L 628 0 
L 628 4666 
z
" transform="scale(0.015625)"/>
       <path id="DejaVuSans-70" d="M 1159 525 
L 1159 -1331 
L 581 -1331 
L 581 3500 
L 1159 3500 
L 1159 2969 
Q 1341 3281 1617 3432 
Q 1894 3584 2278 3584 
Q 2916 3584 3314 3078 
Q 3713 2572 3713 1747 
Q 3713 922 3314 415 
Q 2916 -91 2278 -91 
Q 1894 -91 1617 61 
Q 1341 213 1159 525 
z
M 3116 1747 
Q 3116 2381 2855 2742 
Q 2594 3103 2138 3103 
Q 1681 3103 1420 2742 
Q 1159 2381 1159 1747 
Q 1159 1113 1420 752 
Q 1681 391 2138 391 
Q 2594 391 2855 752 
Q 3116 1113 3116 1747 
z
" transform="scale(0.015625)"/>
      </defs>
      <use xlink:href="#DejaVuSans-48"/>
      <use xlink:href="#DejaVuSans-6f" x="75.195312"/>
      <use xlink:href="#DejaVuSans-70" x="136.376953"/>
      <use xlink:href="#DejaVuSans-70" x="199.853516"/>
      <use xlink:href="#DejaVuSans-65" x="263.330078"/>
      <use xlink:href="#DejaVuSans-72" x="324.853516"/>
     </g>
    </g>
   </g>
  </g>
 </g>
 <defs>
  <clipPath id="p2221e88954">
   <rect x="57.6" y="41.472" width="357.12" height="266.112"/>
  </clipPath>
 </defs>
</svg>
