<?xml version="1.0" encoding="utf-8" standalone="no"?>
<!DOCTYPE svg PUBLIC "-//W3C//DTD SVG 1.1//EN"
  "http://www.w3.org/Graphics/SVG/1.1/DTD/svg11.dtd">
<svg xmlns:xlink="http://www.w3.org/1999/xlink" width="460.8pt" height="345.6pt" viewBox="0 0 460.8 345.6" xmlns="http://www.w3.org/2000/svg" version="1.1">
 <metadata>
  <rdf:RDF xmlns:dc="http://purl.org/dc/elements/1.1/" xmlns:cc="http://creativecommons.org/ns#" xmlns:rdf="http://www.w3.org/1999/02/22-rdf-syntax-ns#">
   <cc:Work>
    <dc:type rdf:resource="http://purl.org/dc/dcmitype/StillImage"/>
    <dc:date>2024-05-02T16:25:23.391987</dc:date>
    <dc:format>image/svg+xml</dc:format>
    <dc:creator>
     <cc:Agent>
      <dc:title>Matplotlib v3.5.3, https://matplotlib.org/</dc:title>
     </cc:Agent>
    </dc:creator>
   </cc:Work>
  </rdf:RDF>
 </metadata>
 <defs>
  <style type="text/css">*{stroke-linejoin: round; stroke-linecap: butt}</style>
 </defs>
 <g id="figure_1">
  <g id="patch_1">
   <path d="M 0 345.6 
L 460.8 345.6 
L 460.8 0 
L 0 0 
z
" style="fill: #ffffff"/>
  </g>
  <g id="axes_1">
   <g id="patch_2">
    <path d="M 57.6 307.584 
L 414.72 307.584 
L 414.72 41.472 
L 57.6 41.472 
z
" style="fill: #ffffff"/>
   </g>
   <g id="PolyCollection_1">
    <path d="M 73.832727 152.36966 
L 73.832727 227.155194 
L 106.012464 198.874132 
L 124.836403 172.32162 
L 138.1922 187.369809 
L 148.551761 154.908082 
L 157.016139 166.432528 
L 164.172668 295.488 
L 170.371936 167.211414 
L 180.731497 154.730605 
L 189.195875 159.317522 
L 196.352405 145.44959 
L 202.551673 150.768672 
L 208.019814 158.297511 
L 212.911234 147.383774 
L 221.375612 144.385778 
L 228.532141 144.985237 
L 231.735173 125.100406 
L 234.731409 138.515201 
L 240.199551 140.562535 
L 245.09097 135.533155 
L 247.35608 116.535794 
L 247.35608 114.211129 
L 247.35608 114.211129 
L 245.09097 118.982952 
L 240.199551 125.650698 
L 234.731409 126.452749 
L 231.735173 122.838291 
L 228.532141 124.397944 
L 221.375612 132.758756 
L 212.911234 133.775827 
L 208.019814 139.221128 
L 202.551673 141.448205 
L 196.352405 144.573019 
L 189.195875 150.505316 
L 180.731497 154.164574 
L 170.371936 153.200167 
L 164.172668 144.75607 
L 157.016139 149.727038 
L 148.551761 154.580336 
L 138.1922 144.703649 
L 124.836403 171.276821 
L 106.012464 183.195636 
L 73.832727 152.36966 
z
" clip-path="url(#pe3bc6bd8df)" style="fill: #1f77b4; fill-opacity: 0.2; stroke: #1f77b4; stroke-opacity: 0.2"/>
    <path d="M 253.555348 119.236823 
L 253.555348 129.137833 
L 260.711877 120.642093 
L 263.914909 125.003533 
L 266.911145 119.569778 
L 272.379287 127.789867 
L 277.270706 122.835167 
L 279.535817 126.689966 
L 281.695534 111.11169 
L 285.735084 116.71367 
L 287.630268 124.096879 
L 291.203226 116.915302 
L 292.891614 106.758878 
L 296.094646 112.310925 
L 296.094646 104.651582 
L 296.094646 104.651582 
L 292.891614 103.128445 
L 291.203226 107.979733 
L 287.630268 111.507027 
L 285.735084 110.208662 
L 281.695534 110.573073 
L 279.535817 114.82334 
L 277.270706 114.590935 
L 272.379287 118.490847 
L 266.911145 105.828848 
L 263.914909 122.85534 
L 260.711877 104.257908 
L 253.555348 119.236823 
z
" clip-path="url(#pe3bc6bd8df)" style="fill: #1f77b4; fill-opacity: 0.2; stroke: #1f77b4; stroke-opacity: 0.2"/>
    <path d="M 299.090882 99.196645 
L 299.090882 108.44477 
L 300.519473 103.573909 
L 303.251175 118.148966 
L 304.559023 107.232547 
L 309.450443 98.807955 
L 309.450443 92.933417 
L 309.450443 92.933417 
L 304.559023 99.031304 
L 303.251175 99.230206 
L 300.519473 101.724137 
L 299.090882 99.196645 
z
" clip-path="url(#pe3bc6bd8df)" style="fill: #1f77b4; fill-opacity: 0.2; stroke: #1f77b4; stroke-opacity: 0.2"/>
    <path d="M 311.715553 94.185641 
L 311.715553 96.676322 
L 313.87527 105.746274 
L 314.918585 106.340886 
L 317.914821 98.215186 
L 319.810004 106.666404 
L 322.075114 90.701777 
L 323.382962 90.713481 
L 324.234831 88.307512 
L 325.07135 88.324453 
L 328.274382 86.38391 
L 330.539492 85.972181 
L 331.270618 80.344728 
L 332.699209 96.312117 
L 333.742524 98.660327 
L 335.430911 93.613099 
L 336.73876 84.308653 
L 336.73876 78.598534 
L 336.73876 78.598534 
L 335.430911 82.065321 
L 333.742524 83.613506 
L 332.699209 84.216244 
L 331.270618 78.763404 
L 330.539492 84.225133 
L 328.274382 83.697401 
L 325.07135 83.822202 
L 324.234831 86.75486 
L 323.382962 88.278536 
L 322.075114 89.258808 
L 319.810004 89.886116 
L 317.914821 90.495987 
L 314.918585 93.790713 
L 313.87527 90.720243 
L 311.715553 94.185641 
z
" clip-path="url(#pe3bc6bd8df)" style="fill: #1f77b4; fill-opacity: 0.2; stroke: #1f77b4; stroke-opacity: 0.2"/>
    <path d="M 341.630179 73.465228 
L 341.630179 81.576378 
L 342.206901 79.681099 
L 343.895289 91.115379 
L 343.895289 79.56894 
L 343.895289 79.56894 
L 342.206901 77.869456 
L 341.630179 73.465228 
z
" clip-path="url(#pe3bc6bd8df)" style="fill: #1f77b4; fill-opacity: 0.2; stroke: #1f77b4; stroke-opacity: 0.2"/>
    <path d="M 346.055006 70.350285 
L 346.055006 70.695432 
L 347.098321 83.580238 
L 349.363431 87.758137 
L 350.094557 74.260471 
L 350.094557 69.310026 
L 350.094557 69.310026 
L 349.363431 74.710578 
L 347.098321 73.63207 
L 346.055006 70.350285 
z
" clip-path="url(#pe3bc6bd8df)" style="fill: #1f77b4; fill-opacity: 0.2; stroke: #1f77b4; stroke-opacity: 0.2"/>
    <path d="M 351.98974 71.213675 
L 351.98974 84.099519 
L 354.25485 86.12743 
L 355.562699 71.523359 
L 355.562699 69.106082 
L 355.562699 69.106082 
L 354.25485 71.338 
L 351.98974 71.213675 
z
" clip-path="url(#pe3bc6bd8df)" style="fill: #1f77b4; fill-opacity: 0.2; stroke: #1f77b4; stroke-opacity: 0.2"/>
    <path d="M 357.251086 64.332294 
L 357.251086 69.748771 
L 357.251086 64.332294 
L 357.251086 64.332294 
z
" clip-path="url(#pe3bc6bd8df)" style="fill: #1f77b4; fill-opacity: 0.2; stroke: #1f77b4; stroke-opacity: 0.2"/>
    <path d="M 360.454118 66.517252 
L 360.454118 69.147535 
L 360.454118 66.517252 
L 360.454118 66.517252 
z
" clip-path="url(#pe3bc6bd8df)" style="fill: #1f77b4; fill-opacity: 0.2; stroke: #1f77b4; stroke-opacity: 0.2"/>
    <path d="M 362.719228 67.756927 
L 362.719228 68.093397 
L 362.719228 67.756927 
L 362.719228 67.756927 
z
" clip-path="url(#pe3bc6bd8df)" style="fill: #1f77b4; fill-opacity: 0.2; stroke: #1f77b4; stroke-opacity: 0.2"/>
    <path d="M 364.878945 67.433302 
L 364.878945 77.349027 
L 365.92226 79.575431 
L 367.610648 78.420681 
L 368.918496 64.889949 
L 368.918496 58.858616 
L 368.918496 58.858616 
L 367.610648 63.155346 
L 365.92226 66.31595 
L 364.878945 67.433302 
z
" clip-path="url(#pe3bc6bd8df)" style="fill: #1f77b4; fill-opacity: 0.2; stroke: #1f77b4; stroke-opacity: 0.2"/>
    <path d="M 373.078789 63.309113 
L 373.078789 64.70152 
L 373.809915 58.43641 
L 373.809915 56.847979 
L 373.809915 56.847979 
L 373.078789 63.309113 
z
" clip-path="url(#pe3bc6bd8df)" style="fill: #1f77b4; fill-opacity: 0.2; stroke: #1f77b4; stroke-opacity: 0.2"/>
    <path d="M 379.278057 60.19866 
L 379.278057 72.310804 
L 379.278057 60.19866 
L 379.278057 60.19866 
z
" clip-path="url(#pe3bc6bd8df)" style="fill: #1f77b4; fill-opacity: 0.2; stroke: #1f77b4; stroke-opacity: 0.2"/>
   </g>
   <g id="PolyCollection_2">
    <defs>
     <path id="mcd620410b0" d="M 73.832727 -188.445727 
L 73.832727 -126.232618 
L 106.012464 -154.839797 
L 124.836403 -148.083926 
L 138.1922 -160.519929 
L 148.551761 -158.248208 
L 157.016139 -166.244363 
L 164.172668 -164.141284 
L 170.371936 -165.125416 
L 175.840078 -154.220537 
L 180.731497 -166.327727 
L 189.195875 -169.58545 
L 196.352405 -167.128617 
L 199.555437 -162.178724 
L 202.551673 -166.154584 
L 208.019814 -165.536318 
L 212.911234 -166.121317 
L 215.176344 -165.989655 
L 221.375612 -169.490746 
L 223.270795 -158.197396 
L 226.843753 -118.671422 
L 228.532141 -165.562075 
L 231.735173 -167.998353 
L 234.731409 -163.458586 
L 238.891702 -157.677354 
L 240.199551 -167.947321 
L 245.09097 -165.754376 
L 247.35608 -167.343917 
L 249.515797 -146.793106 
L 250.559112 -142.137282 
L 253.555348 -164.879943 
L 254.51261 -151.374031 
L 255.450531 -158.42746 
L 259.02349 -158.36894 
L 260.711877 -160.342253 
L 263.914909 -164.064008 
L 266.180019 -142.85132 
L 266.911145 -157.401705 
L 268.339736 -148.687203 
L 271.071439 -157.568713 
L 272.379287 -158.306178 
L 274.27447 -139.314352 
L 277.270706 -157.417939 
L 277.847429 -133.891791 
L 279.535817 -158.803465 
L 281.695534 -142.650129 
L 282.738848 -157.139624 
L 285.735084 -158.554832 
L 286.692346 -143.887976 
L 287.163675 -129.821512 
L 287.630268 -153.690629 
L 289.895378 -146.273933 
L 291.203226 -156.653945 
L 292.055095 -147.718336 
L 292.891614 -150.016971 
L 296.094646 -158.391013 
L 297.989829 -122.48627 
L 298.359756 -153.045418 
L 299.090882 -147.002223 
L 300.519473 -152.268545 
L 301.562787 -145.646541 
L 303.251175 -152.92233 
L 304.559023 -155.861715 
L 305.516285 -134.555423 
L 306.454207 -152.140296 
L 307.676002 -147.420842 
L 309.450443 -152.152457 
L 310.027165 -150.802913 
L 310.879034 -147.502928 
L 311.715553 -155.096342 
L 313.610736 -138.069389 
L 313.87527 -147.495741 
L 314.918585 -158.087614 
L 317.183695 -140.986444 
L 317.914821 -153.82834 
L 318.872082 -150.15584 
L 319.343412 -149.271789 
L 319.810004 -154.106617 
L 322.075114 -152.691632 
L 323.382962 -151.965729 
L 324.234831 -150.108516 
L 325.07135 -151.431633 
L 325.278146 -136.922168 
L 326.499941 -141.184358 
L 328.274382 -158.902062 
L 328.659658 -125.710805 
L 328.851104 -139.358566 
L 329.231644 -142.686418 
L 330.169565 -138.361572 
L 330.539492 -155.067386 
L 331.270618 -141.569427 
L 332.699209 -152.793046 
L 333.742524 -153.419217 
L 334.594392 -138.547912 
L 335.430911 -151.451773 
L 336.73876 -152.683038 
L 337.696021 -146.962713 
L 338.167351 -140.343905 
L 338.633943 -154.941346 
L 339.855738 -144.904951 
L 340.899053 -150.253811 
L 341.630179 -150.116738 
L 342.206901 -150.983666 
L 343.05877 -154.432245 
L 343.895289 -151.241673 
L 344.852551 -153.229033 
L 345.790473 -148.373588 
L 346.055006 -147.745061 
L 347.098321 -156.978073 
L 347.483597 -127.901522 
L 349.363431 -147.997981 
L 350.094557 -148.780705 
L 350.2153 -148.137858 
L 351.051819 -147.901545 
L 351.523148 -155.389212 
L 351.98974 -153.940839 
L 352.566463 -149.003459 
L 354.25485 -156.807228 
L 355.562699 -151.016008 
L 356.414568 -155.549187 
L 356.51996 -146.349139 
L 357.251086 -142.866983 
L 357.457882 -148.810711 
L 358.679678 -153.520858 
L 360.454118 -153.539541 
L 360.839395 -134.518295 
L 361.03084 -146.538065 
L 361.41138 -142.637831 
L 361.882709 -149.073663 
L 362.349302 -144.387824 
L 362.719228 -151.569889 
L 363.450354 -153.215526 
L 364.878945 -147.854095 
L 365.836207 -134.767232 
L 365.92226 -151.47378 
L 366.774129 -144.432069 
L 367.610648 -146.628708 
L 368.18737 -141.497781 
L 368.918496 -154.015944 
L 370.347087 -154.075037 
L 370.813679 -154.898565 
L 371.198956 -133.262571 
L 372.035475 -150.180436 
L 373.078789 -149.297858 
L 373.809915 -153.061014 
L 374.386638 -143.095444 
L 375.238507 -152.240095 
L 377.503617 -149.539944 
L 377.970209 -152.710193 
L 378.234743 -152.901409 
L 379.278057 -150.050303 
L 379.663334 -153.159225 
L 379.85478 -132.994244 
L 382.395036 -152.779497 
L 383.702884 -149.159856 
L 384.169477 -152.818072 
L 384.746199 -152.810485 
L 386.819863 -153.254313 
L 388.594304 -152.649741 
L 389.171026 -142.326897 
L 389.637618 -152.543798 
L 393.019131 -152.559098 
L 394.062446 -142.070242 
L 398.487273 -132.973473 
L 398.487273 -161.257408 
L 398.487273 -161.257408 
L 394.062446 -160.018437 
L 393.019131 -159.039337 
L 389.637618 -160.581633 
L 389.171026 -160.519589 
L 388.594304 -159.236461 
L 386.819863 -160.000973 
L 384.746199 -160.120645 
L 384.169477 -159.87547 
L 383.702884 -159.132882 
L 382.395036 -159.479221 
L 379.85478 -160.46525 
L 379.663334 -200.321027 
L 379.278057 -159.271209 
L 378.234743 -159.316066 
L 377.970209 -158.837588 
L 377.503617 -159.393481 
L 375.238507 -191.835263 
L 374.386638 -159.302609 
L 373.809915 -161.372934 
L 373.078789 -159.012874 
L 372.035475 -159.176339 
L 371.198956 -199.150986 
L 370.813679 -200.421007 
L 370.347087 -185.29115 
L 368.918496 -158.671587 
L 368.18737 -158.762552 
L 367.610648 -158.900292 
L 366.774129 -190.522481 
L 365.92226 -184.293938 
L 365.836207 -160.343334 
L 364.878945 -184.10607 
L 363.450354 -159.001261 
L 362.719228 -158.231783 
L 362.349302 -199.07337 
L 361.882709 -181.321844 
L 361.41138 -160.726324 
L 361.03084 -181.397593 
L 360.839395 -192.433402 
L 360.454118 -184.868263 
L 358.679678 -185.62468 
L 357.457882 -184.475396 
L 357.251086 -158.258749 
L 356.51996 -159.14021 
L 356.414568 -180.912592 
L 355.562699 -178.24799 
L 354.25485 -182.647053 
L 352.566463 -181.845493 
L 351.98974 -182.075721 
L 351.523148 -180.933792 
L 351.051819 -159.993859 
L 350.2153 -180.939067 
L 350.094557 -182.519616 
L 349.363431 -178.524949 
L 347.483597 -188.04008 
L 347.098321 -176.826877 
L 346.055006 -179.146242 
L 345.790473 -181.248813 
L 344.852551 -160.570521 
L 343.895289 -178.988552 
L 343.05877 -181.19291 
L 342.206901 -179.786929 
L 341.630179 -175.997442 
L 340.899053 -176.446885 
L 339.855738 -179.522 
L 338.633943 -183.099428 
L 338.167351 -174.655946 
L 337.696021 -183.022935 
L 336.73876 -176.305829 
L 335.430911 -172.950664 
L 334.594392 -185.832131 
L 333.742524 -175.496008 
L 332.699209 -176.705676 
L 331.270618 -179.526745 
L 330.539492 -176.884727 
L 330.169565 -188.892635 
L 329.231644 -179.027743 
L 328.851104 -176.096462 
L 328.659658 -187.789693 
L 328.274382 -176.836153 
L 326.499941 -175.499469 
L 325.278146 -186.974403 
L 325.07135 -174.798755 
L 324.234831 -177.596964 
L 323.382962 -172.012728 
L 322.075114 -175.609715 
L 319.810004 -176.442385 
L 319.343412 -172.648467 
L 318.872082 -179.853561 
L 317.914821 -176.252368 
L 317.183695 -169.68234 
L 314.918585 -174.671012 
L 313.87527 -175.996302 
L 313.610736 -180.964784 
L 311.715553 -174.630591 
L 310.879034 -179.456092 
L 310.027165 -174.836785 
L 309.450443 -172.552678 
L 307.676002 -181.397802 
L 306.454207 -178.695917 
L 305.516285 -174.410968 
L 304.559023 -172.584405 
L 303.251175 -174.776519 
L 301.562787 -175.990161 
L 300.519473 -176.671799 
L 299.090882 -174.610376 
L 298.359756 -174.114965 
L 297.989829 -192.424359 
L 296.094646 -173.815528 
L 292.891614 -175.450052 
L 292.055095 -183.830908 
L 291.203226 -175.656377 
L 289.895378 -176.146952 
L 287.630268 -178.654303 
L 287.163675 -184.398028 
L 286.692346 -181.544834 
L 285.735084 -174.410129 
L 282.738848 -175.995469 
L 281.695534 -178.031903 
L 279.535817 -177.288177 
L 277.847429 -180.962328 
L 277.270706 -175.287823 
L 274.27447 -185.239452 
L 272.379287 -174.081103 
L 271.071439 -185.434528 
L 268.339736 -184.58058 
L 266.911145 -176.579559 
L 266.180019 -184.909106 
L 263.914909 -180.080774 
L 260.711877 -179.417999 
L 259.02349 -182.056378 
L 255.450531 -193.533084 
L 254.51261 -185.347647 
L 253.555348 -179.765782 
L 250.559112 -187.820493 
L 249.515797 -192.586882 
L 247.35608 -186.360277 
L 245.09097 -182.490314 
L 240.199551 -184.097793 
L 238.891702 -185.124328 
L 234.731409 -181.709817 
L 231.735173 -185.815588 
L 228.532141 -186.456394 
L 226.843753 -202.846672 
L 223.270795 -193.424219 
L 221.375612 -182.882832 
L 215.176344 -191.957285 
L 212.911234 -186.147004 
L 208.019814 -186.484941 
L 202.551673 -183.821525 
L 199.555437 -188.847633 
L 196.352405 -189.184275 
L 189.195875 -184.553367 
L 180.731497 -190.887753 
L 175.840078 -192.152334 
L 170.371936 -182.852535 
L 164.172668 -195.069087 
L 157.016139 -185.455796 
L 148.551761 -194.291633 
L 138.1922 -183.835711 
L 124.836403 -185.381948 
L 106.012464 -189.083918 
L 73.832727 -188.445727 
z
" style="stroke: #ff7f0e; stroke-opacity: 0.2"/>
    </defs>
    <g clip-path="url(#pe3bc6bd8df)">
     <use xlink:href="#mcd620410b0" x="0" y="345.6" style="fill: #ff7f0e; fill-opacity: 0.2; stroke: #ff7f0e; stroke-opacity: 0.2"/>
    </g>
   </g>
   <g id="matplotlib.axis_1">
    <g id="xtick_1">
     <g id="line2d_1">
      <defs>
       <path id="mec83d1bd05" d="M 0 0 
L 0 3.5 
" style="stroke: #000000; stroke-width: 0.8"/>
      </defs>
      <g>
       <use xlink:href="#mec83d1bd05" x="104.911411" y="307.584" style="stroke: #000000; stroke-width: 0.8"/>
      </g>
     </g>
     <g id="text_1">
      <!-- $\mathdefault{10^{3}}$ -->
      <g transform="translate(96.111411 322.182437)scale(0.1 -0.1)">
       <defs>
        <path id="DejaVuSans-31" d="M 794 531 
L 1825 531 
L 1825 4091 
L 703 3866 
L 703 4441 
L 1819 4666 
L 2450 4666 
L 2450 531 
L 3481 531 
L 3481 0 
L 794 0 
L 794 531 
z
" transform="scale(0.015625)"/>
        <path id="DejaVuSans-30" d="M 2034 4250 
Q 1547 4250 1301 3770 
Q 1056 3291 1056 2328 
Q 1056 1369 1301 889 
Q 1547 409 2034 409 
Q 2525 409 2770 889 
Q 3016 1369 3016 2328 
Q 3016 3291 2770 3770 
Q 2525 4250 2034 4250 
z
M 2034 4750 
Q 2819 4750 3233 4129 
Q 3647 3509 3647 2328 
Q 3647 1150 3233 529 
Q 2819 -91 2034 -91 
Q 1250 -91 836 529 
Q 422 1150 422 2328 
Q 422 3509 836 4129 
Q 1250 4750 2034 4750 
z
" transform="scale(0.015625)"/>
        <path id="DejaVuSans-33" d="M 2597 2516 
Q 3050 2419 3304 2112 
Q 3559 1806 3559 1356 
Q 3559 666 3084 287 
Q 2609 -91 1734 -91 
Q 1441 -91 1130 -33 
Q 819 25 488 141 
L 488 750 
Q 750 597 1062 519 
Q 1375 441 1716 441 
Q 2309 441 2620 675 
Q 2931 909 2931 1356 
Q 2931 1769 2642 2001 
Q 2353 2234 1838 2234 
L 1294 2234 
L 1294 2753 
L 1863 2753 
Q 2328 2753 2575 2939 
Q 2822 3125 2822 3475 
Q 2822 3834 2567 4026 
Q 2313 4219 1838 4219 
Q 1578 4219 1281 4162 
Q 984 4106 628 3988 
L 628 4550 
Q 988 4650 1302 4700 
Q 1616 4750 1894 4750 
Q 2613 4750 3031 4423 
Q 3450 4097 3450 3541 
Q 3450 3153 3228 2886 
Q 3006 2619 2597 2516 
z
" transform="scale(0.015625)"/>
       </defs>
       <use xlink:href="#DejaVuSans-31" transform="translate(0 0.765625)"/>
       <use xlink:href="#DejaVuSans-30" transform="translate(63.623047 0.765625)"/>
       <use xlink:href="#DejaVuSans-33" transform="translate(128.203125 39.046875)scale(0.7)"/>
      </g>
     </g>
    </g>
    <g id="xtick_2">
     <g id="line2d_2">
      <g>
       <use xlink:href="#mec83d1bd05" x="211.810181" y="307.584" style="stroke: #000000; stroke-width: 0.8"/>
      </g>
     </g>
     <g id="text_2">
      <!-- $\mathdefault{10^{4}}$ -->
      <g transform="translate(203.010181 322.182437)scale(0.1 -0.1)">
       <defs>
        <path id="DejaVuSans-34" d="M 2419 4116 
L 825 1625 
L 2419 1625 
L 2419 4116 
z
M 2253 4666 
L 3047 4666 
L 3047 1625 
L 3713 1625 
L 3713 1100 
L 3047 1100 
L 3047 0 
L 2419 0 
L 2419 1100 
L 313 1100 
L 313 1709 
L 2253 4666 
z
" transform="scale(0.015625)"/>
       </defs>
       <use xlink:href="#DejaVuSans-31" transform="translate(0 0.684375)"/>
       <use xlink:href="#DejaVuSans-30" transform="translate(63.623047 0.684375)"/>
       <use xlink:href="#DejaVuSans-34" transform="translate(128.203125 38.965625)scale(0.7)"/>
      </g>
     </g>
    </g>
    <g id="xtick_3">
     <g id="line2d_3">
      <g>
       <use xlink:href="#mec83d1bd05" x="318.708951" y="307.584" style="stroke: #000000; stroke-width: 0.8"/>
      </g>
     </g>
     <g id="text_3">
      <!-- $\mathdefault{10^{5}}$ -->
      <g transform="translate(309.908951 322.182437)scale(0.1 -0.1)">
       <defs>
        <path id="DejaVuSans-35" d="M 691 4666 
L 3169 4666 
L 3169 4134 
L 1269 4134 
L 1269 2991 
Q 1406 3038 1543 3061 
Q 1681 3084 1819 3084 
Q 2600 3084 3056 2656 
Q 3513 2228 3513 1497 
Q 3513 744 3044 326 
Q 2575 -91 1722 -91 
Q 1428 -91 1123 -41 
Q 819 9 494 109 
L 494 744 
Q 775 591 1075 516 
Q 1375 441 1709 441 
Q 2250 441 2565 725 
Q 2881 1009 2881 1497 
Q 2881 1984 2565 2268 
Q 2250 2553 1709 2553 
Q 1456 2553 1204 2497 
Q 953 2441 691 2322 
L 691 4666 
z
" transform="scale(0.015625)"/>
       </defs>
       <use xlink:href="#DejaVuSans-31" transform="translate(0 0.684375)"/>
       <use xlink:href="#DejaVuSans-30" transform="translate(63.623047 0.684375)"/>
       <use xlink:href="#DejaVuSans-35" transform="translate(128.203125 38.965625)scale(0.7)"/>
      </g>
     </g>
    </g>
    <g id="xtick_4">
     <g id="line2d_4">
      <defs>
       <path id="mf42e4a65a1" d="M 0 0 
L 0 2 
" style="stroke: #000000; stroke-width: 0.6"/>
      </defs>
      <g>
       <use xlink:href="#mf42e4a65a1" x="62.372113" y="307.584" style="stroke: #000000; stroke-width: 0.6"/>
      </g>
     </g>
    </g>
    <g id="xtick_5">
     <g id="line2d_5">
      <g>
       <use xlink:href="#mf42e4a65a1" x="72.731675" y="307.584" style="stroke: #000000; stroke-width: 0.6"/>
      </g>
     </g>
    </g>
    <g id="xtick_6">
     <g id="line2d_6">
      <g>
       <use xlink:href="#mf42e4a65a1" x="81.196052" y="307.584" style="stroke: #000000; stroke-width: 0.6"/>
      </g>
     </g>
    </g>
    <g id="xtick_7">
     <g id="line2d_7">
      <g>
       <use xlink:href="#mf42e4a65a1" x="88.352582" y="307.584" style="stroke: #000000; stroke-width: 0.6"/>
      </g>
     </g>
    </g>
    <g id="xtick_8">
     <g id="line2d_8">
      <g>
       <use xlink:href="#mf42e4a65a1" x="94.55185" y="307.584" style="stroke: #000000; stroke-width: 0.6"/>
      </g>
     </g>
    </g>
    <g id="xtick_9">
     <g id="line2d_9">
      <g>
       <use xlink:href="#mf42e4a65a1" x="100.019991" y="307.584" style="stroke: #000000; stroke-width: 0.6"/>
      </g>
     </g>
    </g>
    <g id="xtick_10">
     <g id="line2d_10">
      <g>
       <use xlink:href="#mf42e4a65a1" x="137.091147" y="307.584" style="stroke: #000000; stroke-width: 0.6"/>
      </g>
     </g>
    </g>
    <g id="xtick_11">
     <g id="line2d_11">
      <g>
       <use xlink:href="#mf42e4a65a1" x="155.915086" y="307.584" style="stroke: #000000; stroke-width: 0.6"/>
      </g>
     </g>
    </g>
    <g id="xtick_12">
     <g id="line2d_12">
      <g>
       <use xlink:href="#mf42e4a65a1" x="169.270884" y="307.584" style="stroke: #000000; stroke-width: 0.6"/>
      </g>
     </g>
    </g>
    <g id="xtick_13">
     <g id="line2d_13">
      <g>
       <use xlink:href="#mf42e4a65a1" x="179.630445" y="307.584" style="stroke: #000000; stroke-width: 0.6"/>
      </g>
     </g>
    </g>
    <g id="xtick_14">
     <g id="line2d_14">
      <g>
       <use xlink:href="#mf42e4a65a1" x="188.094823" y="307.584" style="stroke: #000000; stroke-width: 0.6"/>
      </g>
     </g>
    </g>
    <g id="xtick_15">
     <g id="line2d_15">
      <g>
       <use xlink:href="#mf42e4a65a1" x="195.251352" y="307.584" style="stroke: #000000; stroke-width: 0.6"/>
      </g>
     </g>
    </g>
    <g id="xtick_16">
     <g id="line2d_16">
      <g>
       <use xlink:href="#mf42e4a65a1" x="201.45062" y="307.584" style="stroke: #000000; stroke-width: 0.6"/>
      </g>
     </g>
    </g>
    <g id="xtick_17">
     <g id="line2d_17">
      <g>
       <use xlink:href="#mf42e4a65a1" x="206.918762" y="307.584" style="stroke: #000000; stroke-width: 0.6"/>
      </g>
     </g>
    </g>
    <g id="xtick_18">
     <g id="line2d_18">
      <g>
       <use xlink:href="#mf42e4a65a1" x="243.989917" y="307.584" style="stroke: #000000; stroke-width: 0.6"/>
      </g>
     </g>
    </g>
    <g id="xtick_19">
     <g id="line2d_19">
      <g>
       <use xlink:href="#mf42e4a65a1" x="262.813856" y="307.584" style="stroke: #000000; stroke-width: 0.6"/>
      </g>
     </g>
    </g>
    <g id="xtick_20">
     <g id="line2d_20">
      <g>
       <use xlink:href="#mf42e4a65a1" x="276.169654" y="307.584" style="stroke: #000000; stroke-width: 0.6"/>
      </g>
     </g>
    </g>
    <g id="xtick_21">
     <g id="line2d_21">
      <g>
       <use xlink:href="#mf42e4a65a1" x="286.529215" y="307.584" style="stroke: #000000; stroke-width: 0.6"/>
      </g>
     </g>
    </g>
    <g id="xtick_22">
     <g id="line2d_22">
      <g>
       <use xlink:href="#mf42e4a65a1" x="294.993593" y="307.584" style="stroke: #000000; stroke-width: 0.6"/>
      </g>
     </g>
    </g>
    <g id="xtick_23">
     <g id="line2d_23">
      <g>
       <use xlink:href="#mf42e4a65a1" x="302.150122" y="307.584" style="stroke: #000000; stroke-width: 0.6"/>
      </g>
     </g>
    </g>
    <g id="xtick_24">
     <g id="line2d_24">
      <g>
       <use xlink:href="#mf42e4a65a1" x="308.34939" y="307.584" style="stroke: #000000; stroke-width: 0.6"/>
      </g>
     </g>
    </g>
    <g id="xtick_25">
     <g id="line2d_25">
      <g>
       <use xlink:href="#mf42e4a65a1" x="313.817532" y="307.584" style="stroke: #000000; stroke-width: 0.6"/>
      </g>
     </g>
    </g>
    <g id="xtick_26">
     <g id="line2d_26">
      <g>
       <use xlink:href="#mf42e4a65a1" x="350.888688" y="307.584" style="stroke: #000000; stroke-width: 0.6"/>
      </g>
     </g>
    </g>
    <g id="xtick_27">
     <g id="line2d_27">
      <g>
       <use xlink:href="#mf42e4a65a1" x="369.712627" y="307.584" style="stroke: #000000; stroke-width: 0.6"/>
      </g>
     </g>
    </g>
    <g id="xtick_28">
     <g id="line2d_28">
      <g>
       <use xlink:href="#mf42e4a65a1" x="383.068424" y="307.584" style="stroke: #000000; stroke-width: 0.6"/>
      </g>
     </g>
    </g>
    <g id="xtick_29">
     <g id="line2d_29">
      <g>
       <use xlink:href="#mf42e4a65a1" x="393.427985" y="307.584" style="stroke: #000000; stroke-width: 0.6"/>
      </g>
     </g>
    </g>
    <g id="xtick_30">
     <g id="line2d_30">
      <g>
       <use xlink:href="#mf42e4a65a1" x="401.892363" y="307.584" style="stroke: #000000; stroke-width: 0.6"/>
      </g>
     </g>
    </g>
    <g id="xtick_31">
     <g id="line2d_31">
      <g>
       <use xlink:href="#mf42e4a65a1" x="409.048893" y="307.584" style="stroke: #000000; stroke-width: 0.6"/>
      </g>
     </g>
    </g>
    <g id="text_4">
     <!-- Problem Size -->
     <g transform="translate(203.867031 335.860562)scale(0.1 -0.1)">
      <defs>
       <path id="DejaVuSans-50" d="M 1259 4147 
L 1259 2394 
L 2053 2394 
Q 2494 2394 2734 2622 
Q 2975 2850 2975 3272 
Q 2975 3691 2734 3919 
Q 2494 4147 2053 4147 
L 1259 4147 
z
M 628 4666 
L 2053 4666 
Q 2838 4666 3239 4311 
Q 3641 3956 3641 3272 
Q 3641 2581 3239 2228 
Q 2838 1875 2053 1875 
L 1259 1875 
L 1259 0 
L 628 0 
L 628 4666 
z
" transform="scale(0.015625)"/>
       <path id="DejaVuSans-72" d="M 2631 2963 
Q 2534 3019 2420 3045 
Q 2306 3072 2169 3072 
Q 1681 3072 1420 2755 
Q 1159 2438 1159 1844 
L 1159 0 
L 581 0 
L 581 3500 
L 1159 3500 
L 1159 2956 
Q 1341 3275 1631 3429 
Q 1922 3584 2338 3584 
Q 2397 3584 2469 3576 
Q 2541 3569 2628 3553 
L 2631 2963 
z
" transform="scale(0.015625)"/>
       <path id="DejaVuSans-6f" d="M 1959 3097 
Q 1497 3097 1228 2736 
Q 959 2375 959 1747 
Q 959 1119 1226 758 
Q 1494 397 1959 397 
Q 2419 397 2687 759 
Q 2956 1122 2956 1747 
Q 2956 2369 2687 2733 
Q 2419 3097 1959 3097 
z
M 1959 3584 
Q 2709 3584 3137 3096 
Q 3566 2609 3566 1747 
Q 3566 888 3137 398 
Q 2709 -91 1959 -91 
Q 1206 -91 779 398 
Q 353 888 353 1747 
Q 353 2609 779 3096 
Q 1206 3584 1959 3584 
z
" transform="scale(0.015625)"/>
       <path id="DejaVuSans-62" d="M 3116 1747 
Q 3116 2381 2855 2742 
Q 2594 3103 2138 3103 
Q 1681 3103 1420 2742 
Q 1159 2381 1159 1747 
Q 1159 1113 1420 752 
Q 1681 391 2138 391 
Q 2594 391 2855 752 
Q 3116 1113 3116 1747 
z
M 1159 2969 
Q 1341 3281 1617 3432 
Q 1894 3584 2278 3584 
Q 2916 3584 3314 3078 
Q 3713 2572 3713 1747 
Q 3713 922 3314 415 
Q 2916 -91 2278 -91 
Q 1894 -91 1617 61 
Q 1341 213 1159 525 
L 1159 0 
L 581 0 
L 581 4863 
L 1159 4863 
L 1159 2969 
z
" transform="scale(0.015625)"/>
       <path id="DejaVuSans-6c" d="M 603 4863 
L 1178 4863 
L 1178 0 
L 603 0 
L 603 4863 
z
" transform="scale(0.015625)"/>
       <path id="DejaVuSans-65" d="M 3597 1894 
L 3597 1613 
L 953 1613 
Q 991 1019 1311 708 
Q 1631 397 2203 397 
Q 2534 397 2845 478 
Q 3156 559 3463 722 
L 3463 178 
Q 3153 47 2828 -22 
Q 2503 -91 2169 -91 
Q 1331 -91 842 396 
Q 353 884 353 1716 
Q 353 2575 817 3079 
Q 1281 3584 2069 3584 
Q 2775 3584 3186 3129 
Q 3597 2675 3597 1894 
z
M 3022 2063 
Q 3016 2534 2758 2815 
Q 2500 3097 2075 3097 
Q 1594 3097 1305 2825 
Q 1016 2553 972 2059 
L 3022 2063 
z
" transform="scale(0.015625)"/>
       <path id="DejaVuSans-6d" d="M 3328 2828 
Q 3544 3216 3844 3400 
Q 4144 3584 4550 3584 
Q 5097 3584 5394 3201 
Q 5691 2819 5691 2113 
L 5691 0 
L 5113 0 
L 5113 2094 
Q 5113 2597 4934 2840 
Q 4756 3084 4391 3084 
Q 3944 3084 3684 2787 
Q 3425 2491 3425 1978 
L 3425 0 
L 2847 0 
L 2847 2094 
Q 2847 2600 2669 2842 
Q 2491 3084 2119 3084 
Q 1678 3084 1418 2786 
Q 1159 2488 1159 1978 
L 1159 0 
L 581 0 
L 581 3500 
L 1159 3500 
L 1159 2956 
Q 1356 3278 1631 3431 
Q 1906 3584 2284 3584 
Q 2666 3584 2933 3390 
Q 3200 3197 3328 2828 
z
" transform="scale(0.015625)"/>
       <path id="DejaVuSans-20" transform="scale(0.015625)"/>
       <path id="DejaVuSans-53" d="M 3425 4513 
L 3425 3897 
Q 3066 4069 2747 4153 
Q 2428 4238 2131 4238 
Q 1616 4238 1336 4038 
Q 1056 3838 1056 3469 
Q 1056 3159 1242 3001 
Q 1428 2844 1947 2747 
L 2328 2669 
Q 3034 2534 3370 2195 
Q 3706 1856 3706 1288 
Q 3706 609 3251 259 
Q 2797 -91 1919 -91 
Q 1588 -91 1214 -16 
Q 841 59 441 206 
L 441 856 
Q 825 641 1194 531 
Q 1563 422 1919 422 
Q 2459 422 2753 634 
Q 3047 847 3047 1241 
Q 3047 1584 2836 1778 
Q 2625 1972 2144 2069 
L 1759 2144 
Q 1053 2284 737 2584 
Q 422 2884 422 3419 
Q 422 4038 858 4394 
Q 1294 4750 2059 4750 
Q 2388 4750 2728 4690 
Q 3069 4631 3425 4513 
z
" transform="scale(0.015625)"/>
       <path id="DejaVuSans-69" d="M 603 3500 
L 1178 3500 
L 1178 0 
L 603 0 
L 603 3500 
z
M 603 4863 
L 1178 4863 
L 1178 4134 
L 603 4134 
L 603 4863 
z
" transform="scale(0.015625)"/>
       <path id="DejaVuSans-7a" d="M 353 3500 
L 3084 3500 
L 3084 2975 
L 922 459 
L 3084 459 
L 3084 0 
L 275 0 
L 275 525 
L 2438 3041 
L 353 3041 
L 353 3500 
z
" transform="scale(0.015625)"/>
      </defs>
      <use xlink:href="#DejaVuSans-50"/>
      <use xlink:href="#DejaVuSans-72" x="58.552734"/>
      <use xlink:href="#DejaVuSans-6f" x="97.416016"/>
      <use xlink:href="#DejaVuSans-62" x="158.597656"/>
      <use xlink:href="#DejaVuSans-6c" x="222.074219"/>
      <use xlink:href="#DejaVuSans-65" x="249.857422"/>
      <use xlink:href="#DejaVuSans-6d" x="311.380859"/>
      <use xlink:href="#DejaVuSans-20" x="408.792969"/>
      <use xlink:href="#DejaVuSans-53" x="440.580078"/>
      <use xlink:href="#DejaVuSans-69" x="504.056641"/>
      <use xlink:href="#DejaVuSans-7a" x="531.839844"/>
      <use xlink:href="#DejaVuSans-65" x="584.330078"/>
     </g>
    </g>
   </g>
   <g id="matplotlib.axis_2">
    <g id="ytick_1">
     <g id="line2d_32">
      <defs>
       <path id="mbd4dd3bf93" d="M 0 0 
L -3.5 0 
" style="stroke: #000000; stroke-width: 0.8"/>
      </defs>
      <g>
       <use xlink:href="#mbd4dd3bf93" x="57.6" y="273.996363" style="stroke: #000000; stroke-width: 0.8"/>
      </g>
     </g>
     <g id="text_5">
      <!-- $\mathdefault{10^{-1}}$ -->
      <g transform="translate(27.1 277.795582)scale(0.1 -0.1)">
       <defs>
        <path id="DejaVuSans-2212" d="M 678 2272 
L 4684 2272 
L 4684 1741 
L 678 1741 
L 678 2272 
z
" transform="scale(0.015625)"/>
       </defs>
       <use xlink:href="#DejaVuSans-31" transform="translate(0 0.684375)"/>
       <use xlink:href="#DejaVuSans-30" transform="translate(63.623047 0.684375)"/>
       <use xlink:href="#DejaVuSans-2212" transform="translate(128.203125 38.965625)scale(0.7)"/>
       <use xlink:href="#DejaVuSans-31" transform="translate(186.855469 38.965625)scale(0.7)"/>
      </g>
     </g>
    </g>
    <g id="ytick_2">
     <g id="line2d_33">
      <g>
       <use xlink:href="#mbd4dd3bf93" x="57.6" y="200.658418" style="stroke: #000000; stroke-width: 0.8"/>
      </g>
     </g>
     <g id="text_6">
      <!-- $\mathdefault{10^{0}}$ -->
      <g transform="translate(33 204.457637)scale(0.1 -0.1)">
       <use xlink:href="#DejaVuSans-31" transform="translate(0 0.765625)"/>
       <use xlink:href="#DejaVuSans-30" transform="translate(63.623047 0.765625)"/>
       <use xlink:href="#DejaVuSans-30" transform="translate(128.203125 39.046875)scale(0.7)"/>
      </g>
     </g>
    </g>
    <g id="ytick_3">
     <g id="line2d_34">
      <g>
       <use xlink:href="#mbd4dd3bf93" x="57.6" y="127.320474" style="stroke: #000000; stroke-width: 0.8"/>
      </g>
     </g>
     <g id="text_7">
      <!-- $\mathdefault{10^{1}}$ -->
      <g transform="translate(33 131.119693)scale(0.1 -0.1)">
       <use xlink:href="#DejaVuSans-31" transform="translate(0 0.684375)"/>
       <use xlink:href="#DejaVuSans-30" transform="translate(63.623047 0.684375)"/>
       <use xlink:href="#DejaVuSans-31" transform="translate(128.203125 38.965625)scale(0.7)"/>
      </g>
     </g>
    </g>
    <g id="ytick_4">
     <g id="line2d_35">
      <g>
       <use xlink:href="#mbd4dd3bf93" x="57.6" y="53.982529" style="stroke: #000000; stroke-width: 0.8"/>
      </g>
     </g>
     <g id="text_8">
      <!-- $\mathdefault{10^{2}}$ -->
      <g transform="translate(33 57.781748)scale(0.1 -0.1)">
       <defs>
        <path id="DejaVuSans-32" d="M 1228 531 
L 3431 531 
L 3431 0 
L 469 0 
L 469 531 
Q 828 903 1448 1529 
Q 2069 2156 2228 2338 
Q 2531 2678 2651 2914 
Q 2772 3150 2772 3378 
Q 2772 3750 2511 3984 
Q 2250 4219 1831 4219 
Q 1534 4219 1204 4116 
Q 875 4013 500 3803 
L 500 4441 
Q 881 4594 1212 4672 
Q 1544 4750 1819 4750 
Q 2544 4750 2975 4387 
Q 3406 4025 3406 3419 
Q 3406 3131 3298 2873 
Q 3191 2616 2906 2266 
Q 2828 2175 2409 1742 
Q 1991 1309 1228 531 
z
" transform="scale(0.015625)"/>
       </defs>
       <use xlink:href="#DejaVuSans-31" transform="translate(0 0.765625)"/>
       <use xlink:href="#DejaVuSans-30" transform="translate(63.623047 0.765625)"/>
       <use xlink:href="#DejaVuSans-32" transform="translate(128.203125 39.046875)scale(0.7)"/>
      </g>
     </g>
    </g>
    <g id="ytick_5">
     <g id="line2d_36">
      <defs>
       <path id="m238c6fd39c" d="M 0 0 
L -2 0 
" style="stroke: #000000; stroke-width: 0.6"/>
      </defs>
      <g>
       <use xlink:href="#m238c6fd39c" x="57.6" y="303.180465" style="stroke: #000000; stroke-width: 0.6"/>
      </g>
     </g>
    </g>
    <g id="ytick_6">
     <g id="line2d_37">
      <g>
       <use xlink:href="#m238c6fd39c" x="57.6" y="296.073284" style="stroke: #000000; stroke-width: 0.6"/>
      </g>
     </g>
    </g>
    <g id="ytick_7">
     <g id="line2d_38">
      <g>
       <use xlink:href="#m238c6fd39c" x="57.6" y="290.266294" style="stroke: #000000; stroke-width: 0.6"/>
      </g>
     </g>
    </g>
    <g id="ytick_8">
     <g id="line2d_39">
      <g>
       <use xlink:href="#m238c6fd39c" x="57.6" y="285.356554" style="stroke: #000000; stroke-width: 0.6"/>
      </g>
     </g>
    </g>
    <g id="ytick_9">
     <g id="line2d_40">
      <g>
       <use xlink:href="#m238c6fd39c" x="57.6" y="281.103544" style="stroke: #000000; stroke-width: 0.6"/>
      </g>
     </g>
    </g>
    <g id="ytick_10">
     <g id="line2d_41">
      <g>
       <use xlink:href="#m238c6fd39c" x="57.6" y="277.352123" style="stroke: #000000; stroke-width: 0.6"/>
      </g>
     </g>
    </g>
    <g id="ytick_11">
     <g id="line2d_42">
      <g>
       <use xlink:href="#m238c6fd39c" x="57.6" y="251.919442" style="stroke: #000000; stroke-width: 0.6"/>
      </g>
     </g>
    </g>
    <g id="ytick_12">
     <g id="line2d_43">
      <g>
       <use xlink:href="#m238c6fd39c" x="57.6" y="239.005271" style="stroke: #000000; stroke-width: 0.6"/>
      </g>
     </g>
    </g>
    <g id="ytick_13">
     <g id="line2d_44">
      <g>
       <use xlink:href="#m238c6fd39c" x="57.6" y="229.842521" style="stroke: #000000; stroke-width: 0.6"/>
      </g>
     </g>
    </g>
    <g id="ytick_14">
     <g id="line2d_45">
      <g>
       <use xlink:href="#m238c6fd39c" x="57.6" y="222.73534" style="stroke: #000000; stroke-width: 0.6"/>
      </g>
     </g>
    </g>
    <g id="ytick_15">
     <g id="line2d_46">
      <g>
       <use xlink:href="#m238c6fd39c" x="57.6" y="216.92835" style="stroke: #000000; stroke-width: 0.6"/>
      </g>
     </g>
    </g>
    <g id="ytick_16">
     <g id="line2d_47">
      <g>
       <use xlink:href="#m238c6fd39c" x="57.6" y="212.01861" style="stroke: #000000; stroke-width: 0.6"/>
      </g>
     </g>
    </g>
    <g id="ytick_17">
     <g id="line2d_48">
      <g>
       <use xlink:href="#m238c6fd39c" x="57.6" y="207.7656" style="stroke: #000000; stroke-width: 0.6"/>
      </g>
     </g>
    </g>
    <g id="ytick_18">
     <g id="line2d_49">
      <g>
       <use xlink:href="#m238c6fd39c" x="57.6" y="204.014179" style="stroke: #000000; stroke-width: 0.6"/>
      </g>
     </g>
    </g>
    <g id="ytick_19">
     <g id="line2d_50">
      <g>
       <use xlink:href="#m238c6fd39c" x="57.6" y="178.581497" style="stroke: #000000; stroke-width: 0.6"/>
      </g>
     </g>
    </g>
    <g id="ytick_20">
     <g id="line2d_51">
      <g>
       <use xlink:href="#m238c6fd39c" x="57.6" y="165.667326" style="stroke: #000000; stroke-width: 0.6"/>
      </g>
     </g>
    </g>
    <g id="ytick_21">
     <g id="line2d_52">
      <g>
       <use xlink:href="#m238c6fd39c" x="57.6" y="156.504576" style="stroke: #000000; stroke-width: 0.6"/>
      </g>
     </g>
    </g>
    <g id="ytick_22">
     <g id="line2d_53">
      <g>
       <use xlink:href="#m238c6fd39c" x="57.6" y="149.397395" style="stroke: #000000; stroke-width: 0.6"/>
      </g>
     </g>
    </g>
    <g id="ytick_23">
     <g id="line2d_54">
      <g>
       <use xlink:href="#m238c6fd39c" x="57.6" y="143.590405" style="stroke: #000000; stroke-width: 0.6"/>
      </g>
     </g>
    </g>
    <g id="ytick_24">
     <g id="line2d_55">
      <g>
       <use xlink:href="#m238c6fd39c" x="57.6" y="138.680665" style="stroke: #000000; stroke-width: 0.6"/>
      </g>
     </g>
    </g>
    <g id="ytick_25">
     <g id="line2d_56">
      <g>
       <use xlink:href="#m238c6fd39c" x="57.6" y="134.427655" style="stroke: #000000; stroke-width: 0.6"/>
      </g>
     </g>
    </g>
    <g id="ytick_26">
     <g id="line2d_57">
      <g>
       <use xlink:href="#m238c6fd39c" x="57.6" y="130.676234" style="stroke: #000000; stroke-width: 0.6"/>
      </g>
     </g>
    </g>
    <g id="ytick_27">
     <g id="line2d_58">
      <g>
       <use xlink:href="#m238c6fd39c" x="57.6" y="105.243553" style="stroke: #000000; stroke-width: 0.6"/>
      </g>
     </g>
    </g>
    <g id="ytick_28">
     <g id="line2d_59">
      <g>
       <use xlink:href="#m238c6fd39c" x="57.6" y="92.329382" style="stroke: #000000; stroke-width: 0.6"/>
      </g>
     </g>
    </g>
    <g id="ytick_29">
     <g id="line2d_60">
      <g>
       <use xlink:href="#m238c6fd39c" x="57.6" y="83.166632" style="stroke: #000000; stroke-width: 0.6"/>
      </g>
     </g>
    </g>
    <g id="ytick_30">
     <g id="line2d_61">
      <g>
       <use xlink:href="#m238c6fd39c" x="57.6" y="76.05945" style="stroke: #000000; stroke-width: 0.6"/>
      </g>
     </g>
    </g>
    <g id="ytick_31">
     <g id="line2d_62">
      <g>
       <use xlink:href="#m238c6fd39c" x="57.6" y="70.252461" style="stroke: #000000; stroke-width: 0.6"/>
      </g>
     </g>
    </g>
    <g id="ytick_32">
     <g id="line2d_63">
      <g>
       <use xlink:href="#m238c6fd39c" x="57.6" y="65.342721" style="stroke: #000000; stroke-width: 0.6"/>
      </g>
     </g>
    </g>
    <g id="ytick_33">
     <g id="line2d_64">
      <g>
       <use xlink:href="#m238c6fd39c" x="57.6" y="61.08971" style="stroke: #000000; stroke-width: 0.6"/>
      </g>
     </g>
    </g>
    <g id="ytick_34">
     <g id="line2d_65">
      <g>
       <use xlink:href="#m238c6fd39c" x="57.6" y="57.33829" style="stroke: #000000; stroke-width: 0.6"/>
      </g>
     </g>
    </g>
    <g id="text_9">
     <!-- GFLOPS -->
     <g transform="translate(21.020312 194.007688)rotate(-90)scale(0.1 -0.1)">
      <defs>
       <path id="DejaVuSans-47" d="M 3809 666 
L 3809 1919 
L 2778 1919 
L 2778 2438 
L 4434 2438 
L 4434 434 
Q 4069 175 3628 42 
Q 3188 -91 2688 -91 
Q 1594 -91 976 548 
Q 359 1188 359 2328 
Q 359 3472 976 4111 
Q 1594 4750 2688 4750 
Q 3144 4750 3555 4637 
Q 3966 4525 4313 4306 
L 4313 3634 
Q 3963 3931 3569 4081 
Q 3175 4231 2741 4231 
Q 1884 4231 1454 3753 
Q 1025 3275 1025 2328 
Q 1025 1384 1454 906 
Q 1884 428 2741 428 
Q 3075 428 3337 486 
Q 3600 544 3809 666 
z
" transform="scale(0.015625)"/>
       <path id="DejaVuSans-46" d="M 628 4666 
L 3309 4666 
L 3309 4134 
L 1259 4134 
L 1259 2759 
L 3109 2759 
L 3109 2228 
L 1259 2228 
L 1259 0 
L 628 0 
L 628 4666 
z
" transform="scale(0.015625)"/>
       <path id="DejaVuSans-4c" d="M 628 4666 
L 1259 4666 
L 1259 531 
L 3531 531 
L 3531 0 
L 628 0 
L 628 4666 
z
" transform="scale(0.015625)"/>
       <path id="DejaVuSans-4f" d="M 2522 4238 
Q 1834 4238 1429 3725 
Q 1025 3213 1025 2328 
Q 1025 1447 1429 934 
Q 1834 422 2522 422 
Q 3209 422 3611 934 
Q 4013 1447 4013 2328 
Q 4013 3213 3611 3725 
Q 3209 4238 2522 4238 
z
M 2522 4750 
Q 3503 4750 4090 4092 
Q 4678 3434 4678 2328 
Q 4678 1225 4090 567 
Q 3503 -91 2522 -91 
Q 1538 -91 948 565 
Q 359 1222 359 2328 
Q 359 3434 948 4092 
Q 1538 4750 2522 4750 
z
" transform="scale(0.015625)"/>
      </defs>
      <use xlink:href="#DejaVuSans-47"/>
      <use xlink:href="#DejaVuSans-46" x="77.490234"/>
      <use xlink:href="#DejaVuSans-4c" x="135.009766"/>
      <use xlink:href="#DejaVuSans-4f" x="187.097656"/>
      <use xlink:href="#DejaVuSans-50" x="265.808594"/>
      <use xlink:href="#DejaVuSans-53" x="326.111328"/>
     </g>
    </g>
   </g>
   <g id="line2d_66">
    <path d="M 73.832727 175.143228 
L 106.012464 187.890315 
L 124.836403 171.794937 
L 138.1922 162.665153 
L 148.551761 154.743788 
L 157.016139 156.957216 
L 164.172668 157.675673 
L 170.371936 160.495114 
L 180.731497 154.446332 
L 189.195875 154.446191 
L 196.352405 145.008289 
L 202.551673 145.621909 
L 208.019814 147.35197 
L 212.911234 138.918093 
L 221.375612 138.097355 
L 228.532141 130.007477 
L 231.735173 123.94927 
L 234.731409 132.068352 
L 240.199551 132.635674 
L 245.09097 127.389764 
L 247.35608 115.69131 
L 249.515797 132.356799 
L 253.555348 124.129145 
L 260.711877 111.407887 
L 263.914909 124.008404 
L 266.911145 112.026029 
L 272.379287 122.269657 
L 277.270706 117.900914 
L 279.535817 118.82036 
L 281.695534 110.841243 
L 285.735084 112.92293 
L 287.630268 117.183893 
L 291.203226 111.115634 
L 292.891614 104.406167 
L 296.094646 107.972102 
L 298.359756 104.913075 
L 299.090882 103.460445 
L 300.519473 102.89068 
L 303.251175 104.818493 
L 304.559023 102.932314 
L 309.450443 95.303258 
L 310.027165 98.751246 
L 311.715553 95.791635 
L 313.87527 99.71041 
L 314.918585 99.41775 
L 317.914821 93.915291 
L 319.810004 99.581279 
L 322.075114 89.972121 
L 323.382962 89.487677 
L 324.234831 87.521726 
L 325.07135 85.335136 
L 328.274382 84.958952 
L 330.539492 85.08668 
L 331.270618 79.671228 
L 332.699209 89.693387 
L 333.742524 90.256499 
L 335.430911 85.842963 
L 336.73876 81.202935 
L 337.696021 96.170108 
L 338.633943 80.963872 
L 341.630179 76.434837 
L 342.206901 78.762399 
L 343.895289 85.962421 
L 345.790473 92.018874 
L 346.055006 70.522391 
L 347.098321 77.418646 
L 349.363431 80.570856 
L 350.094557 71.354977 
L 351.051819 73.712554 
L 351.523148 88.970787 
L 351.98974 77.009331 
L 354.25485 75.720295 
L 355.562699 70.047106 
L 356.414568 67.725186 
L 357.251086 66.92553 
L 357.457882 71.659163 
L 358.679678 82.316063 
L 360.454118 67.805249 
L 361.03084 68.901655 
L 361.41138 80.98974 
L 362.719228 67.924718 
L 363.450354 74.305112 
L 364.878945 72.006838 
L 365.92226 74.385717 
L 367.610648 68.332427 
L 368.918496 61.73173 
L 370.347087 65.401106 
L 370.813679 64.682128 
L 372.035475 63.940205 
L 373.078789 63.997708 
L 373.809915 57.632293 
L 374.386638 74.12866 
L 375.238507 63.458523 
L 377.970209 61.379267 
L 378.234743 66.750351 
L 379.278057 67.150585 
L 382.395036 59.693933 
L 383.702884 59.6385 
L 384.169477 56.07192 
L 384.746199 57.915808 
L 388.594304 53.568 
L 389.637618 66.827104 
L 394.062446 53.698737 
" clip-path="url(#pe3bc6bd8df)" style="fill: none; stroke: #1f77b4; stroke-width: 1.5; stroke-linecap: square"/>
   </g>
   <g id="line2d_67">
    <path d="M 73.832727 179.09842 
L 106.012464 169.908714 
L 124.836403 174.216062 
L 138.1922 171.976215 
L 148.551761 165.892836 
L 157.016139 168.468446 
L 164.172668 163.283258 
L 170.371936 170.732867 
L 175.840078 168.178531 
L 180.731497 165.722324 
L 189.195875 167.578029 
L 196.352405 166.10742 
L 199.555437 167.87943 
L 202.551673 169.894074 
L 208.019814 168.366321 
L 212.911234 168.210062 
L 215.176344 164.540393 
L 221.375612 168.913363 
L 223.270795 166.266329 
L 226.843753 168.576695 
L 228.532141 168.112022 
L 231.735173 167.591273 
L 234.731409 172.364557 
L 238.891702 171.928569 
L 240.199551 169.017039 
L 245.09097 170.209586 
L 247.35608 168.102872 
L 249.515797 170.741577 
L 250.559112 174.883943 
L 253.555348 172.33458 
L 254.51261 174.377302 
L 255.450531 166.626911 
L 259.02349 173.863456 
L 260.711877 174.274456 
L 263.914909 172.748303 
L 266.180019 177.948034 
L 266.911145 177.494815 
L 268.339736 175.295611 
L 271.071439 171.968607 
L 272.379287 178.47663 
L 274.27447 176.440571 
L 277.270706 178.280599 
L 277.847429 182.81251 
L 279.535817 176.314462 
L 281.695534 181.680974 
L 282.738848 178.157818 
L 285.735084 178.539489 
L 286.692346 180.294702 
L 287.163675 180.577668 
L 287.630268 177.065044 
L 289.895378 183.040012 
L 291.203226 178.695767 
L 292.055095 175.168041 
L 292.891614 180.539958 
L 296.094646 178.759579 
L 297.989829 179.502945 
L 299.090882 183.190676 
L 300.519473 179.91536 
L 301.562787 182.876846 
L 303.251175 180.167905 
L 304.559023 180.32737 
L 305.516285 188.67951 
L 306.454207 178.508174 
L 307.676002 178.134829 
L 309.450443 182.113933 
L 310.027165 181.477729 
L 310.879034 179.134716 
L 311.715553 179.818333 
L 313.610736 180.316547 
L 313.87527 182.132675 
L 314.918585 178.138888 
L 317.183695 188.68236 
L 317.914821 178.9834 
L 318.872082 179.859553 
L 319.343412 183.955687 
L 319.810004 179.20403 
L 322.075114 180.320917 
L 323.382962 182.434402 
L 324.234831 178.757533 
L 325.07135 181.451455 
L 325.278146 177.512714 
L 326.499941 184.90261 
L 328.274382 177.133585 
L 328.851104 186.547233 
L 329.231644 183.108609 
L 330.169565 175.654403 
L 330.539492 178.737328 
L 331.270618 183.601752 
L 332.699209 180.101576 
L 333.742524 180.022121 
L 334.594392 175.789459 
L 335.430911 182.176529 
L 336.73876 179.435125 
L 337.696021 179.862101 
L 338.167351 185.340333 
L 338.633943 174.101816 
L 339.855738 180.836275 
L 340.899053 181.727715 
L 341.630179 180.609695 
L 343.05877 175.705791 
L 343.895289 179.819985 
L 344.852551 188.489163 
L 345.790473 178.458374 
L 346.055006 179.839826 
L 347.098321 178.00292 
L 347.483597 181.234343 
L 349.363431 181.089666 
L 350.2153 179.363388 
L 351.051819 190.843657 
L 351.523148 176.048992 
L 351.98974 175.999644 
L 352.566463 179.345771 
L 354.25485 173.483606 
L 355.562699 180.050588 
L 356.414568 176.288871 
L 356.51996 191.125506 
L 357.251086 193.924231 
L 357.457882 176.772803 
L 358.679678 174.507025 
L 360.454118 174.677464 
L 360.839395 175.738125 
L 361.41138 191.916545 
L 361.882709 177.409538 
L 362.349302 170.375339 
L 362.719228 190.104312 
L 363.450354 189.360412 
L 364.878945 176.496568 
L 365.836207 195.543631 
L 365.92226 175.76382 
L 366.774129 170.452577 
L 367.610648 191.825753 
L 368.18737 193.673364 
L 368.918496 189.14213 
L 370.347087 174.652004 
L 370.813679 166.452914 
L 371.198956 170.410855 
L 372.035475 190.523242 
L 373.078789 190.689551 
L 373.809915 188.112648 
L 374.386638 193.384385 
L 375.238507 167.770513 
L 377.503617 190.418105 
L 378.234743 189.330045 
L 379.278057 190.378687 
L 379.663334 166.816844 
L 379.85478 195.996012 
L 382.395036 189.294803 
L 383.702884 190.490868 
L 384.169477 189.058155 
L 384.746199 188.94192 
L 386.819863 188.794052 
L 388.594304 189.486933 
L 389.171026 192.036017 
L 389.637618 188.784397 
L 393.019131 189.636258 
L 394.062446 192.500664 
L 398.487273 195.442986 
L 398.487273 195.442986 
" clip-path="url(#pe3bc6bd8df)" style="fill: none; stroke: #ff7f0e; stroke-width: 1.5; stroke-linecap: square"/>
   </g>
   <g id="line2d_68"/>
   <g id="line2d_69"/>
   <g id="patch_3">
    <path d="M 57.6 307.584 
L 57.6 41.472 
" style="fill: none; stroke: #000000; stroke-width: 0.8; stroke-linejoin: miter; stroke-linecap: square"/>
   </g>
   <g id="patch_4">
    <path d="M 414.72 307.584 
L 414.72 41.472 
" style="fill: none; stroke: #000000; stroke-width: 0.8; stroke-linejoin: miter; stroke-linecap: square"/>
   </g>
   <g id="patch_5">
    <path d="M 57.6 307.584 
L 414.72 307.584 
" style="fill: none; stroke: #000000; stroke-width: 0.8; stroke-linejoin: miter; stroke-linecap: square"/>
   </g>
   <g id="patch_6">
    <path d="M 57.6 41.472 
L 414.72 41.472 
" style="fill: none; stroke: #000000; stroke-width: 0.8; stroke-linejoin: miter; stroke-linecap: square"/>
   </g>
   <g id="text_10">
    <!-- Performance: CPU vs GPU -->
    <g transform="translate(158.865938 35.472)scale(0.12 -0.12)">
     <defs>
      <path id="DejaVuSans-66" d="M 2375 4863 
L 2375 4384 
L 1825 4384 
Q 1516 4384 1395 4259 
Q 1275 4134 1275 3809 
L 1275 3500 
L 2222 3500 
L 2222 3053 
L 1275 3053 
L 1275 0 
L 697 0 
L 697 3053 
L 147 3053 
L 147 3500 
L 697 3500 
L 697 3744 
Q 697 4328 969 4595 
Q 1241 4863 1831 4863 
L 2375 4863 
z
" transform="scale(0.015625)"/>
      <path id="DejaVuSans-61" d="M 2194 1759 
Q 1497 1759 1228 1600 
Q 959 1441 959 1056 
Q 959 750 1161 570 
Q 1363 391 1709 391 
Q 2188 391 2477 730 
Q 2766 1069 2766 1631 
L 2766 1759 
L 2194 1759 
z
M 3341 1997 
L 3341 0 
L 2766 0 
L 2766 531 
Q 2569 213 2275 61 
Q 1981 -91 1556 -91 
Q 1019 -91 701 211 
Q 384 513 384 1019 
Q 384 1609 779 1909 
Q 1175 2209 1959 2209 
L 2766 2209 
L 2766 2266 
Q 2766 2663 2505 2880 
Q 2244 3097 1772 3097 
Q 1472 3097 1187 3025 
Q 903 2953 641 2809 
L 641 3341 
Q 956 3463 1253 3523 
Q 1550 3584 1831 3584 
Q 2591 3584 2966 3190 
Q 3341 2797 3341 1997 
z
" transform="scale(0.015625)"/>
      <path id="DejaVuSans-6e" d="M 3513 2113 
L 3513 0 
L 2938 0 
L 2938 2094 
Q 2938 2591 2744 2837 
Q 2550 3084 2163 3084 
Q 1697 3084 1428 2787 
Q 1159 2491 1159 1978 
L 1159 0 
L 581 0 
L 581 3500 
L 1159 3500 
L 1159 2956 
Q 1366 3272 1645 3428 
Q 1925 3584 2291 3584 
Q 2894 3584 3203 3211 
Q 3513 2838 3513 2113 
z
" transform="scale(0.015625)"/>
      <path id="DejaVuSans-63" d="M 3122 3366 
L 3122 2828 
Q 2878 2963 2633 3030 
Q 2388 3097 2138 3097 
Q 1578 3097 1268 2742 
Q 959 2388 959 1747 
Q 959 1106 1268 751 
Q 1578 397 2138 397 
Q 2388 397 2633 464 
Q 2878 531 3122 666 
L 3122 134 
Q 2881 22 2623 -34 
Q 2366 -91 2075 -91 
Q 1284 -91 818 406 
Q 353 903 353 1747 
Q 353 2603 823 3093 
Q 1294 3584 2113 3584 
Q 2378 3584 2631 3529 
Q 2884 3475 3122 3366 
z
" transform="scale(0.015625)"/>
      <path id="DejaVuSans-3a" d="M 750 794 
L 1409 794 
L 1409 0 
L 750 0 
L 750 794 
z
M 750 3309 
L 1409 3309 
L 1409 2516 
L 750 2516 
L 750 3309 
z
" transform="scale(0.015625)"/>
      <path id="DejaVuSans-43" d="M 4122 4306 
L 4122 3641 
Q 3803 3938 3442 4084 
Q 3081 4231 2675 4231 
Q 1875 4231 1450 3742 
Q 1025 3253 1025 2328 
Q 1025 1406 1450 917 
Q 1875 428 2675 428 
Q 3081 428 3442 575 
Q 3803 722 4122 1019 
L 4122 359 
Q 3791 134 3420 21 
Q 3050 -91 2638 -91 
Q 1578 -91 968 557 
Q 359 1206 359 2328 
Q 359 3453 968 4101 
Q 1578 4750 2638 4750 
Q 3056 4750 3426 4639 
Q 3797 4528 4122 4306 
z
" transform="scale(0.015625)"/>
      <path id="DejaVuSans-55" d="M 556 4666 
L 1191 4666 
L 1191 1831 
Q 1191 1081 1462 751 
Q 1734 422 2344 422 
Q 2950 422 3222 751 
Q 3494 1081 3494 1831 
L 3494 4666 
L 4128 4666 
L 4128 1753 
Q 4128 841 3676 375 
Q 3225 -91 2344 -91 
Q 1459 -91 1007 375 
Q 556 841 556 1753 
L 556 4666 
z
" transform="scale(0.015625)"/>
      <path id="DejaVuSans-76" d="M 191 3500 
L 800 3500 
L 1894 563 
L 2988 3500 
L 3597 3500 
L 2284 0 
L 1503 0 
L 191 3500 
z
" transform="scale(0.015625)"/>
      <path id="DejaVuSans-73" d="M 2834 3397 
L 2834 2853 
Q 2591 2978 2328 3040 
Q 2066 3103 1784 3103 
Q 1356 3103 1142 2972 
Q 928 2841 928 2578 
Q 928 2378 1081 2264 
Q 1234 2150 1697 2047 
L 1894 2003 
Q 2506 1872 2764 1633 
Q 3022 1394 3022 966 
Q 3022 478 2636 193 
Q 2250 -91 1575 -91 
Q 1294 -91 989 -36 
Q 684 19 347 128 
L 347 722 
Q 666 556 975 473 
Q 1284 391 1588 391 
Q 1994 391 2212 530 
Q 2431 669 2431 922 
Q 2431 1156 2273 1281 
Q 2116 1406 1581 1522 
L 1381 1569 
Q 847 1681 609 1914 
Q 372 2147 372 2553 
Q 372 3047 722 3315 
Q 1072 3584 1716 3584 
Q 2034 3584 2315 3537 
Q 2597 3491 2834 3397 
z
" transform="scale(0.015625)"/>
     </defs>
     <use xlink:href="#DejaVuSans-50"/>
     <use xlink:href="#DejaVuSans-65" x="56.677734"/>
     <use xlink:href="#DejaVuSans-72" x="118.201172"/>
     <use xlink:href="#DejaVuSans-66" x="159.314453"/>
     <use xlink:href="#DejaVuSans-6f" x="194.519531"/>
     <use xlink:href="#DejaVuSans-72" x="255.701172"/>
     <use xlink:href="#DejaVuSans-6d" x="295.064453"/>
     <use xlink:href="#DejaVuSans-61" x="392.476562"/>
     <use xlink:href="#DejaVuSans-6e" x="453.755859"/>
     <use xlink:href="#DejaVuSans-63" x="517.134766"/>
     <use xlink:href="#DejaVuSans-65" x="572.115234"/>
     <use xlink:href="#DejaVuSans-3a" x="633.638672"/>
     <use xlink:href="#DejaVuSans-20" x="667.330078"/>
     <use xlink:href="#DejaVuSans-43" x="699.117188"/>
     <use xlink:href="#DejaVuSans-50" x="768.941406"/>
     <use xlink:href="#DejaVuSans-55" x="829.244141"/>
     <use xlink:href="#DejaVuSans-20" x="902.4375"/>
     <use xlink:href="#DejaVuSans-76" x="934.224609"/>
     <use xlink:href="#DejaVuSans-73" x="993.404297"/>
     <use xlink:href="#DejaVuSans-20" x="1045.503906"/>
     <use xlink:href="#DejaVuSans-47" x="1077.291016"/>
     <use xlink:href="#DejaVuSans-50" x="1154.78125"/>
     <use xlink:href="#DejaVuSans-55" x="1215.083984"/>
    </g>
   </g>
   <g id="legend_1">
    <g id="patch_7">
     <path d="M 64.6 93.506375 
L 165.278125 93.506375 
Q 167.278125 93.506375 167.278125 91.506375 
L 167.278125 48.472 
Q 167.278125 46.472 165.278125 46.472 
L 64.6 46.472 
Q 62.6 46.472 62.6 48.472 
L 62.6 91.506375 
Q 62.6 93.506375 64.6 93.506375 
z
" style="fill: #ffffff; opacity: 0.8; stroke: #cccccc; stroke-linejoin: miter"/>
    </g>
    <g id="text_11">
     <!-- Cluster -->
     <g transform="translate(97.192969 58.070438)scale(0.1 -0.1)">
      <defs>
       <path id="DejaVuSans-75" d="M 544 1381 
L 544 3500 
L 1119 3500 
L 1119 1403 
Q 1119 906 1312 657 
Q 1506 409 1894 409 
Q 2359 409 2629 706 
Q 2900 1003 2900 1516 
L 2900 3500 
L 3475 3500 
L 3475 0 
L 2900 0 
L 2900 538 
Q 2691 219 2414 64 
Q 2138 -91 1772 -91 
Q 1169 -91 856 284 
Q 544 659 544 1381 
z
M 1991 3584 
L 1991 3584 
z
" transform="scale(0.015625)"/>
       <path id="DejaVuSans-74" d="M 1172 4494 
L 1172 3500 
L 2356 3500 
L 2356 3053 
L 1172 3053 
L 1172 1153 
Q 1172 725 1289 603 
Q 1406 481 1766 481 
L 2356 481 
L 2356 0 
L 1766 0 
Q 1100 0 847 248 
Q 594 497 594 1153 
L 594 3053 
L 172 3053 
L 172 3500 
L 594 3500 
L 594 4494 
L 1172 4494 
z
" transform="scale(0.015625)"/>
      </defs>
      <use xlink:href="#DejaVuSans-43"/>
      <use xlink:href="#DejaVuSans-6c" x="69.824219"/>
      <use xlink:href="#DejaVuSans-75" x="97.607422"/>
      <use xlink:href="#DejaVuSans-73" x="160.986328"/>
      <use xlink:href="#DejaVuSans-74" x="213.085938"/>
      <use xlink:href="#DejaVuSans-65" x="252.294922"/>
      <use xlink:href="#DejaVuSans-72" x="313.818359"/>
     </g>
    </g>
    <g id="line2d_70">
     <path d="M 66.6 69.248563 
L 76.6 69.248563 
L 86.6 69.248563 
" style="fill: none; stroke: #1f77b4; stroke-width: 1.5; stroke-linecap: square"/>
    </g>
    <g id="text_12">
     <!-- Hopper (GPU) -->
     <g transform="translate(94.6 72.748563)scale(0.1 -0.1)">
      <defs>
       <path id="DejaVuSans-48" d="M 628 4666 
L 1259 4666 
L 1259 2753 
L 3553 2753 
L 3553 4666 
L 4184 4666 
L 4184 0 
L 3553 0 
L 3553 2222 
L 1259 2222 
L 1259 0 
L 628 0 
L 628 4666 
z
" transform="scale(0.015625)"/>
       <path id="DejaVuSans-70" d="M 1159 525 
L 1159 -1331 
L 581 -1331 
L 581 3500 
L 1159 3500 
L 1159 2969 
Q 1341 3281 1617 3432 
Q 1894 3584 2278 3584 
Q 2916 3584 3314 3078 
Q 3713 2572 3713 1747 
Q 3713 922 3314 415 
Q 2916 -91 2278 -91 
Q 1894 -91 1617 61 
Q 1341 213 1159 525 
z
M 3116 1747 
Q 3116 2381 2855 2742 
Q 2594 3103 2138 3103 
Q 1681 3103 1420 2742 
Q 1159 2381 1159 1747 
Q 1159 1113 1420 752 
Q 1681 391 2138 391 
Q 2594 391 2855 752 
Q 3116 1113 3116 1747 
z
" transform="scale(0.015625)"/>
       <path id="DejaVuSans-28" d="M 1984 4856 
Q 1566 4138 1362 3434 
Q 1159 2731 1159 2009 
Q 1159 1288 1364 580 
Q 1569 -128 1984 -844 
L 1484 -844 
Q 1016 -109 783 600 
Q 550 1309 550 2009 
Q 550 2706 781 3412 
Q 1013 4119 1484 4856 
L 1984 4856 
z
" transform="scale(0.015625)"/>
       <path id="DejaVuSans-29" d="M 513 4856 
L 1013 4856 
Q 1481 4119 1714 3412 
Q 1947 2706 1947 2009 
Q 1947 1309 1714 600 
Q 1481 -109 1013 -844 
L 513 -844 
Q 928 -128 1133 580 
Q 1338 1288 1338 2009 
Q 1338 2731 1133 3434 
Q 928 4138 513 4856 
z
" transform="scale(0.015625)"/>
      </defs>
      <use xlink:href="#DejaVuSans-48"/>
      <use xlink:href="#DejaVuSans-6f" x="75.195312"/>
      <use xlink:href="#DejaVuSans-70" x="136.376953"/>
      <use xlink:href="#DejaVuSans-70" x="199.853516"/>
      <use xlink:href="#DejaVuSans-65" x="263.330078"/>
      <use xlink:href="#DejaVuSans-72" x="324.853516"/>
      <use xlink:href="#DejaVuSans-20" x="365.966797"/>
      <use xlink:href="#DejaVuSans-28" x="397.753906"/>
      <use xlink:href="#DejaVuSans-47" x="436.767578"/>
      <use xlink:href="#DejaVuSans-50" x="514.257812"/>
      <use xlink:href="#DejaVuSans-55" x="574.560547"/>
      <use xlink:href="#DejaVuSans-29" x="647.753906"/>
     </g>
    </g>
    <g id="line2d_71">
     <path d="M 66.6 83.926688 
L 76.6 83.926688 
L 86.6 83.926688 
" style="fill: none; stroke: #ff7f0e; stroke-width: 1.5; stroke-linecap: square"/>
    </g>
    <g id="text_13">
     <!-- Hopper -->
     <g transform="translate(94.6 87.426688)scale(0.1 -0.1)">
      <use xlink:href="#DejaVuSans-48"/>
      <use xlink:href="#DejaVuSans-6f" x="75.195312"/>
      <use xlink:href="#DejaVuSans-70" x="136.376953"/>
      <use xlink:href="#DejaVuSans-70" x="199.853516"/>
      <use xlink:href="#DejaVuSans-65" x="263.330078"/>
      <use xlink:href="#DejaVuSans-72" x="324.853516"/>
     </g>
    </g>
   </g>
  </g>
 </g>
 <defs>
  <clipPath id="pe3bc6bd8df">
   <rect x="57.6" y="41.472" width="357.12" height="266.112"/>
  </clipPath>
 </defs>
</svg>
