<?xml version="1.0" encoding="utf-8" standalone="no"?>
<!DOCTYPE svg PUBLIC "-//W3C//DTD SVG 1.1//EN"
  "http://www.w3.org/Graphics/SVG/1.1/DTD/svg11.dtd">
<svg xmlns:xlink="http://www.w3.org/1999/xlink" width="460.8pt" height="345.6pt" viewBox="0 0 460.8 345.6" xmlns="http://www.w3.org/2000/svg" version="1.1">
 <metadata>
  <rdf:RDF xmlns:dc="http://purl.org/dc/elements/1.1/" xmlns:cc="http://creativecommons.org/ns#" xmlns:rdf="http://www.w3.org/1999/02/22-rdf-syntax-ns#">
   <cc:Work>
    <dc:type rdf:resource="http://purl.org/dc/dcmitype/StillImage"/>
    <dc:date>2024-05-02T16:23:56.307233</dc:date>
    <dc:format>image/svg+xml</dc:format>
    <dc:creator>
     <cc:Agent>
      <dc:title>Matplotlib v3.5.3, https://matplotlib.org/</dc:title>
     </cc:Agent>
    </dc:creator>
   </cc:Work>
  </rdf:RDF>
 </metadata>
 <defs>
  <style type="text/css">*{stroke-linejoin: round; stroke-linecap: butt}</style>
 </defs>
 <g id="figure_1">
  <g id="patch_1">
   <path d="M 0 345.6 
L 460.8 345.6 
L 460.8 0 
L 0 0 
z
" style="fill: #ffffff"/>
  </g>
  <g id="axes_1">
   <g id="patch_2">
    <path d="M 57.6 307.584 
L 414.72 307.584 
L 414.72 41.472 
L 57.6 41.472 
z
" style="fill: #ffffff"/>
   </g>
   <g id="PolyCollection_1">
    <path d="M 73.832904 239.290359 
L 73.832904 240.844843 
L 73.833081 241.832742 
L 73.833258 240.608406 
L 73.833435 238.597584 
L 73.833612 241.481025 
L 73.833789 241.78364 
L 73.833966 239.096513 
L 73.834143 245.944619 
L 73.83432 238.936817 
L 73.834673 244.042436 
L 73.835027 239.965665 
L 73.835204 257.306772 
L 73.835381 244.159542 
L 73.835735 256.685961 
L 73.836089 250.451272 
L 73.836266 260.560388 
L 73.836796 255.297923 
L 73.836973 273.747491 
L 73.836973 233.240848 
L 73.836973 233.240848 
L 73.836796 243.502905 
L 73.836266 237.346086 
L 73.836089 238.483458 
L 73.835735 241.894558 
L 73.835381 237.596562 
L 73.835204 237.97702 
L 73.835027 235.941901 
L 73.834673 238.663136 
L 73.83432 237.665614 
L 73.834143 238.312637 
L 73.833966 237.232454 
L 73.833789 235.235981 
L 73.833612 238.761458 
L 73.833435 237.022747 
L 73.833258 237.947055 
L 73.833081 238.757357 
L 73.832904 239.290359 
z
" clip-path="url(#pd08130a686)" style="fill: #1f77b4; fill-opacity: 0.2; stroke: #1f77b4; stroke-opacity: 0.2"/>
    <path d="M 73.837504 244.160123 
L 73.837504 259.952107 
L 73.837858 259.212912 
L 73.838212 257.60737 
L 73.838743 272.957404 
L 73.83892 256.302087 
L 73.839627 256.146556 
L 73.839981 263.728228 
L 73.840335 254.891424 
L 73.840512 271.493464 
L 73.841043 261.892774 
L 73.84122 264.154723 
L 73.841396 269.687769 
L 73.842104 268.395896 
L 73.842458 266.719326 
L 73.843166 269.079341 
L 73.843696 272.899114 
L 73.843873 263.547648 
L 73.844227 274.674062 
L 73.844935 269.145227 
L 73.845289 271.642676 
L 73.84582 276.726833 
L 73.846704 272.519997 
L 73.846881 278.125411 
L 73.847412 269.97465 
L 73.84812 278.21279 
L 73.848473 275.865929 
L 73.849535 274.671624 
L 73.849889 269.679374 
L 73.850066 278.06285 
L 73.850243 276.939928 
L 73.851127 277.640205 
L 73.851658 275.951423 
L 73.852012 278.309837 
L 73.852366 273.858607 
L 73.853781 275.927175 
L 73.853781 266.031918 
L 73.853781 266.031918 
L 73.852366 263.698832 
L 73.852012 251.832732 
L 73.851658 270.078716 
L 73.851127 267.272213 
L 73.850243 257.928428 
L 73.850066 278.00754 
L 73.849889 260.09975 
L 73.849535 262.449385 
L 73.848473 263.190853 
L 73.84812 260.96597 
L 73.847412 256.98528 
L 73.846881 256.732635 
L 73.846704 258.857184 
L 73.84582 272.621317 
L 73.845289 261.734827 
L 73.844935 249.141429 
L 73.844227 257.061214 
L 73.843873 208.472703 
L 73.843696 241.768629 
L 73.843166 258.456941 
L 73.842458 255.48407 
L 73.842104 248.20379 
L 73.841396 232.559521 
L 73.84122 256.645625 
L 73.841043 251.019727 
L 73.840512 257.552364 
L 73.840335 236.810563 
L 73.839981 247.095713 
L 73.839627 242.50034 
L 73.83892 242.146517 
L 73.838743 249.733597 
L 73.838212 242.744072 
L 73.837858 242.520268 
L 73.837504 244.160123 
z
" clip-path="url(#pd08130a686)" style="fill: #1f77b4; fill-opacity: 0.2; stroke: #1f77b4; stroke-opacity: 0.2"/>
    <path d="M 73.854843 266.919457 
L 73.854843 275.301202 
L 73.855196 264.418214 
L 73.855904 278.085659 
L 73.856435 278.087341 
L 73.85732 275.901416 
L 73.858027 276.830675 
L 73.858558 278.207053 
L 73.859089 278.147414 
L 73.859796 274.659942 
L 73.860858 276.86223 
L 73.861212 274.844703 
L 73.861743 278.169056 
L 73.862273 273.826886 
L 73.863512 278.301467 
L 73.863689 277.523006 
L 73.864396 276.387311 
L 73.865989 277.878602 
L 73.86652 260.027034 
L 73.867227 263.222541 
L 73.867581 277.936481 
L 73.867935 278.266229 
L 73.869704 277.978925 
L 73.870766 277.442911 
L 73.871473 278.91754 
L 73.872181 270.635827 
L 73.872358 278.056871 
L 73.87342 278.539283 
L 73.875012 276.181143 
L 73.875012 267.765057 
L 73.875012 267.765057 
L 73.87342 262.592734 
L 73.872358 277.859902 
L 73.872181 262.17131 
L 73.871473 269.564737 
L 73.870766 270.646812 
L 73.869704 270.566442 
L 73.867935 272.34528 
L 73.867581 263.904497 
L 73.867227 261.107069 
L 73.86652 173.133551 
L 73.865989 267.49844 
L 73.864396 268.997666 
L 73.863689 266.417834 
L 73.863512 275.080327 
L 73.862273 265.440863 
L 73.861743 263.718787 
L 73.861212 263.624654 
L 73.860858 269.631408 
L 73.859796 255.070533 
L 73.859089 266.943968 
L 73.858558 262.583193 
L 73.858027 270.751975 
L 73.85732 263.243689 
L 73.856435 267.644425 
L 73.855904 267.635046 
L 73.855196 144.912895 
L 73.854843 266.919457 
z
" clip-path="url(#pd08130a686)" style="fill: #1f77b4; fill-opacity: 0.2; stroke: #1f77b4; stroke-opacity: 0.2"/>
    <path d="M 73.875543 262.570472 
L 73.875543 278.323398 
L 73.875896 278.214991 
L 73.876781 278.351358 
L 73.877135 276.139939 
L 73.877843 208.490581 
L 73.879258 276.625523 
L 73.88032 278.289277 
L 73.881204 278.475895 
L 73.882089 276.496547 
L 73.883504 277.266827 
L 73.884566 277.691122 
L 73.885096 278.586057 
L 73.885627 278.7314 
L 73.887043 278.751898 
L 73.888281 275.83436 
L 73.889166 269.189384 
L 73.889873 278.433471 
L 73.890935 278.717963 
L 73.891996 275.686366 
L 73.891996 265.589092 
L 73.891996 265.589092 
L 73.890935 270.700674 
L 73.889873 268.113259 
L 73.889166 147.177364 
L 73.888281 262.96112 
L 73.887043 267.083615 
L 73.885627 268.514523 
L 73.885096 267.306133 
L 73.884566 262.90503 
L 73.883504 268.016407 
L 73.882089 267.292418 
L 73.881204 278.221097 
L 73.88032 269.219731 
L 73.879258 265.690765 
L 73.877843 81.933471 
L 73.877135 266.140567 
L 73.876781 277.699111 
L 73.875896 262.500762 
L 73.875543 262.570472 
z
" clip-path="url(#pd08130a686)" style="fill: #1f77b4; fill-opacity: 0.2; stroke: #1f77b4; stroke-opacity: 0.2"/>
    <path d="M 73.894473 260.754448 
L 73.894473 278.007934 
L 73.894827 278.685534 
L 73.896243 275.842038 
L 73.896243 267.679358 
L 73.896243 267.679358 
L 73.894827 262.997892 
L 73.894473 260.754448 
z
" clip-path="url(#pd08130a686)" style="fill: #1f77b4; fill-opacity: 0.2; stroke: #1f77b4; stroke-opacity: 0.2"/>
    <path d="M 73.899427 268.243052 
L 73.899427 278.479588 
L 73.900489 172.267892 
L 73.900666 277.826726 
L 73.901904 278.317139 
L 73.902612 278.585425 
L 73.903319 278.576618 
L 73.904204 278.362171 
L 73.906858 263.11187 
L 73.908981 276.135158 
L 73.910396 278.638183 
L 73.910573 278.49724 
L 73.911812 241.810391 
L 73.912166 278.663451 
L 73.914289 274.392214 
L 73.917473 274.658384 
L 73.917473 262.954132 
L 73.917473 262.954132 
L 73.914289 261.715697 
L 73.912166 267.546054 
L 73.911812 96.561902 
L 73.910573 263.404195 
L 73.910396 267.935943 
L 73.908981 265.782987 
L 73.906858 261.58868 
L 73.904204 263.38664 
L 73.903319 266.30162 
L 73.902612 268.045754 
L 73.901904 263.097368 
L 73.900666 261.375097 
L 73.900489 87.138542 
L 73.899427 268.243052 
z
" clip-path="url(#pd08130a686)" style="fill: #1f77b4; fill-opacity: 0.2; stroke: #1f77b4; stroke-opacity: 0.2"/>
    <path d="M 73.918535 261.205783 
L 73.918535 278.622719 
L 73.919243 278.011738 
L 73.920127 278.639014 
L 73.920127 267.196625 
L 73.920127 267.196625 
L 73.919243 263.818893 
L 73.918535 261.205783 
z
" clip-path="url(#pd08130a686)" style="fill: #1f77b4; fill-opacity: 0.2; stroke: #1f77b4; stroke-opacity: 0.2"/>
    <path d="M 73.921719 263.083418 
L 73.921719 270.421464 
L 73.923135 133.50257 
L 73.925966 278.65162 
L 73.927912 277.632683 
L 73.928089 278.704005 
L 73.929858 278.876041 
L 73.931627 277.557859 
L 73.932866 278.6303 
L 73.934458 231.09828 
L 73.937642 274.716792 
L 73.937642 262.290805 
L 73.937642 262.290805 
L 73.934458 100.618836 
L 73.932866 263.073708 
L 73.931627 262.99204 
L 73.929858 278.658133 
L 73.928089 262.357653 
L 73.927912 277.61266 
L 73.925966 267.166682 
L 73.923135 72.305022 
L 73.921719 263.083418 
z
" clip-path="url(#pd08130a686)" style="fill: #1f77b4; fill-opacity: 0.2; stroke: #1f77b4; stroke-opacity: 0.2"/>
    <path d="M 73.941535 263.361707 
L 73.941535 274.031451 
L 73.944012 274.813158 
L 73.945781 189.569428 
L 73.947196 278.612618 
L 73.949319 278.511182 
L 73.955158 274.609193 
L 73.955158 263.599205 
L 73.955158 263.599205 
L 73.949319 261.005303 
L 73.947196 263.083121 
L 73.945781 67.620062 
L 73.944012 263.075743 
L 73.941535 263.361707 
z
" clip-path="url(#pd08130a686)" style="fill: #1f77b4; fill-opacity: 0.2; stroke: #1f77b4; stroke-opacity: 0.2"/>
    <path d="M 73.957104 263.272407 
L 73.957104 263.612562 
L 73.959935 274.827151 
L 73.959935 263.130315 
L 73.959935 263.130315 
L 73.957104 263.272407 
z
" clip-path="url(#pd08130a686)" style="fill: #1f77b4; fill-opacity: 0.2; stroke: #1f77b4; stroke-opacity: 0.2"/>
    <path d="M 73.968427 66.68996 
L 73.968427 71.502537 
L 73.968781 263.86825 
L 73.972673 274.890412 
L 73.972673 263.286909 
L 73.972673 263.286909 
L 73.968781 263.266301 
L 73.968427 66.68996 
z
" clip-path="url(#pd08130a686)" style="fill: #1f77b4; fill-opacity: 0.2; stroke: #1f77b4; stroke-opacity: 0.2"/>
    <path d="M 73.975858 263.51283 
L 73.975858 263.558371 
L 73.975858 263.51283 
L 73.975858 263.51283 
z
" clip-path="url(#pd08130a686)" style="fill: #1f77b4; fill-opacity: 0.2; stroke: #1f77b4; stroke-opacity: 0.2"/>
    <path d="M 73.988242 263.693212 
L 73.988242 263.705932 
L 73.990189 278.625797 
L 73.991073 66.935504 
L 73.991073 61.529386 
L 73.991073 61.529386 
L 73.990189 263.165806 
L 73.988242 263.693212 
z
" clip-path="url(#pd08130a686)" style="fill: #1f77b4; fill-opacity: 0.2; stroke: #1f77b4; stroke-opacity: 0.2"/>
    <path d="M 74.002396 60.762062 
L 74.002396 68.273264 
L 74.002396 60.762062 
L 74.002396 60.762062 
z
" clip-path="url(#pd08130a686)" style="fill: #1f77b4; fill-opacity: 0.2; stroke: #1f77b4; stroke-opacity: 0.2"/>
    <path d="M 74.007704 263.779713 
L 74.007704 278.648466 
L 74.013719 76.787218 
L 74.013719 66.333996 
L 74.013719 66.333996 
L 74.007704 263.779713 
z
" clip-path="url(#pd08130a686)" style="fill: #1f77b4; fill-opacity: 0.2; stroke: #1f77b4; stroke-opacity: 0.2"/>
    <path d="M 74.036365 63.052334 
L 74.036365 70.878545 
L 74.059012 95.369285 
L 74.070335 70.043197 
L 74.104304 80.722732 
L 74.115627 95.531134 
L 74.115627 72.776391 
L 74.115627 72.776391 
L 74.104304 68.496123 
L 74.070335 53.568 
L 74.059012 68.545211 
L 74.036365 63.052334 
z
" clip-path="url(#pd08130a686)" style="fill: #1f77b4; fill-opacity: 0.2; stroke: #1f77b4; stroke-opacity: 0.2"/>
    <path d="M 74.149596 65.449267 
L 74.149596 94.464479 
L 74.172242 99.642154 
L 74.194888 106.22537 
L 74.228857 123.756694 
L 74.24018 96.401235 
L 74.285473 104.668641 
L 74.308119 105.706701 
L 74.330765 82.277315 
L 74.342088 84.161523 
L 74.376057 113.843801 
L 74.38738 140.730487 
L 74.398703 93.955534 
L 74.443995 97.91805 
L 74.466642 122.057502 
L 74.511934 120.480488 
L 74.545903 116.435762 
L 74.557226 204.463873 
L 74.579872 116.490588 
L 74.625164 114.854055 
L 74.647811 155.10593 
L 74.68178 131.619329 
L 74.738395 157.806798 
L 74.749718 137.805208 
L 74.783687 160.261343 
L 74.828979 132.219243 
L 74.851626 137.575868 
L 74.919564 161.990817 
L 74.94221 219.857022 
L 74.953533 144.85254 
L 74.964856 143.02854 
L 75.021471 146.565144 
L 75.055441 140.0665 
L 75.078087 145.818814 
L 75.100733 149.547387 
L 75.191317 147.489573 
L 75.191317 137.162168 
L 75.191317 137.162168 
L 75.100733 121.807254 
L 75.078087 114.546339 
L 75.055441 127.193019 
L 75.021471 135.806513 
L 74.964856 120.268488 
L 74.953533 126.513193 
L 74.94221 99.17056 
L 74.919564 134.421312 
L 74.851626 119.725589 
L 74.828979 118.16503 
L 74.783687 110.172379 
L 74.749718 131.250425 
L 74.738395 127.311912 
L 74.68178 121.410873 
L 74.647811 121.065532 
L 74.625164 86.347264 
L 74.579872 75.047248 
L 74.557226 118.596193 
L 74.545903 111.443604 
L 74.511934 97.509478 
L 74.466642 89.118825 
L 74.443995 73.801944 
L 74.398703 68.076049 
L 74.38738 99.693131 
L 74.376057 94.34162 
L 74.342088 78.691826 
L 74.330765 57.495637 
L 74.308119 74.992955 
L 74.285473 73.959839 
L 74.24018 69.868817 
L 74.228857 86.621576 
L 74.194888 71.445289 
L 74.172242 74.317069 
L 74.149596 65.449267 
z
" clip-path="url(#pd08130a686)" style="fill: #1f77b4; fill-opacity: 0.2; stroke: #1f77b4; stroke-opacity: 0.2"/>
    <path d="M 75.259256 129.637628 
L 75.259256 146.713167 
L 75.281902 275.226186 
L 75.327194 151.001329 
L 75.361163 151.785131 
L 75.417778 150.23559 
L 75.463071 152.581774 
L 75.463071 141.180016 
L 75.463071 141.180016 
L 75.417778 136.280303 
L 75.361163 146.832726 
L 75.327194 135.003915 
L 75.281902 169.160662 
L 75.259256 129.637628 
z
" clip-path="url(#pd08130a686)" style="fill: #1f77b4; fill-opacity: 0.2; stroke: #1f77b4; stroke-opacity: 0.2"/>
    <path d="M 75.531009 142.147609 
L 75.531009 149.705953 
L 75.576301 142.135374 
L 75.64424 155.24318 
L 75.666886 151.932998 
L 75.700855 157.822813 
L 75.734824 153.954921 
L 75.814086 154.244574 
L 75.825409 151.40427 
L 75.870701 151.583777 
L 75.972608 154.330312 
L 76.006578 257.010066 
L 76.006578 164.756584 
L 76.006578 164.756584 
L 75.972608 153.512618 
L 75.870701 144.165466 
L 75.825409 141.00602 
L 75.814086 153.41823 
L 75.734824 140.396523 
L 75.700855 148.349875 
L 75.666886 146.279104 
L 75.64424 147.196955 
L 75.576301 131.172319 
L 75.531009 142.147609 
z
" clip-path="url(#pd08130a686)" style="fill: #1f77b4; fill-opacity: 0.2; stroke: #1f77b4; stroke-opacity: 0.2"/>
    <path d="M 76.074516 142.781513 
L 76.074516 152.382145 
L 76.097162 154.58092 
L 76.210393 152.405529 
L 76.278331 155.885941 
L 76.323623 156.759055 
L 76.368915 154.911145 
L 76.380238 153.478526 
L 76.448177 156.353177 
L 76.550084 154.855689 
L 76.550084 148.547543 
L 76.550084 148.547543 
L 76.448177 154.399514 
L 76.380238 153.143969 
L 76.368915 153.994228 
L 76.323623 147.23939 
L 76.278331 148.821096 
L 76.210393 144.444287 
L 76.097162 149.464727 
L 76.074516 142.781513 
z
" clip-path="url(#pd08130a686)" style="fill: #1f77b4; fill-opacity: 0.2; stroke: #1f77b4; stroke-opacity: 0.2"/>
    <path d="M 76.663315 154.229564 
L 76.663315 160.994748 
L 76.685961 152.072049 
L 76.731253 295.488 
L 76.821838 153.246906 
L 76.889776 154.553817 
L 76.946391 162.597063 
L 77.003007 154.654693 
L 77.093591 150.438378 
L 77.093591 147.062719 
L 77.093591 147.062719 
L 77.003007 152.163703 
L 76.946391 154.034681 
L 76.889776 148.50373 
L 76.821838 148.303037 
L 76.731253 234.159819 
L 76.685961 145.115353 
L 76.663315 154.229564 
z
" clip-path="url(#pd08130a686)" style="fill: #1f77b4; fill-opacity: 0.2; stroke: #1f77b4; stroke-opacity: 0.2"/>
    <path d="M 77.195499 154.78241 
L 77.195499 154.932007 
L 77.229468 155.054178 
L 77.320052 154.463881 
L 77.399314 155.761659 
L 77.455929 271.488093 
L 77.501221 158.055985 
L 77.56916 157.894343 
L 77.637098 148.450496 
L 77.795621 153.318499 
L 77.818267 152.608677 
L 77.908851 156.821339 
L 77.908851 150.444527 
L 77.908851 150.444527 
L 77.818267 151.851534 
L 77.795621 148.256631 
L 77.637098 147.806823 
L 77.56916 149.873913 
L 77.501221 147.69895 
L 77.455929 176.806627 
L 77.399314 152.795927 
L 77.320052 152.654218 
L 77.229468 149.95678 
L 77.195499 154.78241 
z
" clip-path="url(#pd08130a686)" style="fill: #1f77b4; fill-opacity: 0.2; stroke: #1f77b4; stroke-opacity: 0.2"/>
    <path d="M 78.112666 148.939739 
L 78.112666 151.475761 
L 78.180605 295.19863 
L 78.191928 161.586775 
L 78.316481 158.01159 
L 78.361774 155.544642 
L 78.361774 148.955513 
L 78.361774 148.955513 
L 78.316481 149.508232 
L 78.191928 152.890825 
L 78.180605 246.44922 
L 78.112666 148.939739 
z
" clip-path="url(#pd08130a686)" style="fill: #1f77b4; fill-opacity: 0.2; stroke: #1f77b4; stroke-opacity: 0.2"/>
    <path d="M 78.588235 149.404049 
L 78.588235 149.770917 
L 78.724111 153.049581 
L 78.814696 156.553784 
L 78.90528 294.242928 
L 78.927927 156.125474 
L 79.063803 150.031185 
L 79.267618 150.82471 
L 79.267618 150.227849 
L 79.267618 150.227849 
L 79.063803 149.359526 
L 78.927927 149.567638 
L 78.90528 294.120905 
L 78.814696 154.099938 
L 78.724111 149.62997 
L 78.588235 149.404049 
z
" clip-path="url(#pd08130a686)" style="fill: #1f77b4; fill-opacity: 0.2; stroke: #1f77b4; stroke-opacity: 0.2"/>
    <path d="M 79.437464 156.349615 
L 79.437464 156.469699 
L 79.437464 156.349615 
L 79.437464 156.349615 
z
" clip-path="url(#pd08130a686)" style="fill: #1f77b4; fill-opacity: 0.2; stroke: #1f77b4; stroke-opacity: 0.2"/>
    <path d="M 79.629956 294.539552 
L 79.629956 295.194752 
L 79.811125 150.455552 
L 79.947002 154.293168 
L 80.060232 157.19504 
L 80.354632 294.914124 
L 80.558447 150.863635 
L 80.558447 150.501601 
L 80.558447 150.501601 
L 80.354632 294.884662 
L 80.060232 156.719027 
L 79.947002 150.969218 
L 79.811125 149.180671 
L 79.629956 294.539552 
z
" clip-path="url(#pd08130a686)" style="fill: #1f77b4; fill-opacity: 0.2; stroke: #1f77b4; stroke-opacity: 0.2"/>
    <path d="M 81.079308 294.68533 
L 81.079308 294.737763 
L 81.305769 151.450065 
L 81.305769 151.342192 
L 81.305769 151.342192 
L 81.079308 294.68533 
z
" clip-path="url(#pd08130a686)" style="fill: #1f77b4; fill-opacity: 0.2; stroke: #1f77b4; stroke-opacity: 0.2"/>
    <path d="M 82.528659 294.478055 
L 82.528659 294.834941 
L 83.97801 294.290951 
L 84.702686 294.120093 
L 85.427362 294.949816 
L 86.876713 294.581442 
L 88.326065 294.28358 
L 89.05074 293.179239 
L 91.224768 294.322754 
L 91.949443 292.916083 
L 91.949443 292.566057 
L 91.949443 292.566057 
L 91.224768 293.440305 
L 89.05074 293.025895 
L 88.326065 293.439828 
L 86.876713 293.814122 
L 85.427362 294.179319 
L 84.702686 294.021681 
L 83.97801 294.186379 
L 82.528659 294.478055 
z
" clip-path="url(#pd08130a686)" style="fill: #1f77b4; fill-opacity: 0.2; stroke: #1f77b4; stroke-opacity: 0.2"/>
    <path d="M 94.12347 292.350694 
L 94.12347 293.702935 
L 95.572822 293.869317 
L 97.022173 294.732003 
L 99.196201 291.294503 
L 99.920876 293.691532 
L 102.819579 293.66971 
L 104.268931 293.284376 
L 105.718282 293.402552 
L 106.442958 293.157193 
L 108.616985 294.057085 
L 108.616985 292.628943 
L 108.616985 292.628943 
L 106.442958 293.00752 
L 105.718282 293.136204 
L 104.268931 291.186564 
L 102.819579 292.150235 
L 99.920876 292.897917 
L 99.196201 291.252162 
L 97.022173 293.370845 
L 95.572822 292.557149 
L 94.12347 292.350694 
z
" clip-path="url(#pd08130a686)" style="fill: #1f77b4; fill-opacity: 0.2; stroke: #1f77b4; stroke-opacity: 0.2"/>
    <path d="M 110.066336 292.480166 
L 110.066336 292.724202 
L 112.965039 292.406797 
L 114.414391 293.136649 
L 117.313094 292.116325 
L 119.487121 291.695546 
L 120.211796 294.398062 
L 121.661148 291.79833 
L 124.559851 291.458691 
L 126.009202 292.823944 
L 128.183229 290.857524 
L 131.806608 292.918181 
L 132.531284 290.73375 
L 134.705311 290.59774 
L 137.604014 290.281856 
L 139.053365 290.083273 
L 143.401419 293.792067 
L 143.401419 291.662635 
L 143.401419 291.662635 
L 139.053365 289.830073 
L 137.604014 290.130389 
L 134.705311 290.23194 
L 132.531284 290.532304 
L 131.806608 290.868897 
L 128.183229 290.715153 
L 126.009202 291.28722 
L 124.559851 291.349203 
L 121.661148 291.596355 
L 120.211796 292.46457 
L 119.487121 291.63586 
L 117.313094 291.906114 
L 114.414391 290.693249 
L 112.965039 292.221502 
L 110.066336 292.480166 
z
" clip-path="url(#pd08130a686)" style="fill: #1f77b4; fill-opacity: 0.2; stroke: #1f77b4; stroke-opacity: 0.2"/>
    <path d="M 145.575447 289.441697 
L 145.575447 289.791011 
L 146.300122 289.613947 
L 149.923501 289.852497 
L 152.097528 290.113141 
L 153.54688 289.708707 
L 154.996231 293.525675 
L 160.793637 290.978549 
L 160.793637 288.980519 
L 160.793637 288.980519 
L 154.996231 289.784756 
L 153.54688 289.223827 
L 152.097528 289.381709 
L 149.923501 289.497681 
L 146.300122 289.337898 
L 145.575447 289.441697 
z
" clip-path="url(#pd08130a686)" style="fill: #1f77b4; fill-opacity: 0.2; stroke: #1f77b4; stroke-opacity: 0.2"/>
    <path d="M 165.141691 287.920694 
L 165.141691 288.641163 
L 166.591042 294.153727 
L 169.489745 288.266001 
L 171.663772 287.998571 
L 175.287151 287.76146 
L 178.185854 292.428749 
L 178.185854 289.133748 
L 178.185854 289.133748 
L 175.287151 287.359626 
L 171.663772 287.420054 
L 169.489745 287.956805 
L 166.591042 291.364331 
L 165.141691 287.920694 
z
" clip-path="url(#pd08130a686)" style="fill: #1f77b4; fill-opacity: 0.2; stroke: #1f77b4; stroke-opacity: 0.2"/>
    <path d="M 182.533908 286.603551 
L 182.533908 287.249692 
L 185.432611 286.6911 
L 189.780665 291.734846 
L 191.230017 286.855682 
L 193.404044 286.640242 
L 195.578071 292.267314 
L 200.650801 285.274739 
L 201.375477 285.341167 
L 204.27418 286.107228 
L 210.796261 284.794401 
L 212.970289 293.796324 
L 212.970289 290.849238 
L 212.970289 290.849238 
L 210.796261 284.68836 
L 204.27418 284.834185 
L 201.375477 284.744644 
L 200.650801 285.10975 
L 195.578071 287.180888 
L 193.404044 285.927342 
L 191.230017 286.091619 
L 189.780665 287.536541 
L 185.432611 286.348681 
L 182.533908 286.603551 
z
" clip-path="url(#pd08130a686)" style="fill: #1f77b4; fill-opacity: 0.2; stroke: #1f77b4; stroke-opacity: 0.2"/>
    <path d="M 217.318343 284.012293 
L 217.318343 286.335604 
L 218.767694 288.645628 
L 226.014451 284.442728 
L 230.362506 290.316893 
L 233.261209 284.615521 
L 236.159912 293.355646 
L 236.159912 287.425292 
L 236.159912 287.425292 
L 233.261209 283.783147 
L 230.362506 284.118997 
L 226.014451 283.948187 
L 218.767694 283.817073 
L 217.318343 284.012293 
z
" clip-path="url(#pd08130a686)" style="fill: #1f77b4; fill-opacity: 0.2; stroke: #1f77b4; stroke-opacity: 0.2"/>
    <path d="M 241.232642 283.853162 
L 241.232642 284.520878 
L 247.754723 291.862584 
L 247.754723 286.275986 
L 247.754723 286.275986 
L 241.232642 283.853162 
z
" clip-path="url(#pd08130a686)" style="fill: #1f77b4; fill-opacity: 0.2; stroke: #1f77b4; stroke-opacity: 0.2"/>
    <path d="M 256.450832 283.360154 
L 256.450832 283.364479 
L 259.349535 294.307164 
L 265.14694 283.424121 
L 269.494995 285.662953 
L 269.494995 282.121783 
L 269.494995 282.121783 
L 265.14694 282.656172 
L 259.349535 290.624708 
L 256.450832 283.360154 
z
" clip-path="url(#pd08130a686)" style="fill: #1f77b4; fill-opacity: 0.2; stroke: #1f77b4; stroke-opacity: 0.2"/>
    <path d="M 276.741752 281.991557 
L 276.741752 289.605841 
L 282.539158 293.634861 
L 289.061239 281.354845 
L 291.235266 282.478754 
L 297.032672 281.106763 
L 297.032672 280.785588 
L 297.032672 280.785588 
L 291.235266 280.821156 
L 289.061239 280.701147 
L 282.539158 288.313719 
L 276.741752 281.991557 
z
" clip-path="url(#pd08130a686)" style="fill: #1f77b4; fill-opacity: 0.2; stroke: #1f77b4; stroke-opacity: 0.2"/>
    <path d="M 305.728781 286.997567 
L 305.728781 293.158416 
L 305.728781 286.997567 
L 305.728781 286.997567 
z
" clip-path="url(#pd08130a686)" style="fill: #1f77b4; fill-opacity: 0.2; stroke: #1f77b4; stroke-opacity: 0.2"/>
    <path d="M 312.975538 280.690513 
L 312.975538 284.802593 
L 317.323592 293.259367 
L 317.323592 291.283815 
L 317.323592 291.283815 
L 312.975538 280.690513 
z
" clip-path="url(#pd08130a686)" style="fill: #1f77b4; fill-opacity: 0.2; stroke: #1f77b4; stroke-opacity: 0.2"/>
    <path d="M 328.918404 279.992789 
L 328.918404 293.1914 
L 334.715809 293.141267 
L 334.715809 279.075872 
L 334.715809 279.075872 
L 328.918404 279.992789 
z
" clip-path="url(#pd08130a686)" style="fill: #1f77b4; fill-opacity: 0.2; stroke: #1f77b4; stroke-opacity: 0.2"/>
    <path d="M 352.108027 291.829 
L 352.108027 293.048468 
L 352.108027 291.829 
L 352.108027 291.829 
z
" clip-path="url(#pd08130a686)" style="fill: #1f77b4; fill-opacity: 0.2; stroke: #1f77b4; stroke-opacity: 0.2"/>
    <path d="M 360.804135 278.567765 
L 360.804135 279.977384 
L 363.702838 292.901327 
L 386.892461 292.430911 
L 392.689867 277.352189 
L 398.487273 292.498209 
L 398.487273 289.779552 
L 398.487273 289.779552 
L 392.689867 277.006564 
L 386.892461 292.263904 
L 363.702838 277.850412 
L 360.804135 278.567765 
z
" clip-path="url(#pd08130a686)" style="fill: #1f77b4; fill-opacity: 0.2; stroke: #1f77b4; stroke-opacity: 0.2"/>
   </g>
   <g id="matplotlib.axis_1">
    <g id="xtick_1">
     <g id="line2d_1">
      <defs>
       <path id="m7e58f1541a" d="M 0 0 
L 0 3.5 
" style="stroke: #000000; stroke-width: 0.8"/>
      </defs>
      <g>
       <use xlink:href="#m7e58f1541a" x="73.83255" y="307.584" style="stroke: #000000; stroke-width: 0.8"/>
      </g>
     </g>
     <g id="text_1">
      <!-- 0 -->
      <g transform="translate(70.6513 322.182437)scale(0.1 -0.1)">
       <defs>
        <path id="DejaVuSans-30" d="M 2034 4250 
Q 1547 4250 1301 3770 
Q 1056 3291 1056 2328 
Q 1056 1369 1301 889 
Q 1547 409 2034 409 
Q 2525 409 2770 889 
Q 3016 1369 3016 2328 
Q 3016 3291 2770 3770 
Q 2525 4250 2034 4250 
z
M 2034 4750 
Q 2819 4750 3233 4129 
Q 3647 3509 3647 2328 
Q 3647 1150 3233 529 
Q 2819 -91 2034 -91 
Q 1250 -91 836 529 
Q 422 1150 422 2328 
Q 422 3509 836 4129 
Q 1250 4750 2034 4750 
z
" transform="scale(0.015625)"/>
       </defs>
       <use xlink:href="#DejaVuSans-30"/>
      </g>
     </g>
    </g>
    <g id="xtick_2">
     <g id="line2d_2">
      <g>
       <use xlink:href="#m7e58f1541a" x="142.943012" y="307.584" style="stroke: #000000; stroke-width: 0.8"/>
      </g>
     </g>
     <g id="text_2">
      <!-- 2 -->
      <g transform="translate(139.761762 322.182437)scale(0.1 -0.1)">
       <defs>
        <path id="DejaVuSans-32" d="M 1228 531 
L 3431 531 
L 3431 0 
L 469 0 
L 469 531 
Q 828 903 1448 1529 
Q 2069 2156 2228 2338 
Q 2531 2678 2651 2914 
Q 2772 3150 2772 3378 
Q 2772 3750 2511 3984 
Q 2250 4219 1831 4219 
Q 1534 4219 1204 4116 
Q 875 4013 500 3803 
L 500 4441 
Q 881 4594 1212 4672 
Q 1544 4750 1819 4750 
Q 2544 4750 2975 4387 
Q 3406 4025 3406 3419 
Q 3406 3131 3298 2873 
Q 3191 2616 2906 2266 
Q 2828 2175 2409 1742 
Q 1991 1309 1228 531 
z
" transform="scale(0.015625)"/>
       </defs>
       <use xlink:href="#DejaVuSans-32"/>
      </g>
     </g>
    </g>
    <g id="xtick_3">
     <g id="line2d_3">
      <g>
       <use xlink:href="#m7e58f1541a" x="212.053475" y="307.584" style="stroke: #000000; stroke-width: 0.8"/>
      </g>
     </g>
     <g id="text_3">
      <!-- 4 -->
      <g transform="translate(208.872225 322.182437)scale(0.1 -0.1)">
       <defs>
        <path id="DejaVuSans-34" d="M 2419 4116 
L 825 1625 
L 2419 1625 
L 2419 4116 
z
M 2253 4666 
L 3047 4666 
L 3047 1625 
L 3713 1625 
L 3713 1100 
L 3047 1100 
L 3047 0 
L 2419 0 
L 2419 1100 
L 313 1100 
L 313 1709 
L 2253 4666 
z
" transform="scale(0.015625)"/>
       </defs>
       <use xlink:href="#DejaVuSans-34"/>
      </g>
     </g>
    </g>
    <g id="xtick_4">
     <g id="line2d_4">
      <g>
       <use xlink:href="#m7e58f1541a" x="281.163937" y="307.584" style="stroke: #000000; stroke-width: 0.8"/>
      </g>
     </g>
     <g id="text_4">
      <!-- 6 -->
      <g transform="translate(277.982687 322.182437)scale(0.1 -0.1)">
       <defs>
        <path id="DejaVuSans-36" d="M 2113 2584 
Q 1688 2584 1439 2293 
Q 1191 2003 1191 1497 
Q 1191 994 1439 701 
Q 1688 409 2113 409 
Q 2538 409 2786 701 
Q 3034 994 3034 1497 
Q 3034 2003 2786 2293 
Q 2538 2584 2113 2584 
z
M 3366 4563 
L 3366 3988 
Q 3128 4100 2886 4159 
Q 2644 4219 2406 4219 
Q 1781 4219 1451 3797 
Q 1122 3375 1075 2522 
Q 1259 2794 1537 2939 
Q 1816 3084 2150 3084 
Q 2853 3084 3261 2657 
Q 3669 2231 3669 1497 
Q 3669 778 3244 343 
Q 2819 -91 2113 -91 
Q 1303 -91 875 529 
Q 447 1150 447 2328 
Q 447 3434 972 4092 
Q 1497 4750 2381 4750 
Q 2619 4750 2861 4703 
Q 3103 4656 3366 4563 
z
" transform="scale(0.015625)"/>
       </defs>
       <use xlink:href="#DejaVuSans-36"/>
      </g>
     </g>
    </g>
    <g id="xtick_5">
     <g id="line2d_5">
      <g>
       <use xlink:href="#m7e58f1541a" x="350.274399" y="307.584" style="stroke: #000000; stroke-width: 0.8"/>
      </g>
     </g>
     <g id="text_5">
      <!-- 8 -->
      <g transform="translate(347.093149 322.182437)scale(0.1 -0.1)">
       <defs>
        <path id="DejaVuSans-38" d="M 2034 2216 
Q 1584 2216 1326 1975 
Q 1069 1734 1069 1313 
Q 1069 891 1326 650 
Q 1584 409 2034 409 
Q 2484 409 2743 651 
Q 3003 894 3003 1313 
Q 3003 1734 2745 1975 
Q 2488 2216 2034 2216 
z
M 1403 2484 
Q 997 2584 770 2862 
Q 544 3141 544 3541 
Q 544 4100 942 4425 
Q 1341 4750 2034 4750 
Q 2731 4750 3128 4425 
Q 3525 4100 3525 3541 
Q 3525 3141 3298 2862 
Q 3072 2584 2669 2484 
Q 3125 2378 3379 2068 
Q 3634 1759 3634 1313 
Q 3634 634 3220 271 
Q 2806 -91 2034 -91 
Q 1263 -91 848 271 
Q 434 634 434 1313 
Q 434 1759 690 2068 
Q 947 2378 1403 2484 
z
M 1172 3481 
Q 1172 3119 1398 2916 
Q 1625 2713 2034 2713 
Q 2441 2713 2670 2916 
Q 2900 3119 2900 3481 
Q 2900 3844 2670 4047 
Q 2441 4250 2034 4250 
Q 1625 4250 1398 4047 
Q 1172 3844 1172 3481 
z
" transform="scale(0.015625)"/>
       </defs>
       <use xlink:href="#DejaVuSans-38"/>
      </g>
     </g>
    </g>
    <g id="text_6">
     <!-- Global Problem Size -->
     <g transform="translate(186.327969 335.860562)scale(0.1 -0.1)">
      <defs>
       <path id="DejaVuSans-47" d="M 3809 666 
L 3809 1919 
L 2778 1919 
L 2778 2438 
L 4434 2438 
L 4434 434 
Q 4069 175 3628 42 
Q 3188 -91 2688 -91 
Q 1594 -91 976 548 
Q 359 1188 359 2328 
Q 359 3472 976 4111 
Q 1594 4750 2688 4750 
Q 3144 4750 3555 4637 
Q 3966 4525 4313 4306 
L 4313 3634 
Q 3963 3931 3569 4081 
Q 3175 4231 2741 4231 
Q 1884 4231 1454 3753 
Q 1025 3275 1025 2328 
Q 1025 1384 1454 906 
Q 1884 428 2741 428 
Q 3075 428 3337 486 
Q 3600 544 3809 666 
z
" transform="scale(0.015625)"/>
       <path id="DejaVuSans-6c" d="M 603 4863 
L 1178 4863 
L 1178 0 
L 603 0 
L 603 4863 
z
" transform="scale(0.015625)"/>
       <path id="DejaVuSans-6f" d="M 1959 3097 
Q 1497 3097 1228 2736 
Q 959 2375 959 1747 
Q 959 1119 1226 758 
Q 1494 397 1959 397 
Q 2419 397 2687 759 
Q 2956 1122 2956 1747 
Q 2956 2369 2687 2733 
Q 2419 3097 1959 3097 
z
M 1959 3584 
Q 2709 3584 3137 3096 
Q 3566 2609 3566 1747 
Q 3566 888 3137 398 
Q 2709 -91 1959 -91 
Q 1206 -91 779 398 
Q 353 888 353 1747 
Q 353 2609 779 3096 
Q 1206 3584 1959 3584 
z
" transform="scale(0.015625)"/>
       <path id="DejaVuSans-62" d="M 3116 1747 
Q 3116 2381 2855 2742 
Q 2594 3103 2138 3103 
Q 1681 3103 1420 2742 
Q 1159 2381 1159 1747 
Q 1159 1113 1420 752 
Q 1681 391 2138 391 
Q 2594 391 2855 752 
Q 3116 1113 3116 1747 
z
M 1159 2969 
Q 1341 3281 1617 3432 
Q 1894 3584 2278 3584 
Q 2916 3584 3314 3078 
Q 3713 2572 3713 1747 
Q 3713 922 3314 415 
Q 2916 -91 2278 -91 
Q 1894 -91 1617 61 
Q 1341 213 1159 525 
L 1159 0 
L 581 0 
L 581 4863 
L 1159 4863 
L 1159 2969 
z
" transform="scale(0.015625)"/>
       <path id="DejaVuSans-61" d="M 2194 1759 
Q 1497 1759 1228 1600 
Q 959 1441 959 1056 
Q 959 750 1161 570 
Q 1363 391 1709 391 
Q 2188 391 2477 730 
Q 2766 1069 2766 1631 
L 2766 1759 
L 2194 1759 
z
M 3341 1997 
L 3341 0 
L 2766 0 
L 2766 531 
Q 2569 213 2275 61 
Q 1981 -91 1556 -91 
Q 1019 -91 701 211 
Q 384 513 384 1019 
Q 384 1609 779 1909 
Q 1175 2209 1959 2209 
L 2766 2209 
L 2766 2266 
Q 2766 2663 2505 2880 
Q 2244 3097 1772 3097 
Q 1472 3097 1187 3025 
Q 903 2953 641 2809 
L 641 3341 
Q 956 3463 1253 3523 
Q 1550 3584 1831 3584 
Q 2591 3584 2966 3190 
Q 3341 2797 3341 1997 
z
" transform="scale(0.015625)"/>
       <path id="DejaVuSans-20" transform="scale(0.015625)"/>
       <path id="DejaVuSans-50" d="M 1259 4147 
L 1259 2394 
L 2053 2394 
Q 2494 2394 2734 2622 
Q 2975 2850 2975 3272 
Q 2975 3691 2734 3919 
Q 2494 4147 2053 4147 
L 1259 4147 
z
M 628 4666 
L 2053 4666 
Q 2838 4666 3239 4311 
Q 3641 3956 3641 3272 
Q 3641 2581 3239 2228 
Q 2838 1875 2053 1875 
L 1259 1875 
L 1259 0 
L 628 0 
L 628 4666 
z
" transform="scale(0.015625)"/>
       <path id="DejaVuSans-72" d="M 2631 2963 
Q 2534 3019 2420 3045 
Q 2306 3072 2169 3072 
Q 1681 3072 1420 2755 
Q 1159 2438 1159 1844 
L 1159 0 
L 581 0 
L 581 3500 
L 1159 3500 
L 1159 2956 
Q 1341 3275 1631 3429 
Q 1922 3584 2338 3584 
Q 2397 3584 2469 3576 
Q 2541 3569 2628 3553 
L 2631 2963 
z
" transform="scale(0.015625)"/>
       <path id="DejaVuSans-65" d="M 3597 1894 
L 3597 1613 
L 953 1613 
Q 991 1019 1311 708 
Q 1631 397 2203 397 
Q 2534 397 2845 478 
Q 3156 559 3463 722 
L 3463 178 
Q 3153 47 2828 -22 
Q 2503 -91 2169 -91 
Q 1331 -91 842 396 
Q 353 884 353 1716 
Q 353 2575 817 3079 
Q 1281 3584 2069 3584 
Q 2775 3584 3186 3129 
Q 3597 2675 3597 1894 
z
M 3022 2063 
Q 3016 2534 2758 2815 
Q 2500 3097 2075 3097 
Q 1594 3097 1305 2825 
Q 1016 2553 972 2059 
L 3022 2063 
z
" transform="scale(0.015625)"/>
       <path id="DejaVuSans-6d" d="M 3328 2828 
Q 3544 3216 3844 3400 
Q 4144 3584 4550 3584 
Q 5097 3584 5394 3201 
Q 5691 2819 5691 2113 
L 5691 0 
L 5113 0 
L 5113 2094 
Q 5113 2597 4934 2840 
Q 4756 3084 4391 3084 
Q 3944 3084 3684 2787 
Q 3425 2491 3425 1978 
L 3425 0 
L 2847 0 
L 2847 2094 
Q 2847 2600 2669 2842 
Q 2491 3084 2119 3084 
Q 1678 3084 1418 2786 
Q 1159 2488 1159 1978 
L 1159 0 
L 581 0 
L 581 3500 
L 1159 3500 
L 1159 2956 
Q 1356 3278 1631 3431 
Q 1906 3584 2284 3584 
Q 2666 3584 2933 3390 
Q 3200 3197 3328 2828 
z
" transform="scale(0.015625)"/>
       <path id="DejaVuSans-53" d="M 3425 4513 
L 3425 3897 
Q 3066 4069 2747 4153 
Q 2428 4238 2131 4238 
Q 1616 4238 1336 4038 
Q 1056 3838 1056 3469 
Q 1056 3159 1242 3001 
Q 1428 2844 1947 2747 
L 2328 2669 
Q 3034 2534 3370 2195 
Q 3706 1856 3706 1288 
Q 3706 609 3251 259 
Q 2797 -91 1919 -91 
Q 1588 -91 1214 -16 
Q 841 59 441 206 
L 441 856 
Q 825 641 1194 531 
Q 1563 422 1919 422 
Q 2459 422 2753 634 
Q 3047 847 3047 1241 
Q 3047 1584 2836 1778 
Q 2625 1972 2144 2069 
L 1759 2144 
Q 1053 2284 737 2584 
Q 422 2884 422 3419 
Q 422 4038 858 4394 
Q 1294 4750 2059 4750 
Q 2388 4750 2728 4690 
Q 3069 4631 3425 4513 
z
" transform="scale(0.015625)"/>
       <path id="DejaVuSans-69" d="M 603 3500 
L 1178 3500 
L 1178 0 
L 603 0 
L 603 3500 
z
M 603 4863 
L 1178 4863 
L 1178 4134 
L 603 4134 
L 603 4863 
z
" transform="scale(0.015625)"/>
       <path id="DejaVuSans-7a" d="M 353 3500 
L 3084 3500 
L 3084 2975 
L 922 459 
L 3084 459 
L 3084 0 
L 275 0 
L 275 525 
L 2438 3041 
L 353 3041 
L 353 3500 
z
" transform="scale(0.015625)"/>
      </defs>
      <use xlink:href="#DejaVuSans-47"/>
      <use xlink:href="#DejaVuSans-6c" x="77.490234"/>
      <use xlink:href="#DejaVuSans-6f" x="105.273438"/>
      <use xlink:href="#DejaVuSans-62" x="166.455078"/>
      <use xlink:href="#DejaVuSans-61" x="229.931641"/>
      <use xlink:href="#DejaVuSans-6c" x="291.210938"/>
      <use xlink:href="#DejaVuSans-20" x="318.994141"/>
      <use xlink:href="#DejaVuSans-50" x="350.78125"/>
      <use xlink:href="#DejaVuSans-72" x="409.333984"/>
      <use xlink:href="#DejaVuSans-6f" x="448.197266"/>
      <use xlink:href="#DejaVuSans-62" x="509.378906"/>
      <use xlink:href="#DejaVuSans-6c" x="572.855469"/>
      <use xlink:href="#DejaVuSans-65" x="600.638672"/>
      <use xlink:href="#DejaVuSans-6d" x="662.162109"/>
      <use xlink:href="#DejaVuSans-20" x="759.574219"/>
      <use xlink:href="#DejaVuSans-53" x="791.361328"/>
      <use xlink:href="#DejaVuSans-69" x="854.837891"/>
      <use xlink:href="#DejaVuSans-7a" x="882.621094"/>
      <use xlink:href="#DejaVuSans-65" x="935.111328"/>
     </g>
    </g>
    <g id="text_7">
     <!-- 1e8 -->
     <g transform="translate(395.841875 334.860562)scale(0.1 -0.1)">
      <defs>
       <path id="DejaVuSans-31" d="M 794 531 
L 1825 531 
L 1825 4091 
L 703 3866 
L 703 4441 
L 1819 4666 
L 2450 4666 
L 2450 531 
L 3481 531 
L 3481 0 
L 794 0 
L 794 531 
z
" transform="scale(0.015625)"/>
      </defs>
      <use xlink:href="#DejaVuSans-31"/>
      <use xlink:href="#DejaVuSans-65" x="63.623047"/>
      <use xlink:href="#DejaVuSans-38" x="125.146484"/>
     </g>
    </g>
   </g>
   <g id="matplotlib.axis_2">
    <g id="ytick_1">
     <g id="line2d_6">
      <defs>
       <path id="maa650faee7" d="M 0 0 
L -3.5 0 
" style="stroke: #000000; stroke-width: 0.8"/>
      </defs>
      <g>
       <use xlink:href="#maa650faee7" x="57.6" y="296.10738" style="stroke: #000000; stroke-width: 0.8"/>
      </g>
     </g>
     <g id="text_8">
      <!-- 0 -->
      <g transform="translate(44.2375 299.906599)scale(0.1 -0.1)">
       <use xlink:href="#DejaVuSans-30"/>
      </g>
     </g>
    </g>
    <g id="ytick_2">
     <g id="line2d_7">
      <g>
       <use xlink:href="#maa650faee7" x="57.6" y="245.224112" style="stroke: #000000; stroke-width: 0.8"/>
      </g>
     </g>
     <g id="text_9">
      <!-- 2 -->
      <g transform="translate(44.2375 249.02333)scale(0.1 -0.1)">
       <use xlink:href="#DejaVuSans-32"/>
      </g>
     </g>
    </g>
    <g id="ytick_3">
     <g id="line2d_8">
      <g>
       <use xlink:href="#maa650faee7" x="57.6" y="194.340844" style="stroke: #000000; stroke-width: 0.8"/>
      </g>
     </g>
     <g id="text_10">
      <!-- 4 -->
      <g transform="translate(44.2375 198.140062)scale(0.1 -0.1)">
       <use xlink:href="#DejaVuSans-34"/>
      </g>
     </g>
    </g>
    <g id="ytick_4">
     <g id="line2d_9">
      <g>
       <use xlink:href="#maa650faee7" x="57.6" y="143.457576" style="stroke: #000000; stroke-width: 0.8"/>
      </g>
     </g>
     <g id="text_11">
      <!-- 6 -->
      <g transform="translate(44.2375 147.256794)scale(0.1 -0.1)">
       <use xlink:href="#DejaVuSans-36"/>
      </g>
     </g>
    </g>
    <g id="ytick_5">
     <g id="line2d_10">
      <g>
       <use xlink:href="#maa650faee7" x="57.6" y="92.574308" style="stroke: #000000; stroke-width: 0.8"/>
      </g>
     </g>
     <g id="text_12">
      <!-- 8 -->
      <g transform="translate(44.2375 96.373526)scale(0.1 -0.1)">
       <use xlink:href="#DejaVuSans-38"/>
      </g>
     </g>
    </g>
    <g id="ytick_6">
     <g id="line2d_11">
      <g>
       <use xlink:href="#maa650faee7" x="57.6" y="41.69104" style="stroke: #000000; stroke-width: 0.8"/>
      </g>
     </g>
     <g id="text_13">
      <!-- 10 -->
      <g transform="translate(37.875 45.490258)scale(0.1 -0.1)">
       <use xlink:href="#DejaVuSans-31"/>
       <use xlink:href="#DejaVuSans-30" x="63.623047"/>
      </g>
     </g>
    </g>
    <g id="text_14">
     <!-- GFLOPS -->
     <g transform="translate(31.795312 194.007688)rotate(-90)scale(0.1 -0.1)">
      <defs>
       <path id="DejaVuSans-46" d="M 628 4666 
L 3309 4666 
L 3309 4134 
L 1259 4134 
L 1259 2759 
L 3109 2759 
L 3109 2228 
L 1259 2228 
L 1259 0 
L 628 0 
L 628 4666 
z
" transform="scale(0.015625)"/>
       <path id="DejaVuSans-4c" d="M 628 4666 
L 1259 4666 
L 1259 531 
L 3531 531 
L 3531 0 
L 628 0 
L 628 4666 
z
" transform="scale(0.015625)"/>
       <path id="DejaVuSans-4f" d="M 2522 4238 
Q 1834 4238 1429 3725 
Q 1025 3213 1025 2328 
Q 1025 1447 1429 934 
Q 1834 422 2522 422 
Q 3209 422 3611 934 
Q 4013 1447 4013 2328 
Q 4013 3213 3611 3725 
Q 3209 4238 2522 4238 
z
M 2522 4750 
Q 3503 4750 4090 4092 
Q 4678 3434 4678 2328 
Q 4678 1225 4090 567 
Q 3503 -91 2522 -91 
Q 1538 -91 948 565 
Q 359 1222 359 2328 
Q 359 3434 948 4092 
Q 1538 4750 2522 4750 
z
" transform="scale(0.015625)"/>
      </defs>
      <use xlink:href="#DejaVuSans-47"/>
      <use xlink:href="#DejaVuSans-46" x="77.490234"/>
      <use xlink:href="#DejaVuSans-4c" x="135.009766"/>
      <use xlink:href="#DejaVuSans-4f" x="187.097656"/>
      <use xlink:href="#DejaVuSans-50" x="265.808594"/>
      <use xlink:href="#DejaVuSans-53" x="326.111328"/>
     </g>
    </g>
   </g>
   <g id="line2d_12">
    <path d="M 73.832727 240.942539 
L 73.923135 94.379951 
L 73.875366 279.30028 
L 73.938704 261.328666 
L 74.025219 278.634931 
L 73.991073 64.180596 
L 74.036365 67.17762 
L 74.070335 59.93443 
L 74.172242 86.387263 
L 74.194888 87.42702 
L 74.228857 105.924551 
L 74.24018 81.984541 
L 74.308119 90.22889 
L 74.330765 69.886476 
L 74.376057 102.609835 
L 74.38738 120.211809 
L 74.398703 82.876381 
L 74.466642 106.212009 
L 74.545903 113.939683 
L 74.557226 151.552361 
L 74.579872 95.803169 
L 74.647811 135.430927 
L 74.68178 126.284388 
L 74.738395 140.326705 
L 74.749718 134.527817 
L 74.828979 126.48631 
L 74.851626 129.637192 
L 74.94221 159.513791 
L 74.964856 133.658294 
L 75.021471 141.452012 
L 75.055441 134.156692 
L 75.078087 129.388288 
L 75.100733 135.67732 
L 75.247933 151.553358 
L 75.259256 138.514775 
L 75.281902 224.262446 
L 75.361163 148.753951 
L 75.417778 143.267781 
L 75.463071 147.081274 
L 75.49704 151.66581 
L 75.531009 146.817834 
L 75.576301 135.246034 
L 75.700855 152.383391 
L 75.734824 147.220393 
L 75.814086 153.831402 
L 75.825409 146.205145 
L 75.972608 153.921465 
L 76.006578 204.393854 
L 76.074516 147.537447 
L 76.097162 152.473982 
L 76.210393 148.656913 
L 76.448177 155.376345 
L 76.550084 151.466856 
L 76.57273 145.515295 
L 76.584053 154.274086 
L 76.6067 151.241444 
L 76.663315 157.612156 
L 76.685961 148.389246 
L 76.731253 274.949519 
L 76.821838 150.617615 
L 76.889776 151.579902 
L 76.946391 158.315872 
L 77.003007 153.409198 
L 77.161529 146.75125 
L 77.195499 154.857209 
L 77.229468 153.06393 
L 77.399314 154.278793 
L 77.455929 224.237351 
L 77.501221 151.908523 
L 77.56916 153.667897 
L 77.637098 148.12866 
L 77.908851 153.570498 
L 77.94282 149.749292 
L 78.112666 150.20775 
L 78.180605 278.879157 
L 78.191928 157.2388 
L 78.361774 152.595617 
L 78.418389 156.450364 
L 78.588235 149.587483 
L 78.724111 151.339776 
L 78.814696 155.326861 
L 78.90528 294.181916 
L 78.927927 152.846556 
L 79.063803 149.695355 
L 79.267618 150.526279 
L 79.31291 151.77699 
L 79.437464 156.409657 
L 79.494079 156.900935 
L 79.629956 294.900338 
L 79.811125 149.818111 
L 80.060232 156.957034 
L 80.354632 294.895227 
L 80.558447 150.682618 
L 80.626385 150.884497 
L 80.683001 156.561289 
L 81.079308 294.710247 
L 81.305769 151.396129 
L 82.053091 151.339648 
L 82.528659 294.652455 
L 84.702686 294.069784 
L 85.427362 294.563823 
L 88.326065 293.849797 
L 89.05074 293.09198 
L 91.224768 293.889961 
L 91.949443 292.770514 
L 93.398795 294.297113 
L 94.12347 293.008597 
L 95.572822 293.210479 
L 97.022173 294.071251 
L 99.196201 291.270919 
L 99.920876 293.411888 
L 102.819579 292.931697 
L 104.268931 292.235337 
L 105.718282 293.269378 
L 106.442958 293.102816 
L 108.616985 293.372963 
L 109.341661 290.048785 
L 110.066336 292.580321 
L 112.965039 292.319332 
L 114.414391 291.981417 
L 117.313094 292.011546 
L 119.487121 291.665703 
L 120.211796 293.515249 
L 121.661148 291.710442 
L 124.559851 291.401314 
L 126.009202 292.005072 
L 128.183229 290.797202 
L 131.806608 291.776585 
L 132.531284 290.633027 
L 139.053365 289.955217 
L 143.401419 292.765342 
L 144.850771 289.89438 
L 145.575447 289.616354 
L 146.300122 289.473927 
L 152.097528 289.715038 
L 153.54688 289.414135 
L 154.996231 291.644968 
L 160.793637 289.986789 
L 164.417015 288.427314 
L 165.141691 288.245851 
L 166.591042 292.842979 
L 169.489745 288.109187 
L 171.663772 287.65728 
L 175.287151 287.570677 
L 178.185854 290.791413 
L 180.359881 286.582236 
L 182.533908 286.909746 
L 185.432611 286.519891 
L 189.780665 289.747108 
L 191.230017 286.528053 
L 193.404044 286.308356 
L 195.578071 289.733751 
L 200.650801 285.192245 
L 201.375477 285.05928 
L 204.27418 285.353678 
L 210.796261 284.741381 
L 212.970289 292.434744 
L 215.868991 284.154417 
L 217.318343 284.946765 
L 218.767694 285.58391 
L 226.014451 284.235327 
L 230.362506 286.342509 
L 233.261209 284.261099 
L 236.159912 290.423968 
L 236.884587 283.974265 
L 241.232642 284.18702 
L 247.754723 289.016026 
L 249.204074 282.722663 
L 251.378102 283.598237 
L 255.00148 283.349265 
L 256.450832 283.362317 
L 259.349535 292.844069 
L 265.14694 282.993369 
L 269.494995 283.413768 
L 273.118373 282.074894 
L 276.741752 285.798699 
L 282.539158 291.300276 
L 289.061239 281.027996 
L 291.235266 281.649955 
L 297.032672 280.946176 
L 302.105402 281.221785 
L 305.728781 290.404451 
L 308.627483 281.052853 
L 312.975538 282.130849 
L 317.323592 292.304801 
L 327.469052 279.406982 
L 328.918404 286.592094 
L 334.715809 286.10857 
L 336.889837 284.596618 
L 352.108027 292.536484 
L 352.832702 278.399926 
L 357.905432 290.149992 
L 360.804135 279.272574 
L 363.702838 285.37587 
L 386.892461 292.344359 
L 392.689867 277.179377 
L 398.487273 291.146526 
L 398.487273 291.146526 
" clip-path="url(#pd08130a686)" style="fill: none; stroke: #1f77b4; stroke-width: 1.5; stroke-linecap: square"/>
   </g>
   <g id="line2d_13"/>
   <g id="patch_3">
    <path d="M 57.6 307.584 
L 57.6 41.472 
" style="fill: none; stroke: #000000; stroke-width: 0.8; stroke-linejoin: miter; stroke-linecap: square"/>
   </g>
   <g id="patch_4">
    <path d="M 414.72 307.584 
L 414.72 41.472 
" style="fill: none; stroke: #000000; stroke-width: 0.8; stroke-linejoin: miter; stroke-linecap: square"/>
   </g>
   <g id="patch_5">
    <path d="M 57.6 307.584 
L 414.72 307.584 
" style="fill: none; stroke: #000000; stroke-width: 0.8; stroke-linejoin: miter; stroke-linecap: square"/>
   </g>
   <g id="patch_6">
    <path d="M 57.6 41.472 
L 414.72 41.472 
" style="fill: none; stroke: #000000; stroke-width: 0.8; stroke-linejoin: miter; stroke-linecap: square"/>
   </g>
   <g id="text_15">
    <!-- Gustafson-like Scaling -->
    <g transform="translate(169.757812 35.472)scale(0.12 -0.12)">
     <defs>
      <path id="DejaVuSans-75" d="M 544 1381 
L 544 3500 
L 1119 3500 
L 1119 1403 
Q 1119 906 1312 657 
Q 1506 409 1894 409 
Q 2359 409 2629 706 
Q 2900 1003 2900 1516 
L 2900 3500 
L 3475 3500 
L 3475 0 
L 2900 0 
L 2900 538 
Q 2691 219 2414 64 
Q 2138 -91 1772 -91 
Q 1169 -91 856 284 
Q 544 659 544 1381 
z
M 1991 3584 
L 1991 3584 
z
" transform="scale(0.015625)"/>
      <path id="DejaVuSans-73" d="M 2834 3397 
L 2834 2853 
Q 2591 2978 2328 3040 
Q 2066 3103 1784 3103 
Q 1356 3103 1142 2972 
Q 928 2841 928 2578 
Q 928 2378 1081 2264 
Q 1234 2150 1697 2047 
L 1894 2003 
Q 2506 1872 2764 1633 
Q 3022 1394 3022 966 
Q 3022 478 2636 193 
Q 2250 -91 1575 -91 
Q 1294 -91 989 -36 
Q 684 19 347 128 
L 347 722 
Q 666 556 975 473 
Q 1284 391 1588 391 
Q 1994 391 2212 530 
Q 2431 669 2431 922 
Q 2431 1156 2273 1281 
Q 2116 1406 1581 1522 
L 1381 1569 
Q 847 1681 609 1914 
Q 372 2147 372 2553 
Q 372 3047 722 3315 
Q 1072 3584 1716 3584 
Q 2034 3584 2315 3537 
Q 2597 3491 2834 3397 
z
" transform="scale(0.015625)"/>
      <path id="DejaVuSans-74" d="M 1172 4494 
L 1172 3500 
L 2356 3500 
L 2356 3053 
L 1172 3053 
L 1172 1153 
Q 1172 725 1289 603 
Q 1406 481 1766 481 
L 2356 481 
L 2356 0 
L 1766 0 
Q 1100 0 847 248 
Q 594 497 594 1153 
L 594 3053 
L 172 3053 
L 172 3500 
L 594 3500 
L 594 4494 
L 1172 4494 
z
" transform="scale(0.015625)"/>
      <path id="DejaVuSans-66" d="M 2375 4863 
L 2375 4384 
L 1825 4384 
Q 1516 4384 1395 4259 
Q 1275 4134 1275 3809 
L 1275 3500 
L 2222 3500 
L 2222 3053 
L 1275 3053 
L 1275 0 
L 697 0 
L 697 3053 
L 147 3053 
L 147 3500 
L 697 3500 
L 697 3744 
Q 697 4328 969 4595 
Q 1241 4863 1831 4863 
L 2375 4863 
z
" transform="scale(0.015625)"/>
      <path id="DejaVuSans-6e" d="M 3513 2113 
L 3513 0 
L 2938 0 
L 2938 2094 
Q 2938 2591 2744 2837 
Q 2550 3084 2163 3084 
Q 1697 3084 1428 2787 
Q 1159 2491 1159 1978 
L 1159 0 
L 581 0 
L 581 3500 
L 1159 3500 
L 1159 2956 
Q 1366 3272 1645 3428 
Q 1925 3584 2291 3584 
Q 2894 3584 3203 3211 
Q 3513 2838 3513 2113 
z
" transform="scale(0.015625)"/>
      <path id="DejaVuSans-2d" d="M 313 2009 
L 1997 2009 
L 1997 1497 
L 313 1497 
L 313 2009 
z
" transform="scale(0.015625)"/>
      <path id="DejaVuSans-6b" d="M 581 4863 
L 1159 4863 
L 1159 1991 
L 2875 3500 
L 3609 3500 
L 1753 1863 
L 3688 0 
L 2938 0 
L 1159 1709 
L 1159 0 
L 581 0 
L 581 4863 
z
" transform="scale(0.015625)"/>
      <path id="DejaVuSans-63" d="M 3122 3366 
L 3122 2828 
Q 2878 2963 2633 3030 
Q 2388 3097 2138 3097 
Q 1578 3097 1268 2742 
Q 959 2388 959 1747 
Q 959 1106 1268 751 
Q 1578 397 2138 397 
Q 2388 397 2633 464 
Q 2878 531 3122 666 
L 3122 134 
Q 2881 22 2623 -34 
Q 2366 -91 2075 -91 
Q 1284 -91 818 406 
Q 353 903 353 1747 
Q 353 2603 823 3093 
Q 1294 3584 2113 3584 
Q 2378 3584 2631 3529 
Q 2884 3475 3122 3366 
z
" transform="scale(0.015625)"/>
      <path id="DejaVuSans-67" d="M 2906 1791 
Q 2906 2416 2648 2759 
Q 2391 3103 1925 3103 
Q 1463 3103 1205 2759 
Q 947 2416 947 1791 
Q 947 1169 1205 825 
Q 1463 481 1925 481 
Q 2391 481 2648 825 
Q 2906 1169 2906 1791 
z
M 3481 434 
Q 3481 -459 3084 -895 
Q 2688 -1331 1869 -1331 
Q 1566 -1331 1297 -1286 
Q 1028 -1241 775 -1147 
L 775 -588 
Q 1028 -725 1275 -790 
Q 1522 -856 1778 -856 
Q 2344 -856 2625 -561 
Q 2906 -266 2906 331 
L 2906 616 
Q 2728 306 2450 153 
Q 2172 0 1784 0 
Q 1141 0 747 490 
Q 353 981 353 1791 
Q 353 2603 747 3093 
Q 1141 3584 1784 3584 
Q 2172 3584 2450 3431 
Q 2728 3278 2906 2969 
L 2906 3500 
L 3481 3500 
L 3481 434 
z
" transform="scale(0.015625)"/>
     </defs>
     <use xlink:href="#DejaVuSans-47"/>
     <use xlink:href="#DejaVuSans-75" x="77.490234"/>
     <use xlink:href="#DejaVuSans-73" x="140.869141"/>
     <use xlink:href="#DejaVuSans-74" x="192.96875"/>
     <use xlink:href="#DejaVuSans-61" x="232.177734"/>
     <use xlink:href="#DejaVuSans-66" x="293.457031"/>
     <use xlink:href="#DejaVuSans-73" x="328.662109"/>
     <use xlink:href="#DejaVuSans-6f" x="380.761719"/>
     <use xlink:href="#DejaVuSans-6e" x="441.943359"/>
     <use xlink:href="#DejaVuSans-2d" x="505.322266"/>
     <use xlink:href="#DejaVuSans-6c" x="541.40625"/>
     <use xlink:href="#DejaVuSans-69" x="569.189453"/>
     <use xlink:href="#DejaVuSans-6b" x="596.972656"/>
     <use xlink:href="#DejaVuSans-65" x="651.257812"/>
     <use xlink:href="#DejaVuSans-20" x="712.78125"/>
     <use xlink:href="#DejaVuSans-53" x="744.568359"/>
     <use xlink:href="#DejaVuSans-63" x="808.044922"/>
     <use xlink:href="#DejaVuSans-61" x="863.025391"/>
     <use xlink:href="#DejaVuSans-6c" x="924.304688"/>
     <use xlink:href="#DejaVuSans-69" x="952.087891"/>
     <use xlink:href="#DejaVuSans-6e" x="979.871094"/>
     <use xlink:href="#DejaVuSans-67" x="1043.25"/>
    </g>
   </g>
   <g id="legend_1">
    <g id="patch_7">
     <path d="M 339.12 78.82825 
L 407.72 78.82825 
Q 409.72 78.82825 409.72 76.82825 
L 409.72 48.472 
Q 409.72 46.472 407.72 46.472 
L 339.12 46.472 
Q 337.12 46.472 337.12 48.472 
L 337.12 76.82825 
Q 337.12 78.82825 339.12 78.82825 
z
" style="fill: #ffffff; opacity: 0.8; stroke: #cccccc; stroke-linejoin: miter"/>
    </g>
    <g id="text_16">
     <!-- Cluster -->
     <g transform="translate(355.673906 58.070437)scale(0.1 -0.1)">
      <defs>
       <path id="DejaVuSans-43" d="M 4122 4306 
L 4122 3641 
Q 3803 3938 3442 4084 
Q 3081 4231 2675 4231 
Q 1875 4231 1450 3742 
Q 1025 3253 1025 2328 
Q 1025 1406 1450 917 
Q 1875 428 2675 428 
Q 3081 428 3442 575 
Q 3803 722 4122 1019 
L 4122 359 
Q 3791 134 3420 21 
Q 3050 -91 2638 -91 
Q 1578 -91 968 557 
Q 359 1206 359 2328 
Q 359 3453 968 4101 
Q 1578 4750 2638 4750 
Q 3056 4750 3426 4639 
Q 3797 4528 4122 4306 
z
" transform="scale(0.015625)"/>
      </defs>
      <use xlink:href="#DejaVuSans-43"/>
      <use xlink:href="#DejaVuSans-6c" x="69.824219"/>
      <use xlink:href="#DejaVuSans-75" x="97.607422"/>
      <use xlink:href="#DejaVuSans-73" x="160.986328"/>
      <use xlink:href="#DejaVuSans-74" x="213.085938"/>
      <use xlink:href="#DejaVuSans-65" x="252.294922"/>
      <use xlink:href="#DejaVuSans-72" x="313.818359"/>
     </g>
    </g>
    <g id="line2d_14">
     <path d="M 341.12 69.248562 
L 351.12 69.248562 
L 361.12 69.248562 
" style="fill: none; stroke: #1f77b4; stroke-width: 1.5; stroke-linecap: square"/>
    </g>
    <g id="text_17">
     <!-- Hopper -->
     <g transform="translate(369.12 72.748562)scale(0.1 -0.1)">
      <defs>
       <path id="DejaVuSans-48" d="M 628 4666 
L 1259 4666 
L 1259 2753 
L 3553 2753 
L 3553 4666 
L 4184 4666 
L 4184 0 
L 3553 0 
L 3553 2222 
L 1259 2222 
L 1259 0 
L 628 0 
L 628 4666 
z
" transform="scale(0.015625)"/>
       <path id="DejaVuSans-70" d="M 1159 525 
L 1159 -1331 
L 581 -1331 
L 581 3500 
L 1159 3500 
L 1159 2969 
Q 1341 3281 1617 3432 
Q 1894 3584 2278 3584 
Q 2916 3584 3314 3078 
Q 3713 2572 3713 1747 
Q 3713 922 3314 415 
Q 2916 -91 2278 -91 
Q 1894 -91 1617 61 
Q 1341 213 1159 525 
z
M 3116 1747 
Q 3116 2381 2855 2742 
Q 2594 3103 2138 3103 
Q 1681 3103 1420 2742 
Q 1159 2381 1159 1747 
Q 1159 1113 1420 752 
Q 1681 391 2138 391 
Q 2594 391 2855 752 
Q 3116 1113 3116 1747 
z
" transform="scale(0.015625)"/>
      </defs>
      <use xlink:href="#DejaVuSans-48"/>
      <use xlink:href="#DejaVuSans-6f" x="75.195312"/>
      <use xlink:href="#DejaVuSans-70" x="136.376953"/>
      <use xlink:href="#DejaVuSans-70" x="199.853516"/>
      <use xlink:href="#DejaVuSans-65" x="263.330078"/>
      <use xlink:href="#DejaVuSans-72" x="324.853516"/>
     </g>
    </g>
   </g>
  </g>
 </g>
 <defs>
  <clipPath id="pd08130a686">
   <rect x="57.6" y="41.472" width="357.12" height="266.112"/>
  </clipPath>
 </defs>
</svg>
