<?xml version="1.0" encoding="utf-8" standalone="no"?>
<!DOCTYPE svg PUBLIC "-//W3C//DTD SVG 1.1//EN"
  "http://www.w3.org/Graphics/SVG/1.1/DTD/svg11.dtd">
<svg xmlns:xlink="http://www.w3.org/1999/xlink" width="460.8pt" height="345.6pt" viewBox="0 0 460.8 345.6" xmlns="http://www.w3.org/2000/svg" version="1.1">
 <metadata>
  <rdf:RDF xmlns:dc="http://purl.org/dc/elements/1.1/" xmlns:cc="http://creativecommons.org/ns#" xmlns:rdf="http://www.w3.org/1999/02/22-rdf-syntax-ns#">
   <cc:Work>
    <dc:type rdf:resource="http://purl.org/dc/dcmitype/StillImage"/>
    <dc:date>2024-05-04T18:11:59.560568</dc:date>
    <dc:format>image/svg+xml</dc:format>
    <dc:creator>
     <cc:Agent>
      <dc:title>Matplotlib v3.5.3, https://matplotlib.org/</dc:title>
     </cc:Agent>
    </dc:creator>
   </cc:Work>
  </rdf:RDF>
 </metadata>
 <defs>
  <style type="text/css">*{stroke-linejoin: round; stroke-linecap: butt}</style>
 </defs>
 <g id="figure_1">
  <g id="patch_1">
   <path d="M 0 345.6 
L 460.8 345.6 
L 460.8 0 
L 0 0 
z
" style="fill: #ffffff"/>
  </g>
  <g id="axes_1">
   <g id="patch_2">
    <path d="M 57.6 307.584 
L 414.72 307.584 
L 414.72 41.472 
L 57.6 41.472 
z
" style="fill: #ffffff"/>
   </g>
   <g id="PolyCollection_1">
    <path d="M 73.832727 212.608528 
L 73.832727 221.513139 
L 73.832733 218.875972 
L 73.83274 217.155891 
L 73.832746 216.579854 
L 73.832752 213.87965 
L 73.832758 213.937723 
L 73.832764 212.801796 
L 73.832771 211.595331 
L 73.832777 215.544058 
L 73.832783 212.217225 
L 73.832795 212.407519 
L 73.832808 211.109161 
L 73.832814 213.502423 
L 73.83282 208.193896 
L 73.832833 213.392165 
L 73.832845 211.774178 
L 73.832851 214.152504 
L 73.83287 210.316493 
L 73.832876 218.604907 
L 73.832888 219.366409 
L 73.832894 215.992601 
L 73.832907 214.257409 
L 73.832919 206.909354 
L 73.832938 224.944274 
L 73.832944 212.428544 
L 73.832969 209.758703 
L 73.832981 218.729244 
L 73.832994 214.76216 
L 73.833 223.828353 
L 73.833018 207.347456 
L 73.833025 233.244945 
L 73.833031 217.767762 
L 73.833055 218.202386 
L 73.833068 217.739585 
L 73.833093 218.646437 
L 73.833111 222.544131 
L 73.833117 202.383561 
L 73.83313 224.421636 
L 73.833155 221.113461 
L 73.833167 217.664456 
L 73.833186 232.066742 
L 73.833216 211.617316 
L 73.833223 233.139358 
L 73.833241 225.937166 
L 73.833266 232.718528 
L 73.833278 229.412953 
L 73.833316 202.862061 
L 73.833328 235.423233 
L 73.833334 235.969925 
L 73.83334 231.50716 
L 73.833371 234.536284 
L 73.83339 233.863552 
L 73.833402 236.04371 
L 73.833415 211.945099 
L 73.833464 225.581035 
L 73.833495 252.227344 
L 73.833501 236.352727 
L 73.833514 190.390997 
L 73.833538 238.502973 
L 73.833557 241.324429 
L 73.833588 238.941365 
L 73.833613 220.167038 
L 73.833631 243.434058 
L 73.83365 242.747166 
L 73.833675 241.164228 
L 73.833712 217.43156 
L 73.833724 241.890113 
L 73.833743 244.30802 
L 73.833761 223.541495 
L 73.833805 245.99158 
L 73.833811 242.005039 
L 73.833836 242.153078 
L 73.833891 244.53494 
L 73.83391 190.692566 
L 73.833935 241.866179 
L 73.833947 244.044906 
L 73.83396 233.583418 
L 73.834021 244.235945 
L 73.834059 241.672252 
L 73.834083 246.571459 
L 73.834108 204.592063 
L 73.834114 248.83001 
L 73.834152 245.235867 
L 73.834207 216.949896 
L 73.83422 256.247788 
L 73.834226 247.089315 
L 73.834238 245.938363 
L 73.834269 251.325179 
L 73.834282 244.395547 
L 73.834306 176.855572 
L 73.834356 245.059129 
L 73.834393 245.458977 
L 73.834424 251.480418 
L 73.834455 229.369194 
L 73.834504 207.288872 
L 73.834542 247.599249 
L 73.83456 247.994011 
L 73.834579 246.922985 
L 73.834628 246.820455 
L 73.834672 245.698412 
L 73.834703 197.090725 
L 73.834727 247.079667 
L 73.834765 246.662729 
L 73.834802 201.987493 
L 73.834845 247.625639 
L 73.834888 247.165199 
L 73.834901 230.455955 
L 73.83495 237.424703 
L 73.834969 253.993163 
L 73.835062 246.674392 
L 73.835099 167.061874 
L 73.835105 247.891567 
L 73.835148 226.124409 
L 73.835173 246.699365 
L 73.835198 231.111012 
L 73.835229 247.380068 
L 73.835322 244.814115 
L 73.835396 209.007322 
L 73.835446 246.476183 
L 73.835452 247.412823 
L 73.835495 187.803289 
L 73.835508 247.957665 
L 73.835582 246.11532 
L 73.835693 186.311489 
L 73.835718 254.994764 
L 73.835731 248.700849 
L 73.835755 249.423721 
L 73.835786 248.150168 
L 73.835817 253.631197 
L 73.835842 230.616105 
L 73.835892 162.74402 
L 73.835991 222.568912 
L 73.836059 251.306883 
L 73.836065 247.969599 
L 73.836127 252.015819 
L 73.836189 213.750016 
L 73.836232 249.760308 
L 73.836288 182.177834 
L 73.836399 246.645686 
L 73.836436 215.903875 
L 73.836467 254.902352 
L 73.836536 247.118187 
L 73.836622 247.441788 
L 73.836684 177.009046 
L 73.836734 231.850498 
L 73.836808 249.302116 
L 73.836882 164.214336 
L 73.837012 246.836902 
L 73.837056 249.549317 
L 73.83708 217.242571 
L 73.83718 202.087285 
L 73.837217 247.750443 
L 73.837235 255.309516 
L 73.837477 149.833625 
L 73.837489 247.445107 
L 73.837576 179.235671 
L 73.837625 235.539626 
L 73.837675 193.51464 
L 73.837737 248.258392 
L 73.837923 172.723081 
L 73.837966 248.702089 
L 73.838071 171.318231 
L 73.83817 219.562022 
L 73.838238 249.991046 
L 73.838269 164.715353 
L 73.838294 250.590604 
L 73.838666 170.062005 
L 73.838715 249.311399 
L 73.838851 250.91868 
L 73.838913 211.770556 
L 73.838963 180.240111 
L 73.839062 155.128279 
L 73.83926 182.661548 
L 73.839409 185.234314 
L 73.839464 255.372965 
L 73.839656 184.587845 
L 73.839855 172.558309 
L 73.840003 187.703241 
L 73.840152 185.174564 
L 73.84035 188.93211 
L 73.840647 172.408632 
L 73.840746 189.521432 
L 73.840895 189.192796 
L 73.841044 173.719149 
L 73.84139 189.885549 
L 73.84144 192.409915 
L 73.841638 187.596918 
L 73.842084 191.159716 
L 73.842232 147.136481 
L 73.842431 192.531132 
L 73.84253 189.377156 
L 73.842629 186.125008 
L 73.843124 189.411906 
L 73.843421 189.423639 
L 73.84362 192.438042 
L 73.843818 171.015404 
L 73.843867 196.723073 
L 73.844164 194.810556 
L 73.84461 175.240748 
L 73.844709 199.387335 
L 73.844759 198.072024 
L 73.844858 197.364463 
L 73.845106 201.644073 
L 73.845205 192.405724 
L 73.845403 160.186294 
L 73.845799 196.067708 
L 73.846096 193.288013 
L 73.846344 198.58653 
L 73.846592 184.832642 
L 73.846988 167.970421 
L 73.847285 203.529701 
L 73.847434 193.487511 
L 73.847583 195.468782 
L 73.847979 195.460579 
L 73.848326 193.873489 
L 73.848573 169.77779 
L 73.848772 194.836523 
L 73.849069 194.119199 
L 73.849366 166.735252 
L 73.849713 199.405309 
L 73.85006 197.160127 
L 73.850159 196.553671 
L 73.850555 190.366347 
L 73.850704 198.759913 
L 73.851447 193.999812 
L 73.851744 137.200478 
L 73.851793 196.050858 
L 73.85214 192.940421 
L 73.852338 199.215893 
L 73.852536 190.082393 
L 73.852784 199.456451 
L 73.853527 198.396663 
L 73.854122 178.108687 
L 73.854518 200.874394 
L 73.854567 200.65715 
L 73.854914 168.108243 
L 73.855013 198.391467 
L 73.855608 197.131135 
L 73.856499 151.756891 
L 73.856698 213.065373 
L 73.856797 197.373789 
L 73.856995 199.377123 
L 73.857243 196.31011 
L 73.85749 199.794717 
L 73.857688 192.029543 
L 73.858085 190.860536 
L 73.858877 188.468814 
L 73.859422 198.521554 
L 73.859472 197.47446 
L 73.859967 203.758238 
L 73.860463 181.85062 
L 73.860809 201.560597 
L 73.861255 156.991917 
L 73.862147 198.072274 
L 73.862444 183.512005 
L 73.862692 200.484212 
L 73.863237 199.72206 
L 73.86393 199.604466 
L 73.864426 159.234395 
L 73.864822 196.39052 
L 73.865416 200.011893 
L 73.866011 122.140383 
L 73.867051 198.880218 
L 73.867398 204.73606 
L 73.867596 190.73877 
L 73.868389 168.02835 
L 73.868686 199.648556 
L 73.868835 205.94325 
L 73.870767 131.82342 
L 73.870866 201.65298 
L 73.871559 202.288918 
L 73.871955 199.054111 
L 73.872352 161.685368 
L 73.872847 212.388494 
L 73.874333 109.571408 
L 73.87468 202.394572 
L 73.875522 104.872085 
L 73.876315 185.561746 
L 73.87686 202.982134 
L 73.877107 115.992875 
L 73.877306 208.597469 
L 73.880278 113.051356 
L 73.880674 208.699048 
L 73.881764 203.983653 
L 73.881764 186.880634 
L 73.881764 186.880634 
L 73.880674 182.196047 
L 73.880278 100.577506 
L 73.877306 183.745752 
L 73.877107 81.463009 
L 73.87686 183.688542 
L 73.876315 123.885552 
L 73.875522 88.303583 
L 73.87468 180.580817 
L 73.874333 78.780181 
L 73.872847 200.8955 
L 73.872352 101.534234 
L 73.871955 158.872622 
L 73.871559 53.568 
L 73.870866 181.012136 
L 73.870767 95.444427 
L 73.868835 177.938198 
L 73.868686 179.554995 
L 73.868389 130.868698 
L 73.867596 129.019162 
L 73.867398 179.742007 
L 73.867051 183.530481 
L 73.866011 64.916518 
L 73.865416 182.276235 
L 73.864822 157.692107 
L 73.864426 108.825427 
L 73.86393 185.44145 
L 73.863237 186.137546 
L 73.862692 179.929834 
L 73.862444 114.329288 
L 73.862147 184.534457 
L 73.861255 111.587661 
L 73.860809 183.337362 
L 73.860463 136.184291 
L 73.859967 186.695342 
L 73.859472 183.586016 
L 73.859422 180.619511 
L 73.858877 134.790789 
L 73.858085 98.813735 
L 73.857688 157.658235 
L 73.85749 179.001139 
L 73.857243 183.376476 
L 73.856995 181.626289 
L 73.856797 182.833318 
L 73.856698 182.225517 
L 73.856499 107.219124 
L 73.855608 183.185479 
L 73.855013 184.384445 
L 73.854914 112.816582 
L 73.854567 182.110497 
L 73.854518 189.119864 
L 73.854122 129.264269 
L 73.853527 183.06215 
L 73.852784 182.053038 
L 73.852536 147.7697 
L 73.852338 187.510669 
L 73.85214 151.677485 
L 73.851793 181.500498 
L 73.851744 85.363774 
L 73.851447 182.577176 
L 73.850704 176.228129 
L 73.850555 168.947396 
L 73.850159 143.582071 
L 73.85006 182.445464 
L 73.849713 171.779068 
L 73.849366 122.312418 
L 73.849069 183.295716 
L 73.848772 183.053495 
L 73.848573 125.341003 
L 73.848326 181.66223 
L 73.847979 180.298324 
L 73.847583 183.326178 
L 73.847434 181.090304 
L 73.847285 183.709792 
L 73.846988 122.706838 
L 73.846592 157.131647 
L 73.846344 173.969824 
L 73.846096 183.181538 
L 73.845799 184.90546 
L 73.845403 90.295306 
L 73.845205 181.7411 
L 73.845106 174.435532 
L 73.844858 178.185538 
L 73.844759 179.686667 
L 73.844709 177.368791 
L 73.84461 147.925866 
L 73.844164 177.851026 
L 73.843867 179.101686 
L 73.843818 122.10174 
L 73.84362 179.180077 
L 73.843421 172.966752 
L 73.843124 178.391919 
L 73.842629 158.645084 
L 73.84253 177.904507 
L 73.842431 171.887618 
L 73.842232 104.410712 
L 73.842084 176.813588 
L 73.841638 178.691678 
L 73.84144 176.485194 
L 73.84139 168.167887 
L 73.841044 143.92951 
L 73.840895 169.508851 
L 73.840746 176.80922 
L 73.840647 137.547323 
L 73.84035 173.034131 
L 73.840152 170.037977 
L 73.840003 166.714335 
L 73.839855 145.278457 
L 73.839656 169.235785 
L 73.839464 240.619738 
L 73.839409 167.367167 
L 73.83926 167.693074 
L 73.839062 102.861667 
L 73.838963 165.799725 
L 73.838913 186.847671 
L 73.838851 242.395002 
L 73.838715 240.514877 
L 73.838666 151.790963 
L 73.838294 242.238936 
L 73.838269 132.482692 
L 73.838238 240.358866 
L 73.83817 190.915117 
L 73.838071 156.964001 
L 73.837966 239.528296 
L 73.837923 149.470038 
L 73.837737 241.063555 
L 73.837675 167.507273 
L 73.837625 211.029229 
L 73.837576 146.316342 
L 73.837489 238.786119 
L 73.837477 119.018914 
L 73.837235 238.441562 
L 73.837217 237.884173 
L 73.83718 181.192789 
L 73.83708 185.788751 
L 73.837056 237.863275 
L 73.837012 240.900477 
L 73.836882 143.914386 
L 73.836808 238.989606 
L 73.836734 203.18913 
L 73.836684 148.92745 
L 73.836622 240.907506 
L 73.836536 240.825774 
L 73.836467 237.195476 
L 73.836436 168.690538 
L 73.836399 240.309501 
L 73.836288 160.619448 
L 73.836232 240.553021 
L 73.836189 188.799974 
L 73.836127 239.066133 
L 73.836065 240.318878 
L 73.836059 238.753107 
L 73.835991 194.408128 
L 73.835892 129.165749 
L 73.835842 207.398285 
L 73.835817 236.093922 
L 73.835786 239.717042 
L 73.835755 238.296862 
L 73.835731 239.202693 
L 73.835718 236.883048 
L 73.835693 166.536495 
L 73.835582 239.51462 
L 73.835508 239.591317 
L 73.835495 159.50132 
L 73.835452 239.030816 
L 73.835446 239.491507 
L 73.835396 186.147187 
L 73.835322 238.047404 
L 73.835229 238.121157 
L 73.835198 207.734928 
L 73.835173 240.11797 
L 73.835148 196.23807 
L 73.835105 239.421471 
L 73.835099 145.388546 
L 73.835062 239.57617 
L 73.834969 233.805849 
L 73.83495 223.163527 
L 73.834901 199.792823 
L 73.834888 238.689738 
L 73.834845 233.870439 
L 73.834802 182.929277 
L 73.834765 238.326272 
L 73.834727 239.524817 
L 73.834703 175.581909 
L 73.834672 238.31728 
L 73.834628 237.758216 
L 73.834579 238.140112 
L 73.83456 237.259221 
L 73.834542 237.435712 
L 73.834504 189.149113 
L 73.834455 213.377567 
L 73.834424 235.93191 
L 73.834393 238.935298 
L 73.834356 238.381205 
L 73.834306 149.639534 
L 73.834282 238.246508 
L 73.834269 235.467651 
L 73.834238 235.528228 
L 73.834226 236.869113 
L 73.83422 233.217315 
L 73.834207 201.969681 
L 73.834152 235.941659 
L 73.834114 235.952229 
L 73.834108 182.225749 
L 73.834083 237.007393 
L 73.834059 232.38152 
L 73.834021 237.106244 
L 73.83396 215.370925 
L 73.833947 236.467317 
L 73.833935 233.094742 
L 73.83391 173.016387 
L 73.833891 235.497398 
L 73.833836 236.652658 
L 73.833811 233.847536 
L 73.833805 232.042417 
L 73.833761 208.348419 
L 73.833743 231.984228 
L 73.833724 234.182716 
L 73.833712 201.063695 
L 73.833675 231.007391 
L 73.83365 232.510986 
L 73.833631 228.118346 
L 73.833613 207.436042 
L 73.833588 230.627224 
L 73.833557 229.557635 
L 73.833538 229.051847 
L 73.833514 168.657767 
L 73.833501 228.731016 
L 73.833495 221.363296 
L 73.833464 215.795271 
L 73.833415 193.840865 
L 73.833402 222.2426 
L 73.83339 226.493829 
L 73.833371 221.884055 
L 73.83334 220.112425 
L 73.833334 212.950727 
L 73.833328 218.704483 
L 73.833316 189.764727 
L 73.833278 219.882716 
L 73.833266 215.85693 
L 73.833241 217.165193 
L 73.833223 212.852877 
L 73.833216 198.938031 
L 73.833186 211.193904 
L 73.833167 208.200483 
L 73.833155 209.816133 
L 73.83313 209.221041 
L 73.833117 186.761385 
L 73.833111 207.469682 
L 73.833093 211.015027 
L 73.833068 205.718541 
L 73.833055 208.478935 
L 73.833031 204.01077 
L 73.833025 217.088798 
L 73.833018 199.326548 
L 73.833 205.21653 
L 73.832994 201.828134 
L 73.832981 211.119432 
L 73.832969 200.701221 
L 73.832944 207.075887 
L 73.832938 212.652655 
L 73.832919 196.986698 
L 73.832907 207.555859 
L 73.832894 208.272284 
L 73.832888 203.415464 
L 73.832876 204.945734 
L 73.83287 204.570233 
L 73.832851 205.1771 
L 73.832845 206.263894 
L 73.832833 207.129109 
L 73.83282 201.054936 
L 73.832814 205.736877 
L 73.832808 205.891972 
L 73.832795 208.738631 
L 73.832783 207.72989 
L 73.832777 207.770538 
L 73.832771 205.884252 
L 73.832764 205.332938 
L 73.832758 210.232774 
L 73.832752 206.952527 
L 73.832746 212.664616 
L 73.83274 211.181415 
L 73.832733 213.993777 
L 73.832727 212.608528 
z
" clip-path="url(#p1ff84e6c08)" style="fill: #1f77b4; fill-opacity: 0.2; stroke: #1f77b4; stroke-opacity: 0.2"/>
    <path d="M 73.882656 86.593936 
L 73.882656 109.168392 
L 73.883448 270.506222 
L 73.885034 116.910097 
L 73.886223 118.404496 
L 73.886668 208.850162 
L 73.888204 115.987732 
L 73.889789 119.390124 
L 73.890978 118.257458 
L 73.892167 115.844865 
L 73.893752 106.513181 
L 73.89613 122.826509 
L 73.896923 118.473971 
L 73.898112 125.844681 
L 73.899301 118.654188 
L 73.902075 121.435247 
L 73.902471 117.935164 
L 73.904056 118.405105 
L 73.907623 121.540902 
L 73.908812 249.749768 
L 73.908812 134.168074 
L 73.908812 134.168074 
L 73.907623 101.041401 
L 73.904056 108.65264 
L 73.902471 105.121487 
L 73.902075 120.41695 
L 73.899301 103.006987 
L 73.898112 114.171258 
L 73.896923 111.731712 
L 73.89613 112.55896 
L 73.893752 93.003501 
L 73.892167 106.586981 
L 73.890978 88.482926 
L 73.889789 104.8338 
L 73.888204 98.419599 
L 73.886668 173.664673 
L 73.886223 112.310468 
L 73.885034 98.455188 
L 73.883448 139.817984 
L 73.882656 86.593936 
z
" clip-path="url(#p1ff84e6c08)" style="fill: #1f77b4; fill-opacity: 0.2; stroke: #1f77b4; stroke-opacity: 0.2"/>
    <path d="M 73.91119 107.121338 
L 73.91119 119.144912 
L 73.911982 121.801745 
L 73.915946 118.06478 
L 73.918323 123.405272 
L 73.919909 124.830668 
L 73.921494 122.256657 
L 73.92189 120.491253 
L 73.924268 124.03366 
L 73.927835 121.953405 
L 73.927835 114.204078 
L 73.927835 114.204078 
L 73.924268 107.709555 
L 73.92189 120.078981 
L 73.921494 121.126748 
L 73.919909 112.800168 
L 73.918323 114.731458 
L 73.915946 107.802058 
L 73.911982 115.547388 
L 73.91119 107.121338 
z
" clip-path="url(#p1ff84e6c08)" style="fill: #1f77b4; fill-opacity: 0.2; stroke: #1f77b4; stroke-opacity: 0.2"/>
    <path d="M 73.931798 121.41675 
L 73.931798 129.75343 
L 73.93259 118.785919 
L 73.934176 295.488 
L 73.937346 119.982684 
L 73.939724 121.819159 
L 73.941705 131.727949 
L 73.943687 121.940633 
L 73.946857 116.744904 
L 73.946857 112.585107 
L 73.946857 112.585107 
L 73.943687 118.871007 
L 73.941705 121.176597 
L 73.939724 114.457752 
L 73.937346 113.736758 
L 73.934176 219.994108 
L 73.93259 110.185384 
L 73.931798 121.41675 
z
" clip-path="url(#p1ff84e6c08)" style="fill: #1f77b4; fill-opacity: 0.2; stroke: #1f77b4; stroke-opacity: 0.2"/>
    <path d="M 73.950424 122.098018 
L 73.950424 122.282365 
L 73.951613 122.492525 
L 73.954784 121.705497 
L 73.957558 123.304738 
L 73.959539 265.917991 
L 73.961124 126.132017 
L 73.963502 125.878355 
L 73.96588 114.295253 
L 73.971428 120.294052 
L 73.972221 119.419345 
L 73.975392 124.39348 
L 73.975392 116.752481 
L 73.975392 116.752481 
L 73.972221 118.486324 
L 73.971428 114.056355 
L 73.96588 113.50206 
L 73.963502 115.78931 
L 73.961124 113.36913 
L 73.959539 149.229253 
L 73.957558 119.650092 
L 73.954784 119.475464 
L 73.951613 115.861324 
L 73.950424 122.098018 
z
" clip-path="url(#p1ff84e6c08)" style="fill: #1f77b4; fill-opacity: 0.2; stroke: #1f77b4; stroke-opacity: 0.2"/>
    <path d="M 73.982525 114.898143 
L 73.982525 118.023262 
L 73.984903 295.235522 
L 73.985299 130.48298 
L 73.989659 126.077309 
L 73.991244 123.037309 
L 73.991244 114.917581 
L 73.991244 114.917581 
L 73.989659 116.400978 
L 73.985299 119.767033 
L 73.984903 235.050151 
L 73.982525 114.898143 
z
" clip-path="url(#p1ff84e6c08)" style="fill: #1f77b4; fill-opacity: 0.2; stroke: #1f77b4; stroke-opacity: 0.2"/>
    <path d="M 73.99917 115.470308 
L 73.99917 115.922397 
L 74.003926 119.962666 
L 74.007096 124.284996 
L 74.010267 293.954048 
L 74.011059 123.753064 
L 74.015815 116.243123 
L 74.022948 117.220977 
L 74.022948 116.48547 
L 74.022948 116.48547 
L 74.015815 115.415443 
L 74.011059 115.671898 
L 74.010267 293.80368 
L 74.007096 121.257014 
L 74.003926 115.74871 
L 73.99917 115.470308 
z
" clip-path="url(#p1ff84e6c08)" style="fill: #1f77b4; fill-opacity: 0.2; stroke: #1f77b4; stroke-opacity: 0.2"/>
    <path d="M 74.028893 124.029271 
L 74.028893 124.17725 
L 74.028893 124.029271 
L 74.028893 124.029271 
z
" clip-path="url(#p1ff84e6c08)" style="fill: #1f77b4; fill-opacity: 0.2; stroke: #1f77b4; stroke-opacity: 0.2"/>
    <path d="M 74.03563 294.31967 
L 74.03563 295.130505 
L 74.041971 116.766066 
L 74.046727 121.495128 
L 74.05069 125.071082 
L 74.060994 294.781157 
L 74.068127 117.268944 
L 74.068127 116.822812 
L 74.068127 116.822812 
L 74.060994 294.744852 
L 74.05069 124.484495 
L 74.046727 117.399053 
L 74.041971 115.195042 
L 74.03563 294.31967 
z
" clip-path="url(#p1ff84e6c08)" style="fill: #1f77b4; fill-opacity: 0.2; stroke: #1f77b4; stroke-opacity: 0.2"/>
    <path d="M 74.086357 294.499666 
L 74.086357 294.565353 
L 74.094284 117.991597 
L 74.094284 117.858666 
L 74.094284 117.858666 
L 74.086357 294.499666 
z
" clip-path="url(#p1ff84e6c08)" style="fill: #1f77b4; fill-opacity: 0.2; stroke: #1f77b4; stroke-opacity: 0.2"/>
    <path d="M 74.137085 294.240293 
L 74.137085 294.696312 
L 74.187812 294.013227 
L 74.213176 293.800927 
L 74.238539 294.857212 
L 74.289267 294.541137 
L 74.339994 293.996497 
L 74.365357 292.643272 
L 74.441448 294.03627 
L 74.466812 292.318988 
L 74.466812 291.887654 
L 74.466812 291.887654 
L 74.441448 293.001181 
L 74.365357 292.454309 
L 74.339994 293.050368 
L 74.289267 293.386973 
L 74.238539 293.909533 
L 74.213176 293.681408 
L 74.187812 293.884363 
L 74.137085 294.240293 
z
" clip-path="url(#p1ff84e6c08)" style="fill: #1f77b4; fill-opacity: 0.2; stroke: #1f77b4; stroke-opacity: 0.2"/>
    <path d="M 74.542903 291.606636 
L 74.542903 293.283091 
L 74.59363 293.493904 
L 74.644357 294.530525 
L 74.720448 290.320729 
L 74.745812 293.275886 
L 74.847267 293.016384 
L 74.897994 292.7795 
L 74.948721 292.91846 
L 74.974085 292.616106 
L 75.050176 293.704531 
L 75.050176 291.986454 
L 75.050176 291.986454 
L 74.974085 292.431665 
L 74.948721 292.590241 
L 74.897994 290.180721 
L 74.847267 291.14727 
L 74.745812 292.28547 
L 74.720448 290.268552 
L 74.644357 292.803566 
L 74.59363 291.848662 
L 74.542903 291.606636 
z
" clip-path="url(#p1ff84e6c08)" style="fill: #1f77b4; fill-opacity: 0.2; stroke: #1f77b4; stroke-opacity: 0.2"/>
    <path d="M 75.100903 291.781811 
L 75.100903 292.082535 
L 75.202357 291.697068 
L 75.253085 292.691501 
L 75.354539 291.335017 
L 75.43063 290.814931 
L 75.455994 294.139336 
L 75.506721 290.93949 
L 75.608176 290.523056 
L 75.658903 292.220682 
L 75.734994 289.782243 
L 75.861812 291.907565 
L 75.887176 289.629718 
L 75.963267 289.461537 
L 76.064721 289.072852 
L 76.115448 288.823583 
L 76.26763 293.326417 
L 76.26763 290.762872 
L 76.26763 290.762872 
L 76.115448 288.516694 
L 76.064721 288.886201 
L 75.963267 289.039662 
L 75.887176 289.381477 
L 75.861812 289.796293 
L 75.734994 289.6068 
L 75.658903 290.343665 
L 75.608176 290.388135 
L 75.506721 290.692699 
L 75.455994 291.73536 
L 75.43063 290.74138 
L 75.354539 291.081893 
L 75.253085 289.557461 
L 75.202357 291.472185 
L 75.100903 291.781811 
z
" clip-path="url(#p1ff84e6c08)" style="fill: #1f77b4; fill-opacity: 0.2; stroke: #1f77b4; stroke-opacity: 0.2"/>
    <path d="M 76.343721 288.037531 
L 76.343721 288.467988 
L 76.369085 288.265598 
L 76.495903 288.513918 
L 76.571994 288.854976 
L 76.622721 288.366566 
L 76.673448 293.02939 
L 76.876358 290.094121 
L 76.876358 287.476894 
L 76.876358 287.476894 
L 76.673448 288.448899 
L 76.622721 287.670593 
L 76.571994 287.941574 
L 76.495903 288.10652 
L 76.369085 287.901858 
L 76.343721 288.037531 
z
" clip-path="url(#p1ff84e6c08)" style="fill: #1f77b4; fill-opacity: 0.2; stroke: #1f77b4; stroke-opacity: 0.2"/>
    <path d="M 77.028539 286.163213 
L 77.028539 287.05104 
L 77.079267 293.955043 
L 77.180721 286.583271 
L 77.256812 286.25918 
L 77.38363 285.948183 
L 77.485085 292.025491 
L 77.485085 287.733249 
L 77.485085 287.733249 
L 77.38363 285.467517 
L 77.256812 285.546278 
L 77.180721 286.196705 
L 77.079267 290.4489 
L 77.028539 286.163213 
z
" clip-path="url(#p1ff84e6c08)" style="fill: #1f77b4; fill-opacity: 0.2; stroke: #1f77b4; stroke-opacity: 0.2"/>
    <path d="M 77.637267 284.540107 
L 77.637267 285.318766 
L 77.738721 284.647994 
L 77.890903 290.657483 
L 77.94163 284.850807 
L 78.017721 284.585322 
L 78.093812 291.523752 
L 78.271358 282.902624 
L 78.296721 282.984483 
L 78.398176 283.900949 
L 78.626448 282.310707 
L 78.702539 293.393313 
L 78.702539 289.862783 
L 78.702539 289.862783 
L 78.626448 282.180034 
L 78.398176 282.340732 
L 78.296721 282.249392 
L 78.271358 282.699309 
L 78.093812 285.499828 
L 78.017721 283.706822 
L 77.94163 283.909258 
L 77.890903 285.911832 
L 77.738721 284.226034 
L 77.637267 284.540107 
z
" clip-path="url(#p1ff84e6c08)" style="fill: #1f77b4; fill-opacity: 0.2; stroke: #1f77b4; stroke-opacity: 0.2"/>
    <path d="M 78.854721 281.346923 
L 78.854721 284.209919 
L 78.905448 286.841921 
L 79.159085 281.877343 
L 79.311267 289.096709 
L 79.412721 282.090908 
L 79.514176 292.710725 
L 79.514176 286.265132 
L 79.514176 286.265132 
L 79.412721 281.064547 
L 79.311267 281.478412 
L 79.159085 281.267925 
L 78.905448 281.010427 
L 78.854721 281.346923 
z
" clip-path="url(#p1ff84e6c08)" style="fill: #1f77b4; fill-opacity: 0.2; stroke: #1f77b4; stroke-opacity: 0.2"/>
    <path d="M 79.691721 281.150827 
L 79.691721 281.973647 
L 79.919994 291.045687 
L 79.919994 284.063671 
L 79.919994 284.063671 
L 79.691721 281.150827 
z
" clip-path="url(#p1ff84e6c08)" style="fill: #1f77b4; fill-opacity: 0.2; stroke: #1f77b4; stroke-opacity: 0.2"/>
    <path d="M 80.224358 280.543297 
L 80.224358 280.548627 
L 80.325812 294.008195 
L 80.528721 280.622123 
L 80.680903 283.381017 
L 80.680903 278.604708 
L 80.680903 278.604708 
L 80.528721 279.675785 
L 80.325812 289.564633 
L 80.224358 280.543297 
z
" clip-path="url(#p1ff84e6c08)" style="fill: #1f77b4; fill-opacity: 0.2; stroke: #1f77b4; stroke-opacity: 0.2"/>
    <path d="M 80.934539 278.889323 
L 80.934539 288.239805 
L 81.137448 293.192196 
L 81.365721 278.072171 
L 81.441812 279.457155 
L 81.644721 277.766462 
L 81.644721 277.370681 
L 81.644721 277.370681 
L 81.441812 277.41451 
L 81.365721 277.266625 
L 81.137448 286.802241 
L 80.934539 278.889323 
z
" clip-path="url(#p1ff84e6c08)" style="fill: #1f77b4; fill-opacity: 0.2; stroke: #1f77b4; stroke-opacity: 0.2"/>
    <path d="M 81.949085 285.282092 
L 81.949085 292.591199 
L 81.949085 285.282092 
L 81.949085 285.282092 
z
" clip-path="url(#p1ff84e6c08)" style="fill: #1f77b4; fill-opacity: 0.2; stroke: #1f77b4; stroke-opacity: 0.2"/>
    <path d="M 82.202721 277.25352 
L 82.202721 282.320803 
L 82.354903 292.742014 
L 82.354903 290.339485 
L 82.354903 290.339485 
L 82.202721 277.25352 
z
" clip-path="url(#p1ff84e6c08)" style="fill: #1f77b4; fill-opacity: 0.2; stroke: #1f77b4; stroke-opacity: 0.2"/>
    <path d="M 82.760721 276.393721 
L 82.760721 292.658259 
L 82.96363 292.635952 
L 82.96363 275.263812 
L 82.96363 275.263812 
L 82.760721 276.393721 
z
" clip-path="url(#p1ff84e6c08)" style="fill: #1f77b4; fill-opacity: 0.2; stroke: #1f77b4; stroke-opacity: 0.2"/>
    <path d="M 83.572358 291.136923 
L 83.572358 292.4862 
L 83.572358 291.136923 
L 83.572358 291.136923 
z
" clip-path="url(#p1ff84e6c08)" style="fill: #1f77b4; fill-opacity: 0.2; stroke: #1f77b4; stroke-opacity: 0.2"/>
    <path d="M 83.876721 274.637675 
L 83.876721 276.374737 
L 83.978176 292.300804 
L 84.789812 291.726764 
L 84.992721 273.139731 
L 85.19563 291.761098 
L 86.007267 291.319702 
L 86.007267 291.100125 
L 86.007267 291.100125 
L 85.19563 288.930876 
L 84.992721 272.713821 
L 84.789812 291.503192 
L 83.978176 273.753688 
L 83.876721 274.637675 
z
" clip-path="url(#p1ff84e6c08)" style="fill: #1f77b4; fill-opacity: 0.2; stroke: #1f77b4; stroke-opacity: 0.2"/>
    <path d="M 86.615994 290.877696 
L 86.615994 291.031476 
L 86.818903 293.127897 
L 87.224721 290.840216 
L 88.036358 290.222042 
L 88.442176 290.34667 
L 88.442176 290.031607 
L 88.442176 290.031607 
L 88.036358 290.08814 
L 87.224721 290.556579 
L 86.818903 290.173268 
L 86.615994 290.877696 
z
" clip-path="url(#p1ff84e6c08)" style="fill: #1f77b4; fill-opacity: 0.2; stroke: #1f77b4; stroke-opacity: 0.2"/>
    <path d="M 90.065449 289.412631 
L 90.065449 289.76213 
L 90.268358 289.818297 
L 90.877085 289.229067 
L 91.688721 289.131731 
L 92.09454 288.864015 
L 93.311994 291.208875 
L 93.311994 288.30458 
L 93.311994 288.30458 
L 92.09454 288.541612 
L 91.688721 288.812635 
L 90.877085 288.978814 
L 90.268358 288.864208 
L 90.065449 289.412631 
z
" clip-path="url(#p1ff84e6c08)" style="fill: #1f77b4; fill-opacity: 0.2; stroke: #1f77b4; stroke-opacity: 0.2"/>
    <path d="M 93.920721 287.503615 
L 93.920721 288.297874 
L 94.123631 288.660423 
L 95.138176 288.025022 
L 95.746903 288.09096 
L 96.152722 287.863781 
L 96.55854 291.929331 
L 98.181812 289.598901 
L 99.399267 287.177771 
L 99.805085 292.974483 
L 100.616722 286.63109 
L 101.225449 286.214786 
L 102.239994 286.455158 
L 103.051631 290.670599 
L 103.051631 286.158432 
L 103.051631 286.158432 
L 102.239994 285.63008 
L 101.225449 286.18867 
L 100.616722 285.949909 
L 99.805085 287.855605 
L 99.399267 286.665511 
L 98.181812 287.185919 
L 96.55854 288.664494 
L 96.152722 287.618707 
L 95.746903 287.590934 
L 95.138176 287.965768 
L 94.123631 287.73825 
L 93.920721 287.503615 
z
" clip-path="url(#p1ff84e6c08)" style="fill: #1f77b4; fill-opacity: 0.2; stroke: #1f77b4; stroke-opacity: 0.2"/>
    <path d="M 104.269085 284.510141 
L 104.269085 284.84184 
L 105.080722 284.20089 
L 106.298176 288.968426 
L 106.703994 285.06268 
L 107.312722 284.493055 
L 107.921449 288.947199 
L 109.544722 283.375812 
L 110.356358 283.7624 
L 112.18254 282.279826 
L 112.791267 291.818226 
L 114.008722 281.722718 
L 114.41454 281.620535 
L 116.443631 281.935649 
L 117.661086 281.935869 
L 118.472722 282.775807 
L 119.284358 292.770701 
L 120.704722 280.704726 
L 122.530904 290.267972 
L 122.530904 280.792147 
L 122.530904 280.792147 
L 120.704722 280.076222 
L 119.284358 289.051126 
L 118.472722 281.02749 
L 117.661086 280.725481 
L 116.443631 281.115086 
L 114.41454 281.138004 
L 114.008722 281.15926 
L 112.791267 286.470758 
L 112.18254 282.061839 
L 110.356358 282.652893 
L 109.544722 282.700595 
L 107.921449 282.994076 
L 107.312722 283.500058 
L 106.703994 283.470588 
L 106.298176 284.178009 
L 105.080722 284.071283 
L 104.269085 284.510141 
z
" clip-path="url(#p1ff84e6c08)" style="fill: #1f77b4; fill-opacity: 0.2; stroke: #1f77b4; stroke-opacity: 0.2"/>
    <path d="M 125.777449 289.353172 
L 125.777449 292.210449 
L 127.400722 280.275054 
L 128.618177 279.714645 
L 128.618177 279.578204 
L 128.618177 279.578204 
L 127.400722 279.35426 
L 125.777449 289.353172 
z
" clip-path="url(#p1ff84e6c08)" style="fill: #1f77b4; fill-opacity: 0.2; stroke: #1f77b4; stroke-opacity: 0.2"/>
    <path d="M 132.27054 291.616815 
L 132.27054 291.654925 
L 134.096722 278.273071 
L 134.096722 277.712538 
L 134.096722 277.712538 
L 132.27054 291.616815 
z
" clip-path="url(#p1ff84e6c08)" style="fill: #1f77b4; fill-opacity: 0.2; stroke: #1f77b4; stroke-opacity: 0.2"/>
    <path d="M 138.763631 285.901804 
L 138.763631 291.198172 
L 140.792722 277.155045 
L 142.010177 291.012038 
L 142.010177 290.865375 
L 142.010177 290.865375 
L 140.792722 276.519299 
L 138.763631 285.901804 
z
" clip-path="url(#p1ff84e6c08)" style="fill: #1f77b4; fill-opacity: 0.2; stroke: #1f77b4; stroke-opacity: 0.2"/>
    <path d="M 146.879995 290.348828 
L 146.879995 290.516057 
L 146.879995 290.348828 
L 146.879995 290.348828 
z
" clip-path="url(#p1ff84e6c08)" style="fill: #1f77b4; fill-opacity: 0.2; stroke: #1f77b4; stroke-opacity: 0.2"/>
    <path d="M 151.749813 285.696467 
L 151.749813 290.12921 
L 151.749813 285.696467 
L 151.749813 285.696467 
z
" clip-path="url(#p1ff84e6c08)" style="fill: #1f77b4; fill-opacity: 0.2; stroke: #1f77b4; stroke-opacity: 0.2"/>
    <path d="M 161.48945 289.267075 
L 161.48945 289.479576 
L 164.735996 289.129254 
L 171.229087 288.591168 
L 171.229087 288.576464 
L 171.229087 288.576464 
L 164.735996 289.087556 
L 161.48945 289.267075 
z
" clip-path="url(#p1ff84e6c08)" style="fill: #1f77b4; fill-opacity: 0.2; stroke: #1f77b4; stroke-opacity: 0.2"/>
    <path d="M 177.722178 288.03355 
L 177.722178 288.063835 
L 177.722178 288.03355 
L 177.722178 288.03355 
z
" clip-path="url(#p1ff84e6c08)" style="fill: #1f77b4; fill-opacity: 0.2; stroke: #1f77b4; stroke-opacity: 0.2"/>
    <path d="M 187.461814 287.142007 
L 187.461814 287.168029 
L 190.70836 287.186881 
L 190.70836 287.063675 
L 190.70836 287.063675 
L 187.461814 287.142007 
z
" clip-path="url(#p1ff84e6c08)" style="fill: #1f77b4; fill-opacity: 0.2; stroke: #1f77b4; stroke-opacity: 0.2"/>
    <path d="M 210.187633 285.440341 
L 210.187633 285.638514 
L 219.927269 284.936146 
L 229.666906 284.059181 
L 229.666906 283.963747 
L 229.666906 283.963747 
L 219.927269 284.609118 
L 210.187633 285.440341 
z
" clip-path="url(#p1ff84e6c08)" style="fill: #1f77b4; fill-opacity: 0.2; stroke: #1f77b4; stroke-opacity: 0.2"/>
    <path d="M 236.159997 283.486232 
L 236.159997 284.481047 
L 244.276361 283.564141 
L 249.146179 283.503883 
L 255.63927 283.157198 
L 268.625452 282.148432 
L 278.365089 281.619908 
L 278.365089 281.374896 
L 278.365089 281.374896 
L 268.625452 281.980231 
L 255.63927 283.025679 
L 249.146179 283.40917 
L 244.276361 282.651655 
L 236.159997 283.486232 
z
" clip-path="url(#p1ff84e6c08)" style="fill: #1f77b4; fill-opacity: 0.2; stroke: #1f77b4; stroke-opacity: 0.2"/>
    <path d="M 288.104725 280.733319 
L 288.104725 280.834929 
L 288.104725 280.733319 
L 288.104725 280.733319 
z
" clip-path="url(#p1ff84e6c08)" style="fill: #1f77b4; fill-opacity: 0.2; stroke: #1f77b4; stroke-opacity: 0.2"/>
    <path d="M 395.240727 272.599702 
L 395.240727 272.872397 
L 395.240727 272.599702 
L 395.240727 272.599702 
z
" clip-path="url(#p1ff84e6c08)" style="fill: #1f77b4; fill-opacity: 0.2; stroke: #1f77b4; stroke-opacity: 0.2"/>
   </g>
   <g id="matplotlib.axis_1">
    <g id="xtick_1">
     <g id="line2d_1">
      <defs>
       <path id="m58eb487c5d" d="M 0 0 
L 0 3.5 
" style="stroke: #000000; stroke-width: 0.8"/>
      </defs>
      <g>
       <use xlink:href="#m58eb487c5d" x="73.832721" y="307.584" style="stroke: #000000; stroke-width: 0.8"/>
      </g>
     </g>
     <g id="text_1">
      <!-- 0.0 -->
      <g transform="translate(65.881159 322.182437)scale(0.1 -0.1)">
       <defs>
        <path id="DejaVuSans-30" d="M 2034 4250 
Q 1547 4250 1301 3770 
Q 1056 3291 1056 2328 
Q 1056 1369 1301 889 
Q 1547 409 2034 409 
Q 2525 409 2770 889 
Q 3016 1369 3016 2328 
Q 3016 3291 2770 3770 
Q 2525 4250 2034 4250 
z
M 2034 4750 
Q 2819 4750 3233 4129 
Q 3647 3509 3647 2328 
Q 3647 1150 3233 529 
Q 2819 -91 2034 -91 
Q 1250 -91 836 529 
Q 422 1150 422 2328 
Q 422 3509 836 4129 
Q 1250 4750 2034 4750 
z
" transform="scale(0.015625)"/>
        <path id="DejaVuSans-2e" d="M 684 794 
L 1344 794 
L 1344 0 
L 684 0 
L 684 794 
z
" transform="scale(0.015625)"/>
       </defs>
       <use xlink:href="#DejaVuSans-30"/>
       <use xlink:href="#DejaVuSans-2e" x="63.623047"/>
       <use xlink:href="#DejaVuSans-30" x="95.410156"/>
      </g>
     </g>
    </g>
    <g id="xtick_2">
     <g id="line2d_2">
      <g>
       <use xlink:href="#m58eb487c5d" x="134.304344" y="307.584" style="stroke: #000000; stroke-width: 0.8"/>
      </g>
     </g>
     <g id="text_2">
      <!-- 0.5 -->
      <g transform="translate(126.352781 322.182437)scale(0.1 -0.1)">
       <defs>
        <path id="DejaVuSans-35" d="M 691 4666 
L 3169 4666 
L 3169 4134 
L 1269 4134 
L 1269 2991 
Q 1406 3038 1543 3061 
Q 1681 3084 1819 3084 
Q 2600 3084 3056 2656 
Q 3513 2228 3513 1497 
Q 3513 744 3044 326 
Q 2575 -91 1722 -91 
Q 1428 -91 1123 -41 
Q 819 9 494 109 
L 494 744 
Q 775 591 1075 516 
Q 1375 441 1709 441 
Q 2250 441 2565 725 
Q 2881 1009 2881 1497 
Q 2881 1984 2565 2268 
Q 2250 2553 1709 2553 
Q 1456 2553 1204 2497 
Q 953 2441 691 2322 
L 691 4666 
z
" transform="scale(0.015625)"/>
       </defs>
       <use xlink:href="#DejaVuSans-30"/>
       <use xlink:href="#DejaVuSans-2e" x="63.623047"/>
       <use xlink:href="#DejaVuSans-35" x="95.410156"/>
      </g>
     </g>
    </g>
    <g id="xtick_3">
     <g id="line2d_3">
      <g>
       <use xlink:href="#m58eb487c5d" x="194.775966" y="307.584" style="stroke: #000000; stroke-width: 0.8"/>
      </g>
     </g>
     <g id="text_3">
      <!-- 1.0 -->
      <g transform="translate(186.824404 322.182437)scale(0.1 -0.1)">
       <defs>
        <path id="DejaVuSans-31" d="M 794 531 
L 1825 531 
L 1825 4091 
L 703 3866 
L 703 4441 
L 1819 4666 
L 2450 4666 
L 2450 531 
L 3481 531 
L 3481 0 
L 794 0 
L 794 531 
z
" transform="scale(0.015625)"/>
       </defs>
       <use xlink:href="#DejaVuSans-31"/>
       <use xlink:href="#DejaVuSans-2e" x="63.623047"/>
       <use xlink:href="#DejaVuSans-30" x="95.410156"/>
      </g>
     </g>
    </g>
    <g id="xtick_4">
     <g id="line2d_4">
      <g>
       <use xlink:href="#m58eb487c5d" x="255.247589" y="307.584" style="stroke: #000000; stroke-width: 0.8"/>
      </g>
     </g>
     <g id="text_4">
      <!-- 1.5 -->
      <g transform="translate(247.296026 322.182437)scale(0.1 -0.1)">
       <use xlink:href="#DejaVuSans-31"/>
       <use xlink:href="#DejaVuSans-2e" x="63.623047"/>
       <use xlink:href="#DejaVuSans-35" x="95.410156"/>
      </g>
     </g>
    </g>
    <g id="xtick_5">
     <g id="line2d_5">
      <g>
       <use xlink:href="#m58eb487c5d" x="315.719211" y="307.584" style="stroke: #000000; stroke-width: 0.8"/>
      </g>
     </g>
     <g id="text_5">
      <!-- 2.0 -->
      <g transform="translate(307.767649 322.182437)scale(0.1 -0.1)">
       <defs>
        <path id="DejaVuSans-32" d="M 1228 531 
L 3431 531 
L 3431 0 
L 469 0 
L 469 531 
Q 828 903 1448 1529 
Q 2069 2156 2228 2338 
Q 2531 2678 2651 2914 
Q 2772 3150 2772 3378 
Q 2772 3750 2511 3984 
Q 2250 4219 1831 4219 
Q 1534 4219 1204 4116 
Q 875 4013 500 3803 
L 500 4441 
Q 881 4594 1212 4672 
Q 1544 4750 1819 4750 
Q 2544 4750 2975 4387 
Q 3406 4025 3406 3419 
Q 3406 3131 3298 2873 
Q 3191 2616 2906 2266 
Q 2828 2175 2409 1742 
Q 1991 1309 1228 531 
z
" transform="scale(0.015625)"/>
       </defs>
       <use xlink:href="#DejaVuSans-32"/>
       <use xlink:href="#DejaVuSans-2e" x="63.623047"/>
       <use xlink:href="#DejaVuSans-30" x="95.410156"/>
      </g>
     </g>
    </g>
    <g id="xtick_6">
     <g id="line2d_6">
      <g>
       <use xlink:href="#m58eb487c5d" x="376.190834" y="307.584" style="stroke: #000000; stroke-width: 0.8"/>
      </g>
     </g>
     <g id="text_6">
      <!-- 2.5 -->
      <g transform="translate(368.239271 322.182437)scale(0.1 -0.1)">
       <use xlink:href="#DejaVuSans-32"/>
       <use xlink:href="#DejaVuSans-2e" x="63.623047"/>
       <use xlink:href="#DejaVuSans-35" x="95.410156"/>
      </g>
     </g>
    </g>
    <g id="text_7">
     <!-- Global Problem Size -->
     <g transform="translate(186.327969 335.860562)scale(0.1 -0.1)">
      <defs>
       <path id="DejaVuSans-47" d="M 3809 666 
L 3809 1919 
L 2778 1919 
L 2778 2438 
L 4434 2438 
L 4434 434 
Q 4069 175 3628 42 
Q 3188 -91 2688 -91 
Q 1594 -91 976 548 
Q 359 1188 359 2328 
Q 359 3472 976 4111 
Q 1594 4750 2688 4750 
Q 3144 4750 3555 4637 
Q 3966 4525 4313 4306 
L 4313 3634 
Q 3963 3931 3569 4081 
Q 3175 4231 2741 4231 
Q 1884 4231 1454 3753 
Q 1025 3275 1025 2328 
Q 1025 1384 1454 906 
Q 1884 428 2741 428 
Q 3075 428 3337 486 
Q 3600 544 3809 666 
z
" transform="scale(0.015625)"/>
       <path id="DejaVuSans-6c" d="M 603 4863 
L 1178 4863 
L 1178 0 
L 603 0 
L 603 4863 
z
" transform="scale(0.015625)"/>
       <path id="DejaVuSans-6f" d="M 1959 3097 
Q 1497 3097 1228 2736 
Q 959 2375 959 1747 
Q 959 1119 1226 758 
Q 1494 397 1959 397 
Q 2419 397 2687 759 
Q 2956 1122 2956 1747 
Q 2956 2369 2687 2733 
Q 2419 3097 1959 3097 
z
M 1959 3584 
Q 2709 3584 3137 3096 
Q 3566 2609 3566 1747 
Q 3566 888 3137 398 
Q 2709 -91 1959 -91 
Q 1206 -91 779 398 
Q 353 888 353 1747 
Q 353 2609 779 3096 
Q 1206 3584 1959 3584 
z
" transform="scale(0.015625)"/>
       <path id="DejaVuSans-62" d="M 3116 1747 
Q 3116 2381 2855 2742 
Q 2594 3103 2138 3103 
Q 1681 3103 1420 2742 
Q 1159 2381 1159 1747 
Q 1159 1113 1420 752 
Q 1681 391 2138 391 
Q 2594 391 2855 752 
Q 3116 1113 3116 1747 
z
M 1159 2969 
Q 1341 3281 1617 3432 
Q 1894 3584 2278 3584 
Q 2916 3584 3314 3078 
Q 3713 2572 3713 1747 
Q 3713 922 3314 415 
Q 2916 -91 2278 -91 
Q 1894 -91 1617 61 
Q 1341 213 1159 525 
L 1159 0 
L 581 0 
L 581 4863 
L 1159 4863 
L 1159 2969 
z
" transform="scale(0.015625)"/>
       <path id="DejaVuSans-61" d="M 2194 1759 
Q 1497 1759 1228 1600 
Q 959 1441 959 1056 
Q 959 750 1161 570 
Q 1363 391 1709 391 
Q 2188 391 2477 730 
Q 2766 1069 2766 1631 
L 2766 1759 
L 2194 1759 
z
M 3341 1997 
L 3341 0 
L 2766 0 
L 2766 531 
Q 2569 213 2275 61 
Q 1981 -91 1556 -91 
Q 1019 -91 701 211 
Q 384 513 384 1019 
Q 384 1609 779 1909 
Q 1175 2209 1959 2209 
L 2766 2209 
L 2766 2266 
Q 2766 2663 2505 2880 
Q 2244 3097 1772 3097 
Q 1472 3097 1187 3025 
Q 903 2953 641 2809 
L 641 3341 
Q 956 3463 1253 3523 
Q 1550 3584 1831 3584 
Q 2591 3584 2966 3190 
Q 3341 2797 3341 1997 
z
" transform="scale(0.015625)"/>
       <path id="DejaVuSans-20" transform="scale(0.015625)"/>
       <path id="DejaVuSans-50" d="M 1259 4147 
L 1259 2394 
L 2053 2394 
Q 2494 2394 2734 2622 
Q 2975 2850 2975 3272 
Q 2975 3691 2734 3919 
Q 2494 4147 2053 4147 
L 1259 4147 
z
M 628 4666 
L 2053 4666 
Q 2838 4666 3239 4311 
Q 3641 3956 3641 3272 
Q 3641 2581 3239 2228 
Q 2838 1875 2053 1875 
L 1259 1875 
L 1259 0 
L 628 0 
L 628 4666 
z
" transform="scale(0.015625)"/>
       <path id="DejaVuSans-72" d="M 2631 2963 
Q 2534 3019 2420 3045 
Q 2306 3072 2169 3072 
Q 1681 3072 1420 2755 
Q 1159 2438 1159 1844 
L 1159 0 
L 581 0 
L 581 3500 
L 1159 3500 
L 1159 2956 
Q 1341 3275 1631 3429 
Q 1922 3584 2338 3584 
Q 2397 3584 2469 3576 
Q 2541 3569 2628 3553 
L 2631 2963 
z
" transform="scale(0.015625)"/>
       <path id="DejaVuSans-65" d="M 3597 1894 
L 3597 1613 
L 953 1613 
Q 991 1019 1311 708 
Q 1631 397 2203 397 
Q 2534 397 2845 478 
Q 3156 559 3463 722 
L 3463 178 
Q 3153 47 2828 -22 
Q 2503 -91 2169 -91 
Q 1331 -91 842 396 
Q 353 884 353 1716 
Q 353 2575 817 3079 
Q 1281 3584 2069 3584 
Q 2775 3584 3186 3129 
Q 3597 2675 3597 1894 
z
M 3022 2063 
Q 3016 2534 2758 2815 
Q 2500 3097 2075 3097 
Q 1594 3097 1305 2825 
Q 1016 2553 972 2059 
L 3022 2063 
z
" transform="scale(0.015625)"/>
       <path id="DejaVuSans-6d" d="M 3328 2828 
Q 3544 3216 3844 3400 
Q 4144 3584 4550 3584 
Q 5097 3584 5394 3201 
Q 5691 2819 5691 2113 
L 5691 0 
L 5113 0 
L 5113 2094 
Q 5113 2597 4934 2840 
Q 4756 3084 4391 3084 
Q 3944 3084 3684 2787 
Q 3425 2491 3425 1978 
L 3425 0 
L 2847 0 
L 2847 2094 
Q 2847 2600 2669 2842 
Q 2491 3084 2119 3084 
Q 1678 3084 1418 2786 
Q 1159 2488 1159 1978 
L 1159 0 
L 581 0 
L 581 3500 
L 1159 3500 
L 1159 2956 
Q 1356 3278 1631 3431 
Q 1906 3584 2284 3584 
Q 2666 3584 2933 3390 
Q 3200 3197 3328 2828 
z
" transform="scale(0.015625)"/>
       <path id="DejaVuSans-53" d="M 3425 4513 
L 3425 3897 
Q 3066 4069 2747 4153 
Q 2428 4238 2131 4238 
Q 1616 4238 1336 4038 
Q 1056 3838 1056 3469 
Q 1056 3159 1242 3001 
Q 1428 2844 1947 2747 
L 2328 2669 
Q 3034 2534 3370 2195 
Q 3706 1856 3706 1288 
Q 3706 609 3251 259 
Q 2797 -91 1919 -91 
Q 1588 -91 1214 -16 
Q 841 59 441 206 
L 441 856 
Q 825 641 1194 531 
Q 1563 422 1919 422 
Q 2459 422 2753 634 
Q 3047 847 3047 1241 
Q 3047 1584 2836 1778 
Q 2625 1972 2144 2069 
L 1759 2144 
Q 1053 2284 737 2584 
Q 422 2884 422 3419 
Q 422 4038 858 4394 
Q 1294 4750 2059 4750 
Q 2388 4750 2728 4690 
Q 3069 4631 3425 4513 
z
" transform="scale(0.015625)"/>
       <path id="DejaVuSans-69" d="M 603 3500 
L 1178 3500 
L 1178 0 
L 603 0 
L 603 3500 
z
M 603 4863 
L 1178 4863 
L 1178 4134 
L 603 4134 
L 603 4863 
z
" transform="scale(0.015625)"/>
       <path id="DejaVuSans-7a" d="M 353 3500 
L 3084 3500 
L 3084 2975 
L 922 459 
L 3084 459 
L 3084 0 
L 275 0 
L 275 525 
L 2438 3041 
L 353 3041 
L 353 3500 
z
" transform="scale(0.015625)"/>
      </defs>
      <use xlink:href="#DejaVuSans-47"/>
      <use xlink:href="#DejaVuSans-6c" x="77.490234"/>
      <use xlink:href="#DejaVuSans-6f" x="105.273438"/>
      <use xlink:href="#DejaVuSans-62" x="166.455078"/>
      <use xlink:href="#DejaVuSans-61" x="229.931641"/>
      <use xlink:href="#DejaVuSans-6c" x="291.210938"/>
      <use xlink:href="#DejaVuSans-20" x="318.994141"/>
      <use xlink:href="#DejaVuSans-50" x="350.78125"/>
      <use xlink:href="#DejaVuSans-72" x="409.333984"/>
      <use xlink:href="#DejaVuSans-6f" x="448.197266"/>
      <use xlink:href="#DejaVuSans-62" x="509.378906"/>
      <use xlink:href="#DejaVuSans-6c" x="572.855469"/>
      <use xlink:href="#DejaVuSans-65" x="600.638672"/>
      <use xlink:href="#DejaVuSans-6d" x="662.162109"/>
      <use xlink:href="#DejaVuSans-20" x="759.574219"/>
      <use xlink:href="#DejaVuSans-53" x="791.361328"/>
      <use xlink:href="#DejaVuSans-69" x="854.837891"/>
      <use xlink:href="#DejaVuSans-7a" x="882.621094"/>
      <use xlink:href="#DejaVuSans-65" x="935.111328"/>
     </g>
    </g>
    <g id="text_8">
     <!-- 1e10 -->
     <g transform="translate(389.479375 334.860562)scale(0.1 -0.1)">
      <use xlink:href="#DejaVuSans-31"/>
      <use xlink:href="#DejaVuSans-65" x="63.623047"/>
      <use xlink:href="#DejaVuSans-31" x="125.146484"/>
      <use xlink:href="#DejaVuSans-30" x="188.769531"/>
     </g>
    </g>
   </g>
   <g id="matplotlib.axis_2">
    <g id="ytick_1">
     <g id="line2d_7">
      <defs>
       <path id="m95c7cb2ef9" d="M 0 0 
L -3.5 0 
" style="stroke: #000000; stroke-width: 0.8"/>
      </defs>
      <g>
       <use xlink:href="#m95c7cb2ef9" x="57.6" y="296.251596" style="stroke: #000000; stroke-width: 0.8"/>
      </g>
     </g>
     <g id="text_9">
      <!-- 0 -->
      <g transform="translate(44.2375 300.050815)scale(0.1 -0.1)">
       <use xlink:href="#DejaVuSans-30"/>
      </g>
     </g>
    </g>
    <g id="ytick_2">
     <g id="line2d_8">
      <g>
       <use xlink:href="#m95c7cb2ef9" x="57.6" y="264.900084" style="stroke: #000000; stroke-width: 0.8"/>
      </g>
     </g>
     <g id="text_10">
      <!-- 1 -->
      <g transform="translate(44.2375 268.699302)scale(0.1 -0.1)">
       <use xlink:href="#DejaVuSans-31"/>
      </g>
     </g>
    </g>
    <g id="ytick_3">
     <g id="line2d_9">
      <g>
       <use xlink:href="#m95c7cb2ef9" x="57.6" y="233.548571" style="stroke: #000000; stroke-width: 0.8"/>
      </g>
     </g>
     <g id="text_11">
      <!-- 2 -->
      <g transform="translate(44.2375 237.347789)scale(0.1 -0.1)">
       <use xlink:href="#DejaVuSans-32"/>
      </g>
     </g>
    </g>
    <g id="ytick_4">
     <g id="line2d_10">
      <g>
       <use xlink:href="#m95c7cb2ef9" x="57.6" y="202.197058" style="stroke: #000000; stroke-width: 0.8"/>
      </g>
     </g>
     <g id="text_12">
      <!-- 3 -->
      <g transform="translate(44.2375 205.996277)scale(0.1 -0.1)">
       <defs>
        <path id="DejaVuSans-33" d="M 2597 2516 
Q 3050 2419 3304 2112 
Q 3559 1806 3559 1356 
Q 3559 666 3084 287 
Q 2609 -91 1734 -91 
Q 1441 -91 1130 -33 
Q 819 25 488 141 
L 488 750 
Q 750 597 1062 519 
Q 1375 441 1716 441 
Q 2309 441 2620 675 
Q 2931 909 2931 1356 
Q 2931 1769 2642 2001 
Q 2353 2234 1838 2234 
L 1294 2234 
L 1294 2753 
L 1863 2753 
Q 2328 2753 2575 2939 
Q 2822 3125 2822 3475 
Q 2822 3834 2567 4026 
Q 2313 4219 1838 4219 
Q 1578 4219 1281 4162 
Q 984 4106 628 3988 
L 628 4550 
Q 988 4650 1302 4700 
Q 1616 4750 1894 4750 
Q 2613 4750 3031 4423 
Q 3450 4097 3450 3541 
Q 3450 3153 3228 2886 
Q 3006 2619 2597 2516 
z
" transform="scale(0.015625)"/>
       </defs>
       <use xlink:href="#DejaVuSans-33"/>
      </g>
     </g>
    </g>
    <g id="ytick_5">
     <g id="line2d_11">
      <g>
       <use xlink:href="#m95c7cb2ef9" x="57.6" y="170.845545" style="stroke: #000000; stroke-width: 0.8"/>
      </g>
     </g>
     <g id="text_13">
      <!-- 4 -->
      <g transform="translate(44.2375 174.644764)scale(0.1 -0.1)">
       <defs>
        <path id="DejaVuSans-34" d="M 2419 4116 
L 825 1625 
L 2419 1625 
L 2419 4116 
z
M 2253 4666 
L 3047 4666 
L 3047 1625 
L 3713 1625 
L 3713 1100 
L 3047 1100 
L 3047 0 
L 2419 0 
L 2419 1100 
L 313 1100 
L 313 1709 
L 2253 4666 
z
" transform="scale(0.015625)"/>
       </defs>
       <use xlink:href="#DejaVuSans-34"/>
      </g>
     </g>
    </g>
    <g id="ytick_6">
     <g id="line2d_12">
      <g>
       <use xlink:href="#m95c7cb2ef9" x="57.6" y="139.494032" style="stroke: #000000; stroke-width: 0.8"/>
      </g>
     </g>
     <g id="text_14">
      <!-- 5 -->
      <g transform="translate(44.2375 143.293251)scale(0.1 -0.1)">
       <use xlink:href="#DejaVuSans-35"/>
      </g>
     </g>
    </g>
    <g id="ytick_7">
     <g id="line2d_13">
      <g>
       <use xlink:href="#m95c7cb2ef9" x="57.6" y="108.142519" style="stroke: #000000; stroke-width: 0.8"/>
      </g>
     </g>
     <g id="text_15">
      <!-- 6 -->
      <g transform="translate(44.2375 111.941738)scale(0.1 -0.1)">
       <defs>
        <path id="DejaVuSans-36" d="M 2113 2584 
Q 1688 2584 1439 2293 
Q 1191 2003 1191 1497 
Q 1191 994 1439 701 
Q 1688 409 2113 409 
Q 2538 409 2786 701 
Q 3034 994 3034 1497 
Q 3034 2003 2786 2293 
Q 2538 2584 2113 2584 
z
M 3366 4563 
L 3366 3988 
Q 3128 4100 2886 4159 
Q 2644 4219 2406 4219 
Q 1781 4219 1451 3797 
Q 1122 3375 1075 2522 
Q 1259 2794 1537 2939 
Q 1816 3084 2150 3084 
Q 2853 3084 3261 2657 
Q 3669 2231 3669 1497 
Q 3669 778 3244 343 
Q 2819 -91 2113 -91 
Q 1303 -91 875 529 
Q 447 1150 447 2328 
Q 447 3434 972 4092 
Q 1497 4750 2381 4750 
Q 2619 4750 2861 4703 
Q 3103 4656 3366 4563 
z
" transform="scale(0.015625)"/>
       </defs>
       <use xlink:href="#DejaVuSans-36"/>
      </g>
     </g>
    </g>
    <g id="ytick_8">
     <g id="line2d_14">
      <g>
       <use xlink:href="#m95c7cb2ef9" x="57.6" y="76.791006" style="stroke: #000000; stroke-width: 0.8"/>
      </g>
     </g>
     <g id="text_16">
      <!-- 7 -->
      <g transform="translate(44.2375 80.590225)scale(0.1 -0.1)">
       <defs>
        <path id="DejaVuSans-37" d="M 525 4666 
L 3525 4666 
L 3525 4397 
L 1831 0 
L 1172 0 
L 2766 4134 
L 525 4134 
L 525 4666 
z
" transform="scale(0.015625)"/>
       </defs>
       <use xlink:href="#DejaVuSans-37"/>
      </g>
     </g>
    </g>
    <g id="ytick_9">
     <g id="line2d_15">
      <g>
       <use xlink:href="#m95c7cb2ef9" x="57.6" y="45.439493" style="stroke: #000000; stroke-width: 0.8"/>
      </g>
     </g>
     <g id="text_17">
      <!-- 8 -->
      <g transform="translate(44.2375 49.238712)scale(0.1 -0.1)">
       <defs>
        <path id="DejaVuSans-38" d="M 2034 2216 
Q 1584 2216 1326 1975 
Q 1069 1734 1069 1313 
Q 1069 891 1326 650 
Q 1584 409 2034 409 
Q 2484 409 2743 651 
Q 3003 894 3003 1313 
Q 3003 1734 2745 1975 
Q 2488 2216 2034 2216 
z
M 1403 2484 
Q 997 2584 770 2862 
Q 544 3141 544 3541 
Q 544 4100 942 4425 
Q 1341 4750 2034 4750 
Q 2731 4750 3128 4425 
Q 3525 4100 3525 3541 
Q 3525 3141 3298 2862 
Q 3072 2584 2669 2484 
Q 3125 2378 3379 2068 
Q 3634 1759 3634 1313 
Q 3634 634 3220 271 
Q 2806 -91 2034 -91 
Q 1263 -91 848 271 
Q 434 634 434 1313 
Q 434 1759 690 2068 
Q 947 2378 1403 2484 
z
M 1172 3481 
Q 1172 3119 1398 2916 
Q 1625 2713 2034 2713 
Q 2441 2713 2670 2916 
Q 2900 3119 2900 3481 
Q 2900 3844 2670 4047 
Q 2441 4250 2034 4250 
Q 1625 4250 1398 4047 
Q 1172 3844 1172 3481 
z
" transform="scale(0.015625)"/>
       </defs>
       <use xlink:href="#DejaVuSans-38"/>
      </g>
     </g>
    </g>
    <g id="text_18">
     <!-- GFLOPS -->
     <g transform="translate(38.157812 194.007688)rotate(-90)scale(0.1 -0.1)">
      <defs>
       <path id="DejaVuSans-46" d="M 628 4666 
L 3309 4666 
L 3309 4134 
L 1259 4134 
L 1259 2759 
L 3109 2759 
L 3109 2228 
L 1259 2228 
L 1259 0 
L 628 0 
L 628 4666 
z
" transform="scale(0.015625)"/>
       <path id="DejaVuSans-4c" d="M 628 4666 
L 1259 4666 
L 1259 531 
L 3531 531 
L 3531 0 
L 628 0 
L 628 4666 
z
" transform="scale(0.015625)"/>
       <path id="DejaVuSans-4f" d="M 2522 4238 
Q 1834 4238 1429 3725 
Q 1025 3213 1025 2328 
Q 1025 1447 1429 934 
Q 1834 422 2522 422 
Q 3209 422 3611 934 
Q 4013 1447 4013 2328 
Q 4013 3213 3611 3725 
Q 3209 4238 2522 4238 
z
M 2522 4750 
Q 3503 4750 4090 4092 
Q 4678 3434 4678 2328 
Q 4678 1225 4090 567 
Q 3503 -91 2522 -91 
Q 1538 -91 948 565 
Q 359 1222 359 2328 
Q 359 3434 948 4092 
Q 1538 4750 2522 4750 
z
" transform="scale(0.015625)"/>
      </defs>
      <use xlink:href="#DejaVuSans-47"/>
      <use xlink:href="#DejaVuSans-46" x="77.490234"/>
      <use xlink:href="#DejaVuSans-4c" x="135.009766"/>
      <use xlink:href="#DejaVuSans-4f" x="187.097656"/>
      <use xlink:href="#DejaVuSans-50" x="265.808594"/>
      <use xlink:href="#DejaVuSans-53" x="326.111328"/>
     </g>
    </g>
   </g>
   <g id="line2d_16">
    <path d="M 73.832727 216.742592 
L 73.866011 89.23044 
L 73.934176 270.178942 
L 73.943687 120.40582 
L 73.949235 112.201286 
L 73.959539 207.68676 
L 73.982525 116.460702 
L 74.03563 294.764169 
L 73.99917 115.696353 
L 74.086357 294.529921 
L 74.12044 117.855531 
L 74.187812 293.948795 
L 74.238539 294.349484 
L 74.365357 292.535745 
L 74.441448 293.519089 
L 74.466812 292.139605 
L 74.517539 294.02082 
L 74.542903 292.432993 
L 74.59363 292.68177 
L 74.644357 293.742491 
L 74.720448 290.291666 
L 74.745812 292.929964 
L 74.897994 291.48011 
L 75.050176 292.881997 
L 75.075539 288.785641 
L 75.100903 291.905232 
L 75.43063 290.778155 
L 75.455994 293.057336 
L 75.506721 290.833287 
L 75.608176 290.45235 
L 75.658903 291.196357 
L 75.734994 289.707909 
L 75.861812 290.842696 
L 75.963267 289.251509 
L 76.115448 288.670337 
L 76.26763 292.133231 
L 76.369085 288.077249 
L 76.571994 288.374368 
L 76.622721 288.003567 
L 76.673448 290.752604 
L 77.028539 286.563901 
L 77.079267 292.228903 
L 77.256812 285.83861 
L 77.38363 285.731889 
L 77.485085 289.700774 
L 77.561176 284.513841 
L 77.637267 284.917429 
L 77.738721 284.437014 
L 77.890903 288.103809 
L 78.017721 284.176342 
L 78.093812 288.397427 
L 78.296721 282.637116 
L 78.398176 282.9999 
L 78.626448 282.245371 
L 78.702539 291.754239 
L 78.803994 281.52206 
L 78.854721 282.498464 
L 78.905448 283.283613 
L 79.159085 281.621766 
L 79.311267 284.218427 
L 79.412721 281.653523 
L 79.514176 289.528718 
L 79.539539 281.30006 
L 79.691721 281.562237 
L 79.919994 287.512981 
L 79.970721 279.757722 
L 80.046812 280.836685 
L 80.224358 280.545962 
L 80.325812 292.230246 
L 80.528721 280.09131 
L 80.680903 280.609365 
L 80.807721 278.959481 
L 81.137448 290.327842 
L 81.365721 277.669398 
L 81.441812 278.435833 
L 81.644721 277.568572 
L 81.822267 277.908203 
L 81.949085 289.223925 
L 82.050539 277.700028 
L 82.202721 279.028434 
L 82.354903 291.565711 
L 82.709994 275.671836 
L 82.760721 284.52599 
L 82.96363 283.930146 
L 83.039721 282.066981 
L 83.572358 291.878093 
L 83.597721 274.430849 
L 83.775267 288.910358 
L 83.876721 275.506206 
L 83.978176 283.027246 
L 84.789812 291.614457 
L 84.992721 272.926776 
L 85.19563 290.373042 
L 86.007267 291.198447 
L 86.108721 272.773859 
L 86.615994 290.954586 
L 86.818903 291.74286 
L 87.224721 290.698397 
L 88.036358 290.155091 
L 88.442176 290.192782 
L 89.050903 289.51494 
L 90.065449 289.591465 
L 90.268358 289.341253 
L 92.09454 288.691179 
L 93.311994 289.678087 
L 93.717812 287.921594 
L 93.920721 287.900745 
L 94.123631 288.206819 
L 96.152722 287.741244 
L 96.55854 290.306017 
L 98.181812 288.169915 
L 99.399267 286.949799 
L 99.805085 290.419374 
L 100.616722 286.280079 
L 102.239994 286.072847 
L 103.051631 288.401198 
L 103.660358 285.294838 
L 104.269085 284.675991 
L 105.080722 284.136086 
L 106.298176 286.557155 
L 106.703994 284.198748 
L 107.312722 283.996557 
L 107.921449 285.292761 
L 109.544722 283.033203 
L 110.356358 283.194726 
L 112.18254 282.170833 
L 112.791267 289.295048 
L 114.008722 281.396254 
L 114.41454 281.37927 
L 116.443631 281.525368 
L 117.661086 281.442783 
L 118.472722 281.671241 
L 119.284358 290.910913 
L 120.704722 280.390474 
L 122.530904 285.564549 
L 122.936722 280.248499 
L 123.139631 280.687859 
L 125.777449 290.788919 
L 127.400722 279.768277 
L 128.618177 279.646424 
L 130.647268 287.292212 
L 132.27054 291.633161 
L 134.096722 277.992805 
L 134.70545 277.46044 
L 138.763631 287.682538 
L 140.792722 276.837172 
L 142.010177 290.919268 
L 145.256722 290.691876 
L 146.879995 290.432442 
L 147.488722 275.390582 
L 151.749813 288.639763 
L 153.373086 283.765229 
L 161.48945 289.349948 
L 171.229087 288.583816 
L 176.098905 287.841177 
L 177.722178 288.048693 
L 180.968723 287.866164 
L 187.461814 287.155018 
L 190.70836 287.122224 
L 210.187633 285.539427 
L 229.666906 284.011464 
L 236.159997 283.98364 
L 244.276361 283.107898 
L 249.146179 283.456527 
L 255.63927 283.091438 
L 268.625452 282.090871 
L 278.365089 281.497402 
L 281.611634 281.121388 
L 288.104725 280.772393 
L 292.974543 280.065187 
L 301.090907 279.940376 
L 317.323635 278.517143 
L 323.816726 277.722476 
L 333.556362 277.714638 
L 346.542544 276.044794 
L 359.528727 275.482724 
L 366.021818 274.922065 
L 380.631272 273.991458 
L 395.240727 272.743187 
L 398.487273 272.630834 
L 398.487273 272.630834 
" clip-path="url(#p1ff84e6c08)" style="fill: none; stroke: #1f77b4; stroke-width: 1.5; stroke-linecap: square"/>
   </g>
   <g id="line2d_17"/>
   <g id="patch_3">
    <path d="M 57.6 307.584 
L 57.6 41.472 
" style="fill: none; stroke: #000000; stroke-width: 0.8; stroke-linejoin: miter; stroke-linecap: square"/>
   </g>
   <g id="patch_4">
    <path d="M 414.72 307.584 
L 414.72 41.472 
" style="fill: none; stroke: #000000; stroke-width: 0.8; stroke-linejoin: miter; stroke-linecap: square"/>
   </g>
   <g id="patch_5">
    <path d="M 57.6 307.584 
L 414.72 307.584 
" style="fill: none; stroke: #000000; stroke-width: 0.8; stroke-linejoin: miter; stroke-linecap: square"/>
   </g>
   <g id="patch_6">
    <path d="M 57.6 41.472 
L 414.72 41.472 
" style="fill: none; stroke: #000000; stroke-width: 0.8; stroke-linejoin: miter; stroke-linecap: square"/>
   </g>
   <g id="text_19">
    <!-- Performance vs Global Problem Size -->
    <g transform="translate(127.8525 35.472)scale(0.12 -0.12)">
     <defs>
      <path id="DejaVuSans-66" d="M 2375 4863 
L 2375 4384 
L 1825 4384 
Q 1516 4384 1395 4259 
Q 1275 4134 1275 3809 
L 1275 3500 
L 2222 3500 
L 2222 3053 
L 1275 3053 
L 1275 0 
L 697 0 
L 697 3053 
L 147 3053 
L 147 3500 
L 697 3500 
L 697 3744 
Q 697 4328 969 4595 
Q 1241 4863 1831 4863 
L 2375 4863 
z
" transform="scale(0.015625)"/>
      <path id="DejaVuSans-6e" d="M 3513 2113 
L 3513 0 
L 2938 0 
L 2938 2094 
Q 2938 2591 2744 2837 
Q 2550 3084 2163 3084 
Q 1697 3084 1428 2787 
Q 1159 2491 1159 1978 
L 1159 0 
L 581 0 
L 581 3500 
L 1159 3500 
L 1159 2956 
Q 1366 3272 1645 3428 
Q 1925 3584 2291 3584 
Q 2894 3584 3203 3211 
Q 3513 2838 3513 2113 
z
" transform="scale(0.015625)"/>
      <path id="DejaVuSans-63" d="M 3122 3366 
L 3122 2828 
Q 2878 2963 2633 3030 
Q 2388 3097 2138 3097 
Q 1578 3097 1268 2742 
Q 959 2388 959 1747 
Q 959 1106 1268 751 
Q 1578 397 2138 397 
Q 2388 397 2633 464 
Q 2878 531 3122 666 
L 3122 134 
Q 2881 22 2623 -34 
Q 2366 -91 2075 -91 
Q 1284 -91 818 406 
Q 353 903 353 1747 
Q 353 2603 823 3093 
Q 1294 3584 2113 3584 
Q 2378 3584 2631 3529 
Q 2884 3475 3122 3366 
z
" transform="scale(0.015625)"/>
      <path id="DejaVuSans-76" d="M 191 3500 
L 800 3500 
L 1894 563 
L 2988 3500 
L 3597 3500 
L 2284 0 
L 1503 0 
L 191 3500 
z
" transform="scale(0.015625)"/>
      <path id="DejaVuSans-73" d="M 2834 3397 
L 2834 2853 
Q 2591 2978 2328 3040 
Q 2066 3103 1784 3103 
Q 1356 3103 1142 2972 
Q 928 2841 928 2578 
Q 928 2378 1081 2264 
Q 1234 2150 1697 2047 
L 1894 2003 
Q 2506 1872 2764 1633 
Q 3022 1394 3022 966 
Q 3022 478 2636 193 
Q 2250 -91 1575 -91 
Q 1294 -91 989 -36 
Q 684 19 347 128 
L 347 722 
Q 666 556 975 473 
Q 1284 391 1588 391 
Q 1994 391 2212 530 
Q 2431 669 2431 922 
Q 2431 1156 2273 1281 
Q 2116 1406 1581 1522 
L 1381 1569 
Q 847 1681 609 1914 
Q 372 2147 372 2553 
Q 372 3047 722 3315 
Q 1072 3584 1716 3584 
Q 2034 3584 2315 3537 
Q 2597 3491 2834 3397 
z
" transform="scale(0.015625)"/>
     </defs>
     <use xlink:href="#DejaVuSans-50"/>
     <use xlink:href="#DejaVuSans-65" x="56.677734"/>
     <use xlink:href="#DejaVuSans-72" x="118.201172"/>
     <use xlink:href="#DejaVuSans-66" x="159.314453"/>
     <use xlink:href="#DejaVuSans-6f" x="194.519531"/>
     <use xlink:href="#DejaVuSans-72" x="255.701172"/>
     <use xlink:href="#DejaVuSans-6d" x="295.064453"/>
     <use xlink:href="#DejaVuSans-61" x="392.476562"/>
     <use xlink:href="#DejaVuSans-6e" x="453.755859"/>
     <use xlink:href="#DejaVuSans-63" x="517.134766"/>
     <use xlink:href="#DejaVuSans-65" x="572.115234"/>
     <use xlink:href="#DejaVuSans-20" x="633.638672"/>
     <use xlink:href="#DejaVuSans-76" x="665.425781"/>
     <use xlink:href="#DejaVuSans-73" x="724.605469"/>
     <use xlink:href="#DejaVuSans-20" x="776.705078"/>
     <use xlink:href="#DejaVuSans-47" x="808.492188"/>
     <use xlink:href="#DejaVuSans-6c" x="885.982422"/>
     <use xlink:href="#DejaVuSans-6f" x="913.765625"/>
     <use xlink:href="#DejaVuSans-62" x="974.947266"/>
     <use xlink:href="#DejaVuSans-61" x="1038.423828"/>
     <use xlink:href="#DejaVuSans-6c" x="1099.703125"/>
     <use xlink:href="#DejaVuSans-20" x="1127.486328"/>
     <use xlink:href="#DejaVuSans-50" x="1159.273438"/>
     <use xlink:href="#DejaVuSans-72" x="1217.826172"/>
     <use xlink:href="#DejaVuSans-6f" x="1256.689453"/>
     <use xlink:href="#DejaVuSans-62" x="1317.871094"/>
     <use xlink:href="#DejaVuSans-6c" x="1381.347656"/>
     <use xlink:href="#DejaVuSans-65" x="1409.130859"/>
     <use xlink:href="#DejaVuSans-6d" x="1470.654297"/>
     <use xlink:href="#DejaVuSans-20" x="1568.066406"/>
     <use xlink:href="#DejaVuSans-53" x="1599.853516"/>
     <use xlink:href="#DejaVuSans-69" x="1663.330078"/>
     <use xlink:href="#DejaVuSans-7a" x="1691.113281"/>
     <use xlink:href="#DejaVuSans-65" x="1743.603516"/>
    </g>
   </g>
   <g id="legend_1">
    <g id="patch_7">
     <path d="M 339.12 78.82825 
L 407.72 78.82825 
Q 409.72 78.82825 409.72 76.82825 
L 409.72 48.472 
Q 409.72 46.472 407.72 46.472 
L 339.12 46.472 
Q 337.12 46.472 337.12 48.472 
L 337.12 76.82825 
Q 337.12 78.82825 339.12 78.82825 
z
" style="fill: #ffffff; opacity: 0.8; stroke: #cccccc; stroke-linejoin: miter"/>
    </g>
    <g id="text_20">
     <!-- Cluster -->
     <g transform="translate(355.673906 58.070437)scale(0.1 -0.1)">
      <defs>
       <path id="DejaVuSans-43" d="M 4122 4306 
L 4122 3641 
Q 3803 3938 3442 4084 
Q 3081 4231 2675 4231 
Q 1875 4231 1450 3742 
Q 1025 3253 1025 2328 
Q 1025 1406 1450 917 
Q 1875 428 2675 428 
Q 3081 428 3442 575 
Q 3803 722 4122 1019 
L 4122 359 
Q 3791 134 3420 21 
Q 3050 -91 2638 -91 
Q 1578 -91 968 557 
Q 359 1206 359 2328 
Q 359 3453 968 4101 
Q 1578 4750 2638 4750 
Q 3056 4750 3426 4639 
Q 3797 4528 4122 4306 
z
" transform="scale(0.015625)"/>
       <path id="DejaVuSans-75" d="M 544 1381 
L 544 3500 
L 1119 3500 
L 1119 1403 
Q 1119 906 1312 657 
Q 1506 409 1894 409 
Q 2359 409 2629 706 
Q 2900 1003 2900 1516 
L 2900 3500 
L 3475 3500 
L 3475 0 
L 2900 0 
L 2900 538 
Q 2691 219 2414 64 
Q 2138 -91 1772 -91 
Q 1169 -91 856 284 
Q 544 659 544 1381 
z
M 1991 3584 
L 1991 3584 
z
" transform="scale(0.015625)"/>
       <path id="DejaVuSans-74" d="M 1172 4494 
L 1172 3500 
L 2356 3500 
L 2356 3053 
L 1172 3053 
L 1172 1153 
Q 1172 725 1289 603 
Q 1406 481 1766 481 
L 2356 481 
L 2356 0 
L 1766 0 
Q 1100 0 847 248 
Q 594 497 594 1153 
L 594 3053 
L 172 3053 
L 172 3500 
L 594 3500 
L 594 4494 
L 1172 4494 
z
" transform="scale(0.015625)"/>
      </defs>
      <use xlink:href="#DejaVuSans-43"/>
      <use xlink:href="#DejaVuSans-6c" x="69.824219"/>
      <use xlink:href="#DejaVuSans-75" x="97.607422"/>
      <use xlink:href="#DejaVuSans-73" x="160.986328"/>
      <use xlink:href="#DejaVuSans-74" x="213.085938"/>
      <use xlink:href="#DejaVuSans-65" x="252.294922"/>
      <use xlink:href="#DejaVuSans-72" x="313.818359"/>
     </g>
    </g>
    <g id="line2d_18">
     <path d="M 341.12 69.248562 
L 351.12 69.248562 
L 361.12 69.248562 
" style="fill: none; stroke: #1f77b4; stroke-width: 1.5; stroke-linecap: square"/>
    </g>
    <g id="text_21">
     <!-- Hopper -->
     <g transform="translate(369.12 72.748562)scale(0.1 -0.1)">
      <defs>
       <path id="DejaVuSans-48" d="M 628 4666 
L 1259 4666 
L 1259 2753 
L 3553 2753 
L 3553 4666 
L 4184 4666 
L 4184 0 
L 3553 0 
L 3553 2222 
L 1259 2222 
L 1259 0 
L 628 0 
L 628 4666 
z
" transform="scale(0.015625)"/>
       <path id="DejaVuSans-70" d="M 1159 525 
L 1159 -1331 
L 581 -1331 
L 581 3500 
L 1159 3500 
L 1159 2969 
Q 1341 3281 1617 3432 
Q 1894 3584 2278 3584 
Q 2916 3584 3314 3078 
Q 3713 2572 3713 1747 
Q 3713 922 3314 415 
Q 2916 -91 2278 -91 
Q 1894 -91 1617 61 
Q 1341 213 1159 525 
z
M 3116 1747 
Q 3116 2381 2855 2742 
Q 2594 3103 2138 3103 
Q 1681 3103 1420 2742 
Q 1159 2381 1159 1747 
Q 1159 1113 1420 752 
Q 1681 391 2138 391 
Q 2594 391 2855 752 
Q 3116 1113 3116 1747 
z
" transform="scale(0.015625)"/>
      </defs>
      <use xlink:href="#DejaVuSans-48"/>
      <use xlink:href="#DejaVuSans-6f" x="75.195312"/>
      <use xlink:href="#DejaVuSans-70" x="136.376953"/>
      <use xlink:href="#DejaVuSans-70" x="199.853516"/>
      <use xlink:href="#DejaVuSans-65" x="263.330078"/>
      <use xlink:href="#DejaVuSans-72" x="324.853516"/>
     </g>
    </g>
   </g>
  </g>
 </g>
 <defs>
  <clipPath id="p1ff84e6c08">
   <rect x="57.6" y="41.472" width="357.12" height="266.112"/>
  </clipPath>
 </defs>
</svg>
