<?xml version="1.0" encoding="utf-8" standalone="no"?>
<!DOCTYPE svg PUBLIC "-//W3C//DTD SVG 1.1//EN"
  "http://www.w3.org/Graphics/SVG/1.1/DTD/svg11.dtd">
<svg xmlns:xlink="http://www.w3.org/1999/xlink" width="460.8pt" height="345.6pt" viewBox="0 0 460.8 345.6" xmlns="http://www.w3.org/2000/svg" version="1.1">
 <metadata>
  <rdf:RDF xmlns:dc="http://purl.org/dc/elements/1.1/" xmlns:cc="http://creativecommons.org/ns#" xmlns:rdf="http://www.w3.org/1999/02/22-rdf-syntax-ns#">
   <cc:Work>
    <dc:type rdf:resource="http://purl.org/dc/dcmitype/StillImage"/>
    <dc:date>2024-05-04T18:12:40.674943</dc:date>
    <dc:format>image/svg+xml</dc:format>
    <dc:creator>
     <cc:Agent>
      <dc:title>Matplotlib v3.5.3, https://matplotlib.org/</dc:title>
     </cc:Agent>
    </dc:creator>
   </cc:Work>
  </rdf:RDF>
 </metadata>
 <defs>
  <style type="text/css">*{stroke-linejoin: round; stroke-linecap: butt}</style>
 </defs>
 <g id="figure_1">
  <g id="patch_1">
   <path d="M 0 345.6 
L 460.8 345.6 
L 460.8 0 
L 0 0 
z
" style="fill: #ffffff"/>
  </g>
  <g id="axes_1">
   <g id="patch_2">
    <path d="M 57.6 307.584 
L 414.72 307.584 
L 414.72 41.472 
L 57.6 41.472 
z
" style="fill: #ffffff"/>
   </g>
   <g id="PolyCollection_1">
    <defs>
     <path id="m5605fa4c4a" d="M 73.832727 -229.345826 
L 73.832727 -88.794145 
L 73.832727 -95.431484 
L 73.832727 -108.885786 
L 73.832727 -105.427625 
L 73.832727 -81.428077 
L 107.139229 -62.11485 
L 107.139469 -59.820051 
L 107.141742 -75.380216 
L 107.142078 -73.912394 
L 107.14532 -85.173461 
L 107.145809 -82.3317 
L 107.150664 -93.497612 
L 107.151416 -82.395177 
L 107.159162 -98.480626 
L 107.160405 -96.659064 
L 107.173894 -112.505736 
L 107.176169 -109.611404 
L 107.202899 -142.574797 
L 107.207763 -142.005843 
L 107.273188 -125.722265 
L 107.286724 -128.216165 
L 107.530423 -100.557391 
L 107.530423 -113.871357 
L 107.596512 -109.929615 
L 131.552076 -60.06908 
L 131.552076 -62.377784 
L 131.563509 -81.916912 
L 131.579548 -89.02347 
L 131.603063 -95.336124 
L 131.639575 -100.892074 
L 131.700893 -108.291094 
L 131.700893 -98.782055 
L 131.816346 -139.32218 
L 132.077874 -154.927271 
L 132.932612 -139.394975 
L 140.498137 -71.156434 
L 140.501449 -57.009852 
L 140.51506 -69.521244 
L 140.519611 -69.898036 
L 140.53868 -76.274212 
L 140.545174 -72.650648 
L 140.573071 -83.689021 
L 140.582798 -81.069757 
L 140.625977 -96.187942 
L 140.641506 -87.869107 
L 140.713648 -107.860789 
L 140.74072 -99.135359 
L 140.875309 -132.682631 
L 140.929062 -117.767997 
L 141.228118 -111.154801 
L 141.228118 -118.788652 
L 141.360296 -140.760119 
L 142.285976 -122.592937 
L 142.786015 -133.585973 
L 162.113133 -72.288769 
L 162.125366 -72.42089 
L 162.15957 -84.106743 
L 162.176714 -68.672584 
L 162.176714 -78.731403 
L 162.225965 -86.444735 
L 162.225965 -89.537583 
L 162.251058 -88.298975 
L 162.325806 -100.424278 
L 162.36467 -93.342316 
L 162.486502 -107.701634 
L 162.551508 -109.883883 
L 162.771653 -139.657552 
L 162.893171 -127.958997 
L 163.362467 -158.07996 
L 163.633614 -155.379436 
L 165.018565 -139.218446 
L 165.86804 -150.449707 
L 173.991956 -74.476155 
L 174.011721 -56.903075 
L 174.058802 -81.204823 
L 174.086519 -70.319952 
L 174.154109 -91.992694 
L 174.194716 -84.810934 
L 174.296842 -93.099615 
L 174.359829 -88.202117 
L 174.525123 -107.371989 
L 174.630731 -95.631695 
L 174.925813 -136.693698 
L 175.12408 -112.967888 
L 175.738128 -149.489773 
L 176.184581 -143.574787 
L 177.886226 -131.609396 
L 179.322208 -137.81774 
L 189.664526 -82.411187 
L 189.799965 -92.459703 
L 190.001764 -93.720254 
L 190.001764 -86.688819 
L 190.323021 -94.288457 
L 190.885583 -105.951526 
L 190.885583 -118.072839 
L 192.032497 -150.767288 
L 194.402215 -81.286786 
L 194.467236 -76.419707 
L 194.539489 -92.754352 
L 194.632856 -83.414698 
L 194.740717 -96.113877 
L 194.881842 -91.015619 
L 195.054056 -95.426777 
L 195.18041 -144.210574 
L 195.282604 -99.166659 
L 195.585646 -130.730198 
L 195.994082 -118.262151 
L 196.617572 -154.371961 
L 197.469474 -152.591674 
L 199.217806 -153.280841 
L 201.596007 -153.446731 
L 207.729253 -77.807046 
L 207.804033 -71.043834 
L 207.91789 -95.255942 
L 208.025397 -85.417492 
L 208.194169 -90.165704 
L 208.356951 -87.318149 
L 208.623508 -76.32298 
L 208.623508 -90.142807 
L 208.887864 -83.440912 
L 209.348512 -141.238682 
L 209.823253 -101.538021 
L 210.739224 -149.678698 
L 211.739304 -126.437017 
L 214.107194 -152.588682 
L 216.975609 -143.038862 
L 220.045735 -82.750344 
L 220.045735 -72.817336 
L 220.1303 -92.023206 
L 220.367625 -83.021677 
L 220.367625 -78.746533 
L 220.492662 -92.037027 
L 220.865472 -97.594208 
L 221.062205 -94.974232 
L 221.704845 -106.869572 
L 222.042736 -75.683513 
L 222.042736 -100.393757 
L 223.328825 -147.539824 
L 223.993345 -141.327791 
L 227.447868 -164.084593 
L 227.597609 -90.246876 
L 227.816814 -89.23767 
L 227.935732 -97.067059 
L 228.260278 -87.891505 
L 228.448467 -98.554059 
L 228.960146 -89.397391 
L 229.127455 -144.795351 
L 229.288317 -105.676246 
L 229.288317 -96.34251 
L 230.170098 -97.371334 
L 230.84004 -156.266907 
L 232.585094 -136.312664 
L 234.458259 -156.881463 
L 238.932493 -154.106749 
L 241.872818 -93.418352 
L 242.095598 -84.032643 
L 242.321204 -83.664384 
L 242.651649 -82.151822 
L 243.001555 -86.969331 
L 243.524035 -83.793559 
L 244.114999 -113.86994 
L 245.019846 -82.553546 
L 246.160259 -106.225753 
L 246.160259 -150.928524 
L 247.968586 -109.397688 
L 249.070617 -76.988388 
L 249.070617 -79.902773 
L 249.842311 -89.881042 
L 250.79835 -112.443568 
L 250.79835 -141.535366 
L 251.132382 -98.326264 
L 252.18149 -88.421022 
L 252.534322 -90.468736 
L 252.892207 -95.943177 
L 253.434501 -88.687161 
L 253.600626 -112.74739 
L 253.600626 -126.26822 
L 254.053097 -104.257293 
L 254.955895 -89.371183 
L 254.955895 -81.163528 
L 255.556114 -127.055496 
L 256.204402 -142.154272 
L 257.903353 -119.8587 
L 259.746685 -150.181863 
L 261.324007 -161.156948 
L 261.610142 -98.061933 
L 262.211027 -83.967383 
L 262.361331 -95.81523 
L 263.287388 -84.409126 
L 263.557285 -111.161496 
L 265.105754 -86.544443 
L 265.331237 -124.669418 
L 265.331237 -131.632608 
L 265.682425 -143.152137 
L 268.619656 -117.235819 
L 270.352538 -160.20574 
L 276.672152 -84.285095 
L 277.249911 -78.941612 
L 277.402072 -141.813987 
L 277.643529 -85.176064 
L 278.536436 -72.079854 
L 279.192473 -110.997108 
L 280.468511 -89.177243 
L 280.692592 -79.165309 
L 280.839704 -85.63587 
L 281.939725 -137.122959 
L 282.100288 -104.059169 
L 282.701035 -92.549652 
L 284.811689 -95.529301 
L 285.116486 -119.824205 
L 285.833167 -91.11394 
L 286.203072 -115.138196 
L 286.877231 -81.060495 
L 287.350553 -98.700565 
L 287.857974 -159.54386 
L 287.857974 -123.774499 
L 289.043651 -80.381288 
L 290.064152 -120.636063 
L 292.272776 -137.785005 
L 293.137009 -101.675418 
L 294.681587 -127.403797 
L 294.917989 -121.702847 
L 296.195432 -140.926349 
L 296.657863 -90.636053 
L 298.135516 -76.649778 
L 298.246253 -98.402526 
L 300.654705 -81.232944 
L 300.980511 -146.092148 
L 303.055465 -125.805998 
L 305.391184 -80.270299 
L 305.391184 -91.326812 
L 306.713167 -131.50142 
L 306.713167 -146.954005 
L 312.456026 -84.98534 
L 312.531069 -80.513461 
L 313.91493 -59.263965 
L 314.30883 -93.507768 
L 314.549569 -75.444289 
L 314.549569 -68.705663 
L 315.763367 -56.756911 
L 315.763367 -77.593847 
L 316.528093 -113.787343 
L 316.750405 -113.845181 
L 316.815132 -61.687466 
L 317.894207 -117.165308 
L 318.027182 -129.390623 
L 320.443503 -96.59573 
L 321.303294 -83.081339 
L 321.303294 -93.935361 
L 322.21185 -87.206907 
L 324.004885 -85.339188 
L 324.602885 -118.373607 
L 325.214733 -129.051695 
L 329.359286 -84.53519 
L 333.273134 -97.309738 
L 334.949228 -102.766749 
L 336.639539 -134.870989 
L 336.731262 -77.660558 
L 342.786717 -87.167143 
L 348.276494 -102.030144 
L 349.774843 -97.652707 
L 350.15808 -99.787845 
L 350.15808 -85.471396 
L 351.559095 -106.581248 
L 351.559095 -102.7776 
L 353.360144 -58.357115 
L 354.381661 -138.891346 
L 355.907502 -87.701372 
L 359.645867 -112.562308 
L 360.11849 -50.112 
L 366.368625 -75.536744 
L 366.368625 -68.984028 
L 372.597337 -128.062256 
L 380.726809 -63.999738 
L 380.726809 -60.863433 
L 390.96975 -110.732905 
L 390.96975 -119.081016 
L 398.487273 -65.815477 
L 398.487273 -158.225907 
L 398.487273 -158.225907 
L 390.96975 -243.54292 
L 390.96975 -259.809759 
L 380.726809 -158.31795 
L 380.726809 -161.278011 
L 372.597337 -197.180498 
L 366.368625 -138.224684 
L 366.368625 -134.72851 
L 360.11849 -149.36199 
L 359.645867 -170.30103 
L 355.907502 -133.845195 
L 354.381661 -232.584444 
L 353.360144 -151.867845 
L 351.559095 -168.725896 
L 351.559095 -204.45172 
L 350.15808 -196.158667 
L 350.15808 -214.481762 
L 349.774843 -146.133032 
L 348.276494 -152.281197 
L 342.786717 -133.338686 
L 336.731262 -136.704776 
L 336.639539 -198.106144 
L 334.949228 -151.617681 
L 333.273134 -148.813932 
L 329.359286 -129.86445 
L 325.214733 -206.254744 
L 324.602885 -177.354856 
L 324.004885 -129.083919 
L 322.21185 -137.151903 
L 321.303294 -161.233959 
L 321.303294 -155.365435 
L 320.443503 -146.529422 
L 318.027182 -200.29476 
L 317.894207 -169.970517 
L 316.815132 -148.57927 
L 316.750405 -156.434528 
L 316.528093 -162.228625 
L 315.763367 -118.839944 
L 315.763367 -144.530953 
L 314.549569 -185.402222 
L 314.549569 -188.033689 
L 314.30883 -140.808426 
L 313.91493 -152.987164 
L 312.531069 -147.750611 
L 312.456026 -131.553015 
L 306.713167 -209.57868 
L 306.713167 -226.30402 
L 305.391184 -135.223279 
L 305.391184 -144.654264 
L 303.055465 -167.524129 
L 300.980511 -200.503711 
L 300.654705 -123.629276 
L 298.246253 -153.18373 
L 298.135516 -137.369622 
L 296.657863 -138.418434 
L 296.195432 -191.809418 
L 294.917989 -188.599411 
L 294.681587 -173.929735 
L 293.137009 -144.581283 
L 292.272776 -182.576389 
L 290.064152 -168.399214 
L 289.043651 -122.880315 
L 287.857974 -280.860535 
L 287.857974 -245.230404 
L 287.350553 -148.529051 
L 286.877231 -120.012676 
L 286.203072 -160.133576 
L 285.833167 -137.16614 
L 285.116486 -168.061211 
L 284.811689 -145.559534 
L 282.701035 -139.018636 
L 282.100288 -153.748379 
L 281.939725 -210.807258 
L 280.839704 -124.708163 
L 280.692592 -124.595158 
L 280.468511 -128.817816 
L 279.192473 -176.665843 
L 278.536436 -160.06752 
L 277.643529 -150.458297 
L 277.402072 -188.179773 
L 277.249911 -163.248547 
L 276.672152 -148.971781 
L 270.352538 -213.659729 
L 268.619656 -157.67361 
L 265.682425 -193.997809 
L 265.331237 -194.671427 
L 265.331237 -214.285829 
L 265.105754 -120.341659 
L 263.557285 -158.682464 
L 263.287388 -126.76258 
L 262.361331 -141.168437 
L 262.211027 -144.35201 
L 261.610142 -142.714253 
L 261.324007 -217.865184 
L 259.746685 -204.474541 
L 257.903353 -161.074367 
L 256.204402 -190.739184 
L 255.556114 -191.141521 
L 254.955895 -143.896649 
L 254.955895 -133.08422 
L 254.053097 -144.431791 
L 253.600626 -185.201467 
L 253.600626 -193.137817 
L 253.434501 -126.95303 
L 252.892207 -142.927572 
L 252.534322 -129.85436 
L 252.18149 -130.233768 
L 251.132382 -136.985928 
L 250.79835 -234.170788 
L 250.79835 -292.032 
L 249.842311 -128.815041 
L 249.070617 -121.311144 
L 249.070617 -165.114432 
L 247.968586 -173.762115 
L 246.160259 -247.625194 
L 246.160259 -240.988482 
L 245.019846 -131.750839 
L 244.114999 -179.704195 
L 243.524035 -127.610196 
L 243.001555 -144.122775 
L 242.651649 -166.028716 
L 242.321204 -147.741186 
L 242.095598 -170.526661 
L 241.872818 -154.594107 
L 238.932493 -203.803049 
L 234.458259 -211.226149 
L 232.585094 -184.249814 
L 230.84004 -211.117638 
L 230.170098 -135.337251 
L 229.288317 -184.295894 
L 229.288317 -156.303554 
L 229.127455 -201.478094 
L 228.960146 -121.983166 
L 228.448467 -135.721005 
L 228.260278 -127.039585 
L 227.935732 -141.145242 
L 227.816814 -154.868851 
L 227.597609 -132.195216 
L 227.447868 -225.411118 
L 223.993345 -192.361526 
L 223.328825 -202.658808 
L 222.042736 -150.008948 
L 222.042736 -135.825693 
L 221.704845 -147.336785 
L 221.062205 -126.82463 
L 220.865472 -134.406041 
L 220.492662 -134.442846 
L 220.367625 -139.035141 
L 220.367625 -138.883895 
L 220.1303 -130.684381 
L 220.045735 -132.890527 
L 220.045735 -142.301064 
L 216.975609 -221.447353 
L 214.107194 -234.291614 
L 211.739304 -187.78353 
L 210.739224 -223.925994 
L 209.823253 -157.667057 
L 209.348512 -219.482438 
L 208.887864 -127.830354 
L 208.623508 -160.504406 
L 208.623508 -175.449532 
L 208.356951 -129.414128 
L 208.194169 -139.996733 
L 208.025397 -168.254053 
L 207.91789 -159.478172 
L 207.804033 -135.456554 
L 207.729253 -127.512692 
L 201.596007 -212.042881 
L 199.217806 -207.481708 
L 197.469474 -201.682299 
L 196.617572 -214.398355 
L 195.994082 -161.220842 
L 195.585646 -182.24629 
L 195.282604 -132.785676 
L 195.18041 -202.953554 
L 195.054056 -132.80267 
L 194.881842 -120.640913 
L 194.740717 -132.362952 
L 194.632856 -126.32175 
L 194.539489 -131.242861 
L 194.467236 -121.989161 
L 194.402215 -112.513559 
L 192.032497 -206.451118 
L 190.885583 -173.199521 
L 190.885583 -194.853808 
L 190.323021 -131.833579 
L 190.001764 -125.694462 
L 190.001764 -147.325837 
L 189.799965 -130.228796 
L 189.664526 -116.241974 
L 179.322208 -218.314266 
L 177.886226 -216.225977 
L 176.184581 -217.991179 
L 175.738128 -223.011602 
L 175.12408 -180.868869 
L 174.925813 -213.1606 
L 174.630731 -142.111376 
L 174.525123 -167.692265 
L 174.359829 -132.877574 
L 174.296842 -146.617715 
L 174.194716 -129.132158 
L 174.154109 -143.404568 
L 174.086519 -130.690581 
L 174.058802 -128.437681 
L 174.011721 -113.930753 
L 173.991956 -118.897221 
L 165.86804 -206.27676 
L 165.018565 -191.501309 
L 163.633614 -213.5923 
L 163.362467 -210.672007 
L 162.893171 -177.186394 
L 162.771653 -189.746788 
L 162.551508 -149.804292 
L 162.486502 -148.461208 
L 162.36467 -126.734907 
L 162.325806 -135.456323 
L 162.251058 -119.030683 
L 162.225965 -148.902053 
L 162.225965 -126.032336 
L 162.176714 -114.554629 
L 162.176714 -136.121337 
L 162.15957 -118.216553 
L 162.125366 -116.599638 
L 162.113133 -102.823327 
L 142.786015 -215.054824 
L 142.285976 -194.150195 
L 141.360296 -221.329198 
L 141.228118 -211.043281 
L 141.228118 -237.171428 
L 140.929062 -190.265396 
L 140.875309 -215.433912 
L 140.74072 -156.428736 
L 140.713648 -173.638623 
L 140.641506 -133.238332 
L 140.625977 -149.459105 
L 140.582798 -127.209411 
L 140.573071 -135.28139 
L 140.545174 -110.538256 
L 140.53868 -114.959338 
L 140.519611 -128.871049 
L 140.51506 -110.831223 
L 140.501449 -122.350986 
L 140.498137 -118.045338 
L 132.932612 -192.982152 
L 132.077874 -209.928907 
L 131.816346 -194.26609 
L 131.700893 -180.963989 
L 131.700893 -162.437817 
L 131.639575 -137.746232 
L 131.603063 -126.736012 
L 131.579548 -115.423117 
L 131.563509 -116.327575 
L 131.552076 -116.408576 
L 131.552076 -129.525379 
L 107.596512 -180.344204 
L 107.530423 -197.509978 
L 107.530423 -260.734543 
L 107.286724 -207.715101 
L 107.273188 -198.44193 
L 107.207763 -220.728173 
L 107.202899 -225.656745 
L 107.176169 -181.619879 
L 107.173894 -182.589813 
L 107.160405 -154.777545 
L 107.159162 -161.049742 
L 107.151416 -128.053051 
L 107.150664 -147.572277 
L 107.145809 -121.249484 
L 107.14532 -121.882727 
L 107.142078 -110.886569 
L 107.141742 -109.320279 
L 107.139469 -113.324144 
L 107.139229 -93.582245 
L 73.832727 -119.161214 
L 73.832727 -172.924245 
L 73.832727 -248.938457 
L 73.832727 -212.049706 
L 73.832727 -229.345826 
z
" style="stroke: #1f77b4; stroke-opacity: 0.2"/>
    </defs>
    <g clip-path="url(#p5785ea6a50)">
     <use xlink:href="#m5605fa4c4a" x="0" y="345.6" style="fill: #1f77b4; fill-opacity: 0.2; stroke: #1f77b4; stroke-opacity: 0.2"/>
    </g>
   </g>
   <g id="matplotlib.axis_1">
    <g id="xtick_1">
     <g id="line2d_1">
      <defs>
       <path id="mca506ee65b" d="M 0 0 
L 0 3.5 
" style="stroke: #000000; stroke-width: 0.8"/>
      </defs>
      <g>
       <use xlink:href="#mca506ee65b" x="73.832727" y="307.584" style="stroke: #000000; stroke-width: 0.8"/>
      </g>
     </g>
     <g id="text_1">
      <!-- 0 -->
      <g transform="translate(70.651477 322.182437)scale(0.1 -0.1)">
       <defs>
        <path id="DejaVuSans-30" d="M 2034 4250 
Q 1547 4250 1301 3770 
Q 1056 3291 1056 2328 
Q 1056 1369 1301 889 
Q 1547 409 2034 409 
Q 2525 409 2770 889 
Q 3016 1369 3016 2328 
Q 3016 3291 2770 3770 
Q 2525 4250 2034 4250 
z
M 2034 4750 
Q 2819 4750 3233 4129 
Q 3647 3509 3647 2328 
Q 3647 1150 3233 529 
Q 2819 -91 2034 -91 
Q 1250 -91 836 529 
Q 422 1150 422 2328 
Q 422 3509 836 4129 
Q 1250 4750 2034 4750 
z
" transform="scale(0.015625)"/>
       </defs>
       <use xlink:href="#DejaVuSans-30"/>
      </g>
     </g>
    </g>
    <g id="xtick_2">
     <g id="line2d_2">
      <g>
       <use xlink:href="#mca506ee65b" x="124.80716" y="307.584" style="stroke: #000000; stroke-width: 0.8"/>
      </g>
     </g>
     <g id="text_2">
      <!-- 10 -->
      <g transform="translate(118.44466 322.182437)scale(0.1 -0.1)">
       <defs>
        <path id="DejaVuSans-31" d="M 794 531 
L 1825 531 
L 1825 4091 
L 703 3866 
L 703 4441 
L 1819 4666 
L 2450 4666 
L 2450 531 
L 3481 531 
L 3481 0 
L 794 0 
L 794 531 
z
" transform="scale(0.015625)"/>
       </defs>
       <use xlink:href="#DejaVuSans-31"/>
       <use xlink:href="#DejaVuSans-30" x="63.623047"/>
      </g>
     </g>
    </g>
    <g id="xtick_3">
     <g id="line2d_3">
      <g>
       <use xlink:href="#mca506ee65b" x="175.781593" y="307.584" style="stroke: #000000; stroke-width: 0.8"/>
      </g>
     </g>
     <g id="text_3">
      <!-- 20 -->
      <g transform="translate(169.419093 322.182437)scale(0.1 -0.1)">
       <defs>
        <path id="DejaVuSans-32" d="M 1228 531 
L 3431 531 
L 3431 0 
L 469 0 
L 469 531 
Q 828 903 1448 1529 
Q 2069 2156 2228 2338 
Q 2531 2678 2651 2914 
Q 2772 3150 2772 3378 
Q 2772 3750 2511 3984 
Q 2250 4219 1831 4219 
Q 1534 4219 1204 4116 
Q 875 4013 500 3803 
L 500 4441 
Q 881 4594 1212 4672 
Q 1544 4750 1819 4750 
Q 2544 4750 2975 4387 
Q 3406 4025 3406 3419 
Q 3406 3131 3298 2873 
Q 3191 2616 2906 2266 
Q 2828 2175 2409 1742 
Q 1991 1309 1228 531 
z
" transform="scale(0.015625)"/>
       </defs>
       <use xlink:href="#DejaVuSans-32"/>
       <use xlink:href="#DejaVuSans-30" x="63.623047"/>
      </g>
     </g>
    </g>
    <g id="xtick_4">
     <g id="line2d_4">
      <g>
       <use xlink:href="#mca506ee65b" x="226.756026" y="307.584" style="stroke: #000000; stroke-width: 0.8"/>
      </g>
     </g>
     <g id="text_4">
      <!-- 30 -->
      <g transform="translate(220.393526 322.182437)scale(0.1 -0.1)">
       <defs>
        <path id="DejaVuSans-33" d="M 2597 2516 
Q 3050 2419 3304 2112 
Q 3559 1806 3559 1356 
Q 3559 666 3084 287 
Q 2609 -91 1734 -91 
Q 1441 -91 1130 -33 
Q 819 25 488 141 
L 488 750 
Q 750 597 1062 519 
Q 1375 441 1716 441 
Q 2309 441 2620 675 
Q 2931 909 2931 1356 
Q 2931 1769 2642 2001 
Q 2353 2234 1838 2234 
L 1294 2234 
L 1294 2753 
L 1863 2753 
Q 2328 2753 2575 2939 
Q 2822 3125 2822 3475 
Q 2822 3834 2567 4026 
Q 2313 4219 1838 4219 
Q 1578 4219 1281 4162 
Q 984 4106 628 3988 
L 628 4550 
Q 988 4650 1302 4700 
Q 1616 4750 1894 4750 
Q 2613 4750 3031 4423 
Q 3450 4097 3450 3541 
Q 3450 3153 3228 2886 
Q 3006 2619 2597 2516 
z
" transform="scale(0.015625)"/>
       </defs>
       <use xlink:href="#DejaVuSans-33"/>
       <use xlink:href="#DejaVuSans-30" x="63.623047"/>
      </g>
     </g>
    </g>
    <g id="xtick_5">
     <g id="line2d_5">
      <g>
       <use xlink:href="#mca506ee65b" x="277.730458" y="307.584" style="stroke: #000000; stroke-width: 0.8"/>
      </g>
     </g>
     <g id="text_5">
      <!-- 40 -->
      <g transform="translate(271.367958 322.182437)scale(0.1 -0.1)">
       <defs>
        <path id="DejaVuSans-34" d="M 2419 4116 
L 825 1625 
L 2419 1625 
L 2419 4116 
z
M 2253 4666 
L 3047 4666 
L 3047 1625 
L 3713 1625 
L 3713 1100 
L 3047 1100 
L 3047 0 
L 2419 0 
L 2419 1100 
L 313 1100 
L 313 1709 
L 2253 4666 
z
" transform="scale(0.015625)"/>
       </defs>
       <use xlink:href="#DejaVuSans-34"/>
       <use xlink:href="#DejaVuSans-30" x="63.623047"/>
      </g>
     </g>
    </g>
    <g id="xtick_6">
     <g id="line2d_6">
      <g>
       <use xlink:href="#mca506ee65b" x="328.704891" y="307.584" style="stroke: #000000; stroke-width: 0.8"/>
      </g>
     </g>
     <g id="text_6">
      <!-- 50 -->
      <g transform="translate(322.342391 322.182437)scale(0.1 -0.1)">
       <defs>
        <path id="DejaVuSans-35" d="M 691 4666 
L 3169 4666 
L 3169 4134 
L 1269 4134 
L 1269 2991 
Q 1406 3038 1543 3061 
Q 1681 3084 1819 3084 
Q 2600 3084 3056 2656 
Q 3513 2228 3513 1497 
Q 3513 744 3044 326 
Q 2575 -91 1722 -91 
Q 1428 -91 1123 -41 
Q 819 9 494 109 
L 494 744 
Q 775 591 1075 516 
Q 1375 441 1709 441 
Q 2250 441 2565 725 
Q 2881 1009 2881 1497 
Q 2881 1984 2565 2268 
Q 2250 2553 1709 2553 
Q 1456 2553 1204 2497 
Q 953 2441 691 2322 
L 691 4666 
z
" transform="scale(0.015625)"/>
       </defs>
       <use xlink:href="#DejaVuSans-35"/>
       <use xlink:href="#DejaVuSans-30" x="63.623047"/>
      </g>
     </g>
    </g>
    <g id="xtick_7">
     <g id="line2d_7">
      <g>
       <use xlink:href="#mca506ee65b" x="379.679324" y="307.584" style="stroke: #000000; stroke-width: 0.8"/>
      </g>
     </g>
     <g id="text_7">
      <!-- 60 -->
      <g transform="translate(373.316824 322.182437)scale(0.1 -0.1)">
       <defs>
        <path id="DejaVuSans-36" d="M 2113 2584 
Q 1688 2584 1439 2293 
Q 1191 2003 1191 1497 
Q 1191 994 1439 701 
Q 1688 409 2113 409 
Q 2538 409 2786 701 
Q 3034 994 3034 1497 
Q 3034 2003 2786 2293 
Q 2538 2584 2113 2584 
z
M 3366 4563 
L 3366 3988 
Q 3128 4100 2886 4159 
Q 2644 4219 2406 4219 
Q 1781 4219 1451 3797 
Q 1122 3375 1075 2522 
Q 1259 2794 1537 2939 
Q 1816 3084 2150 3084 
Q 2853 3084 3261 2657 
Q 3669 2231 3669 1497 
Q 3669 778 3244 343 
Q 2819 -91 2113 -91 
Q 1303 -91 875 529 
Q 447 1150 447 2328 
Q 447 3434 972 4092 
Q 1497 4750 2381 4750 
Q 2619 4750 2861 4703 
Q 3103 4656 3366 4563 
z
" transform="scale(0.015625)"/>
       </defs>
       <use xlink:href="#DejaVuSans-36"/>
       <use xlink:href="#DejaVuSans-30" x="63.623047"/>
      </g>
     </g>
    </g>
    <g id="text_8">
     <!-- Local close to cube -->
     <g transform="translate(188.365469 335.860562)scale(0.1 -0.1)">
      <defs>
       <path id="DejaVuSans-4c" d="M 628 4666 
L 1259 4666 
L 1259 531 
L 3531 531 
L 3531 0 
L 628 0 
L 628 4666 
z
" transform="scale(0.015625)"/>
       <path id="DejaVuSans-6f" d="M 1959 3097 
Q 1497 3097 1228 2736 
Q 959 2375 959 1747 
Q 959 1119 1226 758 
Q 1494 397 1959 397 
Q 2419 397 2687 759 
Q 2956 1122 2956 1747 
Q 2956 2369 2687 2733 
Q 2419 3097 1959 3097 
z
M 1959 3584 
Q 2709 3584 3137 3096 
Q 3566 2609 3566 1747 
Q 3566 888 3137 398 
Q 2709 -91 1959 -91 
Q 1206 -91 779 398 
Q 353 888 353 1747 
Q 353 2609 779 3096 
Q 1206 3584 1959 3584 
z
" transform="scale(0.015625)"/>
       <path id="DejaVuSans-63" d="M 3122 3366 
L 3122 2828 
Q 2878 2963 2633 3030 
Q 2388 3097 2138 3097 
Q 1578 3097 1268 2742 
Q 959 2388 959 1747 
Q 959 1106 1268 751 
Q 1578 397 2138 397 
Q 2388 397 2633 464 
Q 2878 531 3122 666 
L 3122 134 
Q 2881 22 2623 -34 
Q 2366 -91 2075 -91 
Q 1284 -91 818 406 
Q 353 903 353 1747 
Q 353 2603 823 3093 
Q 1294 3584 2113 3584 
Q 2378 3584 2631 3529 
Q 2884 3475 3122 3366 
z
" transform="scale(0.015625)"/>
       <path id="DejaVuSans-61" d="M 2194 1759 
Q 1497 1759 1228 1600 
Q 959 1441 959 1056 
Q 959 750 1161 570 
Q 1363 391 1709 391 
Q 2188 391 2477 730 
Q 2766 1069 2766 1631 
L 2766 1759 
L 2194 1759 
z
M 3341 1997 
L 3341 0 
L 2766 0 
L 2766 531 
Q 2569 213 2275 61 
Q 1981 -91 1556 -91 
Q 1019 -91 701 211 
Q 384 513 384 1019 
Q 384 1609 779 1909 
Q 1175 2209 1959 2209 
L 2766 2209 
L 2766 2266 
Q 2766 2663 2505 2880 
Q 2244 3097 1772 3097 
Q 1472 3097 1187 3025 
Q 903 2953 641 2809 
L 641 3341 
Q 956 3463 1253 3523 
Q 1550 3584 1831 3584 
Q 2591 3584 2966 3190 
Q 3341 2797 3341 1997 
z
" transform="scale(0.015625)"/>
       <path id="DejaVuSans-6c" d="M 603 4863 
L 1178 4863 
L 1178 0 
L 603 0 
L 603 4863 
z
" transform="scale(0.015625)"/>
       <path id="DejaVuSans-20" transform="scale(0.015625)"/>
       <path id="DejaVuSans-73" d="M 2834 3397 
L 2834 2853 
Q 2591 2978 2328 3040 
Q 2066 3103 1784 3103 
Q 1356 3103 1142 2972 
Q 928 2841 928 2578 
Q 928 2378 1081 2264 
Q 1234 2150 1697 2047 
L 1894 2003 
Q 2506 1872 2764 1633 
Q 3022 1394 3022 966 
Q 3022 478 2636 193 
Q 2250 -91 1575 -91 
Q 1294 -91 989 -36 
Q 684 19 347 128 
L 347 722 
Q 666 556 975 473 
Q 1284 391 1588 391 
Q 1994 391 2212 530 
Q 2431 669 2431 922 
Q 2431 1156 2273 1281 
Q 2116 1406 1581 1522 
L 1381 1569 
Q 847 1681 609 1914 
Q 372 2147 372 2553 
Q 372 3047 722 3315 
Q 1072 3584 1716 3584 
Q 2034 3584 2315 3537 
Q 2597 3491 2834 3397 
z
" transform="scale(0.015625)"/>
       <path id="DejaVuSans-65" d="M 3597 1894 
L 3597 1613 
L 953 1613 
Q 991 1019 1311 708 
Q 1631 397 2203 397 
Q 2534 397 2845 478 
Q 3156 559 3463 722 
L 3463 178 
Q 3153 47 2828 -22 
Q 2503 -91 2169 -91 
Q 1331 -91 842 396 
Q 353 884 353 1716 
Q 353 2575 817 3079 
Q 1281 3584 2069 3584 
Q 2775 3584 3186 3129 
Q 3597 2675 3597 1894 
z
M 3022 2063 
Q 3016 2534 2758 2815 
Q 2500 3097 2075 3097 
Q 1594 3097 1305 2825 
Q 1016 2553 972 2059 
L 3022 2063 
z
" transform="scale(0.015625)"/>
       <path id="DejaVuSans-74" d="M 1172 4494 
L 1172 3500 
L 2356 3500 
L 2356 3053 
L 1172 3053 
L 1172 1153 
Q 1172 725 1289 603 
Q 1406 481 1766 481 
L 2356 481 
L 2356 0 
L 1766 0 
Q 1100 0 847 248 
Q 594 497 594 1153 
L 594 3053 
L 172 3053 
L 172 3500 
L 594 3500 
L 594 4494 
L 1172 4494 
z
" transform="scale(0.015625)"/>
       <path id="DejaVuSans-75" d="M 544 1381 
L 544 3500 
L 1119 3500 
L 1119 1403 
Q 1119 906 1312 657 
Q 1506 409 1894 409 
Q 2359 409 2629 706 
Q 2900 1003 2900 1516 
L 2900 3500 
L 3475 3500 
L 3475 0 
L 2900 0 
L 2900 538 
Q 2691 219 2414 64 
Q 2138 -91 1772 -91 
Q 1169 -91 856 284 
Q 544 659 544 1381 
z
M 1991 3584 
L 1991 3584 
z
" transform="scale(0.015625)"/>
       <path id="DejaVuSans-62" d="M 3116 1747 
Q 3116 2381 2855 2742 
Q 2594 3103 2138 3103 
Q 1681 3103 1420 2742 
Q 1159 2381 1159 1747 
Q 1159 1113 1420 752 
Q 1681 391 2138 391 
Q 2594 391 2855 752 
Q 3116 1113 3116 1747 
z
M 1159 2969 
Q 1341 3281 1617 3432 
Q 1894 3584 2278 3584 
Q 2916 3584 3314 3078 
Q 3713 2572 3713 1747 
Q 3713 922 3314 415 
Q 2916 -91 2278 -91 
Q 1894 -91 1617 61 
Q 1341 213 1159 525 
L 1159 0 
L 581 0 
L 581 4863 
L 1159 4863 
L 1159 2969 
z
" transform="scale(0.015625)"/>
      </defs>
      <use xlink:href="#DejaVuSans-4c"/>
      <use xlink:href="#DejaVuSans-6f" x="53.962891"/>
      <use xlink:href="#DejaVuSans-63" x="115.144531"/>
      <use xlink:href="#DejaVuSans-61" x="170.125"/>
      <use xlink:href="#DejaVuSans-6c" x="231.404297"/>
      <use xlink:href="#DejaVuSans-20" x="259.1875"/>
      <use xlink:href="#DejaVuSans-63" x="290.974609"/>
      <use xlink:href="#DejaVuSans-6c" x="345.955078"/>
      <use xlink:href="#DejaVuSans-6f" x="373.738281"/>
      <use xlink:href="#DejaVuSans-73" x="434.919922"/>
      <use xlink:href="#DejaVuSans-65" x="487.019531"/>
      <use xlink:href="#DejaVuSans-20" x="548.542969"/>
      <use xlink:href="#DejaVuSans-74" x="580.330078"/>
      <use xlink:href="#DejaVuSans-6f" x="619.539062"/>
      <use xlink:href="#DejaVuSans-20" x="680.720703"/>
      <use xlink:href="#DejaVuSans-63" x="712.507812"/>
      <use xlink:href="#DejaVuSans-75" x="767.488281"/>
      <use xlink:href="#DejaVuSans-62" x="830.867188"/>
      <use xlink:href="#DejaVuSans-65" x="894.34375"/>
     </g>
    </g>
   </g>
   <g id="matplotlib.axis_2">
    <g id="ytick_1">
     <g id="line2d_8">
      <defs>
       <path id="md74d20ef5d" d="M 0 0 
L -3.5 0 
" style="stroke: #000000; stroke-width: 0.8"/>
      </defs>
      <g>
       <use xlink:href="#md74d20ef5d" x="57.6" y="294.983704" style="stroke: #000000; stroke-width: 0.8"/>
      </g>
     </g>
     <g id="text_9">
      <!-- 1.5 -->
      <g transform="translate(34.696875 298.782923)scale(0.1 -0.1)">
       <defs>
        <path id="DejaVuSans-2e" d="M 684 794 
L 1344 794 
L 1344 0 
L 684 0 
L 684 794 
z
" transform="scale(0.015625)"/>
       </defs>
       <use xlink:href="#DejaVuSans-31"/>
       <use xlink:href="#DejaVuSans-2e" x="63.623047"/>
       <use xlink:href="#DejaVuSans-35" x="95.410156"/>
      </g>
     </g>
    </g>
    <g id="ytick_2">
     <g id="line2d_9">
      <g>
       <use xlink:href="#md74d20ef5d" x="57.6" y="261.583266" style="stroke: #000000; stroke-width: 0.8"/>
      </g>
     </g>
     <g id="text_10">
      <!-- 2.0 -->
      <g transform="translate(34.696875 265.382485)scale(0.1 -0.1)">
       <use xlink:href="#DejaVuSans-32"/>
       <use xlink:href="#DejaVuSans-2e" x="63.623047"/>
       <use xlink:href="#DejaVuSans-30" x="95.410156"/>
      </g>
     </g>
    </g>
    <g id="ytick_3">
     <g id="line2d_10">
      <g>
       <use xlink:href="#md74d20ef5d" x="57.6" y="228.182828" style="stroke: #000000; stroke-width: 0.8"/>
      </g>
     </g>
     <g id="text_11">
      <!-- 2.5 -->
      <g transform="translate(34.696875 231.982047)scale(0.1 -0.1)">
       <use xlink:href="#DejaVuSans-32"/>
       <use xlink:href="#DejaVuSans-2e" x="63.623047"/>
       <use xlink:href="#DejaVuSans-35" x="95.410156"/>
      </g>
     </g>
    </g>
    <g id="ytick_4">
     <g id="line2d_11">
      <g>
       <use xlink:href="#md74d20ef5d" x="57.6" y="194.78239" style="stroke: #000000; stroke-width: 0.8"/>
      </g>
     </g>
     <g id="text_12">
      <!-- 3.0 -->
      <g transform="translate(34.696875 198.581609)scale(0.1 -0.1)">
       <use xlink:href="#DejaVuSans-33"/>
       <use xlink:href="#DejaVuSans-2e" x="63.623047"/>
       <use xlink:href="#DejaVuSans-30" x="95.410156"/>
      </g>
     </g>
    </g>
    <g id="ytick_5">
     <g id="line2d_12">
      <g>
       <use xlink:href="#md74d20ef5d" x="57.6" y="161.381952" style="stroke: #000000; stroke-width: 0.8"/>
      </g>
     </g>
     <g id="text_13">
      <!-- 3.5 -->
      <g transform="translate(34.696875 165.181171)scale(0.1 -0.1)">
       <use xlink:href="#DejaVuSans-33"/>
       <use xlink:href="#DejaVuSans-2e" x="63.623047"/>
       <use xlink:href="#DejaVuSans-35" x="95.410156"/>
      </g>
     </g>
    </g>
    <g id="ytick_6">
     <g id="line2d_13">
      <g>
       <use xlink:href="#md74d20ef5d" x="57.6" y="127.981514" style="stroke: #000000; stroke-width: 0.8"/>
      </g>
     </g>
     <g id="text_14">
      <!-- 4.0 -->
      <g transform="translate(34.696875 131.780733)scale(0.1 -0.1)">
       <use xlink:href="#DejaVuSans-34"/>
       <use xlink:href="#DejaVuSans-2e" x="63.623047"/>
       <use xlink:href="#DejaVuSans-30" x="95.410156"/>
      </g>
     </g>
    </g>
    <g id="ytick_7">
     <g id="line2d_14">
      <g>
       <use xlink:href="#md74d20ef5d" x="57.6" y="94.581076" style="stroke: #000000; stroke-width: 0.8"/>
      </g>
     </g>
     <g id="text_15">
      <!-- 4.5 -->
      <g transform="translate(34.696875 98.380295)scale(0.1 -0.1)">
       <use xlink:href="#DejaVuSans-34"/>
       <use xlink:href="#DejaVuSans-2e" x="63.623047"/>
       <use xlink:href="#DejaVuSans-35" x="95.410156"/>
      </g>
     </g>
    </g>
    <g id="ytick_8">
     <g id="line2d_15">
      <g>
       <use xlink:href="#md74d20ef5d" x="57.6" y="61.180638" style="stroke: #000000; stroke-width: 0.8"/>
      </g>
     </g>
     <g id="text_16">
      <!-- 5.0 -->
      <g transform="translate(34.696875 64.979857)scale(0.1 -0.1)">
       <use xlink:href="#DejaVuSans-35"/>
       <use xlink:href="#DejaVuSans-2e" x="63.623047"/>
       <use xlink:href="#DejaVuSans-30" x="95.410156"/>
      </g>
     </g>
    </g>
    <g id="text_17">
     <!-- GFLOPS -->
     <g transform="translate(28.617187 194.007688)rotate(-90)scale(0.1 -0.1)">
      <defs>
       <path id="DejaVuSans-47" d="M 3809 666 
L 3809 1919 
L 2778 1919 
L 2778 2438 
L 4434 2438 
L 4434 434 
Q 4069 175 3628 42 
Q 3188 -91 2688 -91 
Q 1594 -91 976 548 
Q 359 1188 359 2328 
Q 359 3472 976 4111 
Q 1594 4750 2688 4750 
Q 3144 4750 3555 4637 
Q 3966 4525 4313 4306 
L 4313 3634 
Q 3963 3931 3569 4081 
Q 3175 4231 2741 4231 
Q 1884 4231 1454 3753 
Q 1025 3275 1025 2328 
Q 1025 1384 1454 906 
Q 1884 428 2741 428 
Q 3075 428 3337 486 
Q 3600 544 3809 666 
z
" transform="scale(0.015625)"/>
       <path id="DejaVuSans-46" d="M 628 4666 
L 3309 4666 
L 3309 4134 
L 1259 4134 
L 1259 2759 
L 3109 2759 
L 3109 2228 
L 1259 2228 
L 1259 0 
L 628 0 
L 628 4666 
z
" transform="scale(0.015625)"/>
       <path id="DejaVuSans-4f" d="M 2522 4238 
Q 1834 4238 1429 3725 
Q 1025 3213 1025 2328 
Q 1025 1447 1429 934 
Q 1834 422 2522 422 
Q 3209 422 3611 934 
Q 4013 1447 4013 2328 
Q 4013 3213 3611 3725 
Q 3209 4238 2522 4238 
z
M 2522 4750 
Q 3503 4750 4090 4092 
Q 4678 3434 4678 2328 
Q 4678 1225 4090 567 
Q 3503 -91 2522 -91 
Q 1538 -91 948 565 
Q 359 1222 359 2328 
Q 359 3434 948 4092 
Q 1538 4750 2522 4750 
z
" transform="scale(0.015625)"/>
       <path id="DejaVuSans-50" d="M 1259 4147 
L 1259 2394 
L 2053 2394 
Q 2494 2394 2734 2622 
Q 2975 2850 2975 3272 
Q 2975 3691 2734 3919 
Q 2494 4147 2053 4147 
L 1259 4147 
z
M 628 4666 
L 2053 4666 
Q 2838 4666 3239 4311 
Q 3641 3956 3641 3272 
Q 3641 2581 3239 2228 
Q 2838 1875 2053 1875 
L 1259 1875 
L 1259 0 
L 628 0 
L 628 4666 
z
" transform="scale(0.015625)"/>
       <path id="DejaVuSans-53" d="M 3425 4513 
L 3425 3897 
Q 3066 4069 2747 4153 
Q 2428 4238 2131 4238 
Q 1616 4238 1336 4038 
Q 1056 3838 1056 3469 
Q 1056 3159 1242 3001 
Q 1428 2844 1947 2747 
L 2328 2669 
Q 3034 2534 3370 2195 
Q 3706 1856 3706 1288 
Q 3706 609 3251 259 
Q 2797 -91 1919 -91 
Q 1588 -91 1214 -16 
Q 841 59 441 206 
L 441 856 
Q 825 641 1194 531 
Q 1563 422 1919 422 
Q 2459 422 2753 634 
Q 3047 847 3047 1241 
Q 3047 1584 2836 1778 
Q 2625 1972 2144 2069 
L 1759 2144 
Q 1053 2284 737 2584 
Q 422 2884 422 3419 
Q 422 4038 858 4394 
Q 1294 4750 2059 4750 
Q 2388 4750 2728 4690 
Q 3069 4631 3425 4513 
z
" transform="scale(0.015625)"/>
      </defs>
      <use xlink:href="#DejaVuSans-47"/>
      <use xlink:href="#DejaVuSans-46" x="77.490234"/>
      <use xlink:href="#DejaVuSans-4c" x="135.009766"/>
      <use xlink:href="#DejaVuSans-4f" x="187.097656"/>
      <use xlink:href="#DejaVuSans-50" x="265.808594"/>
      <use xlink:href="#DejaVuSans-53" x="326.111328"/>
     </g>
    </g>
   </g>
   <g id="line2d_16">
    <path d="M 73.832727 188.657619 
L 73.832727 168.091526 
L 73.832727 245.419246 
L 107.139229 268.553637 
L 107.202899 161.435765 
L 107.207763 166.569865 
L 107.273188 183.826745 
L 107.286724 177.374411 
L 107.530423 167.485925 
L 107.596512 202.053625 
L 131.552076 253.186596 
L 131.552076 258.410892 
L 131.639575 226.054562 
L 131.816346 179.898473 
L 132.077874 163.816996 
L 132.932612 180.596678 
L 140.498137 252.41852 
L 140.501449 258.113592 
L 140.573071 237.289671 
L 140.582798 241.672294 
L 140.713648 205.170903 
L 140.74072 218.17561 
L 140.875309 175.192469 
L 140.929062 192.624612 
L 141.228118 175.486021 
L 141.228118 185.237674 
L 141.360296 166.937778 
L 142.285976 188.343744 
L 142.786015 173.938059 
L 162.113133 258.999876 
L 162.225965 228.207832 
L 162.251058 242.664388 
L 162.486502 217.263846 
L 162.551508 216.771477 
L 162.771653 181.751474 
L 162.893171 193.060554 
L 163.362467 162.597583 
L 163.633614 162.131488 
L 165.018565 182.298811 
L 165.86804 168.687154 
L 173.991956 250.618599 
L 174.011721 264.802801 
L 174.058802 241.580436 
L 174.086519 246.2587 
L 174.154109 229.193078 
L 174.194716 239.578781 
L 174.296842 226.156216 
L 174.359829 235.827485 
L 174.525123 207.555249 
L 174.630731 226.774136 
L 174.925813 171.160427 
L 175.12408 197.67663 
L 175.738128 161.082808 
L 176.184581 164.496336 
L 177.886226 175.154043 
L 179.322208 167.997983 
L 189.664526 247.65199 
L 189.799965 234.655349 
L 190.001764 226.376198 
L 190.001764 239.196553 
L 190.323021 232.909856 
L 190.885583 197.568084 
L 190.885583 201.817231 
L 192.032497 168.523448 
L 194.402215 249.102297 
L 194.467236 247.902301 
L 194.539489 234.233651 
L 194.632856 240.95598 
L 194.740717 231.798286 
L 194.881842 239.576295 
L 195.054056 231.914018 
L 195.18041 171.247464 
L 195.282604 231.116804 
L 195.585646 189.915651 
L 195.994082 205.83303 
L 196.617572 163.611364 
L 197.469474 167.413606 
L 199.217806 165.116133 
L 201.596007 163.70261 
L 207.729253 242.517075 
L 207.804033 246.346487 
L 208.025397 220.469044 
L 208.356951 237.958708 
L 208.623508 221.303427 
L 208.887864 241.111664 
L 209.348512 168.439167 
L 209.823253 217.292723 
L 210.739224 157.954201 
L 211.739304 191.012678 
L 214.107194 154.222731 
L 216.975609 164.425542 
L 220.045735 235.318713 
L 220.045735 245.173422 
L 220.1303 235.010718 
L 220.367625 234.907007 
L 220.367625 238.182721 
L 220.492662 233.460312 
L 220.865472 229.896984 
L 221.062205 235.436822 
L 221.704845 218.165555 
L 222.042736 239.364512 
L 222.042736 221.273848 
L 223.328825 171.409898 
L 223.993345 177.77655 
L 227.447868 150.491007 
L 227.597609 234.550321 
L 227.816814 225.587119 
L 227.935732 227.348377 
L 228.260278 238.138631 
L 228.448467 228.554968 
L 228.960146 240.625925 
L 229.127455 172.279262 
L 229.288317 215.105101 
L 229.288317 205.701231 
L 230.170098 228.81973 
L 230.84004 161.059033 
L 232.585094 185.953413 
L 234.458259 160.799447 
L 238.932493 166.428291 
L 241.872818 223.719542 
L 242.095598 220.869086 
L 242.321204 231.62597 
L 242.651649 224.173964 
L 243.524035 239.560894 
L 244.114999 199.678948 
L 245.019846 238.949779 
L 246.160259 174.060858 
L 246.160259 149.53173 
L 247.968586 204.517364 
L 249.070617 229.214059 
L 249.070617 245.556039 
L 249.842311 236.496199 
L 250.79835 152.831789 
L 250.79835 161.519726 
L 251.132382 228.096902 
L 252.18149 235.844133 
L 252.534322 236.122052 
L 252.892207 226.849276 
L 253.434501 237.931851 
L 253.600626 190.200781 
L 254.053097 222.03125 
L 254.955895 234.037848 
L 255.556114 186.324347 
L 256.204402 180.738157 
L 257.903353 204.794156 
L 259.746685 169.488188 
L 261.324007 155.405234 
L 261.610142 226.769646 
L 262.211027 232.937886 
L 262.361331 226.71342 
L 263.287388 240.840124 
L 263.557285 211.294997 
L 265.105754 243.16422 
L 265.331237 174.023543 
L 265.331237 183.264796 
L 265.682425 176.997429 
L 268.619656 208.447253 
L 270.352538 158.451746 
L 276.672152 231.155002 
L 277.249911 225.741504 
L 277.402072 181.912216 
L 277.643529 229.022501 
L 278.536436 231.594447 
L 279.192473 203.485019 
L 280.692592 244.148854 
L 280.839704 240.668537 
L 281.939725 171.802722 
L 282.100288 218.679662 
L 282.701035 231.785466 
L 284.811689 226.041863 
L 285.116486 203.211278 
L 285.833167 232.752337 
L 286.203072 207.501904 
L 286.877231 246.769955 
L 287.350553 222.635965 
L 287.857974 145.369529 
L 287.857974 145.461338 
L 289.043651 244.000234 
L 290.064152 200.061093 
L 292.272776 184.068791 
L 293.137009 223.171486 
L 294.681587 194.989756 
L 294.917989 193.392194 
L 296.195432 179.038912 
L 296.657863 231.792447 
L 298.135516 238.705877 
L 298.246253 219.466935 
L 300.654705 243.061916 
L 300.980511 173.993593 
L 303.055465 198.812439 
L 305.391184 234.585864 
L 305.391184 232.104247 
L 306.713167 167.077979 
L 306.713167 169.693143 
L 312.456026 236.88776 
L 312.531069 232.709658 
L 313.91493 245.008561 
L 314.30883 228.987844 
L 314.549569 214.193647 
L 314.549569 217.29221 
L 315.763367 245.254718 
L 315.763367 248.876493 
L 316.528093 208.77299 
L 316.750405 211.10329 
L 316.815132 242.532551 
L 317.894207 202.142082 
L 318.027182 183.482142 
L 320.443503 225.992262 
L 321.303294 226.897056 
L 321.303294 220.445845 
L 322.21185 232.196146 
L 324.004885 239.340203 
L 324.602885 198.144085 
L 325.214733 180.100691 
L 329.359286 239.746189 
L 333.273134 221.453724 
L 334.949228 218.741536 
L 336.639539 180.995219 
L 336.731262 240.138607 
L 342.786717 236.423376 
L 348.276494 219.289335 
L 349.774843 223.9572 
L 350.15808 191.772301 
L 350.15808 204.053183 
L 351.559095 191.379404 
L 351.559095 210.596331 
L 353.360144 242.162506 
L 354.381661 160.083754 
L 355.907502 235.306858 
L 359.645867 205.620721 
L 360.11849 249.21161 
L 366.368625 240.434005 
L 366.368625 242.146225 
L 372.597337 182.532155 
L 380.726809 238.116461 
L 380.726809 237.780306 
L 390.96975 160.447133 
L 390.96975 167.183085 
L 398.487273 238.184439 
L 398.487273 238.184439 
" clip-path="url(#p5785ea6a50)" style="fill: none; stroke: #1f77b4; stroke-width: 1.5; stroke-linecap: square"/>
   </g>
   <g id="line2d_17"/>
   <g id="patch_3">
    <path d="M 57.6 307.584 
L 57.6 41.472 
" style="fill: none; stroke: #000000; stroke-width: 0.8; stroke-linejoin: miter; stroke-linecap: square"/>
   </g>
   <g id="patch_4">
    <path d="M 414.72 307.584 
L 414.72 41.472 
" style="fill: none; stroke: #000000; stroke-width: 0.8; stroke-linejoin: miter; stroke-linecap: square"/>
   </g>
   <g id="patch_5">
    <path d="M 57.6 307.584 
L 414.72 307.584 
" style="fill: none; stroke: #000000; stroke-width: 0.8; stroke-linejoin: miter; stroke-linecap: square"/>
   </g>
   <g id="patch_6">
    <path d="M 57.6 41.472 
L 414.72 41.472 
" style="fill: none; stroke: #000000; stroke-width: 0.8; stroke-linejoin: miter; stroke-linecap: square"/>
   </g>
   <g id="text_18">
    <!-- Local Cubeness -->
    <g transform="translate(189.462187 35.472)scale(0.12 -0.12)">
     <defs>
      <path id="DejaVuSans-43" d="M 4122 4306 
L 4122 3641 
Q 3803 3938 3442 4084 
Q 3081 4231 2675 4231 
Q 1875 4231 1450 3742 
Q 1025 3253 1025 2328 
Q 1025 1406 1450 917 
Q 1875 428 2675 428 
Q 3081 428 3442 575 
Q 3803 722 4122 1019 
L 4122 359 
Q 3791 134 3420 21 
Q 3050 -91 2638 -91 
Q 1578 -91 968 557 
Q 359 1206 359 2328 
Q 359 3453 968 4101 
Q 1578 4750 2638 4750 
Q 3056 4750 3426 4639 
Q 3797 4528 4122 4306 
z
" transform="scale(0.015625)"/>
      <path id="DejaVuSans-6e" d="M 3513 2113 
L 3513 0 
L 2938 0 
L 2938 2094 
Q 2938 2591 2744 2837 
Q 2550 3084 2163 3084 
Q 1697 3084 1428 2787 
Q 1159 2491 1159 1978 
L 1159 0 
L 581 0 
L 581 3500 
L 1159 3500 
L 1159 2956 
Q 1366 3272 1645 3428 
Q 1925 3584 2291 3584 
Q 2894 3584 3203 3211 
Q 3513 2838 3513 2113 
z
" transform="scale(0.015625)"/>
     </defs>
     <use xlink:href="#DejaVuSans-4c"/>
     <use xlink:href="#DejaVuSans-6f" x="53.962891"/>
     <use xlink:href="#DejaVuSans-63" x="115.144531"/>
     <use xlink:href="#DejaVuSans-61" x="170.125"/>
     <use xlink:href="#DejaVuSans-6c" x="231.404297"/>
     <use xlink:href="#DejaVuSans-20" x="259.1875"/>
     <use xlink:href="#DejaVuSans-43" x="290.974609"/>
     <use xlink:href="#DejaVuSans-75" x="360.798828"/>
     <use xlink:href="#DejaVuSans-62" x="424.177734"/>
     <use xlink:href="#DejaVuSans-65" x="487.654297"/>
     <use xlink:href="#DejaVuSans-6e" x="549.177734"/>
     <use xlink:href="#DejaVuSans-65" x="612.556641"/>
     <use xlink:href="#DejaVuSans-73" x="674.080078"/>
     <use xlink:href="#DejaVuSans-73" x="726.179688"/>
    </g>
   </g>
   <g id="legend_1">
    <g id="patch_7">
     <path d="M 339.12 78.82825 
L 407.72 78.82825 
Q 409.72 78.82825 409.72 76.82825 
L 409.72 48.472 
Q 409.72 46.472 407.72 46.472 
L 339.12 46.472 
Q 337.12 46.472 337.12 48.472 
L 337.12 76.82825 
Q 337.12 78.82825 339.12 78.82825 
z
" style="fill: #ffffff; opacity: 0.8; stroke: #cccccc; stroke-linejoin: miter"/>
    </g>
    <g id="text_19">
     <!-- Cluster -->
     <g transform="translate(355.673906 58.070437)scale(0.1 -0.1)">
      <defs>
       <path id="DejaVuSans-72" d="M 2631 2963 
Q 2534 3019 2420 3045 
Q 2306 3072 2169 3072 
Q 1681 3072 1420 2755 
Q 1159 2438 1159 1844 
L 1159 0 
L 581 0 
L 581 3500 
L 1159 3500 
L 1159 2956 
Q 1341 3275 1631 3429 
Q 1922 3584 2338 3584 
Q 2397 3584 2469 3576 
Q 2541 3569 2628 3553 
L 2631 2963 
z
" transform="scale(0.015625)"/>
      </defs>
      <use xlink:href="#DejaVuSans-43"/>
      <use xlink:href="#DejaVuSans-6c" x="69.824219"/>
      <use xlink:href="#DejaVuSans-75" x="97.607422"/>
      <use xlink:href="#DejaVuSans-73" x="160.986328"/>
      <use xlink:href="#DejaVuSans-74" x="213.085938"/>
      <use xlink:href="#DejaVuSans-65" x="252.294922"/>
      <use xlink:href="#DejaVuSans-72" x="313.818359"/>
     </g>
    </g>
    <g id="line2d_18">
     <path d="M 341.12 69.248562 
L 351.12 69.248562 
L 361.12 69.248562 
" style="fill: none; stroke: #1f77b4; stroke-width: 1.5; stroke-linecap: square"/>
    </g>
    <g id="text_20">
     <!-- Hopper -->
     <g transform="translate(369.12 72.748562)scale(0.1 -0.1)">
      <defs>
       <path id="DejaVuSans-48" d="M 628 4666 
L 1259 4666 
L 1259 2753 
L 3553 2753 
L 3553 4666 
L 4184 4666 
L 4184 0 
L 3553 0 
L 3553 2222 
L 1259 2222 
L 1259 0 
L 628 0 
L 628 4666 
z
" transform="scale(0.015625)"/>
       <path id="DejaVuSans-70" d="M 1159 525 
L 1159 -1331 
L 581 -1331 
L 581 3500 
L 1159 3500 
L 1159 2969 
Q 1341 3281 1617 3432 
Q 1894 3584 2278 3584 
Q 2916 3584 3314 3078 
Q 3713 2572 3713 1747 
Q 3713 922 3314 415 
Q 2916 -91 2278 -91 
Q 1894 -91 1617 61 
Q 1341 213 1159 525 
z
M 3116 1747 
Q 3116 2381 2855 2742 
Q 2594 3103 2138 3103 
Q 1681 3103 1420 2742 
Q 1159 2381 1159 1747 
Q 1159 1113 1420 752 
Q 1681 391 2138 391 
Q 2594 391 2855 752 
Q 3116 1113 3116 1747 
z
" transform="scale(0.015625)"/>
      </defs>
      <use xlink:href="#DejaVuSans-48"/>
      <use xlink:href="#DejaVuSans-6f" x="75.195312"/>
      <use xlink:href="#DejaVuSans-70" x="136.376953"/>
      <use xlink:href="#DejaVuSans-70" x="199.853516"/>
      <use xlink:href="#DejaVuSans-65" x="263.330078"/>
      <use xlink:href="#DejaVuSans-72" x="324.853516"/>
     </g>
    </g>
   </g>
  </g>
 </g>
 <defs>
  <clipPath id="p5785ea6a50">
   <rect x="57.6" y="41.472" width="357.12" height="266.112"/>
  </clipPath>
 </defs>
</svg>
