<?xml version="1.0" encoding="utf-8" standalone="no"?>
<!DOCTYPE svg PUBLIC "-//W3C//DTD SVG 1.1//EN"
  "http://www.w3.org/Graphics/SVG/1.1/DTD/svg11.dtd">
<svg xmlns:xlink="http://www.w3.org/1999/xlink" width="460.8pt" height="345.6pt" viewBox="0 0 460.8 345.6" xmlns="http://www.w3.org/2000/svg" version="1.1">
 <metadata>
  <rdf:RDF xmlns:dc="http://purl.org/dc/elements/1.1/" xmlns:cc="http://creativecommons.org/ns#" xmlns:rdf="http://www.w3.org/1999/02/22-rdf-syntax-ns#">
   <cc:Work>
    <dc:type rdf:resource="http://purl.org/dc/dcmitype/StillImage"/>
    <dc:date>2024-05-04T11:11:13.397663</dc:date>
    <dc:format>image/svg+xml</dc:format>
    <dc:creator>
     <cc:Agent>
      <dc:title>Matplotlib v3.5.3, https://matplotlib.org/</dc:title>
     </cc:Agent>
    </dc:creator>
   </cc:Work>
  </rdf:RDF>
 </metadata>
 <defs>
  <style type="text/css">*{stroke-linejoin: round; stroke-linecap: butt}</style>
 </defs>
 <g id="figure_1">
  <g id="patch_1">
   <path d="M 0 345.6 
L 460.8 345.6 
L 460.8 0 
L 0 0 
z
" style="fill: #ffffff"/>
  </g>
  <g id="axes_1">
   <g id="patch_2">
    <path d="M 57.6 307.584 
L 414.72 307.584 
L 414.72 41.472 
L 57.6 41.472 
z
" style="fill: #ffffff"/>
   </g>
   <g id="PolyCollection_1">
    <path d="M 73.832727 234.472573 
L 73.832727 240.750796 
L 73.832727 233.381568 
L 73.832727 239.692919 
L 73.832727 240.56135 
L 73.832727 249.562523 
L 73.832727 227.034737 
L 73.832727 164.986583 
L 73.832727 295.488 
L 73.832727 295.451041 
L 73.832727 295.451041 
L 73.832727 161.343009 
L 73.832727 193.767899 
L 73.832727 222.576593 
L 73.832727 211.14789 
L 73.832727 227.215714 
L 73.832727 210.773226 
L 73.832727 234.472573 
z
" clip-path="url(#p7f149ece97)" style="fill: #1f77b4; fill-opacity: 0.2; stroke: #1f77b4; stroke-opacity: 0.2"/>
    <path d="M 73.832727 292.085093 
L 73.832727 295.471102 
L 73.832727 294.195616 
L 73.832727 294.284012 
L 81.17577 260.808131 
L 81.175823 262.510713 
L 81.176324 259.337852 
L 81.176398 262.389144 
L 81.177113 259.44156 
L 81.17722 261.008641 
L 81.178291 260.967129 
L 81.178456 259.858709 
L 81.180164 258.152941 
L 81.180438 260.232948 
L 81.183412 249.001252 
L 81.183914 253.220064 
L 81.189807 237.359123 
L 81.190879 241.539228 
L 81.205303 237.606006 
L 81.208288 236.419742 
L 81.262016 240.836558 
L 81.262016 239.201908 
L 81.276586 239.188543 
L 86.558039 266.984926 
L 86.558039 261.203107 
L 86.56056 260.405864 
L 86.564096 258.701039 
L 86.56928 259.111564 
L 86.57733 259.032227 
L 86.590849 256.015582 
L 86.590849 255.590786 
L 86.616302 243.05644 
L 86.673961 234.695665 
L 86.862404 236.732949 
L 88.518812 234.287079 
L 88.518918 231.50018 
L 88.51992 227.232186 
L 88.520068 225.860817 
L 88.521498 223.299997 
L 88.521713 224.427147 
L 88.523854 222.694522 
L 88.524186 226.796181 
L 88.527601 219.672366 
L 88.528149 221.757006 
L 88.530366 262.033262 
L 88.531096 265.982534 
L 88.534097 240.99819 
L 88.5351 234.487101 
L 88.539304 260.036036 
L 88.540736 261.787288 
L 88.546887 239.905642 
L 88.549031 238.370308 
L 88.558551 258.668791 
L 88.561974 259.095289 
L 88.577879 234.911331 
L 88.583848 238.024635 
L 88.613521 242.210353 
L 88.625371 248.97148 
L 88.691304 232.967605 
L 88.691304 229.088137 
L 88.720445 227.132547 
L 88.924528 237.659363 
L 89.034772 236.237712 
L 93.295797 260.379785 
L 93.298494 260.475912 
L 93.306035 260.128929 
L 93.309814 261.713043 
L 93.309814 260.41045 
L 93.320673 260.850752 
L 93.320673 260.792613 
L 93.326205 259.414797 
L 93.342684 258.99952 
L 93.351253 259.120451 
L 93.378113 254.476257 
L 93.392445 255.433335 
L 93.44098 244.188176 
L 93.467771 249.172816 
L 93.571236 233.475713 
L 93.631015 234.780342 
L 93.936354 235.882443 
L 94.123636 234.959444 
L 95.914706 259.968821 
L 95.919063 261.721319 
L 95.929443 261.329382 
L 95.935554 261.593605 
L 95.950456 261.644856 
L 95.959408 261.412585 
L 95.981924 259.06796 
L 95.99581 260.451755 
L 96.032253 254.175826 
L 96.055536 256.202742 
L 96.120592 243.589193 
L 96.164304 254.753109 
L 96.299682 234.665168 
L 96.398111 238.384636 
L 96.773271 236.844858 
L 97.08986 236.319049 
L 99.283351 226.528842 
L 99.283351 231.721512 
L 99.288392 224.716809 
L 99.295465 222.414624 
L 99.305833 221.766478 
L 99.321933 217.840956 
L 99.34897 213.342301 
L 99.34897 220.226302 
L 99.370018 259.886724 
L 99.399878 233.739593 
L 99.444368 257.438441 
L 99.444368 260.280376 
L 99.515195 235.43837 
L 99.639223 253.91797 
L 99.639223 252.062769 
L 99.892081 224.491747 
L 100.41453 259.864236 
L 100.428865 260.113577 
L 100.444795 257.976643 
L 100.465379 260.351321 
L 100.489159 260.040859 
L 100.520273 259.0505 
L 100.558241 256.546305 
L 100.586098 235.025136 
L 100.608628 256.362253 
L 100.675439 247.265961 
L 100.765487 254.149252 
L 100.902947 234.649697 
L 101.090765 239.577621 
L 101.476217 234.301442 
L 102.000536 234.715868 
L 103.214981 162.706958 
L 103.214981 159.430531 
L 103.214981 159.430531 
L 102.000536 228.750205 
L 101.476217 230.821448 
L 101.090765 231.503973 
L 100.902947 228.960365 
L 100.765487 245.610685 
L 100.675439 236.787545 
L 100.608628 251.58985 
L 100.586098 229.446453 
L 100.558241 249.352166 
L 100.520273 254.019557 
L 100.489159 253.611787 
L 100.465379 254.899832 
L 100.444795 253.284296 
L 100.428865 253.693373 
L 100.41453 255.269186 
L 99.892081 213.900278 
L 99.639223 239.901167 
L 99.639223 238.273977 
L 99.515195 219.223409 
L 99.444368 253.126774 
L 99.444368 250.926709 
L 99.399878 213.356205 
L 99.370018 255.256359 
L 99.34897 185.499858 
L 99.34897 193.577697 
L 99.321933 208.102332 
L 99.305833 213.368093 
L 99.295465 214.285655 
L 99.288392 214.94182 
L 99.283351 214.943804 
L 99.283351 211.899349 
L 97.08986 228.635393 
L 96.773271 232.231608 
L 96.398111 227.816158 
L 96.299682 229.86662 
L 96.164304 241.146255 
L 96.120592 228.859242 
L 96.055536 249.42048 
L 96.032253 241.141101 
L 95.99581 252.866081 
L 95.981924 250.665858 
L 95.959408 253.967802 
L 95.950456 253.503528 
L 95.935554 253.10244 
L 95.929443 253.306982 
L 95.919063 255.023925 
L 95.914706 254.588008 
L 94.123636 230.448243 
L 93.936354 232.680613 
L 93.631015 228.374491 
L 93.571236 229.111697 
L 93.467771 238.497891 
L 93.44098 234.382506 
L 93.392445 249.089207 
L 93.378113 247.226931 
L 93.351253 253.513494 
L 93.342684 253.314203 
L 93.326205 254.293228 
L 93.320673 252.537296 
L 93.320673 253.642598 
L 93.309814 254.583608 
L 93.309814 254.276683 
L 93.306035 254.346058 
L 93.298494 255.357136 
L 93.295797 255.968713 
L 89.034772 230.671491 
L 88.924528 233.415834 
L 88.720445 215.522052 
L 88.691304 214.547035 
L 88.691304 209.645331 
L 88.625371 233.095532 
L 88.613521 228.755125 
L 88.583848 217.184195 
L 88.577879 217.901884 
L 88.561974 251.442803 
L 88.558551 248.903557 
L 88.549031 212.942387 
L 88.546887 211.697425 
L 88.540736 254.887199 
L 88.539304 253.641146 
L 88.5351 206.467162 
L 88.534097 213.588797 
L 88.531096 255.199394 
L 88.530366 254.865515 
L 88.528149 204.399097 
L 88.527601 201.264113 
L 88.524186 213.400796 
L 88.523854 206.993999 
L 88.521713 212.693202 
L 88.521498 212.013447 
L 88.520068 216.113741 
L 88.51992 214.732003 
L 88.518918 213.230916 
L 88.518812 225.838224 
L 86.862404 233.652599 
L 86.673961 229.858282 
L 86.616302 232.133091 
L 86.590849 241.122081 
L 86.590849 244.437166 
L 86.57733 252.285256 
L 86.56928 253.906876 
L 86.564096 254.661075 
L 86.56056 255.530273 
L 86.558039 254.68863 
L 86.558039 256.241027 
L 81.276586 235.77463 
L 81.262016 234.953896 
L 81.262016 234.857306 
L 81.208288 230.717562 
L 81.205303 233.586785 
L 81.190879 228.506989 
L 81.189807 228.06087 
L 81.183914 238.370981 
L 81.183412 233.907859 
L 81.180438 249.881853 
L 81.180164 246.910583 
L 81.178456 252.523444 
L 81.178291 252.288291 
L 81.17722 253.883879 
L 81.177113 252.835178 
L 81.176398 255.787831 
L 81.176324 254.486771 
L 81.175823 256.184938 
L 81.17577 255.293012 
L 73.832727 291.894352 
L 73.832727 288.980092 
L 73.832727 292.085093 
z
" clip-path="url(#p7f149ece97)" style="fill: #1f77b4; fill-opacity: 0.2; stroke: #1f77b4; stroke-opacity: 0.2"/>
    <path d="M 103.222475 149.079224 
L 103.222475 162.006315 
L 103.223571 166.959446 
L 103.228005 227.882141 
L 103.229465 231.685942 
L 103.235467 226.192572 
L 103.237473 214.73822 
L 103.245881 225.671676 
L 103.248745 226.502997 
L 103.261046 219.923491 
L 103.265335 217.751732 
L 103.284374 217.163705 
L 103.291221 223.236768 
L 103.323032 197.176526 
L 103.334968 210.43128 
L 103.352725 262.93486 
L 103.369212 260.981327 
L 103.394314 235.309102 
L 103.418016 235.512372 
L 103.455225 261.057627 
L 103.491113 259.256702 
L 103.54988 235.887082 
L 103.54988 235.547948 
L 103.608163 232.440291 
L 103.709721 241.94752 
L 103.814387 256.691862 
L 104.01633 225.188847 
L 104.236816 228.800718 
L 104.758862 235.296977 
L 105.391257 238.660037 
L 106.068124 262.776798 
L 106.068124 261.750629 
L 106.086768 259.607553 
L 106.139091 260.121806 
L 106.139091 261.669776 
L 106.166658 259.561795 
L 106.248851 257.81523 
L 106.292224 257.568212 
L 106.433906 252.78804 
L 106.508401 257.354701 
L 106.508401 256.090875 
L 106.791943 239.698653 
L 106.938449 240.668675 
L 107.700063 235.644522 
L 107.733077 259.523267 
L 107.781404 261.32955 
L 107.807622 260.309442 
L 107.879174 260.571765 
L 107.920664 257.697958 
L 108.033473 258.711016 
L 108.07036 238.688927 
L 108.105825 249.652397 
L 108.105825 254.494412 
L 108.30023 256.685872 
L 108.447931 235.334992 
L 108.832661 244.506475 
L 109.245635 233.983916 
L 110.232064 239.6345 
L 110.880314 261.026082 
L 110.92943 260.56996 
L 110.979169 262.305258 
L 111.052022 265.153764 
L 111.129165 257.258376 
L 111.244356 260.595479 
L 111.374645 248.100463 
L 111.574135 258.786855 
L 111.825561 236.07579 
L 111.825561 236.129649 
L 112.22424 251.296929 
L 112.467203 263.997899 
L 112.467203 259.63281 
L 112.637338 259.387913 
L 112.758866 228.126978 
L 112.76426 227.740248 
L 112.779342 223.881647 
L 112.786902 230.478543 
L 112.786902 225.669281 
L 112.808618 223.209905 
L 112.808618 221.977647 
L 112.819683 224.58913 
L 112.848114 235.800776 
L 112.848114 236.105233 
L 112.852642 220.455296 
L 112.869778 221.382401 
L 112.921758 257.260189 
L 112.923499 213.39711 
L 112.952162 212.98493 
L 113.049232 198.145741 
L 113.102814 204.092276 
L 113.153054 260.460867 
L 113.230842 260.527375 
L 113.309745 230.180585 
L 113.429303 231.951988 
L 113.465929 247.669924 
L 113.465929 245.405568 
L 113.565685 255.299813 
L 113.764723 258.340087 
L 113.764723 261.783095 
L 113.897053 241.700475 
L 114.03998 226.156336 
L 114.414545 228.437815 
L 114.820943 239.151093 
L 115.168693 235.55542 
L 115.231777 259.991608 
L 115.364253 263.207947 
L 115.39739 258.79656 
L 115.601557 260.993512 
L 115.661061 252.841454 
L 116.00245 259.18439 
L 116.052162 248.49074 
L 116.052162 244.114849 
L 116.129588 238.020421 
L 116.777155 250.221175 
L 117.159202 233.726628 
L 117.996685 226.710698 
L 118.005399 231.574853 
L 118.026159 224.251065 
L 118.038381 229.0859 
L 118.068184 222.821118 
L 118.086089 227.831542 
L 118.086089 224.59465 
L 118.13112 224.537912 
L 118.13112 221.890217 
L 118.158893 223.534044 
L 118.231778 214.467525 
L 118.278344 219.59221 
L 118.408457 196.900179 
L 118.49588 206.013385 
L 118.552479 263.309642 
L 118.679857 265.564105 
L 118.713404 244.955927 
L 118.766637 231.887539 
L 118.963495 230.259486 
L 119.108131 249.31401 
L 119.389457 259.834072 
L 119.43886 260.096368 
L 119.471294 259.639475 
L 119.713814 224.847005 
L 119.749213 258.586488 
L 119.881659 258.066368 
L 120.346992 236.615555 
L 120.414191 247.108626 
L 120.572196 259.034096 
L 120.653749 251.579041 
L 120.80238 260.363948 
L 120.906733 258.54539 
L 121.018603 235.843536 
L 121.018603 235.769686 
L 121.280008 259.431345 
L 121.504996 244.021849 
L 121.991929 240.637062 
L 122.182465 253.160522 
L 122.522996 243.484559 
L 122.575116 249.349762 
L 122.856752 237.56231 
L 122.958703 259.332317 
L 123.28448 262.824382 
L 123.308894 254.557538 
L 123.839882 259.32083 
L 123.911712 238.166554 
L 124.369175 246.398802 
L 124.778939 162.175714 
L 124.811138 164.74493 
L 124.865213 167.367616 
L 124.865213 159.282797 
L 124.884128 256.95062 
L 124.884128 256.436109 
L 124.907308 224.44902 
L 124.967028 211.480471 
L 125.056009 223.66639 
L 125.056009 222.105356 
L 125.175584 234.009004 
L 125.175584 235.183734 
L 125.197663 207.96937 
L 125.445718 209.428921 
L 125.445718 207.59648 
L 125.951435 179.070047 
L 126.441704 258.395869 
L 126.458249 259.127384 
L 126.763347 265.21988 
L 126.85019 257.72741 
L 126.903265 258.611677 
L 126.903265 260.011266 
L 126.996332 225.51876 
L 127.025003 226.508534 
L 127.056862 223.923289 
L 127.098031 222.803053 
L 127.145591 221.153811 
L 127.17087 263.958851 
L 127.17087 260.422467 
L 127.207818 223.092439 
L 127.283754 219.878978 
L 127.339468 229.796236 
L 127.384529 220.085963 
L 127.388481 250.801402 
L 127.402751 263.968521 
L 127.518151 199.096689 
L 127.640653 248.139061 
L 127.66997 233.226988 
L 127.698246 209.226125 
L 127.973166 186.180438 
L 128.202693 254.763129 
L 128.348802 195.196911 
L 128.392251 261.941915 
L 128.392251 257.433801 
L 128.592559 256.202805 
L 128.987867 260.048428 
L 129.119707 223.197701 
L 129.2546 234.081776 
L 130.168345 231.819661 
L 131.031226 255.456599 
L 131.400752 253.296575 
L 131.773413 239.263278 
L 131.793635 261.777359 
L 132.689364 160.963648 
L 132.689364 160.883213 
L 132.689364 160.883213 
L 131.793635 251.711955 
L 131.773413 229.851361 
L 131.400752 244.141814 
L 131.031226 245.607435 
L 130.168345 212.529008 
L 129.2546 228.761407 
L 129.119707 207.992725 
L 128.987867 252.820673 
L 128.592559 247.876838 
L 128.392251 246.655819 
L 128.392251 247.675884 
L 128.348802 177.819739 
L 128.202693 246.225355 
L 127.973166 175.790481 
L 127.698246 194.874511 
L 127.66997 227.622331 
L 127.640653 238.524311 
L 127.518151 178.813131 
L 127.402751 248.807464 
L 127.388481 243.190578 
L 127.384529 209.408582 
L 127.339468 211.935905 
L 127.283754 208.139705 
L 127.207818 214.462835 
L 127.17087 252.489083 
L 127.17087 249.175979 
L 127.145591 211.27786 
L 127.098031 213.345473 
L 127.056862 212.870767 
L 127.025003 210.987801 
L 126.996332 215.327599 
L 126.903265 229.672637 
L 126.903265 232.394379 
L 126.85019 250.274719 
L 126.763347 252.442089 
L 126.458249 247.81347 
L 126.441704 251.424504 
L 125.951435 152.360016 
L 125.445718 186.93385 
L 125.445718 181.950982 
L 125.197663 168.46912 
L 125.175584 230.096081 
L 125.175584 227.465909 
L 125.056009 211.269069 
L 125.056009 208.238804 
L 124.967028 178.33246 
L 124.907308 213.639868 
L 124.884128 247.505277 
L 124.884128 245.049094 
L 124.865213 133.327435 
L 124.865213 148.605368 
L 124.811138 156.111927 
L 124.778939 161.592613 
L 124.369175 238.848406 
L 123.911712 230.709602 
L 123.839882 252.416584 
L 123.308894 242.962752 
L 123.28448 252.637232 
L 122.958703 251.461003 
L 122.856752 230.08206 
L 122.575116 237.94478 
L 122.522996 235.115895 
L 122.182465 245.420596 
L 121.991929 233.146339 
L 121.504996 234.13046 
L 121.280008 252.358521 
L 121.018603 227.057392 
L 121.018603 228.460128 
L 120.906733 248.308001 
L 120.80238 254.148288 
L 120.653749 242.503755 
L 120.572196 252.042325 
L 120.414191 238.371911 
L 120.346992 214.476763 
L 119.881659 250.951438 
L 119.749213 249.582597 
L 119.713814 209.937968 
L 119.471294 253.455422 
L 119.43886 252.542203 
L 119.389457 252.913811 
L 119.108131 234.267157 
L 118.963495 196.840048 
L 118.766637 206.972588 
L 118.713404 235.861723 
L 118.679857 252.651294 
L 118.552479 251.985646 
L 118.49588 183.61872 
L 118.408457 171.64197 
L 118.278344 204.758211 
L 118.231778 190.35294 
L 118.158893 212.37721 
L 118.13112 198.415961 
L 118.13112 208.498419 
L 118.086089 211.10953 
L 118.086089 208.44269 
L 118.068184 209.351794 
L 118.038381 210.28764 
L 118.026159 211.595233 
L 118.005399 212.09168 
L 117.996685 213.617994 
L 117.159202 229.606149 
L 116.777155 242.479247 
L 116.129588 230.845999 
L 116.052162 233.184628 
L 116.052162 231.171398 
L 116.00245 252.62281 
L 115.661061 243.171379 
L 115.601557 254.09643 
L 115.39739 250.762134 
L 115.364253 253.658952 
L 115.231777 252.881462 
L 115.168693 228.749749 
L 114.820943 231.59079 
L 114.414545 214.054441 
L 114.03998 214.824274 
L 113.897053 230.069083 
L 113.764723 248.931653 
L 113.764723 250.633929 
L 113.565685 247.215436 
L 113.465929 234.839414 
L 113.465929 231.542921 
L 113.429303 212.036945 
L 113.309745 210.2827 
L 113.230842 254.209108 
L 113.153054 254.135619 
L 113.102814 183.130956 
L 113.049232 176.253431 
L 112.952162 201.07172 
L 112.923499 199.234173 
L 112.921758 250.110801 
L 112.869778 211.725974 
L 112.852642 210.64296 
L 112.848114 229.057782 
L 112.848114 227.001465 
L 112.819683 215.768975 
L 112.808618 208.474216 
L 112.808618 212.651241 
L 112.786902 213.561807 
L 112.786902 209.234947 
L 112.779342 213.607233 
L 112.76426 212.85656 
L 112.758866 217.191655 
L 112.637338 252.490921 
L 112.467203 253.396786 
L 112.467203 250.299256 
L 112.22424 239.031111 
L 111.825561 228.387872 
L 111.825561 226.727177 
L 111.574135 250.419331 
L 111.374645 233.980957 
L 111.244356 253.221123 
L 111.129165 246.517854 
L 111.052022 251.876626 
L 110.979169 251.622386 
L 110.92943 253.096332 
L 110.880314 252.788207 
L 110.232064 231.00316 
L 109.245635 230.030412 
L 108.832661 235.996032 
L 108.447931 228.823805 
L 108.30023 250.260028 
L 108.105825 234.991752 
L 108.105825 239.178033 
L 108.07036 230.719561 
L 108.033473 253.631688 
L 107.920664 250.850899 
L 107.879174 254.286463 
L 107.807622 253.184367 
L 107.781404 254.046724 
L 107.733077 254.186741 
L 107.700063 229.249175 
L 106.938449 232.076326 
L 106.791943 231.095231 
L 106.508401 246.822798 
L 106.508401 244.531238 
L 106.433906 244.009752 
L 106.292224 252.652442 
L 106.248851 251.855875 
L 106.166658 253.883678 
L 106.139091 252.246894 
L 106.139091 251.907187 
L 106.086768 254.84248 
L 106.068124 253.378904 
L 106.068124 253.622555 
L 105.391257 228.642481 
L 104.758862 230.437005 
L 104.236816 211.979625 
L 104.01633 213.149491 
L 103.814387 246.11643 
L 103.709721 230.603775 
L 103.608163 202.757897 
L 103.54988 200.991334 
L 103.54988 176.74274 
L 103.491113 253.151079 
L 103.455225 251.247888 
L 103.418016 202.839336 
L 103.394314 206.075079 
L 103.369212 254.307897 
L 103.352725 253.454585 
L 103.334968 159.196848 
L 103.323032 149.295866 
L 103.291221 209.142123 
L 103.284374 202.021581 
L 103.265335 171.863989 
L 103.261046 157.784099 
L 103.248745 212.894793 
L 103.245881 211.489376 
L 103.237473 157.927663 
L 103.235467 184.447721 
L 103.229465 205.820004 
L 103.228005 213.359309 
L 103.223571 152.022846 
L 103.222475 149.079224 
z
" clip-path="url(#p7f149ece97)" style="fill: #1f77b4; fill-opacity: 0.2; stroke: #1f77b4; stroke-opacity: 0.2"/>
    <path d="M 132.736021 166.675962 
L 132.736021 167.424544 
L 132.736021 166.675962 
L 132.736021 166.675962 
z
" clip-path="url(#p7f149ece97)" style="fill: #1f77b4; fill-opacity: 0.2; stroke: #1f77b4; stroke-opacity: 0.2"/>
    <path d="M 132.813336 162.264677 
L 132.813336 169.162092 
L 132.83721 167.515812 
L 132.872723 223.643274 
L 132.905696 226.940239 
L 132.9559 219.885005 
L 132.9559 222.931179 
L 132.9559 148.455285 
L 132.9559 148.455285 
L 132.9559 145.044644 
L 132.905696 210.904275 
L 132.872723 211.167477 
L 132.83721 146.253605 
L 132.813336 162.264677 
z
" clip-path="url(#p7f149ece97)" style="fill: #1f77b4; fill-opacity: 0.2; stroke: #1f77b4; stroke-opacity: 0.2"/>
    <path d="M 133.003304 169.118069 
L 133.003304 219.545076 
L 133.077722 223.789312 
L 133.077722 228.888556 
L 133.128674 256.965506 
L 133.149498 224.432096 
L 133.267034 215.666572 
L 133.267034 217.066219 
L 133.383598 214.619531 
L 133.586715 195.506279 
L 133.796046 216.638193 
L 134.199932 179.789876 
L 134.338998 254.370488 
L 134.640905 199.592353 
L 134.669337 255.498078 
L 134.753829 255.953665 
L 134.753829 255.92533 
L 135.062709 256.982789 
L 135.062709 252.580204 
L 135.459784 265.318484 
L 135.684996 218.575021 
L 136.021396 256.790799 
L 136.845589 248.480014 
L 136.949788 230.503693 
L 138.303521 226.118597 
L 138.303521 230.768192 
L 138.327747 260.233668 
L 138.327747 262.670006 
L 138.340809 223.76689 
L 138.445455 223.416063 
L 138.445455 227.44725 
L 138.500588 223.117496 
L 138.664974 217.876859 
L 138.751721 220.735461 
L 139.035085 212.404477 
L 139.184074 225.634062 
L 139.184074 220.532318 
L 139.700983 243.249783 
L 139.751159 191.261579 
L 140.044171 200.819473 
L 141.493278 262.711602 
L 141.493278 268.539939 
L 141.567399 182.180426 
L 141.633426 223.459297 
L 141.730081 225.102777 
L 141.782517 222.710001 
L 141.925621 224.058653 
L 142.008601 218.129154 
L 142.234219 223.178008 
L 142.307992 194.462201 
L 142.378922 214.503181 
L 142.378922 209.502834 
L 142.767732 217.288239 
L 143.063135 187.266581 
L 143.751526 236.194027 
L 143.751526 240.238414 
L 143.832595 204.569684 
L 144.658543 186.905099 
L 145.408905 266.703386 
L 146.631401 194.441392 
L 147.9279 225.387487 
L 148.026132 225.695999 
L 148.12561 225.79069 
L 148.271316 225.4658 
L 148.425603 222.76895 
L 148.655984 223.889961 
L 148.916562 204.865694 
L 149.315543 220.882051 
L 149.818394 196.7665 
L 149.818394 183.284309 
L 150.615753 209.688448 
L 151.101679 231.002758 
L 151.101679 228.517993 
L 151.441948 223.798138 
L 151.441948 212.127245 
L 151.441948 212.127245 
L 151.101679 215.026319 
L 151.101679 210.241891 
L 150.615753 184.746017 
L 149.818394 167.86949 
L 149.818394 178.898493 
L 149.315543 205.354241 
L 148.916562 179.306176 
L 148.655984 211.917548 
L 148.425603 200.900316 
L 148.271316 210.038123 
L 148.12561 207.616699 
L 148.026132 209.902494 
L 147.9279 211.044526 
L 146.631401 176.64765 
L 145.408905 249.064324 
L 144.658543 178.165345 
L 143.832595 184.126874 
L 143.751526 225.032556 
L 143.751526 224.254236 
L 143.063135 174.201353 
L 142.767732 205.653062 
L 142.378922 174.885468 
L 142.378922 190.160584 
L 142.307992 178.234779 
L 142.234219 213.011554 
L 142.008601 207.50356 
L 141.925621 213.243611 
L 141.782517 212.365429 
L 141.730081 211.595633 
L 141.633426 212.908709 
L 141.567399 171.218584 
L 141.493278 249.060271 
L 141.493278 248.324008 
L 140.044171 182.66468 
L 139.751159 172.942536 
L 139.700983 231.783813 
L 139.184074 203.336851 
L 139.184074 205.967365 
L 139.035085 197.000614 
L 138.751721 211.49486 
L 138.664974 207.768398 
L 138.500588 212.656936 
L 138.445455 209.104353 
L 138.445455 211.032484 
L 138.340809 213.904409 
L 138.327747 250.555803 
L 138.327747 249.788668 
L 138.303521 213.799705 
L 138.303521 212.452552 
L 136.949788 196.80564 
L 136.845589 236.50203 
L 136.021396 249.473318 
L 135.684996 200.280334 
L 135.459784 250.294409 
L 135.062709 240.645014 
L 135.062709 236.539151 
L 134.753829 232.18039 
L 134.753829 233.313769 
L 134.669337 247.997039 
L 134.640905 149.612556 
L 134.338998 244.862893 
L 134.199932 145.285437 
L 133.796046 199.558634 
L 133.586715 168.802575 
L 133.383598 160.860768 
L 133.267034 156.836601 
L 133.267034 134.199366 
L 133.149498 212.616739 
L 133.128674 249.701293 
L 133.077722 201.031721 
L 133.077722 210.409245 
L 133.003304 169.118069 
z
" clip-path="url(#p7f149ece97)" style="fill: #1f77b4; fill-opacity: 0.2; stroke: #1f77b4; stroke-opacity: 0.2"/>
    <path d="M 151.806638 163.244195 
L 151.806638 166.342004 
L 151.863502 189.738948 
L 151.872556 167.703418 
L 151.906829 168.085314 
L 152.010789 218.682743 
L 152.01427 164.729316 
L 152.071597 165.348428 
L 152.265738 152.264269 
L 152.372901 154.387746 
L 152.47338 222.806493 
L 152.628957 222.292608 
L 152.786762 204.334022 
L 153.02588 209.427844 
L 153.09913 214.196157 
L 153.09913 206.531828 
L 153.298642 214.771301 
L 153.696719 220.514413 
L 153.696719 220.568548 
L 153.961378 217.88736 
L 154.247233 183.69283 
L 154.996364 196.298691 
L 155.809158 190.152535 
L 156.504658 185.804955 
L 156.630826 222.315751 
L 156.895779 227.846527 
L 156.962054 220.454576 
L 157.370387 223.858842 
L 157.489394 206.921271 
L 158.172172 221.740063 
L 158.271596 202.30768 
L 158.426448 191.945845 
L 159.721583 210.047319 
L 160.485676 184.417778 
L 162.30364 163.5528 
L 162.30364 161.494892 
L 162.30364 161.494892 
L 160.485676 174.414914 
L 159.721583 194.910601 
L 158.426448 176.539117 
L 158.271596 182.10678 
L 158.172172 212.32434 
L 157.489394 189.978331 
L 157.370387 212.328415 
L 156.962054 208.138595 
L 156.895779 215.080734 
L 156.630826 211.511905 
L 156.504658 172.556986 
L 155.809158 171.991567 
L 154.996364 159.058548 
L 154.247233 156.322965 
L 153.961378 186.901118 
L 153.696719 204.779187 
L 153.696719 206.512423 
L 153.298642 201.207633 
L 153.09913 180.38983 
L 153.09913 179.031607 
L 153.02588 160.959854 
L 152.786762 157.817835 
L 152.628957 213.173367 
L 152.47338 211.588525 
L 152.372901 135.856395 
L 152.265738 133.394732 
L 152.071597 150.057704 
L 152.01427 160.770971 
L 152.010789 206.675132 
L 151.906829 165.287352 
L 151.872556 158.770106 
L 151.863502 176.232095 
L 151.806638 163.244195 
z
" clip-path="url(#p7f149ece97)" style="fill: #1f77b4; fill-opacity: 0.2; stroke: #1f77b4; stroke-opacity: 0.2"/>
    <path d="M 162.630828 158.01219 
L 162.630828 169.825859 
L 162.630828 158.01219 
L 162.630828 158.01219 
z
" clip-path="url(#p7f149ece97)" style="fill: #1f77b4; fill-opacity: 0.2; stroke: #1f77b4; stroke-opacity: 0.2"/>
    <path d="M 162.984187 109.608829 
L 162.984187 125.431143 
L 163.159034 156.364988 
L 163.272231 223.931683 
L 163.526986 226.239135 
L 163.59408 206.641081 
L 163.700547 209.018696 
L 164.094263 210.817735 
L 164.383534 211.087069 
L 164.946187 222.01968 
L 165.044993 223.779519 
L 165.10986 225.806281 
L 165.594901 176.542597 
L 165.665699 216.838902 
L 165.930591 220.456676 
L 166.861257 209.031378 
L 166.995654 211.379262 
L 167.311666 223.794135 
L 167.47477 208.922539 
L 167.772032 227.173512 
L 167.980738 214.806806 
L 168.204479 189.141194 
L 168.204479 193.676872 
L 168.727288 223.011511 
L 169.177265 205.153557 
L 170.15113 198.375025 
L 170.532203 216.931819 
L 171.213265 205.903625 
L 171.317504 207.916532 
L 171.880776 192.710075 
L 172.084679 221.977968 
L 172.736232 229.217073 
L 172.78506 211.314699 
L 173.847037 222.008626 
L 173.990697 191.633764 
L 174.905622 209.884261 
L 175.935528 223.258781 
L 175.935528 218.887896 
L 176.101328 164.326504 
L 176.27929 168.798864 
L 176.51844 188.52783 
L 176.51844 187.750687 
L 176.562599 167.104069 
L 177.058708 159.019825 
L 178.070143 115.145598 
L 179.050681 221.150584 
L 179.083771 225.263709 
L 179.693967 234.784674 
L 179.867652 217.801189 
L 179.973803 224.817164 
L 179.973803 219.465313 
L 180.280996 163.371878 
L 180.363334 167.468564 
L 180.458454 167.652829 
L 180.509012 230.204624 
L 180.509012 223.724537 
L 180.582909 169.042936 
L 180.73478 170.032767 
L 180.846209 198.225468 
L 180.936331 168.028387 
L 180.944234 213.091766 
L 180.972775 226.111222 
L 181.203576 153.052099 
L 181.44858 208.981948 
L 181.507213 190.768858 
L 181.507213 192.609429 
L 181.563765 160.900222 
L 182.113606 92.905449 
L 182.572659 218.33015 
L 182.864877 134.547606 
L 182.951774 218.475432 
L 182.951774 221.431807 
L 183.35239 221.355364 
L 184.143006 220.73686 
L 184.406687 187.203673 
L 184.676474 187.50741 
L 186.503962 200.389305 
L 188.229725 213.582322 
L 188.968777 213.606597 
L 189.714099 200.190818 
L 189.714099 194.001521 
L 189.754543 222.861111 
L 191.391718 288.208325 
L 191.391718 287.438632 
L 191.391718 287.438632 
L 189.754543 210.477783 
L 189.714099 174.223865 
L 189.714099 180.209151 
L 188.968777 198.880912 
L 188.229725 196.837224 
L 186.503962 150.502785 
L 184.676474 172.443806 
L 184.406687 148.350897 
L 184.143006 211.229963 
L 183.35239 205.344075 
L 182.951774 200.295892 
L 182.951774 200.371837 
L 182.864877 101.329719 
L 182.572659 203.179024 
L 182.113606 88.71542 
L 181.563765 140.303646 
L 181.507213 172.323013 
L 181.507213 167.054574 
L 181.44858 190.415551 
L 181.203576 121.028064 
L 180.972775 207.88667 
L 180.944234 196.848003 
L 180.936331 167.197757 
L 180.846209 156.188041 
L 180.73478 164.981203 
L 180.582909 168.519298 
L 180.509012 211.250191 
L 180.509012 208.904504 
L 180.458454 159.783042 
L 180.363334 164.457413 
L 180.280996 163.039533 
L 179.973803 175.943808 
L 179.973803 177.580725 
L 179.867652 205.526156 
L 179.693967 212.113345 
L 179.083771 203.518472 
L 179.050681 208.571151 
L 178.070143 109.207381 
L 177.058708 134.780162 
L 176.562599 156.367638 
L 176.51844 173.244972 
L 176.51844 174.30729 
L 176.27929 166.112221 
L 176.101328 163.78581 
L 175.935528 201.810142 
L 175.935528 200.245945 
L 174.905622 192.583589 
L 173.990697 173.424651 
L 173.847037 211.637863 
L 172.78506 193.347476 
L 172.736232 212.516168 
L 172.084679 207.905239 
L 171.880776 178.961297 
L 171.317504 181.497556 
L 171.213265 186.850868 
L 170.532203 200.959721 
L 170.15113 181.680553 
L 169.177265 185.389483 
L 168.727288 211.158372 
L 168.204479 185.760299 
L 168.204479 169.005416 
L 167.980738 200.785354 
L 167.772032 216.547881 
L 167.47477 192.715247 
L 167.311666 212.040316 
L 166.995654 190.064064 
L 166.861257 159.623225 
L 165.930591 208.758898 
L 165.665699 203.796972 
L 165.594901 137.677308 
L 165.10986 214.653803 
L 165.044993 209.986167 
L 164.946187 210.3291 
L 164.383534 185.582915 
L 164.094263 132.929377 
L 163.700547 143.994327 
L 163.59408 188.639178 
L 163.526986 210.425717 
L 163.272231 206.854269 
L 163.159034 141.893255 
L 162.984187 109.608829 
z
" clip-path="url(#p7f149ece97)" style="fill: #1f77b4; fill-opacity: 0.2; stroke: #1f77b4; stroke-opacity: 0.2"/>
    <path d="M 191.443685 290.882169 
L 191.443685 291.015552 
L 191.451711 290.056086 
L 191.546001 293.79958 
L 191.563158 292.951101 
L 191.563158 292.847779 
L 191.563158 292.847779 
L 191.546001 293.705818 
L 191.451711 289.678661 
L 191.443685 290.882169 
z
" clip-path="url(#p7f149ece97)" style="fill: #1f77b4; fill-opacity: 0.2; stroke: #1f77b4; stroke-opacity: 0.2"/>
    <path d="M 191.793945 295.15469 
L 191.793945 295.203963 
L 191.841692 294.871301 
L 191.841692 294.845888 
L 191.841692 294.845888 
L 191.793945 295.15469 
z
" clip-path="url(#p7f149ece97)" style="fill: #1f77b4; fill-opacity: 0.2; stroke: #1f77b4; stroke-opacity: 0.2"/>
    <path d="M 192.42462 208.077213 
L 192.42462 221.236429 
L 192.42462 208.077213 
L 192.42462 208.077213 
z
" clip-path="url(#p7f149ece97)" style="fill: #1f77b4; fill-opacity: 0.2; stroke: #1f77b4; stroke-opacity: 0.2"/>
    <path d="M 192.70134 184.750244 
L 192.70134 295.487532 
L 192.70134 295.457328 
L 192.934469 295.480028 
L 193.340703 133.173708 
L 193.759365 165.088453 
L 194.567137 92.790404 
L 194.845268 217.022706 
L 195.449082 222.183012 
L 195.505946 217.201192 
L 195.67493 207.25434 
L 195.67493 219.638203 
L 196.29269 223.407293 
L 196.29269 211.969506 
L 197.08684 224.268289 
L 197.537265 175.086728 
L 198.210066 220.003225 
L 199.858451 211.021813 
L 199.858451 188.68181 
L 199.858451 188.68181 
L 198.210066 206.593547 
L 197.537265 125.825123 
L 197.08684 207.70448 
L 196.29269 190.924933 
L 196.29269 175.399888 
L 195.67493 180.861675 
L 195.67493 172.972474 
L 195.505946 205.259288 
L 195.449082 113.078394 
L 194.845268 200.034152 
L 194.567137 87.574993 
L 193.759365 143.200277 
L 193.340703 84.261229 
L 192.934469 198.463088 
L 192.70134 151.512344 
L 192.70134 184.750244 
z
" clip-path="url(#p7f149ece97)" style="fill: #1f77b4; fill-opacity: 0.2; stroke: #1f77b4; stroke-opacity: 0.2"/>
    <path d="M 200.066848 139.813307 
L 200.066848 217.894736 
L 200.066848 139.813307 
L 200.066848 139.813307 
z
" clip-path="url(#p7f149ece97)" style="fill: #1f77b4; fill-opacity: 0.2; stroke: #1f77b4; stroke-opacity: 0.2"/>
    <path d="M 202.822767 207.895332 
L 202.822767 224.555353 
L 202.822767 220.252093 
L 202.848891 164.361766 
L 202.848891 164.033801 
L 202.848891 164.033801 
L 202.822767 206.431866 
L 202.822767 207.895332 
z
" clip-path="url(#p7f149ece97)" style="fill: #1f77b4; fill-opacity: 0.2; stroke: #1f77b4; stroke-opacity: 0.2"/>
    <path d="M 203.16845 162.633206 
L 203.16845 168.602269 
L 203.497221 167.684289 
L 203.670715 167.465107 
L 204.237444 165.282743 
L 204.237444 156.476998 
L 204.237444 156.476998 
L 203.670715 158.878314 
L 203.497221 161.575097 
L 203.16845 162.633206 
z
" clip-path="url(#p7f149ece97)" style="fill: #1f77b4; fill-opacity: 0.2; stroke: #1f77b4; stroke-opacity: 0.2"/>
    <path d="M 204.535421 144.693752 
L 204.535421 162.792464 
L 205.569239 196.010875 
L 205.669591 130.388883 
L 205.669591 121.037375 
L 206.255614 131.330971 
L 209.153828 221.546671 
L 209.153828 225.087361 
L 209.302071 91.21619 
L 209.434124 163.607653 
L 209.627436 164.89301 
L 209.732306 168.215936 
L 210.018515 169.128443 
L 210.184474 167.325958 
L 210.635711 164.980821 
L 210.783256 114.339795 
L 210.925117 216.730674 
L 210.925117 162.145522 
L 211.702737 171.0211 
L 212.293543 100.975288 
L 213.670325 187.655189 
L 213.832462 188.49412 
L 215.48436 90.148534 
L 216.985082 225.238276 
L 219.430074 132.150688 
L 222.023073 165.133165 
L 222.023073 162.467495 
L 222.023073 162.467495 
L 219.430074 117.982515 
L 216.985082 209.051766 
L 215.48436 86.940266 
L 213.832462 114.655624 
L 213.670325 166.812479 
L 212.293543 84.198204 
L 211.702737 149.129467 
L 210.925117 139.498393 
L 210.925117 166.205102 
L 210.783256 95.888636 
L 210.635711 161.024493 
L 210.184474 155.041775 
L 210.018515 163.187728 
L 209.732306 162.30599 
L 209.627436 164.795289 
L 209.434124 162.9992 
L 209.302071 67.447874 
L 209.153828 206.702768 
L 209.153828 206.058315 
L 206.255614 106.073809 
L 205.669591 118.637212 
L 205.669591 81.020064 
L 205.569239 178.276078 
L 204.535421 144.693752 
z
" clip-path="url(#p7f149ece97)" style="fill: #1f77b4; fill-opacity: 0.2; stroke: #1f77b4; stroke-opacity: 0.2"/>
    <path d="M 222.418493 167.410946 
L 222.418493 173.539497 
L 222.418493 167.410946 
L 222.418493 167.410946 
z
" clip-path="url(#p7f149ece97)" style="fill: #1f77b4; fill-opacity: 0.2; stroke: #1f77b4; stroke-opacity: 0.2"/>
    <path d="M 223.018478 163.911188 
L 223.018478 168.596046 
L 223.018478 163.911188 
L 223.018478 163.911188 
z
" clip-path="url(#p7f149ece97)" style="fill: #1f77b4; fill-opacity: 0.2; stroke: #1f77b4; stroke-opacity: 0.2"/>
    <path d="M 224.000397 150.388089 
L 224.000397 156.371902 
L 224.000397 150.388089 
L 224.000397 150.388089 
z
" clip-path="url(#p7f149ece97)" style="fill: #1f77b4; fill-opacity: 0.2; stroke: #1f77b4; stroke-opacity: 0.2"/>
    <path d="M 225.80406 82.843119 
L 225.80406 89.79746 
L 227.398778 226.862569 
L 228.370632 169.759252 
L 229.05117 167.506823 
L 229.894276 89.227381 
L 230.188851 165.348486 
L 231.114033 174.075811 
L 231.425186 169.440275 
L 231.740797 167.110291 
L 232.219032 166.739343 
L 232.365533 150.084612 
L 232.764556 165.190092 
L 233.560711 167.502214 
L 234.090029 153.030711 
L 234.661738 143.700176 
L 236.16 159.378098 
L 237.785589 124.007544 
L 239.17659 90.796452 
L 239.428925 172.013524 
L 239.95883 170.097358 
L 240.09138 168.414086 
L 240.908046 171.935163 
L 241.146061 155.468326 
L 242.511617 172.622899 
L 242.710466 135.656196 
L 243.020169 114.246325 
L 245.610439 159.091503 
L 247.138624 88.629863 
L 252.711734 174.991026 
L 252.711734 167.234402 
L 252.711734 167.234402 
L 247.138624 83.353428 
L 245.610439 128.278196 
L 243.020169 105.808303 
L 242.710466 106.843018 
L 242.511617 167.012455 
L 241.146061 139.268207 
L 240.908046 167.110868 
L 240.09138 167.09727 
L 239.95883 169.66614 
L 239.428925 161.763626 
L 239.17659 76.208061 
L 237.785589 86.994289 
L 236.16 129.047578 
L 234.661738 124.021733 
L 234.090029 112.878342 
L 233.560711 152.432399 
L 232.764556 160.716637 
L 232.365533 142.289391 
L 232.219032 165.748302 
L 231.740797 160.465132 
L 231.425186 169.331491 
L 231.114033 166.198188 
L 230.188851 158.946188 
L 229.894276 63.268332 
L 229.05117 165.791631 
L 228.370632 169.273642 
L 227.398778 117.533239 
L 225.80406 82.843119 
z
" clip-path="url(#p7f149ece97)" style="fill: #1f77b4; fill-opacity: 0.2; stroke: #1f77b4; stroke-opacity: 0.2"/>
    <path d="M 253.355432 105.17588 
L 253.355432 150.634697 
L 253.355432 147.939296 
L 253.568367 168.372255 
L 253.568367 167.843546 
L 253.568367 167.843546 
L 253.355432 137.803483 
L 253.355432 105.17588 
z
" clip-path="url(#p7f149ece97)" style="fill: #1f77b4; fill-opacity: 0.2; stroke: #1f77b4; stroke-opacity: 0.2"/>
    <path d="M 254.934342 146.594246 
L 254.934342 152.532195 
L 256.059648 167.623213 
L 256.059648 165.983847 
L 256.059648 165.983847 
L 254.934342 146.594246 
z
" clip-path="url(#p7f149ece97)" style="fill: #1f77b4; fill-opacity: 0.2; stroke: #1f77b4; stroke-opacity: 0.2"/>
    <path d="M 256.386994 165.256699 
L 256.386994 165.942592 
L 257.357074 93.137729 
L 257.498671 168.885522 
L 258.028454 166.831071 
L 258.028454 155.553487 
L 258.028454 155.553487 
L 257.498671 156.465129 
L 257.357074 90.442098 
L 256.386994 165.256699 
z
" clip-path="url(#p7f149ece97)" style="fill: #1f77b4; fill-opacity: 0.2; stroke: #1f77b4; stroke-opacity: 0.2"/>
    <path d="M 260.15858 120.8103 
L 260.15858 149.964016 
L 260.790604 164.682702 
L 261.116814 160.943712 
L 261.711337 172.738367 
L 262.128749 164.386196 
L 262.57623 92.124332 
L 262.57623 83.339561 
L 263.621849 171.737415 
L 264.521803 197.217942 
L 266.469533 143.039405 
L 267.231679 161.555507 
L 268.593804 152.291925 
L 268.80228 155.182192 
L 269.928825 109.114115 
L 270.336632 172.341158 
L 271.639737 167.755966 
L 271.737393 165.781029 
L 273.861347 167.657784 
L 274.148667 113.815222 
L 275.978517 161.604022 
L 275.978517 129.723618 
L 275.978517 129.723618 
L 274.148667 85.139453 
L 273.861347 167.53425 
L 271.737393 151.081357 
L 271.639737 166.831071 
L 270.336632 163.721508 
L 269.928825 78.168402 
L 268.80228 118.006633 
L 268.593804 112.659103 
L 267.231679 135.621118 
L 266.469533 110.709346 
L 264.521803 123.457128 
L 263.621849 169.246907 
L 262.57623 53.568 
L 262.57623 83.01874 
L 262.128749 162.159927 
L 261.711337 167.492303 
L 261.116814 135.57099 
L 260.790604 161.305039 
L 260.15858 120.8103 
z
" clip-path="url(#p7f149ece97)" style="fill: #1f77b4; fill-opacity: 0.2; stroke: #1f77b4; stroke-opacity: 0.2"/>
    <path d="M 277.96267 289.098165 
L 277.96267 289.168044 
L 277.96267 289.098165 
L 277.96267 289.098165 
z
" clip-path="url(#p7f149ece97)" style="fill: #1f77b4; fill-opacity: 0.2; stroke: #1f77b4; stroke-opacity: 0.2"/>
    <path d="M 278.369929 292.096401 
L 278.369929 292.245711 
L 279.204153 91.84177 
L 279.29247 294.48812 
L 282.307559 295.203347 
L 284.268636 169.334717 
L 284.334815 166.251889 
L 284.334815 163.451161 
L 284.334815 163.451161 
L 284.268636 157.334364 
L 282.307559 295.184684 
L 279.29247 294.411922 
L 279.204153 83.085117 
L 278.369929 292.096401 
z
" clip-path="url(#p7f149ece97)" style="fill: #1f77b4; fill-opacity: 0.2; stroke: #1f77b4; stroke-opacity: 0.2"/>
    <path d="M 285.902577 155.561553 
L 285.902577 168.95236 
L 286.114879 158.934319 
L 286.114879 158.705227 
L 286.114879 158.705227 
L 285.902577 155.561553 
z
" clip-path="url(#p7f149ece97)" style="fill: #1f77b4; fill-opacity: 0.2; stroke: #1f77b4; stroke-opacity: 0.2"/>
    <path d="M 287.85969 142.913509 
L 287.85969 163.61837 
L 288.055741 164.879873 
L 288.055741 128.430079 
L 288.055741 128.430079 
L 287.85969 142.913509 
z
" clip-path="url(#p7f149ece97)" style="fill: #1f77b4; fill-opacity: 0.2; stroke: #1f77b4; stroke-opacity: 0.2"/>
    <path d="M 289.064432 146.940304 
L 289.064432 159.14601 
L 289.064432 146.940304 
L 289.064432 146.940304 
z
" clip-path="url(#p7f149ece97)" style="fill: #1f77b4; fill-opacity: 0.2; stroke: #1f77b4; stroke-opacity: 0.2"/>
    <path d="M 291.312591 141.810976 
L 291.312591 166.090556 
L 292.07082 163.209393 
L 292.07082 173.151608 
L 292.07082 165.633295 
L 292.07082 165.633295 
L 292.07082 160.95973 
L 291.312591 141.810976 
z
" clip-path="url(#p7f149ece97)" style="fill: #1f77b4; fill-opacity: 0.2; stroke: #1f77b4; stroke-opacity: 0.2"/>
    <path d="M 294.453286 167.911767 
L 294.453286 168.047286 
L 294.980646 157.093864 
L 295.52022 95.809391 
L 299.175197 164.698029 
L 302.626722 168.383203 
L 302.626722 156.528971 
L 302.626722 156.528971 
L 299.175197 151.220563 
L 295.52022 81.282575 
L 294.980646 133.991202 
L 294.453286 167.911767 
z
" clip-path="url(#p7f149ece97)" style="fill: #1f77b4; fill-opacity: 0.2; stroke: #1f77b4; stroke-opacity: 0.2"/>
    <path d="M 305.59547 116.80056 
L 305.59547 127.586542 
L 305.59547 122.155868 
L 305.676359 168.909953 
L 309.054643 291.168841 
L 309.054643 290.840138 
L 309.054643 290.840138 
L 305.676359 167.174709 
L 305.59547 117.790448 
L 305.59547 116.80056 
z
" clip-path="url(#p7f149ece97)" style="fill: #1f77b4; fill-opacity: 0.2; stroke: #1f77b4; stroke-opacity: 0.2"/>
    <path d="M 309.259275 293.600187 
L 309.259275 293.757626 
L 309.293589 293.126654 
L 309.445901 286.124189 
L 309.445901 285.974726 
L 309.445901 285.974726 
L 309.293589 292.908901 
L 309.259275 293.600187 
z
" clip-path="url(#p7f149ece97)" style="fill: #1f77b4; fill-opacity: 0.2; stroke: #1f77b4; stroke-opacity: 0.2"/>
    <path d="M 309.755162 289.804661 
L 309.755162 295.180478 
L 309.755162 295.217616 
L 309.850656 294.859893 
L 310.325419 293.264869 
L 310.325419 293.129281 
L 310.325419 293.129281 
L 309.850656 289.859569 
L 309.755162 290.019233 
L 309.755162 289.804661 
z
" clip-path="url(#p7f149ece97)" style="fill: #1f77b4; fill-opacity: 0.2; stroke: #1f77b4; stroke-opacity: 0.2"/>
    <path d="M 310.515033 291.052636 
L 310.515033 291.146646 
L 311.016513 168.768211 
L 311.569953 295.467511 
L 311.569953 295.44301 
L 312.036211 295.207736 
L 315.301546 295.253239 
L 315.857809 162.028365 
L 317.065436 294.856465 
L 317.179165 156.454873 
L 317.179165 146.52349 
L 317.179165 146.52349 
L 317.065436 294.829776 
L 315.857809 141.757966 
L 315.301546 295.182762 
L 312.036211 294.218878 
L 311.569953 294.917404 
L 311.569953 295.040713 
L 311.016513 154.677683 
L 310.515033 291.052636 
z
" clip-path="url(#p7f149ece97)" style="fill: #1f77b4; fill-opacity: 0.2; stroke: #1f77b4; stroke-opacity: 0.2"/>
    <path d="M 318.752653 129.920328 
L 318.752653 147.984239 
L 318.752653 129.920328 
L 318.752653 129.920328 
z
" clip-path="url(#p7f149ece97)" style="fill: #1f77b4; fill-opacity: 0.2; stroke: #1f77b4; stroke-opacity: 0.2"/>
    <path d="M 321.241803 88.839608 
L 321.241803 105.559159 
L 322.587404 156.548215 
L 325.884175 147.471894 
L 325.884175 134.740244 
L 325.884175 134.740244 
L 322.587404 154.315377 
L 321.241803 88.839608 
z
" clip-path="url(#p7f149ece97)" style="fill: #1f77b4; fill-opacity: 0.2; stroke: #1f77b4; stroke-opacity: 0.2"/>
    <path d="M 337.305751 95.680037 
L 337.305751 133.223375 
L 337.305751 95.680037 
L 337.305751 95.680037 
z
" clip-path="url(#p7f149ece97)" style="fill: #1f77b4; fill-opacity: 0.2; stroke: #1f77b4; stroke-opacity: 0.2"/>
    <path d="M 353.507922 79.780111 
L 353.507922 102.229723 
L 353.507922 79.780111 
L 353.507922 79.780111 
z
" clip-path="url(#p7f149ece97)" style="fill: #1f77b4; fill-opacity: 0.2; stroke: #1f77b4; stroke-opacity: 0.2"/>
    <path d="M 386.558897 287.911157 
L 386.558897 288.296833 
L 386.788208 286.733864 
L 387.564769 291.651795 
L 387.993422 290.504567 
L 389.648866 294.11832 
L 390.605336 293.527294 
L 395.490749 294.952969 
L 398.487273 294.522475 
L 398.487273 294.441859 
L 398.487273 294.441859 
L 395.490749 294.913846 
L 390.605336 293.418418 
L 389.648866 294.095155 
L 387.993422 290.221855 
L 387.564769 291.309903 
L 386.788208 286.151869 
L 386.558897 287.911157 
z
" clip-path="url(#p7f149ece97)" style="fill: #1f77b4; fill-opacity: 0.2; stroke: #1f77b4; stroke-opacity: 0.2"/>
   </g>
   <g id="matplotlib.axis_1">
    <g id="xtick_1">
     <g id="line2d_1">
      <defs>
       <path id="m6104ee35a4" d="M 0 0 
L 0 3.5 
" style="stroke: #000000; stroke-width: 0.8"/>
      </defs>
      <g>
       <use xlink:href="#m6104ee35a4" x="73.832727" y="307.584" style="stroke: #000000; stroke-width: 0.8"/>
      </g>
     </g>
     <g id="text_1">
      <!-- 0 -->
      <g transform="translate(70.651477 322.182437)scale(0.1 -0.1)">
       <defs>
        <path id="DejaVuSans-30" d="M 2034 4250 
Q 1547 4250 1301 3770 
Q 1056 3291 1056 2328 
Q 1056 1369 1301 889 
Q 1547 409 2034 409 
Q 2525 409 2770 889 
Q 3016 1369 3016 2328 
Q 3016 3291 2770 3770 
Q 2525 4250 2034 4250 
z
M 2034 4750 
Q 2819 4750 3233 4129 
Q 3647 3509 3647 2328 
Q 3647 1150 3233 529 
Q 2819 -91 2034 -91 
Q 1250 -91 836 529 
Q 422 1150 422 2328 
Q 422 3509 836 4129 
Q 1250 4750 2034 4750 
z
" transform="scale(0.015625)"/>
       </defs>
       <use xlink:href="#DejaVuSans-30"/>
      </g>
     </g>
    </g>
    <g id="xtick_2">
     <g id="line2d_2">
      <g>
       <use xlink:href="#m6104ee35a4" x="130.024071" y="307.584" style="stroke: #000000; stroke-width: 0.8"/>
      </g>
     </g>
     <g id="text_2">
      <!-- 50 -->
      <g transform="translate(123.661571 322.182437)scale(0.1 -0.1)">
       <defs>
        <path id="DejaVuSans-35" d="M 691 4666 
L 3169 4666 
L 3169 4134 
L 1269 4134 
L 1269 2991 
Q 1406 3038 1543 3061 
Q 1681 3084 1819 3084 
Q 2600 3084 3056 2656 
Q 3513 2228 3513 1497 
Q 3513 744 3044 326 
Q 2575 -91 1722 -91 
Q 1428 -91 1123 -41 
Q 819 9 494 109 
L 494 744 
Q 775 591 1075 516 
Q 1375 441 1709 441 
Q 2250 441 2565 725 
Q 2881 1009 2881 1497 
Q 2881 1984 2565 2268 
Q 2250 2553 1709 2553 
Q 1456 2553 1204 2497 
Q 953 2441 691 2322 
L 691 4666 
z
" transform="scale(0.015625)"/>
       </defs>
       <use xlink:href="#DejaVuSans-35"/>
       <use xlink:href="#DejaVuSans-30" x="63.623047"/>
      </g>
     </g>
    </g>
    <g id="xtick_3">
     <g id="line2d_3">
      <g>
       <use xlink:href="#m6104ee35a4" x="186.215415" y="307.584" style="stroke: #000000; stroke-width: 0.8"/>
      </g>
     </g>
     <g id="text_3">
      <!-- 100 -->
      <g transform="translate(176.671665 322.182437)scale(0.1 -0.1)">
       <defs>
        <path id="DejaVuSans-31" d="M 794 531 
L 1825 531 
L 1825 4091 
L 703 3866 
L 703 4441 
L 1819 4666 
L 2450 4666 
L 2450 531 
L 3481 531 
L 3481 0 
L 794 0 
L 794 531 
z
" transform="scale(0.015625)"/>
       </defs>
       <use xlink:href="#DejaVuSans-31"/>
       <use xlink:href="#DejaVuSans-30" x="63.623047"/>
       <use xlink:href="#DejaVuSans-30" x="127.246094"/>
      </g>
     </g>
    </g>
    <g id="xtick_4">
     <g id="line2d_4">
      <g>
       <use xlink:href="#m6104ee35a4" x="242.406759" y="307.584" style="stroke: #000000; stroke-width: 0.8"/>
      </g>
     </g>
     <g id="text_4">
      <!-- 150 -->
      <g transform="translate(232.863009 322.182437)scale(0.1 -0.1)">
       <use xlink:href="#DejaVuSans-31"/>
       <use xlink:href="#DejaVuSans-35" x="63.623047"/>
       <use xlink:href="#DejaVuSans-30" x="127.246094"/>
      </g>
     </g>
    </g>
    <g id="xtick_5">
     <g id="line2d_5">
      <g>
       <use xlink:href="#m6104ee35a4" x="298.598103" y="307.584" style="stroke: #000000; stroke-width: 0.8"/>
      </g>
     </g>
     <g id="text_5">
      <!-- 200 -->
      <g transform="translate(289.054353 322.182437)scale(0.1 -0.1)">
       <defs>
        <path id="DejaVuSans-32" d="M 1228 531 
L 3431 531 
L 3431 0 
L 469 0 
L 469 531 
Q 828 903 1448 1529 
Q 2069 2156 2228 2338 
Q 2531 2678 2651 2914 
Q 2772 3150 2772 3378 
Q 2772 3750 2511 3984 
Q 2250 4219 1831 4219 
Q 1534 4219 1204 4116 
Q 875 4013 500 3803 
L 500 4441 
Q 881 4594 1212 4672 
Q 1544 4750 1819 4750 
Q 2544 4750 2975 4387 
Q 3406 4025 3406 3419 
Q 3406 3131 3298 2873 
Q 3191 2616 2906 2266 
Q 2828 2175 2409 1742 
Q 1991 1309 1228 531 
z
" transform="scale(0.015625)"/>
       </defs>
       <use xlink:href="#DejaVuSans-32"/>
       <use xlink:href="#DejaVuSans-30" x="63.623047"/>
       <use xlink:href="#DejaVuSans-30" x="127.246094"/>
      </g>
     </g>
    </g>
    <g id="xtick_6">
     <g id="line2d_6">
      <g>
       <use xlink:href="#m6104ee35a4" x="354.789447" y="307.584" style="stroke: #000000; stroke-width: 0.8"/>
      </g>
     </g>
     <g id="text_6">
      <!-- 250 -->
      <g transform="translate(345.245697 322.182437)scale(0.1 -0.1)">
       <use xlink:href="#DejaVuSans-32"/>
       <use xlink:href="#DejaVuSans-35" x="63.623047"/>
       <use xlink:href="#DejaVuSans-30" x="127.246094"/>
      </g>
     </g>
    </g>
    <g id="xtick_7">
     <g id="line2d_7">
      <g>
       <use xlink:href="#m6104ee35a4" x="410.980791" y="307.584" style="stroke: #000000; stroke-width: 0.8"/>
      </g>
     </g>
     <g id="text_7">
      <!-- 300 -->
      <g transform="translate(401.437041 322.182437)scale(0.1 -0.1)">
       <defs>
        <path id="DejaVuSans-33" d="M 2597 2516 
Q 3050 2419 3304 2112 
Q 3559 1806 3559 1356 
Q 3559 666 3084 287 
Q 2609 -91 1734 -91 
Q 1441 -91 1130 -33 
Q 819 25 488 141 
L 488 750 
Q 750 597 1062 519 
Q 1375 441 1716 441 
Q 2309 441 2620 675 
Q 2931 909 2931 1356 
Q 2931 1769 2642 2001 
Q 2353 2234 1838 2234 
L 1294 2234 
L 1294 2753 
L 1863 2753 
Q 2328 2753 2575 2939 
Q 2822 3125 2822 3475 
Q 2822 3834 2567 4026 
Q 2313 4219 1838 4219 
Q 1578 4219 1281 4162 
Q 984 4106 628 3988 
L 628 4550 
Q 988 4650 1302 4700 
Q 1616 4750 1894 4750 
Q 2613 4750 3031 4423 
Q 3450 4097 3450 3541 
Q 3450 3153 3228 2886 
Q 3006 2619 2597 2516 
z
" transform="scale(0.015625)"/>
       </defs>
       <use xlink:href="#DejaVuSans-33"/>
       <use xlink:href="#DejaVuSans-30" x="63.623047"/>
       <use xlink:href="#DejaVuSans-30" x="127.246094"/>
      </g>
     </g>
    </g>
    <g id="text_8">
     <!-- Global close to cube -->
     <g transform="translate(185.375625 335.860562)scale(0.1 -0.1)">
      <defs>
       <path id="DejaVuSans-47" d="M 3809 666 
L 3809 1919 
L 2778 1919 
L 2778 2438 
L 4434 2438 
L 4434 434 
Q 4069 175 3628 42 
Q 3188 -91 2688 -91 
Q 1594 -91 976 548 
Q 359 1188 359 2328 
Q 359 3472 976 4111 
Q 1594 4750 2688 4750 
Q 3144 4750 3555 4637 
Q 3966 4525 4313 4306 
L 4313 3634 
Q 3963 3931 3569 4081 
Q 3175 4231 2741 4231 
Q 1884 4231 1454 3753 
Q 1025 3275 1025 2328 
Q 1025 1384 1454 906 
Q 1884 428 2741 428 
Q 3075 428 3337 486 
Q 3600 544 3809 666 
z
" transform="scale(0.015625)"/>
       <path id="DejaVuSans-6c" d="M 603 4863 
L 1178 4863 
L 1178 0 
L 603 0 
L 603 4863 
z
" transform="scale(0.015625)"/>
       <path id="DejaVuSans-6f" d="M 1959 3097 
Q 1497 3097 1228 2736 
Q 959 2375 959 1747 
Q 959 1119 1226 758 
Q 1494 397 1959 397 
Q 2419 397 2687 759 
Q 2956 1122 2956 1747 
Q 2956 2369 2687 2733 
Q 2419 3097 1959 3097 
z
M 1959 3584 
Q 2709 3584 3137 3096 
Q 3566 2609 3566 1747 
Q 3566 888 3137 398 
Q 2709 -91 1959 -91 
Q 1206 -91 779 398 
Q 353 888 353 1747 
Q 353 2609 779 3096 
Q 1206 3584 1959 3584 
z
" transform="scale(0.015625)"/>
       <path id="DejaVuSans-62" d="M 3116 1747 
Q 3116 2381 2855 2742 
Q 2594 3103 2138 3103 
Q 1681 3103 1420 2742 
Q 1159 2381 1159 1747 
Q 1159 1113 1420 752 
Q 1681 391 2138 391 
Q 2594 391 2855 752 
Q 3116 1113 3116 1747 
z
M 1159 2969 
Q 1341 3281 1617 3432 
Q 1894 3584 2278 3584 
Q 2916 3584 3314 3078 
Q 3713 2572 3713 1747 
Q 3713 922 3314 415 
Q 2916 -91 2278 -91 
Q 1894 -91 1617 61 
Q 1341 213 1159 525 
L 1159 0 
L 581 0 
L 581 4863 
L 1159 4863 
L 1159 2969 
z
" transform="scale(0.015625)"/>
       <path id="DejaVuSans-61" d="M 2194 1759 
Q 1497 1759 1228 1600 
Q 959 1441 959 1056 
Q 959 750 1161 570 
Q 1363 391 1709 391 
Q 2188 391 2477 730 
Q 2766 1069 2766 1631 
L 2766 1759 
L 2194 1759 
z
M 3341 1997 
L 3341 0 
L 2766 0 
L 2766 531 
Q 2569 213 2275 61 
Q 1981 -91 1556 -91 
Q 1019 -91 701 211 
Q 384 513 384 1019 
Q 384 1609 779 1909 
Q 1175 2209 1959 2209 
L 2766 2209 
L 2766 2266 
Q 2766 2663 2505 2880 
Q 2244 3097 1772 3097 
Q 1472 3097 1187 3025 
Q 903 2953 641 2809 
L 641 3341 
Q 956 3463 1253 3523 
Q 1550 3584 1831 3584 
Q 2591 3584 2966 3190 
Q 3341 2797 3341 1997 
z
" transform="scale(0.015625)"/>
       <path id="DejaVuSans-20" transform="scale(0.015625)"/>
       <path id="DejaVuSans-63" d="M 3122 3366 
L 3122 2828 
Q 2878 2963 2633 3030 
Q 2388 3097 2138 3097 
Q 1578 3097 1268 2742 
Q 959 2388 959 1747 
Q 959 1106 1268 751 
Q 1578 397 2138 397 
Q 2388 397 2633 464 
Q 2878 531 3122 666 
L 3122 134 
Q 2881 22 2623 -34 
Q 2366 -91 2075 -91 
Q 1284 -91 818 406 
Q 353 903 353 1747 
Q 353 2603 823 3093 
Q 1294 3584 2113 3584 
Q 2378 3584 2631 3529 
Q 2884 3475 3122 3366 
z
" transform="scale(0.015625)"/>
       <path id="DejaVuSans-73" d="M 2834 3397 
L 2834 2853 
Q 2591 2978 2328 3040 
Q 2066 3103 1784 3103 
Q 1356 3103 1142 2972 
Q 928 2841 928 2578 
Q 928 2378 1081 2264 
Q 1234 2150 1697 2047 
L 1894 2003 
Q 2506 1872 2764 1633 
Q 3022 1394 3022 966 
Q 3022 478 2636 193 
Q 2250 -91 1575 -91 
Q 1294 -91 989 -36 
Q 684 19 347 128 
L 347 722 
Q 666 556 975 473 
Q 1284 391 1588 391 
Q 1994 391 2212 530 
Q 2431 669 2431 922 
Q 2431 1156 2273 1281 
Q 2116 1406 1581 1522 
L 1381 1569 
Q 847 1681 609 1914 
Q 372 2147 372 2553 
Q 372 3047 722 3315 
Q 1072 3584 1716 3584 
Q 2034 3584 2315 3537 
Q 2597 3491 2834 3397 
z
" transform="scale(0.015625)"/>
       <path id="DejaVuSans-65" d="M 3597 1894 
L 3597 1613 
L 953 1613 
Q 991 1019 1311 708 
Q 1631 397 2203 397 
Q 2534 397 2845 478 
Q 3156 559 3463 722 
L 3463 178 
Q 3153 47 2828 -22 
Q 2503 -91 2169 -91 
Q 1331 -91 842 396 
Q 353 884 353 1716 
Q 353 2575 817 3079 
Q 1281 3584 2069 3584 
Q 2775 3584 3186 3129 
Q 3597 2675 3597 1894 
z
M 3022 2063 
Q 3016 2534 2758 2815 
Q 2500 3097 2075 3097 
Q 1594 3097 1305 2825 
Q 1016 2553 972 2059 
L 3022 2063 
z
" transform="scale(0.015625)"/>
       <path id="DejaVuSans-74" d="M 1172 4494 
L 1172 3500 
L 2356 3500 
L 2356 3053 
L 1172 3053 
L 1172 1153 
Q 1172 725 1289 603 
Q 1406 481 1766 481 
L 2356 481 
L 2356 0 
L 1766 0 
Q 1100 0 847 248 
Q 594 497 594 1153 
L 594 3053 
L 172 3053 
L 172 3500 
L 594 3500 
L 594 4494 
L 1172 4494 
z
" transform="scale(0.015625)"/>
       <path id="DejaVuSans-75" d="M 544 1381 
L 544 3500 
L 1119 3500 
L 1119 1403 
Q 1119 906 1312 657 
Q 1506 409 1894 409 
Q 2359 409 2629 706 
Q 2900 1003 2900 1516 
L 2900 3500 
L 3475 3500 
L 3475 0 
L 2900 0 
L 2900 538 
Q 2691 219 2414 64 
Q 2138 -91 1772 -91 
Q 1169 -91 856 284 
Q 544 659 544 1381 
z
M 1991 3584 
L 1991 3584 
z
" transform="scale(0.015625)"/>
      </defs>
      <use xlink:href="#DejaVuSans-47"/>
      <use xlink:href="#DejaVuSans-6c" x="77.490234"/>
      <use xlink:href="#DejaVuSans-6f" x="105.273438"/>
      <use xlink:href="#DejaVuSans-62" x="166.455078"/>
      <use xlink:href="#DejaVuSans-61" x="229.931641"/>
      <use xlink:href="#DejaVuSans-6c" x="291.210938"/>
      <use xlink:href="#DejaVuSans-20" x="318.994141"/>
      <use xlink:href="#DejaVuSans-63" x="350.78125"/>
      <use xlink:href="#DejaVuSans-6c" x="405.761719"/>
      <use xlink:href="#DejaVuSans-6f" x="433.544922"/>
      <use xlink:href="#DejaVuSans-73" x="494.726562"/>
      <use xlink:href="#DejaVuSans-65" x="546.826172"/>
      <use xlink:href="#DejaVuSans-20" x="608.349609"/>
      <use xlink:href="#DejaVuSans-74" x="640.136719"/>
      <use xlink:href="#DejaVuSans-6f" x="679.345703"/>
      <use xlink:href="#DejaVuSans-20" x="740.527344"/>
      <use xlink:href="#DejaVuSans-63" x="772.314453"/>
      <use xlink:href="#DejaVuSans-75" x="827.294922"/>
      <use xlink:href="#DejaVuSans-62" x="890.673828"/>
      <use xlink:href="#DejaVuSans-65" x="954.150391"/>
     </g>
    </g>
   </g>
   <g id="matplotlib.axis_2">
    <g id="ytick_1">
     <g id="line2d_8">
      <defs>
       <path id="m57a278c53c" d="M 0 0 
L -3.5 0 
" style="stroke: #000000; stroke-width: 0.8"/>
      </defs>
      <g>
       <use xlink:href="#m57a278c53c" x="57.6" y="295.93743" style="stroke: #000000; stroke-width: 0.8"/>
      </g>
     </g>
     <g id="text_9">
      <!-- 0 -->
      <g transform="translate(44.2375 299.736649)scale(0.1 -0.1)">
       <use xlink:href="#DejaVuSans-30"/>
      </g>
     </g>
    </g>
    <g id="ytick_2">
     <g id="line2d_9">
      <g>
       <use xlink:href="#m57a278c53c" x="57.6" y="249.842503" style="stroke: #000000; stroke-width: 0.8"/>
      </g>
     </g>
     <g id="text_10">
      <!-- 2 -->
      <g transform="translate(44.2375 253.641722)scale(0.1 -0.1)">
       <use xlink:href="#DejaVuSans-32"/>
      </g>
     </g>
    </g>
    <g id="ytick_3">
     <g id="line2d_10">
      <g>
       <use xlink:href="#m57a278c53c" x="57.6" y="203.747576" style="stroke: #000000; stroke-width: 0.8"/>
      </g>
     </g>
     <g id="text_11">
      <!-- 4 -->
      <g transform="translate(44.2375 207.546795)scale(0.1 -0.1)">
       <defs>
        <path id="DejaVuSans-34" d="M 2419 4116 
L 825 1625 
L 2419 1625 
L 2419 4116 
z
M 2253 4666 
L 3047 4666 
L 3047 1625 
L 3713 1625 
L 3713 1100 
L 3047 1100 
L 3047 0 
L 2419 0 
L 2419 1100 
L 313 1100 
L 313 1709 
L 2253 4666 
z
" transform="scale(0.015625)"/>
       </defs>
       <use xlink:href="#DejaVuSans-34"/>
      </g>
     </g>
    </g>
    <g id="ytick_4">
     <g id="line2d_11">
      <g>
       <use xlink:href="#m57a278c53c" x="57.6" y="157.65265" style="stroke: #000000; stroke-width: 0.8"/>
      </g>
     </g>
     <g id="text_12">
      <!-- 6 -->
      <g transform="translate(44.2375 161.451868)scale(0.1 -0.1)">
       <defs>
        <path id="DejaVuSans-36" d="M 2113 2584 
Q 1688 2584 1439 2293 
Q 1191 2003 1191 1497 
Q 1191 994 1439 701 
Q 1688 409 2113 409 
Q 2538 409 2786 701 
Q 3034 994 3034 1497 
Q 3034 2003 2786 2293 
Q 2538 2584 2113 2584 
z
M 3366 4563 
L 3366 3988 
Q 3128 4100 2886 4159 
Q 2644 4219 2406 4219 
Q 1781 4219 1451 3797 
Q 1122 3375 1075 2522 
Q 1259 2794 1537 2939 
Q 1816 3084 2150 3084 
Q 2853 3084 3261 2657 
Q 3669 2231 3669 1497 
Q 3669 778 3244 343 
Q 2819 -91 2113 -91 
Q 1303 -91 875 529 
Q 447 1150 447 2328 
Q 447 3434 972 4092 
Q 1497 4750 2381 4750 
Q 2619 4750 2861 4703 
Q 3103 4656 3366 4563 
z
" transform="scale(0.015625)"/>
       </defs>
       <use xlink:href="#DejaVuSans-36"/>
      </g>
     </g>
    </g>
    <g id="ytick_5">
     <g id="line2d_12">
      <g>
       <use xlink:href="#m57a278c53c" x="57.6" y="111.557723" style="stroke: #000000; stroke-width: 0.8"/>
      </g>
     </g>
     <g id="text_13">
      <!-- 8 -->
      <g transform="translate(44.2375 115.356941)scale(0.1 -0.1)">
       <defs>
        <path id="DejaVuSans-38" d="M 2034 2216 
Q 1584 2216 1326 1975 
Q 1069 1734 1069 1313 
Q 1069 891 1326 650 
Q 1584 409 2034 409 
Q 2484 409 2743 651 
Q 3003 894 3003 1313 
Q 3003 1734 2745 1975 
Q 2488 2216 2034 2216 
z
M 1403 2484 
Q 997 2584 770 2862 
Q 544 3141 544 3541 
Q 544 4100 942 4425 
Q 1341 4750 2034 4750 
Q 2731 4750 3128 4425 
Q 3525 4100 3525 3541 
Q 3525 3141 3298 2862 
Q 3072 2584 2669 2484 
Q 3125 2378 3379 2068 
Q 3634 1759 3634 1313 
Q 3634 634 3220 271 
Q 2806 -91 2034 -91 
Q 1263 -91 848 271 
Q 434 634 434 1313 
Q 434 1759 690 2068 
Q 947 2378 1403 2484 
z
M 1172 3481 
Q 1172 3119 1398 2916 
Q 1625 2713 2034 2713 
Q 2441 2713 2670 2916 
Q 2900 3119 2900 3481 
Q 2900 3844 2670 4047 
Q 2441 4250 2034 4250 
Q 1625 4250 1398 4047 
Q 1172 3844 1172 3481 
z
" transform="scale(0.015625)"/>
       </defs>
       <use xlink:href="#DejaVuSans-38"/>
      </g>
     </g>
    </g>
    <g id="ytick_6">
     <g id="line2d_13">
      <g>
       <use xlink:href="#m57a278c53c" x="57.6" y="65.462796" style="stroke: #000000; stroke-width: 0.8"/>
      </g>
     </g>
     <g id="text_14">
      <!-- 10 -->
      <g transform="translate(37.875 69.262015)scale(0.1 -0.1)">
       <use xlink:href="#DejaVuSans-31"/>
       <use xlink:href="#DejaVuSans-30" x="63.623047"/>
      </g>
     </g>
    </g>
    <g id="text_15">
     <!-- GFLOPS -->
     <g transform="translate(31.795312 194.007688)rotate(-90)scale(0.1 -0.1)">
      <defs>
       <path id="DejaVuSans-46" d="M 628 4666 
L 3309 4666 
L 3309 4134 
L 1259 4134 
L 1259 2759 
L 3109 2759 
L 3109 2228 
L 1259 2228 
L 1259 0 
L 628 0 
L 628 4666 
z
" transform="scale(0.015625)"/>
       <path id="DejaVuSans-4c" d="M 628 4666 
L 1259 4666 
L 1259 531 
L 3531 531 
L 3531 0 
L 628 0 
L 628 4666 
z
" transform="scale(0.015625)"/>
       <path id="DejaVuSans-4f" d="M 2522 4238 
Q 1834 4238 1429 3725 
Q 1025 3213 1025 2328 
Q 1025 1447 1429 934 
Q 1834 422 2522 422 
Q 3209 422 3611 934 
Q 4013 1447 4013 2328 
Q 4013 3213 3611 3725 
Q 3209 4238 2522 4238 
z
M 2522 4750 
Q 3503 4750 4090 4092 
Q 4678 3434 4678 2328 
Q 4678 1225 4090 567 
Q 3503 -91 2522 -91 
Q 1538 -91 948 565 
Q 359 1222 359 2328 
Q 359 3434 948 4092 
Q 1538 4750 2522 4750 
z
" transform="scale(0.015625)"/>
       <path id="DejaVuSans-50" d="M 1259 4147 
L 1259 2394 
L 2053 2394 
Q 2494 2394 2734 2622 
Q 2975 2850 2975 3272 
Q 2975 3691 2734 3919 
Q 2494 4147 2053 4147 
L 1259 4147 
z
M 628 4666 
L 2053 4666 
Q 2838 4666 3239 4311 
Q 3641 3956 3641 3272 
Q 3641 2581 3239 2228 
Q 2838 1875 2053 1875 
L 1259 1875 
L 1259 0 
L 628 0 
L 628 4666 
z
" transform="scale(0.015625)"/>
       <path id="DejaVuSans-53" d="M 3425 4513 
L 3425 3897 
Q 3066 4069 2747 4153 
Q 2428 4238 2131 4238 
Q 1616 4238 1336 4038 
Q 1056 3838 1056 3469 
Q 1056 3159 1242 3001 
Q 1428 2844 1947 2747 
L 2328 2669 
Q 3034 2534 3370 2195 
Q 3706 1856 3706 1288 
Q 3706 609 3251 259 
Q 2797 -91 1919 -91 
Q 1588 -91 1214 -16 
Q 841 59 441 206 
L 441 856 
Q 825 641 1194 531 
Q 1563 422 1919 422 
Q 2459 422 2753 634 
Q 3047 847 3047 1241 
Q 3047 1584 2836 1778 
Q 2625 1972 2144 2069 
L 1759 2144 
Q 1053 2284 737 2584 
Q 422 2884 422 3419 
Q 422 4038 858 4394 
Q 1294 4750 2059 4750 
Q 2388 4750 2728 4690 
Q 3069 4631 3425 4513 
z
" transform="scale(0.015625)"/>
      </defs>
      <use xlink:href="#DejaVuSans-47"/>
      <use xlink:href="#DejaVuSans-46" x="77.490234"/>
      <use xlink:href="#DejaVuSans-4c" x="135.009766"/>
      <use xlink:href="#DejaVuSans-4f" x="187.097656"/>
      <use xlink:href="#DejaVuSans-50" x="265.808594"/>
      <use xlink:href="#DejaVuSans-53" x="326.111328"/>
     </g>
    </g>
   </g>
   <g id="line2d_14">
    <path d="M 73.832727 237.487911 
L 73.832727 163.164796 
L 73.832727 295.469521 
L 73.832727 293.089182 
L 81.17577 257.917211 
L 81.175823 259.049043 
L 81.189807 232.202407 
L 81.276586 237.376634 
L 86.558039 260.811212 
L 86.616302 237.581489 
L 86.673961 232.204953 
L 86.862404 235.18234 
L 88.518812 229.568168 
L 88.527601 210.466046 
L 88.531096 259.653532 
L 88.625371 240.795181 
L 88.720445 221.482133 
L 88.924528 235.488064 
L 89.034772 233.49125 
L 93.295797 258.104415 
L 93.298494 257.897851 
L 93.571236 231.226721 
L 93.631015 231.414397 
L 93.936354 234.180608 
L 94.123636 232.591537 
L 95.919063 258.233307 
L 95.959408 257.428256 
L 96.120592 236.131416 
L 96.164304 247.861344 
L 96.299682 232.203446 
L 96.398111 233.005769 
L 96.773271 234.459633 
L 97.08986 232.289657 
L 99.283351 219.214095 
L 99.34897 202.923548 
L 99.370018 257.402167 
L 99.399878 223.520027 
L 99.444368 256.743807 
L 99.515195 227.214129 
L 99.639223 245.914363 
L 99.892081 219.275498 
L 100.465379 257.468513 
L 100.489159 256.670069 
L 100.520273 256.550953 
L 100.558241 252.911065 
L 100.586098 232.104685 
L 100.608628 253.805816 
L 100.675439 241.912426 
L 100.765487 249.542456 
L 100.902947 231.601754 
L 101.090765 235.565963 
L 101.476217 232.525535 
L 102.000536 231.588055 
L 103.222475 157.576593 
L 103.223571 159.130683 
L 103.228005 220.721704 
L 103.334968 187.33494 
L 103.352725 257.779564 
L 103.455225 256.080696 
L 103.491113 256.357016 
L 103.54988 208.134072 
L 103.608163 218.510926 
L 103.814387 251.317482 
L 104.01633 219.186351 
L 104.236816 220.026085 
L 104.758862 232.784508 
L 105.391257 233.366572 
L 106.068124 258.01913 
L 106.086768 257.066955 
L 106.139091 257.114394 
L 106.248851 254.747761 
L 106.292224 255.139317 
L 106.433906 248.420756 
L 106.508401 251.336243 
L 106.791943 235.271775 
L 106.938449 236.558056 
L 107.700063 232.164384 
L 107.781404 257.318928 
L 107.807622 256.576589 
L 107.879174 257.173465 
L 107.920664 254.061771 
L 108.033473 256.049389 
L 108.07036 234.451855 
L 108.105825 244.616805 
L 108.30023 253.28061 
L 108.447931 231.956893 
L 108.832661 240.117023 
L 109.245635 232.007259 
L 110.232064 235.246342 
L 110.979169 256.807198 
L 111.052022 257.491323 
L 111.129165 251.72466 
L 111.244356 256.690754 
L 111.374645 240.750169 
L 111.574135 254.563793 
L 111.825561 231.209372 
L 111.825561 232.135801 
L 112.467203 256.653507 
L 112.637338 255.719535 
L 112.808618 214.83356 
L 112.819683 220.089655 
L 112.852642 215.509069 
L 112.921758 253.354776 
L 112.923499 206.404531 
L 112.952162 207.424019 
L 113.049232 187.082374 
L 113.102814 193.075546 
L 113.230842 257.232726 
L 113.309745 221.045126 
L 113.429303 221.868547 
L 113.565685 251.196672 
L 113.764723 254.859481 
L 114.03998 220.40248 
L 114.414545 221.430307 
L 114.820943 235.104519 
L 115.168693 232.076293 
L 115.231777 256.438876 
L 115.364253 257.956099 
L 115.39739 254.756535 
L 115.601557 257.320105 
L 115.661061 248.048482 
L 116.00245 255.742112 
L 116.129588 234.196972 
L 116.777155 246.53093 
L 117.159202 231.586133 
L 117.996685 220.463144 
L 118.005399 221.833267 
L 118.068184 215.770445 
L 118.086089 218.032308 
L 118.13112 216.506393 
L 118.158893 217.819134 
L 118.231778 202.289394 
L 118.278344 212.079784 
L 118.408457 184.194092 
L 118.49588 194.733501 
L 118.552479 257.110446 
L 118.679857 258.27572 
L 118.766637 219.258878 
L 118.963495 213.782285 
L 119.108131 241.772114 
L 119.471294 256.398949 
L 119.713814 217.866382 
L 119.749213 254.0402 
L 119.881659 254.407233 
L 120.346992 225.741899 
L 120.572196 255.545069 
L 120.653749 246.941733 
L 120.80238 257.142927 
L 120.906733 253.125751 
L 121.018603 231.329475 
L 121.280008 255.753835 
L 121.504996 239.16766 
L 121.991929 236.782161 
L 122.182465 249.22412 
L 122.522996 239.101097 
L 122.575116 243.544664 
L 122.856752 233.741644 
L 122.958703 255.306399 
L 123.28448 257.142493 
L 123.308894 248.379584 
L 123.839882 255.658579 
L 123.911712 234.345782 
L 124.369175 242.746105 
L 124.865213 146.305116 
L 124.884128 251.823856 
L 124.967028 196.992886 
L 125.175584 232.49539 
L 125.197663 189.680845 
L 125.445718 196.976402 
L 125.951435 166.505991 
L 126.441704 254.791836 
L 126.458249 253.397887 
L 126.763347 258.032249 
L 126.85019 253.764242 
L 127.145591 216.153555 
L 127.17087 256.189452 
L 127.207818 218.792229 
L 127.283754 214.061667 
L 127.339468 220.927759 
L 127.384529 214.629277 
L 127.402751 255.891175 
L 127.518151 188.544992 
L 127.640653 243.23917 
L 127.66997 230.305658 
L 127.698246 202.177756 
L 127.973166 181.261619 
L 128.202693 250.317948 
L 128.348802 186.347415 
L 128.392251 254.544285 
L 128.392251 251.713372 
L 128.592559 252.026352 
L 128.987867 256.263197 
L 129.119707 215.623543 
L 129.2546 231.324779 
L 130.168345 221.995312 
L 131.031226 250.517704 
L 131.400752 248.948621 
L 131.773413 234.434168 
L 131.793635 256.459499 
L 132.689364 160.92343 
L 132.749715 164.704021 
L 132.813336 164.651242 
L 132.83721 155.93546 
L 132.905696 218.922257 
L 132.9559 193.431117 
L 133.003304 146.928434 
L 133.003304 194.619168 
L 133.128674 253.177942 
L 133.149498 218.383234 
L 133.267034 178.35024 
L 133.267034 188.325528 
L 133.383598 190.354086 
L 133.586715 181.642524 
L 133.796046 208.155757 
L 134.199932 163.27395 
L 134.338998 249.549465 
L 134.640905 176.307991 
L 134.669337 251.630208 
L 134.753829 243.380784 
L 135.062709 246.565366 
L 135.459784 256.789144 
L 135.684996 209.730036 
L 136.021396 252.958999 
L 136.845589 242.53497 
L 136.949788 213.058238 
L 138.303521 218.795214 
L 138.327747 256.079007 
L 138.340809 218.815412 
L 138.664974 212.990957 
L 138.751721 216.057734 
L 139.035085 204.769075 
L 139.184074 215.952169 
L 139.184074 212.31332 
L 139.700983 237.33148 
L 139.751159 181.81412 
L 140.044171 191.789464 
L 141.493278 257.814183 
L 141.567399 176.614173 
L 141.633426 217.847654 
L 141.730081 218.181716 
L 141.782517 217.503333 
L 141.925621 218.937606 
L 142.008601 212.975209 
L 142.234219 217.964054 
L 142.307992 186.07394 
L 142.378922 192.615479 
L 142.767732 211.135202 
L 143.063135 180.883225 
L 143.751526 232.171219 
L 143.832595 194.735096 
L 144.658543 182.424853 
L 145.408905 257.34886 
L 146.631401 185.790721 
L 147.9279 217.649576 
L 148.12561 216.554476 
L 148.271316 217.467501 
L 148.425603 211.858607 
L 148.655984 217.982824 
L 148.916562 191.4508 
L 149.315543 212.959291 
L 149.818394 189.095901 
L 149.818394 175.696347 
L 150.615753 197.596492 
L 151.101679 222.409223 
L 151.441948 217.67219 
L 151.784509 162.618917 
L 151.806638 164.793099 
L 151.872556 163.236762 
L 152.010789 212.565882 
L 152.071597 157.703066 
L 152.265738 141.854766 
L 152.372901 145.457776 
L 152.47338 216.797118 
L 152.628957 217.66738 
L 152.786762 181.1307 
L 153.02588 185.97188 
L 153.09913 196.41897 
L 153.09913 193.235067 
L 153.298642 207.971831 
L 153.696719 213.749167 
L 153.696719 212.559877 
L 153.961378 203.815438 
L 154.247233 170.57377 
L 154.996364 178.954194 
L 155.809158 181.206085 
L 156.504658 179.542031 
L 156.630826 217.031836 
L 156.895779 221.48525 
L 156.962054 214.097974 
L 157.370387 217.834546 
L 157.489394 198.426484 
L 158.172172 217.081526 
L 158.271596 191.634521 
L 158.426448 184.385037 
L 159.721583 202.100792 
L 160.485676 179.530375 
L 162.30364 162.523846 
L 162.339451 169.138814 
L 162.429513 165.813526 
L 162.48506 168.542346 
L 162.630828 163.919024 
L 162.723961 166.9954 
L 162.984187 116.908652 
L 163.159034 149.586268 
L 163.272231 215.3845 
L 163.526986 217.788322 
L 163.700547 177.964714 
L 164.094263 174.206087 
L 164.383534 198.847551 
L 165.10986 219.871049 
L 165.594901 158.467262 
L 165.665699 210.139887 
L 165.930591 214.468592 
L 166.861257 185.879738 
L 166.995654 201.014735 
L 167.311666 218.146556 
L 167.47477 200.667773 
L 167.772032 221.886045 
L 167.980738 207.810456 
L 168.204479 179.417545 
L 168.204479 189.718585 
L 168.727288 217.058916 
L 169.177265 194.886719 
L 170.15113 190.21795 
L 170.532203 208.863296 
L 171.880776 185.717684 
L 172.084679 214.782961 
L 172.736232 221.016897 
L 172.78506 201.937158 
L 173.847037 216.653649 
L 173.990697 182.455044 
L 174.905622 201.460585 
L 175.935528 212.168198 
L 175.935528 210.185408 
L 176.101328 164.056157 
L 176.27929 167.455542 
L 176.51844 181.729459 
L 176.51844 180.680969 
L 176.562599 161.279456 
L 177.058708 149.185288 
L 178.070143 112.131182 
L 179.050681 214.547667 
L 179.083771 214.261051 
L 179.693967 221.828619 
L 179.973803 203.420418 
L 179.973803 193.99026 
L 180.280996 163.205705 
L 180.363334 165.962989 
L 180.458454 163.717935 
L 180.509012 219.694347 
L 180.509012 217.620382 
L 180.582909 168.781117 
L 180.73478 167.426157 
L 180.846209 178.441498 
L 180.936331 167.613072 
L 180.972775 216.998946 
L 181.203576 138.482415 
L 181.44858 199.19626 
L 181.563765 150.535823 
L 182.113606 90.630434 
L 182.572659 211.015717 
L 182.864877 119.926372 
L 182.951774 210.412058 
L 183.35239 213.370411 
L 184.143006 215.728475 
L 184.406687 168.806911 
L 184.676474 180.266198 
L 186.503962 177.148247 
L 188.229725 205.102986 
L 188.968777 206.179438 
L 189.714099 190.181302 
L 189.714099 183.269803 
L 189.754543 216.125678 
L 191.546001 293.747608 
L 191.563158 292.906266 
L 191.793945 295.179326 
L 191.841692 294.85626 
L 192.079073 161.73182 
L 192.17388 164.380665 
L 192.322717 166.730584 
L 192.322717 166.42751 
L 192.42462 214.940441 
L 192.46627 169.422759 
L 192.70134 247.467992 
L 192.934469 263.127703 
L 193.340703 115.362091 
L 193.759365 154.144365 
L 194.567137 89.756436 
L 194.845268 208.707309 
L 195.449082 161.665136 
L 195.505946 211.34662 
L 195.67493 189.203567 
L 195.67493 198.725903 
L 196.29269 199.403591 
L 196.29269 202.272788 
L 197.08684 215.838218 
L 197.537265 151.466661 
L 198.210066 213.281246 
L 199.858451 199.893247 
L 200.066848 93.622878 
L 200.066848 180.424004 
L 202.774315 162.837176 
L 202.822767 215.943731 
L 202.848891 164.197783 
L 203.058182 166.585616 
L 203.058182 162.000093 
L 203.16845 165.617738 
L 203.670715 163.17171 
L 204.237444 160.879871 
L 204.535421 172.609531 
L 204.535421 155.110284 
L 205.569239 186.951155 
L 205.669591 108.783115 
L 205.669591 119.837293 
L 206.255614 121.489013 
L 209.153828 214.746241 
L 209.302071 81.456254 
L 209.434124 163.303427 
L 209.732306 165.892463 
L 210.018515 166.158085 
L 210.184474 162.744468 
L 210.635711 163.002657 
L 210.783256 106.199648 
L 210.925117 191.467888 
L 210.925117 150.821958 
L 211.702737 161.561807 
L 212.293543 92.466817 
L 213.670325 177.135085 
L 213.832462 149.01718 
L 215.48436 88.609363 
L 216.985082 216.403814 
L 219.430074 125.240464 
L 222.023073 163.80033 
L 222.219537 164.792984 
L 222.418493 170.475221 
L 222.709904 169.830929 
L 223.018478 166.253617 
L 223.47924 170.877284 
L 224.000397 153.379996 
L 224.798358 172.087276 
L 225.80406 86.320289 
L 227.398778 172.197904 
L 228.370632 169.516447 
L 229.05117 166.649227 
L 229.894276 79.596134 
L 230.188851 162.901997 
L 231.114033 170.137 
L 231.425186 169.385883 
L 231.740797 163.787711 
L 232.219032 166.243822 
L 232.365533 145.835236 
L 232.764556 162.450613 
L 233.560711 162.232027 
L 234.090029 138.848839 
L 234.661738 135.19353 
L 236.16 147.803374 
L 237.785589 105.747135 
L 239.17659 81.989402 
L 239.428925 166.332036 
L 239.95883 169.881749 
L 240.09138 167.755678 
L 240.908046 169.523015 
L 241.146061 149.63582 
L 242.511617 169.817677 
L 242.710466 121.415084 
L 243.020169 110.027314 
L 245.610439 141.728235 
L 247.138624 85.835985 
L 252.711734 171.112714 
L 253.221245 169.523246 
L 253.355432 121.073175 
L 253.355432 142.871389 
L 253.568367 168.107901 
L 254.355799 166.556807 
L 254.934342 149.56322 
L 256.059648 166.80353 
L 256.257259 167.451279 
L 256.386994 165.599645 
L 257.357074 91.789913 
L 257.498671 162.675326 
L 258.028454 162.672003 
L 259.889787 162.478788 
L 260.15858 137.801927 
L 260.790604 163.057568 
L 261.116814 148.548786 
L 261.711337 170.115335 
L 262.128749 163.036768 
L 262.57623 87.571536 
L 262.57623 68.45378 
L 263.621849 170.492161 
L 264.521803 153.209041 
L 266.469533 131.889734 
L 267.231679 151.659157 
L 268.593804 136.014596 
L 268.80228 136.594413 
L 269.928825 93.641258 
L 270.336632 167.387034 
L 271.639737 167.293519 
L 271.737393 159.011144 
L 273.861347 167.596017 
L 274.148667 99.477337 
L 275.978517 149.969029 
L 277.74637 285.261684 
L 277.96267 289.130976 
L 277.96267 289.114966 
L 278.038329 164.724764 
L 278.038329 167.309998 
L 278.369929 292.172654 
L 279.204153 87.463444 
L 279.29247 294.449433 
L 282.307559 295.193636 
L 284.268636 164.744661 
L 284.334815 164.851525 
L 285.555207 165.18917 
L 285.902577 162.548392 
L 286.114879 158.819773 
L 287.185297 168.464215 
L 287.85969 156.146325 
L 288.055741 141.757505 
L 288.112822 168.205161 
L 289.064432 153.043157 
L 289.181699 96.619509 
L 291.312591 151.118694 
L 292.07082 162.084562 
L 292.07082 169.392451 
L 292.872053 165.258543 
L 294.453286 167.979527 
L 294.980646 145.542533 
L 295.52022 88.545983 
L 299.175197 157.959296 
L 302.626722 162.456087 
L 304.104827 156.12829 
L 305.59547 119.973158 
L 305.676359 168.042331 
L 309.054643 291.004489 
L 309.070695 289.679007 
L 309.259275 293.678907 
L 309.293589 293.011278 
L 309.500678 284.605453 
L 309.755162 293.472542 
L 309.850656 293.186896 
L 310.325419 293.252677 
L 310.515033 291.099641 
L 311.016513 161.722947 
L 311.569953 295.254112 
L 311.569953 295.189 
L 312.036211 294.71797 
L 315.301546 295.210442 
L 315.857809 151.868601 
L 317.065436 294.839346 
L 317.179165 150.21385 
L 317.517133 142.302808 
L 317.517133 158.916342 
L 318.752653 168.720963 
L 318.752653 136.969472 
L 320.340953 163.352287 
L 321.241803 97.199383 
L 322.587404 155.431796 
L 325.884175 142.278455 
L 326.300969 158.103227 
L 331.812806 163.825452 
L 331.812806 155.272308 
L 337.305751 114.482734 
L 344.474929 159.873964 
L 344.474929 159.406562 
L 353.507922 91.004917 
L 360.137437 159.516728 
L 385.992042 285.07871 
L 386.129136 283.426345 
L 386.558897 288.150291 
L 386.788208 286.442866 
L 387.564769 291.485922 
L 387.993422 290.340469 
L 389.648866 294.10439 
L 390.605336 293.471133 
L 395.490749 294.931862 
L 398.487273 294.48026 
L 398.487273 294.48026 
" clip-path="url(#p7f149ece97)" style="fill: none; stroke: #1f77b4; stroke-width: 1.5; stroke-linecap: square"/>
   </g>
   <g id="line2d_15"/>
   <g id="patch_3">
    <path d="M 57.6 307.584 
L 57.6 41.472 
" style="fill: none; stroke: #000000; stroke-width: 0.8; stroke-linejoin: miter; stroke-linecap: square"/>
   </g>
   <g id="patch_4">
    <path d="M 414.72 307.584 
L 414.72 41.472 
" style="fill: none; stroke: #000000; stroke-width: 0.8; stroke-linejoin: miter; stroke-linecap: square"/>
   </g>
   <g id="patch_5">
    <path d="M 57.6 307.584 
L 414.72 307.584 
" style="fill: none; stroke: #000000; stroke-width: 0.8; stroke-linejoin: miter; stroke-linecap: square"/>
   </g>
   <g id="patch_6">
    <path d="M 57.6 41.472 
L 414.72 41.472 
" style="fill: none; stroke: #000000; stroke-width: 0.8; stroke-linejoin: miter; stroke-linecap: square"/>
   </g>
   <g id="text_16">
    <!-- Global Cubeness -->
    <g transform="translate(185.874375 35.472)scale(0.12 -0.12)">
     <defs>
      <path id="DejaVuSans-43" d="M 4122 4306 
L 4122 3641 
Q 3803 3938 3442 4084 
Q 3081 4231 2675 4231 
Q 1875 4231 1450 3742 
Q 1025 3253 1025 2328 
Q 1025 1406 1450 917 
Q 1875 428 2675 428 
Q 3081 428 3442 575 
Q 3803 722 4122 1019 
L 4122 359 
Q 3791 134 3420 21 
Q 3050 -91 2638 -91 
Q 1578 -91 968 557 
Q 359 1206 359 2328 
Q 359 3453 968 4101 
Q 1578 4750 2638 4750 
Q 3056 4750 3426 4639 
Q 3797 4528 4122 4306 
z
" transform="scale(0.015625)"/>
      <path id="DejaVuSans-6e" d="M 3513 2113 
L 3513 0 
L 2938 0 
L 2938 2094 
Q 2938 2591 2744 2837 
Q 2550 3084 2163 3084 
Q 1697 3084 1428 2787 
Q 1159 2491 1159 1978 
L 1159 0 
L 581 0 
L 581 3500 
L 1159 3500 
L 1159 2956 
Q 1366 3272 1645 3428 
Q 1925 3584 2291 3584 
Q 2894 3584 3203 3211 
Q 3513 2838 3513 2113 
z
" transform="scale(0.015625)"/>
     </defs>
     <use xlink:href="#DejaVuSans-47"/>
     <use xlink:href="#DejaVuSans-6c" x="77.490234"/>
     <use xlink:href="#DejaVuSans-6f" x="105.273438"/>
     <use xlink:href="#DejaVuSans-62" x="166.455078"/>
     <use xlink:href="#DejaVuSans-61" x="229.931641"/>
     <use xlink:href="#DejaVuSans-6c" x="291.210938"/>
     <use xlink:href="#DejaVuSans-20" x="318.994141"/>
     <use xlink:href="#DejaVuSans-43" x="350.78125"/>
     <use xlink:href="#DejaVuSans-75" x="420.605469"/>
     <use xlink:href="#DejaVuSans-62" x="483.984375"/>
     <use xlink:href="#DejaVuSans-65" x="547.460938"/>
     <use xlink:href="#DejaVuSans-6e" x="608.984375"/>
     <use xlink:href="#DejaVuSans-65" x="672.363281"/>
     <use xlink:href="#DejaVuSans-73" x="733.886719"/>
     <use xlink:href="#DejaVuSans-73" x="785.986328"/>
    </g>
   </g>
   <g id="legend_1">
    <g id="patch_7">
     <path d="M 339.12 78.82825 
L 407.72 78.82825 
Q 409.72 78.82825 409.72 76.82825 
L 409.72 48.472 
Q 409.72 46.472 407.72 46.472 
L 339.12 46.472 
Q 337.12 46.472 337.12 48.472 
L 337.12 76.82825 
Q 337.12 78.82825 339.12 78.82825 
z
" style="fill: #ffffff; opacity: 0.8; stroke: #cccccc; stroke-linejoin: miter"/>
    </g>
    <g id="text_17">
     <!-- Cluster -->
     <g transform="translate(355.673906 58.070437)scale(0.1 -0.1)">
      <defs>
       <path id="DejaVuSans-72" d="M 2631 2963 
Q 2534 3019 2420 3045 
Q 2306 3072 2169 3072 
Q 1681 3072 1420 2755 
Q 1159 2438 1159 1844 
L 1159 0 
L 581 0 
L 581 3500 
L 1159 3500 
L 1159 2956 
Q 1341 3275 1631 3429 
Q 1922 3584 2338 3584 
Q 2397 3584 2469 3576 
Q 2541 3569 2628 3553 
L 2631 2963 
z
" transform="scale(0.015625)"/>
      </defs>
      <use xlink:href="#DejaVuSans-43"/>
      <use xlink:href="#DejaVuSans-6c" x="69.824219"/>
      <use xlink:href="#DejaVuSans-75" x="97.607422"/>
      <use xlink:href="#DejaVuSans-73" x="160.986328"/>
      <use xlink:href="#DejaVuSans-74" x="213.085938"/>
      <use xlink:href="#DejaVuSans-65" x="252.294922"/>
      <use xlink:href="#DejaVuSans-72" x="313.818359"/>
     </g>
    </g>
    <g id="line2d_16">
     <path d="M 341.12 69.248562 
L 351.12 69.248562 
L 361.12 69.248562 
" style="fill: none; stroke: #1f77b4; stroke-width: 1.5; stroke-linecap: square"/>
    </g>
    <g id="text_18">
     <!-- Hopper -->
     <g transform="translate(369.12 72.748562)scale(0.1 -0.1)">
      <defs>
       <path id="DejaVuSans-48" d="M 628 4666 
L 1259 4666 
L 1259 2753 
L 3553 2753 
L 3553 4666 
L 4184 4666 
L 4184 0 
L 3553 0 
L 3553 2222 
L 1259 2222 
L 1259 0 
L 628 0 
L 628 4666 
z
" transform="scale(0.015625)"/>
       <path id="DejaVuSans-70" d="M 1159 525 
L 1159 -1331 
L 581 -1331 
L 581 3500 
L 1159 3500 
L 1159 2969 
Q 1341 3281 1617 3432 
Q 1894 3584 2278 3584 
Q 2916 3584 3314 3078 
Q 3713 2572 3713 1747 
Q 3713 922 3314 415 
Q 2916 -91 2278 -91 
Q 1894 -91 1617 61 
Q 1341 213 1159 525 
z
M 3116 1747 
Q 3116 2381 2855 2742 
Q 2594 3103 2138 3103 
Q 1681 3103 1420 2742 
Q 1159 2381 1159 1747 
Q 1159 1113 1420 752 
Q 1681 391 2138 391 
Q 2594 391 2855 752 
Q 3116 1113 3116 1747 
z
" transform="scale(0.015625)"/>
      </defs>
      <use xlink:href="#DejaVuSans-48"/>
      <use xlink:href="#DejaVuSans-6f" x="75.195312"/>
      <use xlink:href="#DejaVuSans-70" x="136.376953"/>
      <use xlink:href="#DejaVuSans-70" x="199.853516"/>
      <use xlink:href="#DejaVuSans-65" x="263.330078"/>
      <use xlink:href="#DejaVuSans-72" x="324.853516"/>
     </g>
    </g>
   </g>
  </g>
 </g>
 <defs>
  <clipPath id="p7f149ece97">
   <rect x="57.6" y="41.472" width="357.12" height="266.112"/>
  </clipPath>
 </defs>
</svg>
