<?xml version="1.0" encoding="utf-8" standalone="no"?>
<!DOCTYPE svg PUBLIC "-//W3C//DTD SVG 1.1//EN"
  "http://www.w3.org/Graphics/SVG/1.1/DTD/svg11.dtd">
<svg xmlns:xlink="http://www.w3.org/1999/xlink" width="460.8pt" height="345.6pt" viewBox="0 0 460.8 345.6" xmlns="http://www.w3.org/2000/svg" version="1.1">
 <metadata>
  <rdf:RDF xmlns:dc="http://purl.org/dc/elements/1.1/" xmlns:cc="http://creativecommons.org/ns#" xmlns:rdf="http://www.w3.org/1999/02/22-rdf-syntax-ns#">
   <cc:Work>
    <dc:type rdf:resource="http://purl.org/dc/dcmitype/StillImage"/>
    <dc:date>2024-05-04T18:12:15.964298</dc:date>
    <dc:format>image/svg+xml</dc:format>
    <dc:creator>
     <cc:Agent>
      <dc:title>Matplotlib v3.5.3, https://matplotlib.org/</dc:title>
     </cc:Agent>
    </dc:creator>
   </cc:Work>
  </rdf:RDF>
 </metadata>
 <defs>
  <style type="text/css">*{stroke-linejoin: round; stroke-linecap: butt}</style>
 </defs>
 <g id="figure_1">
  <g id="patch_1">
   <path d="M 0 345.6 
L 460.8 345.6 
L 460.8 0 
L 0 0 
z
" style="fill: #ffffff"/>
  </g>
  <g id="axes_1">
   <g id="patch_2">
    <path d="M 57.6 307.584 
L 414.72 307.584 
L 414.72 41.472 
L 57.6 41.472 
z
" style="fill: #ffffff"/>
   </g>
   <g id="PolyCollection_1">
    <path d="M 73.832727 108.664802 
L 73.832727 109.692157 
L 86.492857 109.088378 
L 93.898558 109.381912 
L 99.152987 108.716633 
L 103.228638 107.460625 
L 106.558688 109.005201 
L 109.374205 108.455145 
L 111.813116 107.706897 
L 113.964389 110.944798 
L 115.888768 107.669625 
L 119.218818 109.7098 
L 122.034334 108.121139 
L 123.294469 115.326028 
L 124.473246 108.00479 
L 126.624519 114.675932 
L 128.548898 111.878527 
L 129.440036 116.759849 
L 131.878947 112.843347 
L 132.624549 124.272522 
L 134.03022 115.368343 
L 134.694464 118.955134 
L 135.954599 117.648308 
L 137.133376 110.523215 
L 138.770116 131.516401 
L 139.284648 114.79889 
L 141.209027 113.853645 
L 142.100165 122.089928 
L 142.94984 117.723046 
L 143.3603 132.676212 
L 144.539077 113.26139 
L 144.915682 128.834853 
L 145.284679 122.432983 
L 146.690349 122.1753 
L 147.354594 122.667768 
L 148.614728 124.428215 
L 149.505866 125.106884 
L 149.793505 108.116119 
L 150.355541 132.078723 
L 151.430245 125.063234 
L 151.944778 124.652677 
L 152.69038 142.933731 
L 153.869157 119.417622 
L 154.096051 140.031784 
L 154.760295 128.280481 
L 155.609969 139.154983 
L 156.020429 133.985846 
L 157.199207 112.928398 
L 157.575812 132.682736 
L 157.761242 156.477962 
L 157.944808 134.270505 
L 158.835946 137.877877 
L 159.350479 138.330931 
L 159.685621 140.283732 
L 160.014724 121.998055 
L 161.274858 127.439647 
L 162.02046 156.06088 
L 162.165996 136.363143 
L 162.453635 100.076822 
L 163.015671 140.454284 
L 163.426131 141.454377 
L 164.090375 135.777275 
L 164.604908 126.086015 
L 164.981513 145.188586 
L 165.350509 142.358078 
L 165.831187 136.84893 
L 166.529287 122.999257 
L 166.75618 137.675354 
L 167.091322 144.158497 
L 167.420425 125.929322 
L 168.166026 147.720934 
L 168.270099 140.790043 
L 168.680559 138.705128 
L 169.571697 142.027989 
L 169.859336 102.467194 
L 170.235942 130.056765 
L 170.421372 140.071478 
L 170.604938 136.70562 
L 171.496076 142.49979 
L 172.010609 139.986542 
L 172.345751 144.662873 
L 172.674853 115.684502 
L 172.756211 149.447488 
L 173.236889 141.543974 
L 173.934988 122.052391 
L 174.086563 159.520538 
L 174.161881 141.131843 
L 174.311593 140.67699 
L 174.68059 156.454862 
L 174.826126 139.491293 
L 175.113765 92.706248 
L 175.6758 142.278262 
L 176.08626 142.284307 
L 176.421402 157.211144 
L 176.750505 131.615837 
L 177.265037 115.011131 
L 177.641643 144.735945 
L 177.827073 148.39322 
L 178.010639 146.520048 
L 178.491317 147.610117 
L 178.901777 139.818095 
L 179.189416 106.749327 
L 179.41631 143.832943 
L 179.751452 145.908937 
L 180.080554 116.909163 
L 180.45716 131.230423 
L 180.826156 141.355369 
L 180.930229 136.882126 
L 181.340689 135.740224 
L 181.492264 157.533803 
L 182.231827 143.227166 
L 182.519466 88.553034 
L 182.566969 142.977228 
L 182.896071 130.654778 
L 183.081501 143.570921 
L 183.265068 134.114767 
L 183.491961 142.178551 
L 184.156206 130.437378 
L 184.670739 119.74178 
L 185.00588 143.450961 
L 185.047344 141.43136 
L 185.334983 104.717961 
L 185.41634 147.977061 
L 185.897018 137.993801 
L 186.595117 105.902274 
L 186.746693 157.517706 
L 186.822011 146.215377 
L 186.971723 147.684394 
L 187.157153 147.247907 
L 187.340719 158.314732 
L 187.486255 131.094767 
L 187.773895 82.98604 
L 188.33593 132.477893 
L 188.712535 155.531732 
L 188.74639 144.892488 
L 189.081532 158.211172 
L 189.410634 126.040856 
L 189.637528 146.844486 
L 189.925167 101.859542 
L 190.487202 138.128742 
L 190.670769 118.650881 
L 190.822344 157.512321 
L 191.151447 137.798983 
L 191.561907 138.712924 
L 191.849546 94.340164 
L 192.07644 134.14354 
L 192.411581 148.355166 
L 192.740684 97.941415 
L 193.302719 138.412038 
L 193.486286 131.913373 
L 193.590358 124.653969 
L 194.000819 113.583995 
L 194.152394 131.322312 
L 194.227712 157.865522 
L 195.179596 75.757753 
L 195.227098 131.822149 
L 195.556201 99.916367 
L 195.741631 134.478344 
L 195.925197 110.875708 
L 196.152091 131.781359 
L 196.816335 99.99541 
L 196.967911 131.197148 
L 197.330868 98.522884 
L 197.66601 121.076319 
L 197.892904 147.543321 
L 197.995113 87.045945 
L 198.07647 132.132399 
L 199.255247 91.750561 
L 199.406822 132.11226 
L 199.817282 149.200318 
L 199.817282 128.010829 
L 199.817282 128.010829 
L 199.406822 126.90327 
L 199.255247 72.551166 
L 198.07647 130.715197 
L 197.995113 60.819728 
L 197.892904 127.585647 
L 197.66601 97.280988 
L 197.330868 92.842593 
L 196.967911 127.504556 
L 196.816335 96.685836 
L 196.152091 130.660482 
L 195.925197 97.836465 
L 195.741631 106.115052 
L 195.556201 93.51582 
L 195.227098 129.419952 
L 195.179596 60.855648 
L 194.227712 130.486284 
L 194.152394 127.41092 
L 194.000819 100.048155 
L 193.590358 100.393668 
L 193.486286 129.007979 
L 193.302719 128.432396 
L 192.740684 95.140484 
L 192.411581 128.732873 
L 192.07644 100.943176 
L 191.849546 70.698519 
L 191.561907 128.915972 
L 191.151447 128.216957 
L 190.822344 127.524669 
L 190.670769 86.542527 
L 190.487202 128.256324 
L 189.925167 82.236985 
L 189.637528 128.681899 
L 189.410634 103.47069 
L 189.081532 127.946005 
L 188.74639 129.631355 
L 188.712535 128.183676 
L 188.33593 103.278461 
L 187.773895 62.53849 
L 187.486255 107.788853 
L 187.340719 126.753996 
L 187.157153 128.159315 
L 186.971723 127.836771 
L 186.822011 129.377928 
L 186.746693 128.327866 
L 186.595117 91.785202 
L 185.897018 128.760057 
L 185.41634 129.016946 
L 185.334983 78.607622 
L 185.047344 128.106241 
L 185.00588 130.017425 
L 184.670739 99.025203 
L 184.156206 128.858314 
L 183.491961 129.159785 
L 183.265068 103.794247 
L 183.081501 129.832715 
L 182.896071 106.503569 
L 182.566969 127.603132 
L 182.519466 71.324436 
L 182.231827 130.21939 
L 181.492264 128.815322 
L 181.340689 117.898229 
L 180.930229 99.149426 
L 180.826156 127.64249 
L 180.45716 128.620509 
L 180.080554 99.434435 
L 179.751452 130.815862 
L 179.41631 131.134505 
L 179.189416 84.866301 
L 178.901777 127.698432 
L 178.491317 129.994862 
L 178.010639 129.742882 
L 177.827073 129.720237 
L 177.641643 128.811561 
L 177.265037 96.760706 
L 176.750505 114.065264 
L 176.421402 124.086087 
L 176.08626 131.252876 
L 175.6758 130.462839 
L 175.113765 70.910855 
L 174.826126 129.906185 
L 174.68059 124.072734 
L 174.311593 127.141226 
L 174.161881 126.359937 
L 174.086563 125.164026 
L 173.934988 105.439505 
L 173.236889 126.803945 
L 172.756211 127.368159 
L 172.674853 96.779206 
L 172.345751 128.403568 
L 172.010609 123.16104 
L 171.496076 130.549459 
L 170.604938 111.011525 
L 170.421372 127.498763 
L 170.235942 124.706498 
L 169.859336 85.42943 
L 169.571697 127.863974 
L 168.680559 130.490724 
L 168.270099 126.652265 
L 168.166026 124.519812 
L 167.420425 107.615933 
L 167.091322 124.056322 
L 166.75618 127.777524 
L 166.529287 103.078592 
L 165.831187 122.498497 
L 165.350509 125.622466 
L 164.981513 125.28589 
L 164.604908 108.067664 
L 164.090375 125.064794 
L 163.426131 125.337168 
L 163.015671 125.705583 
L 162.453635 80.672432 
L 162.165996 126.1364 
L 162.02046 124.873633 
L 161.274858 110.927127 
L 160.014724 101.076282 
L 159.685621 116.506599 
L 159.350479 128.45429 
L 158.835946 121.080953 
L 157.944808 117.612524 
L 157.761242 113.359992 
L 157.575812 125.424118 
L 157.199207 98.29167 
L 156.020429 120.866598 
L 155.609969 115.740147 
L 154.760295 117.961791 
L 154.096051 114.21347 
L 153.869157 102.237542 
L 152.69038 114.360701 
L 151.944778 111.042565 
L 151.430245 111.017916 
L 150.355541 112.065006 
L 149.793505 91.04829 
L 149.505866 107.94279 
L 148.614728 114.26838 
L 147.354594 106.664308 
L 146.690349 110.094237 
L 145.284679 105.372516 
L 144.915682 122.645802 
L 144.539077 102.333462 
L 143.3603 108.45136 
L 142.94984 106.846704 
L 142.100165 112.331021 
L 141.209027 103.31748 
L 139.284648 108.419949 
L 138.770116 114.65233 
L 137.133376 98.494374 
L 135.954599 109.227815 
L 134.694464 109.905877 
L 134.03022 105.266456 
L 132.624549 106.199241 
L 131.878947 104.76327 
L 129.440036 106.596422 
L 128.548898 106.609072 
L 126.624519 107.545632 
L 124.473246 99.615076 
L 123.294469 106.508135 
L 122.034334 106.367179 
L 119.218818 107.317244 
L 115.888768 106.926713 
L 113.964389 106.915192 
L 111.813116 101.349191 
L 109.374205 106.020569 
L 106.558688 107.757916 
L 103.228638 106.720413 
L 99.152987 107.639925 
L 93.898558 108.093636 
L 86.492857 108.345466 
L 73.832727 108.664802 
z
" clip-path="url(#p6bc3c08dd8)" style="fill: #1f77b4; fill-opacity: 0.2; stroke: #1f77b4; stroke-opacity: 0.2"/>
    <path d="M 200.146385 96.733246 
L 200.146385 98.798114 
L 200.434024 74.055402 
L 200.99606 99.880905 
L 201.40652 99.535526 
L 201.558095 157.892862 
L 202.070764 99.924196 
L 202.585297 86.631768 
L 202.961902 100.131773 
L 203.330899 100.206969 
L 203.811577 100.018597 
L 204.509676 84.617424 
L 204.736569 100.189762 
L 205.071711 100.73924 
L 205.400814 89.198094 
L 206.146416 98.905832 
L 206.250488 100.614279 
L 206.660948 100.154696 
L 207.552086 100.708875 
L 207.839725 67.804876 
L 208.216331 100.943701 
L 208.401761 100.366475 
L 208.585327 99.550317 
L 209.476465 100.738997 
L 209.990998 100.113825 
L 210.32614 100.416838 
L 210.655242 79.955684 
L 210.7366 100.720191 
L 211.217278 100.856573 
L 211.915377 82.165354 
L 211.915377 64.535137 
L 211.915377 64.535137 
L 211.217278 95.896158 
L 210.7366 97.461065 
L 210.655242 56.424239 
L 210.32614 97.061731 
L 209.990998 82.470775 
L 209.476465 99.413461 
L 208.585327 68.283325 
L 208.401761 96.436076 
L 208.216331 100.569822 
L 207.839725 55.524063 
L 207.552086 96.298472 
L 206.660948 98.214342 
L 206.250488 98.757238 
L 206.146416 97.789477 
L 205.400814 63.299624 
L 205.071711 99.887051 
L 204.736569 97.54738 
L 204.509676 63.482482 
L 203.811577 96.826084 
L 203.330899 97.974366 
L 202.961902 99.039091 
L 202.585297 67.417011 
L 202.070764 95.734799 
L 201.558095 126.596859 
L 201.40652 92.610721 
L 200.99606 98.879917 
L 200.434024 54.677925 
L 200.146385 96.733246 
z
" clip-path="url(#p6bc3c08dd8)" style="fill: #1f77b4; fill-opacity: 0.2; stroke: #1f77b4; stroke-opacity: 0.2"/>
    <path d="M 212.142271 95.176635 
L 212.142271 100.660446 
L 212.291982 101.309227 
L 212.660979 100.949508 
L 212.806515 100.96706 
L 213.094154 74.109676 
L 213.656189 100.491307 
L 214.066649 100.601326 
L 214.401791 100.297881 
L 214.730894 93.356795 
L 215.245427 76.064502 
L 215.622032 101.370063 
L 215.807462 100.578066 
L 215.991028 100.815021 
L 216.471706 101.365783 
L 216.882166 101.147665 
L 217.169805 75.891175 
L 217.396699 100.810281 
L 217.731841 100.596069 
L 218.060943 75.999885 
L 218.060943 58.549271 
L 218.060943 58.549271 
L 217.731841 99.08896 
L 217.396699 98.959845 
L 217.169805 58.349523 
L 216.882166 100.016639 
L 216.471706 99.514701 
L 215.991028 98.192375 
L 215.807462 97.415018 
L 215.622032 100.269456 
L 215.245427 58.93203 
L 214.730894 70.179043 
L 214.401791 99.301453 
L 214.066649 97.875058 
L 213.656189 99.217382 
L 213.094154 53.568 
L 212.806515 98.276168 
L 212.660979 99.359594 
L 212.291982 101.162886 
L 212.142271 95.176635 
z
" clip-path="url(#p6bc3c08dd8)" style="fill: #1f77b4; fill-opacity: 0.2; stroke: #1f77b4; stroke-opacity: 0.2"/>
    <path d="M 218.806545 99.402533 
L 218.806545 101.496691 
L 218.910618 101.132135 
L 219.321078 100.735163 
L 219.321078 73.472921 
L 219.321078 73.472921 
L 218.910618 60.719951 
L 218.806545 99.402533 
z
" clip-path="url(#p6bc3c08dd8)" style="fill: #1f77b4; fill-opacity: 0.2; stroke: #1f77b4; stroke-opacity: 0.2"/>
    <path d="M 220.212216 98.156857 
L 220.212216 100.73983 
L 220.499855 67.516418 
L 220.547358 101.634112 
L 220.87646 99.814073 
L 221.06189 101.795158 
L 221.245457 99.647186 
L 221.472351 101.543231 
L 222.136595 101.428923 
L 222.651128 81.600789 
L 222.986269 101.802862 
L 223.027733 100.061026 
L 223.315372 76.275082 
L 223.396729 99.724236 
L 223.877407 101.844638 
L 224.575507 70.933224 
L 224.575507 59.190699 
L 224.575507 59.190699 
L 223.877407 99.972338 
L 223.396729 97.510272 
L 223.315372 58.299087 
L 223.027733 97.491984 
L 222.986269 101.331299 
L 222.651128 59.441859 
L 222.136595 99.239551 
L 221.472351 99.567594 
L 221.245457 61.013207 
L 221.06189 101.230489 
L 220.87646 64.295111 
L 220.547358 99.833372 
L 220.499855 57.022807 
L 220.212216 98.156857 
z
" clip-path="url(#p6bc3c08dd8)" style="fill: #1f77b4; fill-opacity: 0.2; stroke: #1f77b4; stroke-opacity: 0.2"/>
    <path d="M 224.8024 96.34504 
L 224.8024 99.911314 
L 224.952112 99.849652 
L 225.137542 101.612061 
L 225.137542 97.098392 
L 225.137542 97.098392 
L 224.952112 99.372138 
L 224.8024 96.34504 
z
" clip-path="url(#p6bc3c08dd8)" style="fill: #1f77b4; fill-opacity: 0.2; stroke: #1f77b4; stroke-opacity: 0.2"/>
    <path d="M 225.466645 66.45632 
L 225.466645 94.118268 
L 225.754284 90.002663 
L 226.316319 92.3539 
L 226.692924 99.44264 
L 226.726779 99.834059 
L 227.061921 101.81891 
L 227.391023 87.773085 
L 227.617917 102.041282 
L 227.905556 75.740351 
L 228.467592 101.527553 
L 228.651158 87.068445 
L 228.651158 61.897466 
L 228.651158 61.897466 
L 228.467592 100.428404 
L 227.905556 63.673929 
L 227.617917 97.398575 
L 227.391023 60.911702 
L 227.061921 99.877641 
L 226.726779 98.479416 
L 226.692924 99.097469 
L 226.316319 59.332678 
L 225.754284 61.626687 
L 225.466645 66.45632 
z
" clip-path="url(#p6bc3c08dd8)" style="fill: #1f77b4; fill-opacity: 0.2; stroke: #1f77b4; stroke-opacity: 0.2"/>
    <path d="M 229.131836 99.077876 
L 229.131836 102.157516 
L 229.542296 102.040396 
L 229.829935 77.454314 
L 230.056829 98.62935 
L 230.39197 101.808335 
L 230.721073 69.434078 
L 231.283108 101.645481 
L 231.283108 99.332628 
L 231.283108 99.332628 
L 230.721073 57.947264 
L 230.39197 99.881772 
L 230.056829 69.227082 
L 229.829935 64.577945 
L 229.542296 99.269398 
L 229.131836 99.077876 
z
" clip-path="url(#p6bc3c08dd8)" style="fill: #1f77b4; fill-opacity: 0.2; stroke: #1f77b4; stroke-opacity: 0.2"/>
    <path d="M 231.570748 62.472995 
L 231.570748 88.912308 
L 231.981208 76.977299 
L 231.981208 64.878789 
L 231.981208 64.878789 
L 231.570748 62.472995 
z
" clip-path="url(#p6bc3c08dd8)" style="fill: #1f77b4; fill-opacity: 0.2; stroke: #1f77b4; stroke-opacity: 0.2"/>
    <path d="M 233.159985 64.426656 
L 233.159985 72.573684 
L 233.207487 101.530815 
L 233.53659 96.121327 
L 233.72202 101.571354 
L 233.905587 75.087831 
L 234.13248 101.566639 
L 234.796725 67.598189 
L 234.796725 60.788547 
L 234.796725 60.788547 
L 234.13248 98.918092 
L 233.905587 62.284944 
L 233.72202 69.040016 
L 233.53659 56.34074 
L 233.207487 99.589165 
L 233.159985 64.426656 
z
" clip-path="url(#p6bc3c08dd8)" style="fill: #1f77b4; fill-opacity: 0.2; stroke: #1f77b4; stroke-opacity: 0.2"/>
    <path d="M 235.311257 62.825831 
L 235.311257 66.271468 
L 235.646399 85.254768 
L 235.873293 101.606958 
L 235.975502 68.727276 
L 235.975502 61.013176 
L 235.975502 61.013176 
L 235.873293 97.66027 
L 235.646399 62.514751 
L 235.311257 62.825831 
z
" clip-path="url(#p6bc3c08dd8)" style="fill: #1f77b4; fill-opacity: 0.2; stroke: #1f77b4; stroke-opacity: 0.2"/>
    <path d="M 237.235636 65.273935 
L 237.235636 68.275764 
L 237.235636 65.273935 
L 237.235636 65.273935 
z
" clip-path="url(#p6bc3c08dd8)" style="fill: #1f77b4; fill-opacity: 0.2; stroke: #1f77b4; stroke-opacity: 0.2"/>
    <path d="M 237.797672 98.041036 
L 237.797672 101.687233 
L 237.797672 98.041036 
L 237.797672 98.041036 
z
" clip-path="url(#p6bc3c08dd8)" style="fill: #1f77b4; fill-opacity: 0.2; stroke: #1f77b4; stroke-opacity: 0.2"/>
    <path d="M 238.126774 62.511415 
L 238.126774 67.250086 
L 238.414413 150.40132 
L 238.976449 69.003147 
L 239.386909 69.372337 
L 239.386909 67.959832 
L 239.386909 67.959832 
L 238.976449 64.698841 
L 238.414413 74.768497 
L 238.126774 62.511415 
z
" clip-path="url(#p6bc3c08dd8)" style="fill: #1f77b4; fill-opacity: 0.2; stroke: #1f77b4; stroke-opacity: 0.2"/>
    <path d="M 240.051153 64.900858 
L 240.051153 68.93685 
L 240.565686 69.555391 
L 240.942291 69.337689 
L 241.311288 68.792455 
L 241.791966 66.658887 
L 242.490065 70.388938 
L 242.716959 69.415401 
L 243.0521 70.980866 
L 243.381203 69.431507 
L 244.126805 70.092945 
L 244.230877 69.486381 
L 244.641337 69.391067 
L 245.532475 70.118291 
L 245.820115 125.064016 
L 245.820115 73.161668 
L 245.820115 73.161668 
L 245.532475 66.886098 
L 244.641337 67.127022 
L 244.230877 66.352501 
L 244.126805 69.849445 
L 243.381203 65.407087 
L 243.0521 68.381707 
L 242.716959 67.80252 
L 242.490065 67.896338 
L 241.791966 63.775272 
L 241.311288 66.794258 
L 240.942291 62.853019 
L 240.565686 66.301576 
L 240.051153 64.900858 
z
" clip-path="url(#p6bc3c08dd8)" style="fill: #1f77b4; fill-opacity: 0.2; stroke: #1f77b4; stroke-opacity: 0.2"/>
    <path d="M 246.38215 66.810929 
L 246.38215 69.701106 
L 246.565716 70.177702 
L 247.456854 69.150868 
L 247.971387 70.605041 
L 248.306529 70.64357 
L 248.635631 70.2904 
L 248.716989 69.867165 
L 249.197667 70.720776 
L 249.895766 70.138824 
L 249.895766 68.396922 
L 249.895766 68.396922 
L 249.197667 66.924075 
L 248.716989 69.768939 
L 248.635631 70.019026 
L 248.306529 68.072201 
L 247.971387 68.515297 
L 247.456854 67.003933 
L 246.565716 68.680347 
L 246.38215 66.810929 
z
" clip-path="url(#p6bc3c08dd8)" style="fill: #1f77b4; fill-opacity: 0.2; stroke: #1f77b4; stroke-opacity: 0.2"/>
    <path d="M 250.641368 70.088509 
L 250.641368 72.136839 
L 250.786904 69.455767 
L 251.074543 295.488 
L 251.636578 69.712533 
L 252.047039 70.191167 
L 252.38218 72.636998 
L 252.711283 70.214322 
L 253.225816 68.982929 
L 253.225816 68.022476 
L 253.225816 68.022476 
L 252.711283 69.44194 
L 252.38218 70.030961 
L 252.047039 68.429627 
L 251.636578 68.340405 
L 251.074543 104.832344 
L 250.786904 67.478252 
L 250.641368 70.088509 
z
" clip-path="url(#p6bc3c08dd8)" style="fill: #1f77b4; fill-opacity: 0.2; stroke: #1f77b4; stroke-opacity: 0.2"/>
    <path d="M 253.787851 70.252193 
L 253.787851 70.296595 
L 253.971417 70.332892 
L 254.452095 70.157807 
L 254.862555 70.543702 
L 255.150195 143.522932 
L 255.377088 71.234735 
L 255.71223 71.088807 
L 256.041333 68.414671 
L 256.786934 69.820152 
L 256.891007 69.612256 
L 257.301467 70.808523 
L 257.301467 68.999944 
L 257.301467 68.999944 
L 256.891007 69.391631 
L 256.786934 68.359662 
L 256.041333 68.232308 
L 255.71223 68.851761 
L 255.377088 68.201824 
L 255.150195 77.302322 
L 254.862555 69.666999 
L 254.452095 69.625563 
L 253.971417 68.827319 
L 253.787851 70.252193 
z
" clip-path="url(#p6bc3c08dd8)" style="fill: #1f77b4; fill-opacity: 0.2; stroke: #1f77b4; stroke-opacity: 0.2"/>
    <path d="M 258.192605 68.553813 
L 258.192605 69.282563 
L 258.480244 281.881597 
L 258.527747 72.320945 
L 259.04228 71.221255 
L 259.225846 70.478924 
L 259.225846 68.558307 
L 259.225846 68.558307 
L 259.04228 68.90268 
L 258.527747 69.694769 
L 258.480244 114.102816 
L 258.192605 68.553813 
z
" clip-path="url(#p6bc3c08dd8)" style="fill: #1f77b4; fill-opacity: 0.2; stroke: #1f77b4; stroke-opacity: 0.2"/>
    <path d="M 260.116984 68.686293 
L 260.116984 68.791267 
L 260.631517 69.741269 
L 260.966658 70.780999 
L 261.295761 251.705727 
L 261.377119 70.652523 
L 261.857796 68.865899 
L 262.555896 69.094265 
L 262.555896 68.922381 
L 262.555896 68.922381 
L 261.857796 68.673572 
L 261.377119 68.73307 
L 261.295761 249.047935 
L 260.966658 70.050223 
L 260.631517 68.750907 
L 260.116984 68.686293 
z
" clip-path="url(#p6bc3c08dd8)" style="fill: #1f77b4; fill-opacity: 0.2; stroke: #1f77b4; stroke-opacity: 0.2"/>
    <path d="M 263.117931 70.719707 
L 263.117931 70.755746 
L 263.117931 70.719707 
L 263.117931 70.719707 
z
" clip-path="url(#p6bc3c08dd8)" style="fill: #1f77b4; fill-opacity: 0.2; stroke: #1f77b4; stroke-opacity: 0.2"/>
    <path d="M 263.734673 258.793567 
L 263.734673 281.79121 
L 264.296708 68.987872 
L 264.707168 70.107308 
L 265.04231 70.974088 
L 265.885945 270.415892 
L 266.447981 69.1055 
L 266.447981 69.001129 
L 266.447981 69.001129 
L 265.885945 269.393349 
L 265.04231 70.83067 
L 264.707168 69.135987 
L 264.296708 68.622505 
L 263.734673 258.793567 
z
" clip-path="url(#p6bc3c08dd8)" style="fill: #1f77b4; fill-opacity: 0.2; stroke: #1f77b4; stroke-opacity: 0.2"/>
    <path d="M 267.810324 263.072493 
L 267.810324 264.663514 
L 268.37236 69.275115 
L 268.37236 69.243863 
L 268.37236 69.243863 
L 267.810324 263.072493 
z
" clip-path="url(#p6bc3c08dd8)" style="fill: #1f77b4; fill-opacity: 0.2; stroke: #1f77b4; stroke-opacity: 0.2"/>
    <path d="M 271.140374 257.322091 
L 271.140374 268.29356 
L 273.955891 252.799751 
L 275.216025 248.968042 
L 276.394803 272.825 
L 278.546075 264.523193 
L 280.470454 252.553388 
L 281.361592 232.780946 
L 283.800504 254.289342 
L 284.546105 229.172938 
L 284.546105 224.809722 
L 284.546105 224.809722 
L 283.800504 236.516569 
L 281.361592 230.640966 
L 280.470454 236.829674 
L 278.546075 243.114913 
L 276.394803 250.508724 
L 275.216025 247.008608 
L 273.955891 250.453051 
L 271.140374 257.322091 
z
" clip-path="url(#p6bc3c08dd8)" style="fill: #1f77b4; fill-opacity: 0.2; stroke: #1f77b4; stroke-opacity: 0.2"/>
    <path d="M 286.616021 222.234612 
L 286.616021 240.784865 
L 287.876155 243.94392 
L 289.054932 264.148624 
L 290.691672 211.947488 
L 291.206205 240.829932 
L 293.130584 237.904146 
L 294.021722 234.313976 
L 294.871396 236.106813 
L 295.281856 232.46649 
L 296.460633 247.837477 
L 296.460633 225.81234 
L 296.460633 225.81234 
L 295.281856 230.391708 
L 294.871396 232.16927 
L 294.021722 210.797698 
L 293.130584 218.110261 
L 291.206205 228.827291 
L 290.691672 211.58027 
L 289.054932 234.619684 
L 287.876155 224.396944 
L 286.616021 222.234612 
z
" clip-path="url(#p6bc3c08dd8)" style="fill: #1f77b4; fill-opacity: 0.2; stroke: #1f77b4; stroke-opacity: 0.2"/>
    <path d="M 297.206235 223.805022 
L 297.206235 226.725044 
L 298.611906 222.966759 
L 299.27615 232.461698 
L 300.536285 219.814959 
L 301.427423 215.595116 
L 301.715062 256.065311 
L 302.277097 216.566826 
L 303.351802 213.402678 
L 303.866334 228.54931 
L 304.611936 208.304006 
L 305.790713 225.281342 
L 306.017607 207.327041 
L 306.681851 206.222128 
L 307.531526 203.941826 
L 307.941986 202.538957 
L 309.120763 241.977727 
L 309.120763 215.931783 
L 309.120763 215.931783 
L 307.941986 200.850456 
L 307.531526 202.848165 
L 306.681851 203.632319 
L 306.017607 205.784114 
L 305.790713 208.462197 
L 304.611936 207.182193 
L 303.866334 212.141163 
L 303.351802 212.4267 
L 302.277097 214.48807 
L 301.715062 224.257004 
L 301.427423 215.031737 
L 300.536285 217.75818 
L 299.27615 206.215144 
L 298.611906 220.979583 
L 297.206235 223.805022 
z
" clip-path="url(#p6bc3c08dd8)" style="fill: #1f77b4; fill-opacity: 0.2; stroke: #1f77b4; stroke-opacity: 0.2"/>
    <path d="M 309.682798 198.293601 
L 309.682798 200.550311 
L 309.866365 199.474118 
L 310.757503 200.798434 
L 311.272036 202.882834 
L 311.607177 200.007553 
L 311.93628 237.991072 
L 313.196414 208.81801 
L 313.196414 195.307256 
L 313.196414 195.307256 
L 311.93628 200.466308 
L 311.607177 196.95768 
L 311.272036 197.932514 
L 310.757503 198.644373 
L 309.866365 197.577641 
L 309.682798 198.293601 
z
" clip-path="url(#p6bc3c08dd8)" style="fill: #1f77b4; fill-opacity: 0.2; stroke: #1f77b4; stroke-opacity: 0.2"/>
    <path d="M 314.087553 189.676561 
L 314.087553 193.371229 
L 314.375192 249.434144 
L 314.937227 191.436512 
L 315.347687 190.077283 
L 316.011931 188.934973 
L 316.526464 223.64565 
L 316.526464 196.66884 
L 316.526464 196.66884 
L 316.011931 186.960912 
L 315.347687 187.188084 
L 314.937227 189.861893 
L 314.375192 212.234008 
L 314.087553 189.676561 
z
" clip-path="url(#p6bc3c08dd8)" style="fill: #1f77b4; fill-opacity: 0.2; stroke: #1f77b4; stroke-opacity: 0.2"/>
    <path d="M 317.272066 183.422014 
L 317.272066 186.3682 
L 317.752744 183.810016 
L 318.450843 214.191466 
L 318.677737 184.549271 
L 319.012878 183.584188 
L 319.341981 221.597605 
L 320.087583 177.935384 
L 320.191656 178.193266 
L 320.602116 181.345207 
L 321.493254 176.116413 
L 321.780893 241.39339 
L 321.780893 208.656073 
L 321.780893 208.656073 
L 321.493254 175.725268 
L 320.602116 176.302353 
L 320.191656 175.932422 
L 320.087583 177.301656 
L 319.341981 185.549581 
L 319.012878 180.540375 
L 318.677737 181.222436 
L 318.450843 187.696282 
L 317.752744 182.312512 
L 317.272066 183.422014 
z
" clip-path="url(#p6bc3c08dd8)" style="fill: #1f77b4; fill-opacity: 0.2; stroke: #1f77b4; stroke-opacity: 0.2"/>
    <path d="M 322.342928 173.313811 
L 322.342928 182.25637 
L 322.526495 193.327852 
L 323.417633 174.832999 
L 323.932165 204.199784 
L 324.267307 175.458737 
L 324.59641 232.175628 
L 324.59641 190.008515 
L 324.59641 190.008515 
L 324.267307 172.526963 
L 323.932165 173.685313 
L 323.417633 173.231233 
L 322.526495 172.663815 
L 322.342928 173.313811 
z
" clip-path="url(#p6bc3c08dd8)" style="fill: #1f77b4; fill-opacity: 0.2; stroke: #1f77b4; stroke-opacity: 0.2"/>
    <path d="M 325.158445 172.76582 
L 325.158445 175.114828 
L 325.856544 216.373333 
L 325.856544 181.929327 
L 325.856544 181.929327 
L 325.158445 172.76582 
z
" clip-path="url(#p6bc3c08dd8)" style="fill: #1f77b4; fill-opacity: 0.2; stroke: #1f77b4; stroke-opacity: 0.2"/>
    <path d="M 326.747682 171.112169 
L 326.747682 171.126397 
L 327.035321 252.352382 
L 327.597357 171.32308 
L 328.007817 179.465436 
L 328.007817 166.233394 
L 328.007817 166.233394 
L 327.597357 168.858502 
L 327.035321 207.571787 
L 326.747682 171.112169 
z
" clip-path="url(#p6bc3c08dd8)" style="fill: #1f77b4; fill-opacity: 0.2; stroke: #1f77b4; stroke-opacity: 0.2"/>
    <path d="M 328.672061 166.836588 
L 328.672061 199.33893 
L 329.186594 236.601424 
L 329.748629 164.986935 
L 329.932196 168.309145 
L 330.412874 164.287785 
L 330.412874 163.399621 
L 330.412874 163.399621 
L 329.932196 163.497056 
L 329.748629 163.169203 
L 329.186594 191.517802 
L 328.672061 166.836588 
z
" clip-path="url(#p6bc3c08dd8)" style="fill: #1f77b4; fill-opacity: 0.2; stroke: #1f77b4; stroke-opacity: 0.2"/>
    <path d="M 331.110973 185.354359 
L 331.110973 232.103891 
L 331.110973 185.354359 
L 331.110973 185.354359 
z
" clip-path="url(#p6bc3c08dd8)" style="fill: #1f77b4; fill-opacity: 0.2; stroke: #1f77b4; stroke-opacity: 0.2"/>
    <path d="M 331.673008 163.140273 
L 331.673008 176.146783 
L 332.002111 233.812916 
L 332.002111 211.571813 
L 332.002111 211.571813 
L 331.673008 163.140273 
z
" clip-path="url(#p6bc3c08dd8)" style="fill: #1f77b4; fill-opacity: 0.2; stroke: #1f77b4; stroke-opacity: 0.2"/>
    <path d="M 332.851785 161.217751 
L 332.851785 232.955429 
L 333.262245 232.24077 
L 333.262245 158.964466 
L 333.262245 158.964466 
L 332.851785 161.217751 
z
" clip-path="url(#p6bc3c08dd8)" style="fill: #1f77b4; fill-opacity: 0.2; stroke: #1f77b4; stroke-opacity: 0.2"/>
    <path d="M 334.441022 218.084335 
L 334.441022 230.893995 
L 334.441022 218.084335 
L 334.441022 218.084335 
z
" clip-path="url(#p6bc3c08dd8)" style="fill: #1f77b4; fill-opacity: 0.2; stroke: #1f77b4; stroke-opacity: 0.2"/>
    <path d="M 335.003058 157.732008 
L 335.003058 161.244508 
L 335.186624 228.97953 
L 336.592295 223.358667 
L 336.927437 154.922704 
L 337.256539 223.573444 
L 338.516674 219.562519 
L 338.516674 217.848429 
L 338.516674 217.848429 
L 337.256539 203.172146 
L 336.927437 154.157142 
L 336.592295 221.370243 
L 335.186624 156.051472 
L 335.003058 157.732008 
z
" clip-path="url(#p6bc3c08dd8)" style="fill: #1f77b4; fill-opacity: 0.2; stroke: #1f77b4; stroke-opacity: 0.2"/>
    <path d="M 339.407812 216.081947 
L 339.407812 217.299158 
L 339.695451 237.932305 
L 340.257486 215.790555 
L 341.332191 211.255624 
L 341.846724 212.1774 
L 341.846724 209.876932 
L 341.846724 209.876932 
L 341.332191 210.334765 
L 340.257486 213.648292 
L 339.695451 210.89674 
L 339.407812 216.081947 
z
" clip-path="url(#p6bc3c08dd8)" style="fill: #1f77b4; fill-opacity: 0.2; stroke: #1f77b4; stroke-opacity: 0.2"/>
    <path d="M 343.771102 205.958139 
L 343.771102 208.286228 
L 343.997996 208.538309 
L 344.66224 204.82071 
L 345.511915 204.287098 
L 345.922375 202.649673 
L 347.101152 218.747826 
L 347.101152 200.944343 
L 347.101152 200.944343 
L 345.922375 200.956769 
L 345.511915 202.449025 
L 344.66224 203.425356 
L 343.997996 202.740694 
L 343.771102 205.958139 
z
" clip-path="url(#p6bc3c08dd8)" style="fill: #1f77b4; fill-opacity: 0.2; stroke: #1f77b4; stroke-opacity: 0.2"/>
    <path d="M 347.663187 195.6534 
L 347.663187 199.643905 
L 347.846754 201.599848 
L 348.737892 198.229802 
L 349.252425 198.567189 
L 349.587566 197.41603 
L 349.916669 225.282567 
L 351.176804 206.735973 
L 352.067942 194.122161 
L 352.355581 236.817461 
L 352.917616 191.576735 
L 353.328076 189.891435 
L 353.992321 190.907708 
L 354.506853 214.89526 
L 354.506853 189.287931 
L 354.506853 189.287931 
L 353.992321 187.517566 
L 353.328076 189.782489 
L 352.917616 188.717285 
L 352.355581 197.209441 
L 352.067942 191.817734 
L 351.176804 194.080708 
L 349.916669 201.468231 
L 349.587566 196.208634 
L 349.252425 196.000688 
L 348.737892 197.92891 
L 347.846754 196.793238 
L 347.663187 195.6534 
z
" clip-path="url(#p6bc3c08dd8)" style="fill: #1f77b4; fill-opacity: 0.2; stroke: #1f77b4; stroke-opacity: 0.2"/>
    <path d="M 355.252455 183.31488 
L 355.252455 184.516311 
L 355.733133 182.224945 
L 356.431232 203.42256 
L 356.658126 185.335733 
L 356.993267 183.253915 
L 357.32237 204.841018 
L 358.172045 179.448487 
L 358.582505 180.639874 
L 359.473643 176.023646 
L 359.761282 223.209834 
L 360.323317 174.384419 
L 360.506884 174.090593 
L 361.398022 175.003402 
L 361.912554 175.798939 
L 362.247696 177.538976 
L 362.576799 234.288291 
L 363.138834 171.545243 
L 363.836933 211.612775 
L 363.836933 171.954928 
L 363.836933 171.954928 
L 363.138834 169.883747 
L 362.576799 203.815132 
L 362.247696 172.424789 
L 361.912554 171.601249 
L 361.398022 172.66671 
L 360.506884 172.730235 
L 360.323317 172.789241 
L 359.761282 190.972991 
L 359.473643 175.37459 
L 358.582505 177.158312 
L 358.172045 177.305633 
L 357.32237 178.223593 
L 356.993267 179.855007 
L 356.658126 179.758225 
L 356.431232 182.145416 
L 355.733133 181.776447 
L 355.252455 183.31488 
z
" clip-path="url(#p6bc3c08dd8)" style="fill: #1f77b4; fill-opacity: 0.2; stroke: #1f77b4; stroke-opacity: 0.2"/>
    <path d="M 365.01571 198.136916 
L 365.01571 228.031511 
L 365.577746 170.402286 
L 365.988206 168.956905 
L 365.988206 168.612416 
L 365.988206 168.612416 
L 365.577746 168.053066 
L 365.01571 198.136916 
z
" clip-path="url(#p6bc3c08dd8)" style="fill: #1f77b4; fill-opacity: 0.2; stroke: #1f77b4; stroke-opacity: 0.2"/>
    <path d="M 367.166983 222.2891 
L 367.166983 222.639134 
L 367.729018 165.452821 
L 367.729018 164.165662 
L 367.729018 164.165662 
L 367.166983 222.2891 
z
" clip-path="url(#p6bc3c08dd8)" style="fill: #1f77b4; fill-opacity: 0.2; stroke: #1f77b4; stroke-opacity: 0.2"/>
    <path d="M 369.091362 188.604053 
L 369.091362 218.659792 
L 369.653397 162.923521 
L 369.9825 217.143335 
L 369.9825 215.985933 
L 369.9825 215.985933 
L 369.653397 161.550534 
L 369.091362 188.604053 
z
" clip-path="url(#p6bc3c08dd8)" style="fill: #1f77b4; fill-opacity: 0.2; stroke: #1f77b4; stroke-opacity: 0.2"/>
    <path d="M 371.242634 212.146587 
L 371.242634 213.351485 
L 371.242634 212.146587 
L 371.242634 212.146587 
z
" clip-path="url(#p6bc3c08dd8)" style="fill: #1f77b4; fill-opacity: 0.2; stroke: #1f77b4; stroke-opacity: 0.2"/>
    <path d="M 372.421412 187.780426 
L 372.421412 210.615067 
L 372.421412 187.780426 
L 372.421412 187.780426 
z
" clip-path="url(#p6bc3c08dd8)" style="fill: #1f77b4; fill-opacity: 0.2; stroke: #1f77b4; stroke-opacity: 0.2"/>
    <path d="M 374.572684 205.091732 
L 374.572684 206.387073 
L 375.236928 204.272516 
L 376.497063 201.219097 
L 376.497063 201.138702 
L 376.497063 201.138702 
L 375.236928 204.027786 
L 374.572684 205.091732 
z
" clip-path="url(#p6bc3c08dd8)" style="fill: #1f77b4; fill-opacity: 0.2; stroke: #1f77b4; stroke-opacity: 0.2"/>
    <path d="M 377.67584 198.273284 
L 377.67584 198.428072 
L 377.67584 198.273284 
L 377.67584 198.273284 
z
" clip-path="url(#p6bc3c08dd8)" style="fill: #1f77b4; fill-opacity: 0.2; stroke: #1f77b4; stroke-opacity: 0.2"/>
    <path d="M 379.31258 193.955257 
L 379.31258 194.075187 
L 379.827113 194.152045 
L 379.827113 193.607838 
L 379.827113 193.607838 
L 379.31258 193.955257 
z
" clip-path="url(#p6bc3c08dd8)" style="fill: #1f77b4; fill-opacity: 0.2; stroke: #1f77b4; stroke-opacity: 0.2"/>
    <path d="M 382.64263 186.775249 
L 382.64263 187.550867 
L 383.902764 184.864272 
L 385.081541 181.734814 
L 385.081541 181.407934 
L 385.081541 181.407934 
L 383.902764 183.669789 
L 382.64263 186.775249 
z
" clip-path="url(#p6bc3c08dd8)" style="fill: #1f77b4; fill-opacity: 0.2; stroke: #1f77b4; stroke-opacity: 0.2"/>
    <path d="M 385.827143 179.809574 
L 385.827143 183.211124 
L 386.718281 180.066229 
L 387.232814 179.867584 
L 387.897058 178.742638 
L 389.157193 175.631219 
L 390.048331 174.088797 
L 390.048331 173.39257 
L 390.048331 173.39257 
L 389.157193 175.134165 
L 387.897058 178.32365 
L 387.232814 179.557244 
L 386.718281 177.154494 
L 385.827143 179.809574 
z
" clip-path="url(#p6bc3c08dd8)" style="fill: #1f77b4; fill-opacity: 0.2; stroke: #1f77b4; stroke-opacity: 0.2"/>
    <path d="M 390.898005 171.622419 
L 390.898005 171.897834 
L 390.898005 171.622419 
L 390.898005 171.622419 
z
" clip-path="url(#p6bc3c08dd8)" style="fill: #1f77b4; fill-opacity: 0.2; stroke: #1f77b4; stroke-opacity: 0.2"/>
    <path d="M 398.303706 153.954368 
L 398.303706 154.440547 
L 398.303706 153.954368 
L 398.303706 153.954368 
z
" clip-path="url(#p6bc3c08dd8)" style="fill: #1f77b4; fill-opacity: 0.2; stroke: #1f77b4; stroke-opacity: 0.2"/>
   </g>
   <g id="matplotlib.axis_1">
    <g id="xtick_1">
     <g id="line2d_1">
      <defs>
       <path id="m53c6d5496f" d="M 0 0 
L 0 3.5 
" style="stroke: #000000; stroke-width: 0.8"/>
      </defs>
      <g>
       <use xlink:href="#m53c6d5496f" x="86.059682" y="307.584" style="stroke: #000000; stroke-width: 0.8"/>
      </g>
     </g>
     <g id="text_1">
      <!-- $\mathdefault{10^{3}}$ -->
      <g transform="translate(77.259682 322.182437)scale(0.1 -0.1)">
       <defs>
        <path id="DejaVuSans-31" d="M 794 531 
L 1825 531 
L 1825 4091 
L 703 3866 
L 703 4441 
L 1819 4666 
L 2450 4666 
L 2450 531 
L 3481 531 
L 3481 0 
L 794 0 
L 794 531 
z
" transform="scale(0.015625)"/>
        <path id="DejaVuSans-30" d="M 2034 4250 
Q 1547 4250 1301 3770 
Q 1056 3291 1056 2328 
Q 1056 1369 1301 889 
Q 1547 409 2034 409 
Q 2525 409 2770 889 
Q 3016 1369 3016 2328 
Q 3016 3291 2770 3770 
Q 2525 4250 2034 4250 
z
M 2034 4750 
Q 2819 4750 3233 4129 
Q 3647 3509 3647 2328 
Q 3647 1150 3233 529 
Q 2819 -91 2034 -91 
Q 1250 -91 836 529 
Q 422 1150 422 2328 
Q 422 3509 836 4129 
Q 1250 4750 2034 4750 
z
" transform="scale(0.015625)"/>
        <path id="DejaVuSans-33" d="M 2597 2516 
Q 3050 2419 3304 2112 
Q 3559 1806 3559 1356 
Q 3559 666 3084 287 
Q 2609 -91 1734 -91 
Q 1441 -91 1130 -33 
Q 819 25 488 141 
L 488 750 
Q 750 597 1062 519 
Q 1375 441 1716 441 
Q 2309 441 2620 675 
Q 2931 909 2931 1356 
Q 2931 1769 2642 2001 
Q 2353 2234 1838 2234 
L 1294 2234 
L 1294 2753 
L 1863 2753 
Q 2328 2753 2575 2939 
Q 2822 3125 2822 3475 
Q 2822 3834 2567 4026 
Q 2313 4219 1838 4219 
Q 1578 4219 1281 4162 
Q 984 4106 628 3988 
L 628 4550 
Q 988 4650 1302 4700 
Q 1616 4750 1894 4750 
Q 2613 4750 3031 4423 
Q 3450 4097 3450 3541 
Q 3450 3153 3228 2886 
Q 3006 2619 2597 2516 
z
" transform="scale(0.015625)"/>
       </defs>
       <use xlink:href="#DejaVuSans-31" transform="translate(0 0.765625)"/>
       <use xlink:href="#DejaVuSans-30" transform="translate(63.623047 0.765625)"/>
       <use xlink:href="#DejaVuSans-33" transform="translate(128.203125 39.046875)scale(0.7)"/>
      </g>
     </g>
    </g>
    <g id="xtick_2">
     <g id="line2d_2">
      <g>
       <use xlink:href="#m53c6d5496f" x="128.115722" y="307.584" style="stroke: #000000; stroke-width: 0.8"/>
      </g>
     </g>
     <g id="text_2">
      <!-- $\mathdefault{10^{4}}$ -->
      <g transform="translate(119.315722 322.182437)scale(0.1 -0.1)">
       <defs>
        <path id="DejaVuSans-34" d="M 2419 4116 
L 825 1625 
L 2419 1625 
L 2419 4116 
z
M 2253 4666 
L 3047 4666 
L 3047 1625 
L 3713 1625 
L 3713 1100 
L 3047 1100 
L 3047 0 
L 2419 0 
L 2419 1100 
L 313 1100 
L 313 1709 
L 2253 4666 
z
" transform="scale(0.015625)"/>
       </defs>
       <use xlink:href="#DejaVuSans-31" transform="translate(0 0.684375)"/>
       <use xlink:href="#DejaVuSans-30" transform="translate(63.623047 0.684375)"/>
       <use xlink:href="#DejaVuSans-34" transform="translate(128.203125 38.965625)scale(0.7)"/>
      </g>
     </g>
    </g>
    <g id="xtick_3">
     <g id="line2d_3">
      <g>
       <use xlink:href="#m53c6d5496f" x="170.171763" y="307.584" style="stroke: #000000; stroke-width: 0.8"/>
      </g>
     </g>
     <g id="text_3">
      <!-- $\mathdefault{10^{5}}$ -->
      <g transform="translate(161.371763 322.182437)scale(0.1 -0.1)">
       <defs>
        <path id="DejaVuSans-35" d="M 691 4666 
L 3169 4666 
L 3169 4134 
L 1269 4134 
L 1269 2991 
Q 1406 3038 1543 3061 
Q 1681 3084 1819 3084 
Q 2600 3084 3056 2656 
Q 3513 2228 3513 1497 
Q 3513 744 3044 326 
Q 2575 -91 1722 -91 
Q 1428 -91 1123 -41 
Q 819 9 494 109 
L 494 744 
Q 775 591 1075 516 
Q 1375 441 1709 441 
Q 2250 441 2565 725 
Q 2881 1009 2881 1497 
Q 2881 1984 2565 2268 
Q 2250 2553 1709 2553 
Q 1456 2553 1204 2497 
Q 953 2441 691 2322 
L 691 4666 
z
" transform="scale(0.015625)"/>
       </defs>
       <use xlink:href="#DejaVuSans-31" transform="translate(0 0.684375)"/>
       <use xlink:href="#DejaVuSans-30" transform="translate(63.623047 0.684375)"/>
       <use xlink:href="#DejaVuSans-35" transform="translate(128.203125 38.965625)scale(0.7)"/>
      </g>
     </g>
    </g>
    <g id="xtick_4">
     <g id="line2d_4">
      <g>
       <use xlink:href="#m53c6d5496f" x="212.227803" y="307.584" style="stroke: #000000; stroke-width: 0.8"/>
      </g>
     </g>
     <g id="text_4">
      <!-- $\mathdefault{10^{6}}$ -->
      <g transform="translate(203.427803 322.182437)scale(0.1 -0.1)">
       <defs>
        <path id="DejaVuSans-36" d="M 2113 2584 
Q 1688 2584 1439 2293 
Q 1191 2003 1191 1497 
Q 1191 994 1439 701 
Q 1688 409 2113 409 
Q 2538 409 2786 701 
Q 3034 994 3034 1497 
Q 3034 2003 2786 2293 
Q 2538 2584 2113 2584 
z
M 3366 4563 
L 3366 3988 
Q 3128 4100 2886 4159 
Q 2644 4219 2406 4219 
Q 1781 4219 1451 3797 
Q 1122 3375 1075 2522 
Q 1259 2794 1537 2939 
Q 1816 3084 2150 3084 
Q 2853 3084 3261 2657 
Q 3669 2231 3669 1497 
Q 3669 778 3244 343 
Q 2819 -91 2113 -91 
Q 1303 -91 875 529 
Q 447 1150 447 2328 
Q 447 3434 972 4092 
Q 1497 4750 2381 4750 
Q 2619 4750 2861 4703 
Q 3103 4656 3366 4563 
z
" transform="scale(0.015625)"/>
       </defs>
       <use xlink:href="#DejaVuSans-31" transform="translate(0 0.765625)"/>
       <use xlink:href="#DejaVuSans-30" transform="translate(63.623047 0.765625)"/>
       <use xlink:href="#DejaVuSans-36" transform="translate(128.203125 39.046875)scale(0.7)"/>
      </g>
     </g>
    </g>
    <g id="xtick_5">
     <g id="line2d_5">
      <g>
       <use xlink:href="#m53c6d5496f" x="254.283844" y="307.584" style="stroke: #000000; stroke-width: 0.8"/>
      </g>
     </g>
     <g id="text_5">
      <!-- $\mathdefault{10^{7}}$ -->
      <g transform="translate(245.483844 322.182437)scale(0.1 -0.1)">
       <defs>
        <path id="DejaVuSans-37" d="M 525 4666 
L 3525 4666 
L 3525 4397 
L 1831 0 
L 1172 0 
L 2766 4134 
L 525 4134 
L 525 4666 
z
" transform="scale(0.015625)"/>
       </defs>
       <use xlink:href="#DejaVuSans-31" transform="translate(0 0.684375)"/>
       <use xlink:href="#DejaVuSans-30" transform="translate(63.623047 0.684375)"/>
       <use xlink:href="#DejaVuSans-37" transform="translate(128.203125 38.965625)scale(0.7)"/>
      </g>
     </g>
    </g>
    <g id="xtick_6">
     <g id="line2d_6">
      <g>
       <use xlink:href="#m53c6d5496f" x="296.339884" y="307.584" style="stroke: #000000; stroke-width: 0.8"/>
      </g>
     </g>
     <g id="text_6">
      <!-- $\mathdefault{10^{8}}$ -->
      <g transform="translate(287.539884 322.182437)scale(0.1 -0.1)">
       <defs>
        <path id="DejaVuSans-38" d="M 2034 2216 
Q 1584 2216 1326 1975 
Q 1069 1734 1069 1313 
Q 1069 891 1326 650 
Q 1584 409 2034 409 
Q 2484 409 2743 651 
Q 3003 894 3003 1313 
Q 3003 1734 2745 1975 
Q 2488 2216 2034 2216 
z
M 1403 2484 
Q 997 2584 770 2862 
Q 544 3141 544 3541 
Q 544 4100 942 4425 
Q 1341 4750 2034 4750 
Q 2731 4750 3128 4425 
Q 3525 4100 3525 3541 
Q 3525 3141 3298 2862 
Q 3072 2584 2669 2484 
Q 3125 2378 3379 2068 
Q 3634 1759 3634 1313 
Q 3634 634 3220 271 
Q 2806 -91 2034 -91 
Q 1263 -91 848 271 
Q 434 634 434 1313 
Q 434 1759 690 2068 
Q 947 2378 1403 2484 
z
M 1172 3481 
Q 1172 3119 1398 2916 
Q 1625 2713 2034 2713 
Q 2441 2713 2670 2916 
Q 2900 3119 2900 3481 
Q 2900 3844 2670 4047 
Q 2441 4250 2034 4250 
Q 1625 4250 1398 4047 
Q 1172 3844 1172 3481 
z
" transform="scale(0.015625)"/>
       </defs>
       <use xlink:href="#DejaVuSans-31" transform="translate(0 0.765625)"/>
       <use xlink:href="#DejaVuSans-30" transform="translate(63.623047 0.765625)"/>
       <use xlink:href="#DejaVuSans-38" transform="translate(128.203125 39.046875)scale(0.7)"/>
      </g>
     </g>
    </g>
    <g id="xtick_7">
     <g id="line2d_7">
      <g>
       <use xlink:href="#m53c6d5496f" x="338.395925" y="307.584" style="stroke: #000000; stroke-width: 0.8"/>
      </g>
     </g>
     <g id="text_7">
      <!-- $\mathdefault{10^{9}}$ -->
      <g transform="translate(329.595925 322.182437)scale(0.1 -0.1)">
       <defs>
        <path id="DejaVuSans-39" d="M 703 97 
L 703 672 
Q 941 559 1184 500 
Q 1428 441 1663 441 
Q 2288 441 2617 861 
Q 2947 1281 2994 2138 
Q 2813 1869 2534 1725 
Q 2256 1581 1919 1581 
Q 1219 1581 811 2004 
Q 403 2428 403 3163 
Q 403 3881 828 4315 
Q 1253 4750 1959 4750 
Q 2769 4750 3195 4129 
Q 3622 3509 3622 2328 
Q 3622 1225 3098 567 
Q 2575 -91 1691 -91 
Q 1453 -91 1209 -44 
Q 966 3 703 97 
z
M 1959 2075 
Q 2384 2075 2632 2365 
Q 2881 2656 2881 3163 
Q 2881 3666 2632 3958 
Q 2384 4250 1959 4250 
Q 1534 4250 1286 3958 
Q 1038 3666 1038 3163 
Q 1038 2656 1286 2365 
Q 1534 2075 1959 2075 
z
" transform="scale(0.015625)"/>
       </defs>
       <use xlink:href="#DejaVuSans-31" transform="translate(0 0.765625)"/>
       <use xlink:href="#DejaVuSans-30" transform="translate(63.623047 0.765625)"/>
       <use xlink:href="#DejaVuSans-39" transform="translate(128.203125 39.046875)scale(0.7)"/>
      </g>
     </g>
    </g>
    <g id="xtick_8">
     <g id="line2d_8">
      <g>
       <use xlink:href="#m53c6d5496f" x="380.451965" y="307.584" style="stroke: #000000; stroke-width: 0.8"/>
      </g>
     </g>
     <g id="text_8">
      <!-- $\mathdefault{10^{10}}$ -->
      <g transform="translate(369.401965 322.182437)scale(0.1 -0.1)">
       <use xlink:href="#DejaVuSans-31" transform="translate(0 0.765625)"/>
       <use xlink:href="#DejaVuSans-30" transform="translate(63.623047 0.765625)"/>
       <use xlink:href="#DejaVuSans-31" transform="translate(128.203125 39.046875)scale(0.7)"/>
       <use xlink:href="#DejaVuSans-30" transform="translate(172.739258 39.046875)scale(0.7)"/>
      </g>
     </g>
    </g>
    <g id="xtick_9">
     <g id="line2d_9">
      <defs>
       <path id="m27dbaf7e8e" d="M 0 0 
L 0 2 
" style="stroke: #000000; stroke-width: 0.6"/>
      </defs>
      <g>
       <use xlink:href="#m27dbaf7e8e" x="64.069472" y="307.584" style="stroke: #000000; stroke-width: 0.6"/>
      </g>
     </g>
    </g>
    <g id="xtick_10">
     <g id="line2d_10">
      <g>
       <use xlink:href="#m27dbaf7e8e" x="69.3239" y="307.584" style="stroke: #000000; stroke-width: 0.6"/>
      </g>
     </g>
    </g>
    <g id="xtick_11">
     <g id="line2d_11">
      <g>
       <use xlink:href="#m27dbaf7e8e" x="73.399552" y="307.584" style="stroke: #000000; stroke-width: 0.6"/>
      </g>
     </g>
    </g>
    <g id="xtick_12">
     <g id="line2d_12">
      <g>
       <use xlink:href="#m27dbaf7e8e" x="76.729602" y="307.584" style="stroke: #000000; stroke-width: 0.6"/>
      </g>
     </g>
    </g>
    <g id="xtick_13">
     <g id="line2d_13">
      <g>
       <use xlink:href="#m27dbaf7e8e" x="79.545118" y="307.584" style="stroke: #000000; stroke-width: 0.6"/>
      </g>
     </g>
    </g>
    <g id="xtick_14">
     <g id="line2d_14">
      <g>
       <use xlink:href="#m27dbaf7e8e" x="81.98403" y="307.584" style="stroke: #000000; stroke-width: 0.6"/>
      </g>
     </g>
    </g>
    <g id="xtick_15">
     <g id="line2d_15">
      <g>
       <use xlink:href="#m27dbaf7e8e" x="84.135303" y="307.584" style="stroke: #000000; stroke-width: 0.6"/>
      </g>
     </g>
    </g>
    <g id="xtick_16">
     <g id="line2d_16">
      <g>
       <use xlink:href="#m27dbaf7e8e" x="98.719811" y="307.584" style="stroke: #000000; stroke-width: 0.6"/>
      </g>
     </g>
    </g>
    <g id="xtick_17">
     <g id="line2d_17">
      <g>
       <use xlink:href="#m27dbaf7e8e" x="106.125512" y="307.584" style="stroke: #000000; stroke-width: 0.6"/>
      </g>
     </g>
    </g>
    <g id="xtick_18">
     <g id="line2d_18">
      <g>
       <use xlink:href="#m27dbaf7e8e" x="111.379941" y="307.584" style="stroke: #000000; stroke-width: 0.6"/>
      </g>
     </g>
    </g>
    <g id="xtick_19">
     <g id="line2d_19">
      <g>
       <use xlink:href="#m27dbaf7e8e" x="115.455592" y="307.584" style="stroke: #000000; stroke-width: 0.6"/>
      </g>
     </g>
    </g>
    <g id="xtick_20">
     <g id="line2d_20">
      <g>
       <use xlink:href="#m27dbaf7e8e" x="118.785642" y="307.584" style="stroke: #000000; stroke-width: 0.6"/>
      </g>
     </g>
    </g>
    <g id="xtick_21">
     <g id="line2d_21">
      <g>
       <use xlink:href="#m27dbaf7e8e" x="121.601159" y="307.584" style="stroke: #000000; stroke-width: 0.6"/>
      </g>
     </g>
    </g>
    <g id="xtick_22">
     <g id="line2d_22">
      <g>
       <use xlink:href="#m27dbaf7e8e" x="124.040071" y="307.584" style="stroke: #000000; stroke-width: 0.6"/>
      </g>
     </g>
    </g>
    <g id="xtick_23">
     <g id="line2d_23">
      <g>
       <use xlink:href="#m27dbaf7e8e" x="126.191343" y="307.584" style="stroke: #000000; stroke-width: 0.6"/>
      </g>
     </g>
    </g>
    <g id="xtick_24">
     <g id="line2d_24">
      <g>
       <use xlink:href="#m27dbaf7e8e" x="140.775852" y="307.584" style="stroke: #000000; stroke-width: 0.6"/>
      </g>
     </g>
    </g>
    <g id="xtick_25">
     <g id="line2d_25">
      <g>
       <use xlink:href="#m27dbaf7e8e" x="148.181553" y="307.584" style="stroke: #000000; stroke-width: 0.6"/>
      </g>
     </g>
    </g>
    <g id="xtick_26">
     <g id="line2d_26">
      <g>
       <use xlink:href="#m27dbaf7e8e" x="153.435982" y="307.584" style="stroke: #000000; stroke-width: 0.6"/>
      </g>
     </g>
    </g>
    <g id="xtick_27">
     <g id="line2d_27">
      <g>
       <use xlink:href="#m27dbaf7e8e" x="157.511633" y="307.584" style="stroke: #000000; stroke-width: 0.6"/>
      </g>
     </g>
    </g>
    <g id="xtick_28">
     <g id="line2d_28">
      <g>
       <use xlink:href="#m27dbaf7e8e" x="160.841683" y="307.584" style="stroke: #000000; stroke-width: 0.6"/>
      </g>
     </g>
    </g>
    <g id="xtick_29">
     <g id="line2d_29">
      <g>
       <use xlink:href="#m27dbaf7e8e" x="163.6572" y="307.584" style="stroke: #000000; stroke-width: 0.6"/>
      </g>
     </g>
    </g>
    <g id="xtick_30">
     <g id="line2d_30">
      <g>
       <use xlink:href="#m27dbaf7e8e" x="166.096111" y="307.584" style="stroke: #000000; stroke-width: 0.6"/>
      </g>
     </g>
    </g>
    <g id="xtick_31">
     <g id="line2d_31">
      <g>
       <use xlink:href="#m27dbaf7e8e" x="168.247384" y="307.584" style="stroke: #000000; stroke-width: 0.6"/>
      </g>
     </g>
    </g>
    <g id="xtick_32">
     <g id="line2d_32">
      <g>
       <use xlink:href="#m27dbaf7e8e" x="182.831892" y="307.584" style="stroke: #000000; stroke-width: 0.6"/>
      </g>
     </g>
    </g>
    <g id="xtick_33">
     <g id="line2d_33">
      <g>
       <use xlink:href="#m27dbaf7e8e" x="190.237594" y="307.584" style="stroke: #000000; stroke-width: 0.6"/>
      </g>
     </g>
    </g>
    <g id="xtick_34">
     <g id="line2d_34">
      <g>
       <use xlink:href="#m27dbaf7e8e" x="195.492022" y="307.584" style="stroke: #000000; stroke-width: 0.6"/>
      </g>
     </g>
    </g>
    <g id="xtick_35">
     <g id="line2d_35">
      <g>
       <use xlink:href="#m27dbaf7e8e" x="199.567674" y="307.584" style="stroke: #000000; stroke-width: 0.6"/>
      </g>
     </g>
    </g>
    <g id="xtick_36">
     <g id="line2d_36">
      <g>
       <use xlink:href="#m27dbaf7e8e" x="202.897723" y="307.584" style="stroke: #000000; stroke-width: 0.6"/>
      </g>
     </g>
    </g>
    <g id="xtick_37">
     <g id="line2d_37">
      <g>
       <use xlink:href="#m27dbaf7e8e" x="205.71324" y="307.584" style="stroke: #000000; stroke-width: 0.6"/>
      </g>
     </g>
    </g>
    <g id="xtick_38">
     <g id="line2d_38">
      <g>
       <use xlink:href="#m27dbaf7e8e" x="208.152152" y="307.584" style="stroke: #000000; stroke-width: 0.6"/>
      </g>
     </g>
    </g>
    <g id="xtick_39">
     <g id="line2d_39">
      <g>
       <use xlink:href="#m27dbaf7e8e" x="210.303424" y="307.584" style="stroke: #000000; stroke-width: 0.6"/>
      </g>
     </g>
    </g>
    <g id="xtick_40">
     <g id="line2d_40">
      <g>
       <use xlink:href="#m27dbaf7e8e" x="224.887933" y="307.584" style="stroke: #000000; stroke-width: 0.6"/>
      </g>
     </g>
    </g>
    <g id="xtick_41">
     <g id="line2d_41">
      <g>
       <use xlink:href="#m27dbaf7e8e" x="232.293634" y="307.584" style="stroke: #000000; stroke-width: 0.6"/>
      </g>
     </g>
    </g>
    <g id="xtick_42">
     <g id="line2d_42">
      <g>
       <use xlink:href="#m27dbaf7e8e" x="237.548063" y="307.584" style="stroke: #000000; stroke-width: 0.6"/>
      </g>
     </g>
    </g>
    <g id="xtick_43">
     <g id="line2d_43">
      <g>
       <use xlink:href="#m27dbaf7e8e" x="241.623714" y="307.584" style="stroke: #000000; stroke-width: 0.6"/>
      </g>
     </g>
    </g>
    <g id="xtick_44">
     <g id="line2d_44">
      <g>
       <use xlink:href="#m27dbaf7e8e" x="244.953764" y="307.584" style="stroke: #000000; stroke-width: 0.6"/>
      </g>
     </g>
    </g>
    <g id="xtick_45">
     <g id="line2d_45">
      <g>
       <use xlink:href="#m27dbaf7e8e" x="247.769281" y="307.584" style="stroke: #000000; stroke-width: 0.6"/>
      </g>
     </g>
    </g>
    <g id="xtick_46">
     <g id="line2d_46">
      <g>
       <use xlink:href="#m27dbaf7e8e" x="250.208192" y="307.584" style="stroke: #000000; stroke-width: 0.6"/>
      </g>
     </g>
    </g>
    <g id="xtick_47">
     <g id="line2d_47">
      <g>
       <use xlink:href="#m27dbaf7e8e" x="252.359465" y="307.584" style="stroke: #000000; stroke-width: 0.6"/>
      </g>
     </g>
    </g>
    <g id="xtick_48">
     <g id="line2d_48">
      <g>
       <use xlink:href="#m27dbaf7e8e" x="266.943973" y="307.584" style="stroke: #000000; stroke-width: 0.6"/>
      </g>
     </g>
    </g>
    <g id="xtick_49">
     <g id="line2d_49">
      <g>
       <use xlink:href="#m27dbaf7e8e" x="274.349675" y="307.584" style="stroke: #000000; stroke-width: 0.6"/>
      </g>
     </g>
    </g>
    <g id="xtick_50">
     <g id="line2d_50">
      <g>
       <use xlink:href="#m27dbaf7e8e" x="279.604103" y="307.584" style="stroke: #000000; stroke-width: 0.6"/>
      </g>
     </g>
    </g>
    <g id="xtick_51">
     <g id="line2d_51">
      <g>
       <use xlink:href="#m27dbaf7e8e" x="283.679755" y="307.584" style="stroke: #000000; stroke-width: 0.6"/>
      </g>
     </g>
    </g>
    <g id="xtick_52">
     <g id="line2d_52">
      <g>
       <use xlink:href="#m27dbaf7e8e" x="287.009804" y="307.584" style="stroke: #000000; stroke-width: 0.6"/>
      </g>
     </g>
    </g>
    <g id="xtick_53">
     <g id="line2d_53">
      <g>
       <use xlink:href="#m27dbaf7e8e" x="289.825321" y="307.584" style="stroke: #000000; stroke-width: 0.6"/>
      </g>
     </g>
    </g>
    <g id="xtick_54">
     <g id="line2d_54">
      <g>
       <use xlink:href="#m27dbaf7e8e" x="292.264233" y="307.584" style="stroke: #000000; stroke-width: 0.6"/>
      </g>
     </g>
    </g>
    <g id="xtick_55">
     <g id="line2d_55">
      <g>
       <use xlink:href="#m27dbaf7e8e" x="294.415505" y="307.584" style="stroke: #000000; stroke-width: 0.6"/>
      </g>
     </g>
    </g>
    <g id="xtick_56">
     <g id="line2d_56">
      <g>
       <use xlink:href="#m27dbaf7e8e" x="309.000014" y="307.584" style="stroke: #000000; stroke-width: 0.6"/>
      </g>
     </g>
    </g>
    <g id="xtick_57">
     <g id="line2d_57">
      <g>
       <use xlink:href="#m27dbaf7e8e" x="316.405715" y="307.584" style="stroke: #000000; stroke-width: 0.6"/>
      </g>
     </g>
    </g>
    <g id="xtick_58">
     <g id="line2d_58">
      <g>
       <use xlink:href="#m27dbaf7e8e" x="321.660144" y="307.584" style="stroke: #000000; stroke-width: 0.6"/>
      </g>
     </g>
    </g>
    <g id="xtick_59">
     <g id="line2d_59">
      <g>
       <use xlink:href="#m27dbaf7e8e" x="325.735795" y="307.584" style="stroke: #000000; stroke-width: 0.6"/>
      </g>
     </g>
    </g>
    <g id="xtick_60">
     <g id="line2d_60">
      <g>
       <use xlink:href="#m27dbaf7e8e" x="329.065845" y="307.584" style="stroke: #000000; stroke-width: 0.6"/>
      </g>
     </g>
    </g>
    <g id="xtick_61">
     <g id="line2d_61">
      <g>
       <use xlink:href="#m27dbaf7e8e" x="331.881362" y="307.584" style="stroke: #000000; stroke-width: 0.6"/>
      </g>
     </g>
    </g>
    <g id="xtick_62">
     <g id="line2d_62">
      <g>
       <use xlink:href="#m27dbaf7e8e" x="334.320273" y="307.584" style="stroke: #000000; stroke-width: 0.6"/>
      </g>
     </g>
    </g>
    <g id="xtick_63">
     <g id="line2d_63">
      <g>
       <use xlink:href="#m27dbaf7e8e" x="336.471546" y="307.584" style="stroke: #000000; stroke-width: 0.6"/>
      </g>
     </g>
    </g>
    <g id="xtick_64">
     <g id="line2d_64">
      <g>
       <use xlink:href="#m27dbaf7e8e" x="351.056055" y="307.584" style="stroke: #000000; stroke-width: 0.6"/>
      </g>
     </g>
    </g>
    <g id="xtick_65">
     <g id="line2d_65">
      <g>
       <use xlink:href="#m27dbaf7e8e" x="358.461756" y="307.584" style="stroke: #000000; stroke-width: 0.6"/>
      </g>
     </g>
    </g>
    <g id="xtick_66">
     <g id="line2d_66">
      <g>
       <use xlink:href="#m27dbaf7e8e" x="363.716184" y="307.584" style="stroke: #000000; stroke-width: 0.6"/>
      </g>
     </g>
    </g>
    <g id="xtick_67">
     <g id="line2d_67">
      <g>
       <use xlink:href="#m27dbaf7e8e" x="367.791836" y="307.584" style="stroke: #000000; stroke-width: 0.6"/>
      </g>
     </g>
    </g>
    <g id="xtick_68">
     <g id="line2d_68">
      <g>
       <use xlink:href="#m27dbaf7e8e" x="371.121885" y="307.584" style="stroke: #000000; stroke-width: 0.6"/>
      </g>
     </g>
    </g>
    <g id="xtick_69">
     <g id="line2d_69">
      <g>
       <use xlink:href="#m27dbaf7e8e" x="373.937402" y="307.584" style="stroke: #000000; stroke-width: 0.6"/>
      </g>
     </g>
    </g>
    <g id="xtick_70">
     <g id="line2d_70">
      <g>
       <use xlink:href="#m27dbaf7e8e" x="376.376314" y="307.584" style="stroke: #000000; stroke-width: 0.6"/>
      </g>
     </g>
    </g>
    <g id="xtick_71">
     <g id="line2d_71">
      <g>
       <use xlink:href="#m27dbaf7e8e" x="378.527587" y="307.584" style="stroke: #000000; stroke-width: 0.6"/>
      </g>
     </g>
    </g>
    <g id="xtick_72">
     <g id="line2d_72">
      <g>
       <use xlink:href="#m27dbaf7e8e" x="393.112095" y="307.584" style="stroke: #000000; stroke-width: 0.6"/>
      </g>
     </g>
    </g>
    <g id="xtick_73">
     <g id="line2d_73">
      <g>
       <use xlink:href="#m27dbaf7e8e" x="400.517796" y="307.584" style="stroke: #000000; stroke-width: 0.6"/>
      </g>
     </g>
    </g>
    <g id="xtick_74">
     <g id="line2d_74">
      <g>
       <use xlink:href="#m27dbaf7e8e" x="405.772225" y="307.584" style="stroke: #000000; stroke-width: 0.6"/>
      </g>
     </g>
    </g>
    <g id="xtick_75">
     <g id="line2d_75">
      <g>
       <use xlink:href="#m27dbaf7e8e" x="409.847876" y="307.584" style="stroke: #000000; stroke-width: 0.6"/>
      </g>
     </g>
    </g>
    <g id="xtick_76">
     <g id="line2d_76">
      <g>
       <use xlink:href="#m27dbaf7e8e" x="413.177926" y="307.584" style="stroke: #000000; stroke-width: 0.6"/>
      </g>
     </g>
    </g>
    <g id="text_9">
     <!-- Global Problem Size -->
     <g transform="translate(186.327969 335.860562)scale(0.1 -0.1)">
      <defs>
       <path id="DejaVuSans-47" d="M 3809 666 
L 3809 1919 
L 2778 1919 
L 2778 2438 
L 4434 2438 
L 4434 434 
Q 4069 175 3628 42 
Q 3188 -91 2688 -91 
Q 1594 -91 976 548 
Q 359 1188 359 2328 
Q 359 3472 976 4111 
Q 1594 4750 2688 4750 
Q 3144 4750 3555 4637 
Q 3966 4525 4313 4306 
L 4313 3634 
Q 3963 3931 3569 4081 
Q 3175 4231 2741 4231 
Q 1884 4231 1454 3753 
Q 1025 3275 1025 2328 
Q 1025 1384 1454 906 
Q 1884 428 2741 428 
Q 3075 428 3337 486 
Q 3600 544 3809 666 
z
" transform="scale(0.015625)"/>
       <path id="DejaVuSans-6c" d="M 603 4863 
L 1178 4863 
L 1178 0 
L 603 0 
L 603 4863 
z
" transform="scale(0.015625)"/>
       <path id="DejaVuSans-6f" d="M 1959 3097 
Q 1497 3097 1228 2736 
Q 959 2375 959 1747 
Q 959 1119 1226 758 
Q 1494 397 1959 397 
Q 2419 397 2687 759 
Q 2956 1122 2956 1747 
Q 2956 2369 2687 2733 
Q 2419 3097 1959 3097 
z
M 1959 3584 
Q 2709 3584 3137 3096 
Q 3566 2609 3566 1747 
Q 3566 888 3137 398 
Q 2709 -91 1959 -91 
Q 1206 -91 779 398 
Q 353 888 353 1747 
Q 353 2609 779 3096 
Q 1206 3584 1959 3584 
z
" transform="scale(0.015625)"/>
       <path id="DejaVuSans-62" d="M 3116 1747 
Q 3116 2381 2855 2742 
Q 2594 3103 2138 3103 
Q 1681 3103 1420 2742 
Q 1159 2381 1159 1747 
Q 1159 1113 1420 752 
Q 1681 391 2138 391 
Q 2594 391 2855 752 
Q 3116 1113 3116 1747 
z
M 1159 2969 
Q 1341 3281 1617 3432 
Q 1894 3584 2278 3584 
Q 2916 3584 3314 3078 
Q 3713 2572 3713 1747 
Q 3713 922 3314 415 
Q 2916 -91 2278 -91 
Q 1894 -91 1617 61 
Q 1341 213 1159 525 
L 1159 0 
L 581 0 
L 581 4863 
L 1159 4863 
L 1159 2969 
z
" transform="scale(0.015625)"/>
       <path id="DejaVuSans-61" d="M 2194 1759 
Q 1497 1759 1228 1600 
Q 959 1441 959 1056 
Q 959 750 1161 570 
Q 1363 391 1709 391 
Q 2188 391 2477 730 
Q 2766 1069 2766 1631 
L 2766 1759 
L 2194 1759 
z
M 3341 1997 
L 3341 0 
L 2766 0 
L 2766 531 
Q 2569 213 2275 61 
Q 1981 -91 1556 -91 
Q 1019 -91 701 211 
Q 384 513 384 1019 
Q 384 1609 779 1909 
Q 1175 2209 1959 2209 
L 2766 2209 
L 2766 2266 
Q 2766 2663 2505 2880 
Q 2244 3097 1772 3097 
Q 1472 3097 1187 3025 
Q 903 2953 641 2809 
L 641 3341 
Q 956 3463 1253 3523 
Q 1550 3584 1831 3584 
Q 2591 3584 2966 3190 
Q 3341 2797 3341 1997 
z
" transform="scale(0.015625)"/>
       <path id="DejaVuSans-20" transform="scale(0.015625)"/>
       <path id="DejaVuSans-50" d="M 1259 4147 
L 1259 2394 
L 2053 2394 
Q 2494 2394 2734 2622 
Q 2975 2850 2975 3272 
Q 2975 3691 2734 3919 
Q 2494 4147 2053 4147 
L 1259 4147 
z
M 628 4666 
L 2053 4666 
Q 2838 4666 3239 4311 
Q 3641 3956 3641 3272 
Q 3641 2581 3239 2228 
Q 2838 1875 2053 1875 
L 1259 1875 
L 1259 0 
L 628 0 
L 628 4666 
z
" transform="scale(0.015625)"/>
       <path id="DejaVuSans-72" d="M 2631 2963 
Q 2534 3019 2420 3045 
Q 2306 3072 2169 3072 
Q 1681 3072 1420 2755 
Q 1159 2438 1159 1844 
L 1159 0 
L 581 0 
L 581 3500 
L 1159 3500 
L 1159 2956 
Q 1341 3275 1631 3429 
Q 1922 3584 2338 3584 
Q 2397 3584 2469 3576 
Q 2541 3569 2628 3553 
L 2631 2963 
z
" transform="scale(0.015625)"/>
       <path id="DejaVuSans-65" d="M 3597 1894 
L 3597 1613 
L 953 1613 
Q 991 1019 1311 708 
Q 1631 397 2203 397 
Q 2534 397 2845 478 
Q 3156 559 3463 722 
L 3463 178 
Q 3153 47 2828 -22 
Q 2503 -91 2169 -91 
Q 1331 -91 842 396 
Q 353 884 353 1716 
Q 353 2575 817 3079 
Q 1281 3584 2069 3584 
Q 2775 3584 3186 3129 
Q 3597 2675 3597 1894 
z
M 3022 2063 
Q 3016 2534 2758 2815 
Q 2500 3097 2075 3097 
Q 1594 3097 1305 2825 
Q 1016 2553 972 2059 
L 3022 2063 
z
" transform="scale(0.015625)"/>
       <path id="DejaVuSans-6d" d="M 3328 2828 
Q 3544 3216 3844 3400 
Q 4144 3584 4550 3584 
Q 5097 3584 5394 3201 
Q 5691 2819 5691 2113 
L 5691 0 
L 5113 0 
L 5113 2094 
Q 5113 2597 4934 2840 
Q 4756 3084 4391 3084 
Q 3944 3084 3684 2787 
Q 3425 2491 3425 1978 
L 3425 0 
L 2847 0 
L 2847 2094 
Q 2847 2600 2669 2842 
Q 2491 3084 2119 3084 
Q 1678 3084 1418 2786 
Q 1159 2488 1159 1978 
L 1159 0 
L 581 0 
L 581 3500 
L 1159 3500 
L 1159 2956 
Q 1356 3278 1631 3431 
Q 1906 3584 2284 3584 
Q 2666 3584 2933 3390 
Q 3200 3197 3328 2828 
z
" transform="scale(0.015625)"/>
       <path id="DejaVuSans-53" d="M 3425 4513 
L 3425 3897 
Q 3066 4069 2747 4153 
Q 2428 4238 2131 4238 
Q 1616 4238 1336 4038 
Q 1056 3838 1056 3469 
Q 1056 3159 1242 3001 
Q 1428 2844 1947 2747 
L 2328 2669 
Q 3034 2534 3370 2195 
Q 3706 1856 3706 1288 
Q 3706 609 3251 259 
Q 2797 -91 1919 -91 
Q 1588 -91 1214 -16 
Q 841 59 441 206 
L 441 856 
Q 825 641 1194 531 
Q 1563 422 1919 422 
Q 2459 422 2753 634 
Q 3047 847 3047 1241 
Q 3047 1584 2836 1778 
Q 2625 1972 2144 2069 
L 1759 2144 
Q 1053 2284 737 2584 
Q 422 2884 422 3419 
Q 422 4038 858 4394 
Q 1294 4750 2059 4750 
Q 2388 4750 2728 4690 
Q 3069 4631 3425 4513 
z
" transform="scale(0.015625)"/>
       <path id="DejaVuSans-69" d="M 603 3500 
L 1178 3500 
L 1178 0 
L 603 0 
L 603 3500 
z
M 603 4863 
L 1178 4863 
L 1178 4134 
L 603 4134 
L 603 4863 
z
" transform="scale(0.015625)"/>
       <path id="DejaVuSans-7a" d="M 353 3500 
L 3084 3500 
L 3084 2975 
L 922 459 
L 3084 459 
L 3084 0 
L 275 0 
L 275 525 
L 2438 3041 
L 353 3041 
L 353 3500 
z
" transform="scale(0.015625)"/>
      </defs>
      <use xlink:href="#DejaVuSans-47"/>
      <use xlink:href="#DejaVuSans-6c" x="77.490234"/>
      <use xlink:href="#DejaVuSans-6f" x="105.273438"/>
      <use xlink:href="#DejaVuSans-62" x="166.455078"/>
      <use xlink:href="#DejaVuSans-61" x="229.931641"/>
      <use xlink:href="#DejaVuSans-6c" x="291.210938"/>
      <use xlink:href="#DejaVuSans-20" x="318.994141"/>
      <use xlink:href="#DejaVuSans-50" x="350.78125"/>
      <use xlink:href="#DejaVuSans-72" x="409.333984"/>
      <use xlink:href="#DejaVuSans-6f" x="448.197266"/>
      <use xlink:href="#DejaVuSans-62" x="509.378906"/>
      <use xlink:href="#DejaVuSans-6c" x="572.855469"/>
      <use xlink:href="#DejaVuSans-65" x="600.638672"/>
      <use xlink:href="#DejaVuSans-6d" x="662.162109"/>
      <use xlink:href="#DejaVuSans-20" x="759.574219"/>
      <use xlink:href="#DejaVuSans-53" x="791.361328"/>
      <use xlink:href="#DejaVuSans-69" x="854.837891"/>
      <use xlink:href="#DejaVuSans-7a" x="882.621094"/>
      <use xlink:href="#DejaVuSans-65" x="935.111328"/>
     </g>
    </g>
   </g>
   <g id="matplotlib.axis_2">
    <g id="ytick_1">
     <g id="line2d_77">
      <defs>
       <path id="ma2b1a013ed" d="M 0 0 
L -3.5 0 
" style="stroke: #000000; stroke-width: 0.8"/>
      </defs>
      <g>
       <use xlink:href="#ma2b1a013ed" x="57.6" y="238.674114" style="stroke: #000000; stroke-width: 0.8"/>
      </g>
     </g>
     <g id="text_10">
      <!-- $\mathdefault{10^{-1}}$ -->
      <g transform="translate(27.1 242.473333)scale(0.1 -0.1)">
       <defs>
        <path id="DejaVuSans-2212" d="M 678 2272 
L 4684 2272 
L 4684 1741 
L 678 1741 
L 678 2272 
z
" transform="scale(0.015625)"/>
       </defs>
       <use xlink:href="#DejaVuSans-31" transform="translate(0 0.684375)"/>
       <use xlink:href="#DejaVuSans-30" transform="translate(63.623047 0.684375)"/>
       <use xlink:href="#DejaVuSans-2212" transform="translate(128.203125 38.965625)scale(0.7)"/>
       <use xlink:href="#DejaVuSans-31" transform="translate(186.855469 38.965625)scale(0.7)"/>
      </g>
     </g>
    </g>
    <g id="ytick_2">
     <g id="line2d_78">
      <g>
       <use xlink:href="#ma2b1a013ed" x="57.6" y="142.139214" style="stroke: #000000; stroke-width: 0.8"/>
      </g>
     </g>
     <g id="text_11">
      <!-- $\mathdefault{10^{0}}$ -->
      <g transform="translate(33 145.938433)scale(0.1 -0.1)">
       <use xlink:href="#DejaVuSans-31" transform="translate(0 0.765625)"/>
       <use xlink:href="#DejaVuSans-30" transform="translate(63.623047 0.765625)"/>
       <use xlink:href="#DejaVuSans-30" transform="translate(128.203125 39.046875)scale(0.7)"/>
      </g>
     </g>
    </g>
    <g id="ytick_3">
     <g id="line2d_79">
      <g>
       <use xlink:href="#ma2b1a013ed" x="57.6" y="45.604313" style="stroke: #000000; stroke-width: 0.8"/>
      </g>
     </g>
     <g id="text_12">
      <!-- $\mathdefault{10^{1}}$ -->
      <g transform="translate(33 49.403532)scale(0.1 -0.1)">
       <use xlink:href="#DejaVuSans-31" transform="translate(0 0.684375)"/>
       <use xlink:href="#DejaVuSans-30" transform="translate(63.623047 0.684375)"/>
       <use xlink:href="#DejaVuSans-31" transform="translate(128.203125 38.965625)scale(0.7)"/>
      </g>
     </g>
    </g>
    <g id="ytick_4">
     <g id="line2d_80">
      <defs>
       <path id="mf0f7fa690c" d="M 0 0 
L -2 0 
" style="stroke: #000000; stroke-width: 0.6"/>
      </defs>
      <g>
       <use xlink:href="#mf0f7fa690c" x="57.6" y="306.149114" style="stroke: #000000; stroke-width: 0.6"/>
      </g>
     </g>
    </g>
    <g id="ytick_5">
     <g id="line2d_81">
      <g>
       <use xlink:href="#mf0f7fa690c" x="57.6" y="289.150162" style="stroke: #000000; stroke-width: 0.6"/>
      </g>
     </g>
    </g>
    <g id="ytick_6">
     <g id="line2d_82">
      <g>
       <use xlink:href="#mf0f7fa690c" x="57.6" y="277.089214" style="stroke: #000000; stroke-width: 0.6"/>
      </g>
     </g>
    </g>
    <g id="ytick_7">
     <g id="line2d_83">
      <g>
       <use xlink:href="#mf0f7fa690c" x="57.6" y="267.734015" style="stroke: #000000; stroke-width: 0.6"/>
      </g>
     </g>
    </g>
    <g id="ytick_8">
     <g id="line2d_84">
      <g>
       <use xlink:href="#mf0f7fa690c" x="57.6" y="260.090261" style="stroke: #000000; stroke-width: 0.6"/>
      </g>
     </g>
    </g>
    <g id="ytick_9">
     <g id="line2d_85">
      <g>
       <use xlink:href="#mf0f7fa690c" x="57.6" y="253.62756" style="stroke: #000000; stroke-width: 0.6"/>
      </g>
     </g>
    </g>
    <g id="ytick_10">
     <g id="line2d_86">
      <g>
       <use xlink:href="#mf0f7fa690c" x="57.6" y="248.029313" style="stroke: #000000; stroke-width: 0.6"/>
      </g>
     </g>
    </g>
    <g id="ytick_11">
     <g id="line2d_87">
      <g>
       <use xlink:href="#mf0f7fa690c" x="57.6" y="243.091309" style="stroke: #000000; stroke-width: 0.6"/>
      </g>
     </g>
    </g>
    <g id="ytick_12">
     <g id="line2d_88">
      <g>
       <use xlink:href="#mf0f7fa690c" x="57.6" y="209.614214" style="stroke: #000000; stroke-width: 0.6"/>
      </g>
     </g>
    </g>
    <g id="ytick_13">
     <g id="line2d_89">
      <g>
       <use xlink:href="#mf0f7fa690c" x="57.6" y="192.615262" style="stroke: #000000; stroke-width: 0.6"/>
      </g>
     </g>
    </g>
    <g id="ytick_14">
     <g id="line2d_90">
      <g>
       <use xlink:href="#mf0f7fa690c" x="57.6" y="180.554313" style="stroke: #000000; stroke-width: 0.6"/>
      </g>
     </g>
    </g>
    <g id="ytick_15">
     <g id="line2d_91">
      <g>
       <use xlink:href="#mf0f7fa690c" x="57.6" y="171.199115" style="stroke: #000000; stroke-width: 0.6"/>
      </g>
     </g>
    </g>
    <g id="ytick_16">
     <g id="line2d_92">
      <g>
       <use xlink:href="#mf0f7fa690c" x="57.6" y="163.555361" style="stroke: #000000; stroke-width: 0.6"/>
      </g>
     </g>
    </g>
    <g id="ytick_17">
     <g id="line2d_93">
      <g>
       <use xlink:href="#mf0f7fa690c" x="57.6" y="157.092659" style="stroke: #000000; stroke-width: 0.6"/>
      </g>
     </g>
    </g>
    <g id="ytick_18">
     <g id="line2d_94">
      <g>
       <use xlink:href="#mf0f7fa690c" x="57.6" y="151.494412" style="stroke: #000000; stroke-width: 0.6"/>
      </g>
     </g>
    </g>
    <g id="ytick_19">
     <g id="line2d_95">
      <g>
       <use xlink:href="#mf0f7fa690c" x="57.6" y="146.556409" style="stroke: #000000; stroke-width: 0.6"/>
      </g>
     </g>
    </g>
    <g id="ytick_20">
     <g id="line2d_96">
      <g>
       <use xlink:href="#mf0f7fa690c" x="57.6" y="113.079313" style="stroke: #000000; stroke-width: 0.6"/>
      </g>
     </g>
    </g>
    <g id="ytick_21">
     <g id="line2d_97">
      <g>
       <use xlink:href="#mf0f7fa690c" x="57.6" y="96.080361" style="stroke: #000000; stroke-width: 0.6"/>
      </g>
     </g>
    </g>
    <g id="ytick_22">
     <g id="line2d_98">
      <g>
       <use xlink:href="#mf0f7fa690c" x="57.6" y="84.019413" style="stroke: #000000; stroke-width: 0.6"/>
      </g>
     </g>
    </g>
    <g id="ytick_23">
     <g id="line2d_99">
      <g>
       <use xlink:href="#mf0f7fa690c" x="57.6" y="74.664214" style="stroke: #000000; stroke-width: 0.6"/>
      </g>
     </g>
    </g>
    <g id="ytick_24">
     <g id="line2d_100">
      <g>
       <use xlink:href="#mf0f7fa690c" x="57.6" y="67.02046" style="stroke: #000000; stroke-width: 0.6"/>
      </g>
     </g>
    </g>
    <g id="ytick_25">
     <g id="line2d_101">
      <g>
       <use xlink:href="#mf0f7fa690c" x="57.6" y="60.557759" style="stroke: #000000; stroke-width: 0.6"/>
      </g>
     </g>
    </g>
    <g id="ytick_26">
     <g id="line2d_102">
      <g>
       <use xlink:href="#mf0f7fa690c" x="57.6" y="54.959512" style="stroke: #000000; stroke-width: 0.6"/>
      </g>
     </g>
    </g>
    <g id="ytick_27">
     <g id="line2d_103">
      <g>
       <use xlink:href="#mf0f7fa690c" x="57.6" y="50.021508" style="stroke: #000000; stroke-width: 0.6"/>
      </g>
     </g>
    </g>
    <g id="text_13">
     <!-- GFLOPS -->
     <g transform="translate(21.020312 194.007688)rotate(-90)scale(0.1 -0.1)">
      <defs>
       <path id="DejaVuSans-46" d="M 628 4666 
L 3309 4666 
L 3309 4134 
L 1259 4134 
L 1259 2759 
L 3109 2759 
L 3109 2228 
L 1259 2228 
L 1259 0 
L 628 0 
L 628 4666 
z
" transform="scale(0.015625)"/>
       <path id="DejaVuSans-4c" d="M 628 4666 
L 1259 4666 
L 1259 531 
L 3531 531 
L 3531 0 
L 628 0 
L 628 4666 
z
" transform="scale(0.015625)"/>
       <path id="DejaVuSans-4f" d="M 2522 4238 
Q 1834 4238 1429 3725 
Q 1025 3213 1025 2328 
Q 1025 1447 1429 934 
Q 1834 422 2522 422 
Q 3209 422 3611 934 
Q 4013 1447 4013 2328 
Q 4013 3213 3611 3725 
Q 3209 4238 2522 4238 
z
M 2522 4750 
Q 3503 4750 4090 4092 
Q 4678 3434 4678 2328 
Q 4678 1225 4090 567 
Q 3503 -91 2522 -91 
Q 1538 -91 948 565 
Q 359 1222 359 2328 
Q 359 3434 948 4092 
Q 1538 4750 2522 4750 
z
" transform="scale(0.015625)"/>
      </defs>
      <use xlink:href="#DejaVuSans-47"/>
      <use xlink:href="#DejaVuSans-46" x="77.490234"/>
      <use xlink:href="#DejaVuSans-4c" x="135.009766"/>
      <use xlink:href="#DejaVuSans-4f" x="187.097656"/>
      <use xlink:href="#DejaVuSans-50" x="265.808594"/>
      <use xlink:href="#DejaVuSans-53" x="326.111328"/>
     </g>
    </g>
   </g>
   <g id="line2d_104">
    <path d="M 73.832727 109.175333 
L 86.492857 108.65845 
L 93.898558 108.625765 
L 99.152987 108.176479 
L 103.228638 107.043352 
L 106.558688 108.345612 
L 109.374205 107.032705 
L 111.813116 105.740151 
L 113.964389 108.668733 
L 115.888768 107.272398 
L 119.218818 108.222592 
L 122.034334 107.179801 
L 123.294469 109.471105 
L 124.473246 104.179206 
L 126.624519 110.494499 
L 128.548898 108.782689 
L 129.440036 110.709815 
L 131.878947 108.7542 
L 132.624549 112.858395 
L 134.03022 110.013871 
L 134.694464 113.562306 
L 135.954599 112.646907 
L 137.133376 104.331011 
L 138.770116 121.724242 
L 139.284648 111.267198 
L 141.209027 108.479473 
L 142.100165 116.865453 
L 142.94984 110.330956 
L 143.3603 118.784712 
L 144.539077 107.559135 
L 144.915682 125.493681 
L 145.284679 111.589682 
L 146.690349 115.367945 
L 147.354594 114.837425 
L 148.614728 119.004881 
L 149.505866 114.659563 
L 149.793505 99.063213 
L 150.355541 120.50852 
L 151.430245 117.376535 
L 151.944778 117.541379 
L 152.69038 125.934817 
L 153.869157 110.010294 
L 154.096051 125.047102 
L 154.760295 122.67987 
L 155.609969 124.696731 
L 156.020429 126.649228 
L 157.199207 104.936801 
L 157.575812 128.416976 
L 157.761242 129.604159 
L 157.944808 125.10981 
L 158.835946 128.57423 
L 159.350479 132.916877 
L 159.685621 126.073375 
L 160.014724 110.5338 
L 161.274858 119.031592 
L 162.02046 137.631771 
L 162.165996 130.740785 
L 162.453635 89.509378 
L 163.015671 132.530369 
L 163.426131 132.165696 
L 164.090375 130.092205 
L 164.604908 116.256914 
L 164.981513 133.789357 
L 165.350509 132.996408 
L 165.831187 128.449044 
L 166.529287 112.545131 
L 166.75618 131.977424 
L 167.091322 132.346235 
L 167.420425 116.659733 
L 168.166026 134.41696 
L 168.270099 132.873696 
L 168.680559 134.370807 
L 169.571697 134.407122 
L 169.859336 93.547838 
L 170.235942 127.823608 
L 170.421372 132.971784 
L 170.604938 123.359041 
L 171.496076 135.973559 
L 172.010609 131.927409 
L 172.345751 135.583597 
L 172.674853 105.429751 
L 172.756211 136.970823 
L 173.236889 133.147983 
L 173.934988 112.895061 
L 174.086563 138.917236 
L 174.161881 132.00962 
L 174.311593 132.173907 
L 174.68059 137.212103 
L 174.826126 134.232775 
L 175.113765 80.515207 
L 175.6758 135.286848 
L 176.08626 136.24376 
L 176.421402 137.458774 
L 176.750505 122.360951 
L 177.265037 105.400145 
L 177.641643 136.072177 
L 177.827073 138.09693 
L 178.010639 137.202679 
L 178.491317 136.96593 
L 178.901777 132.738069 
L 179.189416 95.384735 
L 179.41631 136.927774 
L 179.751452 137.586752 
L 180.080554 107.101754 
L 180.45716 129.90516 
L 180.826156 133.513606 
L 180.930229 116.766761 
L 181.340689 126.350188 
L 181.492264 140.762155 
L 182.231827 136.216838 
L 182.519466 79.354414 
L 182.566969 133.567414 
L 182.896071 118.00137 
L 183.081501 136.124965 
L 183.265068 117.631202 
L 183.491961 133.725473 
L 184.156206 129.590621 
L 184.670739 108.50227 
L 185.00588 136.061262 
L 185.047344 133.010696 
L 185.334983 90.753825 
L 185.41634 137.528302 
L 185.897018 131.963438 
L 186.595117 97.977554 
L 186.746693 140.432083 
L 186.822011 137.085825 
L 186.971723 134.552263 
L 187.157153 136.268568 
L 187.340719 139.632093 
L 187.773895 72.009141 
L 188.712535 139.668667 
L 188.74639 135.23168 
L 189.081532 140.404871 
L 189.410634 113.122425 
L 189.637528 136.633059 
L 189.925167 91.638652 
L 190.487202 131.929563 
L 190.670769 99.601019 
L 190.822344 139.892593 
L 191.151447 131.881705 
L 191.561907 132.554725 
L 191.849546 81.615985 
L 192.07644 116.077396 
L 192.411581 134.405506 
L 192.740684 96.539612 
L 193.302719 132.153799 
L 193.486286 130.435513 
L 193.590358 110.615506 
L 194.000819 106.329098 
L 194.227712 141.979492 
L 195.179596 67.668894 
L 195.227098 130.603848 
L 195.556201 96.869685 
L 195.741631 119.797127 
L 195.925197 103.589205 
L 196.152091 131.217174 
L 196.816335 98.458606 
L 196.967911 129.310211 
L 197.330868 95.902847 
L 197.66601 107.881277 
L 197.892904 134.870568 
L 197.995113 71.857877 
L 198.07647 131.41781 
L 199.255247 81.387712 
L 199.406822 129.426917 
L 199.817282 135.179987 
L 200.000849 100.580867 
L 200.146385 97.829611 
L 200.434024 63.245226 
L 200.99606 99.388921 
L 201.40652 96.68154 
L 201.558095 139.390003 
L 202.070764 98.080344 
L 202.585297 75.694364 
L 202.961902 99.594484 
L 203.811577 98.383451 
L 204.509676 72.646141 
L 204.736569 98.930971 
L 205.071711 100.379712 
L 205.400814 74.281581 
L 206.250488 99.825272 
L 206.660948 99.350972 
L 207.552086 98.908673 
L 207.839725 60.942111 
L 208.216331 100.696782 
L 208.401761 98.465046 
L 208.585327 81.247401 
L 209.476465 100.102229 
L 209.990998 92.965398 
L 210.32614 99.02747 
L 210.655242 66.790477 
L 210.7366 99.020499 
L 211.217278 98.614999 
L 211.915377 72.525649 
L 212.066952 99.959574 
L 212.142271 98.682936 
L 212.291982 101.253802 
L 212.806515 99.755421 
L 213.094154 62.33692 
L 213.656189 99.854143 
L 214.066649 99.350361 
L 214.401791 99.796707 
L 214.730894 81.278317 
L 215.245427 66.546119 
L 215.622032 100.817817 
L 215.807462 98.631617 
L 215.991028 99.515414 
L 216.471706 100.477608 
L 216.882166 100.690698 
L 217.169805 65.884187 
L 217.396699 99.889117 
L 217.731841 99.69442 
L 218.060943 65.75011 
L 218.437549 99.527216 
L 218.806545 100.436538 
L 218.910618 76.841681 
L 219.321078 85.021783 
L 219.472653 97.827777 
L 220.212216 99.559925 
L 220.499855 61.333989 
L 220.547358 100.91903 
L 220.87646 79.874227 
L 221.06189 101.504033 
L 221.245457 76.009018 
L 221.472351 100.871885 
L 222.136595 100.319947 
L 222.651128 69.213461 
L 222.986269 101.561675 
L 223.027733 99.039991 
L 223.315372 65.949973 
L 223.396729 98.602641 
L 223.877407 100.998036 
L 224.575507 64.108833 
L 224.727082 101.228408 
L 224.8024 97.72635 
L 224.952112 99.610215 
L 225.137542 99.448949 
L 225.321108 99.841702 
L 225.466645 79.956506 
L 225.754284 72.229103 
L 226.316319 72.633973 
L 226.692924 99.269699 
L 226.726779 99.017451 
L 227.061921 100.837041 
L 227.391023 71.674732 
L 227.617917 99.321982 
L 227.905556 69.005276 
L 228.467592 101.024916 
L 228.651158 69.257072 
L 228.802733 99.502492 
L 229.131836 100.589425 
L 229.542296 100.917814 
L 229.829935 69.863328 
L 230.39197 100.833988 
L 230.721073 63.004128 
L 231.283108 100.473107 
L 231.466675 101.423843 
L 231.570748 73.558074 
L 231.981208 69.954102 
L 232.208101 101.410352 
L 233.159985 68.012401 
L 233.207487 100.548751 
L 233.53659 71.679808 
L 233.72202 82.951742 
L 233.905587 67.429476 
L 234.13248 100.221454 
L 234.796725 64.528888 
L 234.9483 98.702123 
L 235.311257 64.540812 
L 235.646399 72.157448 
L 235.873293 99.58719 
L 235.975502 64.936321 
L 236.056859 99.035042 
L 237.235636 66.835386 
L 237.387211 99.083655 
L 237.797672 99.824508 
L 237.981238 69.305062 
L 238.126774 65.038137 
L 238.414413 98.616343 
L 238.976449 66.872074 
L 239.386909 68.50092 
L 239.538484 99.156079 
L 240.051153 66.968367 
L 240.565686 68.027696 
L 240.942291 65.970102 
L 241.311288 67.953649 
L 241.791966 64.823766 
L 242.490065 69.383027 
L 242.716959 68.791719 
L 243.0521 69.546488 
L 243.381203 67.540331 
L 244.126805 69.971018 
L 244.230877 67.781942 
L 244.641337 68.275856 
L 245.532475 68.432324 
L 245.820115 88.380049 
L 246.19672 69.953179 
L 246.38215 68.156225 
L 246.565716 69.572922 
L 247.456854 68.169115 
L 247.971387 69.423462 
L 248.306529 69.246897 
L 248.635631 70.154493 
L 248.716989 69.818023 
L 249.197667 69.227681 
L 249.895766 69.279982 
L 250.047341 67.589447 
L 250.12266 70.101667 
L 250.272371 69.214696 
L 250.641368 71.100166 
L 250.786904 68.397283 
L 251.074543 149.869078 
L 251.636578 69.034546 
L 252.047039 69.312762 
L 252.38218 71.313734 
L 252.711283 69.846791 
L 253.225816 68.348067 
L 253.602421 67.934955 
L 253.787851 70.274388 
L 253.971417 69.745474 
L 254.862555 70.103059 
L 255.150195 98.601702 
L 255.377088 69.408197 
L 255.71223 69.922866 
L 256.041333 68.32339 
L 256.786934 69.083548 
L 256.891007 69.501798 
L 257.301467 69.894208 
L 257.453042 68.785072 
L 258.192605 68.916605 
L 258.480244 158.483008 
L 258.527747 70.987297 
L 259.225846 69.608441 
L 259.45274 70.749941 
L 260.116984 68.738748 
L 260.631517 69.243163 
L 260.966658 70.414018 
L 261.295761 250.355773 
L 261.377119 69.681813 
L 261.857796 68.769625 
L 262.555896 69.008235 
L 262.707471 69.369972 
L 262.782789 70.655952 
L 263.301497 70.885419 
L 263.734673 269.934301 
L 264.296708 68.804791 
L 264.707168 69.618835 
L 265.04231 70.902318 
L 265.885945 269.757149 
L 266.447981 69.053282 
L 266.631547 69.111522 
L 266.783122 70.783253 
L 267.810324 263.802854 
L 268.37236 69.259486 
L 270.113172 69.243126 
L 271.140374 262.103552 
L 273.955891 251.609983 
L 275.216025 247.98268 
L 276.394803 259.624342 
L 278.546075 250.929131 
L 280.470454 243.684406 
L 281.361592 231.54985 
L 283.800504 244.436978 
L 284.546105 227.302913 
L 285.951776 252.942215 
L 286.616021 230.406277 
L 287.876155 233.230646 
L 289.054932 248.012868 
L 290.691672 211.742548 
L 291.206205 236.251759 
L 293.130584 227.187927 
L 294.021722 221.066616 
L 294.871396 234.091832 
L 295.281856 231.700779 
L 296.460633 235.650662 
L 296.837239 202.297169 
L 297.206235 224.978933 
L 298.611906 221.986088 
L 299.27615 218.403685 
L 300.536285 218.710952 
L 301.427423 215.31248 
L 301.715062 237.891038 
L 302.277097 215.73691 
L 303.351802 212.888384 
L 303.866334 218.644743 
L 304.611936 207.825029 
L 305.790713 215.809773 
L 306.017607 206.54848 
L 306.681851 204.998401 
L 307.531526 203.400308 
L 307.941986 201.654637 
L 309.120763 227.237972 
L 309.497368 201.242096 
L 309.866365 198.496809 
L 311.272036 200.049057 
L 311.607177 198.120605 
L 311.93628 215.11722 
L 314.087553 191.375682 
L 314.375192 228.223398 
L 314.937227 190.653132 
L 315.347687 188.348847 
L 316.011931 187.921357 
L 316.526464 207.779346 
L 316.903069 183.328092 
L 317.272066 184.794982 
L 317.752744 183.054578 
L 318.450843 198.633252 
L 318.677737 183.090287 
L 319.012878 182.139628 
L 319.341981 200.171966 
L 320.191656 177.109698 
L 320.602116 178.242013 
L 321.493254 175.920384 
L 321.780893 223.5472 
L 322.157498 173.809363 
L 322.526495 179.149348 
L 323.417633 174.094119 
L 323.932165 182.286002 
L 324.267307 174.185226 
L 324.59641 206.692412 
L 324.677767 173.1822 
L 325.158445 173.923875 
L 325.856544 195.698309 
L 326.008119 169.066256 
L 326.083438 170.01486 
L 326.233149 171.902609 
L 326.602146 171.076372 
L 326.747682 171.119282 
L 327.035321 228.237398 
L 327.597357 169.922871 
L 328.007817 171.288873 
L 328.342958 167.084835 
L 328.672061 180.013903 
L 329.186594 211.997803 
L 329.748629 164.068218 
L 329.932196 165.834097 
L 330.412874 163.841351 
L 330.823334 164.610493 
L 331.110973 204.833519 
L 331.337866 164.137382 
L 331.673008 167.252344 
L 332.002111 221.825568 
L 332.747713 159.78755 
L 332.851785 183.371507 
L 333.262245 181.293449 
L 333.413821 175.389784 
L 334.441022 224.71797 
L 334.488525 157.332735 
L 334.817628 203.003421 
L 335.003058 159.451483 
L 335.186624 178.328619 
L 336.592295 222.263986 
L 336.927437 154.538176 
L 337.256539 212.31892 
L 338.516674 218.662081 
L 338.668249 154.264216 
L 339.407812 216.686135 
L 339.695451 223.441261 
L 340.257486 214.705969 
L 341.332191 210.792667 
L 341.846724 211.052664 
L 342.592325 206.606583 
L 343.771102 207.085547 
L 343.997996 205.539365 
L 344.66224 204.198702 
L 345.511915 203.122175 
L 345.922375 201.770051 
L 347.101152 207.6344 
L 347.477757 197.705991 
L 347.663187 197.601191 
L 347.846754 199.166673 
L 348.737892 198.079086 
L 349.587566 196.807986 
L 349.916669 211.843622 
L 351.176804 198.974789 
L 352.067942 193.07987 
L 352.355581 212.65066 
L 352.917616 190.165059 
L 353.992321 189.302699 
L 354.506853 200.192097 
L 354.883459 186.214774 
L 355.252455 183.911292 
L 355.733133 182.000096 
L 356.431232 191.346499 
L 356.658126 182.217492 
L 356.993267 181.520026 
L 357.32237 186.206827 
L 358.172045 178.347508 
L 358.582505 178.862963 
L 359.473643 175.697862 
L 359.761282 205.259978 
L 360.323317 173.452804 
L 360.506884 173.404897 
L 361.398022 173.818779 
L 361.912554 173.584321 
L 362.247696 174.236141 
L 362.576799 216.341893 
L 363.138834 170.706265 
L 363.836933 187.259701 
L 363.988509 170.332661 
L 364.063827 171.499783 
L 365.01571 215.39501 
L 365.577746 169.093094 
L 365.988206 168.784306 
L 366.65245 194.652301 
L 367.166983 222.433434 
L 367.729018 164.804302 
L 367.912585 163.599405 
L 369.091362 196.519776 
L 369.653397 162.231407 
L 369.9825 216.407533 
L 370.832174 214.656766 
L 371.242634 212.744708 
L 371.39421 159.218466 
L 372.421412 201.485898 
L 372.798017 180.73603 
L 374.572684 205.592149 
L 376.497063 201.17888 
L 377.388201 197.303199 
L 377.67584 198.350606 
L 378.237875 197.427941 
L 379.31258 194.015179 
L 379.827113 193.864311 
L 381.751492 189.037827 
L 383.902764 184.274973 
L 385.081541 181.571056 
L 385.458147 181.682992 
L 385.827143 181.47586 
L 386.718281 178.585088 
L 387.232814 179.712127 
L 387.897058 178.53262 
L 389.157193 175.460454 
L 390.048331 173.739238 
L 390.33597 172.684168 
L 390.898005 171.728116 
L 391.308465 169.855153 
L 391.97271 169.533121 
L 393.232844 166.025877 
L 393.713522 164.188142 
L 394.411621 164.170412 
L 395.302759 160.554299 
L 396.152434 159.404055 
L 396.562894 158.2873 
L 397.454032 156.496912 
L 398.487273 154.009588 
L 398.487273 154.009588 
" clip-path="url(#p6bc3c08dd8)" style="fill: none; stroke: #1f77b4; stroke-width: 1.5; stroke-linecap: square"/>
   </g>
   <g id="line2d_105"/>
   <g id="patch_3">
    <path d="M 57.6 307.584 
L 57.6 41.472 
" style="fill: none; stroke: #000000; stroke-width: 0.8; stroke-linejoin: miter; stroke-linecap: square"/>
   </g>
   <g id="patch_4">
    <path d="M 414.72 307.584 
L 414.72 41.472 
" style="fill: none; stroke: #000000; stroke-width: 0.8; stroke-linejoin: miter; stroke-linecap: square"/>
   </g>
   <g id="patch_5">
    <path d="M 57.6 307.584 
L 414.72 307.584 
" style="fill: none; stroke: #000000; stroke-width: 0.8; stroke-linejoin: miter; stroke-linecap: square"/>
   </g>
   <g id="patch_6">
    <path d="M 57.6 41.472 
L 414.72 41.472 
" style="fill: none; stroke: #000000; stroke-width: 0.8; stroke-linejoin: miter; stroke-linecap: square"/>
   </g>
   <g id="text_14">
    <!-- Gustafson-like Scaling -->
    <g transform="translate(169.757812 35.472)scale(0.12 -0.12)">
     <defs>
      <path id="DejaVuSans-75" d="M 544 1381 
L 544 3500 
L 1119 3500 
L 1119 1403 
Q 1119 906 1312 657 
Q 1506 409 1894 409 
Q 2359 409 2629 706 
Q 2900 1003 2900 1516 
L 2900 3500 
L 3475 3500 
L 3475 0 
L 2900 0 
L 2900 538 
Q 2691 219 2414 64 
Q 2138 -91 1772 -91 
Q 1169 -91 856 284 
Q 544 659 544 1381 
z
M 1991 3584 
L 1991 3584 
z
" transform="scale(0.015625)"/>
      <path id="DejaVuSans-73" d="M 2834 3397 
L 2834 2853 
Q 2591 2978 2328 3040 
Q 2066 3103 1784 3103 
Q 1356 3103 1142 2972 
Q 928 2841 928 2578 
Q 928 2378 1081 2264 
Q 1234 2150 1697 2047 
L 1894 2003 
Q 2506 1872 2764 1633 
Q 3022 1394 3022 966 
Q 3022 478 2636 193 
Q 2250 -91 1575 -91 
Q 1294 -91 989 -36 
Q 684 19 347 128 
L 347 722 
Q 666 556 975 473 
Q 1284 391 1588 391 
Q 1994 391 2212 530 
Q 2431 669 2431 922 
Q 2431 1156 2273 1281 
Q 2116 1406 1581 1522 
L 1381 1569 
Q 847 1681 609 1914 
Q 372 2147 372 2553 
Q 372 3047 722 3315 
Q 1072 3584 1716 3584 
Q 2034 3584 2315 3537 
Q 2597 3491 2834 3397 
z
" transform="scale(0.015625)"/>
      <path id="DejaVuSans-74" d="M 1172 4494 
L 1172 3500 
L 2356 3500 
L 2356 3053 
L 1172 3053 
L 1172 1153 
Q 1172 725 1289 603 
Q 1406 481 1766 481 
L 2356 481 
L 2356 0 
L 1766 0 
Q 1100 0 847 248 
Q 594 497 594 1153 
L 594 3053 
L 172 3053 
L 172 3500 
L 594 3500 
L 594 4494 
L 1172 4494 
z
" transform="scale(0.015625)"/>
      <path id="DejaVuSans-66" d="M 2375 4863 
L 2375 4384 
L 1825 4384 
Q 1516 4384 1395 4259 
Q 1275 4134 1275 3809 
L 1275 3500 
L 2222 3500 
L 2222 3053 
L 1275 3053 
L 1275 0 
L 697 0 
L 697 3053 
L 147 3053 
L 147 3500 
L 697 3500 
L 697 3744 
Q 697 4328 969 4595 
Q 1241 4863 1831 4863 
L 2375 4863 
z
" transform="scale(0.015625)"/>
      <path id="DejaVuSans-6e" d="M 3513 2113 
L 3513 0 
L 2938 0 
L 2938 2094 
Q 2938 2591 2744 2837 
Q 2550 3084 2163 3084 
Q 1697 3084 1428 2787 
Q 1159 2491 1159 1978 
L 1159 0 
L 581 0 
L 581 3500 
L 1159 3500 
L 1159 2956 
Q 1366 3272 1645 3428 
Q 1925 3584 2291 3584 
Q 2894 3584 3203 3211 
Q 3513 2838 3513 2113 
z
" transform="scale(0.015625)"/>
      <path id="DejaVuSans-2d" d="M 313 2009 
L 1997 2009 
L 1997 1497 
L 313 1497 
L 313 2009 
z
" transform="scale(0.015625)"/>
      <path id="DejaVuSans-6b" d="M 581 4863 
L 1159 4863 
L 1159 1991 
L 2875 3500 
L 3609 3500 
L 1753 1863 
L 3688 0 
L 2938 0 
L 1159 1709 
L 1159 0 
L 581 0 
L 581 4863 
z
" transform="scale(0.015625)"/>
      <path id="DejaVuSans-63" d="M 3122 3366 
L 3122 2828 
Q 2878 2963 2633 3030 
Q 2388 3097 2138 3097 
Q 1578 3097 1268 2742 
Q 959 2388 959 1747 
Q 959 1106 1268 751 
Q 1578 397 2138 397 
Q 2388 397 2633 464 
Q 2878 531 3122 666 
L 3122 134 
Q 2881 22 2623 -34 
Q 2366 -91 2075 -91 
Q 1284 -91 818 406 
Q 353 903 353 1747 
Q 353 2603 823 3093 
Q 1294 3584 2113 3584 
Q 2378 3584 2631 3529 
Q 2884 3475 3122 3366 
z
" transform="scale(0.015625)"/>
      <path id="DejaVuSans-67" d="M 2906 1791 
Q 2906 2416 2648 2759 
Q 2391 3103 1925 3103 
Q 1463 3103 1205 2759 
Q 947 2416 947 1791 
Q 947 1169 1205 825 
Q 1463 481 1925 481 
Q 2391 481 2648 825 
Q 2906 1169 2906 1791 
z
M 3481 434 
Q 3481 -459 3084 -895 
Q 2688 -1331 1869 -1331 
Q 1566 -1331 1297 -1286 
Q 1028 -1241 775 -1147 
L 775 -588 
Q 1028 -725 1275 -790 
Q 1522 -856 1778 -856 
Q 2344 -856 2625 -561 
Q 2906 -266 2906 331 
L 2906 616 
Q 2728 306 2450 153 
Q 2172 0 1784 0 
Q 1141 0 747 490 
Q 353 981 353 1791 
Q 353 2603 747 3093 
Q 1141 3584 1784 3584 
Q 2172 3584 2450 3431 
Q 2728 3278 2906 2969 
L 2906 3500 
L 3481 3500 
L 3481 434 
z
" transform="scale(0.015625)"/>
     </defs>
     <use xlink:href="#DejaVuSans-47"/>
     <use xlink:href="#DejaVuSans-75" x="77.490234"/>
     <use xlink:href="#DejaVuSans-73" x="140.869141"/>
     <use xlink:href="#DejaVuSans-74" x="192.96875"/>
     <use xlink:href="#DejaVuSans-61" x="232.177734"/>
     <use xlink:href="#DejaVuSans-66" x="293.457031"/>
     <use xlink:href="#DejaVuSans-73" x="328.662109"/>
     <use xlink:href="#DejaVuSans-6f" x="380.761719"/>
     <use xlink:href="#DejaVuSans-6e" x="441.943359"/>
     <use xlink:href="#DejaVuSans-2d" x="505.322266"/>
     <use xlink:href="#DejaVuSans-6c" x="541.40625"/>
     <use xlink:href="#DejaVuSans-69" x="569.189453"/>
     <use xlink:href="#DejaVuSans-6b" x="596.972656"/>
     <use xlink:href="#DejaVuSans-65" x="651.257812"/>
     <use xlink:href="#DejaVuSans-20" x="712.78125"/>
     <use xlink:href="#DejaVuSans-53" x="744.568359"/>
     <use xlink:href="#DejaVuSans-63" x="808.044922"/>
     <use xlink:href="#DejaVuSans-61" x="863.025391"/>
     <use xlink:href="#DejaVuSans-6c" x="924.304688"/>
     <use xlink:href="#DejaVuSans-69" x="952.087891"/>
     <use xlink:href="#DejaVuSans-6e" x="979.871094"/>
     <use xlink:href="#DejaVuSans-67" x="1043.25"/>
    </g>
   </g>
   <g id="legend_1">
    <g id="patch_7">
     <path d="M 339.12 78.82825 
L 407.72 78.82825 
Q 409.72 78.82825 409.72 76.82825 
L 409.72 48.472 
Q 409.72 46.472 407.72 46.472 
L 339.12 46.472 
Q 337.12 46.472 337.12 48.472 
L 337.12 76.82825 
Q 337.12 78.82825 339.12 78.82825 
z
" style="fill: #ffffff; opacity: 0.8; stroke: #cccccc; stroke-linejoin: miter"/>
    </g>
    <g id="text_15">
     <!-- Cluster -->
     <g transform="translate(355.673906 58.070437)scale(0.1 -0.1)">
      <defs>
       <path id="DejaVuSans-43" d="M 4122 4306 
L 4122 3641 
Q 3803 3938 3442 4084 
Q 3081 4231 2675 4231 
Q 1875 4231 1450 3742 
Q 1025 3253 1025 2328 
Q 1025 1406 1450 917 
Q 1875 428 2675 428 
Q 3081 428 3442 575 
Q 3803 722 4122 1019 
L 4122 359 
Q 3791 134 3420 21 
Q 3050 -91 2638 -91 
Q 1578 -91 968 557 
Q 359 1206 359 2328 
Q 359 3453 968 4101 
Q 1578 4750 2638 4750 
Q 3056 4750 3426 4639 
Q 3797 4528 4122 4306 
z
" transform="scale(0.015625)"/>
      </defs>
      <use xlink:href="#DejaVuSans-43"/>
      <use xlink:href="#DejaVuSans-6c" x="69.824219"/>
      <use xlink:href="#DejaVuSans-75" x="97.607422"/>
      <use xlink:href="#DejaVuSans-73" x="160.986328"/>
      <use xlink:href="#DejaVuSans-74" x="213.085938"/>
      <use xlink:href="#DejaVuSans-65" x="252.294922"/>
      <use xlink:href="#DejaVuSans-72" x="313.818359"/>
     </g>
    </g>
    <g id="line2d_106">
     <path d="M 341.12 69.248562 
L 351.12 69.248562 
L 361.12 69.248562 
" style="fill: none; stroke: #1f77b4; stroke-width: 1.5; stroke-linecap: square"/>
    </g>
    <g id="text_16">
     <!-- Hopper -->
     <g transform="translate(369.12 72.748562)scale(0.1 -0.1)">
      <defs>
       <path id="DejaVuSans-48" d="M 628 4666 
L 1259 4666 
L 1259 2753 
L 3553 2753 
L 3553 4666 
L 4184 4666 
L 4184 0 
L 3553 0 
L 3553 2222 
L 1259 2222 
L 1259 0 
L 628 0 
L 628 4666 
z
" transform="scale(0.015625)"/>
       <path id="DejaVuSans-70" d="M 1159 525 
L 1159 -1331 
L 581 -1331 
L 581 3500 
L 1159 3500 
L 1159 2969 
Q 1341 3281 1617 3432 
Q 1894 3584 2278 3584 
Q 2916 3584 3314 3078 
Q 3713 2572 3713 1747 
Q 3713 922 3314 415 
Q 2916 -91 2278 -91 
Q 1894 -91 1617 61 
Q 1341 213 1159 525 
z
M 3116 1747 
Q 3116 2381 2855 2742 
Q 2594 3103 2138 3103 
Q 1681 3103 1420 2742 
Q 1159 2381 1159 1747 
Q 1159 1113 1420 752 
Q 1681 391 2138 391 
Q 2594 391 2855 752 
Q 3116 1113 3116 1747 
z
" transform="scale(0.015625)"/>
      </defs>
      <use xlink:href="#DejaVuSans-48"/>
      <use xlink:href="#DejaVuSans-6f" x="75.195312"/>
      <use xlink:href="#DejaVuSans-70" x="136.376953"/>
      <use xlink:href="#DejaVuSans-70" x="199.853516"/>
      <use xlink:href="#DejaVuSans-65" x="263.330078"/>
      <use xlink:href="#DejaVuSans-72" x="324.853516"/>
     </g>
    </g>
   </g>
  </g>
 </g>
 <defs>
  <clipPath id="p6bc3c08dd8">
   <rect x="57.6" y="41.472" width="357.12" height="266.112"/>
  </clipPath>
 </defs>
</svg>
