<?xml version="1.0" encoding="utf-8" standalone="no"?>
<!DOCTYPE svg PUBLIC "-//W3C//DTD SVG 1.1//EN"
  "http://www.w3.org/Graphics/SVG/1.1/DTD/svg11.dtd">
<svg xmlns:xlink="http://www.w3.org/1999/xlink" width="460.8pt" height="345.6pt" viewBox="0 0 460.8 345.6" xmlns="http://www.w3.org/2000/svg" version="1.1">
 <metadata>
  <rdf:RDF xmlns:dc="http://purl.org/dc/elements/1.1/" xmlns:cc="http://creativecommons.org/ns#" xmlns:rdf="http://www.w3.org/1999/02/22-rdf-syntax-ns#">
   <cc:Work>
    <dc:type rdf:resource="http://purl.org/dc/dcmitype/StillImage"/>
    <dc:date>2024-05-04T11:09:52.123675</dc:date>
    <dc:format>image/svg+xml</dc:format>
    <dc:creator>
     <cc:Agent>
      <dc:title>Matplotlib v3.5.3, https://matplotlib.org/</dc:title>
     </cc:Agent>
    </dc:creator>
   </cc:Work>
  </rdf:RDF>
 </metadata>
 <defs>
  <style type="text/css">*{stroke-linejoin: round; stroke-linecap: butt}</style>
 </defs>
 <g id="figure_1">
  <g id="patch_1">
   <path d="M 0 345.6 
L 460.8 345.6 
L 460.8 0 
L 0 0 
z
" style="fill: #ffffff"/>
  </g>
  <g id="axes_1">
   <g id="patch_2">
    <path d="M 57.6 307.584 
L 414.72 307.584 
L 414.72 41.472 
L 57.6 41.472 
z
" style="fill: #ffffff"/>
   </g>
   <g id="PolyCollection_1">
    <defs>
     <path id="mcb7a6cddd0" d="M 73.832727 -278.533425 
L 73.832727 -98.140393 
L 74.131123 -138.659806 
L 74.429519 -130.586447 
L 74.727914 -143.597573 
L 75.02631 -171.948593 
L 75.324706 -170.117569 
L 75.623102 -178.840169 
L 75.921497 -159.519617 
L 76.219893 -149.328986 
L 76.518289 -175.061338 
L 77.11508 -183.125415 
L 77.711872 -182.567196 
L 78.010267 -165.225705 
L 78.308663 -175.692553 
L 78.905455 -186.113232 
L 79.502246 -180.669854 
L 79.800642 -185.180079 
L 80.695829 -184.140246 
L 80.994225 -164.605201 
L 81.591016 -115.731338 
L 81.889412 -178.774154 
L 82.486203 -185.968742 
L 83.082995 -171.106044 
L 83.978182 -153.962845 
L 84.276578 -179.8513 
L 85.47016 -174.334759 
L 86.066952 -178.17336 
L 86.663743 -148.590215 
L 86.962139 -145.552377 
L 87.857326 -173.237622 
L 88.155722 -129.910671 
L 88.454118 -160.036897 
L 89.647701 -168.816134 
L 90.244492 -154.592443 
L 91.438075 -173.708214 
L 92.333262 -154.990362 
L 92.631658 -153.64749 
L 93.228449 -143.064557 
L 94.422032 -163.702014 
L 95.018824 -156.384718 
L 95.914011 -125.119144 
L 97.405989 -151.028289 
L 97.704385 -118.044776 
L 98.599572 -157.024567 
L 99.793155 -124.427005 
L 100.389947 -143.545972 
L 102.180321 -135.079786 
L 102.777112 -118.594547 
L 103.075508 -115.106442 
L 103.373904 -134.23144 
L 104.865882 -134.273612 
L 105.76107 -137.902566 
L 106.357861 -122.028902 
L 106.954652 -132.223017 
L 109.341818 -131.237737 
L 110.833797 -54.128897 
L 111.132193 -128.044299 
L 111.728984 -109.489226 
L 112.922567 -115.845237 
L 113.817754 -109.406434 
L 115.309733 -119.623831 
L 116.503316 -115.64565 
L 117.398503 -108.85907 
L 118.29369 -115.336077 
L 119.487273 -104.242066 
L 121.277647 -105.13862 
L 121.874439 -109.16347 
L 122.769626 -103.390918 
L 123.664813 -118.643283 
L 125.753583 -101.216576 
L 126.051979 -98.312626 
L 127.245561 -117.549909 
L 129.931123 -98.920179 
L 130.82631 -101.188583 
L 132.019893 -101.859599 
L 132.616684 -101.047317 
L 133.213476 -105.852736 
L 136.197433 -110.482583 
L 137.987807 -105.785337 
L 139.18139 -96.657316 
L 140.374973 -106.3908 
L 140.673369 -92.60161 
L 142.463743 -89.181624 
L 145.149305 -108.40213 
L 145.746096 -58.47846 
L 146.044492 -80.167185 
L 146.641283 -91.596025 
L 148.133262 -85.228043 
L 148.730053 -105.738599 
L 149.923636 -84.272763 
L 152.310802 -93.391863 
L 154.101176 -101.876251 
L 155.593155 -87.451023 
L 157.085134 -101.747456 
L 159.472299 -96.681773 
L 161.262674 -85.234506 
L 162.157861 -87.962155 
L 163.053048 -100.373125 
L 165.440214 -92.341379 
L 167.528984 -101.941419 
L 169.020963 -98.608539 
L 170.214545 -102.092944 
L 172.00492 -99.994422 
L 173.795294 -101.058516 
L 175.884064 -80.851682 
L 177.972834 -92.485394 
L 178.569626 -88.809622 
L 180.956791 -102.127497 
L 181.851979 -57.474221 
L 186.327914 -98.573949 
L 188.118289 -83.238535 
L 188.416684 -92.071876 
L 190.505455 -87.462248 
L 191.699037 -93.410283 
L 192.89262 -100.953665 
L 194.384599 -87.573998 
L 198.860535 -97.284925 
L 202.441283 -90.467518 
L 204.828449 -93.122204 
L 205.126845 -76.613585 
L 207.215615 -85.212151 
L 207.812406 -92.447911 
L 211.393155 -95.672596 
L 216.764278 -94.653145 
L 217.957861 -56.214688 
L 218.554652 -85.703673 
L 219.748235 -81.550106 
L 221.240214 -94.388854 
L 222.732193 -84.991632 
L 223.925775 -93.074987 
L 226.312941 -60.47637 
L 231.087273 -88.117486 
L 234.369626 -81.134688 
L 234.668021 -88.757575 
L 237.651979 -87.029673 
L 240.635936 -87.028382 
L 242.724706 -70.775233 
L 245.410267 -76.363674 
L 250.78139 -95.300553 
L 252.571765 -88.778285 
L 254.063743 -83.030432 
L 257.346096 -83.061323 
L 261.523636 -82.215946 
L 264.507594 -67.508603 
L 266.894759 -74.850545 
L 270.475508 -95.60123 
L 280.322567 -84.974994 
L 282.411337 -68.69661 
L 283.60492 -73.19958 
L 288.379251 -84.800979 
L 290.169626 -89.599667 
L 291.064813 -57.284525 
L 303.299037 -75.757262 
L 309.863743 -72.378932 
L 312.250909 -69.221858 
L 315.234866 -58.906914 
L 326.275508 -70.17932 
L 336.122567 -71.95614 
L 339.40492 -71.491469 
L 342.090481 -54.559275 
L 362.38139 -51.45151 
L 368.946096 -65.756364 
L 398.487273 -50.112 
L 398.487273 -136.32598 
L 398.487273 -136.32598 
L 368.946096 -121.721641 
L 362.38139 -119.172075 
L 342.090481 -125.250882 
L 339.40492 -124.982435 
L 336.122567 -127.71416 
L 326.275508 -149.617729 
L 315.234866 -98.091281 
L 312.250909 -141.085974 
L 309.863743 -110.687154 
L 303.299037 -132.720234 
L 291.064813 -144.179486 
L 290.169626 -202.425105 
L 288.379251 -123.839625 
L 283.60492 -128.760293 
L 282.411337 -147.31616 
L 280.322567 -125.152267 
L 270.475508 -172.041323 
L 266.894759 -120.952279 
L 264.507594 -118.741679 
L 261.523636 -123.715597 
L 257.346096 -123.040487 
L 254.063743 -188.63099 
L 252.571765 -193.664166 
L 250.78139 -145.979637 
L 245.410267 -119.756189 
L 242.724706 -119.31371 
L 240.635936 -129.393496 
L 237.651979 -162.536402 
L 234.668021 -139.379781 
L 234.369626 -143.183237 
L 231.087273 -139.471855 
L 226.312941 -131.372516 
L 223.925775 -127.471095 
L 222.732193 -191.972299 
L 221.240214 -145.03485 
L 219.748235 -142.839292 
L 218.554652 -143.464221 
L 217.957861 -165.7784 
L 216.764278 -146.902886 
L 211.393155 -146.436997 
L 207.812406 -143.004662 
L 207.215615 -134.540327 
L 205.126845 -123.554853 
L 204.828449 -134.81126 
L 202.441283 -129.197854 
L 198.860535 -146.108691 
L 194.384599 -143.161932 
L 192.89262 -146.508507 
L 191.699037 -139.022981 
L 190.505455 -135.832623 
L 188.416684 -145.002033 
L 188.118289 -139.049068 
L 186.327914 -139.949343 
L 181.851979 -175.11829 
L 180.956791 -132.366194 
L 178.569626 -138.90476 
L 177.972834 -145.438826 
L 175.884064 -170.431345 
L 173.795294 -137.972085 
L 172.00492 -148.038746 
L 170.214545 -143.299934 
L 169.020963 -134.214934 
L 167.528984 -141.376335 
L 165.440214 -146.162327 
L 163.053048 -150.981782 
L 162.157861 -141.434956 
L 161.262674 -138.67045 
L 159.472299 -131.467736 
L 157.085134 -133.359906 
L 155.593155 -170.518903 
L 154.101176 -136.057095 
L 152.310802 -133.714535 
L 149.923636 -143.792882 
L 148.730053 -140.348696 
L 148.133262 -168.443823 
L 146.641283 -151.690344 
L 146.044492 -137.748703 
L 145.746096 -177.648259 
L 145.149305 -138.579716 
L 142.463743 -146.977597 
L 140.673369 -157.410021 
L 140.374973 -145.936434 
L 139.18139 -148.120209 
L 137.987807 -134.847352 
L 136.197433 -146.29241 
L 133.213476 -147.059896 
L 132.616684 -138.130149 
L 132.019893 -159.593222 
L 130.82631 -137.78477 
L 129.931123 -143.794516 
L 127.245561 -144.683244 
L 126.051979 -144.284011 
L 125.753583 -166.267407 
L 123.664813 -153.575496 
L 122.769626 -166.784254 
L 121.874439 -145.107612 
L 121.277647 -138.951926 
L 119.487273 -163.729758 
L 118.29369 -160.194693 
L 117.398503 -177.150603 
L 116.503316 -143.488898 
L 115.309733 -159.379012 
L 113.817754 -161.660475 
L 112.922567 -162.049536 
L 111.728984 -157.137536 
L 111.132193 -167.380036 
L 110.833797 -180.116562 
L 109.341818 -160.367665 
L 106.954652 -173.769403 
L 106.357861 -195.107073 
L 105.76107 -174.290969 
L 104.865882 -191.281316 
L 103.373904 -190.596971 
L 103.075508 -217.927001 
L 102.777112 -200.346893 
L 102.180321 -172.542082 
L 100.389947 -184.008246 
L 99.793155 -194.351891 
L 98.599572 -200.69276 
L 97.704385 -198.354142 
L 97.405989 -190.369231 
L 95.914011 -220.751162 
L 95.018824 -191.200442 
L 94.422032 -224.94423 
L 93.228449 -227.046429 
L 92.631658 -199.522455 
L 92.333262 -251.400265 
L 91.438075 -212.861634 
L 90.244492 -197.194529 
L 89.647701 -226.123297 
L 88.454118 -257.117782 
L 88.155722 -214.130954 
L 87.857326 -207.878085 
L 86.962139 -250.105727 
L 86.663743 -270.209965 
L 86.066952 -223.462523 
L 85.47016 -216.369999 
L 84.276578 -221.9615 
L 83.978182 -221.933089 
L 83.082995 -214.816001 
L 82.486203 -231.532646 
L 81.889412 -236.730039 
L 81.591016 -292.032 
L 80.994225 -260.482611 
L 80.695829 -222.536265 
L 79.800642 -260.970237 
L 79.502246 -238.994257 
L 78.905455 -246.041676 
L 78.308663 -224.006814 
L 78.010267 -239.844748 
L 77.711872 -252.784031 
L 77.11508 -225.701104 
L 76.518289 -243.175641 
L 76.219893 -248.305038 
L 75.921497 -212.787794 
L 75.623102 -287.945817 
L 75.324706 -229.178927 
L 75.02631 -275.200443 
L 74.727914 -215.518107 
L 74.429519 -228.019921 
L 74.131123 -232.714357 
L 73.832727 -278.533425 
z
" style="stroke: #1f77b4; stroke-opacity: 0.2"/>
    </defs>
    <g clip-path="url(#p0beda95afa)">
     <use xlink:href="#mcb7a6cddd0" x="0" y="345.6" style="fill: #1f77b4; fill-opacity: 0.2; stroke: #1f77b4; stroke-opacity: 0.2"/>
    </g>
   </g>
   <g id="matplotlib.axis_1">
    <g id="xtick_1">
     <g id="line2d_1">
      <defs>
       <path id="mdff18c0c0b" d="M 0 0 
L 0 3.5 
" style="stroke: #000000; stroke-width: 0.8"/>
      </defs>
      <g>
       <use xlink:href="#mdff18c0c0b" x="73.534332" y="307.584" style="stroke: #000000; stroke-width: 0.8"/>
      </g>
     </g>
     <g id="text_1">
      <!-- 0 -->
      <g transform="translate(70.353082 322.182437)scale(0.1 -0.1)">
       <defs>
        <path id="DejaVuSans-30" d="M 2034 4250 
Q 1547 4250 1301 3770 
Q 1056 3291 1056 2328 
Q 1056 1369 1301 889 
Q 1547 409 2034 409 
Q 2525 409 2770 889 
Q 3016 1369 3016 2328 
Q 3016 3291 2770 3770 
Q 2525 4250 2034 4250 
z
M 2034 4750 
Q 2819 4750 3233 4129 
Q 3647 3509 3647 2328 
Q 3647 1150 3233 529 
Q 2819 -91 2034 -91 
Q 1250 -91 836 529 
Q 422 1150 422 2328 
Q 422 3509 836 4129 
Q 1250 4750 2034 4750 
z
" transform="scale(0.015625)"/>
       </defs>
       <use xlink:href="#DejaVuSans-30"/>
      </g>
     </g>
    </g>
    <g id="xtick_2">
     <g id="line2d_2">
      <g>
       <use xlink:href="#mdff18c0c0b" x="131.814746" y="307.584" style="stroke: #000000; stroke-width: 0.8"/>
      </g>
     </g>
     <g id="text_2">
      <!-- 100000 -->
      <g transform="translate(112.727246 322.182437)scale(0.1 -0.1)">
       <defs>
        <path id="DejaVuSans-31" d="M 794 531 
L 1825 531 
L 1825 4091 
L 703 3866 
L 703 4441 
L 1819 4666 
L 2450 4666 
L 2450 531 
L 3481 531 
L 3481 0 
L 794 0 
L 794 531 
z
" transform="scale(0.015625)"/>
       </defs>
       <use xlink:href="#DejaVuSans-31"/>
       <use xlink:href="#DejaVuSans-30" x="63.623047"/>
       <use xlink:href="#DejaVuSans-30" x="127.246094"/>
       <use xlink:href="#DejaVuSans-30" x="190.869141"/>
       <use xlink:href="#DejaVuSans-30" x="254.492188"/>
       <use xlink:href="#DejaVuSans-30" x="318.115234"/>
      </g>
     </g>
    </g>
    <g id="xtick_3">
     <g id="line2d_3">
      <g>
       <use xlink:href="#mdff18c0c0b" x="190.09516" y="307.584" style="stroke: #000000; stroke-width: 0.8"/>
      </g>
     </g>
     <g id="text_3">
      <!-- 200000 -->
      <g transform="translate(171.00766 322.182437)scale(0.1 -0.1)">
       <defs>
        <path id="DejaVuSans-32" d="M 1228 531 
L 3431 531 
L 3431 0 
L 469 0 
L 469 531 
Q 828 903 1448 1529 
Q 2069 2156 2228 2338 
Q 2531 2678 2651 2914 
Q 2772 3150 2772 3378 
Q 2772 3750 2511 3984 
Q 2250 4219 1831 4219 
Q 1534 4219 1204 4116 
Q 875 4013 500 3803 
L 500 4441 
Q 881 4594 1212 4672 
Q 1544 4750 1819 4750 
Q 2544 4750 2975 4387 
Q 3406 4025 3406 3419 
Q 3406 3131 3298 2873 
Q 3191 2616 2906 2266 
Q 2828 2175 2409 1742 
Q 1991 1309 1228 531 
z
" transform="scale(0.015625)"/>
       </defs>
       <use xlink:href="#DejaVuSans-32"/>
       <use xlink:href="#DejaVuSans-30" x="63.623047"/>
       <use xlink:href="#DejaVuSans-30" x="127.246094"/>
       <use xlink:href="#DejaVuSans-30" x="190.869141"/>
       <use xlink:href="#DejaVuSans-30" x="254.492188"/>
       <use xlink:href="#DejaVuSans-30" x="318.115234"/>
      </g>
     </g>
    </g>
    <g id="xtick_4">
     <g id="line2d_4">
      <g>
       <use xlink:href="#mdff18c0c0b" x="248.375575" y="307.584" style="stroke: #000000; stroke-width: 0.8"/>
      </g>
     </g>
     <g id="text_4">
      <!-- 300000 -->
      <g transform="translate(229.288075 322.182437)scale(0.1 -0.1)">
       <defs>
        <path id="DejaVuSans-33" d="M 2597 2516 
Q 3050 2419 3304 2112 
Q 3559 1806 3559 1356 
Q 3559 666 3084 287 
Q 2609 -91 1734 -91 
Q 1441 -91 1130 -33 
Q 819 25 488 141 
L 488 750 
Q 750 597 1062 519 
Q 1375 441 1716 441 
Q 2309 441 2620 675 
Q 2931 909 2931 1356 
Q 2931 1769 2642 2001 
Q 2353 2234 1838 2234 
L 1294 2234 
L 1294 2753 
L 1863 2753 
Q 2328 2753 2575 2939 
Q 2822 3125 2822 3475 
Q 2822 3834 2567 4026 
Q 2313 4219 1838 4219 
Q 1578 4219 1281 4162 
Q 984 4106 628 3988 
L 628 4550 
Q 988 4650 1302 4700 
Q 1616 4750 1894 4750 
Q 2613 4750 3031 4423 
Q 3450 4097 3450 3541 
Q 3450 3153 3228 2886 
Q 3006 2619 2597 2516 
z
" transform="scale(0.015625)"/>
       </defs>
       <use xlink:href="#DejaVuSans-33"/>
       <use xlink:href="#DejaVuSans-30" x="63.623047"/>
       <use xlink:href="#DejaVuSans-30" x="127.246094"/>
       <use xlink:href="#DejaVuSans-30" x="190.869141"/>
       <use xlink:href="#DejaVuSans-30" x="254.492188"/>
       <use xlink:href="#DejaVuSans-30" x="318.115234"/>
      </g>
     </g>
    </g>
    <g id="xtick_5">
     <g id="line2d_5">
      <g>
       <use xlink:href="#mdff18c0c0b" x="306.655989" y="307.584" style="stroke: #000000; stroke-width: 0.8"/>
      </g>
     </g>
     <g id="text_5">
      <!-- 400000 -->
      <g transform="translate(287.568489 322.182437)scale(0.1 -0.1)">
       <defs>
        <path id="DejaVuSans-34" d="M 2419 4116 
L 825 1625 
L 2419 1625 
L 2419 4116 
z
M 2253 4666 
L 3047 4666 
L 3047 1625 
L 3713 1625 
L 3713 1100 
L 3047 1100 
L 3047 0 
L 2419 0 
L 2419 1100 
L 313 1100 
L 313 1709 
L 2253 4666 
z
" transform="scale(0.015625)"/>
       </defs>
       <use xlink:href="#DejaVuSans-34"/>
       <use xlink:href="#DejaVuSans-30" x="63.623047"/>
       <use xlink:href="#DejaVuSans-30" x="127.246094"/>
       <use xlink:href="#DejaVuSans-30" x="190.869141"/>
       <use xlink:href="#DejaVuSans-30" x="254.492188"/>
       <use xlink:href="#DejaVuSans-30" x="318.115234"/>
      </g>
     </g>
    </g>
    <g id="xtick_6">
     <g id="line2d_6">
      <g>
       <use xlink:href="#mdff18c0c0b" x="364.936404" y="307.584" style="stroke: #000000; stroke-width: 0.8"/>
      </g>
     </g>
     <g id="text_6">
      <!-- 500000 -->
      <g transform="translate(345.848904 322.182437)scale(0.1 -0.1)">
       <defs>
        <path id="DejaVuSans-35" d="M 691 4666 
L 3169 4666 
L 3169 4134 
L 1269 4134 
L 1269 2991 
Q 1406 3038 1543 3061 
Q 1681 3084 1819 3084 
Q 2600 3084 3056 2656 
Q 3513 2228 3513 1497 
Q 3513 744 3044 326 
Q 2575 -91 1722 -91 
Q 1428 -91 1123 -41 
Q 819 9 494 109 
L 494 744 
Q 775 591 1075 516 
Q 1375 441 1709 441 
Q 2250 441 2565 725 
Q 2881 1009 2881 1497 
Q 2881 1984 2565 2268 
Q 2250 2553 1709 2553 
Q 1456 2553 1204 2497 
Q 953 2441 691 2322 
L 691 4666 
z
" transform="scale(0.015625)"/>
       </defs>
       <use xlink:href="#DejaVuSans-35"/>
       <use xlink:href="#DejaVuSans-30" x="63.623047"/>
       <use xlink:href="#DejaVuSans-30" x="127.246094"/>
       <use xlink:href="#DejaVuSans-30" x="190.869141"/>
       <use xlink:href="#DejaVuSans-30" x="254.492188"/>
       <use xlink:href="#DejaVuSans-30" x="318.115234"/>
      </g>
     </g>
    </g>
    <g id="text_7">
     <!-- Problem Size -->
     <g transform="translate(203.867031 335.860562)scale(0.1 -0.1)">
      <defs>
       <path id="DejaVuSans-50" d="M 1259 4147 
L 1259 2394 
L 2053 2394 
Q 2494 2394 2734 2622 
Q 2975 2850 2975 3272 
Q 2975 3691 2734 3919 
Q 2494 4147 2053 4147 
L 1259 4147 
z
M 628 4666 
L 2053 4666 
Q 2838 4666 3239 4311 
Q 3641 3956 3641 3272 
Q 3641 2581 3239 2228 
Q 2838 1875 2053 1875 
L 1259 1875 
L 1259 0 
L 628 0 
L 628 4666 
z
" transform="scale(0.015625)"/>
       <path id="DejaVuSans-72" d="M 2631 2963 
Q 2534 3019 2420 3045 
Q 2306 3072 2169 3072 
Q 1681 3072 1420 2755 
Q 1159 2438 1159 1844 
L 1159 0 
L 581 0 
L 581 3500 
L 1159 3500 
L 1159 2956 
Q 1341 3275 1631 3429 
Q 1922 3584 2338 3584 
Q 2397 3584 2469 3576 
Q 2541 3569 2628 3553 
L 2631 2963 
z
" transform="scale(0.015625)"/>
       <path id="DejaVuSans-6f" d="M 1959 3097 
Q 1497 3097 1228 2736 
Q 959 2375 959 1747 
Q 959 1119 1226 758 
Q 1494 397 1959 397 
Q 2419 397 2687 759 
Q 2956 1122 2956 1747 
Q 2956 2369 2687 2733 
Q 2419 3097 1959 3097 
z
M 1959 3584 
Q 2709 3584 3137 3096 
Q 3566 2609 3566 1747 
Q 3566 888 3137 398 
Q 2709 -91 1959 -91 
Q 1206 -91 779 398 
Q 353 888 353 1747 
Q 353 2609 779 3096 
Q 1206 3584 1959 3584 
z
" transform="scale(0.015625)"/>
       <path id="DejaVuSans-62" d="M 3116 1747 
Q 3116 2381 2855 2742 
Q 2594 3103 2138 3103 
Q 1681 3103 1420 2742 
Q 1159 2381 1159 1747 
Q 1159 1113 1420 752 
Q 1681 391 2138 391 
Q 2594 391 2855 752 
Q 3116 1113 3116 1747 
z
M 1159 2969 
Q 1341 3281 1617 3432 
Q 1894 3584 2278 3584 
Q 2916 3584 3314 3078 
Q 3713 2572 3713 1747 
Q 3713 922 3314 415 
Q 2916 -91 2278 -91 
Q 1894 -91 1617 61 
Q 1341 213 1159 525 
L 1159 0 
L 581 0 
L 581 4863 
L 1159 4863 
L 1159 2969 
z
" transform="scale(0.015625)"/>
       <path id="DejaVuSans-6c" d="M 603 4863 
L 1178 4863 
L 1178 0 
L 603 0 
L 603 4863 
z
" transform="scale(0.015625)"/>
       <path id="DejaVuSans-65" d="M 3597 1894 
L 3597 1613 
L 953 1613 
Q 991 1019 1311 708 
Q 1631 397 2203 397 
Q 2534 397 2845 478 
Q 3156 559 3463 722 
L 3463 178 
Q 3153 47 2828 -22 
Q 2503 -91 2169 -91 
Q 1331 -91 842 396 
Q 353 884 353 1716 
Q 353 2575 817 3079 
Q 1281 3584 2069 3584 
Q 2775 3584 3186 3129 
Q 3597 2675 3597 1894 
z
M 3022 2063 
Q 3016 2534 2758 2815 
Q 2500 3097 2075 3097 
Q 1594 3097 1305 2825 
Q 1016 2553 972 2059 
L 3022 2063 
z
" transform="scale(0.015625)"/>
       <path id="DejaVuSans-6d" d="M 3328 2828 
Q 3544 3216 3844 3400 
Q 4144 3584 4550 3584 
Q 5097 3584 5394 3201 
Q 5691 2819 5691 2113 
L 5691 0 
L 5113 0 
L 5113 2094 
Q 5113 2597 4934 2840 
Q 4756 3084 4391 3084 
Q 3944 3084 3684 2787 
Q 3425 2491 3425 1978 
L 3425 0 
L 2847 0 
L 2847 2094 
Q 2847 2600 2669 2842 
Q 2491 3084 2119 3084 
Q 1678 3084 1418 2786 
Q 1159 2488 1159 1978 
L 1159 0 
L 581 0 
L 581 3500 
L 1159 3500 
L 1159 2956 
Q 1356 3278 1631 3431 
Q 1906 3584 2284 3584 
Q 2666 3584 2933 3390 
Q 3200 3197 3328 2828 
z
" transform="scale(0.015625)"/>
       <path id="DejaVuSans-20" transform="scale(0.015625)"/>
       <path id="DejaVuSans-53" d="M 3425 4513 
L 3425 3897 
Q 3066 4069 2747 4153 
Q 2428 4238 2131 4238 
Q 1616 4238 1336 4038 
Q 1056 3838 1056 3469 
Q 1056 3159 1242 3001 
Q 1428 2844 1947 2747 
L 2328 2669 
Q 3034 2534 3370 2195 
Q 3706 1856 3706 1288 
Q 3706 609 3251 259 
Q 2797 -91 1919 -91 
Q 1588 -91 1214 -16 
Q 841 59 441 206 
L 441 856 
Q 825 641 1194 531 
Q 1563 422 1919 422 
Q 2459 422 2753 634 
Q 3047 847 3047 1241 
Q 3047 1584 2836 1778 
Q 2625 1972 2144 2069 
L 1759 2144 
Q 1053 2284 737 2584 
Q 422 2884 422 3419 
Q 422 4038 858 4394 
Q 1294 4750 2059 4750 
Q 2388 4750 2728 4690 
Q 3069 4631 3425 4513 
z
" transform="scale(0.015625)"/>
       <path id="DejaVuSans-69" d="M 603 3500 
L 1178 3500 
L 1178 0 
L 603 0 
L 603 3500 
z
M 603 4863 
L 1178 4863 
L 1178 4134 
L 603 4134 
L 603 4863 
z
" transform="scale(0.015625)"/>
       <path id="DejaVuSans-7a" d="M 353 3500 
L 3084 3500 
L 3084 2975 
L 922 459 
L 3084 459 
L 3084 0 
L 275 0 
L 275 525 
L 2438 3041 
L 353 3041 
L 353 3500 
z
" transform="scale(0.015625)"/>
      </defs>
      <use xlink:href="#DejaVuSans-50"/>
      <use xlink:href="#DejaVuSans-72" x="58.552734"/>
      <use xlink:href="#DejaVuSans-6f" x="97.416016"/>
      <use xlink:href="#DejaVuSans-62" x="158.597656"/>
      <use xlink:href="#DejaVuSans-6c" x="222.074219"/>
      <use xlink:href="#DejaVuSans-65" x="249.857422"/>
      <use xlink:href="#DejaVuSans-6d" x="311.380859"/>
      <use xlink:href="#DejaVuSans-20" x="408.792969"/>
      <use xlink:href="#DejaVuSans-53" x="440.580078"/>
      <use xlink:href="#DejaVuSans-69" x="504.056641"/>
      <use xlink:href="#DejaVuSans-7a" x="531.839844"/>
      <use xlink:href="#DejaVuSans-65" x="584.330078"/>
     </g>
    </g>
   </g>
   <g id="matplotlib.axis_2">
    <g id="ytick_1">
     <g id="line2d_7">
      <defs>
       <path id="m7169a6d642" d="M 0 0 
L -3.5 0 
" style="stroke: #000000; stroke-width: 0.8"/>
      </defs>
      <g>
       <use xlink:href="#m7169a6d642" x="57.6" y="301.496512" style="stroke: #000000; stroke-width: 0.8"/>
      </g>
     </g>
     <g id="text_8">
      <!-- 1.5 -->
      <g transform="translate(34.696875 305.295731)scale(0.1 -0.1)">
       <defs>
        <path id="DejaVuSans-2e" d="M 684 794 
L 1344 794 
L 1344 0 
L 684 0 
L 684 794 
z
" transform="scale(0.015625)"/>
       </defs>
       <use xlink:href="#DejaVuSans-31"/>
       <use xlink:href="#DejaVuSans-2e" x="63.623047"/>
       <use xlink:href="#DejaVuSans-35" x="95.410156"/>
      </g>
     </g>
    </g>
    <g id="ytick_2">
     <g id="line2d_8">
      <g>
       <use xlink:href="#m7169a6d642" x="57.6" y="259.369622" style="stroke: #000000; stroke-width: 0.8"/>
      </g>
     </g>
     <g id="text_9">
      <!-- 2.0 -->
      <g transform="translate(34.696875 263.168841)scale(0.1 -0.1)">
       <use xlink:href="#DejaVuSans-32"/>
       <use xlink:href="#DejaVuSans-2e" x="63.623047"/>
       <use xlink:href="#DejaVuSans-30" x="95.410156"/>
      </g>
     </g>
    </g>
    <g id="ytick_3">
     <g id="line2d_9">
      <g>
       <use xlink:href="#m7169a6d642" x="57.6" y="217.242731" style="stroke: #000000; stroke-width: 0.8"/>
      </g>
     </g>
     <g id="text_10">
      <!-- 2.5 -->
      <g transform="translate(34.696875 221.04195)scale(0.1 -0.1)">
       <use xlink:href="#DejaVuSans-32"/>
       <use xlink:href="#DejaVuSans-2e" x="63.623047"/>
       <use xlink:href="#DejaVuSans-35" x="95.410156"/>
      </g>
     </g>
    </g>
    <g id="ytick_4">
     <g id="line2d_10">
      <g>
       <use xlink:href="#m7169a6d642" x="57.6" y="175.115841" style="stroke: #000000; stroke-width: 0.8"/>
      </g>
     </g>
     <g id="text_11">
      <!-- 3.0 -->
      <g transform="translate(34.696875 178.91506)scale(0.1 -0.1)">
       <use xlink:href="#DejaVuSans-33"/>
       <use xlink:href="#DejaVuSans-2e" x="63.623047"/>
       <use xlink:href="#DejaVuSans-30" x="95.410156"/>
      </g>
     </g>
    </g>
    <g id="ytick_5">
     <g id="line2d_11">
      <g>
       <use xlink:href="#m7169a6d642" x="57.6" y="132.98895" style="stroke: #000000; stroke-width: 0.8"/>
      </g>
     </g>
     <g id="text_12">
      <!-- 3.5 -->
      <g transform="translate(34.696875 136.788169)scale(0.1 -0.1)">
       <use xlink:href="#DejaVuSans-33"/>
       <use xlink:href="#DejaVuSans-2e" x="63.623047"/>
       <use xlink:href="#DejaVuSans-35" x="95.410156"/>
      </g>
     </g>
    </g>
    <g id="ytick_6">
     <g id="line2d_12">
      <g>
       <use xlink:href="#m7169a6d642" x="57.6" y="90.86206" style="stroke: #000000; stroke-width: 0.8"/>
      </g>
     </g>
     <g id="text_13">
      <!-- 4.0 -->
      <g transform="translate(34.696875 94.661279)scale(0.1 -0.1)">
       <use xlink:href="#DejaVuSans-34"/>
       <use xlink:href="#DejaVuSans-2e" x="63.623047"/>
       <use xlink:href="#DejaVuSans-30" x="95.410156"/>
      </g>
     </g>
    </g>
    <g id="ytick_7">
     <g id="line2d_13">
      <g>
       <use xlink:href="#m7169a6d642" x="57.6" y="48.735169" style="stroke: #000000; stroke-width: 0.8"/>
      </g>
     </g>
     <g id="text_14">
      <!-- 4.5 -->
      <g transform="translate(34.696875 52.534388)scale(0.1 -0.1)">
       <use xlink:href="#DejaVuSans-34"/>
       <use xlink:href="#DejaVuSans-2e" x="63.623047"/>
       <use xlink:href="#DejaVuSans-35" x="95.410156"/>
      </g>
     </g>
    </g>
    <g id="text_15">
     <!-- GFLOPS -->
     <g transform="translate(28.617187 194.007688)rotate(-90)scale(0.1 -0.1)">
      <defs>
       <path id="DejaVuSans-47" d="M 3809 666 
L 3809 1919 
L 2778 1919 
L 2778 2438 
L 4434 2438 
L 4434 434 
Q 4069 175 3628 42 
Q 3188 -91 2688 -91 
Q 1594 -91 976 548 
Q 359 1188 359 2328 
Q 359 3472 976 4111 
Q 1594 4750 2688 4750 
Q 3144 4750 3555 4637 
Q 3966 4525 4313 4306 
L 4313 3634 
Q 3963 3931 3569 4081 
Q 3175 4231 2741 4231 
Q 1884 4231 1454 3753 
Q 1025 3275 1025 2328 
Q 1025 1384 1454 906 
Q 1884 428 2741 428 
Q 3075 428 3337 486 
Q 3600 544 3809 666 
z
" transform="scale(0.015625)"/>
       <path id="DejaVuSans-46" d="M 628 4666 
L 3309 4666 
L 3309 4134 
L 1259 4134 
L 1259 2759 
L 3109 2759 
L 3109 2228 
L 1259 2228 
L 1259 0 
L 628 0 
L 628 4666 
z
" transform="scale(0.015625)"/>
       <path id="DejaVuSans-4c" d="M 628 4666 
L 1259 4666 
L 1259 531 
L 3531 531 
L 3531 0 
L 628 0 
L 628 4666 
z
" transform="scale(0.015625)"/>
       <path id="DejaVuSans-4f" d="M 2522 4238 
Q 1834 4238 1429 3725 
Q 1025 3213 1025 2328 
Q 1025 1447 1429 934 
Q 1834 422 2522 422 
Q 3209 422 3611 934 
Q 4013 1447 4013 2328 
Q 4013 3213 3611 3725 
Q 3209 4238 2522 4238 
z
M 2522 4750 
Q 3503 4750 4090 4092 
Q 4678 3434 4678 2328 
Q 4678 1225 4090 567 
Q 3503 -91 2522 -91 
Q 1538 -91 948 565 
Q 359 1222 359 2328 
Q 359 3434 948 4092 
Q 1538 4750 2522 4750 
z
" transform="scale(0.015625)"/>
      </defs>
      <use xlink:href="#DejaVuSans-47"/>
      <use xlink:href="#DejaVuSans-46" x="77.490234"/>
      <use xlink:href="#DejaVuSans-4c" x="135.009766"/>
      <use xlink:href="#DejaVuSans-4f" x="187.097656"/>
      <use xlink:href="#DejaVuSans-50" x="265.808594"/>
      <use xlink:href="#DejaVuSans-53" x="326.111328"/>
     </g>
    </g>
   </g>
   <g id="line2d_14">
    <path d="M 73.832727 167.390866 
L 74.131123 160.599765 
L 74.429519 166.994986 
L 74.727914 167.837083 
L 75.02631 123.959257 
L 75.324706 147.924966 
L 75.623102 112.834011 
L 75.921497 160.56809 
L 76.518289 137.698751 
L 77.11508 142.121601 
L 77.711872 129.293177 
L 78.010267 145.432001 
L 78.308663 146.429106 
L 78.905455 130.871094 
L 79.502246 134.783689 
L 79.800642 125.450709 
L 80.695829 143.195824 
L 80.994225 136.827732 
L 81.591016 141.451519 
L 81.889412 138.04514 
L 82.486203 136.832927 
L 83.082995 151.775737 
L 83.978182 156.971788 
L 84.276578 145.004636 
L 85.47016 150.307881 
L 86.066952 145.229352 
L 86.663743 136.057812 
L 86.962139 150.407708 
L 87.857326 155.127625 
L 88.155722 173.362432 
L 88.454118 136.917022 
L 89.647701 147.678008 
L 90.244492 169.095429 
L 91.438075 151.048043 
L 92.333262 141.889987 
L 92.631658 169.83 
L 93.228449 159.665017 
L 94.422032 153.666926 
L 95.018824 171.964212 
L 95.914011 172.394306 
L 97.405989 175.805697 
L 97.704385 186.092185 
L 98.599572 166.608851 
L 99.793155 188.785877 
L 100.389947 182.525037 
L 102.180321 191.370367 
L 102.777112 187.394249 
L 103.075508 179.064052 
L 103.373904 183.351326 
L 104.865882 182.182149 
L 105.76107 190.505724 
L 106.357861 189.628867 
L 106.954652 191.964152 
L 109.341818 199.460321 
L 110.833797 230.720543 
L 111.132193 199.454496 
L 111.728984 211.885201 
L 112.922567 207.423885 
L 113.817754 209.483945 
L 115.309733 207.827 
L 116.503316 217.16145 
L 117.398503 203.507395 
L 118.29369 207.848784 
L 119.487273 211.913084 
L 121.277647 224.572532 
L 121.874439 218.828805 
L 122.769626 211.621632 
L 123.664813 210.494613 
L 125.753583 212.351183 
L 126.051979 225.097122 
L 127.245561 215.456133 
L 129.931123 224.271549 
L 130.82631 225.722017 
L 132.019893 215.465994 
L 132.616684 225.939448 
L 133.213476 219.092967 
L 136.197433 217.534738 
L 137.987807 225.648537 
L 139.18139 224.559574 
L 140.374973 220.94326 
L 140.673369 222.364798 
L 142.463743 228.22198 
L 145.149305 222.396307 
L 145.746096 229.857439 
L 146.044492 237.380163 
L 146.641283 225.139765 
L 148.133262 221.585455 
L 148.730053 223.091512 
L 149.923636 233.549454 
L 152.310802 232.439133 
L 154.101176 227.594653 
L 155.593155 220.991438 
L 157.085134 227.752616 
L 159.472299 231.572079 
L 161.262674 234.868699 
L 162.157861 231.315168 
L 163.053048 220.353593 
L 165.440214 226.912407 
L 167.528984 225.67402 
L 169.020963 228.430524 
L 170.214545 225.055223 
L 172.00492 221.609942 
L 173.795294 225.472591 
L 175.884064 221.539739 
L 177.972834 227.66798 
L 178.569626 232.990552 
L 180.956791 227.884118 
L 181.851979 234.874846 
L 186.327914 227.029955 
L 188.118289 234.256558 
L 188.416684 226.905687 
L 190.505455 234.975655 
L 191.699037 230.491736 
L 192.89262 223.364197 
L 194.384599 229.572733 
L 198.860535 224.874439 
L 202.441283 235.507853 
L 204.828449 232.446213 
L 205.126845 246.884315 
L 207.215615 236.636378 
L 207.812406 229.799664 
L 211.393155 225.273844 
L 216.764278 225.406313 
L 217.957861 238.464483 
L 218.554652 231.616078 
L 219.748235 234.1407 
L 221.240214 227.256217 
L 222.732193 212.186481 
L 223.925775 236.423913 
L 226.312941 254.030843 
L 231.087273 232.077212 
L 234.369626 235.322053 
L 234.668021 233.353094 
L 237.651979 223.240133 
L 240.635936 237.472198 
L 242.724706 251.041552 
L 245.410267 249.32149 
L 250.78139 225.854528 
L 252.571765 207.513586 
L 254.063743 214.163569 
L 257.346096 243.62778 
L 261.523636 242.887644 
L 264.507594 254.084904 
L 266.894759 248.647767 
L 270.475508 213.968848 
L 280.322567 241.798555 
L 282.411337 240.041243 
L 283.60492 245.540243 
L 288.379251 241.149399 
L 290.169626 208.018146 
L 291.064813 244.084413 
L 303.299037 242.114264 
L 309.863743 256.111275 
L 312.250909 241.758475 
L 315.234866 268.161125 
L 326.275508 240.151966 
L 336.122567 246.772583 
L 339.40492 247.810424 
L 342.090481 257.732877 
L 362.38139 263.430317 
L 368.946096 251.930548 
L 398.487273 254.993435 
L 398.487273 254.993435 
" clip-path="url(#p0beda95afa)" style="fill: none; stroke: #1f77b4; stroke-width: 1.5; stroke-linecap: square"/>
   </g>
   <g id="line2d_15"/>
   <g id="patch_3">
    <path d="M 57.6 307.584 
L 57.6 41.472 
" style="fill: none; stroke: #000000; stroke-width: 0.8; stroke-linejoin: miter; stroke-linecap: square"/>
   </g>
   <g id="patch_4">
    <path d="M 414.72 307.584 
L 414.72 41.472 
" style="fill: none; stroke: #000000; stroke-width: 0.8; stroke-linejoin: miter; stroke-linecap: square"/>
   </g>
   <g id="patch_5">
    <path d="M 57.6 307.584 
L 414.72 307.584 
" style="fill: none; stroke: #000000; stroke-width: 0.8; stroke-linejoin: miter; stroke-linecap: square"/>
   </g>
   <g id="patch_6">
    <path d="M 57.6 41.472 
L 414.72 41.472 
" style="fill: none; stroke: #000000; stroke-width: 0.8; stroke-linejoin: miter; stroke-linecap: square"/>
   </g>
   <g id="text_16">
    <!-- Performance vs Local Problem Size -->
    <g transform="translate(131.440313 35.472)scale(0.12 -0.12)">
     <defs>
      <path id="DejaVuSans-66" d="M 2375 4863 
L 2375 4384 
L 1825 4384 
Q 1516 4384 1395 4259 
Q 1275 4134 1275 3809 
L 1275 3500 
L 2222 3500 
L 2222 3053 
L 1275 3053 
L 1275 0 
L 697 0 
L 697 3053 
L 147 3053 
L 147 3500 
L 697 3500 
L 697 3744 
Q 697 4328 969 4595 
Q 1241 4863 1831 4863 
L 2375 4863 
z
" transform="scale(0.015625)"/>
      <path id="DejaVuSans-61" d="M 2194 1759 
Q 1497 1759 1228 1600 
Q 959 1441 959 1056 
Q 959 750 1161 570 
Q 1363 391 1709 391 
Q 2188 391 2477 730 
Q 2766 1069 2766 1631 
L 2766 1759 
L 2194 1759 
z
M 3341 1997 
L 3341 0 
L 2766 0 
L 2766 531 
Q 2569 213 2275 61 
Q 1981 -91 1556 -91 
Q 1019 -91 701 211 
Q 384 513 384 1019 
Q 384 1609 779 1909 
Q 1175 2209 1959 2209 
L 2766 2209 
L 2766 2266 
Q 2766 2663 2505 2880 
Q 2244 3097 1772 3097 
Q 1472 3097 1187 3025 
Q 903 2953 641 2809 
L 641 3341 
Q 956 3463 1253 3523 
Q 1550 3584 1831 3584 
Q 2591 3584 2966 3190 
Q 3341 2797 3341 1997 
z
" transform="scale(0.015625)"/>
      <path id="DejaVuSans-6e" d="M 3513 2113 
L 3513 0 
L 2938 0 
L 2938 2094 
Q 2938 2591 2744 2837 
Q 2550 3084 2163 3084 
Q 1697 3084 1428 2787 
Q 1159 2491 1159 1978 
L 1159 0 
L 581 0 
L 581 3500 
L 1159 3500 
L 1159 2956 
Q 1366 3272 1645 3428 
Q 1925 3584 2291 3584 
Q 2894 3584 3203 3211 
Q 3513 2838 3513 2113 
z
" transform="scale(0.015625)"/>
      <path id="DejaVuSans-63" d="M 3122 3366 
L 3122 2828 
Q 2878 2963 2633 3030 
Q 2388 3097 2138 3097 
Q 1578 3097 1268 2742 
Q 959 2388 959 1747 
Q 959 1106 1268 751 
Q 1578 397 2138 397 
Q 2388 397 2633 464 
Q 2878 531 3122 666 
L 3122 134 
Q 2881 22 2623 -34 
Q 2366 -91 2075 -91 
Q 1284 -91 818 406 
Q 353 903 353 1747 
Q 353 2603 823 3093 
Q 1294 3584 2113 3584 
Q 2378 3584 2631 3529 
Q 2884 3475 3122 3366 
z
" transform="scale(0.015625)"/>
      <path id="DejaVuSans-76" d="M 191 3500 
L 800 3500 
L 1894 563 
L 2988 3500 
L 3597 3500 
L 2284 0 
L 1503 0 
L 191 3500 
z
" transform="scale(0.015625)"/>
      <path id="DejaVuSans-73" d="M 2834 3397 
L 2834 2853 
Q 2591 2978 2328 3040 
Q 2066 3103 1784 3103 
Q 1356 3103 1142 2972 
Q 928 2841 928 2578 
Q 928 2378 1081 2264 
Q 1234 2150 1697 2047 
L 1894 2003 
Q 2506 1872 2764 1633 
Q 3022 1394 3022 966 
Q 3022 478 2636 193 
Q 2250 -91 1575 -91 
Q 1294 -91 989 -36 
Q 684 19 347 128 
L 347 722 
Q 666 556 975 473 
Q 1284 391 1588 391 
Q 1994 391 2212 530 
Q 2431 669 2431 922 
Q 2431 1156 2273 1281 
Q 2116 1406 1581 1522 
L 1381 1569 
Q 847 1681 609 1914 
Q 372 2147 372 2553 
Q 372 3047 722 3315 
Q 1072 3584 1716 3584 
Q 2034 3584 2315 3537 
Q 2597 3491 2834 3397 
z
" transform="scale(0.015625)"/>
     </defs>
     <use xlink:href="#DejaVuSans-50"/>
     <use xlink:href="#DejaVuSans-65" x="56.677734"/>
     <use xlink:href="#DejaVuSans-72" x="118.201172"/>
     <use xlink:href="#DejaVuSans-66" x="159.314453"/>
     <use xlink:href="#DejaVuSans-6f" x="194.519531"/>
     <use xlink:href="#DejaVuSans-72" x="255.701172"/>
     <use xlink:href="#DejaVuSans-6d" x="295.064453"/>
     <use xlink:href="#DejaVuSans-61" x="392.476562"/>
     <use xlink:href="#DejaVuSans-6e" x="453.755859"/>
     <use xlink:href="#DejaVuSans-63" x="517.134766"/>
     <use xlink:href="#DejaVuSans-65" x="572.115234"/>
     <use xlink:href="#DejaVuSans-20" x="633.638672"/>
     <use xlink:href="#DejaVuSans-76" x="665.425781"/>
     <use xlink:href="#DejaVuSans-73" x="724.605469"/>
     <use xlink:href="#DejaVuSans-20" x="776.705078"/>
     <use xlink:href="#DejaVuSans-4c" x="808.492188"/>
     <use xlink:href="#DejaVuSans-6f" x="862.455078"/>
     <use xlink:href="#DejaVuSans-63" x="923.636719"/>
     <use xlink:href="#DejaVuSans-61" x="978.617188"/>
     <use xlink:href="#DejaVuSans-6c" x="1039.896484"/>
     <use xlink:href="#DejaVuSans-20" x="1067.679688"/>
     <use xlink:href="#DejaVuSans-50" x="1099.466797"/>
     <use xlink:href="#DejaVuSans-72" x="1158.019531"/>
     <use xlink:href="#DejaVuSans-6f" x="1196.882812"/>
     <use xlink:href="#DejaVuSans-62" x="1258.064453"/>
     <use xlink:href="#DejaVuSans-6c" x="1321.541016"/>
     <use xlink:href="#DejaVuSans-65" x="1349.324219"/>
     <use xlink:href="#DejaVuSans-6d" x="1410.847656"/>
     <use xlink:href="#DejaVuSans-20" x="1508.259766"/>
     <use xlink:href="#DejaVuSans-53" x="1540.046875"/>
     <use xlink:href="#DejaVuSans-69" x="1603.523438"/>
     <use xlink:href="#DejaVuSans-7a" x="1631.306641"/>
     <use xlink:href="#DejaVuSans-65" x="1683.796875"/>
    </g>
   </g>
   <g id="legend_1">
    <g id="patch_7">
     <path d="M 339.12 78.82825 
L 407.72 78.82825 
Q 409.72 78.82825 409.72 76.82825 
L 409.72 48.472 
Q 409.72 46.472 407.72 46.472 
L 339.12 46.472 
Q 337.12 46.472 337.12 48.472 
L 337.12 76.82825 
Q 337.12 78.82825 339.12 78.82825 
z
" style="fill: #ffffff; opacity: 0.8; stroke: #cccccc; stroke-linejoin: miter"/>
    </g>
    <g id="text_17">
     <!-- Cluster -->
     <g transform="translate(355.673906 58.070437)scale(0.1 -0.1)">
      <defs>
       <path id="DejaVuSans-43" d="M 4122 4306 
L 4122 3641 
Q 3803 3938 3442 4084 
Q 3081 4231 2675 4231 
Q 1875 4231 1450 3742 
Q 1025 3253 1025 2328 
Q 1025 1406 1450 917 
Q 1875 428 2675 428 
Q 3081 428 3442 575 
Q 3803 722 4122 1019 
L 4122 359 
Q 3791 134 3420 21 
Q 3050 -91 2638 -91 
Q 1578 -91 968 557 
Q 359 1206 359 2328 
Q 359 3453 968 4101 
Q 1578 4750 2638 4750 
Q 3056 4750 3426 4639 
Q 3797 4528 4122 4306 
z
" transform="scale(0.015625)"/>
       <path id="DejaVuSans-75" d="M 544 1381 
L 544 3500 
L 1119 3500 
L 1119 1403 
Q 1119 906 1312 657 
Q 1506 409 1894 409 
Q 2359 409 2629 706 
Q 2900 1003 2900 1516 
L 2900 3500 
L 3475 3500 
L 3475 0 
L 2900 0 
L 2900 538 
Q 2691 219 2414 64 
Q 2138 -91 1772 -91 
Q 1169 -91 856 284 
Q 544 659 544 1381 
z
M 1991 3584 
L 1991 3584 
z
" transform="scale(0.015625)"/>
       <path id="DejaVuSans-74" d="M 1172 4494 
L 1172 3500 
L 2356 3500 
L 2356 3053 
L 1172 3053 
L 1172 1153 
Q 1172 725 1289 603 
Q 1406 481 1766 481 
L 2356 481 
L 2356 0 
L 1766 0 
Q 1100 0 847 248 
Q 594 497 594 1153 
L 594 3053 
L 172 3053 
L 172 3500 
L 594 3500 
L 594 4494 
L 1172 4494 
z
" transform="scale(0.015625)"/>
      </defs>
      <use xlink:href="#DejaVuSans-43"/>
      <use xlink:href="#DejaVuSans-6c" x="69.824219"/>
      <use xlink:href="#DejaVuSans-75" x="97.607422"/>
      <use xlink:href="#DejaVuSans-73" x="160.986328"/>
      <use xlink:href="#DejaVuSans-74" x="213.085938"/>
      <use xlink:href="#DejaVuSans-65" x="252.294922"/>
      <use xlink:href="#DejaVuSans-72" x="313.818359"/>
     </g>
    </g>
    <g id="line2d_16">
     <path d="M 341.12 69.248562 
L 351.12 69.248562 
L 361.12 69.248562 
" style="fill: none; stroke: #1f77b4; stroke-width: 1.5; stroke-linecap: square"/>
    </g>
    <g id="text_18">
     <!-- Hopper -->
     <g transform="translate(369.12 72.748562)scale(0.1 -0.1)">
      <defs>
       <path id="DejaVuSans-48" d="M 628 4666 
L 1259 4666 
L 1259 2753 
L 3553 2753 
L 3553 4666 
L 4184 4666 
L 4184 0 
L 3553 0 
L 3553 2222 
L 1259 2222 
L 1259 0 
L 628 0 
L 628 4666 
z
" transform="scale(0.015625)"/>
       <path id="DejaVuSans-70" d="M 1159 525 
L 1159 -1331 
L 581 -1331 
L 581 3500 
L 1159 3500 
L 1159 2969 
Q 1341 3281 1617 3432 
Q 1894 3584 2278 3584 
Q 2916 3584 3314 3078 
Q 3713 2572 3713 1747 
Q 3713 922 3314 415 
Q 2916 -91 2278 -91 
Q 1894 -91 1617 61 
Q 1341 213 1159 525 
z
M 3116 1747 
Q 3116 2381 2855 2742 
Q 2594 3103 2138 3103 
Q 1681 3103 1420 2742 
Q 1159 2381 1159 1747 
Q 1159 1113 1420 752 
Q 1681 391 2138 391 
Q 2594 391 2855 752 
Q 3116 1113 3116 1747 
z
" transform="scale(0.015625)"/>
      </defs>
      <use xlink:href="#DejaVuSans-48"/>
      <use xlink:href="#DejaVuSans-6f" x="75.195312"/>
      <use xlink:href="#DejaVuSans-70" x="136.376953"/>
      <use xlink:href="#DejaVuSans-70" x="199.853516"/>
      <use xlink:href="#DejaVuSans-65" x="263.330078"/>
      <use xlink:href="#DejaVuSans-72" x="324.853516"/>
     </g>
    </g>
   </g>
  </g>
 </g>
 <defs>
  <clipPath id="p0beda95afa">
   <rect x="57.6" y="41.472" width="357.12" height="266.112"/>
  </clipPath>
 </defs>
</svg>
