<?xml version="1.0" encoding="utf-8" standalone="no"?>
<!DOCTYPE svg PUBLIC "-//W3C//DTD SVG 1.1//EN"
  "http://www.w3.org/Graphics/SVG/1.1/DTD/svg11.dtd">
<svg xmlns:xlink="http://www.w3.org/1999/xlink" width="460.8pt" height="345.6pt" viewBox="0 0 460.8 345.6" xmlns="http://www.w3.org/2000/svg" version="1.1">
 <metadata>
  <rdf:RDF xmlns:dc="http://purl.org/dc/elements/1.1/" xmlns:cc="http://creativecommons.org/ns#" xmlns:rdf="http://www.w3.org/1999/02/22-rdf-syntax-ns#">
   <cc:Work>
    <dc:type rdf:resource="http://purl.org/dc/dcmitype/StillImage"/>
    <dc:date>2024-05-02T16:23:25.704670</dc:date>
    <dc:format>image/svg+xml</dc:format>
    <dc:creator>
     <cc:Agent>
      <dc:title>Matplotlib v3.5.3, https://matplotlib.org/</dc:title>
     </cc:Agent>
    </dc:creator>
   </cc:Work>
  </rdf:RDF>
 </metadata>
 <defs>
  <style type="text/css">*{stroke-linejoin: round; stroke-linecap: butt}</style>
 </defs>
 <g id="figure_1">
  <g id="patch_1">
   <path d="M 0 345.6 
L 460.8 345.6 
L 460.8 0 
L 0 0 
z
" style="fill: #ffffff"/>
  </g>
  <g id="axes_1">
   <g id="patch_2">
    <path d="M 57.6 307.584 
L 414.72 307.584 
L 414.72 41.472 
L 57.6 41.472 
z
" style="fill: #ffffff"/>
   </g>
   <g id="PolyCollection_1">
    <defs>
     <path id="m50e960827a" d="M 73.832727 -211.166301 
L 73.832727 -50.112 
L 74.131123 -91.736065 
L 74.429519 -80.197452 
L 74.727914 -104.406257 
L 75.02631 -98.554453 
L 75.324706 -119.809783 
L 75.623102 -111.543671 
L 75.921497 -114.763376 
L 76.219893 -94.723953 
L 76.518289 -121.043149 
L 77.11508 -129.648173 
L 77.711872 -119.610866 
L 78.010267 -111.64425 
L 78.308663 -116.530927 
L 78.905455 -118.62999 
L 79.502246 -118.814382 
L 79.800642 -120.314099 
L 80.695829 -129.329328 
L 80.994225 -104.349946 
L 81.591016 -53.92023 
L 81.889412 -116.787496 
L 82.486203 -126.537956 
L 83.082995 -110.631265 
L 83.978182 -102.077343 
L 84.276578 -122.713366 
L 85.47016 -118.546515 
L 86.066952 -123.553415 
L 86.663743 -81.448726 
L 86.962139 -71.183364 
L 87.857326 -117.598593 
L 88.155722 -83.869468 
L 88.454118 -95.381517 
L 89.647701 -97.777582 
L 90.244492 -103.67154 
L 91.438075 -113.098299 
L 92.333262 -73.55278 
L 92.631658 -96.767978 
L 93.228449 -83.416824 
L 94.422032 -99.227493 
L 95.018824 -98.996129 
L 95.914011 -74.183742 
L 97.405989 -98.910338 
L 97.704385 -64.498358 
L 98.599572 -101.551794 
L 99.793155 -72.769871 
L 100.389947 -97.061313 
L 102.180321 -100.479021 
L 102.777112 -75.168964 
L 103.075508 -60.022999 
L 103.373904 -93.603428 
L 104.865882 -77.71588 
L 105.76107 -95.736865 
L 106.357861 -89.129085 
L 106.954652 -87.785821 
L 109.341818 -100.718893 
L 110.833797 -56.370125 
L 111.132193 -91.474452 
L 111.728984 -81.155484 
L 112.922567 -90.828065 
L 113.817754 -75.556899 
L 115.309733 -90.910778 
L 116.503316 -95.477068 
L 117.398503 -67.76712 
L 118.29369 -88.300125 
L 119.487273 -80.877644 
L 121.277647 -90.744648 
L 121.874439 -87.544677 
L 122.769626 -80.920541 
L 123.664813 -93.42197 
L 125.753583 -70.007357 
L 126.051979 -82.319153 
L 127.245561 -101.082054 
L 129.931123 -73.413519 
L 130.82631 -90.373928 
L 132.019893 -84.443114 
L 132.616684 -82.339917 
L 133.213476 -87.082119 
L 136.197433 -90.749641 
L 137.987807 -89.637675 
L 139.18139 -89.101144 
L 140.374973 -86.558233 
L 140.673369 -67.590359 
L 142.463743 -72.429742 
L 145.149305 -100.929362 
L 145.746096 -58.781775 
L 146.044492 -71.206833 
L 146.641283 -74.653981 
L 148.133262 -68.776398 
L 148.730053 -93.748852 
L 149.923636 -74.72428 
L 152.310802 -89.313689 
L 154.101176 -89.743339 
L 155.593155 -69.113551 
L 157.085134 -87.072476 
L 159.472299 -91.373587 
L 161.262674 -80.88696 
L 162.157861 -71.752438 
L 163.053048 -93.533515 
L 165.440214 -79.887702 
L 167.528984 -84.792909 
L 169.020963 -88.240101 
L 170.214545 -84.370219 
L 172.00492 -96.228703 
L 173.795294 -86.598419 
L 175.884064 -91.09632 
L 177.972834 -81.833503 
L 178.569626 -80.652074 
L 180.956791 -99.364398 
L 181.851979 -60.565643 
L 186.327914 -84.454305 
L 188.118289 -83.710949 
L 188.416684 -80.947246 
L 190.505455 -81.031967 
L 191.699037 -94.695456 
L 192.89262 -92.33023 
L 194.384599 -86.1978 
L 198.860535 -97.505166 
L 202.441283 -87.149948 
L 204.828449 -92.625564 
L 205.126845 -80.236292 
L 207.215615 -75.84415 
L 207.812406 -83.451482 
L 211.393155 -94.032089 
L 216.764278 -92.047239 
L 217.957861 -66.177148 
L 218.554652 -78.926216 
L 219.748235 -75.22851 
L 221.240214 -84.453669 
L 222.732193 -64.403986 
L 223.925775 -89.10125 
L 226.312941 -91.072538 
L 231.087273 -85.23712 
L 234.369626 -66.421737 
L 234.668021 -88.475193 
L 237.651979 -77.681378 
L 240.635936 -80.328733 
L 242.724706 -75.641229 
L 245.410267 -92.516476 
L 250.78139 -91.185528 
L 252.571765 -94.114936 
L 254.063743 -64.972079 
L 257.346096 -84.6967 
L 261.523636 -83.097167 
L 264.507594 -90.801204 
L 266.894759 -73.587438 
L 270.475508 -91.612968 
L 280.322567 -85.040964 
L 282.411337 -90.19 
L 283.60492 -90.522303 
L 288.379251 -85.972792 
L 290.169626 -90.973517 
L 291.064813 -64.720679 
L 303.299037 -90.054441 
L 309.863743 -84.721158 
L 312.250909 -90.377231 
L 315.234866 -90.364043 
L 326.275508 -91.140858 
L 336.122567 -90.085358 
L 339.40492 -74.837746 
L 342.090481 -89.902451 
L 362.38139 -89.928828 
L 368.946096 -74.518059 
L 398.487273 -64.701308 
L 398.487273 -107.176581 
L 398.487273 -107.176581 
L 368.946096 -104.423029 
L 362.38139 -102.321543 
L 342.090481 -105.661436 
L 339.40492 -105.523931 
L 336.122567 -102.739462 
L 326.275508 -104.384977 
L 315.234866 -104.582067 
L 312.250909 -104.11213 
L 309.863743 -102.570434 
L 303.299037 -103.257699 
L 291.064813 -105.403723 
L 290.169626 -281.051647 
L 288.379251 -103.260948 
L 283.60492 -102.908964 
L 282.411337 -101.896489 
L 280.322567 -102.948982 
L 270.475508 -223.51258 
L 266.894759 -102.88028 
L 264.507594 -107.593095 
L 261.523636 -101.845315 
L 257.346096 -102.163848 
L 254.063743 -272.176976 
L 252.571765 -281.825219 
L 250.78139 -184.737769 
L 245.410267 -101.750398 
L 242.724706 -102.212721 
L 240.635936 -102.54727 
L 237.651979 -215.643017 
L 234.668021 -174.093483 
L 234.369626 -105.134767 
L 231.087273 -175.288688 
L 226.312941 -102.241116 
L 223.925775 -100.782271 
L 222.732193 -271.599716 
L 221.240214 -176.580627 
L 219.748235 -105.983145 
L 218.554652 -170.959325 
L 217.957861 -227.077774 
L 216.764278 -175.147215 
L 211.393155 -187.286255 
L 207.812406 -183.691267 
L 207.215615 -101.104891 
L 205.126845 -102.624966 
L 204.828449 -167.804268 
L 202.441283 -157.50217 
L 198.860535 -192.658142 
L 194.384599 -175.000938 
L 192.89262 -171.077515 
L 191.699037 -168.27212 
L 190.505455 -103.613784 
L 188.416684 -165.357167 
L 188.118289 -175.776948 
L 186.327914 -157.624326 
L 181.851979 -202.329957 
L 180.956791 -151.278106 
L 178.569626 -166.478885 
L 177.972834 -174.763234 
L 175.884064 -105.636789 
L 173.795294 -161.874673 
L 172.00492 -167.637631 
L 170.214545 -161.622092 
L 169.020963 -150.84553 
L 167.528984 -152.015401 
L 165.440214 -163.309686 
L 163.053048 -178.48788 
L 162.157861 -147.975102 
L 161.262674 -177.940114 
L 159.472299 -150.340507 
L 157.085134 -137.999692 
L 155.593155 -193.86311 
L 154.101176 -147.635966 
L 152.310802 -149.932765 
L 149.923636 -163.015092 
L 148.730053 -155.739986 
L 148.133262 -210.154483 
L 146.641283 -164.310793 
L 146.044492 -150.800118 
L 145.746096 -200.884333 
L 145.149305 -151.093836 
L 142.463743 -146.753966 
L 140.673369 -199.345894 
L 140.374973 -149.415653 
L 139.18139 -156.683045 
L 137.987807 -136.522832 
L 136.197433 -149.773195 
L 133.213476 -151.029517 
L 132.616684 -137.309454 
L 132.019893 -165.724056 
L 130.82631 -154.346868 
L 129.931123 -130.83382 
L 127.245561 -145.695697 
L 126.051979 -145.40392 
L 125.753583 -176.890619 
L 123.664813 -146.568386 
L 122.769626 -163.917108 
L 121.874439 -145.173919 
L 121.277647 -137.936618 
L 119.487273 -166.77409 
L 118.29369 -157.604513 
L 117.398503 -140.149168 
L 116.503316 -140.445318 
L 115.309733 -148.103947 
L 113.817754 -150.685371 
L 112.922567 -148.661811 
L 111.728984 -143.449252 
L 111.132193 -145.372678 
L 110.833797 -227.023248 
L 109.341818 -142.046186 
L 106.954652 -149.445111 
L 106.357861 -181.437306 
L 105.76107 -148.677432 
L 104.865882 -146.095426 
L 103.373904 -165.639414 
L 103.075508 -184.772042 
L 102.777112 -172.837127 
L 102.180321 -145.351457 
L 100.389947 -150.38892 
L 99.793155 -156.976457 
L 98.599572 -158.550039 
L 97.704385 -167.809785 
L 97.405989 -146.743369 
L 95.914011 -190.183611 
L 95.018824 -143.394623 
L 94.422032 -185.806746 
L 93.228449 -184.097133 
L 92.631658 -155.134072 
L 92.333262 -185.58861 
L 91.438075 -165.883202 
L 90.244492 -164.781388 
L 89.647701 -173.82677 
L 88.454118 -234.829353 
L 88.155722 -191.684228 
L 87.857326 -163.030846 
L 86.962139 -205.153281 
L 86.663743 -232.029701 
L 86.066952 -188.704079 
L 85.47016 -177.733464 
L 84.276578 -182.392003 
L 83.978182 -189.651939 
L 83.082995 -169.711534 
L 82.486203 -190.451776 
L 81.889412 -196.835205 
L 81.591016 -292.032 
L 80.994225 -231.814226 
L 80.695829 -175.749619 
L 79.800642 -224.428013 
L 79.502246 -193.395517 
L 78.905455 -196.68657 
L 78.308663 -181.545657 
L 78.010267 -202.742608 
L 77.711872 -210.418094 
L 77.11508 -186.094326 
L 76.518289 -209.398942 
L 76.219893 -222.843401 
L 75.921497 -175.715525 
L 75.623102 -250.605129 
L 75.324706 -191.108751 
L 75.02631 -225.37097 
L 74.727914 -180.510611 
L 74.429519 -193.203607 
L 74.131123 -207.447339 
L 73.832727 -211.166301 
z
" style="stroke: #1f77b4; stroke-opacity: 0.2"/>
    </defs>
    <g clip-path="url(#p1d720f7aba)">
     <use xlink:href="#m50e960827a" x="0" y="345.6" style="fill: #1f77b4; fill-opacity: 0.2; stroke: #1f77b4; stroke-opacity: 0.2"/>
    </g>
   </g>
   <g id="matplotlib.axis_1">
    <g id="xtick_1">
     <g id="line2d_1">
      <defs>
       <path id="mbd15920676" d="M 0 0 
L 0 3.5 
" style="stroke: #000000; stroke-width: 0.8"/>
      </defs>
      <g>
       <use xlink:href="#mbd15920676" x="73.534332" y="307.584" style="stroke: #000000; stroke-width: 0.8"/>
      </g>
     </g>
     <g id="text_1">
      <!-- 0 -->
      <g transform="translate(70.353082 322.182437)scale(0.1 -0.1)">
       <defs>
        <path id="DejaVuSans-30" d="M 2034 4250 
Q 1547 4250 1301 3770 
Q 1056 3291 1056 2328 
Q 1056 1369 1301 889 
Q 1547 409 2034 409 
Q 2525 409 2770 889 
Q 3016 1369 3016 2328 
Q 3016 3291 2770 3770 
Q 2525 4250 2034 4250 
z
M 2034 4750 
Q 2819 4750 3233 4129 
Q 3647 3509 3647 2328 
Q 3647 1150 3233 529 
Q 2819 -91 2034 -91 
Q 1250 -91 836 529 
Q 422 1150 422 2328 
Q 422 3509 836 4129 
Q 1250 4750 2034 4750 
z
" transform="scale(0.015625)"/>
       </defs>
       <use xlink:href="#DejaVuSans-30"/>
      </g>
     </g>
    </g>
    <g id="xtick_2">
     <g id="line2d_2">
      <g>
       <use xlink:href="#mbd15920676" x="131.814746" y="307.584" style="stroke: #000000; stroke-width: 0.8"/>
      </g>
     </g>
     <g id="text_2">
      <!-- 100000 -->
      <g transform="translate(112.727246 322.182437)scale(0.1 -0.1)">
       <defs>
        <path id="DejaVuSans-31" d="M 794 531 
L 1825 531 
L 1825 4091 
L 703 3866 
L 703 4441 
L 1819 4666 
L 2450 4666 
L 2450 531 
L 3481 531 
L 3481 0 
L 794 0 
L 794 531 
z
" transform="scale(0.015625)"/>
       </defs>
       <use xlink:href="#DejaVuSans-31"/>
       <use xlink:href="#DejaVuSans-30" x="63.623047"/>
       <use xlink:href="#DejaVuSans-30" x="127.246094"/>
       <use xlink:href="#DejaVuSans-30" x="190.869141"/>
       <use xlink:href="#DejaVuSans-30" x="254.492188"/>
       <use xlink:href="#DejaVuSans-30" x="318.115234"/>
      </g>
     </g>
    </g>
    <g id="xtick_3">
     <g id="line2d_3">
      <g>
       <use xlink:href="#mbd15920676" x="190.09516" y="307.584" style="stroke: #000000; stroke-width: 0.8"/>
      </g>
     </g>
     <g id="text_3">
      <!-- 200000 -->
      <g transform="translate(171.00766 322.182437)scale(0.1 -0.1)">
       <defs>
        <path id="DejaVuSans-32" d="M 1228 531 
L 3431 531 
L 3431 0 
L 469 0 
L 469 531 
Q 828 903 1448 1529 
Q 2069 2156 2228 2338 
Q 2531 2678 2651 2914 
Q 2772 3150 2772 3378 
Q 2772 3750 2511 3984 
Q 2250 4219 1831 4219 
Q 1534 4219 1204 4116 
Q 875 4013 500 3803 
L 500 4441 
Q 881 4594 1212 4672 
Q 1544 4750 1819 4750 
Q 2544 4750 2975 4387 
Q 3406 4025 3406 3419 
Q 3406 3131 3298 2873 
Q 3191 2616 2906 2266 
Q 2828 2175 2409 1742 
Q 1991 1309 1228 531 
z
" transform="scale(0.015625)"/>
       </defs>
       <use xlink:href="#DejaVuSans-32"/>
       <use xlink:href="#DejaVuSans-30" x="63.623047"/>
       <use xlink:href="#DejaVuSans-30" x="127.246094"/>
       <use xlink:href="#DejaVuSans-30" x="190.869141"/>
       <use xlink:href="#DejaVuSans-30" x="254.492188"/>
       <use xlink:href="#DejaVuSans-30" x="318.115234"/>
      </g>
     </g>
    </g>
    <g id="xtick_4">
     <g id="line2d_4">
      <g>
       <use xlink:href="#mbd15920676" x="248.375575" y="307.584" style="stroke: #000000; stroke-width: 0.8"/>
      </g>
     </g>
     <g id="text_4">
      <!-- 300000 -->
      <g transform="translate(229.288075 322.182437)scale(0.1 -0.1)">
       <defs>
        <path id="DejaVuSans-33" d="M 2597 2516 
Q 3050 2419 3304 2112 
Q 3559 1806 3559 1356 
Q 3559 666 3084 287 
Q 2609 -91 1734 -91 
Q 1441 -91 1130 -33 
Q 819 25 488 141 
L 488 750 
Q 750 597 1062 519 
Q 1375 441 1716 441 
Q 2309 441 2620 675 
Q 2931 909 2931 1356 
Q 2931 1769 2642 2001 
Q 2353 2234 1838 2234 
L 1294 2234 
L 1294 2753 
L 1863 2753 
Q 2328 2753 2575 2939 
Q 2822 3125 2822 3475 
Q 2822 3834 2567 4026 
Q 2313 4219 1838 4219 
Q 1578 4219 1281 4162 
Q 984 4106 628 3988 
L 628 4550 
Q 988 4650 1302 4700 
Q 1616 4750 1894 4750 
Q 2613 4750 3031 4423 
Q 3450 4097 3450 3541 
Q 3450 3153 3228 2886 
Q 3006 2619 2597 2516 
z
" transform="scale(0.015625)"/>
       </defs>
       <use xlink:href="#DejaVuSans-33"/>
       <use xlink:href="#DejaVuSans-30" x="63.623047"/>
       <use xlink:href="#DejaVuSans-30" x="127.246094"/>
       <use xlink:href="#DejaVuSans-30" x="190.869141"/>
       <use xlink:href="#DejaVuSans-30" x="254.492188"/>
       <use xlink:href="#DejaVuSans-30" x="318.115234"/>
      </g>
     </g>
    </g>
    <g id="xtick_5">
     <g id="line2d_5">
      <g>
       <use xlink:href="#mbd15920676" x="306.655989" y="307.584" style="stroke: #000000; stroke-width: 0.8"/>
      </g>
     </g>
     <g id="text_5">
      <!-- 400000 -->
      <g transform="translate(287.568489 322.182437)scale(0.1 -0.1)">
       <defs>
        <path id="DejaVuSans-34" d="M 2419 4116 
L 825 1625 
L 2419 1625 
L 2419 4116 
z
M 2253 4666 
L 3047 4666 
L 3047 1625 
L 3713 1625 
L 3713 1100 
L 3047 1100 
L 3047 0 
L 2419 0 
L 2419 1100 
L 313 1100 
L 313 1709 
L 2253 4666 
z
" transform="scale(0.015625)"/>
       </defs>
       <use xlink:href="#DejaVuSans-34"/>
       <use xlink:href="#DejaVuSans-30" x="63.623047"/>
       <use xlink:href="#DejaVuSans-30" x="127.246094"/>
       <use xlink:href="#DejaVuSans-30" x="190.869141"/>
       <use xlink:href="#DejaVuSans-30" x="254.492188"/>
       <use xlink:href="#DejaVuSans-30" x="318.115234"/>
      </g>
     </g>
    </g>
    <g id="xtick_6">
     <g id="line2d_6">
      <g>
       <use xlink:href="#mbd15920676" x="364.936404" y="307.584" style="stroke: #000000; stroke-width: 0.8"/>
      </g>
     </g>
     <g id="text_6">
      <!-- 500000 -->
      <g transform="translate(345.848904 322.182437)scale(0.1 -0.1)">
       <defs>
        <path id="DejaVuSans-35" d="M 691 4666 
L 3169 4666 
L 3169 4134 
L 1269 4134 
L 1269 2991 
Q 1406 3038 1543 3061 
Q 1681 3084 1819 3084 
Q 2600 3084 3056 2656 
Q 3513 2228 3513 1497 
Q 3513 744 3044 326 
Q 2575 -91 1722 -91 
Q 1428 -91 1123 -41 
Q 819 9 494 109 
L 494 744 
Q 775 591 1075 516 
Q 1375 441 1709 441 
Q 2250 441 2565 725 
Q 2881 1009 2881 1497 
Q 2881 1984 2565 2268 
Q 2250 2553 1709 2553 
Q 1456 2553 1204 2497 
Q 953 2441 691 2322 
L 691 4666 
z
" transform="scale(0.015625)"/>
       </defs>
       <use xlink:href="#DejaVuSans-35"/>
       <use xlink:href="#DejaVuSans-30" x="63.623047"/>
       <use xlink:href="#DejaVuSans-30" x="127.246094"/>
       <use xlink:href="#DejaVuSans-30" x="190.869141"/>
       <use xlink:href="#DejaVuSans-30" x="254.492188"/>
       <use xlink:href="#DejaVuSans-30" x="318.115234"/>
      </g>
     </g>
    </g>
    <g id="text_7">
     <!-- Problem Size -->
     <g transform="translate(203.867031 335.860562)scale(0.1 -0.1)">
      <defs>
       <path id="DejaVuSans-50" d="M 1259 4147 
L 1259 2394 
L 2053 2394 
Q 2494 2394 2734 2622 
Q 2975 2850 2975 3272 
Q 2975 3691 2734 3919 
Q 2494 4147 2053 4147 
L 1259 4147 
z
M 628 4666 
L 2053 4666 
Q 2838 4666 3239 4311 
Q 3641 3956 3641 3272 
Q 3641 2581 3239 2228 
Q 2838 1875 2053 1875 
L 1259 1875 
L 1259 0 
L 628 0 
L 628 4666 
z
" transform="scale(0.015625)"/>
       <path id="DejaVuSans-72" d="M 2631 2963 
Q 2534 3019 2420 3045 
Q 2306 3072 2169 3072 
Q 1681 3072 1420 2755 
Q 1159 2438 1159 1844 
L 1159 0 
L 581 0 
L 581 3500 
L 1159 3500 
L 1159 2956 
Q 1341 3275 1631 3429 
Q 1922 3584 2338 3584 
Q 2397 3584 2469 3576 
Q 2541 3569 2628 3553 
L 2631 2963 
z
" transform="scale(0.015625)"/>
       <path id="DejaVuSans-6f" d="M 1959 3097 
Q 1497 3097 1228 2736 
Q 959 2375 959 1747 
Q 959 1119 1226 758 
Q 1494 397 1959 397 
Q 2419 397 2687 759 
Q 2956 1122 2956 1747 
Q 2956 2369 2687 2733 
Q 2419 3097 1959 3097 
z
M 1959 3584 
Q 2709 3584 3137 3096 
Q 3566 2609 3566 1747 
Q 3566 888 3137 398 
Q 2709 -91 1959 -91 
Q 1206 -91 779 398 
Q 353 888 353 1747 
Q 353 2609 779 3096 
Q 1206 3584 1959 3584 
z
" transform="scale(0.015625)"/>
       <path id="DejaVuSans-62" d="M 3116 1747 
Q 3116 2381 2855 2742 
Q 2594 3103 2138 3103 
Q 1681 3103 1420 2742 
Q 1159 2381 1159 1747 
Q 1159 1113 1420 752 
Q 1681 391 2138 391 
Q 2594 391 2855 752 
Q 3116 1113 3116 1747 
z
M 1159 2969 
Q 1341 3281 1617 3432 
Q 1894 3584 2278 3584 
Q 2916 3584 3314 3078 
Q 3713 2572 3713 1747 
Q 3713 922 3314 415 
Q 2916 -91 2278 -91 
Q 1894 -91 1617 61 
Q 1341 213 1159 525 
L 1159 0 
L 581 0 
L 581 4863 
L 1159 4863 
L 1159 2969 
z
" transform="scale(0.015625)"/>
       <path id="DejaVuSans-6c" d="M 603 4863 
L 1178 4863 
L 1178 0 
L 603 0 
L 603 4863 
z
" transform="scale(0.015625)"/>
       <path id="DejaVuSans-65" d="M 3597 1894 
L 3597 1613 
L 953 1613 
Q 991 1019 1311 708 
Q 1631 397 2203 397 
Q 2534 397 2845 478 
Q 3156 559 3463 722 
L 3463 178 
Q 3153 47 2828 -22 
Q 2503 -91 2169 -91 
Q 1331 -91 842 396 
Q 353 884 353 1716 
Q 353 2575 817 3079 
Q 1281 3584 2069 3584 
Q 2775 3584 3186 3129 
Q 3597 2675 3597 1894 
z
M 3022 2063 
Q 3016 2534 2758 2815 
Q 2500 3097 2075 3097 
Q 1594 3097 1305 2825 
Q 1016 2553 972 2059 
L 3022 2063 
z
" transform="scale(0.015625)"/>
       <path id="DejaVuSans-6d" d="M 3328 2828 
Q 3544 3216 3844 3400 
Q 4144 3584 4550 3584 
Q 5097 3584 5394 3201 
Q 5691 2819 5691 2113 
L 5691 0 
L 5113 0 
L 5113 2094 
Q 5113 2597 4934 2840 
Q 4756 3084 4391 3084 
Q 3944 3084 3684 2787 
Q 3425 2491 3425 1978 
L 3425 0 
L 2847 0 
L 2847 2094 
Q 2847 2600 2669 2842 
Q 2491 3084 2119 3084 
Q 1678 3084 1418 2786 
Q 1159 2488 1159 1978 
L 1159 0 
L 581 0 
L 581 3500 
L 1159 3500 
L 1159 2956 
Q 1356 3278 1631 3431 
Q 1906 3584 2284 3584 
Q 2666 3584 2933 3390 
Q 3200 3197 3328 2828 
z
" transform="scale(0.015625)"/>
       <path id="DejaVuSans-20" transform="scale(0.015625)"/>
       <path id="DejaVuSans-53" d="M 3425 4513 
L 3425 3897 
Q 3066 4069 2747 4153 
Q 2428 4238 2131 4238 
Q 1616 4238 1336 4038 
Q 1056 3838 1056 3469 
Q 1056 3159 1242 3001 
Q 1428 2844 1947 2747 
L 2328 2669 
Q 3034 2534 3370 2195 
Q 3706 1856 3706 1288 
Q 3706 609 3251 259 
Q 2797 -91 1919 -91 
Q 1588 -91 1214 -16 
Q 841 59 441 206 
L 441 856 
Q 825 641 1194 531 
Q 1563 422 1919 422 
Q 2459 422 2753 634 
Q 3047 847 3047 1241 
Q 3047 1584 2836 1778 
Q 2625 1972 2144 2069 
L 1759 2144 
Q 1053 2284 737 2584 
Q 422 2884 422 3419 
Q 422 4038 858 4394 
Q 1294 4750 2059 4750 
Q 2388 4750 2728 4690 
Q 3069 4631 3425 4513 
z
" transform="scale(0.015625)"/>
       <path id="DejaVuSans-69" d="M 603 3500 
L 1178 3500 
L 1178 0 
L 603 0 
L 603 3500 
z
M 603 4863 
L 1178 4863 
L 1178 4134 
L 603 4134 
L 603 4863 
z
" transform="scale(0.015625)"/>
       <path id="DejaVuSans-7a" d="M 353 3500 
L 3084 3500 
L 3084 2975 
L 922 459 
L 3084 459 
L 3084 0 
L 275 0 
L 275 525 
L 2438 3041 
L 353 3041 
L 353 3500 
z
" transform="scale(0.015625)"/>
      </defs>
      <use xlink:href="#DejaVuSans-50"/>
      <use xlink:href="#DejaVuSans-72" x="58.552734"/>
      <use xlink:href="#DejaVuSans-6f" x="97.416016"/>
      <use xlink:href="#DejaVuSans-62" x="158.597656"/>
      <use xlink:href="#DejaVuSans-6c" x="222.074219"/>
      <use xlink:href="#DejaVuSans-65" x="249.857422"/>
      <use xlink:href="#DejaVuSans-6d" x="311.380859"/>
      <use xlink:href="#DejaVuSans-20" x="408.792969"/>
      <use xlink:href="#DejaVuSans-53" x="440.580078"/>
      <use xlink:href="#DejaVuSans-69" x="504.056641"/>
      <use xlink:href="#DejaVuSans-7a" x="531.839844"/>
      <use xlink:href="#DejaVuSans-65" x="584.330078"/>
     </g>
    </g>
   </g>
   <g id="matplotlib.axis_2">
    <g id="ytick_1">
     <g id="line2d_7">
      <defs>
       <path id="m9550746ab8" d="M 0 0 
L -3.5 0 
" style="stroke: #000000; stroke-width: 0.8"/>
      </defs>
      <g>
       <use xlink:href="#m9550746ab8" x="57.6" y="267.354311" style="stroke: #000000; stroke-width: 0.8"/>
      </g>
     </g>
     <g id="text_8">
      <!-- 1 -->
      <g transform="translate(44.2375 271.15353)scale(0.1 -0.1)">
       <use xlink:href="#DejaVuSans-31"/>
      </g>
     </g>
    </g>
    <g id="ytick_2">
     <g id="line2d_8">
      <g>
       <use xlink:href="#m9550746ab8" x="57.6" y="224.113854" style="stroke: #000000; stroke-width: 0.8"/>
      </g>
     </g>
     <g id="text_9">
      <!-- 2 -->
      <g transform="translate(44.2375 227.913073)scale(0.1 -0.1)">
       <use xlink:href="#DejaVuSans-32"/>
      </g>
     </g>
    </g>
    <g id="ytick_3">
     <g id="line2d_9">
      <g>
       <use xlink:href="#m9550746ab8" x="57.6" y="180.873397" style="stroke: #000000; stroke-width: 0.8"/>
      </g>
     </g>
     <g id="text_10">
      <!-- 3 -->
      <g transform="translate(44.2375 184.672616)scale(0.1 -0.1)">
       <use xlink:href="#DejaVuSans-33"/>
      </g>
     </g>
    </g>
    <g id="ytick_4">
     <g id="line2d_10">
      <g>
       <use xlink:href="#m9550746ab8" x="57.6" y="137.632941" style="stroke: #000000; stroke-width: 0.8"/>
      </g>
     </g>
     <g id="text_11">
      <!-- 4 -->
      <g transform="translate(44.2375 141.432159)scale(0.1 -0.1)">
       <use xlink:href="#DejaVuSans-34"/>
      </g>
     </g>
    </g>
    <g id="ytick_5">
     <g id="line2d_11">
      <g>
       <use xlink:href="#m9550746ab8" x="57.6" y="94.392484" style="stroke: #000000; stroke-width: 0.8"/>
      </g>
     </g>
     <g id="text_12">
      <!-- 5 -->
      <g transform="translate(44.2375 98.191702)scale(0.1 -0.1)">
       <use xlink:href="#DejaVuSans-35"/>
      </g>
     </g>
    </g>
    <g id="ytick_6">
     <g id="line2d_12">
      <g>
       <use xlink:href="#m9550746ab8" x="57.6" y="51.152027" style="stroke: #000000; stroke-width: 0.8"/>
      </g>
     </g>
     <g id="text_13">
      <!-- 6 -->
      <g transform="translate(44.2375 54.951246)scale(0.1 -0.1)">
       <defs>
        <path id="DejaVuSans-36" d="M 2113 2584 
Q 1688 2584 1439 2293 
Q 1191 2003 1191 1497 
Q 1191 994 1439 701 
Q 1688 409 2113 409 
Q 2538 409 2786 701 
Q 3034 994 3034 1497 
Q 3034 2003 2786 2293 
Q 2538 2584 2113 2584 
z
M 3366 4563 
L 3366 3988 
Q 3128 4100 2886 4159 
Q 2644 4219 2406 4219 
Q 1781 4219 1451 3797 
Q 1122 3375 1075 2522 
Q 1259 2794 1537 2939 
Q 1816 3084 2150 3084 
Q 2853 3084 3261 2657 
Q 3669 2231 3669 1497 
Q 3669 778 3244 343 
Q 2819 -91 2113 -91 
Q 1303 -91 875 529 
Q 447 1150 447 2328 
Q 447 3434 972 4092 
Q 1497 4750 2381 4750 
Q 2619 4750 2861 4703 
Q 3103 4656 3366 4563 
z
" transform="scale(0.015625)"/>
       </defs>
       <use xlink:href="#DejaVuSans-36"/>
      </g>
     </g>
    </g>
    <g id="text_14">
     <!-- GFLOPS -->
     <g transform="translate(38.157812 194.007688)rotate(-90)scale(0.1 -0.1)">
      <defs>
       <path id="DejaVuSans-47" d="M 3809 666 
L 3809 1919 
L 2778 1919 
L 2778 2438 
L 4434 2438 
L 4434 434 
Q 4069 175 3628 42 
Q 3188 -91 2688 -91 
Q 1594 -91 976 548 
Q 359 1188 359 2328 
Q 359 3472 976 4111 
Q 1594 4750 2688 4750 
Q 3144 4750 3555 4637 
Q 3966 4525 4313 4306 
L 4313 3634 
Q 3963 3931 3569 4081 
Q 3175 4231 2741 4231 
Q 1884 4231 1454 3753 
Q 1025 3275 1025 2328 
Q 1025 1384 1454 906 
Q 1884 428 2741 428 
Q 3075 428 3337 486 
Q 3600 544 3809 666 
z
" transform="scale(0.015625)"/>
       <path id="DejaVuSans-46" d="M 628 4666 
L 3309 4666 
L 3309 4134 
L 1259 4134 
L 1259 2759 
L 3109 2759 
L 3109 2228 
L 1259 2228 
L 1259 0 
L 628 0 
L 628 4666 
z
" transform="scale(0.015625)"/>
       <path id="DejaVuSans-4c" d="M 628 4666 
L 1259 4666 
L 1259 531 
L 3531 531 
L 3531 0 
L 628 0 
L 628 4666 
z
" transform="scale(0.015625)"/>
       <path id="DejaVuSans-4f" d="M 2522 4238 
Q 1834 4238 1429 3725 
Q 1025 3213 1025 2328 
Q 1025 1447 1429 934 
Q 1834 422 2522 422 
Q 3209 422 3611 934 
Q 4013 1447 4013 2328 
Q 4013 3213 3611 3725 
Q 3209 4238 2522 4238 
z
M 2522 4750 
Q 3503 4750 4090 4092 
Q 4678 3434 4678 2328 
Q 4678 1225 4090 567 
Q 3503 -91 2522 -91 
Q 1538 -91 948 565 
Q 359 1222 359 2328 
Q 359 3434 948 4092 
Q 1538 4750 2522 4750 
z
" transform="scale(0.015625)"/>
      </defs>
      <use xlink:href="#DejaVuSans-47"/>
      <use xlink:href="#DejaVuSans-46" x="77.490234"/>
      <use xlink:href="#DejaVuSans-4c" x="135.009766"/>
      <use xlink:href="#DejaVuSans-4f" x="187.097656"/>
      <use xlink:href="#DejaVuSans-50" x="265.808594"/>
      <use xlink:href="#DejaVuSans-53" x="326.111328"/>
     </g>
    </g>
   </g>
   <g id="line2d_13">
    <path d="M 73.832727 225.506091 
L 74.131123 197.047141 
L 74.429519 211.409952 
L 74.727914 204.183739 
L 75.02631 181.788621 
L 75.324706 191.794657 
L 75.623102 170.790797 
L 75.921497 199.947597 
L 76.518289 181.097203 
L 77.11508 188.426581 
L 77.711872 182.653505 
L 78.308663 196.994939 
L 78.905455 191.413126 
L 79.502246 190.826977 
L 79.800642 176.2014 
L 80.695829 193.442644 
L 80.994225 183.290249 
L 81.591016 192.197738 
L 81.889412 190.457746 
L 82.486203 188.477371 
L 83.082995 205.473305 
L 83.978182 204.024436 
L 84.276578 193.823365 
L 85.47016 198.114714 
L 86.066952 190.423226 
L 86.663743 199.977849 
L 86.962139 213.468143 
L 87.857326 205.37432 
L 88.155722 211.910799 
L 88.454118 184.723355 
L 89.647701 210.305801 
L 90.244492 211.59163 
L 91.438075 206.732254 
L 92.333262 222.376636 
L 92.631658 221.112346 
L 93.228449 214.715439 
L 94.422032 204.158319 
L 95.018824 223.828645 
L 95.914011 218.100913 
L 97.405989 223.292974 
L 97.704385 234.871687 
L 98.599572 217.733963 
L 99.793155 232.133136 
L 100.389947 222.95578 
L 102.180321 223.999718 
L 102.777112 228.64271 
L 103.075508 229.36757 
L 103.373904 219.896732 
L 104.865882 235.41064 
L 105.76107 224.423567 
L 106.357861 214.330641 
L 106.954652 229.271341 
L 109.341818 224.596038 
L 110.833797 226.579955 
L 111.728984 235.76545 
L 112.922567 227.660814 
L 113.817754 235.024491 
L 115.309733 228.315808 
L 116.503316 228.726725 
L 117.398503 247.610982 
L 118.29369 223.914535 
L 119.487273 222.892501 
L 121.277647 233.192494 
L 121.874439 231.63085 
L 122.769626 225.603002 
L 123.664813 227.407783 
L 125.753583 228.698899 
L 126.051979 233.238027 
L 127.245561 222.903679 
L 129.931123 247.61662 
L 130.82631 225.198258 
L 132.019893 227.51537 
L 132.616684 237.541362 
L 133.213476 225.787764 
L 136.197433 228.710137 
L 137.987807 233.967391 
L 139.18139 224.590513 
L 140.374973 231.565685 
L 140.673369 221.162617 
L 142.463743 239.681305 
L 145.149305 220.091704 
L 146.044492 243.250067 
L 148.133262 215.789455 
L 148.730053 224.535937 
L 149.923636 236.725031 
L 152.310802 228.14428 
L 154.101176 227.938339 
L 155.593155 216.190609 
L 157.085134 233.344465 
L 159.472299 226.400869 
L 161.262674 227.522018 
L 162.157861 240.649212 
L 163.053048 211.05354 
L 165.440214 230.024421 
L 167.528984 232.248197 
L 169.020963 229.449208 
L 170.214545 224.301558 
L 172.00492 215.942292 
L 173.795294 227.412097 
L 175.884064 247.233446 
L 177.972834 223.778898 
L 178.569626 227.463898 
L 180.956791 222.528527 
L 181.851979 231.025132 
L 186.327914 230.662872 
L 188.118289 227.307823 
L 188.416684 226.211024 
L 190.505455 251.74842 
L 191.699037 216.95674 
L 192.89262 216.811548 
L 194.384599 226.164335 
L 198.860535 209.102584 
L 202.441283 228.012182 
L 204.828449 217.659322 
L 205.126845 252.266865 
L 207.215615 257.173483 
L 207.812406 219.060705 
L 211.393155 212.311912 
L 216.764278 212.836445 
L 217.957861 216.038331 
L 218.554652 230.02493 
L 219.748235 253.697667 
L 221.240214 220.872442 
L 222.732193 198.698555 
L 223.925775 250.366433 
L 226.312941 248.943173 
L 231.087273 218.263386 
L 234.369626 259.821748 
L 234.668021 216.114586 
L 237.651979 198.969579 
L 240.635936 253.535245 
L 242.724706 256.751052 
L 245.410267 248.519201 
L 250.78139 212.75827 
L 252.571765 184.033842 
L 254.063743 198.823261 
L 257.346096 251.153436 
L 261.523636 251.463005 
L 264.507594 246.479981 
L 266.894759 256.260302 
L 270.475508 189.162665 
L 280.322567 250.956898 
L 283.60492 248.884366 
L 288.379251 250.883043 
L 290.169626 185.471732 
L 291.064813 260.537799 
L 303.299037 248.816046 
L 309.863743 251.092986 
L 312.250909 248.355319 
L 315.234866 248.127766 
L 326.275508 247.837082 
L 336.122567 249.18759 
L 339.40492 253.910691 
L 342.090481 247.818057 
L 362.38139 249.474815 
L 368.946096 254.731622 
L 398.487273 259.661056 
L 398.487273 259.661056 
" clip-path="url(#p1d720f7aba)" style="fill: none; stroke: #1f77b4; stroke-width: 1.5; stroke-linecap: square"/>
   </g>
   <g id="line2d_14"/>
   <g id="patch_3">
    <path d="M 57.6 307.584 
L 57.6 41.472 
" style="fill: none; stroke: #000000; stroke-width: 0.8; stroke-linejoin: miter; stroke-linecap: square"/>
   </g>
   <g id="patch_4">
    <path d="M 414.72 307.584 
L 414.72 41.472 
" style="fill: none; stroke: #000000; stroke-width: 0.8; stroke-linejoin: miter; stroke-linecap: square"/>
   </g>
   <g id="patch_5">
    <path d="M 57.6 307.584 
L 414.72 307.584 
" style="fill: none; stroke: #000000; stroke-width: 0.8; stroke-linejoin: miter; stroke-linecap: square"/>
   </g>
   <g id="patch_6">
    <path d="M 57.6 41.472 
L 414.72 41.472 
" style="fill: none; stroke: #000000; stroke-width: 0.8; stroke-linejoin: miter; stroke-linecap: square"/>
   </g>
   <g id="text_15">
    <!-- Performance vs Local Problem Size -->
    <g transform="translate(131.440313 35.472)scale(0.12 -0.12)">
     <defs>
      <path id="DejaVuSans-66" d="M 2375 4863 
L 2375 4384 
L 1825 4384 
Q 1516 4384 1395 4259 
Q 1275 4134 1275 3809 
L 1275 3500 
L 2222 3500 
L 2222 3053 
L 1275 3053 
L 1275 0 
L 697 0 
L 697 3053 
L 147 3053 
L 147 3500 
L 697 3500 
L 697 3744 
Q 697 4328 969 4595 
Q 1241 4863 1831 4863 
L 2375 4863 
z
" transform="scale(0.015625)"/>
      <path id="DejaVuSans-61" d="M 2194 1759 
Q 1497 1759 1228 1600 
Q 959 1441 959 1056 
Q 959 750 1161 570 
Q 1363 391 1709 391 
Q 2188 391 2477 730 
Q 2766 1069 2766 1631 
L 2766 1759 
L 2194 1759 
z
M 3341 1997 
L 3341 0 
L 2766 0 
L 2766 531 
Q 2569 213 2275 61 
Q 1981 -91 1556 -91 
Q 1019 -91 701 211 
Q 384 513 384 1019 
Q 384 1609 779 1909 
Q 1175 2209 1959 2209 
L 2766 2209 
L 2766 2266 
Q 2766 2663 2505 2880 
Q 2244 3097 1772 3097 
Q 1472 3097 1187 3025 
Q 903 2953 641 2809 
L 641 3341 
Q 956 3463 1253 3523 
Q 1550 3584 1831 3584 
Q 2591 3584 2966 3190 
Q 3341 2797 3341 1997 
z
" transform="scale(0.015625)"/>
      <path id="DejaVuSans-6e" d="M 3513 2113 
L 3513 0 
L 2938 0 
L 2938 2094 
Q 2938 2591 2744 2837 
Q 2550 3084 2163 3084 
Q 1697 3084 1428 2787 
Q 1159 2491 1159 1978 
L 1159 0 
L 581 0 
L 581 3500 
L 1159 3500 
L 1159 2956 
Q 1366 3272 1645 3428 
Q 1925 3584 2291 3584 
Q 2894 3584 3203 3211 
Q 3513 2838 3513 2113 
z
" transform="scale(0.015625)"/>
      <path id="DejaVuSans-63" d="M 3122 3366 
L 3122 2828 
Q 2878 2963 2633 3030 
Q 2388 3097 2138 3097 
Q 1578 3097 1268 2742 
Q 959 2388 959 1747 
Q 959 1106 1268 751 
Q 1578 397 2138 397 
Q 2388 397 2633 464 
Q 2878 531 3122 666 
L 3122 134 
Q 2881 22 2623 -34 
Q 2366 -91 2075 -91 
Q 1284 -91 818 406 
Q 353 903 353 1747 
Q 353 2603 823 3093 
Q 1294 3584 2113 3584 
Q 2378 3584 2631 3529 
Q 2884 3475 3122 3366 
z
" transform="scale(0.015625)"/>
      <path id="DejaVuSans-76" d="M 191 3500 
L 800 3500 
L 1894 563 
L 2988 3500 
L 3597 3500 
L 2284 0 
L 1503 0 
L 191 3500 
z
" transform="scale(0.015625)"/>
      <path id="DejaVuSans-73" d="M 2834 3397 
L 2834 2853 
Q 2591 2978 2328 3040 
Q 2066 3103 1784 3103 
Q 1356 3103 1142 2972 
Q 928 2841 928 2578 
Q 928 2378 1081 2264 
Q 1234 2150 1697 2047 
L 1894 2003 
Q 2506 1872 2764 1633 
Q 3022 1394 3022 966 
Q 3022 478 2636 193 
Q 2250 -91 1575 -91 
Q 1294 -91 989 -36 
Q 684 19 347 128 
L 347 722 
Q 666 556 975 473 
Q 1284 391 1588 391 
Q 1994 391 2212 530 
Q 2431 669 2431 922 
Q 2431 1156 2273 1281 
Q 2116 1406 1581 1522 
L 1381 1569 
Q 847 1681 609 1914 
Q 372 2147 372 2553 
Q 372 3047 722 3315 
Q 1072 3584 1716 3584 
Q 2034 3584 2315 3537 
Q 2597 3491 2834 3397 
z
" transform="scale(0.015625)"/>
     </defs>
     <use xlink:href="#DejaVuSans-50"/>
     <use xlink:href="#DejaVuSans-65" x="56.677734"/>
     <use xlink:href="#DejaVuSans-72" x="118.201172"/>
     <use xlink:href="#DejaVuSans-66" x="159.314453"/>
     <use xlink:href="#DejaVuSans-6f" x="194.519531"/>
     <use xlink:href="#DejaVuSans-72" x="255.701172"/>
     <use xlink:href="#DejaVuSans-6d" x="295.064453"/>
     <use xlink:href="#DejaVuSans-61" x="392.476562"/>
     <use xlink:href="#DejaVuSans-6e" x="453.755859"/>
     <use xlink:href="#DejaVuSans-63" x="517.134766"/>
     <use xlink:href="#DejaVuSans-65" x="572.115234"/>
     <use xlink:href="#DejaVuSans-20" x="633.638672"/>
     <use xlink:href="#DejaVuSans-76" x="665.425781"/>
     <use xlink:href="#DejaVuSans-73" x="724.605469"/>
     <use xlink:href="#DejaVuSans-20" x="776.705078"/>
     <use xlink:href="#DejaVuSans-4c" x="808.492188"/>
     <use xlink:href="#DejaVuSans-6f" x="862.455078"/>
     <use xlink:href="#DejaVuSans-63" x="923.636719"/>
     <use xlink:href="#DejaVuSans-61" x="978.617188"/>
     <use xlink:href="#DejaVuSans-6c" x="1039.896484"/>
     <use xlink:href="#DejaVuSans-20" x="1067.679688"/>
     <use xlink:href="#DejaVuSans-50" x="1099.466797"/>
     <use xlink:href="#DejaVuSans-72" x="1158.019531"/>
     <use xlink:href="#DejaVuSans-6f" x="1196.882812"/>
     <use xlink:href="#DejaVuSans-62" x="1258.064453"/>
     <use xlink:href="#DejaVuSans-6c" x="1321.541016"/>
     <use xlink:href="#DejaVuSans-65" x="1349.324219"/>
     <use xlink:href="#DejaVuSans-6d" x="1410.847656"/>
     <use xlink:href="#DejaVuSans-20" x="1508.259766"/>
     <use xlink:href="#DejaVuSans-53" x="1540.046875"/>
     <use xlink:href="#DejaVuSans-69" x="1603.523438"/>
     <use xlink:href="#DejaVuSans-7a" x="1631.306641"/>
     <use xlink:href="#DejaVuSans-65" x="1683.796875"/>
    </g>
   </g>
   <g id="legend_1">
    <g id="patch_7">
     <path d="M 339.12 78.82825 
L 407.72 78.82825 
Q 409.72 78.82825 409.72 76.82825 
L 409.72 48.472 
Q 409.72 46.472 407.72 46.472 
L 339.12 46.472 
Q 337.12 46.472 337.12 48.472 
L 337.12 76.82825 
Q 337.12 78.82825 339.12 78.82825 
z
" style="fill: #ffffff; opacity: 0.8; stroke: #cccccc; stroke-linejoin: miter"/>
    </g>
    <g id="text_16">
     <!-- Cluster -->
     <g transform="translate(355.673906 58.070437)scale(0.1 -0.1)">
      <defs>
       <path id="DejaVuSans-43" d="M 4122 4306 
L 4122 3641 
Q 3803 3938 3442 4084 
Q 3081 4231 2675 4231 
Q 1875 4231 1450 3742 
Q 1025 3253 1025 2328 
Q 1025 1406 1450 917 
Q 1875 428 2675 428 
Q 3081 428 3442 575 
Q 3803 722 4122 1019 
L 4122 359 
Q 3791 134 3420 21 
Q 3050 -91 2638 -91 
Q 1578 -91 968 557 
Q 359 1206 359 2328 
Q 359 3453 968 4101 
Q 1578 4750 2638 4750 
Q 3056 4750 3426 4639 
Q 3797 4528 4122 4306 
z
" transform="scale(0.015625)"/>
       <path id="DejaVuSans-75" d="M 544 1381 
L 544 3500 
L 1119 3500 
L 1119 1403 
Q 1119 906 1312 657 
Q 1506 409 1894 409 
Q 2359 409 2629 706 
Q 2900 1003 2900 1516 
L 2900 3500 
L 3475 3500 
L 3475 0 
L 2900 0 
L 2900 538 
Q 2691 219 2414 64 
Q 2138 -91 1772 -91 
Q 1169 -91 856 284 
Q 544 659 544 1381 
z
M 1991 3584 
L 1991 3584 
z
" transform="scale(0.015625)"/>
       <path id="DejaVuSans-74" d="M 1172 4494 
L 1172 3500 
L 2356 3500 
L 2356 3053 
L 1172 3053 
L 1172 1153 
Q 1172 725 1289 603 
Q 1406 481 1766 481 
L 2356 481 
L 2356 0 
L 1766 0 
Q 1100 0 847 248 
Q 594 497 594 1153 
L 594 3053 
L 172 3053 
L 172 3500 
L 594 3500 
L 594 4494 
L 1172 4494 
z
" transform="scale(0.015625)"/>
      </defs>
      <use xlink:href="#DejaVuSans-43"/>
      <use xlink:href="#DejaVuSans-6c" x="69.824219"/>
      <use xlink:href="#DejaVuSans-75" x="97.607422"/>
      <use xlink:href="#DejaVuSans-73" x="160.986328"/>
      <use xlink:href="#DejaVuSans-74" x="213.085938"/>
      <use xlink:href="#DejaVuSans-65" x="252.294922"/>
      <use xlink:href="#DejaVuSans-72" x="313.818359"/>
     </g>
    </g>
    <g id="line2d_15">
     <path d="M 341.12 69.248562 
L 351.12 69.248562 
L 361.12 69.248562 
" style="fill: none; stroke: #1f77b4; stroke-width: 1.5; stroke-linecap: square"/>
    </g>
    <g id="text_17">
     <!-- Hopper -->
     <g transform="translate(369.12 72.748562)scale(0.1 -0.1)">
      <defs>
       <path id="DejaVuSans-48" d="M 628 4666 
L 1259 4666 
L 1259 2753 
L 3553 2753 
L 3553 4666 
L 4184 4666 
L 4184 0 
L 3553 0 
L 3553 2222 
L 1259 2222 
L 1259 0 
L 628 0 
L 628 4666 
z
" transform="scale(0.015625)"/>
       <path id="DejaVuSans-70" d="M 1159 525 
L 1159 -1331 
L 581 -1331 
L 581 3500 
L 1159 3500 
L 1159 2969 
Q 1341 3281 1617 3432 
Q 1894 3584 2278 3584 
Q 2916 3584 3314 3078 
Q 3713 2572 3713 1747 
Q 3713 922 3314 415 
Q 2916 -91 2278 -91 
Q 1894 -91 1617 61 
Q 1341 213 1159 525 
z
M 3116 1747 
Q 3116 2381 2855 2742 
Q 2594 3103 2138 3103 
Q 1681 3103 1420 2742 
Q 1159 2381 1159 1747 
Q 1159 1113 1420 752 
Q 1681 391 2138 391 
Q 2594 391 2855 752 
Q 3116 1113 3116 1747 
z
" transform="scale(0.015625)"/>
      </defs>
      <use xlink:href="#DejaVuSans-48"/>
      <use xlink:href="#DejaVuSans-6f" x="75.195312"/>
      <use xlink:href="#DejaVuSans-70" x="136.376953"/>
      <use xlink:href="#DejaVuSans-70" x="199.853516"/>
      <use xlink:href="#DejaVuSans-65" x="263.330078"/>
      <use xlink:href="#DejaVuSans-72" x="324.853516"/>
     </g>
    </g>
   </g>
  </g>
 </g>
 <defs>
  <clipPath id="p1d720f7aba">
   <rect x="57.6" y="41.472" width="357.12" height="266.112"/>
  </clipPath>
 </defs>
</svg>
