<?xml version="1.0" encoding="utf-8" standalone="no"?>
<!DOCTYPE svg PUBLIC "-//W3C//DTD SVG 1.1//EN"
  "http://www.w3.org/Graphics/SVG/1.1/DTD/svg11.dtd">
<svg xmlns:xlink="http://www.w3.org/1999/xlink" width="460.8pt" height="345.6pt" viewBox="0 0 460.8 345.6" xmlns="http://www.w3.org/2000/svg" version="1.1">
 <metadata>
  <rdf:RDF xmlns:dc="http://purl.org/dc/elements/1.1/" xmlns:cc="http://creativecommons.org/ns#" xmlns:rdf="http://www.w3.org/1999/02/22-rdf-syntax-ns#">
   <cc:Work>
    <dc:type rdf:resource="http://purl.org/dc/dcmitype/StillImage"/>
    <dc:date>2024-05-05T11:08:53.429440</dc:date>
    <dc:format>image/svg+xml</dc:format>
    <dc:creator>
     <cc:Agent>
      <dc:title>Matplotlib v3.5.3, https://matplotlib.org/</dc:title>
     </cc:Agent>
    </dc:creator>
   </cc:Work>
  </rdf:RDF>
 </metadata>
 <defs>
  <style type="text/css">*{stroke-linejoin: round; stroke-linecap: butt}</style>
 </defs>
 <g id="figure_1">
  <g id="patch_1">
   <path d="M 0 345.6 
L 460.8 345.6 
L 460.8 0 
L 0 0 
z
" style="fill: #ffffff"/>
  </g>
  <g id="axes_1">
   <g id="patch_2">
    <path d="M 57.6 307.584 
L 414.72 307.584 
L 414.72 41.472 
L 57.6 41.472 
z
" style="fill: #ffffff"/>
   </g>
   <g id="PolyCollection_1">
    <defs>
     <path id="m179b1e90ef" d="M 73.832727 -207.623061 
L 73.832727 -77.084506 
L 74.131123 -119.763889 
L 74.429519 -116.368172 
L 74.727914 -124.40125 
L 75.02631 -147.008662 
L 75.324706 -146.852717 
L 75.623102 -160.467191 
L 75.921497 -145.505839 
L 76.219893 -141.496153 
L 76.518289 -152.971437 
L 77.11508 -165.603904 
L 77.711872 -157.159374 
L 78.010267 -151.970661 
L 78.308663 -157.990901 
L 78.905455 -163.312594 
L 79.502246 -169.63027 
L 79.800642 -160.410894 
L 80.695829 -167.190738 
L 80.994225 -157.392289 
L 81.591016 -129.062599 
L 81.889412 -160.73016 
L 82.486203 -172.282584 
L 83.082995 -161.048667 
L 83.978182 -147.63967 
L 84.276578 -167.278759 
L 85.47016 -161.224027 
L 86.066952 -153.886704 
L 86.663743 -132.373445 
L 86.962139 -131.613832 
L 87.857326 -158.685816 
L 88.155722 -118.421032 
L 88.454118 -148.593564 
L 89.647701 -162.465523 
L 90.244492 -143.200178 
L 91.438075 -162.847733 
L 92.333262 -141.919487 
L 92.631658 -147.015851 
L 93.228449 -146.348641 
L 94.422032 -145.830906 
L 95.018824 -146.467275 
L 95.914011 -119.954496 
L 97.405989 -142.340736 
L 97.704385 -115.957273 
L 98.599572 -147.782012 
L 99.793155 -131.941251 
L 100.389947 -136.617674 
L 102.180321 -128.702063 
L 102.777112 -111.958449 
L 103.075508 -116.525229 
L 103.373904 -128.962509 
L 104.865882 -119.354926 
L 105.76107 -131.376329 
L 106.357861 -116.338868 
L 106.954652 -123.454137 
L 109.341818 -123.305824 
L 110.833797 -64.312216 
L 111.132193 -115.893192 
L 111.728984 -109.895818 
L 112.922567 -110.509552 
L 113.817754 -105.106357 
L 115.309733 -109.220818 
L 116.503316 -110.456905 
L 117.398503 -96.678401 
L 118.29369 -104.947151 
L 119.487273 -99.1846 
L 121.277647 -104.743619 
L 121.874439 -101.080526 
L 122.769626 -99.227966 
L 123.664813 -108.315706 
L 125.753583 -96.862134 
L 126.051979 -96.091146 
L 127.245561 -107.86509 
L 129.931123 -97.772533 
L 130.82631 -99.598552 
L 132.019893 -87.870561 
L 132.616684 -96.204123 
L 133.213476 -101.247443 
L 136.197433 -98.897989 
L 137.987807 -100.382575 
L 139.18139 -95.526997 
L 140.374973 -96.113466 
L 140.673369 -92.166234 
L 142.463743 -88.396522 
L 145.149305 -102.7387 
L 145.746096 -62.576511 
L 146.044492 -80.886299 
L 146.641283 -83.29847 
L 148.133262 -86.382159 
L 148.730053 -94.690755 
L 149.923636 -74.949279 
L 152.310802 -91.653233 
L 154.101176 -95.000661 
L 155.593155 -86.144543 
L 157.085134 -96.271181 
L 159.472299 -91.842301 
L 161.262674 -74.171808 
L 162.157861 -87.875789 
L 163.053048 -96.007189 
L 165.440214 -87.577614 
L 167.528984 -93.112053 
L 169.020963 -93.482458 
L 170.214545 -91.82791 
L 172.00492 -93.137341 
L 173.795294 -87.968817 
L 175.884064 -71.653007 
L 177.972834 -85.586141 
L 178.569626 -86.305986 
L 180.956791 -97.978602 
L 181.851979 -50.112 
L 186.327914 -89.248726 
L 188.118289 -78.745715 
L 188.416684 -84.108569 
L 190.505455 -78.166658 
L 191.699037 -87.448835 
L 192.89262 -96.382302 
L 194.384599 -86.420567 
L 198.860535 -85.301027 
L 202.441283 -84.536746 
L 204.828449 -87.0404 
L 205.126845 -73.86251 
L 207.215615 -78.907953 
L 207.812406 -87.352596 
L 211.393155 -80.389291 
L 216.764278 -86.27477 
L 217.957861 -60.508509 
L 218.554652 -80.779394 
L 219.748235 -76.611443 
L 221.240214 -88.948938 
L 222.732193 -79.841634 
L 223.925775 -86.348992 
L 226.312941 -61.041686 
L 231.087273 -80.467622 
L 234.369626 -68.397907 
L 234.668021 -79.82085 
L 237.651979 -79.276586 
L 240.635936 -80.851342 
L 242.724706 -70.648304 
L 245.410267 -73.905463 
L 250.78139 -84.733972 
L 252.571765 -73.437776 
L 254.063743 -70.052796 
L 257.346096 -74.269808 
L 261.523636 -75.856983 
L 264.507594 -67.248993 
L 266.894759 -71.478136 
L 270.475508 -80.607545 
L 280.322567 -76.158616 
L 282.411337 -62.339249 
L 283.60492 -71.796371 
L 288.379251 -79.624724 
L 290.169626 -74.182776 
L 291.064813 -60.148435 
L 303.299037 -72.050451 
L 309.863743 -70.35078 
L 312.250909 -61.149817 
L 315.234866 -59.582452 
L 326.275508 -64.803057 
L 336.122567 -68.397403 
L 339.40492 -69.025645 
L 342.090481 -54.366694 
L 362.38139 -53.535197 
L 368.946096 -65.852461 
L 398.487273 -53.234389 
L 398.487273 -124.862863 
L 398.487273 -124.862863 
L 368.946096 -113.882229 
L 362.38139 -120.850025 
L 342.090481 -120.936995 
L 339.40492 -117.246767 
L 336.122567 -116.225596 
L 326.275508 -126.134423 
L 315.234866 -107.972858 
L 312.250909 -125.798643 
L 309.863743 -105.884086 
L 303.299037 -118.519588 
L 291.064813 -130.374528 
L 290.169626 -154.764483 
L 288.379251 -114.278301 
L 283.60492 -118.894545 
L 282.411337 -130.023736 
L 280.322567 -111.609557 
L 270.475508 -139.182505 
L 266.894759 -113.596406 
L 264.507594 -115.063263 
L 261.523636 -110.270882 
L 257.346096 -110.413714 
L 254.063743 -150.632873 
L 252.571765 -155.992545 
L 250.78139 -122.223523 
L 245.410267 -114.566735 
L 242.724706 -113.819365 
L 240.635936 -115.936009 
L 237.651979 -147.240113 
L 234.668021 -120.428555 
L 234.369626 -118.936079 
L 231.087273 -120.000592 
L 226.312941 -126.432909 
L 223.925775 -113.896128 
L 222.732193 -178.811535 
L 221.240214 -130.213478 
L 219.748235 -122.757138 
L 218.554652 -124.166596 
L 217.957861 -173.658375 
L 216.764278 -124.434072 
L 211.393155 -122.38678 
L 207.812406 -130.11977 
L 207.215615 -119.990267 
L 205.126845 -114.723929 
L 204.828449 -123.831446 
L 202.441283 -115.883097 
L 198.860535 -125.532855 
L 194.384599 -134.388788 
L 192.89262 -136.566016 
L 191.699037 -124.909301 
L 190.505455 -119.144244 
L 188.416684 -127.795453 
L 188.118289 -124.897203 
L 186.327914 -121.699863 
L 181.851979 -140.581023 
L 180.956791 -123.936588 
L 178.569626 -133.800149 
L 177.972834 -127.33909 
L 175.884064 -140.652169 
L 173.795294 -121.895725 
L 172.00492 -131.539216 
L 170.214545 -127.596169 
L 169.020963 -125.709126 
L 167.528984 -129.132094 
L 165.440214 -137.582791 
L 163.053048 -144.595707 
L 162.157861 -133.776219 
L 161.262674 -118.907606 
L 159.472299 -122.246457 
L 157.085134 -124.735417 
L 155.593155 -164.913241 
L 154.101176 -126.450901 
L 152.310802 -124.514103 
L 149.923636 -124.152401 
L 148.730053 -125.227854 
L 148.133262 -158.175776 
L 146.641283 -135.356422 
L 146.044492 -131.987967 
L 145.746096 -159.55435 
L 145.149305 -128.912023 
L 142.463743 -143.753372 
L 140.673369 -150.4846 
L 140.374973 -134.200326 
L 139.18139 -136.329413 
L 137.987807 -126.752146 
L 136.197433 -128.389513 
L 133.213476 -140.397976 
L 132.616684 -132.873046 
L 132.019893 -136.258098 
L 130.82631 -131.23296 
L 129.931123 -138.538503 
L 127.245561 -132.203836 
L 126.051979 -141.500863 
L 125.753583 -157.94808 
L 123.664813 -136.079869 
L 122.769626 -152.776917 
L 121.874439 -134.966956 
L 121.277647 -133.983659 
L 119.487273 -149.692382 
L 118.29369 -143.600384 
L 117.398503 -154.681143 
L 116.503316 -133.837342 
L 115.309733 -145.903281 
L 113.817754 -150.324693 
L 112.922567 -151.394186 
L 111.728984 -154.345665 
L 111.132193 -146.159044 
L 110.833797 -201.240945 
L 109.341818 -147.764006 
L 106.954652 -162.628843 
L 106.357861 -179.68244 
L 105.76107 -163.512046 
L 104.865882 -170.094874 
L 103.373904 -176.43598 
L 103.075508 -209.950585 
L 102.777112 -176.861007 
L 102.180321 -159.558985 
L 100.389947 -171.408766 
L 99.793155 -199.97864 
L 98.599572 -188.555555 
L 97.704385 -182.854466 
L 97.405989 -178.996627 
L 95.914011 -207.98443 
L 95.018824 -178.10179 
L 94.422032 -197.493811 
L 93.228449 -220.951693 
L 92.631658 -190.588876 
L 92.333262 -215.070284 
L 91.438075 -197.425335 
L 90.244492 -181.333019 
L 89.647701 -212.093193 
L 88.454118 -236.076271 
L 88.155722 -187.104964 
L 87.857326 -189.048807 
L 86.962139 -215.138137 
L 86.663743 -225.551272 
L 86.066952 -192.098249 
L 85.47016 -199.397981 
L 84.276578 -207.088112 
L 83.978182 -209.625391 
L 83.082995 -202.473092 
L 82.486203 -216.185033 
L 81.889412 -207.796808 
L 81.591016 -292.032 
L 80.994225 -245.13375 
L 80.695829 -199.114118 
L 79.800642 -219.57833 
L 79.502246 -219.966184 
L 78.905455 -212.845722 
L 78.308663 -200.104926 
L 78.010267 -213.38617 
L 77.711872 -219.561183 
L 77.11508 -204.694852 
L 76.518289 -210.945117 
L 76.219893 -229.081679 
L 75.921497 -192.249025 
L 75.623102 -249.842258 
L 75.324706 -192.758235 
L 75.02631 -227.836547 
L 74.727914 -177.97105 
L 74.429519 -195.845141 
L 74.131123 -193.296807 
L 73.832727 -207.623061 
z
" style="stroke: #1f77b4; stroke-opacity: 0.2"/>
    </defs>
    <g clip-path="url(#p2833a54663)">
     <use xlink:href="#m179b1e90ef" x="0" y="345.6" style="fill: #1f77b4; fill-opacity: 0.2; stroke: #1f77b4; stroke-opacity: 0.2"/>
    </g>
   </g>
   <g id="matplotlib.axis_1">
    <g id="xtick_1">
     <g id="line2d_1">
      <defs>
       <path id="m9cbbee1822" d="M 0 0 
L 0 3.5 
" style="stroke: #000000; stroke-width: 0.8"/>
      </defs>
      <g>
       <use xlink:href="#m9cbbee1822" x="73.534332" y="307.584" style="stroke: #000000; stroke-width: 0.8"/>
      </g>
     </g>
     <g id="text_1">
      <!-- 0 -->
      <g transform="translate(70.353082 322.182437)scale(0.1 -0.1)">
       <defs>
        <path id="DejaVuSans-30" d="M 2034 4250 
Q 1547 4250 1301 3770 
Q 1056 3291 1056 2328 
Q 1056 1369 1301 889 
Q 1547 409 2034 409 
Q 2525 409 2770 889 
Q 3016 1369 3016 2328 
Q 3016 3291 2770 3770 
Q 2525 4250 2034 4250 
z
M 2034 4750 
Q 2819 4750 3233 4129 
Q 3647 3509 3647 2328 
Q 3647 1150 3233 529 
Q 2819 -91 2034 -91 
Q 1250 -91 836 529 
Q 422 1150 422 2328 
Q 422 3509 836 4129 
Q 1250 4750 2034 4750 
z
" transform="scale(0.015625)"/>
       </defs>
       <use xlink:href="#DejaVuSans-30"/>
      </g>
     </g>
    </g>
    <g id="xtick_2">
     <g id="line2d_2">
      <g>
       <use xlink:href="#m9cbbee1822" x="131.814746" y="307.584" style="stroke: #000000; stroke-width: 0.8"/>
      </g>
     </g>
     <g id="text_2">
      <!-- 100000 -->
      <g transform="translate(112.727246 322.182437)scale(0.1 -0.1)">
       <defs>
        <path id="DejaVuSans-31" d="M 794 531 
L 1825 531 
L 1825 4091 
L 703 3866 
L 703 4441 
L 1819 4666 
L 2450 4666 
L 2450 531 
L 3481 531 
L 3481 0 
L 794 0 
L 794 531 
z
" transform="scale(0.015625)"/>
       </defs>
       <use xlink:href="#DejaVuSans-31"/>
       <use xlink:href="#DejaVuSans-30" x="63.623047"/>
       <use xlink:href="#DejaVuSans-30" x="127.246094"/>
       <use xlink:href="#DejaVuSans-30" x="190.869141"/>
       <use xlink:href="#DejaVuSans-30" x="254.492188"/>
       <use xlink:href="#DejaVuSans-30" x="318.115234"/>
      </g>
     </g>
    </g>
    <g id="xtick_3">
     <g id="line2d_3">
      <g>
       <use xlink:href="#m9cbbee1822" x="190.09516" y="307.584" style="stroke: #000000; stroke-width: 0.8"/>
      </g>
     </g>
     <g id="text_3">
      <!-- 200000 -->
      <g transform="translate(171.00766 322.182437)scale(0.1 -0.1)">
       <defs>
        <path id="DejaVuSans-32" d="M 1228 531 
L 3431 531 
L 3431 0 
L 469 0 
L 469 531 
Q 828 903 1448 1529 
Q 2069 2156 2228 2338 
Q 2531 2678 2651 2914 
Q 2772 3150 2772 3378 
Q 2772 3750 2511 3984 
Q 2250 4219 1831 4219 
Q 1534 4219 1204 4116 
Q 875 4013 500 3803 
L 500 4441 
Q 881 4594 1212 4672 
Q 1544 4750 1819 4750 
Q 2544 4750 2975 4387 
Q 3406 4025 3406 3419 
Q 3406 3131 3298 2873 
Q 3191 2616 2906 2266 
Q 2828 2175 2409 1742 
Q 1991 1309 1228 531 
z
" transform="scale(0.015625)"/>
       </defs>
       <use xlink:href="#DejaVuSans-32"/>
       <use xlink:href="#DejaVuSans-30" x="63.623047"/>
       <use xlink:href="#DejaVuSans-30" x="127.246094"/>
       <use xlink:href="#DejaVuSans-30" x="190.869141"/>
       <use xlink:href="#DejaVuSans-30" x="254.492188"/>
       <use xlink:href="#DejaVuSans-30" x="318.115234"/>
      </g>
     </g>
    </g>
    <g id="xtick_4">
     <g id="line2d_4">
      <g>
       <use xlink:href="#m9cbbee1822" x="248.375575" y="307.584" style="stroke: #000000; stroke-width: 0.8"/>
      </g>
     </g>
     <g id="text_4">
      <!-- 300000 -->
      <g transform="translate(229.288075 322.182437)scale(0.1 -0.1)">
       <defs>
        <path id="DejaVuSans-33" d="M 2597 2516 
Q 3050 2419 3304 2112 
Q 3559 1806 3559 1356 
Q 3559 666 3084 287 
Q 2609 -91 1734 -91 
Q 1441 -91 1130 -33 
Q 819 25 488 141 
L 488 750 
Q 750 597 1062 519 
Q 1375 441 1716 441 
Q 2309 441 2620 675 
Q 2931 909 2931 1356 
Q 2931 1769 2642 2001 
Q 2353 2234 1838 2234 
L 1294 2234 
L 1294 2753 
L 1863 2753 
Q 2328 2753 2575 2939 
Q 2822 3125 2822 3475 
Q 2822 3834 2567 4026 
Q 2313 4219 1838 4219 
Q 1578 4219 1281 4162 
Q 984 4106 628 3988 
L 628 4550 
Q 988 4650 1302 4700 
Q 1616 4750 1894 4750 
Q 2613 4750 3031 4423 
Q 3450 4097 3450 3541 
Q 3450 3153 3228 2886 
Q 3006 2619 2597 2516 
z
" transform="scale(0.015625)"/>
       </defs>
       <use xlink:href="#DejaVuSans-33"/>
       <use xlink:href="#DejaVuSans-30" x="63.623047"/>
       <use xlink:href="#DejaVuSans-30" x="127.246094"/>
       <use xlink:href="#DejaVuSans-30" x="190.869141"/>
       <use xlink:href="#DejaVuSans-30" x="254.492188"/>
       <use xlink:href="#DejaVuSans-30" x="318.115234"/>
      </g>
     </g>
    </g>
    <g id="xtick_5">
     <g id="line2d_5">
      <g>
       <use xlink:href="#m9cbbee1822" x="306.655989" y="307.584" style="stroke: #000000; stroke-width: 0.8"/>
      </g>
     </g>
     <g id="text_5">
      <!-- 400000 -->
      <g transform="translate(287.568489 322.182437)scale(0.1 -0.1)">
       <defs>
        <path id="DejaVuSans-34" d="M 2419 4116 
L 825 1625 
L 2419 1625 
L 2419 4116 
z
M 2253 4666 
L 3047 4666 
L 3047 1625 
L 3713 1625 
L 3713 1100 
L 3047 1100 
L 3047 0 
L 2419 0 
L 2419 1100 
L 313 1100 
L 313 1709 
L 2253 4666 
z
" transform="scale(0.015625)"/>
       </defs>
       <use xlink:href="#DejaVuSans-34"/>
       <use xlink:href="#DejaVuSans-30" x="63.623047"/>
       <use xlink:href="#DejaVuSans-30" x="127.246094"/>
       <use xlink:href="#DejaVuSans-30" x="190.869141"/>
       <use xlink:href="#DejaVuSans-30" x="254.492188"/>
       <use xlink:href="#DejaVuSans-30" x="318.115234"/>
      </g>
     </g>
    </g>
    <g id="xtick_6">
     <g id="line2d_6">
      <g>
       <use xlink:href="#m9cbbee1822" x="364.936404" y="307.584" style="stroke: #000000; stroke-width: 0.8"/>
      </g>
     </g>
     <g id="text_6">
      <!-- 500000 -->
      <g transform="translate(345.848904 322.182437)scale(0.1 -0.1)">
       <defs>
        <path id="DejaVuSans-35" d="M 691 4666 
L 3169 4666 
L 3169 4134 
L 1269 4134 
L 1269 2991 
Q 1406 3038 1543 3061 
Q 1681 3084 1819 3084 
Q 2600 3084 3056 2656 
Q 3513 2228 3513 1497 
Q 3513 744 3044 326 
Q 2575 -91 1722 -91 
Q 1428 -91 1123 -41 
Q 819 9 494 109 
L 494 744 
Q 775 591 1075 516 
Q 1375 441 1709 441 
Q 2250 441 2565 725 
Q 2881 1009 2881 1497 
Q 2881 1984 2565 2268 
Q 2250 2553 1709 2553 
Q 1456 2553 1204 2497 
Q 953 2441 691 2322 
L 691 4666 
z
" transform="scale(0.015625)"/>
       </defs>
       <use xlink:href="#DejaVuSans-35"/>
       <use xlink:href="#DejaVuSans-30" x="63.623047"/>
       <use xlink:href="#DejaVuSans-30" x="127.246094"/>
       <use xlink:href="#DejaVuSans-30" x="190.869141"/>
       <use xlink:href="#DejaVuSans-30" x="254.492188"/>
       <use xlink:href="#DejaVuSans-30" x="318.115234"/>
      </g>
     </g>
    </g>
    <g id="text_7">
     <!-- Problem Size -->
     <g transform="translate(203.867031 335.860562)scale(0.1 -0.1)">
      <defs>
       <path id="DejaVuSans-50" d="M 1259 4147 
L 1259 2394 
L 2053 2394 
Q 2494 2394 2734 2622 
Q 2975 2850 2975 3272 
Q 2975 3691 2734 3919 
Q 2494 4147 2053 4147 
L 1259 4147 
z
M 628 4666 
L 2053 4666 
Q 2838 4666 3239 4311 
Q 3641 3956 3641 3272 
Q 3641 2581 3239 2228 
Q 2838 1875 2053 1875 
L 1259 1875 
L 1259 0 
L 628 0 
L 628 4666 
z
" transform="scale(0.015625)"/>
       <path id="DejaVuSans-72" d="M 2631 2963 
Q 2534 3019 2420 3045 
Q 2306 3072 2169 3072 
Q 1681 3072 1420 2755 
Q 1159 2438 1159 1844 
L 1159 0 
L 581 0 
L 581 3500 
L 1159 3500 
L 1159 2956 
Q 1341 3275 1631 3429 
Q 1922 3584 2338 3584 
Q 2397 3584 2469 3576 
Q 2541 3569 2628 3553 
L 2631 2963 
z
" transform="scale(0.015625)"/>
       <path id="DejaVuSans-6f" d="M 1959 3097 
Q 1497 3097 1228 2736 
Q 959 2375 959 1747 
Q 959 1119 1226 758 
Q 1494 397 1959 397 
Q 2419 397 2687 759 
Q 2956 1122 2956 1747 
Q 2956 2369 2687 2733 
Q 2419 3097 1959 3097 
z
M 1959 3584 
Q 2709 3584 3137 3096 
Q 3566 2609 3566 1747 
Q 3566 888 3137 398 
Q 2709 -91 1959 -91 
Q 1206 -91 779 398 
Q 353 888 353 1747 
Q 353 2609 779 3096 
Q 1206 3584 1959 3584 
z
" transform="scale(0.015625)"/>
       <path id="DejaVuSans-62" d="M 3116 1747 
Q 3116 2381 2855 2742 
Q 2594 3103 2138 3103 
Q 1681 3103 1420 2742 
Q 1159 2381 1159 1747 
Q 1159 1113 1420 752 
Q 1681 391 2138 391 
Q 2594 391 2855 752 
Q 3116 1113 3116 1747 
z
M 1159 2969 
Q 1341 3281 1617 3432 
Q 1894 3584 2278 3584 
Q 2916 3584 3314 3078 
Q 3713 2572 3713 1747 
Q 3713 922 3314 415 
Q 2916 -91 2278 -91 
Q 1894 -91 1617 61 
Q 1341 213 1159 525 
L 1159 0 
L 581 0 
L 581 4863 
L 1159 4863 
L 1159 2969 
z
" transform="scale(0.015625)"/>
       <path id="DejaVuSans-6c" d="M 603 4863 
L 1178 4863 
L 1178 0 
L 603 0 
L 603 4863 
z
" transform="scale(0.015625)"/>
       <path id="DejaVuSans-65" d="M 3597 1894 
L 3597 1613 
L 953 1613 
Q 991 1019 1311 708 
Q 1631 397 2203 397 
Q 2534 397 2845 478 
Q 3156 559 3463 722 
L 3463 178 
Q 3153 47 2828 -22 
Q 2503 -91 2169 -91 
Q 1331 -91 842 396 
Q 353 884 353 1716 
Q 353 2575 817 3079 
Q 1281 3584 2069 3584 
Q 2775 3584 3186 3129 
Q 3597 2675 3597 1894 
z
M 3022 2063 
Q 3016 2534 2758 2815 
Q 2500 3097 2075 3097 
Q 1594 3097 1305 2825 
Q 1016 2553 972 2059 
L 3022 2063 
z
" transform="scale(0.015625)"/>
       <path id="DejaVuSans-6d" d="M 3328 2828 
Q 3544 3216 3844 3400 
Q 4144 3584 4550 3584 
Q 5097 3584 5394 3201 
Q 5691 2819 5691 2113 
L 5691 0 
L 5113 0 
L 5113 2094 
Q 5113 2597 4934 2840 
Q 4756 3084 4391 3084 
Q 3944 3084 3684 2787 
Q 3425 2491 3425 1978 
L 3425 0 
L 2847 0 
L 2847 2094 
Q 2847 2600 2669 2842 
Q 2491 3084 2119 3084 
Q 1678 3084 1418 2786 
Q 1159 2488 1159 1978 
L 1159 0 
L 581 0 
L 581 3500 
L 1159 3500 
L 1159 2956 
Q 1356 3278 1631 3431 
Q 1906 3584 2284 3584 
Q 2666 3584 2933 3390 
Q 3200 3197 3328 2828 
z
" transform="scale(0.015625)"/>
       <path id="DejaVuSans-20" transform="scale(0.015625)"/>
       <path id="DejaVuSans-53" d="M 3425 4513 
L 3425 3897 
Q 3066 4069 2747 4153 
Q 2428 4238 2131 4238 
Q 1616 4238 1336 4038 
Q 1056 3838 1056 3469 
Q 1056 3159 1242 3001 
Q 1428 2844 1947 2747 
L 2328 2669 
Q 3034 2534 3370 2195 
Q 3706 1856 3706 1288 
Q 3706 609 3251 259 
Q 2797 -91 1919 -91 
Q 1588 -91 1214 -16 
Q 841 59 441 206 
L 441 856 
Q 825 641 1194 531 
Q 1563 422 1919 422 
Q 2459 422 2753 634 
Q 3047 847 3047 1241 
Q 3047 1584 2836 1778 
Q 2625 1972 2144 2069 
L 1759 2144 
Q 1053 2284 737 2584 
Q 422 2884 422 3419 
Q 422 4038 858 4394 
Q 1294 4750 2059 4750 
Q 2388 4750 2728 4690 
Q 3069 4631 3425 4513 
z
" transform="scale(0.015625)"/>
       <path id="DejaVuSans-69" d="M 603 3500 
L 1178 3500 
L 1178 0 
L 603 0 
L 603 3500 
z
M 603 4863 
L 1178 4863 
L 1178 4134 
L 603 4134 
L 603 4863 
z
" transform="scale(0.015625)"/>
       <path id="DejaVuSans-7a" d="M 353 3500 
L 3084 3500 
L 3084 2975 
L 922 459 
L 3084 459 
L 3084 0 
L 275 0 
L 275 525 
L 2438 3041 
L 353 3041 
L 353 3500 
z
" transform="scale(0.015625)"/>
      </defs>
      <use xlink:href="#DejaVuSans-50"/>
      <use xlink:href="#DejaVuSans-72" x="58.552734"/>
      <use xlink:href="#DejaVuSans-6f" x="97.416016"/>
      <use xlink:href="#DejaVuSans-62" x="158.597656"/>
      <use xlink:href="#DejaVuSans-6c" x="222.074219"/>
      <use xlink:href="#DejaVuSans-65" x="249.857422"/>
      <use xlink:href="#DejaVuSans-6d" x="311.380859"/>
      <use xlink:href="#DejaVuSans-20" x="408.792969"/>
      <use xlink:href="#DejaVuSans-53" x="440.580078"/>
      <use xlink:href="#DejaVuSans-69" x="504.056641"/>
      <use xlink:href="#DejaVuSans-7a" x="531.839844"/>
      <use xlink:href="#DejaVuSans-65" x="584.330078"/>
     </g>
    </g>
   </g>
   <g id="matplotlib.axis_2">
    <g id="ytick_1">
     <g id="line2d_7">
      <defs>
       <path id="md8d7458448" d="M 0 0 
L -3.5 0 
" style="stroke: #000000; stroke-width: 0.8"/>
      </defs>
      <g>
       <use xlink:href="#md8d7458448" x="57.6" y="278.561853" style="stroke: #000000; stroke-width: 0.8"/>
      </g>
     </g>
     <g id="text_8">
      <!-- 2.0 -->
      <g transform="translate(34.696875 282.361072)scale(0.1 -0.1)">
       <defs>
        <path id="DejaVuSans-2e" d="M 684 794 
L 1344 794 
L 1344 0 
L 684 0 
L 684 794 
z
" transform="scale(0.015625)"/>
       </defs>
       <use xlink:href="#DejaVuSans-32"/>
       <use xlink:href="#DejaVuSans-2e" x="63.623047"/>
       <use xlink:href="#DejaVuSans-30" x="95.410156"/>
      </g>
     </g>
    </g>
    <g id="ytick_2">
     <g id="line2d_8">
      <g>
       <use xlink:href="#md8d7458448" x="57.6" y="245.30004" style="stroke: #000000; stroke-width: 0.8"/>
      </g>
     </g>
     <g id="text_9">
      <!-- 2.5 -->
      <g transform="translate(34.696875 249.099259)scale(0.1 -0.1)">
       <use xlink:href="#DejaVuSans-32"/>
       <use xlink:href="#DejaVuSans-2e" x="63.623047"/>
       <use xlink:href="#DejaVuSans-35" x="95.410156"/>
      </g>
     </g>
    </g>
    <g id="ytick_3">
     <g id="line2d_9">
      <g>
       <use xlink:href="#md8d7458448" x="57.6" y="212.038228" style="stroke: #000000; stroke-width: 0.8"/>
      </g>
     </g>
     <g id="text_10">
      <!-- 3.0 -->
      <g transform="translate(34.696875 215.837446)scale(0.1 -0.1)">
       <use xlink:href="#DejaVuSans-33"/>
       <use xlink:href="#DejaVuSans-2e" x="63.623047"/>
       <use xlink:href="#DejaVuSans-30" x="95.410156"/>
      </g>
     </g>
    </g>
    <g id="ytick_4">
     <g id="line2d_10">
      <g>
       <use xlink:href="#md8d7458448" x="57.6" y="178.776415" style="stroke: #000000; stroke-width: 0.8"/>
      </g>
     </g>
     <g id="text_11">
      <!-- 3.5 -->
      <g transform="translate(34.696875 182.575634)scale(0.1 -0.1)">
       <use xlink:href="#DejaVuSans-33"/>
       <use xlink:href="#DejaVuSans-2e" x="63.623047"/>
       <use xlink:href="#DejaVuSans-35" x="95.410156"/>
      </g>
     </g>
    </g>
    <g id="ytick_5">
     <g id="line2d_11">
      <g>
       <use xlink:href="#md8d7458448" x="57.6" y="145.514603" style="stroke: #000000; stroke-width: 0.8"/>
      </g>
     </g>
     <g id="text_12">
      <!-- 4.0 -->
      <g transform="translate(34.696875 149.313821)scale(0.1 -0.1)">
       <use xlink:href="#DejaVuSans-34"/>
       <use xlink:href="#DejaVuSans-2e" x="63.623047"/>
       <use xlink:href="#DejaVuSans-30" x="95.410156"/>
      </g>
     </g>
    </g>
    <g id="ytick_6">
     <g id="line2d_12">
      <g>
       <use xlink:href="#md8d7458448" x="57.6" y="112.25279" style="stroke: #000000; stroke-width: 0.8"/>
      </g>
     </g>
     <g id="text_13">
      <!-- 4.5 -->
      <g transform="translate(34.696875 116.052009)scale(0.1 -0.1)">
       <use xlink:href="#DejaVuSans-34"/>
       <use xlink:href="#DejaVuSans-2e" x="63.623047"/>
       <use xlink:href="#DejaVuSans-35" x="95.410156"/>
      </g>
     </g>
    </g>
    <g id="ytick_7">
     <g id="line2d_13">
      <g>
       <use xlink:href="#md8d7458448" x="57.6" y="78.990977" style="stroke: #000000; stroke-width: 0.8"/>
      </g>
     </g>
     <g id="text_14">
      <!-- 5.0 -->
      <g transform="translate(34.696875 82.790196)scale(0.1 -0.1)">
       <use xlink:href="#DejaVuSans-35"/>
       <use xlink:href="#DejaVuSans-2e" x="63.623047"/>
       <use xlink:href="#DejaVuSans-30" x="95.410156"/>
      </g>
     </g>
    </g>
    <g id="ytick_8">
     <g id="line2d_14">
      <g>
       <use xlink:href="#md8d7458448" x="57.6" y="45.729165" style="stroke: #000000; stroke-width: 0.8"/>
      </g>
     </g>
     <g id="text_15">
      <!-- 5.5 -->
      <g transform="translate(34.696875 49.528384)scale(0.1 -0.1)">
       <use xlink:href="#DejaVuSans-35"/>
       <use xlink:href="#DejaVuSans-2e" x="63.623047"/>
       <use xlink:href="#DejaVuSans-35" x="95.410156"/>
      </g>
     </g>
    </g>
    <g id="text_16">
     <!-- GFLOPS -->
     <g transform="translate(28.617187 194.007688)rotate(-90)scale(0.1 -0.1)">
      <defs>
       <path id="DejaVuSans-47" d="M 3809 666 
L 3809 1919 
L 2778 1919 
L 2778 2438 
L 4434 2438 
L 4434 434 
Q 4069 175 3628 42 
Q 3188 -91 2688 -91 
Q 1594 -91 976 548 
Q 359 1188 359 2328 
Q 359 3472 976 4111 
Q 1594 4750 2688 4750 
Q 3144 4750 3555 4637 
Q 3966 4525 4313 4306 
L 4313 3634 
Q 3963 3931 3569 4081 
Q 3175 4231 2741 4231 
Q 1884 4231 1454 3753 
Q 1025 3275 1025 2328 
Q 1025 1384 1454 906 
Q 1884 428 2741 428 
Q 3075 428 3337 486 
Q 3600 544 3809 666 
z
" transform="scale(0.015625)"/>
       <path id="DejaVuSans-46" d="M 628 4666 
L 3309 4666 
L 3309 4134 
L 1259 4134 
L 1259 2759 
L 3109 2759 
L 3109 2228 
L 1259 2228 
L 1259 0 
L 628 0 
L 628 4666 
z
" transform="scale(0.015625)"/>
       <path id="DejaVuSans-4c" d="M 628 4666 
L 1259 4666 
L 1259 531 
L 3531 531 
L 3531 0 
L 628 0 
L 628 4666 
z
" transform="scale(0.015625)"/>
       <path id="DejaVuSans-4f" d="M 2522 4238 
Q 1834 4238 1429 3725 
Q 1025 3213 1025 2328 
Q 1025 1447 1429 934 
Q 1834 422 2522 422 
Q 3209 422 3611 934 
Q 4013 1447 4013 2328 
Q 4013 3213 3611 3725 
Q 3209 4238 2522 4238 
z
M 2522 4750 
Q 3503 4750 4090 4092 
Q 4678 3434 4678 2328 
Q 4678 1225 4090 567 
Q 3503 -91 2522 -91 
Q 1538 -91 948 565 
Q 359 1222 359 2328 
Q 359 3434 948 4092 
Q 1538 4750 2522 4750 
z
" transform="scale(0.015625)"/>
      </defs>
      <use xlink:href="#DejaVuSans-47"/>
      <use xlink:href="#DejaVuSans-46" x="77.490234"/>
      <use xlink:href="#DejaVuSans-4c" x="135.009766"/>
      <use xlink:href="#DejaVuSans-4f" x="187.097656"/>
      <use xlink:href="#DejaVuSans-50" x="265.808594"/>
      <use xlink:href="#DejaVuSans-53" x="326.111328"/>
     </g>
    </g>
   </g>
   <g id="line2d_15">
    <path d="M 73.832727 204.300961 
L 74.131123 190.795495 
L 74.429519 191.081029 
L 74.727914 195.017302 
L 75.02631 160.162772 
L 75.324706 175.631652 
L 75.623102 140.033436 
L 75.921497 177.482632 
L 76.219893 160.904677 
L 76.518289 164.202935 
L 77.711872 157.061308 
L 78.308663 166.666742 
L 78.905455 157.069142 
L 79.502246 152.04298 
L 79.800642 157.237443 
L 80.695829 163.177673 
L 80.994225 145.656971 
L 81.591016 138.472749 
L 81.889412 162.175513 
L 82.486203 152.082976 
L 83.082995 163.871021 
L 83.978182 168.532606 
L 84.276578 158.157224 
L 85.47016 166.120197 
L 86.066952 172.748324 
L 86.663743 166.138683 
L 86.962139 172.736342 
L 87.857326 172.052516 
L 88.155722 191.825958 
L 88.454118 154.167757 
L 89.647701 159.294745 
L 90.244492 184.27718 
L 91.438075 165.555467 
L 92.333262 167.888265 
L 92.631658 177.094372 
L 93.228449 162.049571 
L 94.422032 174.204431 
L 95.018824 183.581462 
L 95.914011 182.818771 
L 97.405989 184.41651 
L 97.704385 194.826073 
L 98.599572 177.32103 
L 99.793155 182.517084 
L 100.389947 191.700814 
L 102.180321 200.707972 
L 102.777112 202.718676 
L 103.075508 181.997022 
L 103.373904 193.679083 
L 104.865882 201.079331 
L 105.76107 198.781582 
L 106.357861 199.104669 
L 106.954652 203.108062 
L 109.341818 210.302524 
L 110.833797 217.759832 
L 111.132193 213.890701 
L 111.728984 214.37506 
L 112.922567 214.820578 
L 113.817754 217.084475 
L 115.309733 218.060392 
L 116.503316 224.071551 
L 117.398503 220.444196 
L 118.29369 221.294119 
L 119.487273 222.245746 
L 121.277647 226.202177 
L 121.874439 227.085813 
L 122.769626 219.818316 
L 123.664813 223.849622 
L 125.753583 219.441295 
L 126.051979 228.1779 
L 127.245561 225.411536 
L 129.931123 228.388049 
L 130.82631 230.249005 
L 132.019893 234.698314 
L 132.616684 231.431229 
L 133.213476 225.330912 
L 136.197433 231.338003 
L 137.987807 232.028093 
L 139.18139 229.707793 
L 140.374973 231.038396 
L 140.673369 224.899839 
L 142.463743 229.768145 
L 145.149305 229.937824 
L 146.044492 239.580507 
L 146.641283 236.747386 
L 148.133262 224.004371 
L 148.730053 235.518999 
L 149.923636 246.220432 
L 152.310802 238.193621 
L 154.101176 234.503972 
L 155.593155 221.657806 
L 157.085134 235.185713 
L 159.472299 239.10946 
L 161.262674 249.232728 
L 162.157861 236.242266 
L 163.053048 225.353191 
L 165.440214 234.414642 
L 167.528984 233.846828 
L 169.020963 236.249227 
L 170.214545 236.59542 
L 172.00492 233.465141 
L 173.795294 241.05419 
L 175.884064 240.746688 
L 177.972834 239.308199 
L 178.569626 236.423091 
L 180.956791 235.147874 
L 181.851979 252.881688 
L 186.327914 240.979625 
L 188.118289 243.80903 
L 188.416684 240.231783 
L 190.505455 246.720607 
L 191.699037 238.600629 
L 192.89262 228.934735 
L 194.384599 235.610477 
L 198.860535 241.528101 
L 202.441283 245.211198 
L 204.828449 240.532824 
L 205.126845 251.751662 
L 207.215615 247.098046 
L 207.812406 238.110564 
L 211.393155 243.933799 
L 216.764278 240.583691 
L 217.957861 234.902823 
L 218.554652 243.637008 
L 219.748235 246.889216 
L 221.240214 237.02823 
L 222.732193 218.98001 
L 223.925775 245.891245 
L 226.312941 254.962648 
L 231.087273 245.253525 
L 234.369626 251.921095 
L 234.668021 246.038239 
L 237.651979 233.773003 
L 240.635936 247.639365 
L 242.724706 253.66024 
L 245.410267 252.577179 
L 250.78139 242.136914 
L 252.571765 232.490694 
L 254.063743 237.59719 
L 257.346096 253.535596 
L 261.523636 253.482558 
L 264.507594 255.540235 
L 266.894759 253.183572 
L 270.475508 237.354527 
L 280.322567 251.999601 
L 282.411337 248.835058 
L 283.60492 251.43172 
L 288.379251 248.980719 
L 290.169626 232.778431 
L 291.064813 251.4488 
L 303.299037 250.301114 
L 309.863743 257.877233 
L 312.250909 250.146096 
L 315.234866 264.359087 
L 326.275508 249.390721 
L 336.122567 253.726711 
L 339.40492 252.72133 
L 342.090481 259.838574 
L 362.38139 260.251724 
L 368.946096 256.766067 
L 398.487273 256.868417 
L 398.487273 256.868417 
" clip-path="url(#p2833a54663)" style="fill: none; stroke: #1f77b4; stroke-width: 1.5; stroke-linecap: square"/>
   </g>
   <g id="line2d_16"/>
   <g id="patch_3">
    <path d="M 57.6 307.584 
L 57.6 41.472 
" style="fill: none; stroke: #000000; stroke-width: 0.8; stroke-linejoin: miter; stroke-linecap: square"/>
   </g>
   <g id="patch_4">
    <path d="M 414.72 307.584 
L 414.72 41.472 
" style="fill: none; stroke: #000000; stroke-width: 0.8; stroke-linejoin: miter; stroke-linecap: square"/>
   </g>
   <g id="patch_5">
    <path d="M 57.6 307.584 
L 414.72 307.584 
" style="fill: none; stroke: #000000; stroke-width: 0.8; stroke-linejoin: miter; stroke-linecap: square"/>
   </g>
   <g id="patch_6">
    <path d="M 57.6 41.472 
L 414.72 41.472 
" style="fill: none; stroke: #000000; stroke-width: 0.8; stroke-linejoin: miter; stroke-linecap: square"/>
   </g>
   <g id="text_17">
    <!-- Performance vs Local Problem Size -->
    <g transform="translate(131.440313 35.472)scale(0.12 -0.12)">
     <defs>
      <path id="DejaVuSans-66" d="M 2375 4863 
L 2375 4384 
L 1825 4384 
Q 1516 4384 1395 4259 
Q 1275 4134 1275 3809 
L 1275 3500 
L 2222 3500 
L 2222 3053 
L 1275 3053 
L 1275 0 
L 697 0 
L 697 3053 
L 147 3053 
L 147 3500 
L 697 3500 
L 697 3744 
Q 697 4328 969 4595 
Q 1241 4863 1831 4863 
L 2375 4863 
z
" transform="scale(0.015625)"/>
      <path id="DejaVuSans-61" d="M 2194 1759 
Q 1497 1759 1228 1600 
Q 959 1441 959 1056 
Q 959 750 1161 570 
Q 1363 391 1709 391 
Q 2188 391 2477 730 
Q 2766 1069 2766 1631 
L 2766 1759 
L 2194 1759 
z
M 3341 1997 
L 3341 0 
L 2766 0 
L 2766 531 
Q 2569 213 2275 61 
Q 1981 -91 1556 -91 
Q 1019 -91 701 211 
Q 384 513 384 1019 
Q 384 1609 779 1909 
Q 1175 2209 1959 2209 
L 2766 2209 
L 2766 2266 
Q 2766 2663 2505 2880 
Q 2244 3097 1772 3097 
Q 1472 3097 1187 3025 
Q 903 2953 641 2809 
L 641 3341 
Q 956 3463 1253 3523 
Q 1550 3584 1831 3584 
Q 2591 3584 2966 3190 
Q 3341 2797 3341 1997 
z
" transform="scale(0.015625)"/>
      <path id="DejaVuSans-6e" d="M 3513 2113 
L 3513 0 
L 2938 0 
L 2938 2094 
Q 2938 2591 2744 2837 
Q 2550 3084 2163 3084 
Q 1697 3084 1428 2787 
Q 1159 2491 1159 1978 
L 1159 0 
L 581 0 
L 581 3500 
L 1159 3500 
L 1159 2956 
Q 1366 3272 1645 3428 
Q 1925 3584 2291 3584 
Q 2894 3584 3203 3211 
Q 3513 2838 3513 2113 
z
" transform="scale(0.015625)"/>
      <path id="DejaVuSans-63" d="M 3122 3366 
L 3122 2828 
Q 2878 2963 2633 3030 
Q 2388 3097 2138 3097 
Q 1578 3097 1268 2742 
Q 959 2388 959 1747 
Q 959 1106 1268 751 
Q 1578 397 2138 397 
Q 2388 397 2633 464 
Q 2878 531 3122 666 
L 3122 134 
Q 2881 22 2623 -34 
Q 2366 -91 2075 -91 
Q 1284 -91 818 406 
Q 353 903 353 1747 
Q 353 2603 823 3093 
Q 1294 3584 2113 3584 
Q 2378 3584 2631 3529 
Q 2884 3475 3122 3366 
z
" transform="scale(0.015625)"/>
      <path id="DejaVuSans-76" d="M 191 3500 
L 800 3500 
L 1894 563 
L 2988 3500 
L 3597 3500 
L 2284 0 
L 1503 0 
L 191 3500 
z
" transform="scale(0.015625)"/>
      <path id="DejaVuSans-73" d="M 2834 3397 
L 2834 2853 
Q 2591 2978 2328 3040 
Q 2066 3103 1784 3103 
Q 1356 3103 1142 2972 
Q 928 2841 928 2578 
Q 928 2378 1081 2264 
Q 1234 2150 1697 2047 
L 1894 2003 
Q 2506 1872 2764 1633 
Q 3022 1394 3022 966 
Q 3022 478 2636 193 
Q 2250 -91 1575 -91 
Q 1294 -91 989 -36 
Q 684 19 347 128 
L 347 722 
Q 666 556 975 473 
Q 1284 391 1588 391 
Q 1994 391 2212 530 
Q 2431 669 2431 922 
Q 2431 1156 2273 1281 
Q 2116 1406 1581 1522 
L 1381 1569 
Q 847 1681 609 1914 
Q 372 2147 372 2553 
Q 372 3047 722 3315 
Q 1072 3584 1716 3584 
Q 2034 3584 2315 3537 
Q 2597 3491 2834 3397 
z
" transform="scale(0.015625)"/>
     </defs>
     <use xlink:href="#DejaVuSans-50"/>
     <use xlink:href="#DejaVuSans-65" x="56.677734"/>
     <use xlink:href="#DejaVuSans-72" x="118.201172"/>
     <use xlink:href="#DejaVuSans-66" x="159.314453"/>
     <use xlink:href="#DejaVuSans-6f" x="194.519531"/>
     <use xlink:href="#DejaVuSans-72" x="255.701172"/>
     <use xlink:href="#DejaVuSans-6d" x="295.064453"/>
     <use xlink:href="#DejaVuSans-61" x="392.476562"/>
     <use xlink:href="#DejaVuSans-6e" x="453.755859"/>
     <use xlink:href="#DejaVuSans-63" x="517.134766"/>
     <use xlink:href="#DejaVuSans-65" x="572.115234"/>
     <use xlink:href="#DejaVuSans-20" x="633.638672"/>
     <use xlink:href="#DejaVuSans-76" x="665.425781"/>
     <use xlink:href="#DejaVuSans-73" x="724.605469"/>
     <use xlink:href="#DejaVuSans-20" x="776.705078"/>
     <use xlink:href="#DejaVuSans-4c" x="808.492188"/>
     <use xlink:href="#DejaVuSans-6f" x="862.455078"/>
     <use xlink:href="#DejaVuSans-63" x="923.636719"/>
     <use xlink:href="#DejaVuSans-61" x="978.617188"/>
     <use xlink:href="#DejaVuSans-6c" x="1039.896484"/>
     <use xlink:href="#DejaVuSans-20" x="1067.679688"/>
     <use xlink:href="#DejaVuSans-50" x="1099.466797"/>
     <use xlink:href="#DejaVuSans-72" x="1158.019531"/>
     <use xlink:href="#DejaVuSans-6f" x="1196.882812"/>
     <use xlink:href="#DejaVuSans-62" x="1258.064453"/>
     <use xlink:href="#DejaVuSans-6c" x="1321.541016"/>
     <use xlink:href="#DejaVuSans-65" x="1349.324219"/>
     <use xlink:href="#DejaVuSans-6d" x="1410.847656"/>
     <use xlink:href="#DejaVuSans-20" x="1508.259766"/>
     <use xlink:href="#DejaVuSans-53" x="1540.046875"/>
     <use xlink:href="#DejaVuSans-69" x="1603.523438"/>
     <use xlink:href="#DejaVuSans-7a" x="1631.306641"/>
     <use xlink:href="#DejaVuSans-65" x="1683.796875"/>
    </g>
   </g>
   <g id="legend_1">
    <g id="patch_7">
     <path d="M 339.12 78.82825 
L 407.72 78.82825 
Q 409.72 78.82825 409.72 76.82825 
L 409.72 48.472 
Q 409.72 46.472 407.72 46.472 
L 339.12 46.472 
Q 337.12 46.472 337.12 48.472 
L 337.12 76.82825 
Q 337.12 78.82825 339.12 78.82825 
z
" style="fill: #ffffff; opacity: 0.8; stroke: #cccccc; stroke-linejoin: miter"/>
    </g>
    <g id="text_18">
     <!-- Cluster -->
     <g transform="translate(355.673906 58.070437)scale(0.1 -0.1)">
      <defs>
       <path id="DejaVuSans-43" d="M 4122 4306 
L 4122 3641 
Q 3803 3938 3442 4084 
Q 3081 4231 2675 4231 
Q 1875 4231 1450 3742 
Q 1025 3253 1025 2328 
Q 1025 1406 1450 917 
Q 1875 428 2675 428 
Q 3081 428 3442 575 
Q 3803 722 4122 1019 
L 4122 359 
Q 3791 134 3420 21 
Q 3050 -91 2638 -91 
Q 1578 -91 968 557 
Q 359 1206 359 2328 
Q 359 3453 968 4101 
Q 1578 4750 2638 4750 
Q 3056 4750 3426 4639 
Q 3797 4528 4122 4306 
z
" transform="scale(0.015625)"/>
       <path id="DejaVuSans-75" d="M 544 1381 
L 544 3500 
L 1119 3500 
L 1119 1403 
Q 1119 906 1312 657 
Q 1506 409 1894 409 
Q 2359 409 2629 706 
Q 2900 1003 2900 1516 
L 2900 3500 
L 3475 3500 
L 3475 0 
L 2900 0 
L 2900 538 
Q 2691 219 2414 64 
Q 2138 -91 1772 -91 
Q 1169 -91 856 284 
Q 544 659 544 1381 
z
M 1991 3584 
L 1991 3584 
z
" transform="scale(0.015625)"/>
       <path id="DejaVuSans-74" d="M 1172 4494 
L 1172 3500 
L 2356 3500 
L 2356 3053 
L 1172 3053 
L 1172 1153 
Q 1172 725 1289 603 
Q 1406 481 1766 481 
L 2356 481 
L 2356 0 
L 1766 0 
Q 1100 0 847 248 
Q 594 497 594 1153 
L 594 3053 
L 172 3053 
L 172 3500 
L 594 3500 
L 594 4494 
L 1172 4494 
z
" transform="scale(0.015625)"/>
      </defs>
      <use xlink:href="#DejaVuSans-43"/>
      <use xlink:href="#DejaVuSans-6c" x="69.824219"/>
      <use xlink:href="#DejaVuSans-75" x="97.607422"/>
      <use xlink:href="#DejaVuSans-73" x="160.986328"/>
      <use xlink:href="#DejaVuSans-74" x="213.085938"/>
      <use xlink:href="#DejaVuSans-65" x="252.294922"/>
      <use xlink:href="#DejaVuSans-72" x="313.818359"/>
     </g>
    </g>
    <g id="line2d_17">
     <path d="M 341.12 69.248562 
L 351.12 69.248562 
L 361.12 69.248562 
" style="fill: none; stroke: #1f77b4; stroke-width: 1.5; stroke-linecap: square"/>
    </g>
    <g id="text_19">
     <!-- Hopper -->
     <g transform="translate(369.12 72.748562)scale(0.1 -0.1)">
      <defs>
       <path id="DejaVuSans-48" d="M 628 4666 
L 1259 4666 
L 1259 2753 
L 3553 2753 
L 3553 4666 
L 4184 4666 
L 4184 0 
L 3553 0 
L 3553 2222 
L 1259 2222 
L 1259 0 
L 628 0 
L 628 4666 
z
" transform="scale(0.015625)"/>
       <path id="DejaVuSans-70" d="M 1159 525 
L 1159 -1331 
L 581 -1331 
L 581 3500 
L 1159 3500 
L 1159 2969 
Q 1341 3281 1617 3432 
Q 1894 3584 2278 3584 
Q 2916 3584 3314 3078 
Q 3713 2572 3713 1747 
Q 3713 922 3314 415 
Q 2916 -91 2278 -91 
Q 1894 -91 1617 61 
Q 1341 213 1159 525 
z
M 3116 1747 
Q 3116 2381 2855 2742 
Q 2594 3103 2138 3103 
Q 1681 3103 1420 2742 
Q 1159 2381 1159 1747 
Q 1159 1113 1420 752 
Q 1681 391 2138 391 
Q 2594 391 2855 752 
Q 3116 1113 3116 1747 
z
" transform="scale(0.015625)"/>
      </defs>
      <use xlink:href="#DejaVuSans-48"/>
      <use xlink:href="#DejaVuSans-6f" x="75.195312"/>
      <use xlink:href="#DejaVuSans-70" x="136.376953"/>
      <use xlink:href="#DejaVuSans-70" x="199.853516"/>
      <use xlink:href="#DejaVuSans-65" x="263.330078"/>
      <use xlink:href="#DejaVuSans-72" x="324.853516"/>
     </g>
    </g>
   </g>
  </g>
 </g>
 <defs>
  <clipPath id="p2833a54663">
   <rect x="57.6" y="41.472" width="357.12" height="266.112"/>
  </clipPath>
 </defs>
</svg>
