<?xml version="1.0" encoding="utf-8" standalone="no"?>
<!DOCTYPE svg PUBLIC "-//W3C//DTD SVG 1.1//EN"
  "http://www.w3.org/Graphics/SVG/1.1/DTD/svg11.dtd">
<svg xmlns:xlink="http://www.w3.org/1999/xlink" width="460.8pt" height="345.6pt" viewBox="0 0 460.8 345.6" xmlns="http://www.w3.org/2000/svg" version="1.1">
 <metadata>
  <rdf:RDF xmlns:dc="http://purl.org/dc/elements/1.1/" xmlns:cc="http://creativecommons.org/ns#" xmlns:rdf="http://www.w3.org/1999/02/22-rdf-syntax-ns#">
   <cc:Work>
    <dc:type rdf:resource="http://purl.org/dc/dcmitype/StillImage"/>
    <dc:date>2024-05-05T11:09:39.250072</dc:date>
    <dc:format>image/svg+xml</dc:format>
    <dc:creator>
     <cc:Agent>
      <dc:title>Matplotlib v3.5.3, https://matplotlib.org/</dc:title>
     </cc:Agent>
    </dc:creator>
   </cc:Work>
  </rdf:RDF>
 </metadata>
 <defs>
  <style type="text/css">*{stroke-linejoin: round; stroke-linecap: butt}</style>
 </defs>
 <g id="figure_1">
  <g id="patch_1">
   <path d="M 0 345.6 
L 460.8 345.6 
L 460.8 0 
L 0 0 
z
" style="fill: #ffffff"/>
  </g>
  <g id="axes_1">
   <g id="patch_2">
    <path d="M 57.6 307.584 
L 414.72 307.584 
L 414.72 41.472 
L 57.6 41.472 
z
" style="fill: #ffffff"/>
   </g>
   <g id="PolyCollection_1">
    <defs>
     <path id="md1ffd731de" d="M 73.832727 -205.939511 
L 73.832727 -73.171287 
L 73.832727 -92.488753 
L 73.832727 -124.007994 
L 73.832727 -105.204775 
L 73.832727 -75.132387 
L 107.139229 -58.885074 
L 107.139469 -52.913403 
L 107.141742 -70.718287 
L 107.142078 -71.217782 
L 107.14532 -77.067172 
L 107.145809 -77.5032 
L 107.150664 -82.046693 
L 107.151416 -72.395026 
L 107.159162 -93.478313 
L 107.160405 -90.360836 
L 107.173894 -106.661043 
L 107.176169 -112.316252 
L 107.202899 -155.874163 
L 107.207763 -151.563022 
L 107.273188 -121.483594 
L 107.286724 -128.012099 
L 107.530423 -90.937553 
L 107.530423 -108.08438 
L 107.596512 -97.413507 
L 131.552076 -54.333255 
L 131.552076 -55.308705 
L 131.563509 -78.461214 
L 131.579548 -82.632142 
L 131.603063 -86.074053 
L 131.639575 -91.1288 
L 131.700893 -106.139532 
L 131.700893 -91.217989 
L 131.816346 -147.328358 
L 132.077874 -151.092976 
L 132.932612 -136.500969 
L 140.498137 -66.784221 
L 140.501449 -52.570778 
L 140.51506 -65.115312 
L 140.519611 -62.712051 
L 140.53868 -72.137389 
L 140.545174 -70.494937 
L 140.573071 -76.583499 
L 140.582798 -77.812331 
L 140.625977 -93.282095 
L 140.641506 -80.905324 
L 140.713648 -109.074145 
L 140.74072 -96.724878 
L 140.875309 -126.947386 
L 140.929062 -120.309795 
L 141.228118 -95.451959 
L 141.228118 -116.801315 
L 141.360296 -139.245968 
L 142.285976 -108.018844 
L 142.786015 -135.588644 
L 162.113133 -69.893695 
L 162.125366 -67.854271 
L 162.15957 -77.550827 
L 162.176714 -55.924443 
L 162.176714 -73.002011 
L 162.225965 -83.261794 
L 162.225965 -78.070026 
L 162.251058 -82.682504 
L 162.325806 -94.047492 
L 162.36467 -89.175979 
L 162.486502 -106.977943 
L 162.551508 -102.590636 
L 162.771653 -141.173994 
L 162.893171 -123.74925 
L 163.362467 -157.972064 
L 163.633614 -162.16105 
L 165.018565 -134.064722 
L 165.86804 -156.919776 
L 173.991956 -68.549445 
L 174.011721 -50.112 
L 174.058802 -72.169847 
L 174.086519 -63.284263 
L 174.154109 -83.5541 
L 174.194716 -79.69113 
L 174.296842 -93.348772 
L 174.359829 -82.026565 
L 174.525123 -114.731894 
L 174.630731 -84.852264 
L 174.925813 -132.880732 
L 175.12408 -109.172338 
L 175.738128 -147.877913 
L 176.184581 -142.684834 
L 177.886226 -121.657382 
L 179.322208 -148.112345 
L 189.664526 -75.664663 
L 189.799965 -83.709543 
L 190.001764 -90.498895 
L 190.001764 -83.254288 
L 190.323021 -96.008828 
L 190.885583 -103.66457 
L 190.885583 -108.670864 
L 192.032497 -143.120399 
L 194.402215 -74.897712 
L 194.467236 -70.054126 
L 194.539489 -83.416887 
L 194.632856 -77.207209 
L 194.740717 -93.024762 
L 194.881842 -88.377133 
L 195.054056 -100.820648 
L 195.18041 -145.467962 
L 195.282604 -94.288305 
L 195.585646 -135.979989 
L 195.994082 -110.353788 
L 196.617572 -149.306627 
L 197.469474 -148.517079 
L 199.217806 -144.555649 
L 201.596007 -154.74383 
L 207.729253 -67.59649 
L 207.804033 -63.264056 
L 207.91789 -83.974923 
L 208.025397 -73.857546 
L 208.194169 -89.007443 
L 208.356951 -83.734452 
L 208.623508 -87.01469 
L 208.623508 -93.444295 
L 208.887864 -74.067734 
L 209.348512 -130.691157 
L 209.823253 -94.379865 
L 210.739224 -151.615546 
L 211.739304 -120.40308 
L 214.107194 -139.099963 
L 216.975609 -142.441246 
L 220.045735 -75.981216 
L 220.045735 -67.310598 
L 220.1303 -82.239029 
L 220.367625 -78.752938 
L 220.367625 -72.518232 
L 220.492662 -89.838401 
L 220.865472 -96.531399 
L 221.062205 -88.972047 
L 221.704845 -106.478345 
L 222.042736 -71.152004 
L 222.042736 -96.162603 
L 223.328825 -145.347842 
L 223.993345 -140.153926 
L 227.447868 -158.043813 
L 227.597609 -79.328409 
L 227.816814 -78.492273 
L 227.935732 -90.371984 
L 228.260278 -84.799783 
L 228.448467 -93.646772 
L 228.960146 -85.659042 
L 229.127455 -144.818317 
L 229.288317 -111.058507 
L 229.288317 -98.317571 
L 230.170098 -93.61069 
L 230.84004 -145.065016 
L 232.585094 -136.226635 
L 234.458259 -150.897971 
L 238.932493 -152.52852 
L 241.872818 -78.836754 
L 242.095598 -73.201991 
L 242.321204 -82.980476 
L 242.651649 -78.675589 
L 243.001555 -88.322076 
L 243.524035 -83.222175 
L 244.114999 -112.18409 
L 245.019846 -84.421508 
L 246.160259 -112.433342 
L 246.160259 -132.895449 
L 247.968586 -103.443856 
L 249.070617 -64.717242 
L 249.070617 -78.432867 
L 249.842311 -87.496498 
L 250.79835 -97.202893 
L 250.79835 -123.726686 
L 251.132382 -95.351546 
L 252.18149 -81.867298 
L 252.534322 -84.717903 
L 252.892207 -91.502084 
L 253.434501 -87.34665 
L 253.600626 -107.880639 
L 253.600626 -131.021043 
L 254.053097 -104.170866 
L 254.955895 -90.377336 
L 254.955895 -77.440507 
L 255.556114 -123.409073 
L 256.204402 -148.270135 
L 257.903353 -114.785204 
L 259.746685 -147.502519 
L 261.324007 -151.01255 
L 261.610142 -87.920773 
L 262.211027 -77.593466 
L 262.361331 -94.413712 
L 263.287388 -84.96762 
L 263.557285 -117.629526 
L 265.105754 -85.990876 
L 265.331237 -129.204727 
L 265.331237 -132.643192 
L 265.682425 -143.780197 
L 268.619656 -110.639381 
L 270.352538 -153.844178 
L 276.672152 -83.440752 
L 277.249911 -70.16586 
L 277.402072 -134.662285 
L 277.643529 -86.598793 
L 278.536436 -70.044035 
L 279.192473 -111.476523 
L 280.468511 -83.412216 
L 280.692592 -78.475974 
L 280.839704 -85.57536 
L 281.939725 -139.02529 
L 282.100288 -96.911049 
L 282.701035 -88.22749 
L 284.811689 -89.810573 
L 285.116486 -124.833157 
L 285.833167 -84.432022 
L 286.203072 -117.555394 
L 286.877231 -79.625121 
L 287.350553 -93.317243 
L 287.857974 -145.175845 
L 287.857974 -122.938322 
L 289.043651 -84.042573 
L 290.064152 -121.37474 
L 292.272776 -141.372734 
L 293.137009 -101.501227 
L 294.681587 -127.984738 
L 294.917989 -111.087011 
L 296.195432 -136.230386 
L 296.657863 -89.903536 
L 298.135516 -71.188557 
L 298.246253 -104.476448 
L 300.654705 -81.266368 
L 300.980511 -152.677141 
L 303.055465 -120.59444 
L 305.391184 -79.075998 
L 305.391184 -90.058827 
L 306.713167 -126.916583 
L 306.713167 -133.738619 
L 312.456026 -88.737897 
L 312.531069 -80.572061 
L 313.91493 -56.111414 
L 314.30883 -88.571563 
L 314.549569 -75.640498 
L 314.549569 -85.287224 
L 315.763367 -52.061849 
L 315.763367 -75.658908 
L 316.528093 -104.435859 
L 316.750405 -113.147088 
L 316.815132 -68.355098 
L 317.894207 -118.480068 
L 318.027182 -130.356013 
L 320.443503 -91.14585 
L 321.303294 -87.560695 
L 321.303294 -87.158494 
L 322.21185 -90.843088 
L 324.004885 -85.299711 
L 324.602885 -125.190185 
L 325.214733 -122.715889 
L 329.359286 -81.014723 
L 333.273134 -102.020824 
L 334.949228 -101.163032 
L 336.639539 -135.473304 
L 336.731262 -74.534781 
L 342.786717 -86.473991 
L 348.276494 -97.157253 
L 349.774843 -94.312138 
L 350.15808 -109.492241 
L 350.15808 -87.756854 
L 351.559095 -106.136336 
L 351.559095 -101.226733 
L 353.360144 -50.791577 
L 354.381661 -134.463408 
L 355.907502 -87.068811 
L 359.645867 -122.893411 
L 360.11849 -52.928997 
L 366.368625 -74.60513 
L 366.368625 -76.156561 
L 372.597337 -139.367831 
L 380.726809 -61.102079 
L 380.726809 -62.505964 
L 390.96975 -112.506179 
L 390.96975 -101.300966 
L 398.487273 -61.715597 
L 398.487273 -156.875033 
L 398.487273 -156.875033 
L 390.96975 -221.908356 
L 390.96975 -255.059226 
L 380.726809 -156.21042 
L 380.726809 -163.670467 
L 372.597337 -213.853406 
L 366.368625 -152.429967 
L 366.368625 -141.531674 
L 360.11849 -149.042371 
L 359.645867 -190.341139 
L 355.907502 -134.923214 
L 354.381661 -226.825953 
L 353.360144 -132.310166 
L 351.559095 -169.309303 
L 351.559095 -229.98738 
L 350.15808 -191.001949 
L 350.15808 -244.145285 
L 349.774843 -142.97309 
L 348.276494 -149.086368 
L 342.786717 -132.192133 
L 336.731262 -138.296556 
L 336.639539 -200.842917 
L 334.949228 -161.243491 
L 333.273134 -156.009542 
L 329.359286 -127.53149 
L 325.214733 -202.368491 
L 324.602885 -193.277238 
L 324.004885 -128.122742 
L 322.21185 -139.656933 
L 321.303294 -149.72013 
L 321.303294 -163.337218 
L 320.443503 -139.881558 
L 318.027182 -218.148139 
L 317.894207 -174.285396 
L 316.815132 -176.349855 
L 316.750405 -157.458672 
L 316.528093 -150.57678 
L 315.763367 -119.796677 
L 315.763367 -150.50963 
L 314.549569 -215.57772 
L 314.549569 -186.099395 
L 314.30883 -132.926024 
L 313.91493 -159.927 
L 312.531069 -153.044568 
L 312.456026 -137.436819 
L 306.713167 -192.636564 
L 306.713167 -222.856596 
L 305.391184 -132.735608 
L 305.391184 -150.409836 
L 303.055465 -162.188882 
L 300.980511 -212.61149 
L 300.654705 -124.377508 
L 298.246253 -159.44746 
L 298.135516 -137.041431 
L 296.657863 -137.403642 
L 296.195432 -187.673989 
L 294.917989 -178.662404 
L 294.681587 -174.40869 
L 293.137009 -140.744716 
L 292.272776 -194.072097 
L 290.064152 -172.476964 
L 289.043651 -131.553397 
L 287.857974 -292.032 
L 287.857974 -242.515574 
L 287.350553 -141.961095 
L 286.877231 -123.478178 
L 286.203072 -162.203181 
L 285.833167 -132.917605 
L 285.116486 -179.210783 
L 284.811689 -141.020149 
L 282.701035 -132.744694 
L 282.100288 -142.77357 
L 281.939725 -221.716167 
L 280.839704 -127.65012 
L 280.692592 -127.318462 
L 280.468511 -131.810308 
L 279.192473 -176.850381 
L 278.536436 -164.187893 
L 277.643529 -156.465926 
L 277.402072 -183.00218 
L 277.249911 -143.653336 
L 276.672152 -158.231641 
L 270.352538 -205.282926 
L 268.619656 -150.796533 
L 265.682425 -196.283668 
L 265.331237 -204.46558 
L 265.331237 -219.098846 
L 265.105754 -121.322698 
L 263.557285 -165.82612 
L 263.287388 -128.305337 
L 262.361331 -143.878411 
L 262.211027 -138.414841 
L 261.610142 -131.966386 
L 261.324007 -207.912261 
L 259.746685 -202.349188 
L 257.903353 -162.618493 
L 256.204402 -203.616847 
L 255.556114 -195.36585 
L 254.955895 -142.787271 
L 254.955895 -137.86953 
L 254.053097 -145.586442 
L 253.600626 -194.916789 
L 253.600626 -196.527548 
L 253.434501 -130.939253 
L 252.892207 -136.569995 
L 252.534322 -126.999726 
L 252.18149 -122.942947 
L 251.132382 -133.281437 
L 250.79835 -205.503933 
L 250.79835 -251.754093 
L 249.842311 -128.512418 
L 249.070617 -125.850803 
L 249.070617 -143.405071 
L 247.968586 -169.91966 
L 246.160259 -219.122443 
L 246.160259 -266.15315 
L 245.019846 -133.257029 
L 244.114999 -178.490723 
L 243.524035 -128.49602 
L 243.001555 -149.919749 
L 242.651649 -170.359744 
L 242.321204 -152.031549 
L 242.095598 -148.045584 
L 241.872818 -138.51475 
L 238.932493 -210.009464 
L 234.458259 -203.425084 
L 232.585094 -187.442521 
L 230.84004 -199.494091 
L 230.170098 -132.343197 
L 229.288317 -182.053816 
L 229.288317 -166.064829 
L 229.127455 -200.889986 
L 228.960146 -121.260144 
L 228.448467 -135.829653 
L 228.260278 -125.083313 
L 227.935732 -137.751507 
L 227.816814 -134.89436 
L 227.597609 -117.009707 
L 227.447868 -211.879856 
L 223.993345 -190.257392 
L 223.328825 -198.407097 
L 222.042736 -143.025249 
L 222.042736 -134.218359 
L 221.704845 -149.551767 
L 221.062205 -124.547978 
L 220.865472 -134.436284 
L 220.492662 -133.868249 
L 220.367625 -124.938087 
L 220.367625 -135.484105 
L 220.1303 -118.532241 
L 220.045735 -120.689534 
L 220.045735 -127.244167 
L 216.975609 -234.451806 
L 214.107194 -220.385062 
L 211.739304 -188.120027 
L 210.739224 -239.262106 
L 209.823253 -147.319712 
L 209.348512 -206.573685 
L 208.887864 -118.350126 
L 208.623508 -168.420467 
L 208.623508 -213.749945 
L 208.356951 -128.802363 
L 208.194169 -143.989923 
L 208.025397 -150.004537 
L 207.91789 -141.260656 
L 207.804033 -123.992808 
L 207.729253 -115.049709 
L 201.596007 -215.944183 
L 199.217806 -200.573842 
L 197.469474 -198.701298 
L 196.617572 -209.364208 
L 195.994082 -154.600138 
L 195.585646 -187.427361 
L 195.282604 -128.424223 
L 195.18041 -207.199096 
L 195.054056 -142.4857 
L 194.881842 -123.106145 
L 194.740717 -129.614116 
L 194.632856 -114.746299 
L 194.539489 -121.028792 
L 194.467236 -114.804009 
L 194.402215 -106.973358 
L 192.032497 -197.034534 
L 190.885583 -165.52232 
L 190.885583 -178.387986 
L 190.323021 -133.585549 
L 190.001764 -122.094238 
L 190.001764 -148.07249 
L 189.799965 -120.772553 
L 189.664526 -106.632647 
L 179.322208 -239.804072 
L 177.886226 -200.620575 
L 176.184581 -227.556155 
L 175.738128 -228.207424 
L 175.12408 -174.204491 
L 174.925813 -205.564664 
L 174.630731 -130.681042 
L 174.525123 -183.366395 
L 174.359829 -124.162633 
L 174.296842 -149.502495 
L 174.194716 -119.30615 
L 174.154109 -130.15055 
L 174.086519 -123.450521 
L 174.058802 -117.835206 
L 174.011721 -118.045209 
L 173.991956 -113.985268 
L 165.86804 -217.765106 
L 165.018565 -188.482316 
L 163.633614 -218.429908 
L 163.362467 -217.904285 
L 162.893171 -170.847797 
L 162.771653 -193.216631 
L 162.551508 -140.63205 
L 162.486502 -149.752679 
L 162.36467 -123.454892 
L 162.325806 -132.169692 
L 162.251058 -112.072914 
L 162.225965 -131.802513 
L 162.225965 -120.03739 
L 162.176714 -109.378061 
L 162.176714 -119.224183 
L 162.15957 -111.579253 
L 162.125366 -111.960922 
L 162.113133 -102.731729 
L 142.786015 -218.775067 
L 142.285976 -184.817988 
L 141.360296 -223.52486 
L 141.228118 -212.346835 
L 141.228118 -208.052766 
L 140.929062 -195.708918 
L 140.875309 -201.664716 
L 140.74072 -158.461528 
L 140.713648 -173.668293 
L 140.641506 -129.178695 
L 140.625977 -152.430576 
L 140.582798 -120.290286 
L 140.573071 -126.096852 
L 140.545174 -107.907451 
L 140.53868 -110.922084 
L 140.519611 -124.021538 
L 140.51506 -111.649154 
L 140.501449 -120.585131 
L 140.498137 -111.538337 
L 132.932612 -185.243986 
L 132.077874 -206.306512 
L 131.816346 -202.177517 
L 131.700893 -172.340548 
L 131.700893 -160.619285 
L 131.639575 -128.613954 
L 131.603063 -115.8285 
L 131.579548 -110.26253 
L 131.563509 -109.940022 
L 131.552076 -115.861301 
L 131.552076 -119.228827 
L 107.596512 -165.611373 
L 107.530423 -189.664938 
L 107.530423 -230.402071 
L 107.286724 -214.587297 
L 107.273188 -196.740088 
L 107.207763 -238.192191 
L 107.202899 -243.466132 
L 107.176169 -179.917286 
L 107.173894 -173.454758 
L 107.160405 -149.107689 
L 107.159162 -152.294146 
L 107.151416 -119.032923 
L 107.150664 -130.018957 
L 107.145809 -114.429251 
L 107.14532 -115.736412 
L 107.142078 -107.134743 
L 107.141742 -109.069893 
L 107.139469 -117.615483 
L 107.139229 -100.382171 
L 73.832727 -112.182646 
L 73.832727 -172.948215 
L 73.832727 -272.652767 
L 73.832727 -220.021245 
L 73.832727 -205.939511 
z
" style="stroke: #1f77b4; stroke-opacity: 0.2"/>
    </defs>
    <g clip-path="url(#pc4c33ce69b)">
     <use xlink:href="#md1ffd731de" x="0" y="345.6" style="fill: #1f77b4; fill-opacity: 0.2; stroke: #1f77b4; stroke-opacity: 0.2"/>
    </g>
   </g>
   <g id="matplotlib.axis_1">
    <g id="xtick_1">
     <g id="line2d_1">
      <defs>
       <path id="m95c55d4e87" d="M 0 0 
L 0 3.5 
" style="stroke: #000000; stroke-width: 0.8"/>
      </defs>
      <g>
       <use xlink:href="#m95c55d4e87" x="73.832727" y="307.584" style="stroke: #000000; stroke-width: 0.8"/>
      </g>
     </g>
     <g id="text_1">
      <!-- 0 -->
      <g transform="translate(70.651477 322.182437)scale(0.1 -0.1)">
       <defs>
        <path id="DejaVuSans-30" d="M 2034 4250 
Q 1547 4250 1301 3770 
Q 1056 3291 1056 2328 
Q 1056 1369 1301 889 
Q 1547 409 2034 409 
Q 2525 409 2770 889 
Q 3016 1369 3016 2328 
Q 3016 3291 2770 3770 
Q 2525 4250 2034 4250 
z
M 2034 4750 
Q 2819 4750 3233 4129 
Q 3647 3509 3647 2328 
Q 3647 1150 3233 529 
Q 2819 -91 2034 -91 
Q 1250 -91 836 529 
Q 422 1150 422 2328 
Q 422 3509 836 4129 
Q 1250 4750 2034 4750 
z
" transform="scale(0.015625)"/>
       </defs>
       <use xlink:href="#DejaVuSans-30"/>
      </g>
     </g>
    </g>
    <g id="xtick_2">
     <g id="line2d_2">
      <g>
       <use xlink:href="#m95c55d4e87" x="124.80716" y="307.584" style="stroke: #000000; stroke-width: 0.8"/>
      </g>
     </g>
     <g id="text_2">
      <!-- 10 -->
      <g transform="translate(118.44466 322.182437)scale(0.1 -0.1)">
       <defs>
        <path id="DejaVuSans-31" d="M 794 531 
L 1825 531 
L 1825 4091 
L 703 3866 
L 703 4441 
L 1819 4666 
L 2450 4666 
L 2450 531 
L 3481 531 
L 3481 0 
L 794 0 
L 794 531 
z
" transform="scale(0.015625)"/>
       </defs>
       <use xlink:href="#DejaVuSans-31"/>
       <use xlink:href="#DejaVuSans-30" x="63.623047"/>
      </g>
     </g>
    </g>
    <g id="xtick_3">
     <g id="line2d_3">
      <g>
       <use xlink:href="#m95c55d4e87" x="175.781593" y="307.584" style="stroke: #000000; stroke-width: 0.8"/>
      </g>
     </g>
     <g id="text_3">
      <!-- 20 -->
      <g transform="translate(169.419093 322.182437)scale(0.1 -0.1)">
       <defs>
        <path id="DejaVuSans-32" d="M 1228 531 
L 3431 531 
L 3431 0 
L 469 0 
L 469 531 
Q 828 903 1448 1529 
Q 2069 2156 2228 2338 
Q 2531 2678 2651 2914 
Q 2772 3150 2772 3378 
Q 2772 3750 2511 3984 
Q 2250 4219 1831 4219 
Q 1534 4219 1204 4116 
Q 875 4013 500 3803 
L 500 4441 
Q 881 4594 1212 4672 
Q 1544 4750 1819 4750 
Q 2544 4750 2975 4387 
Q 3406 4025 3406 3419 
Q 3406 3131 3298 2873 
Q 3191 2616 2906 2266 
Q 2828 2175 2409 1742 
Q 1991 1309 1228 531 
z
" transform="scale(0.015625)"/>
       </defs>
       <use xlink:href="#DejaVuSans-32"/>
       <use xlink:href="#DejaVuSans-30" x="63.623047"/>
      </g>
     </g>
    </g>
    <g id="xtick_4">
     <g id="line2d_4">
      <g>
       <use xlink:href="#m95c55d4e87" x="226.756026" y="307.584" style="stroke: #000000; stroke-width: 0.8"/>
      </g>
     </g>
     <g id="text_4">
      <!-- 30 -->
      <g transform="translate(220.393526 322.182437)scale(0.1 -0.1)">
       <defs>
        <path id="DejaVuSans-33" d="M 2597 2516 
Q 3050 2419 3304 2112 
Q 3559 1806 3559 1356 
Q 3559 666 3084 287 
Q 2609 -91 1734 -91 
Q 1441 -91 1130 -33 
Q 819 25 488 141 
L 488 750 
Q 750 597 1062 519 
Q 1375 441 1716 441 
Q 2309 441 2620 675 
Q 2931 909 2931 1356 
Q 2931 1769 2642 2001 
Q 2353 2234 1838 2234 
L 1294 2234 
L 1294 2753 
L 1863 2753 
Q 2328 2753 2575 2939 
Q 2822 3125 2822 3475 
Q 2822 3834 2567 4026 
Q 2313 4219 1838 4219 
Q 1578 4219 1281 4162 
Q 984 4106 628 3988 
L 628 4550 
Q 988 4650 1302 4700 
Q 1616 4750 1894 4750 
Q 2613 4750 3031 4423 
Q 3450 4097 3450 3541 
Q 3450 3153 3228 2886 
Q 3006 2619 2597 2516 
z
" transform="scale(0.015625)"/>
       </defs>
       <use xlink:href="#DejaVuSans-33"/>
       <use xlink:href="#DejaVuSans-30" x="63.623047"/>
      </g>
     </g>
    </g>
    <g id="xtick_5">
     <g id="line2d_5">
      <g>
       <use xlink:href="#m95c55d4e87" x="277.730458" y="307.584" style="stroke: #000000; stroke-width: 0.8"/>
      </g>
     </g>
     <g id="text_5">
      <!-- 40 -->
      <g transform="translate(271.367958 322.182437)scale(0.1 -0.1)">
       <defs>
        <path id="DejaVuSans-34" d="M 2419 4116 
L 825 1625 
L 2419 1625 
L 2419 4116 
z
M 2253 4666 
L 3047 4666 
L 3047 1625 
L 3713 1625 
L 3713 1100 
L 3047 1100 
L 3047 0 
L 2419 0 
L 2419 1100 
L 313 1100 
L 313 1709 
L 2253 4666 
z
" transform="scale(0.015625)"/>
       </defs>
       <use xlink:href="#DejaVuSans-34"/>
       <use xlink:href="#DejaVuSans-30" x="63.623047"/>
      </g>
     </g>
    </g>
    <g id="xtick_6">
     <g id="line2d_6">
      <g>
       <use xlink:href="#m95c55d4e87" x="328.704891" y="307.584" style="stroke: #000000; stroke-width: 0.8"/>
      </g>
     </g>
     <g id="text_6">
      <!-- 50 -->
      <g transform="translate(322.342391 322.182437)scale(0.1 -0.1)">
       <defs>
        <path id="DejaVuSans-35" d="M 691 4666 
L 3169 4666 
L 3169 4134 
L 1269 4134 
L 1269 2991 
Q 1406 3038 1543 3061 
Q 1681 3084 1819 3084 
Q 2600 3084 3056 2656 
Q 3513 2228 3513 1497 
Q 3513 744 3044 326 
Q 2575 -91 1722 -91 
Q 1428 -91 1123 -41 
Q 819 9 494 109 
L 494 744 
Q 775 591 1075 516 
Q 1375 441 1709 441 
Q 2250 441 2565 725 
Q 2881 1009 2881 1497 
Q 2881 1984 2565 2268 
Q 2250 2553 1709 2553 
Q 1456 2553 1204 2497 
Q 953 2441 691 2322 
L 691 4666 
z
" transform="scale(0.015625)"/>
       </defs>
       <use xlink:href="#DejaVuSans-35"/>
       <use xlink:href="#DejaVuSans-30" x="63.623047"/>
      </g>
     </g>
    </g>
    <g id="xtick_7">
     <g id="line2d_7">
      <g>
       <use xlink:href="#m95c55d4e87" x="379.679324" y="307.584" style="stroke: #000000; stroke-width: 0.8"/>
      </g>
     </g>
     <g id="text_7">
      <!-- 60 -->
      <g transform="translate(373.316824 322.182437)scale(0.1 -0.1)">
       <defs>
        <path id="DejaVuSans-36" d="M 2113 2584 
Q 1688 2584 1439 2293 
Q 1191 2003 1191 1497 
Q 1191 994 1439 701 
Q 1688 409 2113 409 
Q 2538 409 2786 701 
Q 3034 994 3034 1497 
Q 3034 2003 2786 2293 
Q 2538 2584 2113 2584 
z
M 3366 4563 
L 3366 3988 
Q 3128 4100 2886 4159 
Q 2644 4219 2406 4219 
Q 1781 4219 1451 3797 
Q 1122 3375 1075 2522 
Q 1259 2794 1537 2939 
Q 1816 3084 2150 3084 
Q 2853 3084 3261 2657 
Q 3669 2231 3669 1497 
Q 3669 778 3244 343 
Q 2819 -91 2113 -91 
Q 1303 -91 875 529 
Q 447 1150 447 2328 
Q 447 3434 972 4092 
Q 1497 4750 2381 4750 
Q 2619 4750 2861 4703 
Q 3103 4656 3366 4563 
z
" transform="scale(0.015625)"/>
       </defs>
       <use xlink:href="#DejaVuSans-36"/>
       <use xlink:href="#DejaVuSans-30" x="63.623047"/>
      </g>
     </g>
    </g>
    <g id="text_8">
     <!-- Local close to cube -->
     <g transform="translate(188.365469 335.860562)scale(0.1 -0.1)">
      <defs>
       <path id="DejaVuSans-4c" d="M 628 4666 
L 1259 4666 
L 1259 531 
L 3531 531 
L 3531 0 
L 628 0 
L 628 4666 
z
" transform="scale(0.015625)"/>
       <path id="DejaVuSans-6f" d="M 1959 3097 
Q 1497 3097 1228 2736 
Q 959 2375 959 1747 
Q 959 1119 1226 758 
Q 1494 397 1959 397 
Q 2419 397 2687 759 
Q 2956 1122 2956 1747 
Q 2956 2369 2687 2733 
Q 2419 3097 1959 3097 
z
M 1959 3584 
Q 2709 3584 3137 3096 
Q 3566 2609 3566 1747 
Q 3566 888 3137 398 
Q 2709 -91 1959 -91 
Q 1206 -91 779 398 
Q 353 888 353 1747 
Q 353 2609 779 3096 
Q 1206 3584 1959 3584 
z
" transform="scale(0.015625)"/>
       <path id="DejaVuSans-63" d="M 3122 3366 
L 3122 2828 
Q 2878 2963 2633 3030 
Q 2388 3097 2138 3097 
Q 1578 3097 1268 2742 
Q 959 2388 959 1747 
Q 959 1106 1268 751 
Q 1578 397 2138 397 
Q 2388 397 2633 464 
Q 2878 531 3122 666 
L 3122 134 
Q 2881 22 2623 -34 
Q 2366 -91 2075 -91 
Q 1284 -91 818 406 
Q 353 903 353 1747 
Q 353 2603 823 3093 
Q 1294 3584 2113 3584 
Q 2378 3584 2631 3529 
Q 2884 3475 3122 3366 
z
" transform="scale(0.015625)"/>
       <path id="DejaVuSans-61" d="M 2194 1759 
Q 1497 1759 1228 1600 
Q 959 1441 959 1056 
Q 959 750 1161 570 
Q 1363 391 1709 391 
Q 2188 391 2477 730 
Q 2766 1069 2766 1631 
L 2766 1759 
L 2194 1759 
z
M 3341 1997 
L 3341 0 
L 2766 0 
L 2766 531 
Q 2569 213 2275 61 
Q 1981 -91 1556 -91 
Q 1019 -91 701 211 
Q 384 513 384 1019 
Q 384 1609 779 1909 
Q 1175 2209 1959 2209 
L 2766 2209 
L 2766 2266 
Q 2766 2663 2505 2880 
Q 2244 3097 1772 3097 
Q 1472 3097 1187 3025 
Q 903 2953 641 2809 
L 641 3341 
Q 956 3463 1253 3523 
Q 1550 3584 1831 3584 
Q 2591 3584 2966 3190 
Q 3341 2797 3341 1997 
z
" transform="scale(0.015625)"/>
       <path id="DejaVuSans-6c" d="M 603 4863 
L 1178 4863 
L 1178 0 
L 603 0 
L 603 4863 
z
" transform="scale(0.015625)"/>
       <path id="DejaVuSans-20" transform="scale(0.015625)"/>
       <path id="DejaVuSans-73" d="M 2834 3397 
L 2834 2853 
Q 2591 2978 2328 3040 
Q 2066 3103 1784 3103 
Q 1356 3103 1142 2972 
Q 928 2841 928 2578 
Q 928 2378 1081 2264 
Q 1234 2150 1697 2047 
L 1894 2003 
Q 2506 1872 2764 1633 
Q 3022 1394 3022 966 
Q 3022 478 2636 193 
Q 2250 -91 1575 -91 
Q 1294 -91 989 -36 
Q 684 19 347 128 
L 347 722 
Q 666 556 975 473 
Q 1284 391 1588 391 
Q 1994 391 2212 530 
Q 2431 669 2431 922 
Q 2431 1156 2273 1281 
Q 2116 1406 1581 1522 
L 1381 1569 
Q 847 1681 609 1914 
Q 372 2147 372 2553 
Q 372 3047 722 3315 
Q 1072 3584 1716 3584 
Q 2034 3584 2315 3537 
Q 2597 3491 2834 3397 
z
" transform="scale(0.015625)"/>
       <path id="DejaVuSans-65" d="M 3597 1894 
L 3597 1613 
L 953 1613 
Q 991 1019 1311 708 
Q 1631 397 2203 397 
Q 2534 397 2845 478 
Q 3156 559 3463 722 
L 3463 178 
Q 3153 47 2828 -22 
Q 2503 -91 2169 -91 
Q 1331 -91 842 396 
Q 353 884 353 1716 
Q 353 2575 817 3079 
Q 1281 3584 2069 3584 
Q 2775 3584 3186 3129 
Q 3597 2675 3597 1894 
z
M 3022 2063 
Q 3016 2534 2758 2815 
Q 2500 3097 2075 3097 
Q 1594 3097 1305 2825 
Q 1016 2553 972 2059 
L 3022 2063 
z
" transform="scale(0.015625)"/>
       <path id="DejaVuSans-74" d="M 1172 4494 
L 1172 3500 
L 2356 3500 
L 2356 3053 
L 1172 3053 
L 1172 1153 
Q 1172 725 1289 603 
Q 1406 481 1766 481 
L 2356 481 
L 2356 0 
L 1766 0 
Q 1100 0 847 248 
Q 594 497 594 1153 
L 594 3053 
L 172 3053 
L 172 3500 
L 594 3500 
L 594 4494 
L 1172 4494 
z
" transform="scale(0.015625)"/>
       <path id="DejaVuSans-75" d="M 544 1381 
L 544 3500 
L 1119 3500 
L 1119 1403 
Q 1119 906 1312 657 
Q 1506 409 1894 409 
Q 2359 409 2629 706 
Q 2900 1003 2900 1516 
L 2900 3500 
L 3475 3500 
L 3475 0 
L 2900 0 
L 2900 538 
Q 2691 219 2414 64 
Q 2138 -91 1772 -91 
Q 1169 -91 856 284 
Q 544 659 544 1381 
z
M 1991 3584 
L 1991 3584 
z
" transform="scale(0.015625)"/>
       <path id="DejaVuSans-62" d="M 3116 1747 
Q 3116 2381 2855 2742 
Q 2594 3103 2138 3103 
Q 1681 3103 1420 2742 
Q 1159 2381 1159 1747 
Q 1159 1113 1420 752 
Q 1681 391 2138 391 
Q 2594 391 2855 752 
Q 3116 1113 3116 1747 
z
M 1159 2969 
Q 1341 3281 1617 3432 
Q 1894 3584 2278 3584 
Q 2916 3584 3314 3078 
Q 3713 2572 3713 1747 
Q 3713 922 3314 415 
Q 2916 -91 2278 -91 
Q 1894 -91 1617 61 
Q 1341 213 1159 525 
L 1159 0 
L 581 0 
L 581 4863 
L 1159 4863 
L 1159 2969 
z
" transform="scale(0.015625)"/>
      </defs>
      <use xlink:href="#DejaVuSans-4c"/>
      <use xlink:href="#DejaVuSans-6f" x="53.962891"/>
      <use xlink:href="#DejaVuSans-63" x="115.144531"/>
      <use xlink:href="#DejaVuSans-61" x="170.125"/>
      <use xlink:href="#DejaVuSans-6c" x="231.404297"/>
      <use xlink:href="#DejaVuSans-20" x="259.1875"/>
      <use xlink:href="#DejaVuSans-63" x="290.974609"/>
      <use xlink:href="#DejaVuSans-6c" x="345.955078"/>
      <use xlink:href="#DejaVuSans-6f" x="373.738281"/>
      <use xlink:href="#DejaVuSans-73" x="434.919922"/>
      <use xlink:href="#DejaVuSans-65" x="487.019531"/>
      <use xlink:href="#DejaVuSans-20" x="548.542969"/>
      <use xlink:href="#DejaVuSans-74" x="580.330078"/>
      <use xlink:href="#DejaVuSans-6f" x="619.539062"/>
      <use xlink:href="#DejaVuSans-20" x="680.720703"/>
      <use xlink:href="#DejaVuSans-63" x="712.507812"/>
      <use xlink:href="#DejaVuSans-75" x="767.488281"/>
      <use xlink:href="#DejaVuSans-62" x="830.867188"/>
      <use xlink:href="#DejaVuSans-65" x="894.34375"/>
     </g>
    </g>
   </g>
   <g id="matplotlib.axis_2">
    <g id="ytick_1">
     <g id="line2d_8">
      <defs>
       <path id="mef5eb9a591" d="M 0 0 
L -3.5 0 
" style="stroke: #000000; stroke-width: 0.8"/>
      </defs>
      <g>
       <use xlink:href="#mef5eb9a591" x="57.6" y="279.838675" style="stroke: #000000; stroke-width: 0.8"/>
      </g>
     </g>
     <g id="text_9">
      <!-- 2.0 -->
      <g transform="translate(34.696875 283.637893)scale(0.1 -0.1)">
       <defs>
        <path id="DejaVuSans-2e" d="M 684 794 
L 1344 794 
L 1344 0 
L 684 0 
L 684 794 
z
" transform="scale(0.015625)"/>
       </defs>
       <use xlink:href="#DejaVuSans-32"/>
       <use xlink:href="#DejaVuSans-2e" x="63.623047"/>
       <use xlink:href="#DejaVuSans-30" x="95.410156"/>
      </g>
     </g>
    </g>
    <g id="ytick_2">
     <g id="line2d_9">
      <g>
       <use xlink:href="#mef5eb9a591" x="57.6" y="248.627127" style="stroke: #000000; stroke-width: 0.8"/>
      </g>
     </g>
     <g id="text_10">
      <!-- 2.5 -->
      <g transform="translate(34.696875 252.426346)scale(0.1 -0.1)">
       <use xlink:href="#DejaVuSans-32"/>
       <use xlink:href="#DejaVuSans-2e" x="63.623047"/>
       <use xlink:href="#DejaVuSans-35" x="95.410156"/>
      </g>
     </g>
    </g>
    <g id="ytick_3">
     <g id="line2d_10">
      <g>
       <use xlink:href="#mef5eb9a591" x="57.6" y="217.41558" style="stroke: #000000; stroke-width: 0.8"/>
      </g>
     </g>
     <g id="text_11">
      <!-- 3.0 -->
      <g transform="translate(34.696875 221.214799)scale(0.1 -0.1)">
       <use xlink:href="#DejaVuSans-33"/>
       <use xlink:href="#DejaVuSans-2e" x="63.623047"/>
       <use xlink:href="#DejaVuSans-30" x="95.410156"/>
      </g>
     </g>
    </g>
    <g id="ytick_4">
     <g id="line2d_11">
      <g>
       <use xlink:href="#mef5eb9a591" x="57.6" y="186.204033" style="stroke: #000000; stroke-width: 0.8"/>
      </g>
     </g>
     <g id="text_12">
      <!-- 3.5 -->
      <g transform="translate(34.696875 190.003252)scale(0.1 -0.1)">
       <use xlink:href="#DejaVuSans-33"/>
       <use xlink:href="#DejaVuSans-2e" x="63.623047"/>
       <use xlink:href="#DejaVuSans-35" x="95.410156"/>
      </g>
     </g>
    </g>
    <g id="ytick_5">
     <g id="line2d_12">
      <g>
       <use xlink:href="#mef5eb9a591" x="57.6" y="154.992486" style="stroke: #000000; stroke-width: 0.8"/>
      </g>
     </g>
     <g id="text_13">
      <!-- 4.0 -->
      <g transform="translate(34.696875 158.791705)scale(0.1 -0.1)">
       <use xlink:href="#DejaVuSans-34"/>
       <use xlink:href="#DejaVuSans-2e" x="63.623047"/>
       <use xlink:href="#DejaVuSans-30" x="95.410156"/>
      </g>
     </g>
    </g>
    <g id="ytick_6">
     <g id="line2d_13">
      <g>
       <use xlink:href="#mef5eb9a591" x="57.6" y="123.780939" style="stroke: #000000; stroke-width: 0.8"/>
      </g>
     </g>
     <g id="text_14">
      <!-- 4.5 -->
      <g transform="translate(34.696875 127.580158)scale(0.1 -0.1)">
       <use xlink:href="#DejaVuSans-34"/>
       <use xlink:href="#DejaVuSans-2e" x="63.623047"/>
       <use xlink:href="#DejaVuSans-35" x="95.410156"/>
      </g>
     </g>
    </g>
    <g id="ytick_7">
     <g id="line2d_14">
      <g>
       <use xlink:href="#mef5eb9a591" x="57.6" y="92.569392" style="stroke: #000000; stroke-width: 0.8"/>
      </g>
     </g>
     <g id="text_15">
      <!-- 5.0 -->
      <g transform="translate(34.696875 96.368611)scale(0.1 -0.1)">
       <use xlink:href="#DejaVuSans-35"/>
       <use xlink:href="#DejaVuSans-2e" x="63.623047"/>
       <use xlink:href="#DejaVuSans-30" x="95.410156"/>
      </g>
     </g>
    </g>
    <g id="ytick_8">
     <g id="line2d_15">
      <g>
       <use xlink:href="#mef5eb9a591" x="57.6" y="61.357845" style="stroke: #000000; stroke-width: 0.8"/>
      </g>
     </g>
     <g id="text_16">
      <!-- 5.5 -->
      <g transform="translate(34.696875 65.157063)scale(0.1 -0.1)">
       <use xlink:href="#DejaVuSans-35"/>
       <use xlink:href="#DejaVuSans-2e" x="63.623047"/>
       <use xlink:href="#DejaVuSans-35" x="95.410156"/>
      </g>
     </g>
    </g>
    <g id="text_17">
     <!-- GFLOPS -->
     <g transform="translate(28.617187 194.007688)rotate(-90)scale(0.1 -0.1)">
      <defs>
       <path id="DejaVuSans-47" d="M 3809 666 
L 3809 1919 
L 2778 1919 
L 2778 2438 
L 4434 2438 
L 4434 434 
Q 4069 175 3628 42 
Q 3188 -91 2688 -91 
Q 1594 -91 976 548 
Q 359 1188 359 2328 
Q 359 3472 976 4111 
Q 1594 4750 2688 4750 
Q 3144 4750 3555 4637 
Q 3966 4525 4313 4306 
L 4313 3634 
Q 3963 3931 3569 4081 
Q 3175 4231 2741 4231 
Q 1884 4231 1454 3753 
Q 1025 3275 1025 2328 
Q 1025 1384 1454 906 
Q 1884 428 2741 428 
Q 3075 428 3337 486 
Q 3600 544 3809 666 
z
" transform="scale(0.015625)"/>
       <path id="DejaVuSans-46" d="M 628 4666 
L 3309 4666 
L 3309 4134 
L 1259 4134 
L 1259 2759 
L 3109 2759 
L 3109 2228 
L 1259 2228 
L 1259 0 
L 628 0 
L 628 4666 
z
" transform="scale(0.015625)"/>
       <path id="DejaVuSans-4f" d="M 2522 4238 
Q 1834 4238 1429 3725 
Q 1025 3213 1025 2328 
Q 1025 1447 1429 934 
Q 1834 422 2522 422 
Q 3209 422 3611 934 
Q 4013 1447 4013 2328 
Q 4013 3213 3611 3725 
Q 3209 4238 2522 4238 
z
M 2522 4750 
Q 3503 4750 4090 4092 
Q 4678 3434 4678 2328 
Q 4678 1225 4090 567 
Q 3503 -91 2522 -91 
Q 1538 -91 948 565 
Q 359 1222 359 2328 
Q 359 3434 948 4092 
Q 1538 4750 2522 4750 
z
" transform="scale(0.015625)"/>
       <path id="DejaVuSans-50" d="M 1259 4147 
L 1259 2394 
L 2053 2394 
Q 2494 2394 2734 2622 
Q 2975 2850 2975 3272 
Q 2975 3691 2734 3919 
Q 2494 4147 2053 4147 
L 1259 4147 
z
M 628 4666 
L 2053 4666 
Q 2838 4666 3239 4311 
Q 3641 3956 3641 3272 
Q 3641 2581 3239 2228 
Q 2838 1875 2053 1875 
L 1259 1875 
L 1259 0 
L 628 0 
L 628 4666 
z
" transform="scale(0.015625)"/>
       <path id="DejaVuSans-53" d="M 3425 4513 
L 3425 3897 
Q 3066 4069 2747 4153 
Q 2428 4238 2131 4238 
Q 1616 4238 1336 4038 
Q 1056 3838 1056 3469 
Q 1056 3159 1242 3001 
Q 1428 2844 1947 2747 
L 2328 2669 
Q 3034 2534 3370 2195 
Q 3706 1856 3706 1288 
Q 3706 609 3251 259 
Q 2797 -91 1919 -91 
Q 1588 -91 1214 -16 
Q 841 59 441 206 
L 441 856 
Q 825 641 1194 531 
Q 1563 422 1919 422 
Q 2459 422 2753 634 
Q 3047 847 3047 1241 
Q 3047 1584 2836 1778 
Q 2625 1972 2144 2069 
L 1759 2144 
Q 1053 2284 737 2584 
Q 422 2884 422 3419 
Q 422 4038 858 4394 
Q 1294 4750 2059 4750 
Q 2388 4750 2728 4690 
Q 3069 4631 3425 4513 
z
" transform="scale(0.015625)"/>
      </defs>
      <use xlink:href="#DejaVuSans-47"/>
      <use xlink:href="#DejaVuSans-46" x="77.490234"/>
      <use xlink:href="#DejaVuSans-4c" x="135.009766"/>
      <use xlink:href="#DejaVuSans-4f" x="187.097656"/>
      <use xlink:href="#DejaVuSans-50" x="265.808594"/>
      <use xlink:href="#DejaVuSans-53" x="326.111328"/>
     </g>
    </g>
   </g>
   <g id="line2d_16">
    <path d="M 73.832727 210.155241 
L 73.832727 148.384694 
L 73.832727 252.013224 
L 107.139229 266.51137 
L 107.202899 146.754619 
L 107.207763 151.759534 
L 107.273188 189.120925 
L 107.286724 173.6906 
L 107.530423 191.472544 
L 107.596512 214.186058 
L 131.552076 258.685789 
L 131.552076 260.140875 
L 131.639575 235.593811 
L 131.816346 172.695604 
L 132.077874 166.706284 
L 132.932612 185.10492 
L 140.498137 255.590967 
L 140.501449 259.482427 
L 140.573071 245.667157 
L 140.582798 247.228023 
L 140.713648 206.474411 
L 140.74072 217.850325 
L 140.875309 180.536272 
L 140.929062 189.997217 
L 141.228118 196.409092 
L 141.228118 182.499169 
L 141.360296 164.223611 
L 142.285976 197.750188 
L 142.786015 169.433913 
L 162.113133 260.429059 
L 162.225965 240.963961 
L 162.251058 248.543762 
L 162.486502 217.672945 
L 162.551508 224.378788 
L 162.771653 177.504584 
L 162.893171 199.186359 
L 163.362467 158.187631 
L 163.633614 157.167019 
L 165.018565 183.804217 
L 165.86804 159.457957 
L 173.991956 254.380849 
L 174.011721 262.657186 
L 174.058802 250.118346 
L 174.086519 251.944246 
L 174.296842 226.286105 
L 174.359829 243.114254 
L 174.525123 197.557338 
L 174.630731 238.678894 
L 174.925813 177.224363 
L 175.12408 205.354195 
L 175.738128 158.800682 
L 176.184581 163.112258 
L 177.886226 187.96647 
L 179.322208 153.74082 
L 189.664526 254.913726 
L 190.001764 227.986952 
L 190.001764 242.996932 
L 190.323021 232.510618 
L 190.885583 204.585561 
L 190.885583 208.4453 
L 192.032497 175.425324 
L 194.402215 256.355042 
L 194.539489 245.087692 
L 194.632856 249.319824 
L 194.740717 235.094213 
L 194.881842 239.684961 
L 195.054056 225.105537 
L 195.18041 170.641355 
L 195.282604 235.244574 
L 195.585646 184.305314 
L 195.994082 214.264413 
L 196.617572 165.67448 
L 197.469474 172.336511 
L 199.217806 172.528866 
L 201.596007 162.332523 
L 207.729253 254.840059 
L 207.804033 252.465657 
L 207.91789 234.869454 
L 208.025397 236.607353 
L 208.194169 229.484399 
L 208.356951 239.534831 
L 208.623508 200.836544 
L 208.623508 215.723403 
L 208.887864 249.490786 
L 209.348512 175.987031 
L 209.823253 225.303403 
L 210.739224 153.49209 
L 211.739304 193.761588 
L 214.107194 168.737739 
L 216.975609 155.126079 
L 220.045735 245.436778 
L 220.045735 252.093261 
L 220.1303 245.658977 
L 220.367625 239.644384 
L 220.367625 246.738225 
L 220.492662 233.997105 
L 220.865472 230.79773 
L 221.062205 239.106931 
L 221.704845 218.378421 
L 222.042736 242.565058 
L 222.042736 226.095332 
L 223.328825 174.05002 
L 223.993345 181.913868 
L 227.447868 161.639958 
L 227.597609 247.345102 
L 227.816814 241.171378 
L 227.935732 231.667983 
L 228.260278 241.880812 
L 228.448467 229.985151 
L 228.960146 241.49301 
L 229.127455 172.801693 
L 229.288317 207.721668 
L 229.288317 205.635052 
L 230.170098 232.484696 
L 230.84004 173.7052 
L 232.585094 185.447552 
L 234.458259 168.163342 
L 238.932493 164.42723 
L 241.872818 238.130342 
L 242.095598 236.877353 
L 242.321204 228.644128 
L 242.651649 223.929469 
L 243.001555 225.873095 
L 243.524035 240.940606 
L 244.114999 199.169847 
L 245.019846 238.490287 
L 246.160259 165.253643 
L 246.160259 170.444426 
L 247.968586 208.670488 
L 249.070617 245.022667 
L 249.842311 238.123154 
L 250.79835 175.26003 
L 250.79835 181.626389 
L 251.132382 231.801701 
L 252.18149 243.871278 
L 252.534322 240.865194 
L 252.892207 232.825453 
L 253.434501 238.033521 
L 253.600626 182.208698 
L 254.053097 222.150776 
L 254.955895 231.614977 
L 254.955895 234.93571 
L 255.556114 188.400856 
L 256.204402 171.404468 
L 257.903353 206.743028 
L 259.746685 171.65539 
L 261.324007 165.992728 
L 261.610142 235.898764 
L 262.211027 237.810619 
L 262.361331 227.712664 
L 263.287388 240.318225 
L 263.557285 204.09924 
L 265.105754 242.582498 
L 265.331237 172.892866 
L 265.331237 178.247829 
L 265.682425 176.953825 
L 268.619656 215.398972 
L 270.352538 165.82745 
L 276.672152 226.442205 
L 277.249911 241.399083 
L 277.402072 187.888749 
L 277.643529 226.218095 
L 278.536436 230.749124 
L 279.192473 201.264386 
L 280.692592 243.260147 
L 280.839704 240.297355 
L 281.939725 168.592231 
L 282.100288 225.883298 
L 282.701035 235.431674 
L 284.811689 229.707079 
L 285.116486 194.650401 
L 285.833167 236.955035 
L 286.203072 205.690107 
L 286.877231 244.445833 
L 287.350553 227.941937 
L 287.857974 143.82552 
L 289.043651 238.312702 
L 290.064152 198.789176 
L 292.272776 178.685305 
L 293.137009 224.376692 
L 294.681587 196.589987 
L 294.917989 198.4492 
L 296.195432 185.49845 
L 296.657863 231.929562 
L 298.135516 243.805066 
L 298.246253 213.045929 
L 300.654705 243.34902 
L 300.980511 163.317796 
L 303.055465 204.728132 
L 305.391184 231.1536 
L 305.391184 234.331483 
L 306.713167 174.016739 
L 306.713167 182.898755 
L 312.456026 234.052621 
L 312.531069 229.059502 
L 313.91493 238.870797 
L 314.30883 234.684127 
L 314.549569 213.02084 
L 314.549569 198.070312 
L 315.763367 247.99396 
L 316.750405 210.751796 
L 316.815132 224.049217 
L 317.894207 200.326292 
L 318.027182 173.729339 
L 320.443503 231.377973 
L 321.303294 222.58995 
L 321.303294 226.975139 
L 322.21185 231.003484 
L 324.004885 240.127677 
L 324.602885 188.132169 
L 325.214733 184.373427 
L 329.359286 241.581888 
L 333.273134 216.590176 
L 334.949228 216.130901 
L 336.639539 177.339102 
L 336.731262 240.257596 
L 342.786717 236.125209 
L 348.276494 223.775063 
L 349.774843 226.993905 
L 350.15808 173.061869 
L 350.15808 206.288386 
L 351.559095 182.32465 
L 351.559095 212.165628 
L 353.360144 255.741441 
L 354.381661 166.445291 
L 355.907502 234.394203 
L 359.645867 189.714127 
L 360.11849 246.875425 
L 366.368625 239.328763 
L 366.368625 233.699447 
L 372.597337 170.508236 
L 380.726809 236.977939 
L 380.726809 238.412202 
L 390.96975 162.841303 
L 390.96975 186.488395 
L 398.487273 239.725435 
L 398.487273 239.725435 
" clip-path="url(#pc4c33ce69b)" style="fill: none; stroke: #1f77b4; stroke-width: 1.5; stroke-linecap: square"/>
   </g>
   <g id="line2d_17"/>
   <g id="patch_3">
    <path d="M 57.6 307.584 
L 57.6 41.472 
" style="fill: none; stroke: #000000; stroke-width: 0.8; stroke-linejoin: miter; stroke-linecap: square"/>
   </g>
   <g id="patch_4">
    <path d="M 414.72 307.584 
L 414.72 41.472 
" style="fill: none; stroke: #000000; stroke-width: 0.8; stroke-linejoin: miter; stroke-linecap: square"/>
   </g>
   <g id="patch_5">
    <path d="M 57.6 307.584 
L 414.72 307.584 
" style="fill: none; stroke: #000000; stroke-width: 0.8; stroke-linejoin: miter; stroke-linecap: square"/>
   </g>
   <g id="patch_6">
    <path d="M 57.6 41.472 
L 414.72 41.472 
" style="fill: none; stroke: #000000; stroke-width: 0.8; stroke-linejoin: miter; stroke-linecap: square"/>
   </g>
   <g id="text_18">
    <!-- Local Cubeness -->
    <g transform="translate(189.462187 35.472)scale(0.12 -0.12)">
     <defs>
      <path id="DejaVuSans-43" d="M 4122 4306 
L 4122 3641 
Q 3803 3938 3442 4084 
Q 3081 4231 2675 4231 
Q 1875 4231 1450 3742 
Q 1025 3253 1025 2328 
Q 1025 1406 1450 917 
Q 1875 428 2675 428 
Q 3081 428 3442 575 
Q 3803 722 4122 1019 
L 4122 359 
Q 3791 134 3420 21 
Q 3050 -91 2638 -91 
Q 1578 -91 968 557 
Q 359 1206 359 2328 
Q 359 3453 968 4101 
Q 1578 4750 2638 4750 
Q 3056 4750 3426 4639 
Q 3797 4528 4122 4306 
z
" transform="scale(0.015625)"/>
      <path id="DejaVuSans-6e" d="M 3513 2113 
L 3513 0 
L 2938 0 
L 2938 2094 
Q 2938 2591 2744 2837 
Q 2550 3084 2163 3084 
Q 1697 3084 1428 2787 
Q 1159 2491 1159 1978 
L 1159 0 
L 581 0 
L 581 3500 
L 1159 3500 
L 1159 2956 
Q 1366 3272 1645 3428 
Q 1925 3584 2291 3584 
Q 2894 3584 3203 3211 
Q 3513 2838 3513 2113 
z
" transform="scale(0.015625)"/>
     </defs>
     <use xlink:href="#DejaVuSans-4c"/>
     <use xlink:href="#DejaVuSans-6f" x="53.962891"/>
     <use xlink:href="#DejaVuSans-63" x="115.144531"/>
     <use xlink:href="#DejaVuSans-61" x="170.125"/>
     <use xlink:href="#DejaVuSans-6c" x="231.404297"/>
     <use xlink:href="#DejaVuSans-20" x="259.1875"/>
     <use xlink:href="#DejaVuSans-43" x="290.974609"/>
     <use xlink:href="#DejaVuSans-75" x="360.798828"/>
     <use xlink:href="#DejaVuSans-62" x="424.177734"/>
     <use xlink:href="#DejaVuSans-65" x="487.654297"/>
     <use xlink:href="#DejaVuSans-6e" x="549.177734"/>
     <use xlink:href="#DejaVuSans-65" x="612.556641"/>
     <use xlink:href="#DejaVuSans-73" x="674.080078"/>
     <use xlink:href="#DejaVuSans-73" x="726.179688"/>
    </g>
   </g>
   <g id="legend_1">
    <g id="patch_7">
     <path d="M 339.12 78.82825 
L 407.72 78.82825 
Q 409.72 78.82825 409.72 76.82825 
L 409.72 48.472 
Q 409.72 46.472 407.72 46.472 
L 339.12 46.472 
Q 337.12 46.472 337.12 48.472 
L 337.12 76.82825 
Q 337.12 78.82825 339.12 78.82825 
z
" style="fill: #ffffff; opacity: 0.8; stroke: #cccccc; stroke-linejoin: miter"/>
    </g>
    <g id="text_19">
     <!-- Cluster -->
     <g transform="translate(355.673906 58.070437)scale(0.1 -0.1)">
      <defs>
       <path id="DejaVuSans-72" d="M 2631 2963 
Q 2534 3019 2420 3045 
Q 2306 3072 2169 3072 
Q 1681 3072 1420 2755 
Q 1159 2438 1159 1844 
L 1159 0 
L 581 0 
L 581 3500 
L 1159 3500 
L 1159 2956 
Q 1341 3275 1631 3429 
Q 1922 3584 2338 3584 
Q 2397 3584 2469 3576 
Q 2541 3569 2628 3553 
L 2631 2963 
z
" transform="scale(0.015625)"/>
      </defs>
      <use xlink:href="#DejaVuSans-43"/>
      <use xlink:href="#DejaVuSans-6c" x="69.824219"/>
      <use xlink:href="#DejaVuSans-75" x="97.607422"/>
      <use xlink:href="#DejaVuSans-73" x="160.986328"/>
      <use xlink:href="#DejaVuSans-74" x="213.085938"/>
      <use xlink:href="#DejaVuSans-65" x="252.294922"/>
      <use xlink:href="#DejaVuSans-72" x="313.818359"/>
     </g>
    </g>
    <g id="line2d_18">
     <path d="M 341.12 69.248562 
L 351.12 69.248562 
L 361.12 69.248562 
" style="fill: none; stroke: #1f77b4; stroke-width: 1.5; stroke-linecap: square"/>
    </g>
    <g id="text_20">
     <!-- Hopper -->
     <g transform="translate(369.12 72.748562)scale(0.1 -0.1)">
      <defs>
       <path id="DejaVuSans-48" d="M 628 4666 
L 1259 4666 
L 1259 2753 
L 3553 2753 
L 3553 4666 
L 4184 4666 
L 4184 0 
L 3553 0 
L 3553 2222 
L 1259 2222 
L 1259 0 
L 628 0 
L 628 4666 
z
" transform="scale(0.015625)"/>
       <path id="DejaVuSans-70" d="M 1159 525 
L 1159 -1331 
L 581 -1331 
L 581 3500 
L 1159 3500 
L 1159 2969 
Q 1341 3281 1617 3432 
Q 1894 3584 2278 3584 
Q 2916 3584 3314 3078 
Q 3713 2572 3713 1747 
Q 3713 922 3314 415 
Q 2916 -91 2278 -91 
Q 1894 -91 1617 61 
Q 1341 213 1159 525 
z
M 3116 1747 
Q 3116 2381 2855 2742 
Q 2594 3103 2138 3103 
Q 1681 3103 1420 2742 
Q 1159 2381 1159 1747 
Q 1159 1113 1420 752 
Q 1681 391 2138 391 
Q 2594 391 2855 752 
Q 3116 1113 3116 1747 
z
" transform="scale(0.015625)"/>
      </defs>
      <use xlink:href="#DejaVuSans-48"/>
      <use xlink:href="#DejaVuSans-6f" x="75.195312"/>
      <use xlink:href="#DejaVuSans-70" x="136.376953"/>
      <use xlink:href="#DejaVuSans-70" x="199.853516"/>
      <use xlink:href="#DejaVuSans-65" x="263.330078"/>
      <use xlink:href="#DejaVuSans-72" x="324.853516"/>
     </g>
    </g>
   </g>
  </g>
 </g>
 <defs>
  <clipPath id="pc4c33ce69b">
   <rect x="57.6" y="41.472" width="357.12" height="266.112"/>
  </clipPath>
 </defs>
</svg>
