<?xml version="1.0" encoding="utf-8" standalone="no"?>
<!DOCTYPE svg PUBLIC "-//W3C//DTD SVG 1.1//EN"
  "http://www.w3.org/Graphics/SVG/1.1/DTD/svg11.dtd">
<svg xmlns:xlink="http://www.w3.org/1999/xlink" width="460.8pt" height="345.6pt" viewBox="0 0 460.8 345.6" xmlns="http://www.w3.org/2000/svg" version="1.1">
 <metadata>
  <rdf:RDF xmlns:dc="http://purl.org/dc/elements/1.1/" xmlns:cc="http://creativecommons.org/ns#" xmlns:rdf="http://www.w3.org/1999/02/22-rdf-syntax-ns#">
   <cc:Work>
    <dc:type rdf:resource="http://purl.org/dc/dcmitype/StillImage"/>
    <dc:date>2024-05-02T16:24:06.750250</dc:date>
    <dc:format>image/svg+xml</dc:format>
    <dc:creator>
     <cc:Agent>
      <dc:title>Matplotlib v3.5.3, https://matplotlib.org/</dc:title>
     </cc:Agent>
    </dc:creator>
   </cc:Work>
  </rdf:RDF>
 </metadata>
 <defs>
  <style type="text/css">*{stroke-linejoin: round; stroke-linecap: butt}</style>
 </defs>
 <g id="figure_1">
  <g id="patch_1">
   <path d="M 0 345.6 
L 460.8 345.6 
L 460.8 0 
L 0 0 
z
" style="fill: #ffffff"/>
  </g>
  <g id="axes_1">
   <g id="patch_2">
    <path d="M 57.6 307.584 
L 414.72 307.584 
L 414.72 41.472 
L 57.6 41.472 
z
" style="fill: #ffffff"/>
   </g>
   <g id="PolyCollection_1">
    <defs>
     <path id="m8b17002c2a" d="M 73.832727 -209.368244 
L 73.832727 -51.013291 
L 73.832727 -71.967211 
L 73.832727 -54.188517 
L 73.832727 -75.359157 
L 73.832727 -80.570717 
L 107.139229 -90.597114 
L 107.139469 -90.135969 
L 107.141742 -92.78195 
L 107.142078 -76.05773 
L 107.14532 -82.583552 
L 107.145809 -76.062589 
L 107.150664 -80.256405 
L 107.151416 -81.322118 
L 107.159162 -83.041397 
L 107.160405 -82.867395 
L 107.173894 -66.174416 
L 107.176169 -70.752652 
L 107.202899 -80.046701 
L 107.207763 -75.238585 
L 107.273188 -96.641466 
L 107.286724 -87.704231 
L 107.530423 -69.217993 
L 107.530423 -82.728201 
L 107.596512 -85.063799 
L 131.552076 -64.936195 
L 131.552076 -90.182623 
L 131.563509 -84.827138 
L 131.579548 -89.152459 
L 131.603063 -85.894307 
L 131.639575 -87.973085 
L 131.700893 -83.471652 
L 131.700893 -73.532237 
L 131.816346 -87.295121 
L 132.077874 -111.220717 
L 132.932612 -112.19495 
L 140.498137 -75.085821 
L 140.501449 -64.959177 
L 140.51506 -91.033853 
L 140.519611 -90.61029 
L 140.53868 -82.228336 
L 140.545174 -75.892171 
L 140.573071 -79.709879 
L 140.582798 -84.407812 
L 140.625977 -71.163643 
L 140.641506 -76.269245 
L 140.713648 -79.955336 
L 140.74072 -86.053043 
L 140.875309 -71.488076 
L 140.929062 -76.564995 
L 141.228118 -73.78868 
L 141.228118 -80.19529 
L 141.360296 -86.745308 
L 142.285976 -82.280395 
L 142.786015 -88.952011 
L 162.113133 -85.136458 
L 162.125366 -90.318699 
L 162.15957 -80.445687 
L 162.176714 -90.592579 
L 162.176714 -81.033783 
L 162.225965 -74.658246 
L 162.225965 -82.400503 
L 162.251058 -87.299117 
L 162.325806 -91.482917 
L 162.36467 -81.224709 
L 162.486502 -81.421008 
L 162.551508 -97.750634 
L 162.771653 -91.81419 
L 162.893171 -85.49467 
L 163.362467 -110.80546 
L 163.633614 -112.859644 
L 165.018565 -103.255085 
L 165.86804 -109.782229 
L 173.991956 -90.755222 
L 174.011721 -90.16232 
L 174.058802 -75.476207 
L 174.086519 -90.42324 
L 174.154109 -79.304023 
L 174.194716 -80.707624 
L 174.296842 -76.985177 
L 174.359829 -80.423858 
L 174.525123 -67.676191 
L 174.630731 -85.974203 
L 174.925813 -74.992556 
L 175.12408 -76.398917 
L 175.738128 -102.771918 
L 176.184581 -96.787403 
L 177.886226 -94.528775 
L 179.322208 -94.349206 
L 189.664526 -84.50325 
L 189.799965 -92.488467 
L 190.001764 -97.072293 
L 190.001764 -73.051552 
L 190.323021 -94.914799 
L 190.885583 -60.550722 
L 190.885583 -77.122548 
L 192.032497 -111.648993 
L 194.402215 -85.020895 
L 194.467236 -90.543332 
L 194.539489 -97.279733 
L 194.632856 -90.0541 
L 194.740717 -88.294946 
L 194.881842 -88.026888 
L 195.054056 -84.348179 
L 195.18041 -115.000177 
L 195.282604 -87.642206 
L 195.585646 -78.573021 
L 195.994082 -81.971715 
L 196.617572 -115.664126 
L 197.469474 -115.91823 
L 199.217806 -123.521182 
L 201.596007 -108.738127 
L 207.729253 -66.677944 
L 207.804033 -91.373179 
L 207.91789 -90.758533 
L 208.025397 -94.344383 
L 208.194169 -69.909918 
L 208.356951 -85.697451 
L 208.623508 -52.039853 
L 208.623508 -71.357016 
L 208.887864 -74.882691 
L 209.348512 -73.061646 
L 209.823253 -68.183671 
L 210.739224 -102.712237 
L 211.739304 -92.721828 
L 214.107194 -106.748447 
L 216.975609 -98.911075 
L 220.045735 -72.965291 
L 220.045735 -80.559721 
L 220.1303 -93.015121 
L 220.367625 -76.784331 
L 220.367625 -73.955318 
L 220.492662 -88.029962 
L 220.865472 -86.969822 
L 221.062205 -86.329726 
L 221.704845 -80.070804 
L 222.042736 -63.049796 
L 222.042736 -85.587535 
L 223.328825 -98.85674 
L 223.993345 -101.011166 
L 227.447868 -112.823671 
L 227.597609 -93.097328 
L 227.816814 -91.940233 
L 227.935732 -97.177348 
L 228.260278 -84.51693 
L 228.448467 -83.494459 
L 228.960146 -84.014177 
L 229.127455 -112.814444 
L 229.288317 -79.74646 
L 229.288317 -55.579873 
L 230.170098 -74.840838 
L 230.84004 -111.91127 
L 232.585094 -110.622989 
L 234.458259 -123.692229 
L 238.932493 -114.053811 
L 241.872818 -89.527364 
L 242.095598 -91.206 
L 242.321204 -67.867674 
L 242.651649 -64.662143 
L 243.001555 -71.003122 
L 243.524035 -75.78297 
L 244.114999 -59.738407 
L 245.019846 -70.876512 
L 246.160259 -73.458081 
L 246.160259 -87.607157 
L 247.968586 -77.489473 
L 249.070617 -65.066655 
L 249.070617 -85.763016 
L 249.842311 -78.132335 
L 250.79835 -66.038117 
L 250.79835 -93.569502 
L 251.132382 -82.215932 
L 252.18149 -82.911977 
L 252.534322 -84.641864 
L 252.892207 -97.246459 
L 253.434501 -81.704714 
L 253.600626 -74.975014 
L 253.600626 -86.692184 
L 254.053097 -80.09352 
L 254.955895 -72.513688 
L 254.955895 -61.475615 
L 255.556114 -105.949386 
L 256.204402 -92.272088 
L 257.903353 -96.083786 
L 259.746685 -103.811173 
L 261.324007 -120.828759 
L 261.610142 -95.769897 
L 262.211027 -77.926705 
L 262.361331 -84.278987 
L 263.287388 -75.573228 
L 263.557285 -76.056017 
L 265.105754 -72.516567 
L 265.331237 -69.823107 
L 265.331237 -98.552118 
L 265.682425 -94.348624 
L 268.619656 -85.896834 
L 270.352538 -120.407482 
L 276.672152 -70.436742 
L 277.249911 -65.229687 
L 277.402072 -111.162655 
L 277.643529 -65.951777 
L 278.536436 -65.249429 
L 279.192473 -66.160882 
L 280.468511 -78.607408 
L 280.692592 -72.032241 
L 280.839704 -81.160551 
L 281.939725 -89.74294 
L 282.100288 -89.372642 
L 282.701035 -74.425402 
L 284.811689 -71.569822 
L 285.116486 -91.463404 
L 285.833167 -96.742394 
L 286.203072 -90.976121 
L 286.877231 -79.209724 
L 287.350553 -77.18347 
L 287.857974 -104.814976 
L 287.857974 -73.454537 
L 289.043651 -73.103167 
L 290.064152 -82.057573 
L 292.272776 -96.8834 
L 293.137009 -81.352297 
L 294.681587 -94.761966 
L 294.917989 -89.340453 
L 296.195432 -96.958103 
L 296.657863 -85.155701 
L 298.135516 -75.59431 
L 298.246253 -67.39538 
L 300.654705 -73.421698 
L 300.980511 -94.305661 
L 303.055465 -100.848145 
L 305.391184 -64.549695 
L 305.391184 -70.364491 
L 306.713167 -84.11941 
L 306.713167 -95.170412 
L 312.456026 -74.010494 
L 312.531069 -67.608469 
L 313.91493 -66.433591 
L 314.30883 -78.288925 
L 314.549569 -50.170837 
L 314.549569 -51.039016 
L 315.763367 -59.366767 
L 315.763367 -68.298098 
L 316.528093 -94.948671 
L 316.750405 -93.158746 
L 316.815132 -61.30631 
L 317.894207 -87.469004 
L 318.027182 -77.102135 
L 320.443503 -80.786289 
L 321.303294 -60.619421 
L 321.303294 -75.974807 
L 322.21185 -71.937623 
L 324.004885 -72.077767 
L 324.602885 -84.585403 
L 325.214733 -92.857479 
L 329.359286 -68.676141 
L 333.273134 -74.577727 
L 334.949228 -80.447152 
L 336.639539 -87.542946 
L 336.731262 -67.386332 
L 342.786717 -74.170863 
L 348.276494 -87.680645 
L 349.774843 -82.53861 
L 350.15808 -50.768222 
L 350.15808 -50.112 
L 351.559095 -69.262326 
L 351.559095 -79.448175 
L 353.360144 -60.5918 
L 354.381661 -83.229888 
L 355.907502 -76.41676 
L 359.645867 -76.8672 
L 360.11849 -58.71987 
L 366.368625 -65.790256 
L 366.368625 -62.959408 
L 372.597337 -85.948568 
L 380.726809 -58.078967 
L 380.726809 -57.071393 
L 390.96975 -56.562391 
L 390.96975 -68.772416 
L 398.487273 -59.045365 
L 398.487273 -201.010609 
L 398.487273 -201.010609 
L 390.96975 -258.250044 
L 390.96975 -272.758568 
L 380.726809 -200.237672 
L 380.726809 -204.128015 
L 372.597337 -191.425276 
L 366.368625 -158.587868 
L 366.368625 -156.887374 
L 360.11849 -179.443438 
L 359.645867 -157.920988 
L 355.907502 -149.431507 
L 354.381661 -235.26837 
L 353.360144 -202.454835 
L 351.559095 -182.482918 
L 351.559095 -273.738107 
L 350.15808 -197.823128 
L 350.15808 -228.482045 
L 349.774843 -171.276598 
L 348.276494 -170.676054 
L 342.786717 -146.878436 
L 336.731262 -169.702011 
L 336.639539 -184.348359 
L 334.949228 -160.693047 
L 333.273134 -154.999186 
L 329.359286 -146.182393 
L 325.214733 -208.156341 
L 324.602885 -166.620506 
L 324.004885 -147.051722 
L 322.21185 -157.743891 
L 321.303294 -196.882498 
L 321.303294 -185.528559 
L 320.443503 -172.676962 
L 318.027182 -187.626755 
L 317.894207 -171.872584 
L 316.815132 -198.965065 
L 316.750405 -167.354688 
L 316.528093 -179.57409 
L 315.763367 -92.239562 
L 315.763367 -197.100075 
L 314.549569 -175.955915 
L 314.549569 -200.299299 
L 314.30883 -160.49981 
L 313.91493 -236.719004 
L 312.531069 -182.317507 
L 312.456026 -145.232958 
L 306.713167 -206.18203 
L 306.713167 -228.723819 
L 305.391184 -136.966373 
L 305.391184 -163.140442 
L 303.055465 -172.659163 
L 300.980511 -182.482487 
L 300.654705 -145.716851 
L 298.246253 -146.305805 
L 298.135516 -185.907978 
L 296.657863 -174.861814 
L 296.195432 -181.640064 
L 294.917989 -194.769444 
L 294.681587 -174.567227 
L 293.137009 -151.34107 
L 292.272776 -172.560621 
L 290.064152 -150.927888 
L 289.043651 -147.694319 
L 287.857974 -275.469669 
L 287.857974 -280.053556 
L 287.350553 -159.985781 
L 286.877231 -161.28124 
L 286.203072 -166.391173 
L 285.833167 -189.59362 
L 285.116486 -175.024306 
L 284.811689 -148.155042 
L 282.701035 -149.022541 
L 282.100288 -179.2015 
L 281.939725 -208.472452 
L 280.839704 -165.580139 
L 280.692592 -151.925052 
L 280.468511 -161.958686 
L 279.192473 -162.158935 
L 278.536436 -224.91866 
L 277.643529 -177.105185 
L 277.402072 -200.090641 
L 277.249911 -272.234361 
L 276.672152 -193.364432 
L 270.352538 -210.909278 
L 268.619656 -159.154142 
L 265.682425 -184.871042 
L 265.331237 -196.479821 
L 265.331237 -234.009619 
L 265.105754 -129.379838 
L 263.557285 -150.564561 
L 263.287388 -159.309149 
L 262.361331 -168.035554 
L 262.211027 -215.751664 
L 261.610142 -190.72947 
L 261.324007 -225.711632 
L 259.746685 -200.804813 
L 257.903353 -174.377264 
L 256.204402 -172.409055 
L 255.556114 -224.762816 
L 254.955895 -161.078282 
L 254.955895 -132.725411 
L 254.053097 -151.169583 
L 253.600626 -188.46923 
L 253.600626 -196.961378 
L 253.434501 -165.468583 
L 252.892207 -192.435875 
L 252.534322 -178.039521 
L 252.18149 -168.784631 
L 251.132382 -155.065771 
L 250.79835 -261.053493 
L 250.79835 -240.464833 
L 249.842311 -164.04778 
L 249.070617 -172.672208 
L 249.070617 -271.792007 
L 247.968586 -179.723423 
L 246.160259 -265.256802 
L 246.160259 -270.764571 
L 245.019846 -148.599112 
L 244.114999 -150.176595 
L 243.524035 -157.095871 
L 243.001555 -165.736312 
L 242.651649 -271.657659 
L 242.321204 -194.519298 
L 242.095598 -281.100457 
L 241.872818 -224.47074 
L 238.932493 -207.632476 
L 234.458259 -213.796348 
L 232.585094 -193.675439 
L 230.84004 -209.312129 
L 230.170098 -133.173268 
L 229.288317 -183.715319 
L 229.288317 -143.622353 
L 229.127455 -206.483076 
L 228.960146 -149.90188 
L 228.448467 -155.799533 
L 228.260278 -175.618001 
L 227.935732 -195.02768 
L 227.816814 -223.586463 
L 227.597609 -185.949968 
L 227.447868 -214.087196 
L 223.993345 -188.725652 
L 223.328825 -187.520687 
L 222.042736 -183.855113 
L 222.042736 -157.337871 
L 221.704845 -153.261804 
L 221.062205 -151.552285 
L 220.865472 -158.698447 
L 220.492662 -185.760667 
L 220.367625 -214.073741 
L 220.367625 -182.670492 
L 220.1303 -187.408052 
L 220.045735 -209.601462 
L 220.045735 -205.465869 
L 216.975609 -234.958472 
L 214.107194 -230.165153 
L 211.739304 -202.482097 
L 210.739224 -237.597785 
L 209.823253 -140.880255 
L 209.348512 -180.488322 
L 208.887864 -160.841767 
L 208.623508 -204.294452 
L 208.623508 -178.954679 
L 208.356951 -173.130808 
L 208.194169 -199.052705 
L 208.025397 -281.873282 
L 207.91789 -226.769847 
L 207.804033 -104.6045 
L 207.729253 -105.353565 
L 201.596007 -193.947397 
L 199.217806 -211.548049 
L 197.469474 -210.168358 
L 196.617572 -215.324455 
L 195.994082 -162.139866 
L 195.585646 -149.609617 
L 195.282604 -150.127062 
L 195.18041 -205.275108 
L 195.054056 -155.31142 
L 194.881842 -156.812707 
L 194.740717 -173.692728 
L 194.632856 -183.332395 
L 194.539489 -191.528733 
L 194.467236 -103.478311 
L 194.402215 -102.429952 
L 192.032497 -205.276541 
L 190.885583 -163.337062 
L 190.885583 -163.271624 
L 190.323021 -173.535822 
L 190.001764 -150.089164 
L 190.001764 -205.491385 
L 189.799965 -188.720714 
L 189.664526 -102.793499 
L 179.322208 -222.063044 
L 177.886226 -207.56653 
L 176.184581 -230.911526 
L 175.738128 -236.338373 
L 175.12408 -191.474198 
L 174.925813 -212.785871 
L 174.630731 -167.39872 
L 174.525123 -171.785784 
L 174.359829 -168.743392 
L 174.296842 -187.236798 
L 174.194716 -171.591184 
L 174.154109 -191.678559 
L 174.086519 -102.118417 
L 174.058802 -106.201123 
L 174.011721 -102.54306 
L 173.991956 -103.129914 
L 165.86804 -200.873357 
L 165.018565 -190.543044 
L 163.633614 -208.030991 
L 163.362467 -205.609734 
L 162.893171 -167.683019 
L 162.771653 -175.606038 
L 162.551508 -174.760032 
L 162.486502 -158.206309 
L 162.36467 -148.874958 
L 162.325806 -172.424729 
L 162.251058 -159.377542 
L 162.225965 -210.707527 
L 162.225965 -153.373087 
L 162.176714 -103.322486 
L 162.176714 -102.07565 
L 162.15957 -102.16892 
L 162.125366 -102.960575 
L 162.113133 -102.648801 
L 142.786015 -223.088318 
L 142.285976 -191.763703 
L 141.360296 -217.12071 
L 141.228118 -224.667169 
L 141.228118 -275.656056 
L 140.929062 -190.272783 
L 140.875309 -199.170344 
L 140.74072 -212.789252 
L 140.713648 -181.526871 
L 140.641506 -165.102203 
L 140.625977 -176.472316 
L 140.582798 -175.678855 
L 140.573071 -204.871569 
L 140.545174 -102.274796 
L 140.53868 -102.79318 
L 140.519611 -104.331917 
L 140.51506 -107.655407 
L 140.501449 -107.393407 
L 140.498137 -105.742353 
L 132.932612 -199.009385 
L 132.077874 -203.15311 
L 131.816346 -171.197626 
L 131.700893 -232.118934 
L 131.700893 -177.493733 
L 131.639575 -170.054666 
L 131.603063 -159.459073 
L 131.579548 -100.743818 
L 131.563509 -102.620293 
L 131.552076 -104.257183 
L 131.552076 -105.027847 
L 107.596512 -195.464034 
L 107.530423 -224.478488 
L 107.530423 -250.783344 
L 107.286724 -211.107386 
L 107.273188 -214.569413 
L 107.207763 -193.186463 
L 107.202899 -217.263506 
L 107.176169 -184.711319 
L 107.173894 -157.397203 
L 107.160405 -205.272536 
L 107.159162 -197.408773 
L 107.151416 -179.848674 
L 107.150664 -209.236642 
L 107.145809 -101.210517 
L 107.14532 -103.976968 
L 107.142078 -103.03141 
L 107.141742 -101.771027 
L 107.139469 -105.879725 
L 107.139229 -104.799758 
L 73.832727 -102.79102 
L 73.832727 -179.965692 
L 73.832727 -292.032 
L 73.832727 -249.230735 
L 73.832727 -209.368244 
z
" style="stroke: #1f77b4; stroke-opacity: 0.2"/>
    </defs>
    <g clip-path="url(#p2684925863)">
     <use xlink:href="#m8b17002c2a" x="0" y="345.6" style="fill: #1f77b4; fill-opacity: 0.2; stroke: #1f77b4; stroke-opacity: 0.2"/>
    </g>
   </g>
   <g id="matplotlib.axis_1">
    <g id="xtick_1">
     <g id="line2d_1">
      <defs>
       <path id="medeff86796" d="M 0 0 
L 0 3.5 
" style="stroke: #000000; stroke-width: 0.8"/>
      </defs>
      <g>
       <use xlink:href="#medeff86796" x="73.832727" y="307.584" style="stroke: #000000; stroke-width: 0.8"/>
      </g>
     </g>
     <g id="text_1">
      <!-- 0 -->
      <g transform="translate(70.651477 322.182437)scale(0.1 -0.1)">
       <defs>
        <path id="DejaVuSans-30" d="M 2034 4250 
Q 1547 4250 1301 3770 
Q 1056 3291 1056 2328 
Q 1056 1369 1301 889 
Q 1547 409 2034 409 
Q 2525 409 2770 889 
Q 3016 1369 3016 2328 
Q 3016 3291 2770 3770 
Q 2525 4250 2034 4250 
z
M 2034 4750 
Q 2819 4750 3233 4129 
Q 3647 3509 3647 2328 
Q 3647 1150 3233 529 
Q 2819 -91 2034 -91 
Q 1250 -91 836 529 
Q 422 1150 422 2328 
Q 422 3509 836 4129 
Q 1250 4750 2034 4750 
z
" transform="scale(0.015625)"/>
       </defs>
       <use xlink:href="#DejaVuSans-30"/>
      </g>
     </g>
    </g>
    <g id="xtick_2">
     <g id="line2d_2">
      <g>
       <use xlink:href="#medeff86796" x="124.80716" y="307.584" style="stroke: #000000; stroke-width: 0.8"/>
      </g>
     </g>
     <g id="text_2">
      <!-- 10 -->
      <g transform="translate(118.44466 322.182437)scale(0.1 -0.1)">
       <defs>
        <path id="DejaVuSans-31" d="M 794 531 
L 1825 531 
L 1825 4091 
L 703 3866 
L 703 4441 
L 1819 4666 
L 2450 4666 
L 2450 531 
L 3481 531 
L 3481 0 
L 794 0 
L 794 531 
z
" transform="scale(0.015625)"/>
       </defs>
       <use xlink:href="#DejaVuSans-31"/>
       <use xlink:href="#DejaVuSans-30" x="63.623047"/>
      </g>
     </g>
    </g>
    <g id="xtick_3">
     <g id="line2d_3">
      <g>
       <use xlink:href="#medeff86796" x="175.781593" y="307.584" style="stroke: #000000; stroke-width: 0.8"/>
      </g>
     </g>
     <g id="text_3">
      <!-- 20 -->
      <g transform="translate(169.419093 322.182437)scale(0.1 -0.1)">
       <defs>
        <path id="DejaVuSans-32" d="M 1228 531 
L 3431 531 
L 3431 0 
L 469 0 
L 469 531 
Q 828 903 1448 1529 
Q 2069 2156 2228 2338 
Q 2531 2678 2651 2914 
Q 2772 3150 2772 3378 
Q 2772 3750 2511 3984 
Q 2250 4219 1831 4219 
Q 1534 4219 1204 4116 
Q 875 4013 500 3803 
L 500 4441 
Q 881 4594 1212 4672 
Q 1544 4750 1819 4750 
Q 2544 4750 2975 4387 
Q 3406 4025 3406 3419 
Q 3406 3131 3298 2873 
Q 3191 2616 2906 2266 
Q 2828 2175 2409 1742 
Q 1991 1309 1228 531 
z
" transform="scale(0.015625)"/>
       </defs>
       <use xlink:href="#DejaVuSans-32"/>
       <use xlink:href="#DejaVuSans-30" x="63.623047"/>
      </g>
     </g>
    </g>
    <g id="xtick_4">
     <g id="line2d_4">
      <g>
       <use xlink:href="#medeff86796" x="226.756026" y="307.584" style="stroke: #000000; stroke-width: 0.8"/>
      </g>
     </g>
     <g id="text_4">
      <!-- 30 -->
      <g transform="translate(220.393526 322.182437)scale(0.1 -0.1)">
       <defs>
        <path id="DejaVuSans-33" d="M 2597 2516 
Q 3050 2419 3304 2112 
Q 3559 1806 3559 1356 
Q 3559 666 3084 287 
Q 2609 -91 1734 -91 
Q 1441 -91 1130 -33 
Q 819 25 488 141 
L 488 750 
Q 750 597 1062 519 
Q 1375 441 1716 441 
Q 2309 441 2620 675 
Q 2931 909 2931 1356 
Q 2931 1769 2642 2001 
Q 2353 2234 1838 2234 
L 1294 2234 
L 1294 2753 
L 1863 2753 
Q 2328 2753 2575 2939 
Q 2822 3125 2822 3475 
Q 2822 3834 2567 4026 
Q 2313 4219 1838 4219 
Q 1578 4219 1281 4162 
Q 984 4106 628 3988 
L 628 4550 
Q 988 4650 1302 4700 
Q 1616 4750 1894 4750 
Q 2613 4750 3031 4423 
Q 3450 4097 3450 3541 
Q 3450 3153 3228 2886 
Q 3006 2619 2597 2516 
z
" transform="scale(0.015625)"/>
       </defs>
       <use xlink:href="#DejaVuSans-33"/>
       <use xlink:href="#DejaVuSans-30" x="63.623047"/>
      </g>
     </g>
    </g>
    <g id="xtick_5">
     <g id="line2d_5">
      <g>
       <use xlink:href="#medeff86796" x="277.730458" y="307.584" style="stroke: #000000; stroke-width: 0.8"/>
      </g>
     </g>
     <g id="text_5">
      <!-- 40 -->
      <g transform="translate(271.367958 322.182437)scale(0.1 -0.1)">
       <defs>
        <path id="DejaVuSans-34" d="M 2419 4116 
L 825 1625 
L 2419 1625 
L 2419 4116 
z
M 2253 4666 
L 3047 4666 
L 3047 1625 
L 3713 1625 
L 3713 1100 
L 3047 1100 
L 3047 0 
L 2419 0 
L 2419 1100 
L 313 1100 
L 313 1709 
L 2253 4666 
z
" transform="scale(0.015625)"/>
       </defs>
       <use xlink:href="#DejaVuSans-34"/>
       <use xlink:href="#DejaVuSans-30" x="63.623047"/>
      </g>
     </g>
    </g>
    <g id="xtick_6">
     <g id="line2d_6">
      <g>
       <use xlink:href="#medeff86796" x="328.704891" y="307.584" style="stroke: #000000; stroke-width: 0.8"/>
      </g>
     </g>
     <g id="text_6">
      <!-- 50 -->
      <g transform="translate(322.342391 322.182437)scale(0.1 -0.1)">
       <defs>
        <path id="DejaVuSans-35" d="M 691 4666 
L 3169 4666 
L 3169 4134 
L 1269 4134 
L 1269 2991 
Q 1406 3038 1543 3061 
Q 1681 3084 1819 3084 
Q 2600 3084 3056 2656 
Q 3513 2228 3513 1497 
Q 3513 744 3044 326 
Q 2575 -91 1722 -91 
Q 1428 -91 1123 -41 
Q 819 9 494 109 
L 494 744 
Q 775 591 1075 516 
Q 1375 441 1709 441 
Q 2250 441 2565 725 
Q 2881 1009 2881 1497 
Q 2881 1984 2565 2268 
Q 2250 2553 1709 2553 
Q 1456 2553 1204 2497 
Q 953 2441 691 2322 
L 691 4666 
z
" transform="scale(0.015625)"/>
       </defs>
       <use xlink:href="#DejaVuSans-35"/>
       <use xlink:href="#DejaVuSans-30" x="63.623047"/>
      </g>
     </g>
    </g>
    <g id="xtick_7">
     <g id="line2d_7">
      <g>
       <use xlink:href="#medeff86796" x="379.679324" y="307.584" style="stroke: #000000; stroke-width: 0.8"/>
      </g>
     </g>
     <g id="text_7">
      <!-- 60 -->
      <g transform="translate(373.316824 322.182437)scale(0.1 -0.1)">
       <defs>
        <path id="DejaVuSans-36" d="M 2113 2584 
Q 1688 2584 1439 2293 
Q 1191 2003 1191 1497 
Q 1191 994 1439 701 
Q 1688 409 2113 409 
Q 2538 409 2786 701 
Q 3034 994 3034 1497 
Q 3034 2003 2786 2293 
Q 2538 2584 2113 2584 
z
M 3366 4563 
L 3366 3988 
Q 3128 4100 2886 4159 
Q 2644 4219 2406 4219 
Q 1781 4219 1451 3797 
Q 1122 3375 1075 2522 
Q 1259 2794 1537 2939 
Q 1816 3084 2150 3084 
Q 2853 3084 3261 2657 
Q 3669 2231 3669 1497 
Q 3669 778 3244 343 
Q 2819 -91 2113 -91 
Q 1303 -91 875 529 
Q 447 1150 447 2328 
Q 447 3434 972 4092 
Q 1497 4750 2381 4750 
Q 2619 4750 2861 4703 
Q 3103 4656 3366 4563 
z
" transform="scale(0.015625)"/>
       </defs>
       <use xlink:href="#DejaVuSans-36"/>
       <use xlink:href="#DejaVuSans-30" x="63.623047"/>
      </g>
     </g>
    </g>
    <g id="text_8">
     <!-- Local close to cube -->
     <g transform="translate(188.365469 335.860562)scale(0.1 -0.1)">
      <defs>
       <path id="DejaVuSans-4c" d="M 628 4666 
L 1259 4666 
L 1259 531 
L 3531 531 
L 3531 0 
L 628 0 
L 628 4666 
z
" transform="scale(0.015625)"/>
       <path id="DejaVuSans-6f" d="M 1959 3097 
Q 1497 3097 1228 2736 
Q 959 2375 959 1747 
Q 959 1119 1226 758 
Q 1494 397 1959 397 
Q 2419 397 2687 759 
Q 2956 1122 2956 1747 
Q 2956 2369 2687 2733 
Q 2419 3097 1959 3097 
z
M 1959 3584 
Q 2709 3584 3137 3096 
Q 3566 2609 3566 1747 
Q 3566 888 3137 398 
Q 2709 -91 1959 -91 
Q 1206 -91 779 398 
Q 353 888 353 1747 
Q 353 2609 779 3096 
Q 1206 3584 1959 3584 
z
" transform="scale(0.015625)"/>
       <path id="DejaVuSans-63" d="M 3122 3366 
L 3122 2828 
Q 2878 2963 2633 3030 
Q 2388 3097 2138 3097 
Q 1578 3097 1268 2742 
Q 959 2388 959 1747 
Q 959 1106 1268 751 
Q 1578 397 2138 397 
Q 2388 397 2633 464 
Q 2878 531 3122 666 
L 3122 134 
Q 2881 22 2623 -34 
Q 2366 -91 2075 -91 
Q 1284 -91 818 406 
Q 353 903 353 1747 
Q 353 2603 823 3093 
Q 1294 3584 2113 3584 
Q 2378 3584 2631 3529 
Q 2884 3475 3122 3366 
z
" transform="scale(0.015625)"/>
       <path id="DejaVuSans-61" d="M 2194 1759 
Q 1497 1759 1228 1600 
Q 959 1441 959 1056 
Q 959 750 1161 570 
Q 1363 391 1709 391 
Q 2188 391 2477 730 
Q 2766 1069 2766 1631 
L 2766 1759 
L 2194 1759 
z
M 3341 1997 
L 3341 0 
L 2766 0 
L 2766 531 
Q 2569 213 2275 61 
Q 1981 -91 1556 -91 
Q 1019 -91 701 211 
Q 384 513 384 1019 
Q 384 1609 779 1909 
Q 1175 2209 1959 2209 
L 2766 2209 
L 2766 2266 
Q 2766 2663 2505 2880 
Q 2244 3097 1772 3097 
Q 1472 3097 1187 3025 
Q 903 2953 641 2809 
L 641 3341 
Q 956 3463 1253 3523 
Q 1550 3584 1831 3584 
Q 2591 3584 2966 3190 
Q 3341 2797 3341 1997 
z
" transform="scale(0.015625)"/>
       <path id="DejaVuSans-6c" d="M 603 4863 
L 1178 4863 
L 1178 0 
L 603 0 
L 603 4863 
z
" transform="scale(0.015625)"/>
       <path id="DejaVuSans-20" transform="scale(0.015625)"/>
       <path id="DejaVuSans-73" d="M 2834 3397 
L 2834 2853 
Q 2591 2978 2328 3040 
Q 2066 3103 1784 3103 
Q 1356 3103 1142 2972 
Q 928 2841 928 2578 
Q 928 2378 1081 2264 
Q 1234 2150 1697 2047 
L 1894 2003 
Q 2506 1872 2764 1633 
Q 3022 1394 3022 966 
Q 3022 478 2636 193 
Q 2250 -91 1575 -91 
Q 1294 -91 989 -36 
Q 684 19 347 128 
L 347 722 
Q 666 556 975 473 
Q 1284 391 1588 391 
Q 1994 391 2212 530 
Q 2431 669 2431 922 
Q 2431 1156 2273 1281 
Q 2116 1406 1581 1522 
L 1381 1569 
Q 847 1681 609 1914 
Q 372 2147 372 2553 
Q 372 3047 722 3315 
Q 1072 3584 1716 3584 
Q 2034 3584 2315 3537 
Q 2597 3491 2834 3397 
z
" transform="scale(0.015625)"/>
       <path id="DejaVuSans-65" d="M 3597 1894 
L 3597 1613 
L 953 1613 
Q 991 1019 1311 708 
Q 1631 397 2203 397 
Q 2534 397 2845 478 
Q 3156 559 3463 722 
L 3463 178 
Q 3153 47 2828 -22 
Q 2503 -91 2169 -91 
Q 1331 -91 842 396 
Q 353 884 353 1716 
Q 353 2575 817 3079 
Q 1281 3584 2069 3584 
Q 2775 3584 3186 3129 
Q 3597 2675 3597 1894 
z
M 3022 2063 
Q 3016 2534 2758 2815 
Q 2500 3097 2075 3097 
Q 1594 3097 1305 2825 
Q 1016 2553 972 2059 
L 3022 2063 
z
" transform="scale(0.015625)"/>
       <path id="DejaVuSans-74" d="M 1172 4494 
L 1172 3500 
L 2356 3500 
L 2356 3053 
L 1172 3053 
L 1172 1153 
Q 1172 725 1289 603 
Q 1406 481 1766 481 
L 2356 481 
L 2356 0 
L 1766 0 
Q 1100 0 847 248 
Q 594 497 594 1153 
L 594 3053 
L 172 3053 
L 172 3500 
L 594 3500 
L 594 4494 
L 1172 4494 
z
" transform="scale(0.015625)"/>
       <path id="DejaVuSans-75" d="M 544 1381 
L 544 3500 
L 1119 3500 
L 1119 1403 
Q 1119 906 1312 657 
Q 1506 409 1894 409 
Q 2359 409 2629 706 
Q 2900 1003 2900 1516 
L 2900 3500 
L 3475 3500 
L 3475 0 
L 2900 0 
L 2900 538 
Q 2691 219 2414 64 
Q 2138 -91 1772 -91 
Q 1169 -91 856 284 
Q 544 659 544 1381 
z
M 1991 3584 
L 1991 3584 
z
" transform="scale(0.015625)"/>
       <path id="DejaVuSans-62" d="M 3116 1747 
Q 3116 2381 2855 2742 
Q 2594 3103 2138 3103 
Q 1681 3103 1420 2742 
Q 1159 2381 1159 1747 
Q 1159 1113 1420 752 
Q 1681 391 2138 391 
Q 2594 391 2855 752 
Q 3116 1113 3116 1747 
z
M 1159 2969 
Q 1341 3281 1617 3432 
Q 1894 3584 2278 3584 
Q 2916 3584 3314 3078 
Q 3713 2572 3713 1747 
Q 3713 922 3314 415 
Q 2916 -91 2278 -91 
Q 1894 -91 1617 61 
Q 1341 213 1159 525 
L 1159 0 
L 581 0 
L 581 4863 
L 1159 4863 
L 1159 2969 
z
" transform="scale(0.015625)"/>
      </defs>
      <use xlink:href="#DejaVuSans-4c"/>
      <use xlink:href="#DejaVuSans-6f" x="53.962891"/>
      <use xlink:href="#DejaVuSans-63" x="115.144531"/>
      <use xlink:href="#DejaVuSans-61" x="170.125"/>
      <use xlink:href="#DejaVuSans-6c" x="231.404297"/>
      <use xlink:href="#DejaVuSans-20" x="259.1875"/>
      <use xlink:href="#DejaVuSans-63" x="290.974609"/>
      <use xlink:href="#DejaVuSans-6c" x="345.955078"/>
      <use xlink:href="#DejaVuSans-6f" x="373.738281"/>
      <use xlink:href="#DejaVuSans-73" x="434.919922"/>
      <use xlink:href="#DejaVuSans-65" x="487.019531"/>
      <use xlink:href="#DejaVuSans-20" x="548.542969"/>
      <use xlink:href="#DejaVuSans-74" x="580.330078"/>
      <use xlink:href="#DejaVuSans-6f" x="619.539062"/>
      <use xlink:href="#DejaVuSans-20" x="680.720703"/>
      <use xlink:href="#DejaVuSans-63" x="712.507812"/>
      <use xlink:href="#DejaVuSans-75" x="767.488281"/>
      <use xlink:href="#DejaVuSans-62" x="830.867188"/>
      <use xlink:href="#DejaVuSans-65" x="894.34375"/>
     </g>
    </g>
   </g>
   <g id="matplotlib.axis_2">
    <g id="ytick_1">
     <g id="line2d_8">
      <defs>
       <path id="mf4eb9f39ce" d="M 0 0 
L -3.5 0 
" style="stroke: #000000; stroke-width: 0.8"/>
      </defs>
      <g>
       <use xlink:href="#mf4eb9f39ce" x="57.6" y="267.10953" style="stroke: #000000; stroke-width: 0.8"/>
      </g>
     </g>
     <g id="text_9">
      <!-- 1 -->
      <g transform="translate(44.2375 270.908749)scale(0.1 -0.1)">
       <use xlink:href="#DejaVuSans-31"/>
      </g>
     </g>
    </g>
    <g id="ytick_2">
     <g id="line2d_9">
      <g>
       <use xlink:href="#mf4eb9f39ce" x="57.6" y="223.910856" style="stroke: #000000; stroke-width: 0.8"/>
      </g>
     </g>
     <g id="text_10">
      <!-- 2 -->
      <g transform="translate(44.2375 227.710075)scale(0.1 -0.1)">
       <use xlink:href="#DejaVuSans-32"/>
      </g>
     </g>
    </g>
    <g id="ytick_3">
     <g id="line2d_10">
      <g>
       <use xlink:href="#mf4eb9f39ce" x="57.6" y="180.712183" style="stroke: #000000; stroke-width: 0.8"/>
      </g>
     </g>
     <g id="text_11">
      <!-- 3 -->
      <g transform="translate(44.2375 184.511401)scale(0.1 -0.1)">
       <use xlink:href="#DejaVuSans-33"/>
      </g>
     </g>
    </g>
    <g id="ytick_4">
     <g id="line2d_11">
      <g>
       <use xlink:href="#mf4eb9f39ce" x="57.6" y="137.513509" style="stroke: #000000; stroke-width: 0.8"/>
      </g>
     </g>
     <g id="text_12">
      <!-- 4 -->
      <g transform="translate(44.2375 141.312728)scale(0.1 -0.1)">
       <use xlink:href="#DejaVuSans-34"/>
      </g>
     </g>
    </g>
    <g id="ytick_5">
     <g id="line2d_12">
      <g>
       <use xlink:href="#mf4eb9f39ce" x="57.6" y="94.314835" style="stroke: #000000; stroke-width: 0.8"/>
      </g>
     </g>
     <g id="text_13">
      <!-- 5 -->
      <g transform="translate(44.2375 98.114054)scale(0.1 -0.1)">
       <use xlink:href="#DejaVuSans-35"/>
      </g>
     </g>
    </g>
    <g id="ytick_6">
     <g id="line2d_13">
      <g>
       <use xlink:href="#mf4eb9f39ce" x="57.6" y="51.116162" style="stroke: #000000; stroke-width: 0.8"/>
      </g>
     </g>
     <g id="text_14">
      <!-- 6 -->
      <g transform="translate(44.2375 54.91538)scale(0.1 -0.1)">
       <use xlink:href="#DejaVuSans-36"/>
      </g>
     </g>
    </g>
    <g id="text_15">
     <!-- GFLOPS -->
     <g transform="translate(38.157812 194.007688)rotate(-90)scale(0.1 -0.1)">
      <defs>
       <path id="DejaVuSans-47" d="M 3809 666 
L 3809 1919 
L 2778 1919 
L 2778 2438 
L 4434 2438 
L 4434 434 
Q 4069 175 3628 42 
Q 3188 -91 2688 -91 
Q 1594 -91 976 548 
Q 359 1188 359 2328 
Q 359 3472 976 4111 
Q 1594 4750 2688 4750 
Q 3144 4750 3555 4637 
Q 3966 4525 4313 4306 
L 4313 3634 
Q 3963 3931 3569 4081 
Q 3175 4231 2741 4231 
Q 1884 4231 1454 3753 
Q 1025 3275 1025 2328 
Q 1025 1384 1454 906 
Q 1884 428 2741 428 
Q 3075 428 3337 486 
Q 3600 544 3809 666 
z
" transform="scale(0.015625)"/>
       <path id="DejaVuSans-46" d="M 628 4666 
L 3309 4666 
L 3309 4134 
L 1259 4134 
L 1259 2759 
L 3109 2759 
L 3109 2228 
L 1259 2228 
L 1259 0 
L 628 0 
L 628 4666 
z
" transform="scale(0.015625)"/>
       <path id="DejaVuSans-4f" d="M 2522 4238 
Q 1834 4238 1429 3725 
Q 1025 3213 1025 2328 
Q 1025 1447 1429 934 
Q 1834 422 2522 422 
Q 3209 422 3611 934 
Q 4013 1447 4013 2328 
Q 4013 3213 3611 3725 
Q 3209 4238 2522 4238 
z
M 2522 4750 
Q 3503 4750 4090 4092 
Q 4678 3434 4678 2328 
Q 4678 1225 4090 567 
Q 3503 -91 2522 -91 
Q 1538 -91 948 565 
Q 359 1222 359 2328 
Q 359 3434 948 4092 
Q 1538 4750 2522 4750 
z
" transform="scale(0.015625)"/>
       <path id="DejaVuSans-50" d="M 1259 4147 
L 1259 2394 
L 2053 2394 
Q 2494 2394 2734 2622 
Q 2975 2850 2975 3272 
Q 2975 3691 2734 3919 
Q 2494 4147 2053 4147 
L 1259 4147 
z
M 628 4666 
L 2053 4666 
Q 2838 4666 3239 4311 
Q 3641 3956 3641 3272 
Q 3641 2581 3239 2228 
Q 2838 1875 2053 1875 
L 1259 1875 
L 1259 0 
L 628 0 
L 628 4666 
z
" transform="scale(0.015625)"/>
       <path id="DejaVuSans-53" d="M 3425 4513 
L 3425 3897 
Q 3066 4069 2747 4153 
Q 2428 4238 2131 4238 
Q 1616 4238 1336 4038 
Q 1056 3838 1056 3469 
Q 1056 3159 1242 3001 
Q 1428 2844 1947 2747 
L 2328 2669 
Q 3034 2534 3370 2195 
Q 3706 1856 3706 1288 
Q 3706 609 3251 259 
Q 2797 -91 1919 -91 
Q 1588 -91 1214 -16 
Q 841 59 441 206 
L 441 856 
Q 825 641 1194 531 
Q 1563 422 1919 422 
Q 2459 422 2753 634 
Q 3047 847 3047 1241 
Q 3047 1584 2836 1778 
Q 2625 1972 2144 2069 
L 1759 2144 
Q 1053 2284 737 2584 
Q 422 2884 422 3419 
Q 422 4038 858 4394 
Q 1294 4750 2059 4750 
Q 2388 4750 2728 4690 
Q 3069 4631 3425 4513 
z
" transform="scale(0.015625)"/>
      </defs>
      <use xlink:href="#DejaVuSans-47"/>
      <use xlink:href="#DejaVuSans-46" x="77.490234"/>
      <use xlink:href="#DejaVuSans-4c" x="135.009766"/>
      <use xlink:href="#DejaVuSans-4f" x="187.097656"/>
      <use xlink:href="#DejaVuSans-50" x="265.808594"/>
      <use xlink:href="#DejaVuSans-53" x="326.111328"/>
     </g>
    </g>
   </g>
   <g id="line2d_14">
    <path d="M 73.832727 225.301748 
L 73.832727 192.02558 
L 73.832727 252.007965 
L 107.139229 247.901564 
L 107.145809 256.938539 
L 107.273188 193.63697 
L 107.286724 203.595437 
L 107.530423 196.715759 
L 107.596512 208.330821 
L 131.552076 260.617979 
L 131.639575 220.555236 
L 131.700893 220.009282 
L 131.700893 198.119532 
L 131.816346 221.711732 
L 132.077874 189.934517 
L 132.932612 193.570649 
L 140.498137 253.6789 
L 140.501449 259.423708 
L 140.573071 211.017213 
L 140.582798 227.101739 
L 140.625977 228.491471 
L 140.641506 235.358321 
L 140.713648 218.594115 
L 140.74072 199.142365 
L 140.929062 217.903725 
L 141.228118 190.93555 
L 141.228118 203.220988 
L 141.360296 197.149044 
L 142.285976 211.21923 
L 142.786015 190.537633 
L 162.113133 250.863918 
L 162.15957 253.303817 
L 162.225965 239.614193 
L 162.225965 213.964379 
L 162.325806 215.209629 
L 162.36467 235.307219 
L 162.486502 229.891865 
L 162.551508 210.614693 
L 162.771653 213.825395 
L 162.893171 220.363818 
L 163.362467 188.2059 
L 163.633614 188.387657 
L 165.018565 198.798063 
L 165.86804 192.990752 
L 174.011721 249.24731 
L 174.058802 253.466082 
L 174.086519 249.329172 
L 174.154109 211.270055 
L 174.194716 229.81622 
L 174.296842 220.55118 
L 174.359829 231.022962 
L 174.525123 233.285754 
L 174.925813 209.147037 
L 175.12408 215.157163 
L 175.738128 180.639288 
L 177.886226 199.187976 
L 179.322208 192.69517 
L 189.664526 250.727961 
L 189.799965 212.644344 
L 190.001764 209.177171 
L 190.001764 243.467423 
L 190.323021 215.359525 
L 190.885583 245.478788 
L 190.885583 230.055695 
L 192.032497 189.994397 
L 194.402215 250.92431 
L 194.467236 248.589179 
L 194.539489 208.914091 
L 194.632856 215.919318 
L 194.740717 217.83726 
L 194.881842 228.37501 
L 195.054056 227.115122 
L 195.18041 189.407587 
L 195.282604 231.355486 
L 195.585646 235.432378 
L 195.994082 226.818756 
L 196.617572 182.963258 
L 197.469474 185.4245 
L 199.217806 180.935772 
L 201.596007 195.664572 
L 207.729253 259.584245 
L 207.804033 247.611161 
L 208.025397 183.869574 
L 208.194169 220.962471 
L 208.356951 225.959356 
L 208.623508 241.272878 
L 208.623508 221.45396 
L 208.887864 236.509847 
L 209.348512 222.175316 
L 209.823253 247.385279 
L 210.739224 180.342658 
L 211.739304 202.589496 
L 214.107194 181.626522 
L 216.975609 183.126698 
L 220.045735 220.705981 
L 220.1303 212.566245 
L 220.367625 227.355814 
L 220.367625 219.040716 
L 220.492662 216.343805 
L 221.062205 231.576164 
L 221.704845 231.906609 
L 222.042736 242.642708 
L 222.042736 215.201881 
L 223.328825 204.927551 
L 223.993345 203.974604 
L 227.447868 183.8295 
L 227.597609 212.120318 
L 227.816814 188.99344 
L 227.935732 202.505292 
L 228.448467 226.826533 
L 228.960146 233.784885 
L 229.127455 188.434421 
L 229.288317 235.758966 
L 229.288317 235.714924 
L 230.170098 243.78851 
L 230.84004 188.409705 
L 232.585094 197.201621 
L 234.458259 180.519946 
L 238.932493 188.435464 
L 241.872818 189.227872 
L 242.095598 185.306074 
L 242.321204 215.594501 
L 242.651649 198.520116 
L 243.001555 233.346978 
L 243.524035 236.926703 
L 244.114999 245.385185 
L 245.019846 244.263585 
L 246.160259 187.078688 
L 246.160259 176.294564 
L 247.968586 228.435336 
L 249.070617 197.402077 
L 249.070617 226.543883 
L 249.842311 230.414208 
L 250.79835 203.097082 
L 250.79835 176.96857 
L 251.132382 227.796244 
L 252.18149 226.006 
L 252.534322 220.672576 
L 252.892207 204.717578 
L 253.434501 228.201608 
L 253.600626 212.068512 
L 254.053097 234.81095 
L 254.955895 248.351892 
L 254.955895 245.743515 
L 255.556114 183.40359 
L 256.204402 214.205631 
L 257.903353 214.148824 
L 259.746685 196.182772 
L 261.324007 176.0447 
L 261.610142 203.034472 
L 262.211027 198.790878 
L 262.361331 221.473525 
L 263.287388 232.524153 
L 263.557285 233.83275 
L 265.105754 248.142367 
L 265.331237 202.312969 
L 265.682425 209.242504 
L 268.619656 226.851629 
L 270.352538 182.49057 
L 276.672152 215.995267 
L 277.402072 192.736932 
L 277.643529 228.581948 
L 278.536436 217.295109 
L 279.192473 234.658294 
L 280.468511 229.815712 
L 280.692592 243.028578 
L 280.839704 227.257663 
L 281.939725 200.136374 
L 282.100288 213.243422 
L 282.701035 238.720861 
L 284.811689 241.148691 
L 285.116486 214.628867 
L 285.833167 204.58488 
L 286.203072 219.11437 
L 286.877231 230.52705 
L 287.350553 231.436586 
L 287.857974 160.648428 
L 287.857974 185.62567 
L 289.043651 240.754062 
L 292.272776 214.440272 
L 293.137009 232.275783 
L 294.681587 212.556292 
L 294.917989 211.719593 
L 296.195432 208.749099 
L 296.657863 217.292336 
L 298.135516 217.039087 
L 298.246253 242.109526 
L 300.654705 239.746256 
L 300.980511 210.618647 
L 303.055465 211.387444 
L 305.391184 242.116462 
L 305.391184 247.260061 
L 306.713167 193.404239 
L 306.713167 201.118761 
L 312.456026 239.463264 
L 312.531069 226.969394 
L 313.91493 215.843137 
L 314.549569 239.162131 
L 314.549569 249.229188 
L 315.763367 233.487467 
L 315.763367 265.335474 
L 316.528093 211.605354 
L 316.750405 219.723393 
L 316.815132 232.593625 
L 317.894207 219.294702 
L 318.027182 220.062478 
L 320.443503 225.76841 
L 321.303294 233.49729 
L 321.303294 216.2875 
L 322.21185 239.474686 
L 324.004885 240.430236 
L 325.214733 203.074183 
L 329.359286 243.440789 
L 333.273134 234.48538 
L 334.949228 232.146601 
L 336.639539 211.51676 
L 336.731262 232.273722 
L 342.786717 239.036333 
L 348.276494 220.053344 
L 349.774843 222.690683 
L 350.15808 223.764586 
L 350.15808 234.554405 
L 351.559095 188.272829 
L 351.559095 219.30995 
L 353.360144 230.815456 
L 354.381661 191.622137 
L 355.907502 236.660303 
L 359.645867 231.922389 
L 360.11849 244.090094 
L 366.368625 244.194064 
L 366.368625 246.518526 
L 372.597337 214.521522 
L 380.726809 232.031058 
L 380.726809 238.027206 
L 390.96975 203.720228 
L 390.96975 195.876119 
L 398.487273 236.615794 
L 398.487273 236.615794 
" clip-path="url(#p2684925863)" style="fill: none; stroke: #1f77b4; stroke-width: 1.5; stroke-linecap: square"/>
   </g>
   <g id="line2d_15"/>
   <g id="patch_3">
    <path d="M 57.6 307.584 
L 57.6 41.472 
" style="fill: none; stroke: #000000; stroke-width: 0.8; stroke-linejoin: miter; stroke-linecap: square"/>
   </g>
   <g id="patch_4">
    <path d="M 414.72 307.584 
L 414.72 41.472 
" style="fill: none; stroke: #000000; stroke-width: 0.8; stroke-linejoin: miter; stroke-linecap: square"/>
   </g>
   <g id="patch_5">
    <path d="M 57.6 307.584 
L 414.72 307.584 
" style="fill: none; stroke: #000000; stroke-width: 0.8; stroke-linejoin: miter; stroke-linecap: square"/>
   </g>
   <g id="patch_6">
    <path d="M 57.6 41.472 
L 414.72 41.472 
" style="fill: none; stroke: #000000; stroke-width: 0.8; stroke-linejoin: miter; stroke-linecap: square"/>
   </g>
   <g id="text_16">
    <!-- Local Cubeness -->
    <g transform="translate(189.462187 35.472)scale(0.12 -0.12)">
     <defs>
      <path id="DejaVuSans-43" d="M 4122 4306 
L 4122 3641 
Q 3803 3938 3442 4084 
Q 3081 4231 2675 4231 
Q 1875 4231 1450 3742 
Q 1025 3253 1025 2328 
Q 1025 1406 1450 917 
Q 1875 428 2675 428 
Q 3081 428 3442 575 
Q 3803 722 4122 1019 
L 4122 359 
Q 3791 134 3420 21 
Q 3050 -91 2638 -91 
Q 1578 -91 968 557 
Q 359 1206 359 2328 
Q 359 3453 968 4101 
Q 1578 4750 2638 4750 
Q 3056 4750 3426 4639 
Q 3797 4528 4122 4306 
z
" transform="scale(0.015625)"/>
      <path id="DejaVuSans-6e" d="M 3513 2113 
L 3513 0 
L 2938 0 
L 2938 2094 
Q 2938 2591 2744 2837 
Q 2550 3084 2163 3084 
Q 1697 3084 1428 2787 
Q 1159 2491 1159 1978 
L 1159 0 
L 581 0 
L 581 3500 
L 1159 3500 
L 1159 2956 
Q 1366 3272 1645 3428 
Q 1925 3584 2291 3584 
Q 2894 3584 3203 3211 
Q 3513 2838 3513 2113 
z
" transform="scale(0.015625)"/>
     </defs>
     <use xlink:href="#DejaVuSans-4c"/>
     <use xlink:href="#DejaVuSans-6f" x="53.962891"/>
     <use xlink:href="#DejaVuSans-63" x="115.144531"/>
     <use xlink:href="#DejaVuSans-61" x="170.125"/>
     <use xlink:href="#DejaVuSans-6c" x="231.404297"/>
     <use xlink:href="#DejaVuSans-20" x="259.1875"/>
     <use xlink:href="#DejaVuSans-43" x="290.974609"/>
     <use xlink:href="#DejaVuSans-75" x="360.798828"/>
     <use xlink:href="#DejaVuSans-62" x="424.177734"/>
     <use xlink:href="#DejaVuSans-65" x="487.654297"/>
     <use xlink:href="#DejaVuSans-6e" x="549.177734"/>
     <use xlink:href="#DejaVuSans-65" x="612.556641"/>
     <use xlink:href="#DejaVuSans-73" x="674.080078"/>
     <use xlink:href="#DejaVuSans-73" x="726.179688"/>
    </g>
   </g>
   <g id="legend_1">
    <g id="patch_7">
     <path d="M 339.12 78.82825 
L 407.72 78.82825 
Q 409.72 78.82825 409.72 76.82825 
L 409.72 48.472 
Q 409.72 46.472 407.72 46.472 
L 339.12 46.472 
Q 337.12 46.472 337.12 48.472 
L 337.12 76.82825 
Q 337.12 78.82825 339.12 78.82825 
z
" style="fill: #ffffff; opacity: 0.8; stroke: #cccccc; stroke-linejoin: miter"/>
    </g>
    <g id="text_17">
     <!-- Cluster -->
     <g transform="translate(355.673906 58.070437)scale(0.1 -0.1)">
      <defs>
       <path id="DejaVuSans-72" d="M 2631 2963 
Q 2534 3019 2420 3045 
Q 2306 3072 2169 3072 
Q 1681 3072 1420 2755 
Q 1159 2438 1159 1844 
L 1159 0 
L 581 0 
L 581 3500 
L 1159 3500 
L 1159 2956 
Q 1341 3275 1631 3429 
Q 1922 3584 2338 3584 
Q 2397 3584 2469 3576 
Q 2541 3569 2628 3553 
L 2631 2963 
z
" transform="scale(0.015625)"/>
      </defs>
      <use xlink:href="#DejaVuSans-43"/>
      <use xlink:href="#DejaVuSans-6c" x="69.824219"/>
      <use xlink:href="#DejaVuSans-75" x="97.607422"/>
      <use xlink:href="#DejaVuSans-73" x="160.986328"/>
      <use xlink:href="#DejaVuSans-74" x="213.085938"/>
      <use xlink:href="#DejaVuSans-65" x="252.294922"/>
      <use xlink:href="#DejaVuSans-72" x="313.818359"/>
     </g>
    </g>
    <g id="line2d_16">
     <path d="M 341.12 69.248562 
L 351.12 69.248562 
L 361.12 69.248562 
" style="fill: none; stroke: #1f77b4; stroke-width: 1.5; stroke-linecap: square"/>
    </g>
    <g id="text_18">
     <!-- Hopper -->
     <g transform="translate(369.12 72.748562)scale(0.1 -0.1)">
      <defs>
       <path id="DejaVuSans-48" d="M 628 4666 
L 1259 4666 
L 1259 2753 
L 3553 2753 
L 3553 4666 
L 4184 4666 
L 4184 0 
L 3553 0 
L 3553 2222 
L 1259 2222 
L 1259 0 
L 628 0 
L 628 4666 
z
" transform="scale(0.015625)"/>
       <path id="DejaVuSans-70" d="M 1159 525 
L 1159 -1331 
L 581 -1331 
L 581 3500 
L 1159 3500 
L 1159 2969 
Q 1341 3281 1617 3432 
Q 1894 3584 2278 3584 
Q 2916 3584 3314 3078 
Q 3713 2572 3713 1747 
Q 3713 922 3314 415 
Q 2916 -91 2278 -91 
Q 1894 -91 1617 61 
Q 1341 213 1159 525 
z
M 3116 1747 
Q 3116 2381 2855 2742 
Q 2594 3103 2138 3103 
Q 1681 3103 1420 2742 
Q 1159 2381 1159 1747 
Q 1159 1113 1420 752 
Q 1681 391 2138 391 
Q 2594 391 2855 752 
Q 3116 1113 3116 1747 
z
" transform="scale(0.015625)"/>
      </defs>
      <use xlink:href="#DejaVuSans-48"/>
      <use xlink:href="#DejaVuSans-6f" x="75.195312"/>
      <use xlink:href="#DejaVuSans-70" x="136.376953"/>
      <use xlink:href="#DejaVuSans-70" x="199.853516"/>
      <use xlink:href="#DejaVuSans-65" x="263.330078"/>
      <use xlink:href="#DejaVuSans-72" x="324.853516"/>
     </g>
    </g>
   </g>
  </g>
 </g>
 <defs>
  <clipPath id="p2684925863">
   <rect x="57.6" y="41.472" width="357.12" height="266.112"/>
  </clipPath>
 </defs>
</svg>
