<?xml version="1.0" encoding="utf-8" standalone="no"?>
<!DOCTYPE svg PUBLIC "-//W3C//DTD SVG 1.1//EN"
  "http://www.w3.org/Graphics/SVG/1.1/DTD/svg11.dtd">
<svg xmlns:xlink="http://www.w3.org/1999/xlink" width="460.8pt" height="345.6pt" viewBox="0 0 460.8 345.6" xmlns="http://www.w3.org/2000/svg" version="1.1">
 <metadata>
  <rdf:RDF xmlns:dc="http://purl.org/dc/elements/1.1/" xmlns:cc="http://creativecommons.org/ns#" xmlns:rdf="http://www.w3.org/1999/02/22-rdf-syntax-ns#">
   <cc:Work>
    <dc:type rdf:resource="http://purl.org/dc/dcmitype/StillImage"/>
    <dc:date>2024-05-04T18:11:42.235137</dc:date>
    <dc:format>image/svg+xml</dc:format>
    <dc:creator>
     <cc:Agent>
      <dc:title>Matplotlib v3.5.3, https://matplotlib.org/</dc:title>
     </cc:Agent>
    </dc:creator>
   </cc:Work>
  </rdf:RDF>
 </metadata>
 <defs>
  <style type="text/css">*{stroke-linejoin: round; stroke-linecap: butt}</style>
 </defs>
 <g id="figure_1">
  <g id="patch_1">
   <path d="M 0 345.6 
L 460.8 345.6 
L 460.8 0 
L 0 0 
z
" style="fill: #ffffff"/>
  </g>
  <g id="axes_1">
   <g id="patch_2">
    <path d="M 57.6 307.584 
L 414.72 307.584 
L 414.72 41.472 
L 57.6 41.472 
z
" style="fill: #ffffff"/>
   </g>
   <g id="PolyCollection_1">
    <defs>
     <path id="m3f96832c8a" d="M 73.832727 -272.721269 
L 73.832727 -102.090916 
L 74.131123 -136.917736 
L 74.429519 -130.385399 
L 74.727914 -141.835763 
L 75.02631 -169.605043 
L 75.324706 -169.391741 
L 75.623102 -178.492227 
L 75.921497 -160.118491 
L 76.219893 -143.320543 
L 76.518289 -174.469293 
L 77.11508 -181.391171 
L 77.711872 -180.704205 
L 78.010267 -162.798631 
L 78.308663 -173.988001 
L 78.905455 -183.063724 
L 79.502246 -182.332004 
L 79.800642 -182.348277 
L 80.695829 -183.822228 
L 80.994225 -162.585579 
L 81.591016 -112.982723 
L 81.889412 -178.648751 
L 82.486203 -182.735077 
L 83.082995 -170.48677 
L 83.978182 -153.090908 
L 84.276578 -178.643558 
L 85.47016 -173.69911 
L 86.066952 -176.414906 
L 86.663743 -149.539747 
L 86.962139 -140.255701 
L 87.857326 -172.514039 
L 88.155722 -128.555253 
L 88.454118 -162.029251 
L 89.647701 -169.575831 
L 90.244492 -153.256695 
L 91.438075 -172.452571 
L 92.333262 -153.229927 
L 92.631658 -154.125317 
L 93.228449 -144.379672 
L 94.422032 -160.749395 
L 95.018824 -155.578692 
L 95.914011 -124.503457 
L 97.405989 -148.338303 
L 97.704385 -116.556848 
L 98.599572 -155.372064 
L 99.793155 -122.584859 
L 100.389947 -141.568378 
L 102.180321 -136.52591 
L 102.777112 -119.478215 
L 103.075508 -113.003294 
L 103.373904 -134.246832 
L 104.865882 -135.031037 
L 105.76107 -136.205693 
L 106.357861 -119.959653 
L 106.954652 -132.346383 
L 109.341818 -130.080997 
L 110.833797 -56.210479 
L 111.132193 -127.659088 
L 111.728984 -110.013055 
L 112.922567 -114.035726 
L 113.817754 -111.060497 
L 115.309733 -117.225335 
L 116.503316 -112.851045 
L 117.398503 -110.341201 
L 118.29369 -113.184192 
L 119.487273 -104.486758 
L 121.277647 -103.731639 
L 121.874439 -107.596377 
L 122.769626 -104.738245 
L 123.664813 -118.24982 
L 125.753583 -97.369159 
L 126.051979 -95.895787 
L 127.245561 -114.988261 
L 129.931123 -98.346725 
L 130.82631 -101.314559 
L 132.019893 -100.831207 
L 132.616684 -98.045633 
L 133.213476 -105.708712 
L 136.197433 -109.042041 
L 137.987807 -104.660164 
L 139.18139 -98.074398 
L 140.374973 -104.075754 
L 140.673369 -91.098874 
L 142.463743 -87.974696 
L 145.149305 -107.882092 
L 145.746096 -63.967389 
L 146.044492 -80.262561 
L 146.641283 -92.523174 
L 148.133262 -86.157834 
L 148.730053 -105.665649 
L 149.923636 -83.882576 
L 152.310802 -95.20971 
L 154.101176 -100.156379 
L 155.593155 -85.28869 
L 157.085134 -101.626831 
L 159.472299 -95.773862 
L 161.262674 -83.221781 
L 162.157861 -89.968697 
L 163.053048 -99.851616 
L 165.440214 -93.672911 
L 167.528984 -100.955001 
L 169.020963 -99.961228 
L 170.214545 -99.079127 
L 172.00492 -100.249363 
L 173.795294 -101.503769 
L 175.884064 -83.199661 
L 177.972834 -93.942506 
L 178.569626 -89.241058 
L 180.956791 -102.583345 
L 181.851979 -59.009333 
L 186.327914 -98.294261 
L 188.118289 -83.25278 
L 188.416684 -92.579935 
L 190.505455 -86.182514 
L 191.699037 -94.562758 
L 192.89262 -99.689785 
L 194.384599 -89.269448 
L 198.860535 -97.015043 
L 202.441283 -91.887637 
L 204.828449 -92.588196 
L 205.126845 -75.049624 
L 207.215615 -84.34794 
L 207.812406 -90.750748 
L 211.393155 -94.75246 
L 216.764278 -96.720542 
L 217.957861 -55.797209 
L 218.554652 -87.701119 
L 219.748235 -82.768772 
L 221.240214 -92.610253 
L 222.732193 -83.539715 
L 223.925775 -93.127701 
L 226.312941 -60.731378 
L 231.087273 -88.301904 
L 234.369626 -81.491255 
L 234.668021 -86.628665 
L 237.651979 -84.397275 
L 240.635936 -87.69276 
L 242.724706 -71.837201 
L 245.410267 -75.024369 
L 250.78139 -96.265529 
L 252.571765 -88.423368 
L 254.063743 -82.657886 
L 257.346096 -82.589177 
L 261.523636 -83.229552 
L 264.507594 -67.990786 
L 266.894759 -74.266938 
L 270.475508 -94.778826 
L 280.322567 -83.700924 
L 282.411337 -65.461687 
L 283.60492 -74.181252 
L 288.379251 -85.678752 
L 290.169626 -86.709949 
L 291.064813 -63.12616 
L 303.299037 -75.037961 
L 309.863743 -70.387808 
L 312.250909 -65.77608 
L 315.234866 -58.297196 
L 326.275508 -67.06174 
L 336.122567 -72.912364 
L 339.40492 -71.051866 
L 342.090481 -54.841562 
L 362.38139 -52.105938 
L 368.946096 -67.099781 
L 398.487273 -50.112 
L 398.487273 -135.12628 
L 398.487273 -135.12628 
L 368.946096 -123.285858 
L 362.38139 -120.097874 
L 342.090481 -125.74281 
L 339.40492 -126.063046 
L 336.122567 -125.386568 
L 326.275508 -147.719957 
L 315.234866 -97.764968 
L 312.250909 -142.229494 
L 309.863743 -108.945741 
L 303.299037 -133.836776 
L 291.064813 -145.281969 
L 290.169626 -190.923734 
L 288.379251 -124.123495 
L 283.60492 -125.417057 
L 282.411337 -148.656288 
L 280.322567 -124.487136 
L 270.475508 -172.817347 
L 266.894759 -118.560408 
L 264.507594 -117.913357 
L 261.523636 -123.423029 
L 257.346096 -122.99821 
L 254.063743 -184.982905 
L 252.571765 -195.607746 
L 250.78139 -144.554723 
L 245.410267 -117.704648 
L 242.724706 -118.088934 
L 240.635936 -129.001545 
L 237.651979 -160.106278 
L 234.668021 -138.852371 
L 234.369626 -141.272219 
L 231.087273 -139.270928 
L 226.312941 -125.75585 
L 223.925775 -124.855037 
L 222.732193 -183.336072 
L 221.240214 -141.558149 
L 219.748235 -140.734818 
L 218.554652 -142.386926 
L 217.957861 -165.528317 
L 216.764278 -146.123698 
L 211.393155 -147.758477 
L 207.812406 -140.959858 
L 207.215615 -132.813401 
L 205.126845 -120.945702 
L 204.828449 -133.233569 
L 202.441283 -130.514878 
L 198.860535 -146.632954 
L 194.384599 -142.911388 
L 192.89262 -143.750553 
L 191.699037 -136.897561 
L 190.505455 -135.234991 
L 188.416684 -144.392632 
L 188.118289 -141.378068 
L 186.327914 -139.545124 
L 181.851979 -166.830825 
L 180.956791 -133.057283 
L 178.569626 -138.911979 
L 177.972834 -144.911039 
L 175.884064 -165.868236 
L 173.795294 -140.037306 
L 172.00492 -149.009183 
L 170.214545 -142.03716 
L 169.020963 -134.156371 
L 167.528984 -139.533204 
L 165.440214 -144.822249 
L 163.053048 -151.13016 
L 162.157861 -141.631895 
L 161.262674 -141.008357 
L 159.472299 -131.712702 
L 157.085134 -133.003389 
L 155.593155 -165.257449 
L 154.101176 -135.572243 
L 152.310802 -131.937613 
L 149.923636 -141.981797 
L 148.730053 -141.357868 
L 148.133262 -165.540118 
L 146.641283 -148.270021 
L 146.044492 -136.028052 
L 145.746096 -172.759679 
L 145.149305 -136.539494 
L 142.463743 -145.92904 
L 140.673369 -154.738342 
L 140.374973 -144.230734 
L 139.18139 -145.973581 
L 137.987807 -134.500676 
L 136.197433 -146.268636 
L 133.213476 -145.451682 
L 132.616684 -139.021983 
L 132.019893 -159.524981 
L 130.82631 -138.189255 
L 129.931123 -142.939148 
L 127.245561 -143.349117 
L 126.051979 -143.555979 
L 125.753583 -168.029149 
L 123.664813 -152.687628 
L 122.769626 -162.551405 
L 121.874439 -144.613364 
L 121.277647 -136.24536 
L 119.487273 -162.578757 
L 118.29369 -164.006156 
L 117.398503 -175.571015 
L 116.503316 -140.638756 
L 115.309733 -156.478009 
L 113.817754 -161.525841 
L 112.922567 -159.439415 
L 111.728984 -156.697406 
L 111.132193 -163.846742 
L 110.833797 -175.964425 
L 109.341818 -160.641498 
L 106.954652 -174.293747 
L 106.357861 -189.574471 
L 105.76107 -172.214818 
L 104.865882 -190.045374 
L 103.373904 -189.226709 
L 103.075508 -217.336628 
L 102.777112 -198.986578 
L 102.180321 -170.721777 
L 100.389947 -182.6752 
L 99.793155 -192.531785 
L 98.599572 -200.107686 
L 97.704385 -199.419912 
L 97.405989 -187.935048 
L 95.914011 -215.99474 
L 95.018824 -189.413263 
L 94.422032 -221.976255 
L 93.228449 -224.359351 
L 92.631658 -196.419336 
L 92.333262 -251.920542 
L 91.438075 -212.450054 
L 90.244492 -196.203147 
L 89.647701 -223.832571 
L 88.454118 -258.687439 
L 88.155722 -213.142148 
L 87.857326 -205.91852 
L 86.962139 -242.043493 
L 86.663743 -271.906862 
L 86.066952 -222.497596 
L 85.47016 -215.02531 
L 84.276578 -220.31503 
L 83.978182 -219.249837 
L 83.082995 -216.809681 
L 82.486203 -230.826688 
L 81.889412 -236.061035 
L 81.591016 -292.032 
L 80.994225 -257.747843 
L 80.695829 -218.434805 
L 79.800642 -258.256043 
L 79.502246 -236.494199 
L 78.905455 -242.99399 
L 78.308663 -223.643585 
L 78.010267 -239.337114 
L 77.711872 -248.164678 
L 77.11508 -223.624821 
L 76.518289 -243.55917 
L 76.219893 -245.868405 
L 75.921497 -209.095746 
L 75.623102 -288.427208 
L 75.324706 -222.941377 
L 75.02631 -273.69367 
L 74.727914 -210.930333 
L 74.429519 -228.519387 
L 74.131123 -233.203913 
L 73.832727 -272.721269 
z
" style="stroke: #1f77b4; stroke-opacity: 0.2"/>
    </defs>
    <g clip-path="url(#pcfc0350283)">
     <use xlink:href="#m3f96832c8a" x="0" y="345.6" style="fill: #1f77b4; fill-opacity: 0.2; stroke: #1f77b4; stroke-opacity: 0.2"/>
    </g>
   </g>
   <g id="matplotlib.axis_1">
    <g id="xtick_1">
     <g id="line2d_1">
      <defs>
       <path id="mb9434ec7a4" d="M 0 0 
L 0 3.5 
" style="stroke: #000000; stroke-width: 0.8"/>
      </defs>
      <g>
       <use xlink:href="#mb9434ec7a4" x="73.534332" y="307.584" style="stroke: #000000; stroke-width: 0.8"/>
      </g>
     </g>
     <g id="text_1">
      <!-- 0 -->
      <g transform="translate(70.353082 322.182437)scale(0.1 -0.1)">
       <defs>
        <path id="DejaVuSans-30" d="M 2034 4250 
Q 1547 4250 1301 3770 
Q 1056 3291 1056 2328 
Q 1056 1369 1301 889 
Q 1547 409 2034 409 
Q 2525 409 2770 889 
Q 3016 1369 3016 2328 
Q 3016 3291 2770 3770 
Q 2525 4250 2034 4250 
z
M 2034 4750 
Q 2819 4750 3233 4129 
Q 3647 3509 3647 2328 
Q 3647 1150 3233 529 
Q 2819 -91 2034 -91 
Q 1250 -91 836 529 
Q 422 1150 422 2328 
Q 422 3509 836 4129 
Q 1250 4750 2034 4750 
z
" transform="scale(0.015625)"/>
       </defs>
       <use xlink:href="#DejaVuSans-30"/>
      </g>
     </g>
    </g>
    <g id="xtick_2">
     <g id="line2d_2">
      <g>
       <use xlink:href="#mb9434ec7a4" x="131.814746" y="307.584" style="stroke: #000000; stroke-width: 0.8"/>
      </g>
     </g>
     <g id="text_2">
      <!-- 100000 -->
      <g transform="translate(112.727246 322.182437)scale(0.1 -0.1)">
       <defs>
        <path id="DejaVuSans-31" d="M 794 531 
L 1825 531 
L 1825 4091 
L 703 3866 
L 703 4441 
L 1819 4666 
L 2450 4666 
L 2450 531 
L 3481 531 
L 3481 0 
L 794 0 
L 794 531 
z
" transform="scale(0.015625)"/>
       </defs>
       <use xlink:href="#DejaVuSans-31"/>
       <use xlink:href="#DejaVuSans-30" x="63.623047"/>
       <use xlink:href="#DejaVuSans-30" x="127.246094"/>
       <use xlink:href="#DejaVuSans-30" x="190.869141"/>
       <use xlink:href="#DejaVuSans-30" x="254.492188"/>
       <use xlink:href="#DejaVuSans-30" x="318.115234"/>
      </g>
     </g>
    </g>
    <g id="xtick_3">
     <g id="line2d_3">
      <g>
       <use xlink:href="#mb9434ec7a4" x="190.09516" y="307.584" style="stroke: #000000; stroke-width: 0.8"/>
      </g>
     </g>
     <g id="text_3">
      <!-- 200000 -->
      <g transform="translate(171.00766 322.182437)scale(0.1 -0.1)">
       <defs>
        <path id="DejaVuSans-32" d="M 1228 531 
L 3431 531 
L 3431 0 
L 469 0 
L 469 531 
Q 828 903 1448 1529 
Q 2069 2156 2228 2338 
Q 2531 2678 2651 2914 
Q 2772 3150 2772 3378 
Q 2772 3750 2511 3984 
Q 2250 4219 1831 4219 
Q 1534 4219 1204 4116 
Q 875 4013 500 3803 
L 500 4441 
Q 881 4594 1212 4672 
Q 1544 4750 1819 4750 
Q 2544 4750 2975 4387 
Q 3406 4025 3406 3419 
Q 3406 3131 3298 2873 
Q 3191 2616 2906 2266 
Q 2828 2175 2409 1742 
Q 1991 1309 1228 531 
z
" transform="scale(0.015625)"/>
       </defs>
       <use xlink:href="#DejaVuSans-32"/>
       <use xlink:href="#DejaVuSans-30" x="63.623047"/>
       <use xlink:href="#DejaVuSans-30" x="127.246094"/>
       <use xlink:href="#DejaVuSans-30" x="190.869141"/>
       <use xlink:href="#DejaVuSans-30" x="254.492188"/>
       <use xlink:href="#DejaVuSans-30" x="318.115234"/>
      </g>
     </g>
    </g>
    <g id="xtick_4">
     <g id="line2d_4">
      <g>
       <use xlink:href="#mb9434ec7a4" x="248.375575" y="307.584" style="stroke: #000000; stroke-width: 0.8"/>
      </g>
     </g>
     <g id="text_4">
      <!-- 300000 -->
      <g transform="translate(229.288075 322.182437)scale(0.1 -0.1)">
       <defs>
        <path id="DejaVuSans-33" d="M 2597 2516 
Q 3050 2419 3304 2112 
Q 3559 1806 3559 1356 
Q 3559 666 3084 287 
Q 2609 -91 1734 -91 
Q 1441 -91 1130 -33 
Q 819 25 488 141 
L 488 750 
Q 750 597 1062 519 
Q 1375 441 1716 441 
Q 2309 441 2620 675 
Q 2931 909 2931 1356 
Q 2931 1769 2642 2001 
Q 2353 2234 1838 2234 
L 1294 2234 
L 1294 2753 
L 1863 2753 
Q 2328 2753 2575 2939 
Q 2822 3125 2822 3475 
Q 2822 3834 2567 4026 
Q 2313 4219 1838 4219 
Q 1578 4219 1281 4162 
Q 984 4106 628 3988 
L 628 4550 
Q 988 4650 1302 4700 
Q 1616 4750 1894 4750 
Q 2613 4750 3031 4423 
Q 3450 4097 3450 3541 
Q 3450 3153 3228 2886 
Q 3006 2619 2597 2516 
z
" transform="scale(0.015625)"/>
       </defs>
       <use xlink:href="#DejaVuSans-33"/>
       <use xlink:href="#DejaVuSans-30" x="63.623047"/>
       <use xlink:href="#DejaVuSans-30" x="127.246094"/>
       <use xlink:href="#DejaVuSans-30" x="190.869141"/>
       <use xlink:href="#DejaVuSans-30" x="254.492188"/>
       <use xlink:href="#DejaVuSans-30" x="318.115234"/>
      </g>
     </g>
    </g>
    <g id="xtick_5">
     <g id="line2d_5">
      <g>
       <use xlink:href="#mb9434ec7a4" x="306.655989" y="307.584" style="stroke: #000000; stroke-width: 0.8"/>
      </g>
     </g>
     <g id="text_5">
      <!-- 400000 -->
      <g transform="translate(287.568489 322.182437)scale(0.1 -0.1)">
       <defs>
        <path id="DejaVuSans-34" d="M 2419 4116 
L 825 1625 
L 2419 1625 
L 2419 4116 
z
M 2253 4666 
L 3047 4666 
L 3047 1625 
L 3713 1625 
L 3713 1100 
L 3047 1100 
L 3047 0 
L 2419 0 
L 2419 1100 
L 313 1100 
L 313 1709 
L 2253 4666 
z
" transform="scale(0.015625)"/>
       </defs>
       <use xlink:href="#DejaVuSans-34"/>
       <use xlink:href="#DejaVuSans-30" x="63.623047"/>
       <use xlink:href="#DejaVuSans-30" x="127.246094"/>
       <use xlink:href="#DejaVuSans-30" x="190.869141"/>
       <use xlink:href="#DejaVuSans-30" x="254.492188"/>
       <use xlink:href="#DejaVuSans-30" x="318.115234"/>
      </g>
     </g>
    </g>
    <g id="xtick_6">
     <g id="line2d_6">
      <g>
       <use xlink:href="#mb9434ec7a4" x="364.936404" y="307.584" style="stroke: #000000; stroke-width: 0.8"/>
      </g>
     </g>
     <g id="text_6">
      <!-- 500000 -->
      <g transform="translate(345.848904 322.182437)scale(0.1 -0.1)">
       <defs>
        <path id="DejaVuSans-35" d="M 691 4666 
L 3169 4666 
L 3169 4134 
L 1269 4134 
L 1269 2991 
Q 1406 3038 1543 3061 
Q 1681 3084 1819 3084 
Q 2600 3084 3056 2656 
Q 3513 2228 3513 1497 
Q 3513 744 3044 326 
Q 2575 -91 1722 -91 
Q 1428 -91 1123 -41 
Q 819 9 494 109 
L 494 744 
Q 775 591 1075 516 
Q 1375 441 1709 441 
Q 2250 441 2565 725 
Q 2881 1009 2881 1497 
Q 2881 1984 2565 2268 
Q 2250 2553 1709 2553 
Q 1456 2553 1204 2497 
Q 953 2441 691 2322 
L 691 4666 
z
" transform="scale(0.015625)"/>
       </defs>
       <use xlink:href="#DejaVuSans-35"/>
       <use xlink:href="#DejaVuSans-30" x="63.623047"/>
       <use xlink:href="#DejaVuSans-30" x="127.246094"/>
       <use xlink:href="#DejaVuSans-30" x="190.869141"/>
       <use xlink:href="#DejaVuSans-30" x="254.492188"/>
       <use xlink:href="#DejaVuSans-30" x="318.115234"/>
      </g>
     </g>
    </g>
    <g id="text_7">
     <!-- Problem Size -->
     <g transform="translate(203.867031 335.860562)scale(0.1 -0.1)">
      <defs>
       <path id="DejaVuSans-50" d="M 1259 4147 
L 1259 2394 
L 2053 2394 
Q 2494 2394 2734 2622 
Q 2975 2850 2975 3272 
Q 2975 3691 2734 3919 
Q 2494 4147 2053 4147 
L 1259 4147 
z
M 628 4666 
L 2053 4666 
Q 2838 4666 3239 4311 
Q 3641 3956 3641 3272 
Q 3641 2581 3239 2228 
Q 2838 1875 2053 1875 
L 1259 1875 
L 1259 0 
L 628 0 
L 628 4666 
z
" transform="scale(0.015625)"/>
       <path id="DejaVuSans-72" d="M 2631 2963 
Q 2534 3019 2420 3045 
Q 2306 3072 2169 3072 
Q 1681 3072 1420 2755 
Q 1159 2438 1159 1844 
L 1159 0 
L 581 0 
L 581 3500 
L 1159 3500 
L 1159 2956 
Q 1341 3275 1631 3429 
Q 1922 3584 2338 3584 
Q 2397 3584 2469 3576 
Q 2541 3569 2628 3553 
L 2631 2963 
z
" transform="scale(0.015625)"/>
       <path id="DejaVuSans-6f" d="M 1959 3097 
Q 1497 3097 1228 2736 
Q 959 2375 959 1747 
Q 959 1119 1226 758 
Q 1494 397 1959 397 
Q 2419 397 2687 759 
Q 2956 1122 2956 1747 
Q 2956 2369 2687 2733 
Q 2419 3097 1959 3097 
z
M 1959 3584 
Q 2709 3584 3137 3096 
Q 3566 2609 3566 1747 
Q 3566 888 3137 398 
Q 2709 -91 1959 -91 
Q 1206 -91 779 398 
Q 353 888 353 1747 
Q 353 2609 779 3096 
Q 1206 3584 1959 3584 
z
" transform="scale(0.015625)"/>
       <path id="DejaVuSans-62" d="M 3116 1747 
Q 3116 2381 2855 2742 
Q 2594 3103 2138 3103 
Q 1681 3103 1420 2742 
Q 1159 2381 1159 1747 
Q 1159 1113 1420 752 
Q 1681 391 2138 391 
Q 2594 391 2855 752 
Q 3116 1113 3116 1747 
z
M 1159 2969 
Q 1341 3281 1617 3432 
Q 1894 3584 2278 3584 
Q 2916 3584 3314 3078 
Q 3713 2572 3713 1747 
Q 3713 922 3314 415 
Q 2916 -91 2278 -91 
Q 1894 -91 1617 61 
Q 1341 213 1159 525 
L 1159 0 
L 581 0 
L 581 4863 
L 1159 4863 
L 1159 2969 
z
" transform="scale(0.015625)"/>
       <path id="DejaVuSans-6c" d="M 603 4863 
L 1178 4863 
L 1178 0 
L 603 0 
L 603 4863 
z
" transform="scale(0.015625)"/>
       <path id="DejaVuSans-65" d="M 3597 1894 
L 3597 1613 
L 953 1613 
Q 991 1019 1311 708 
Q 1631 397 2203 397 
Q 2534 397 2845 478 
Q 3156 559 3463 722 
L 3463 178 
Q 3153 47 2828 -22 
Q 2503 -91 2169 -91 
Q 1331 -91 842 396 
Q 353 884 353 1716 
Q 353 2575 817 3079 
Q 1281 3584 2069 3584 
Q 2775 3584 3186 3129 
Q 3597 2675 3597 1894 
z
M 3022 2063 
Q 3016 2534 2758 2815 
Q 2500 3097 2075 3097 
Q 1594 3097 1305 2825 
Q 1016 2553 972 2059 
L 3022 2063 
z
" transform="scale(0.015625)"/>
       <path id="DejaVuSans-6d" d="M 3328 2828 
Q 3544 3216 3844 3400 
Q 4144 3584 4550 3584 
Q 5097 3584 5394 3201 
Q 5691 2819 5691 2113 
L 5691 0 
L 5113 0 
L 5113 2094 
Q 5113 2597 4934 2840 
Q 4756 3084 4391 3084 
Q 3944 3084 3684 2787 
Q 3425 2491 3425 1978 
L 3425 0 
L 2847 0 
L 2847 2094 
Q 2847 2600 2669 2842 
Q 2491 3084 2119 3084 
Q 1678 3084 1418 2786 
Q 1159 2488 1159 1978 
L 1159 0 
L 581 0 
L 581 3500 
L 1159 3500 
L 1159 2956 
Q 1356 3278 1631 3431 
Q 1906 3584 2284 3584 
Q 2666 3584 2933 3390 
Q 3200 3197 3328 2828 
z
" transform="scale(0.015625)"/>
       <path id="DejaVuSans-20" transform="scale(0.015625)"/>
       <path id="DejaVuSans-53" d="M 3425 4513 
L 3425 3897 
Q 3066 4069 2747 4153 
Q 2428 4238 2131 4238 
Q 1616 4238 1336 4038 
Q 1056 3838 1056 3469 
Q 1056 3159 1242 3001 
Q 1428 2844 1947 2747 
L 2328 2669 
Q 3034 2534 3370 2195 
Q 3706 1856 3706 1288 
Q 3706 609 3251 259 
Q 2797 -91 1919 -91 
Q 1588 -91 1214 -16 
Q 841 59 441 206 
L 441 856 
Q 825 641 1194 531 
Q 1563 422 1919 422 
Q 2459 422 2753 634 
Q 3047 847 3047 1241 
Q 3047 1584 2836 1778 
Q 2625 1972 2144 2069 
L 1759 2144 
Q 1053 2284 737 2584 
Q 422 2884 422 3419 
Q 422 4038 858 4394 
Q 1294 4750 2059 4750 
Q 2388 4750 2728 4690 
Q 3069 4631 3425 4513 
z
" transform="scale(0.015625)"/>
       <path id="DejaVuSans-69" d="M 603 3500 
L 1178 3500 
L 1178 0 
L 603 0 
L 603 3500 
z
M 603 4863 
L 1178 4863 
L 1178 4134 
L 603 4134 
L 603 4863 
z
" transform="scale(0.015625)"/>
       <path id="DejaVuSans-7a" d="M 353 3500 
L 3084 3500 
L 3084 2975 
L 922 459 
L 3084 459 
L 3084 0 
L 275 0 
L 275 525 
L 2438 3041 
L 353 3041 
L 353 3500 
z
" transform="scale(0.015625)"/>
      </defs>
      <use xlink:href="#DejaVuSans-50"/>
      <use xlink:href="#DejaVuSans-72" x="58.552734"/>
      <use xlink:href="#DejaVuSans-6f" x="97.416016"/>
      <use xlink:href="#DejaVuSans-62" x="158.597656"/>
      <use xlink:href="#DejaVuSans-6c" x="222.074219"/>
      <use xlink:href="#DejaVuSans-65" x="249.857422"/>
      <use xlink:href="#DejaVuSans-6d" x="311.380859"/>
      <use xlink:href="#DejaVuSans-20" x="408.792969"/>
      <use xlink:href="#DejaVuSans-53" x="440.580078"/>
      <use xlink:href="#DejaVuSans-69" x="504.056641"/>
      <use xlink:href="#DejaVuSans-7a" x="531.839844"/>
      <use xlink:href="#DejaVuSans-65" x="584.330078"/>
     </g>
    </g>
   </g>
   <g id="matplotlib.axis_2">
    <g id="ytick_1">
     <g id="line2d_7">
      <defs>
       <path id="m9a4a023875" d="M 0 0 
L -3.5 0 
" style="stroke: #000000; stroke-width: 0.8"/>
      </defs>
      <g>
       <use xlink:href="#m9a4a023875" x="57.6" y="301.120765" style="stroke: #000000; stroke-width: 0.8"/>
      </g>
     </g>
     <g id="text_8">
      <!-- 1.5 -->
      <g transform="translate(34.696875 304.919984)scale(0.1 -0.1)">
       <defs>
        <path id="DejaVuSans-2e" d="M 684 794 
L 1344 794 
L 1344 0 
L 684 0 
L 684 794 
z
" transform="scale(0.015625)"/>
       </defs>
       <use xlink:href="#DejaVuSans-31"/>
       <use xlink:href="#DejaVuSans-2e" x="63.623047"/>
       <use xlink:href="#DejaVuSans-35" x="95.410156"/>
      </g>
     </g>
    </g>
    <g id="ytick_2">
     <g id="line2d_8">
      <g>
       <use xlink:href="#m9a4a023875" x="57.6" y="259.500944" style="stroke: #000000; stroke-width: 0.8"/>
      </g>
     </g>
     <g id="text_9">
      <!-- 2.0 -->
      <g transform="translate(34.696875 263.300163)scale(0.1 -0.1)">
       <use xlink:href="#DejaVuSans-32"/>
       <use xlink:href="#DejaVuSans-2e" x="63.623047"/>
       <use xlink:href="#DejaVuSans-30" x="95.410156"/>
      </g>
     </g>
    </g>
    <g id="ytick_3">
     <g id="line2d_9">
      <g>
       <use xlink:href="#m9a4a023875" x="57.6" y="217.881123" style="stroke: #000000; stroke-width: 0.8"/>
      </g>
     </g>
     <g id="text_10">
      <!-- 2.5 -->
      <g transform="translate(34.696875 221.680342)scale(0.1 -0.1)">
       <use xlink:href="#DejaVuSans-32"/>
       <use xlink:href="#DejaVuSans-2e" x="63.623047"/>
       <use xlink:href="#DejaVuSans-35" x="95.410156"/>
      </g>
     </g>
    </g>
    <g id="ytick_4">
     <g id="line2d_10">
      <g>
       <use xlink:href="#m9a4a023875" x="57.6" y="176.261302" style="stroke: #000000; stroke-width: 0.8"/>
      </g>
     </g>
     <g id="text_11">
      <!-- 3.0 -->
      <g transform="translate(34.696875 180.06052)scale(0.1 -0.1)">
       <use xlink:href="#DejaVuSans-33"/>
       <use xlink:href="#DejaVuSans-2e" x="63.623047"/>
       <use xlink:href="#DejaVuSans-30" x="95.410156"/>
      </g>
     </g>
    </g>
    <g id="ytick_5">
     <g id="line2d_11">
      <g>
       <use xlink:href="#m9a4a023875" x="57.6" y="134.64148" style="stroke: #000000; stroke-width: 0.8"/>
      </g>
     </g>
     <g id="text_12">
      <!-- 3.5 -->
      <g transform="translate(34.696875 138.440699)scale(0.1 -0.1)">
       <use xlink:href="#DejaVuSans-33"/>
       <use xlink:href="#DejaVuSans-2e" x="63.623047"/>
       <use xlink:href="#DejaVuSans-35" x="95.410156"/>
      </g>
     </g>
    </g>
    <g id="ytick_6">
     <g id="line2d_12">
      <g>
       <use xlink:href="#m9a4a023875" x="57.6" y="93.021659" style="stroke: #000000; stroke-width: 0.8"/>
      </g>
     </g>
     <g id="text_13">
      <!-- 4.0 -->
      <g transform="translate(34.696875 96.820878)scale(0.1 -0.1)">
       <use xlink:href="#DejaVuSans-34"/>
       <use xlink:href="#DejaVuSans-2e" x="63.623047"/>
       <use xlink:href="#DejaVuSans-30" x="95.410156"/>
      </g>
     </g>
    </g>
    <g id="ytick_7">
     <g id="line2d_13">
      <g>
       <use xlink:href="#m9a4a023875" x="57.6" y="51.401838" style="stroke: #000000; stroke-width: 0.8"/>
      </g>
     </g>
     <g id="text_14">
      <!-- 4.5 -->
      <g transform="translate(34.696875 55.201057)scale(0.1 -0.1)">
       <use xlink:href="#DejaVuSans-34"/>
       <use xlink:href="#DejaVuSans-2e" x="63.623047"/>
       <use xlink:href="#DejaVuSans-35" x="95.410156"/>
      </g>
     </g>
    </g>
    <g id="text_15">
     <!-- GFLOPS -->
     <g transform="translate(28.617187 194.007688)rotate(-90)scale(0.1 -0.1)">
      <defs>
       <path id="DejaVuSans-47" d="M 3809 666 
L 3809 1919 
L 2778 1919 
L 2778 2438 
L 4434 2438 
L 4434 434 
Q 4069 175 3628 42 
Q 3188 -91 2688 -91 
Q 1594 -91 976 548 
Q 359 1188 359 2328 
Q 359 3472 976 4111 
Q 1594 4750 2688 4750 
Q 3144 4750 3555 4637 
Q 3966 4525 4313 4306 
L 4313 3634 
Q 3963 3931 3569 4081 
Q 3175 4231 2741 4231 
Q 1884 4231 1454 3753 
Q 1025 3275 1025 2328 
Q 1025 1384 1454 906 
Q 1884 428 2741 428 
Q 3075 428 3337 486 
Q 3600 544 3809 666 
z
" transform="scale(0.015625)"/>
       <path id="DejaVuSans-46" d="M 628 4666 
L 3309 4666 
L 3309 4134 
L 1259 4134 
L 1259 2759 
L 3109 2759 
L 3109 2228 
L 1259 2228 
L 1259 0 
L 628 0 
L 628 4666 
z
" transform="scale(0.015625)"/>
       <path id="DejaVuSans-4c" d="M 628 4666 
L 1259 4666 
L 1259 531 
L 3531 531 
L 3531 0 
L 628 0 
L 628 4666 
z
" transform="scale(0.015625)"/>
       <path id="DejaVuSans-4f" d="M 2522 4238 
Q 1834 4238 1429 3725 
Q 1025 3213 1025 2328 
Q 1025 1447 1429 934 
Q 1834 422 2522 422 
Q 3209 422 3611 934 
Q 4013 1447 4013 2328 
Q 4013 3213 3611 3725 
Q 3209 4238 2522 4238 
z
M 2522 4750 
Q 3503 4750 4090 4092 
Q 4678 3434 4678 2328 
Q 4678 1225 4090 567 
Q 3503 -91 2522 -91 
Q 1538 -91 948 565 
Q 359 1222 359 2328 
Q 359 3434 948 4092 
Q 1538 4750 2522 4750 
z
" transform="scale(0.015625)"/>
      </defs>
      <use xlink:href="#DejaVuSans-47"/>
      <use xlink:href="#DejaVuSans-46" x="77.490234"/>
      <use xlink:href="#DejaVuSans-4c" x="135.009766"/>
      <use xlink:href="#DejaVuSans-4f" x="187.097656"/>
      <use xlink:href="#DejaVuSans-50" x="265.808594"/>
      <use xlink:href="#DejaVuSans-53" x="326.111328"/>
     </g>
    </g>
   </g>
   <g id="line2d_14">
    <path d="M 73.832727 168.62931 
L 74.131123 161.919952 
L 74.429519 168.238195 
L 74.727914 169.070156 
L 75.02631 125.720475 
L 75.324706 149.397715 
L 75.623102 114.72914 
L 75.921497 161.888657 
L 76.518289 139.294591 
L 77.11508 143.664204 
L 77.711872 130.990192 
L 78.010267 146.934758 
L 78.308663 147.919861 
L 78.905455 132.549116 
L 79.502246 136.414616 
L 79.800642 127.193975 
L 80.695829 144.725496 
L 80.994225 138.434056 
L 81.591016 143.002188 
L 81.889412 139.63681 
L 82.486203 138.439188 
L 83.082995 153.202136 
L 83.978182 158.335644 
L 84.276578 146.512537 
L 85.47016 151.751948 
L 86.066952 146.734548 
L 86.663743 137.673404 
L 86.962139 151.850573 
L 87.857326 156.513678 
L 88.155722 174.528998 
L 88.454118 138.522271 
L 89.647701 149.15373 
L 90.244492 170.313356 
L 91.438075 152.4832 
L 92.333262 143.435378 
L 92.631658 171.039085 
L 93.228449 160.996455 
L 94.422032 155.070561 
L 95.018824 173.147608 
L 95.914011 173.572525 
L 97.405989 176.942854 
L 97.704385 187.105526 
L 98.599572 167.856708 
L 99.793155 189.766796 
L 100.389947 183.581315 
L 102.180321 192.320177 
L 102.777112 188.391918 
L 103.075508 180.161989 
L 103.373904 184.397658 
L 104.865882 183.242554 
L 105.76107 191.465941 
L 106.357861 190.599639 
L 106.954652 192.906815 
L 109.341818 200.312754 
L 110.833797 231.196706 
L 111.132193 200.306999 
L 111.728984 212.588079 
L 112.922567 208.180463 
L 113.817754 210.215727 
L 115.309733 208.578726 
L 116.503316 217.80082 
L 117.398503 204.311114 
L 118.29369 208.600248 
L 119.487273 212.615627 
L 121.277647 225.122696 
L 121.874439 219.448106 
L 122.769626 212.327683 
L 123.664813 211.21423 
L 125.753583 213.048452 
L 126.051979 225.640972 
L 127.245561 216.116029 
L 129.931123 224.825337 
L 130.82631 226.258346 
L 132.019893 216.125772 
L 132.616684 226.473159 
L 133.213476 219.709088 
L 136.197433 218.169614 
L 137.987807 226.18575 
L 139.18139 225.109894 
L 140.374973 221.537109 
L 140.673369 222.941537 
L 142.463743 228.728217 
L 145.149305 222.972667 
L 145.746096 230.343991 
L 146.044492 237.776166 
L 146.641283 225.683102 
L 148.133262 222.171575 
L 148.730053 223.659504 
L 149.923636 233.991566 
L 152.310802 232.89461 
L 154.101176 228.108441 
L 155.593155 221.584707 
L 157.085134 228.264503 
L 159.472299 232.037993 
L 161.262674 235.294932 
L 162.157861 231.784173 
L 163.053048 220.95454 
L 165.440214 227.434408 
L 167.528984 226.210927 
L 169.020963 228.934252 
L 170.214545 225.599577 
L 172.00492 222.195766 
L 173.795294 226.011922 
L 175.884064 222.126409 
L 177.972834 228.180886 
L 178.569626 233.439392 
L 180.956791 228.394422 
L 181.851979 235.301005 
L 186.327914 227.55054 
L 188.118289 234.690159 
L 188.416684 227.427769 
L 190.505455 235.4006 
L 191.699037 230.970653 
L 192.89262 223.928907 
L 194.384599 230.062711 
L 198.860535 225.42097 
L 202.441283 235.926393 
L 204.828449 232.901605 
L 205.126845 247.165919 
L 207.215615 237.041334 
L 207.812406 230.286911 
L 211.393155 225.815567 
L 216.764278 225.946442 
L 217.957861 238.847434 
L 218.554652 232.081462 
L 219.748235 234.575695 
L 221.240214 227.774079 
L 222.732193 212.885733 
L 223.925775 236.831426 
L 226.312941 254.226426 
L 231.087273 232.537045 
L 234.369626 235.742828 
L 234.668021 233.79757 
L 237.651979 223.806335 
L 240.635936 237.867093 
L 242.724706 251.273117 
L 245.410267 249.573759 
L 250.78139 226.389262 
L 252.571765 208.269085 
L 254.063743 214.839023 
L 257.346096 243.948582 
L 261.523636 243.217355 
L 264.507594 254.279837 
L 266.894759 248.908145 
L 270.475508 214.646646 
L 280.322567 242.141375 
L 282.411337 240.405215 
L 283.60492 245.838025 
L 288.379251 241.500033 
L 290.169626 208.767571 
L 291.064813 244.399719 
L 303.299037 242.453284 
L 309.863743 256.281817 
L 312.250909 242.101778 
L 315.234866 268.186626 
L 326.275508 240.514606 
L 336.122567 247.055532 
L 339.40492 248.080881 
L 342.090481 257.8839 
L 362.38139 263.512762 
L 368.946096 252.151412 
L 398.487273 255.177432 
L 398.487273 255.177432 
" clip-path="url(#pcfc0350283)" style="fill: none; stroke: #1f77b4; stroke-width: 1.5; stroke-linecap: square"/>
   </g>
   <g id="line2d_15"/>
   <g id="patch_3">
    <path d="M 57.6 307.584 
L 57.6 41.472 
" style="fill: none; stroke: #000000; stroke-width: 0.8; stroke-linejoin: miter; stroke-linecap: square"/>
   </g>
   <g id="patch_4">
    <path d="M 414.72 307.584 
L 414.72 41.472 
" style="fill: none; stroke: #000000; stroke-width: 0.8; stroke-linejoin: miter; stroke-linecap: square"/>
   </g>
   <g id="patch_5">
    <path d="M 57.6 307.584 
L 414.72 307.584 
" style="fill: none; stroke: #000000; stroke-width: 0.8; stroke-linejoin: miter; stroke-linecap: square"/>
   </g>
   <g id="patch_6">
    <path d="M 57.6 41.472 
L 414.72 41.472 
" style="fill: none; stroke: #000000; stroke-width: 0.8; stroke-linejoin: miter; stroke-linecap: square"/>
   </g>
   <g id="text_16">
    <!-- Performance vs Local Problem Size -->
    <g transform="translate(131.440313 35.472)scale(0.12 -0.12)">
     <defs>
      <path id="DejaVuSans-66" d="M 2375 4863 
L 2375 4384 
L 1825 4384 
Q 1516 4384 1395 4259 
Q 1275 4134 1275 3809 
L 1275 3500 
L 2222 3500 
L 2222 3053 
L 1275 3053 
L 1275 0 
L 697 0 
L 697 3053 
L 147 3053 
L 147 3500 
L 697 3500 
L 697 3744 
Q 697 4328 969 4595 
Q 1241 4863 1831 4863 
L 2375 4863 
z
" transform="scale(0.015625)"/>
      <path id="DejaVuSans-61" d="M 2194 1759 
Q 1497 1759 1228 1600 
Q 959 1441 959 1056 
Q 959 750 1161 570 
Q 1363 391 1709 391 
Q 2188 391 2477 730 
Q 2766 1069 2766 1631 
L 2766 1759 
L 2194 1759 
z
M 3341 1997 
L 3341 0 
L 2766 0 
L 2766 531 
Q 2569 213 2275 61 
Q 1981 -91 1556 -91 
Q 1019 -91 701 211 
Q 384 513 384 1019 
Q 384 1609 779 1909 
Q 1175 2209 1959 2209 
L 2766 2209 
L 2766 2266 
Q 2766 2663 2505 2880 
Q 2244 3097 1772 3097 
Q 1472 3097 1187 3025 
Q 903 2953 641 2809 
L 641 3341 
Q 956 3463 1253 3523 
Q 1550 3584 1831 3584 
Q 2591 3584 2966 3190 
Q 3341 2797 3341 1997 
z
" transform="scale(0.015625)"/>
      <path id="DejaVuSans-6e" d="M 3513 2113 
L 3513 0 
L 2938 0 
L 2938 2094 
Q 2938 2591 2744 2837 
Q 2550 3084 2163 3084 
Q 1697 3084 1428 2787 
Q 1159 2491 1159 1978 
L 1159 0 
L 581 0 
L 581 3500 
L 1159 3500 
L 1159 2956 
Q 1366 3272 1645 3428 
Q 1925 3584 2291 3584 
Q 2894 3584 3203 3211 
Q 3513 2838 3513 2113 
z
" transform="scale(0.015625)"/>
      <path id="DejaVuSans-63" d="M 3122 3366 
L 3122 2828 
Q 2878 2963 2633 3030 
Q 2388 3097 2138 3097 
Q 1578 3097 1268 2742 
Q 959 2388 959 1747 
Q 959 1106 1268 751 
Q 1578 397 2138 397 
Q 2388 397 2633 464 
Q 2878 531 3122 666 
L 3122 134 
Q 2881 22 2623 -34 
Q 2366 -91 2075 -91 
Q 1284 -91 818 406 
Q 353 903 353 1747 
Q 353 2603 823 3093 
Q 1294 3584 2113 3584 
Q 2378 3584 2631 3529 
Q 2884 3475 3122 3366 
z
" transform="scale(0.015625)"/>
      <path id="DejaVuSans-76" d="M 191 3500 
L 800 3500 
L 1894 563 
L 2988 3500 
L 3597 3500 
L 2284 0 
L 1503 0 
L 191 3500 
z
" transform="scale(0.015625)"/>
      <path id="DejaVuSans-73" d="M 2834 3397 
L 2834 2853 
Q 2591 2978 2328 3040 
Q 2066 3103 1784 3103 
Q 1356 3103 1142 2972 
Q 928 2841 928 2578 
Q 928 2378 1081 2264 
Q 1234 2150 1697 2047 
L 1894 2003 
Q 2506 1872 2764 1633 
Q 3022 1394 3022 966 
Q 3022 478 2636 193 
Q 2250 -91 1575 -91 
Q 1294 -91 989 -36 
Q 684 19 347 128 
L 347 722 
Q 666 556 975 473 
Q 1284 391 1588 391 
Q 1994 391 2212 530 
Q 2431 669 2431 922 
Q 2431 1156 2273 1281 
Q 2116 1406 1581 1522 
L 1381 1569 
Q 847 1681 609 1914 
Q 372 2147 372 2553 
Q 372 3047 722 3315 
Q 1072 3584 1716 3584 
Q 2034 3584 2315 3537 
Q 2597 3491 2834 3397 
z
" transform="scale(0.015625)"/>
     </defs>
     <use xlink:href="#DejaVuSans-50"/>
     <use xlink:href="#DejaVuSans-65" x="56.677734"/>
     <use xlink:href="#DejaVuSans-72" x="118.201172"/>
     <use xlink:href="#DejaVuSans-66" x="159.314453"/>
     <use xlink:href="#DejaVuSans-6f" x="194.519531"/>
     <use xlink:href="#DejaVuSans-72" x="255.701172"/>
     <use xlink:href="#DejaVuSans-6d" x="295.064453"/>
     <use xlink:href="#DejaVuSans-61" x="392.476562"/>
     <use xlink:href="#DejaVuSans-6e" x="453.755859"/>
     <use xlink:href="#DejaVuSans-63" x="517.134766"/>
     <use xlink:href="#DejaVuSans-65" x="572.115234"/>
     <use xlink:href="#DejaVuSans-20" x="633.638672"/>
     <use xlink:href="#DejaVuSans-76" x="665.425781"/>
     <use xlink:href="#DejaVuSans-73" x="724.605469"/>
     <use xlink:href="#DejaVuSans-20" x="776.705078"/>
     <use xlink:href="#DejaVuSans-4c" x="808.492188"/>
     <use xlink:href="#DejaVuSans-6f" x="862.455078"/>
     <use xlink:href="#DejaVuSans-63" x="923.636719"/>
     <use xlink:href="#DejaVuSans-61" x="978.617188"/>
     <use xlink:href="#DejaVuSans-6c" x="1039.896484"/>
     <use xlink:href="#DejaVuSans-20" x="1067.679688"/>
     <use xlink:href="#DejaVuSans-50" x="1099.466797"/>
     <use xlink:href="#DejaVuSans-72" x="1158.019531"/>
     <use xlink:href="#DejaVuSans-6f" x="1196.882812"/>
     <use xlink:href="#DejaVuSans-62" x="1258.064453"/>
     <use xlink:href="#DejaVuSans-6c" x="1321.541016"/>
     <use xlink:href="#DejaVuSans-65" x="1349.324219"/>
     <use xlink:href="#DejaVuSans-6d" x="1410.847656"/>
     <use xlink:href="#DejaVuSans-20" x="1508.259766"/>
     <use xlink:href="#DejaVuSans-53" x="1540.046875"/>
     <use xlink:href="#DejaVuSans-69" x="1603.523438"/>
     <use xlink:href="#DejaVuSans-7a" x="1631.306641"/>
     <use xlink:href="#DejaVuSans-65" x="1683.796875"/>
    </g>
   </g>
   <g id="legend_1">
    <g id="patch_7">
     <path d="M 339.12 78.82825 
L 407.72 78.82825 
Q 409.72 78.82825 409.72 76.82825 
L 409.72 48.472 
Q 409.72 46.472 407.72 46.472 
L 339.12 46.472 
Q 337.12 46.472 337.12 48.472 
L 337.12 76.82825 
Q 337.12 78.82825 339.12 78.82825 
z
" style="fill: #ffffff; opacity: 0.8; stroke: #cccccc; stroke-linejoin: miter"/>
    </g>
    <g id="text_17">
     <!-- Cluster -->
     <g transform="translate(355.673906 58.070437)scale(0.1 -0.1)">
      <defs>
       <path id="DejaVuSans-43" d="M 4122 4306 
L 4122 3641 
Q 3803 3938 3442 4084 
Q 3081 4231 2675 4231 
Q 1875 4231 1450 3742 
Q 1025 3253 1025 2328 
Q 1025 1406 1450 917 
Q 1875 428 2675 428 
Q 3081 428 3442 575 
Q 3803 722 4122 1019 
L 4122 359 
Q 3791 134 3420 21 
Q 3050 -91 2638 -91 
Q 1578 -91 968 557 
Q 359 1206 359 2328 
Q 359 3453 968 4101 
Q 1578 4750 2638 4750 
Q 3056 4750 3426 4639 
Q 3797 4528 4122 4306 
z
" transform="scale(0.015625)"/>
       <path id="DejaVuSans-75" d="M 544 1381 
L 544 3500 
L 1119 3500 
L 1119 1403 
Q 1119 906 1312 657 
Q 1506 409 1894 409 
Q 2359 409 2629 706 
Q 2900 1003 2900 1516 
L 2900 3500 
L 3475 3500 
L 3475 0 
L 2900 0 
L 2900 538 
Q 2691 219 2414 64 
Q 2138 -91 1772 -91 
Q 1169 -91 856 284 
Q 544 659 544 1381 
z
M 1991 3584 
L 1991 3584 
z
" transform="scale(0.015625)"/>
       <path id="DejaVuSans-74" d="M 1172 4494 
L 1172 3500 
L 2356 3500 
L 2356 3053 
L 1172 3053 
L 1172 1153 
Q 1172 725 1289 603 
Q 1406 481 1766 481 
L 2356 481 
L 2356 0 
L 1766 0 
Q 1100 0 847 248 
Q 594 497 594 1153 
L 594 3053 
L 172 3053 
L 172 3500 
L 594 3500 
L 594 4494 
L 1172 4494 
z
" transform="scale(0.015625)"/>
      </defs>
      <use xlink:href="#DejaVuSans-43"/>
      <use xlink:href="#DejaVuSans-6c" x="69.824219"/>
      <use xlink:href="#DejaVuSans-75" x="97.607422"/>
      <use xlink:href="#DejaVuSans-73" x="160.986328"/>
      <use xlink:href="#DejaVuSans-74" x="213.085938"/>
      <use xlink:href="#DejaVuSans-65" x="252.294922"/>
      <use xlink:href="#DejaVuSans-72" x="313.818359"/>
     </g>
    </g>
    <g id="line2d_16">
     <path d="M 341.12 69.248562 
L 351.12 69.248562 
L 361.12 69.248562 
" style="fill: none; stroke: #1f77b4; stroke-width: 1.5; stroke-linecap: square"/>
    </g>
    <g id="text_18">
     <!-- Hopper -->
     <g transform="translate(369.12 72.748562)scale(0.1 -0.1)">
      <defs>
       <path id="DejaVuSans-48" d="M 628 4666 
L 1259 4666 
L 1259 2753 
L 3553 2753 
L 3553 4666 
L 4184 4666 
L 4184 0 
L 3553 0 
L 3553 2222 
L 1259 2222 
L 1259 0 
L 628 0 
L 628 4666 
z
" transform="scale(0.015625)"/>
       <path id="DejaVuSans-70" d="M 1159 525 
L 1159 -1331 
L 581 -1331 
L 581 3500 
L 1159 3500 
L 1159 2969 
Q 1341 3281 1617 3432 
Q 1894 3584 2278 3584 
Q 2916 3584 3314 3078 
Q 3713 2572 3713 1747 
Q 3713 922 3314 415 
Q 2916 -91 2278 -91 
Q 1894 -91 1617 61 
Q 1341 213 1159 525 
z
M 3116 1747 
Q 3116 2381 2855 2742 
Q 2594 3103 2138 3103 
Q 1681 3103 1420 2742 
Q 1159 2381 1159 1747 
Q 1159 1113 1420 752 
Q 1681 391 2138 391 
Q 2594 391 2855 752 
Q 3116 1113 3116 1747 
z
" transform="scale(0.015625)"/>
      </defs>
      <use xlink:href="#DejaVuSans-48"/>
      <use xlink:href="#DejaVuSans-6f" x="75.195312"/>
      <use xlink:href="#DejaVuSans-70" x="136.376953"/>
      <use xlink:href="#DejaVuSans-70" x="199.853516"/>
      <use xlink:href="#DejaVuSans-65" x="263.330078"/>
      <use xlink:href="#DejaVuSans-72" x="324.853516"/>
     </g>
    </g>
   </g>
  </g>
 </g>
 <defs>
  <clipPath id="pcfc0350283">
   <rect x="57.6" y="41.472" width="357.12" height="266.112"/>
  </clipPath>
 </defs>
</svg>
