<?xml version="1.0" encoding="utf-8" standalone="no"?>
<!DOCTYPE svg PUBLIC "-//W3C//DTD SVG 1.1//EN"
  "http://www.w3.org/Graphics/SVG/1.1/DTD/svg11.dtd">
<svg xmlns:xlink="http://www.w3.org/1999/xlink" width="460.8pt" height="345.6pt" viewBox="0 0 460.8 345.6" xmlns="http://www.w3.org/2000/svg" version="1.1">
 <metadata>
  <rdf:RDF xmlns:dc="http://purl.org/dc/elements/1.1/" xmlns:cc="http://creativecommons.org/ns#" xmlns:rdf="http://www.w3.org/1999/02/22-rdf-syntax-ns#">
   <cc:Work>
    <dc:type rdf:resource="http://purl.org/dc/dcmitype/StillImage"/>
    <dc:date>2024-05-05T11:09:19.752090</dc:date>
    <dc:format>image/svg+xml</dc:format>
    <dc:creator>
     <cc:Agent>
      <dc:title>Matplotlib v3.5.3, https://matplotlib.org/</dc:title>
     </cc:Agent>
    </dc:creator>
   </cc:Work>
  </rdf:RDF>
 </metadata>
 <defs>
  <style type="text/css">*{stroke-linejoin: round; stroke-linecap: butt}</style>
 </defs>
 <g id="figure_1">
  <g id="patch_1">
   <path d="M 0 345.6 
L 460.8 345.6 
L 460.8 0 
L 0 0 
z
" style="fill: #ffffff"/>
  </g>
  <g id="axes_1">
   <g id="patch_2">
    <path d="M 57.6 307.584 
L 414.72 307.584 
L 414.72 41.472 
L 57.6 41.472 
z
" style="fill: #ffffff"/>
   </g>
   <g id="PolyCollection_1">
    <path d="M 73.832727 107.985551 
L 73.832727 109.01628 
L 86.492857 108.40477 
L 93.898558 108.700717 
L 99.152987 108.097368 
L 103.228638 106.728315 
L 106.558688 108.338016 
L 109.374205 107.775206 
L 111.813116 106.990753 
L 113.964389 110.31099 
L 115.888768 106.974854 
L 119.218818 108.90818 
L 122.034334 107.440686 
L 123.294469 114.131151 
L 124.473246 107.155938 
L 126.624519 113.878315 
L 128.548898 111.506483 
L 129.440036 116.565868 
L 131.878947 112.082076 
L 132.624549 123.84004 
L 134.03022 114.711105 
L 134.694464 117.560485 
L 135.954599 116.527646 
L 137.133376 109.542721 
L 138.770116 129.87906 
L 139.284648 114.242471 
L 141.209027 113.346677 
L 142.100165 121.255158 
L 142.94984 117.073541 
L 143.3603 132.663963 
L 144.539077 112.038031 
L 144.915682 128.503465 
L 145.284679 120.295817 
L 146.690349 121.868369 
L 147.354594 122.176896 
L 148.614728 123.558621 
L 149.505866 124.911362 
L 149.793505 106.866628 
L 150.355541 131.822182 
L 151.430245 124.764805 
L 151.944778 123.957792 
L 152.69038 141.339312 
L 153.869157 117.280681 
L 154.096051 139.234054 
L 154.760295 127.346402 
L 155.609969 137.478434 
L 156.020429 133.10331 
L 157.199207 112.340694 
L 157.575812 132.745216 
L 157.761242 155.955722 
L 157.944808 133.985065 
L 158.835946 137.934779 
L 159.350479 137.526993 
L 159.685621 140.670355 
L 160.014724 121.082856 
L 161.274858 126.263037 
L 162.02046 155.53727 
L 162.165996 135.848042 
L 162.453635 99.631501 
L 163.015671 140.385018 
L 163.426131 141.347274 
L 164.090375 136.330729 
L 164.604908 124.323645 
L 164.981513 144.400296 
L 165.350509 141.672557 
L 165.831187 136.084432 
L 166.529287 122.324552 
L 166.75618 137.107367 
L 167.091322 141.4084 
L 167.420425 125.931575 
L 168.166026 147.170573 
L 168.270099 140.220567 
L 168.680559 138.392265 
L 169.571697 141.959118 
L 169.859336 101.308386 
L 170.235942 129.400565 
L 170.421372 139.498801 
L 170.604938 135.747719 
L 171.496076 141.843085 
L 172.010609 139.385295 
L 172.345751 143.925405 
L 172.674853 115.658028 
L 172.756211 148.902161 
L 173.236889 142.228245 
L 173.934988 121.188074 
L 174.086563 159.00829 
L 174.161881 140.460567 
L 174.311593 140.061748 
L 174.68059 155.932546 
L 174.826126 139.416448 
L 175.113765 91.10727 
L 175.6758 141.087039 
L 176.08626 141.970301 
L 176.421402 156.691312 
L 176.750505 131.206394 
L 177.265037 114.44456 
L 177.641643 144.505306 
L 177.827073 150.50999 
L 178.010639 145.726642 
L 178.491317 147.197609 
L 178.901777 139.198615 
L 179.189416 106.063324 
L 179.41631 143.129378 
L 179.751452 145.239508 
L 180.080554 116.021173 
L 180.45716 130.625275 
L 180.826156 142.221416 
L 180.930229 135.807353 
L 181.340689 135.260569 
L 181.492264 157.01503 
L 182.231827 142.946231 
L 182.519466 87.169244 
L 182.566969 142.537414 
L 182.896071 131.763219 
L 183.081501 143.189949 
L 183.265068 133.567591 
L 183.491961 141.35563 
L 184.156206 129.829647 
L 184.670739 119.648169 
L 185.00588 142.817044 
L 185.047344 140.973391 
L 185.334983 103.646397 
L 185.41634 145.716334 
L 185.897018 137.276882 
L 186.595117 105.242762 
L 186.746693 156.998881 
L 186.822011 146.03614 
L 186.971723 147.133278 
L 187.157153 146.088345 
L 187.340719 157.798524 
L 187.486255 130.796969 
L 187.773895 82.096728 
L 188.33593 131.138136 
L 188.712535 155.006386 
L 188.74639 141.405109 
L 189.081532 157.694624 
L 189.410634 124.701445 
L 189.637528 145.898475 
L 189.925167 100.857069 
L 190.487202 137.553234 
L 190.670769 118.030084 
L 190.822344 156.993478 
L 191.151447 137.247756 
L 191.561907 138.489615 
L 191.849546 92.579908 
L 192.07644 136.02539 
L 192.411581 147.806252 
L 192.740684 97.173059 
L 193.302719 137.807613 
L 193.486286 131.310467 
L 193.590358 123.545514 
L 194.000819 113.123596 
L 194.152394 130.717464 
L 194.227712 157.347839 
L 195.179596 75.27019 
L 195.227098 131.218943 
L 195.556201 99.208387 
L 195.741631 133.987349 
L 195.925197 109.735727 
L 196.152091 131.178019 
L 196.816335 99.284381 
L 196.967911 130.591889 
L 197.330868 97.839144 
L 197.66601 119.767919 
L 197.892904 148.631126 
L 197.995113 82.94792 
L 198.07647 131.530212 
L 199.255247 91.619428 
L 199.406822 131.510007 
L 199.817282 148.654179 
L 199.817282 127.395107 
L 199.817282 127.395107 
L 199.406822 126.283912 
L 199.255247 71.800543 
L 198.07647 130.108356 
L 197.995113 59.777962 
L 197.892904 126.973298 
L 197.66601 96.038254 
L 197.330868 92.144281 
L 196.967911 126.887172 
L 196.816335 95.801435 
L 196.152091 130.053461 
L 195.925197 97.157443 
L 195.741631 104.736327 
L 195.556201 92.786822 
L 195.227098 128.808858 
L 195.179596 60.11366 
L 194.227712 129.878692 
L 194.152394 126.793229 
L 194.000819 99.715877 
L 193.590358 99.672505 
L 193.486286 128.395532 
L 193.302719 127.688668 
L 192.740684 94.423168 
L 192.411581 128.119522 
L 192.07644 100.172049 
L 191.849546 70.80337 
L 191.561907 128.463804 
L 191.151447 127.709246 
L 190.822344 126.907352 
L 190.670769 85.793218 
L 190.487202 127.658177 
L 189.925167 81.07218 
L 189.637528 128.104301 
L 189.410634 101.434378 
L 189.081532 127.33007 
L 188.74639 129.044911 
L 188.712535 127.572274 
L 188.33593 102.219765 
L 187.773895 61.992288 
L 187.486255 105.927297 
L 187.340719 126.134148 
L 187.157153 127.394772 
L 186.971723 127.220478 
L 186.822011 128.766696 
L 186.746693 127.713185 
L 186.595117 90.582207 
L 185.897018 128.13742 
L 185.41634 129.246055 
L 185.334983 78.583671 
L 185.047344 127.498365 
L 185.00588 129.231521 
L 184.670739 98.775718 
L 184.156206 128.294138 
L 183.491961 128.737487 
L 183.265068 102.837859 
L 183.081501 128.992104 
L 182.896071 105.423309 
L 182.566969 127.018208 
L 182.519466 70.878676 
L 182.231827 129.507986 
L 181.492264 128.202243 
L 181.340689 116.711732 
L 180.930229 99.178093 
L 180.826156 126.959551 
L 180.45716 128.00679 
L 180.080554 98.264962 
L 179.751452 130.248205 
L 179.41631 130.484209 
L 179.189416 84.328422 
L 178.901777 127.186558 
L 178.491317 128.885288 
L 178.010639 129.018426 
L 177.827073 128.850933 
L 177.641643 128.387539 
L 177.265037 96.805833 
L 176.750505 113.017892 
L 176.421402 123.457478 
L 176.08626 130.731501 
L 175.6758 129.585378 
L 175.113765 70.147668 
L 174.826126 129.106017 
L 174.68059 123.444081 
L 174.311593 126.652886 
L 174.161881 125.481648 
L 174.086563 124.538956 
L 173.934988 104.034651 
L 173.236889 126.18192 
L 172.756211 126.750327 
L 172.674853 95.772375 
L 172.345751 128.060126 
L 172.010609 122.037189 
L 171.496076 130.176906 
L 170.604938 110.55184 
L 170.421372 127.134127 
L 170.235942 124.230353 
L 169.859336 84.68221 
L 169.571697 127.836814 
L 168.680559 129.955361 
L 168.270099 126.23994 
L 168.166026 123.868665 
L 167.420425 107.232202 
L 167.091322 123.496456 
L 166.75618 126.968295 
L 166.529287 102.828958 
L 165.831187 121.916701 
L 165.350509 125.027573 
L 164.981513 125.201152 
L 164.604908 106.718644 
L 164.090375 124.207739 
L 163.426131 124.067301 
L 163.015671 124.912777 
L 162.453635 79.465607 
L 162.165996 125.311141 
L 162.02046 124.247609 
L 161.274858 111.283743 
L 160.014724 99.905557 
L 159.685621 116.062245 
L 159.350479 127.965117 
L 158.835946 120.542033 
L 157.944808 117.244331 
L 157.761242 112.69616 
L 157.575812 124.673975 
L 157.199207 97.216351 
L 156.020429 119.851346 
L 155.609969 115.004903 
L 154.760295 117.043682 
L 154.096051 113.52099 
L 153.869157 101.131383 
L 152.69038 112.668713 
L 151.944778 110.346043 
L 151.430245 110.302599 
L 150.355541 110.862548 
L 149.793505 89.703727 
L 149.505866 107.173985 
L 148.614728 114.118484 
L 147.354594 106.544778 
L 146.690349 109.227154 
L 145.284679 104.873604 
L 144.915682 122.008455 
L 144.539077 102.062683 
L 143.3603 108.437948 
L 142.94984 106.161483 
L 142.100165 111.600267 
L 141.209027 101.873827 
L 139.284648 108.017316 
L 138.770116 114.25333 
L 137.133376 97.748575 
L 135.954599 108.013091 
L 134.694464 108.981755 
L 134.03022 104.576045 
L 132.624549 105.764652 
L 131.878947 104.186437 
L 129.440036 105.998727 
L 128.548898 105.883199 
L 126.624519 106.854906 
L 124.473246 99.432514 
L 123.294469 105.728037 
L 122.034334 105.678381 
L 119.218818 106.579762 
L 115.888768 106.231038 
L 113.964389 106.192302 
L 111.813116 101.742467 
L 109.374205 105.351579 
L 106.558688 107.060745 
L 103.228638 106.033814 
L 99.152987 106.94275 
L 93.898558 107.409397 
L 86.492857 107.64298 
L 73.832727 107.985551 
z
" clip-path="url(#p44fa62c13e)" style="fill: #1f77b4; fill-opacity: 0.2; stroke: #1f77b4; stroke-opacity: 0.2"/>
    <path d="M 200.146385 96.163665 
L 200.146385 98.218291 
L 200.434024 73.66368 
L 200.99606 99.164844 
L 201.40652 98.873023 
L 201.558095 157.375268 
L 202.070764 99.058936 
L 202.585297 85.909708 
L 202.961902 99.252557 
L 203.330899 99.469063 
L 203.811577 99.310953 
L 204.509676 82.509617 
L 204.736569 99.481867 
L 205.071711 100.033962 
L 205.400814 88.591936 
L 206.146416 98.194534 
L 206.250488 99.908591 
L 206.660948 99.465064 
L 207.552086 100.011719 
L 207.839725 67.449954 
L 208.216331 100.239095 
L 208.401761 99.689933 
L 208.585327 98.81008 
L 209.476465 100.021425 
L 209.990998 99.414787 
L 210.32614 99.710502 
L 210.655242 78.449523 
L 210.7366 100.014851 
L 211.217278 100.151681 
L 211.915377 82.073748 
L 211.915377 64.328624 
L 211.915377 64.328624 
L 211.217278 95.174977 
L 210.7366 96.745023 
L 210.655242 56.499203 
L 210.32614 96.433018 
L 209.990998 81.918051 
L 209.476465 98.733396 
L 208.585327 67.549429 
L 208.401761 95.579126 
L 208.216331 99.863988 
L 207.839725 54.559021 
L 207.552086 95.473724 
L 206.660948 97.481438 
L 206.250488 97.965362 
L 206.146416 97.074513 
L 205.400814 62.409415 
L 205.071711 99.178975 
L 204.736569 96.844385 
L 204.509676 63.052507 
L 203.811577 96.107957 
L 203.330899 97.251263 
L 202.961902 98.328231 
L 202.585297 65.68994 
L 202.070764 95.06809 
L 201.558095 125.976494 
L 201.40652 92.009901 
L 200.99606 98.159967 
L 200.434024 54.880935 
L 200.146385 96.163665 
z
" clip-path="url(#p44fa62c13e)" style="fill: #1f77b4; fill-opacity: 0.2; stroke: #1f77b4; stroke-opacity: 0.2"/>
    <path d="M 212.142271 96.142224 
L 212.142271 99.95491 
L 212.291982 100.605822 
L 212.660979 100.244921 
L 212.806515 100.196304 
L 213.094154 72.284404 
L 213.656189 99.792108 
L 214.066649 99.924678 
L 214.401791 99.591154 
L 214.730894 92.685847 
L 215.245427 75.267701 
L 215.622032 100.666857 
L 215.807462 99.87226 
L 215.991028 100.047596 
L 216.471706 100.662563 
L 216.882166 100.475261 
L 217.169805 74.620891 
L 217.396699 100.166553 
L 217.731841 99.901171 
L 218.060943 74.183207 
L 218.060943 57.322178 
L 218.060943 57.322178 
L 217.731841 98.360015 
L 217.396699 98.248725 
L 217.169805 58.029204 
L 216.882166 99.290435 
L 216.471706 98.675265 
L 215.991028 97.387561 
L 215.807462 96.698825 
L 215.622032 99.562636 
L 215.245427 58.809637 
L 214.730894 69.871047 
L 214.401791 98.591455 
L 214.066649 97.320112 
L 213.656189 98.509256 
L 213.094154 53.568 
L 212.806515 97.525651 
L 212.660979 98.649786 
L 212.291982 100.459 
L 212.142271 96.142224 
z
" clip-path="url(#p44fa62c13e)" style="fill: #1f77b4; fill-opacity: 0.2; stroke: #1f77b4; stroke-opacity: 0.2"/>
    <path d="M 218.806545 98.692866 
L 218.806545 100.793901 
L 218.910618 100.615835 
L 219.321078 100.117567 
L 219.321078 72.657103 
L 219.321078 72.657103 
L 218.910618 59.773673 
L 218.806545 98.692866 
z
" clip-path="url(#p44fa62c13e)" style="fill: #1f77b4; fill-opacity: 0.2; stroke: #1f77b4; stroke-opacity: 0.2"/>
    <path d="M 220.212216 97.197269 
L 220.212216 100.01801 
L 220.499855 66.042468 
L 220.547358 100.931773 
L 220.87646 99.03679 
L 221.06189 101.095783 
L 221.245457 90.961568 
L 221.472351 100.840594 
L 222.136595 100.725911 
L 222.651128 82.457068 
L 222.986269 101.098231 
L 223.027733 99.353521 
L 223.315372 76.134575 
L 223.396729 99.015626 
L 223.877407 101.142991 
L 224.575507 69.801831 
L 224.575507 58.455692 
L 224.575507 58.455692 
L 223.877407 99.264542 
L 223.396729 96.794391 
L 223.315372 57.506779 
L 223.027733 96.776043 
L 222.986269 100.647085 
L 222.651128 58.449421 
L 222.136595 98.529349 
L 221.472351 98.858469 
L 221.245457 60.083759 
L 221.06189 100.537448 
L 220.87646 63.437642 
L 220.547358 99.123702 
L 220.499855 56.236175 
L 220.212216 97.197269 
z
" clip-path="url(#p44fa62c13e)" style="fill: #1f77b4; fill-opacity: 0.2; stroke: #1f77b4; stroke-opacity: 0.2"/>
    <path d="M 224.8024 95.625333 
L 224.8024 99.203318 
L 224.952112 99.141453 
L 225.137542 100.909649 
L 225.137542 96.381159 
L 225.137542 96.381159 
L 224.952112 98.662372 
L 224.8024 95.625333 
z
" clip-path="url(#p44fa62c13e)" style="fill: #1f77b4; fill-opacity: 0.2; stroke: #1f77b4; stroke-opacity: 0.2"/>
    <path d="M 225.466645 65.580563 
L 225.466645 99.080652 
L 225.754284 89.023548 
L 226.316319 89.928798 
L 226.692924 98.733104 
L 226.726779 99.125809 
L 227.061921 101.117179 
L 227.391023 86.915316 
L 227.617917 101.340281 
L 227.905556 75.449261 
L 228.467592 100.824864 
L 228.651158 86.318275 
L 228.651158 61.064638 
L 228.651158 61.064638 
L 228.467592 99.825226 
L 227.905556 62.581295 
L 227.617917 96.682327 
L 227.391023 59.372232 
L 227.061921 99.169534 
L 226.726779 97.766718 
L 226.692924 98.3868 
L 226.316319 58.466737 
L 225.754284 61.058789 
L 225.466645 65.580563 
z
" clip-path="url(#p44fa62c13e)" style="fill: #1f77b4; fill-opacity: 0.2; stroke: #1f77b4; stroke-opacity: 0.2"/>
    <path d="M 229.131836 98.367143 
L 229.131836 101.456896 
L 229.542296 101.339715 
L 229.829935 76.124152 
L 230.056829 97.917144 
L 230.39197 101.106569 
L 230.721073 68.860155 
L 231.283108 100.943179 
L 231.283108 98.622731 
L 231.283108 98.622731 
L 230.721073 57.347141 
L 230.39197 99.173679 
L 230.056829 68.403607 
L 229.829935 63.076933 
L 229.542296 98.559293 
L 229.131836 98.367143 
z
" clip-path="url(#p44fa62c13e)" style="fill: #1f77b4; fill-opacity: 0.2; stroke: #1f77b4; stroke-opacity: 0.2"/>
    <path d="M 231.570748 61.642057 
L 231.570748 88.16693 
L 231.981208 76.594459 
L 231.981208 63.653652 
L 231.981208 63.653652 
L 231.570748 61.642057 
z
" clip-path="url(#p44fa62c13e)" style="fill: #1f77b4; fill-opacity: 0.2; stroke: #1f77b4; stroke-opacity: 0.2"/>
    <path d="M 233.159985 63.758874 
L 233.159985 71.528861 
L 233.207487 100.828137 
L 233.53659 95.400886 
L 233.72202 100.853341 
L 233.905587 74.550551 
L 234.13248 100.864079 
L 234.796725 66.522694 
L 234.796725 60.004664 
L 234.796725 60.004664 
L 234.13248 98.206835 
L 233.905587 61.733322 
L 233.72202 69.278664 
L 233.53659 55.489664 
L 233.207487 98.880111 
L 233.159985 63.758874 
z
" clip-path="url(#p44fa62c13e)" style="fill: #1f77b4; fill-opacity: 0.2; stroke: #1f77b4; stroke-opacity: 0.2"/>
    <path d="M 235.311257 61.914497 
L 235.311257 65.386464 
L 235.646399 84.663092 
L 235.873293 100.90453 
L 235.975502 67.848544 
L 235.975502 60.177445 
L 235.975502 60.177445 
L 235.873293 96.944882 
L 235.646399 61.266067 
L 235.311257 61.914497 
z
" clip-path="url(#p44fa62c13e)" style="fill: #1f77b4; fill-opacity: 0.2; stroke: #1f77b4; stroke-opacity: 0.2"/>
    <path d="M 237.235636 64.562549 
L 237.235636 67.446808 
L 237.235636 64.562549 
L 237.235636 64.562549 
z
" clip-path="url(#p44fa62c13e)" style="fill: #1f77b4; fill-opacity: 0.2; stroke: #1f77b4; stroke-opacity: 0.2"/>
    <path d="M 237.797672 97.326898 
L 237.797672 100.985069 
L 237.797672 97.326898 
L 237.797672 97.326898 
z
" clip-path="url(#p44fa62c13e)" style="fill: #1f77b4; fill-opacity: 0.2; stroke: #1f77b4; stroke-opacity: 0.2"/>
    <path d="M 238.126774 61.635024 
L 238.126774 66.489131 
L 238.414413 149.85906 
L 238.976449 68.101491 
L 239.386909 68.564055 
L 239.386909 67.146912 
L 239.386909 67.146912 
L 238.976449 64.067259 
L 238.414413 73.998553 
L 238.126774 61.635024 
z
" clip-path="url(#p44fa62c13e)" style="fill: #1f77b4; fill-opacity: 0.2; stroke: #1f77b4; stroke-opacity: 0.2"/>
    <path d="M 240.051153 63.833671 
L 240.051153 68.087237 
L 240.565686 68.761757 
L 240.942291 68.529294 
L 241.311288 67.976942 
L 241.791966 65.841695 
L 242.490065 69.632999 
L 242.716959 68.585148 
L 243.0521 70.361585 
L 243.381203 68.671581 
L 244.126805 69.28703 
L 244.230877 68.453201 
L 244.641337 68.573879 
L 245.532475 69.312459 
L 245.820115 125.022654 
L 245.820115 72.22588 
L 245.820115 72.22588 
L 245.532475 64.645843 
L 244.641337 66.368847 
L 244.230877 65.534303 
L 244.126805 69.04273 
L 243.381203 64.719802 
L 243.0521 67.574591 
L 242.716959 66.989195 
L 242.490065 67.219886 
L 241.791966 62.948611 
L 241.311288 65.890468 
L 240.942291 62.023329 
L 240.565686 65.613942 
L 240.051153 63.833671 
z
" clip-path="url(#p44fa62c13e)" style="fill: #1f77b4; fill-opacity: 0.2; stroke: #1f77b4; stroke-opacity: 0.2"/>
    <path d="M 246.38215 66.011748 
L 246.38215 68.78329 
L 246.565716 69.375299 
L 247.456854 68.4293 
L 247.971387 69.794492 
L 248.306529 69.88332 
L 248.635631 69.485133 
L 248.716989 69.060508 
L 249.197667 69.721377 
L 249.895766 69.328863 
L 249.895766 67.544175 
L 249.895766 67.544175 
L 249.197667 66.107754 
L 248.716989 68.96196 
L 248.635631 69.212868 
L 248.306529 67.23536 
L 247.971387 67.69201 
L 247.456854 66.162326 
L 246.565716 67.846925 
L 246.38215 66.011748 
z
" clip-path="url(#p44fa62c13e)" style="fill: #1f77b4; fill-opacity: 0.2; stroke: #1f77b4; stroke-opacity: 0.2"/>
    <path d="M 250.641368 69.282579 
L 250.641368 71.337636 
L 250.786904 68.64776 
L 251.074543 295.488 
L 251.636578 69.011183 
L 252.047039 69.37882 
L 252.38218 71.839437 
L 252.711283 69.408806 
L 253.225816 68.173368 
L 253.225816 67.209762 
L 253.225816 67.209762 
L 252.711283 68.674534 
L 252.38218 69.224842 
L 252.047039 67.625144 
L 251.636578 67.561259 
L 251.074543 104.149775 
L 250.786904 66.66375 
L 250.641368 69.282579 
z
" clip-path="url(#p44fa62c13e)" style="fill: #1f77b4; fill-opacity: 0.2; stroke: #1f77b4; stroke-opacity: 0.2"/>
    <path d="M 253.787851 69.446801 
L 253.787851 69.491349 
L 253.971417 69.527764 
L 254.452095 69.352104 
L 254.862555 69.739267 
L 255.150195 142.954249 
L 255.377088 70.432569 
L 255.71223 70.466993 
L 256.041333 67.603244 
L 256.786934 69.013341 
L 256.891007 68.804762 
L 257.301467 70.004395 
L 257.301467 68.115654 
L 257.301467 68.115654 
L 256.891007 68.583412 
L 256.786934 67.548055 
L 256.041333 67.420283 
L 255.71223 67.950046 
L 255.377088 67.389698 
L 255.150195 76.520929 
L 254.862555 68.859685 
L 254.452095 68.818113 
L 253.971417 68.01715 
L 253.787851 69.446801 
z
" clip-path="url(#p44fa62c13e)" style="fill: #1f77b4; fill-opacity: 0.2; stroke: #1f77b4; stroke-opacity: 0.2"/>
    <path d="M 258.192605 67.742844 
L 258.192605 68.473987 
L 258.480244 285.692363 
L 258.527747 71.522346 
L 259.04228 70.419045 
L 259.225846 69.674276 
L 259.225846 67.747352 
L 259.225846 67.747352 
L 259.04228 68.092856 
L 258.527747 68.887547 
L 258.480244 113.361813 
L 258.192605 67.742844 
z
" clip-path="url(#p44fa62c13e)" style="fill: #1f77b4; fill-opacity: 0.2; stroke: #1f77b4; stroke-opacity: 0.2"/>
    <path d="M 260.116984 67.875759 
L 260.116984 67.981078 
L 260.631517 68.934199 
L 260.966658 69.977343 
L 261.295761 251.496202 
L 261.377119 69.848446 
L 261.857796 68.055955 
L 262.555896 68.285071 
L 262.555896 68.112621 
L 262.555896 68.112621 
L 261.857796 67.862995 
L 261.377119 67.922689 
L 261.295761 248.829681 
L 260.966658 69.244167 
L 260.631517 67.940584 
L 260.116984 67.875759 
z
" clip-path="url(#p44fa62c13e)" style="fill: #1f77b4; fill-opacity: 0.2; stroke: #1f77b4; stroke-opacity: 0.2"/>
    <path d="M 263.117931 69.91585 
L 263.117931 69.952007 
L 263.117931 69.91585 
L 263.117931 69.91585 
z
" clip-path="url(#p44fa62c13e)" style="fill: #1f77b4; fill-opacity: 0.2; stroke: #1f77b4; stroke-opacity: 0.2"/>
    <path d="M 263.734673 259.107019 
L 263.734673 281.155925 
L 264.296708 68.178328 
L 264.707168 69.30144 
L 265.04231 70.171067 
L 265.885945 270.267807 
L 266.447981 68.296342 
L 266.447981 68.191628 
L 266.447981 68.191628 
L 265.885945 269.241906 
L 265.04231 70.027178 
L 264.707168 68.32693 
L 264.296708 67.811762 
L 263.734673 259.107019 
z
" clip-path="url(#p44fa62c13e)" style="fill: #1f77b4; fill-opacity: 0.2; stroke: #1f77b4; stroke-opacity: 0.2"/>
    <path d="M 267.810324 262.889241 
L 267.810324 264.403742 
L 268.37236 68.466514 
L 268.37236 68.43516 
L 268.37236 68.43516 
L 267.810324 262.889241 
z
" clip-path="url(#p44fa62c13e)" style="fill: #1f77b4; fill-opacity: 0.2; stroke: #1f77b4; stroke-opacity: 0.2"/>
    <path d="M 271.140374 257.056712 
L 271.140374 268.147906 
L 273.955891 252.593817 
L 275.216025 248.75191 
L 276.394803 271.79253 
L 278.546075 259.949967 
L 280.470454 252.354522 
L 281.361592 232.34004 
L 283.800504 253.381631 
L 284.546105 228.889417 
L 284.546105 224.511874 
L 284.546105 224.511874 
L 283.800504 236.615001 
L 281.361592 230.362267 
L 280.470454 236.549635 
L 278.546075 242.72182 
L 276.394803 250.472974 
L 275.216025 246.808313 
L 273.955891 250.239411 
L 271.140374 257.056712 
z
" clip-path="url(#p44fa62c13e)" style="fill: #1f77b4; fill-opacity: 0.2; stroke: #1f77b4; stroke-opacity: 0.2"/>
    <path d="M 286.616021 221.927055 
L 286.616021 240.580236 
L 287.876155 243.691454 
L 289.054932 264.83781 
L 290.691672 211.607403 
L 291.206205 240.626353 
L 293.130584 237.192062 
L 294.021722 234.023567 
L 294.871396 235.846063 
L 295.281856 232.193785 
L 296.460633 247.271547 
L 296.460633 225.739959 
L 296.460633 225.739959 
L 295.281856 230.11219 
L 294.871396 231.895589 
L 294.021722 210.576314 
L 293.130584 217.75316 
L 291.206205 228.714776 
L 290.691672 211.238979 
L 289.054932 235.026898 
L 287.876155 224.355527 
L 286.616021 221.927055 
z
" clip-path="url(#p44fa62c13e)" style="fill: #1f77b4; fill-opacity: 0.2; stroke: #1f77b4; stroke-opacity: 0.2"/>
    <path d="M 297.206235 223.503875 
L 297.206235 226.433486 
L 298.611906 222.661552 
L 299.27615 233.156606 
L 300.536285 219.468181 
L 301.427423 215.267009 
L 301.715062 256.827054 
L 302.277097 216.241909 
L 303.351802 213.145135 
L 303.866334 227.568514 
L 304.611936 207.951956 
L 305.790713 224.410822 
L 306.017607 206.971782 
L 306.681851 205.984038 
L 307.531526 203.630596 
L 307.941986 202.129004 
L 309.120763 241.936716 
L 309.120763 215.400494 
L 309.120763 215.400494 
L 307.941986 200.428047 
L 307.531526 202.495785 
L 306.681851 203.386655 
L 306.017607 205.423788 
L 305.790713 208.043985 
L 304.611936 206.826458 
L 303.866334 211.319704 
L 303.351802 212.088188 
L 302.277097 214.331804 
L 301.715062 223.628958 
L 301.427423 214.701779 
L 300.536285 217.388349 
L 299.27615 206.464831 
L 298.611906 220.548009 
L 297.206235 223.503875 
z
" clip-path="url(#p44fa62c13e)" style="fill: #1f77b4; fill-opacity: 0.2; stroke: #1f77b4; stroke-opacity: 0.2"/>
    <path d="M 309.682798 197.908678 
L 309.682798 200.172798 
L 309.866365 199.07018 
L 310.757503 200.584255 
L 311.272036 202.523199 
L 311.607177 199.628258 
L 311.93628 237.78139 
L 313.196414 210.062238 
L 313.196414 195.211185 
L 313.196414 195.211185 
L 311.93628 199.999008 
L 311.607177 196.070436 
L 311.272036 197.546258 
L 310.757503 198.263446 
L 309.866365 197.125656 
L 309.682798 197.908678 
z
" clip-path="url(#p44fa62c13e)" style="fill: #1f77b4; fill-opacity: 0.2; stroke: #1f77b4; stroke-opacity: 0.2"/>
    <path d="M 314.087553 189.263341 
L 314.087553 193.563037 
L 314.375192 250.053843 
L 314.937227 191.090111 
L 315.347687 189.665379 
L 316.011931 188.448578 
L 316.526464 223.484776 
L 316.526464 194.532158 
L 316.526464 194.532158 
L 316.011931 186.439356 
L 315.347687 186.766692 
L 314.937227 189.449281 
L 314.375192 211.702448 
L 314.087553 189.263341 
z
" clip-path="url(#p44fa62c13e)" style="fill: #1f77b4; fill-opacity: 0.2; stroke: #1f77b4; stroke-opacity: 0.2"/>
    <path d="M 317.272066 183.051416 
L 317.272066 185.951499 
L 317.752744 183.37753 
L 318.450843 214.458938 
L 318.677737 184.119214 
L 319.012878 183.150961 
L 319.341981 221.475824 
L 320.087583 177.483608 
L 320.191656 177.746474 
L 320.602116 180.942089 
L 321.493254 175.658663 
L 321.780893 240.62164 
L 321.780893 208.336468 
L 321.780893 208.336468 
L 321.493254 175.266234 
L 320.602116 175.788751 
L 320.191656 175.317574 
L 320.087583 176.847799 
L 319.341981 185.738314 
L 319.012878 180.097153 
L 318.677737 180.781454 
L 318.450843 186.705484 
L 317.752744 181.87511 
L 317.272066 183.051416 
z
" clip-path="url(#p44fa62c13e)" style="fill: #1f77b4; fill-opacity: 0.2; stroke: #1f77b4; stroke-opacity: 0.2"/>
    <path d="M 322.342928 172.846858 
L 322.342928 181.185229 
L 322.526495 192.648212 
L 323.417633 174.384683 
L 323.932165 203.718305 
L 324.267307 174.998781 
L 324.59641 232.933983 
L 324.59641 189.639083 
L 324.59641 189.639083 
L 324.267307 172.057426 
L 323.932165 173.21958 
L 323.417633 172.611418 
L 322.526495 172.144376 
L 322.342928 172.846858 
z
" clip-path="url(#p44fa62c13e)" style="fill: #1f77b4; fill-opacity: 0.2; stroke: #1f77b4; stroke-opacity: 0.2"/>
    <path d="M 325.158445 172.297068 
L 325.158445 174.653789 
L 325.856544 215.327909 
L 325.856544 181.462123 
L 325.856544 181.462123 
L 325.158445 172.297068 
z
" clip-path="url(#p44fa62c13e)" style="fill: #1f77b4; fill-opacity: 0.2; stroke: #1f77b4; stroke-opacity: 0.2"/>
    <path d="M 326.747682 170.637986 
L 326.747682 170.65226 
L 327.035321 253.361289 
L 327.597357 170.84959 
L 328.007817 179.018684 
L 328.007817 165.74319 
L 328.007817 165.74319 
L 327.597357 168.376918 
L 327.035321 206.571067 
L 326.747682 170.637986 
z
" clip-path="url(#p44fa62c13e)" style="fill: #1f77b4; fill-opacity: 0.2; stroke: #1f77b4; stroke-opacity: 0.2"/>
    <path d="M 328.672061 166.348365 
L 328.672061 198.957439 
L 329.186594 239.566406 
L 329.748629 164.492637 
L 329.932196 167.825757 
L 330.412874 163.791192 
L 330.412874 162.900111 
L 330.412874 162.900111 
L 329.932196 162.997867 
L 329.748629 162.668936 
L 329.186594 190.699969 
L 328.672061 166.348365 
z
" clip-path="url(#p44fa62c13e)" style="fill: #1f77b4; fill-opacity: 0.2; stroke: #1f77b4; stroke-opacity: 0.2"/>
    <path d="M 331.110973 185.009281 
L 331.110973 228.619118 
L 331.110973 185.009281 
L 331.110973 185.009281 
z
" clip-path="url(#p44fa62c13e)" style="fill: #1f77b4; fill-opacity: 0.2; stroke: #1f77b4; stroke-opacity: 0.2"/>
    <path d="M 331.673008 162.639911 
L 331.673008 175.689133 
L 332.002111 233.627654 
L 332.002111 211.820599 
L 332.002111 211.820599 
L 331.673008 162.639911 
z
" clip-path="url(#p44fa62c13e)" style="fill: #1f77b4; fill-opacity: 0.2; stroke: #1f77b4; stroke-opacity: 0.2"/>
    <path d="M 332.851785 160.778111 
L 332.851785 232.68433 
L 333.262245 231.978682 
L 333.262245 158.450392 
L 333.262245 158.450392 
L 332.851785 160.778111 
z
" clip-path="url(#p44fa62c13e)" style="fill: #1f77b4; fill-opacity: 0.2; stroke: #1f77b4; stroke-opacity: 0.2"/>
    <path d="M 334.441022 216.715329 
L 334.441022 230.792349 
L 334.441022 216.715329 
L 334.441022 216.715329 
z
" clip-path="url(#p44fa62c13e)" style="fill: #1f77b4; fill-opacity: 0.2; stroke: #1f77b4; stroke-opacity: 0.2"/>
    <path d="M 335.003058 157.213887 
L 335.003058 160.737921 
L 335.186624 228.695375 
L 336.592295 223.036209 
L 336.927437 154.395357 
L 337.256539 223.456746 
L 338.516674 219.299176 
L 338.516674 217.560184 
L 338.516674 217.560184 
L 337.256539 199.8224 
L 336.927437 153.627281 
L 336.592295 221.0611 
L 335.186624 155.527832 
L 335.003058 157.213887 
z
" clip-path="url(#p44fa62c13e)" style="fill: #1f77b4; fill-opacity: 0.2; stroke: #1f77b4; stroke-opacity: 0.2"/>
    <path d="M 339.407812 215.755438 
L 339.407812 216.976646 
L 339.695451 238.610064 
L 340.257486 215.75599 
L 341.332191 210.913267 
L 341.846724 211.820039 
L 341.846724 209.662856 
L 341.846724 209.662856 
L 341.332191 209.989383 
L 340.257486 213.314236 
L 339.695451 209.706091 
L 339.407812 215.755438 
z
" clip-path="url(#p44fa62c13e)" style="fill: #1f77b4; fill-opacity: 0.2; stroke: #1f77b4; stroke-opacity: 0.2"/>
    <path d="M 343.771102 205.561825 
L 343.771102 207.877758 
L 343.997996 208.187028 
L 344.66224 204.488185 
L 345.511915 203.921857 
L 345.922375 202.314266 
L 347.101152 218.348356 
L 347.101152 200.543347 
L 347.101152 200.543347 
L 345.922375 200.614452 
L 345.511915 202.077748 
L 344.66224 203.042911 
L 343.997996 202.370375 
L 343.771102 205.561825 
z
" clip-path="url(#p44fa62c13e)" style="fill: #1f77b4; fill-opacity: 0.2; stroke: #1f77b4; stroke-opacity: 0.2"/>
    <path d="M 347.663187 195.259806 
L 347.663187 199.263416 
L 347.846754 201.225782 
L 348.737892 197.84467 
L 349.252425 198.226251 
L 349.587566 197.028225 
L 349.916669 225.009023 
L 351.176804 206.684476 
L 352.067942 193.721549 
L 352.355581 236.559045 
L 352.917616 191.260782 
L 353.328076 189.478921 
L 353.992321 190.49853 
L 354.506853 216.233033 
L 354.506853 189.405322 
L 354.506853 189.405322 
L 353.992321 187.097256 
L 353.328076 189.369617 
L 352.917616 188.383272 
L 352.355581 196.991515 
L 352.067942 191.411545 
L 351.176804 193.698854 
L 349.916669 201.193662 
L 349.587566 195.816864 
L 349.252425 195.647959 
L 348.737892 197.54279 
L 347.846754 196.403388 
L 347.663187 195.259806 
z
" clip-path="url(#p44fa62c13e)" style="fill: #1f77b4; fill-opacity: 0.2; stroke: #1f77b4; stroke-opacity: 0.2"/>
    <path d="M 355.252455 182.880769 
L 355.252455 184.086146 
L 355.733133 181.787255 
L 356.431232 203.010897 
L 356.658126 184.908258 
L 356.993267 182.819603 
L 357.32237 202.804555 
L 358.172045 178.619455 
L 358.582505 180.196979 
L 359.473643 175.565591 
L 359.761282 223.384409 
L 360.323317 173.924382 
L 360.506884 173.626191 
L 361.398022 174.541997 
L 361.912554 175.340146 
L 362.247696 177.085897 
L 362.576799 234.021569 
L 363.138834 171.072482 
L 363.836933 211.234901 
L 363.836933 171.483512 
L 363.836933 171.483512 
L 363.138834 169.40553 
L 362.576799 203.448341 
L 362.247696 171.954916 
L 361.912554 171.128672 
L 361.398022 172.197632 
L 360.506884 172.261366 
L 360.323317 172.320565 
L 359.761282 189.605676 
L 359.473643 174.914405 
L 358.582505 176.703984 
L 358.172045 176.851789 
L 357.32237 177.473286 
L 356.993267 179.409534 
L 356.658126 179.312435 
L 356.431232 181.707464 
L 355.733133 181.337284 
L 355.252455 182.880769 
z
" clip-path="url(#p44fa62c13e)" style="fill: #1f77b4; fill-opacity: 0.2; stroke: #1f77b4; stroke-opacity: 0.2"/>
    <path d="M 365.01571 197.751479 
L 365.01571 227.744242 
L 365.577746 169.925772 
L 365.988206 168.475644 
L 365.988206 168.130024 
L 365.988206 168.130024 
L 365.577746 167.568837 
L 365.01571 197.751479 
z
" clip-path="url(#p44fa62c13e)" style="fill: #1f77b4; fill-opacity: 0.2; stroke: #1f77b4; stroke-opacity: 0.2"/>
    <path d="M 367.166983 221.979169 
L 367.166983 222.326564 
L 367.729018 164.960054 
L 367.729018 163.668667 
L 367.729018 163.668667 
L 367.166983 221.979169 
z
" clip-path="url(#p44fa62c13e)" style="fill: #1f77b4; fill-opacity: 0.2; stroke: #1f77b4; stroke-opacity: 0.2"/>
    <path d="M 369.091362 188.187311 
L 369.091362 218.341749 
L 369.653397 162.422448 
L 369.9825 216.820311 
L 369.9825 215.659109 
L 369.9825 215.659109 
L 369.653397 161.044952 
L 369.091362 188.187311 
z
" clip-path="url(#p44fa62c13e)" style="fill: #1f77b4; fill-opacity: 0.2; stroke: #1f77b4; stroke-opacity: 0.2"/>
    <path d="M 371.242634 211.807155 
L 371.242634 213.01601 
L 371.242634 211.807155 
L 371.242634 211.807155 
z
" clip-path="url(#p44fa62c13e)" style="fill: #1f77b4; fill-opacity: 0.2; stroke: #1f77b4; stroke-opacity: 0.2"/>
    <path d="M 372.421412 187.359986 
L 372.421412 210.270605 
L 372.421412 187.359986 
L 372.421412 187.359986 
z
" clip-path="url(#p44fa62c13e)" style="fill: #1f77b4; fill-opacity: 0.2; stroke: #1f77b4; stroke-opacity: 0.2"/>
    <path d="M 374.572684 204.729133 
L 374.572684 206.028727 
L 375.236928 203.907227 
L 376.497063 200.843781 
L 376.497063 200.763122 
L 376.497063 200.763122 
L 375.236928 203.661693 
L 374.572684 204.729133 
z
" clip-path="url(#p44fa62c13e)" style="fill: #1f77b4; fill-opacity: 0.2; stroke: #1f77b4; stroke-opacity: 0.2"/>
    <path d="M 377.67584 197.888294 
L 377.67584 198.04359 
L 377.67584 197.888294 
L 377.67584 197.888294 
z
" clip-path="url(#p44fa62c13e)" style="fill: #1f77b4; fill-opacity: 0.2; stroke: #1f77b4; stroke-opacity: 0.2"/>
    <path d="M 379.31258 193.556087 
L 379.31258 193.676411 
L 379.827113 193.728391 
L 379.827113 193.193636 
L 379.827113 193.193636 
L 379.31258 193.556087 
z
" clip-path="url(#p44fa62c13e)" style="fill: #1f77b4; fill-opacity: 0.2; stroke: #1f77b4; stroke-opacity: 0.2"/>
    <path d="M 382.64263 186.352502 
L 382.64263 187.130667 
L 383.902764 184.435249 
L 385.081541 181.295514 
L 385.081541 180.967561 
L 385.081541 180.967561 
L 383.902764 183.236844 
L 382.64263 186.352502 
z
" clip-path="url(#p44fa62c13e)" style="fill: #1f77b4; fill-opacity: 0.2; stroke: #1f77b4; stroke-opacity: 0.2"/>
    <path d="M 385.827143 179.363952 
L 385.827143 182.776672 
L 386.718281 179.621449 
L 387.232814 179.422152 
L 387.897058 178.293512 
L 389.157193 175.171875 
L 390.048331 173.624388 
L 390.048331 172.925875 
L 390.048331 172.925875 
L 389.157193 174.67319 
L 387.897058 177.873148 
L 387.232814 179.110794 
L 386.718281 176.700154 
L 385.827143 179.363952 
z
" clip-path="url(#p44fa62c13e)" style="fill: #1f77b4; fill-opacity: 0.2; stroke: #1f77b4; stroke-opacity: 0.2"/>
    <path d="M 390.898005 171.149911 
L 390.898005 171.426231 
L 390.898005 171.149911 
L 390.898005 171.149911 
z
" clip-path="url(#p44fa62c13e)" style="fill: #1f77b4; fill-opacity: 0.2; stroke: #1f77b4; stroke-opacity: 0.2"/>
    <path d="M 398.303706 153.423841 
L 398.303706 153.911617 
L 398.303706 153.423841 
L 398.303706 153.423841 
z
" clip-path="url(#p44fa62c13e)" style="fill: #1f77b4; fill-opacity: 0.2; stroke: #1f77b4; stroke-opacity: 0.2"/>
   </g>
   <g id="matplotlib.axis_1">
    <g id="xtick_1">
     <g id="line2d_1">
      <defs>
       <path id="m5801b5906e" d="M 0 0 
L 0 3.5 
" style="stroke: #000000; stroke-width: 0.8"/>
      </defs>
      <g>
       <use xlink:href="#m5801b5906e" x="86.059682" y="307.584" style="stroke: #000000; stroke-width: 0.8"/>
      </g>
     </g>
     <g id="text_1">
      <!-- $\mathdefault{10^{3}}$ -->
      <g transform="translate(77.259682 322.182437)scale(0.1 -0.1)">
       <defs>
        <path id="DejaVuSans-31" d="M 794 531 
L 1825 531 
L 1825 4091 
L 703 3866 
L 703 4441 
L 1819 4666 
L 2450 4666 
L 2450 531 
L 3481 531 
L 3481 0 
L 794 0 
L 794 531 
z
" transform="scale(0.015625)"/>
        <path id="DejaVuSans-30" d="M 2034 4250 
Q 1547 4250 1301 3770 
Q 1056 3291 1056 2328 
Q 1056 1369 1301 889 
Q 1547 409 2034 409 
Q 2525 409 2770 889 
Q 3016 1369 3016 2328 
Q 3016 3291 2770 3770 
Q 2525 4250 2034 4250 
z
M 2034 4750 
Q 2819 4750 3233 4129 
Q 3647 3509 3647 2328 
Q 3647 1150 3233 529 
Q 2819 -91 2034 -91 
Q 1250 -91 836 529 
Q 422 1150 422 2328 
Q 422 3509 836 4129 
Q 1250 4750 2034 4750 
z
" transform="scale(0.015625)"/>
        <path id="DejaVuSans-33" d="M 2597 2516 
Q 3050 2419 3304 2112 
Q 3559 1806 3559 1356 
Q 3559 666 3084 287 
Q 2609 -91 1734 -91 
Q 1441 -91 1130 -33 
Q 819 25 488 141 
L 488 750 
Q 750 597 1062 519 
Q 1375 441 1716 441 
Q 2309 441 2620 675 
Q 2931 909 2931 1356 
Q 2931 1769 2642 2001 
Q 2353 2234 1838 2234 
L 1294 2234 
L 1294 2753 
L 1863 2753 
Q 2328 2753 2575 2939 
Q 2822 3125 2822 3475 
Q 2822 3834 2567 4026 
Q 2313 4219 1838 4219 
Q 1578 4219 1281 4162 
Q 984 4106 628 3988 
L 628 4550 
Q 988 4650 1302 4700 
Q 1616 4750 1894 4750 
Q 2613 4750 3031 4423 
Q 3450 4097 3450 3541 
Q 3450 3153 3228 2886 
Q 3006 2619 2597 2516 
z
" transform="scale(0.015625)"/>
       </defs>
       <use xlink:href="#DejaVuSans-31" transform="translate(0 0.765625)"/>
       <use xlink:href="#DejaVuSans-30" transform="translate(63.623047 0.765625)"/>
       <use xlink:href="#DejaVuSans-33" transform="translate(128.203125 39.046875)scale(0.7)"/>
      </g>
     </g>
    </g>
    <g id="xtick_2">
     <g id="line2d_2">
      <g>
       <use xlink:href="#m5801b5906e" x="128.115722" y="307.584" style="stroke: #000000; stroke-width: 0.8"/>
      </g>
     </g>
     <g id="text_2">
      <!-- $\mathdefault{10^{4}}$ -->
      <g transform="translate(119.315722 322.182437)scale(0.1 -0.1)">
       <defs>
        <path id="DejaVuSans-34" d="M 2419 4116 
L 825 1625 
L 2419 1625 
L 2419 4116 
z
M 2253 4666 
L 3047 4666 
L 3047 1625 
L 3713 1625 
L 3713 1100 
L 3047 1100 
L 3047 0 
L 2419 0 
L 2419 1100 
L 313 1100 
L 313 1709 
L 2253 4666 
z
" transform="scale(0.015625)"/>
       </defs>
       <use xlink:href="#DejaVuSans-31" transform="translate(0 0.684375)"/>
       <use xlink:href="#DejaVuSans-30" transform="translate(63.623047 0.684375)"/>
       <use xlink:href="#DejaVuSans-34" transform="translate(128.203125 38.965625)scale(0.7)"/>
      </g>
     </g>
    </g>
    <g id="xtick_3">
     <g id="line2d_3">
      <g>
       <use xlink:href="#m5801b5906e" x="170.171763" y="307.584" style="stroke: #000000; stroke-width: 0.8"/>
      </g>
     </g>
     <g id="text_3">
      <!-- $\mathdefault{10^{5}}$ -->
      <g transform="translate(161.371763 322.182437)scale(0.1 -0.1)">
       <defs>
        <path id="DejaVuSans-35" d="M 691 4666 
L 3169 4666 
L 3169 4134 
L 1269 4134 
L 1269 2991 
Q 1406 3038 1543 3061 
Q 1681 3084 1819 3084 
Q 2600 3084 3056 2656 
Q 3513 2228 3513 1497 
Q 3513 744 3044 326 
Q 2575 -91 1722 -91 
Q 1428 -91 1123 -41 
Q 819 9 494 109 
L 494 744 
Q 775 591 1075 516 
Q 1375 441 1709 441 
Q 2250 441 2565 725 
Q 2881 1009 2881 1497 
Q 2881 1984 2565 2268 
Q 2250 2553 1709 2553 
Q 1456 2553 1204 2497 
Q 953 2441 691 2322 
L 691 4666 
z
" transform="scale(0.015625)"/>
       </defs>
       <use xlink:href="#DejaVuSans-31" transform="translate(0 0.684375)"/>
       <use xlink:href="#DejaVuSans-30" transform="translate(63.623047 0.684375)"/>
       <use xlink:href="#DejaVuSans-35" transform="translate(128.203125 38.965625)scale(0.7)"/>
      </g>
     </g>
    </g>
    <g id="xtick_4">
     <g id="line2d_4">
      <g>
       <use xlink:href="#m5801b5906e" x="212.227803" y="307.584" style="stroke: #000000; stroke-width: 0.8"/>
      </g>
     </g>
     <g id="text_4">
      <!-- $\mathdefault{10^{6}}$ -->
      <g transform="translate(203.427803 322.182437)scale(0.1 -0.1)">
       <defs>
        <path id="DejaVuSans-36" d="M 2113 2584 
Q 1688 2584 1439 2293 
Q 1191 2003 1191 1497 
Q 1191 994 1439 701 
Q 1688 409 2113 409 
Q 2538 409 2786 701 
Q 3034 994 3034 1497 
Q 3034 2003 2786 2293 
Q 2538 2584 2113 2584 
z
M 3366 4563 
L 3366 3988 
Q 3128 4100 2886 4159 
Q 2644 4219 2406 4219 
Q 1781 4219 1451 3797 
Q 1122 3375 1075 2522 
Q 1259 2794 1537 2939 
Q 1816 3084 2150 3084 
Q 2853 3084 3261 2657 
Q 3669 2231 3669 1497 
Q 3669 778 3244 343 
Q 2819 -91 2113 -91 
Q 1303 -91 875 529 
Q 447 1150 447 2328 
Q 447 3434 972 4092 
Q 1497 4750 2381 4750 
Q 2619 4750 2861 4703 
Q 3103 4656 3366 4563 
z
" transform="scale(0.015625)"/>
       </defs>
       <use xlink:href="#DejaVuSans-31" transform="translate(0 0.765625)"/>
       <use xlink:href="#DejaVuSans-30" transform="translate(63.623047 0.765625)"/>
       <use xlink:href="#DejaVuSans-36" transform="translate(128.203125 39.046875)scale(0.7)"/>
      </g>
     </g>
    </g>
    <g id="xtick_5">
     <g id="line2d_5">
      <g>
       <use xlink:href="#m5801b5906e" x="254.283844" y="307.584" style="stroke: #000000; stroke-width: 0.8"/>
      </g>
     </g>
     <g id="text_5">
      <!-- $\mathdefault{10^{7}}$ -->
      <g transform="translate(245.483844 322.182437)scale(0.1 -0.1)">
       <defs>
        <path id="DejaVuSans-37" d="M 525 4666 
L 3525 4666 
L 3525 4397 
L 1831 0 
L 1172 0 
L 2766 4134 
L 525 4134 
L 525 4666 
z
" transform="scale(0.015625)"/>
       </defs>
       <use xlink:href="#DejaVuSans-31" transform="translate(0 0.684375)"/>
       <use xlink:href="#DejaVuSans-30" transform="translate(63.623047 0.684375)"/>
       <use xlink:href="#DejaVuSans-37" transform="translate(128.203125 38.965625)scale(0.7)"/>
      </g>
     </g>
    </g>
    <g id="xtick_6">
     <g id="line2d_6">
      <g>
       <use xlink:href="#m5801b5906e" x="296.339884" y="307.584" style="stroke: #000000; stroke-width: 0.8"/>
      </g>
     </g>
     <g id="text_6">
      <!-- $\mathdefault{10^{8}}$ -->
      <g transform="translate(287.539884 322.182437)scale(0.1 -0.1)">
       <defs>
        <path id="DejaVuSans-38" d="M 2034 2216 
Q 1584 2216 1326 1975 
Q 1069 1734 1069 1313 
Q 1069 891 1326 650 
Q 1584 409 2034 409 
Q 2484 409 2743 651 
Q 3003 894 3003 1313 
Q 3003 1734 2745 1975 
Q 2488 2216 2034 2216 
z
M 1403 2484 
Q 997 2584 770 2862 
Q 544 3141 544 3541 
Q 544 4100 942 4425 
Q 1341 4750 2034 4750 
Q 2731 4750 3128 4425 
Q 3525 4100 3525 3541 
Q 3525 3141 3298 2862 
Q 3072 2584 2669 2484 
Q 3125 2378 3379 2068 
Q 3634 1759 3634 1313 
Q 3634 634 3220 271 
Q 2806 -91 2034 -91 
Q 1263 -91 848 271 
Q 434 634 434 1313 
Q 434 1759 690 2068 
Q 947 2378 1403 2484 
z
M 1172 3481 
Q 1172 3119 1398 2916 
Q 1625 2713 2034 2713 
Q 2441 2713 2670 2916 
Q 2900 3119 2900 3481 
Q 2900 3844 2670 4047 
Q 2441 4250 2034 4250 
Q 1625 4250 1398 4047 
Q 1172 3844 1172 3481 
z
" transform="scale(0.015625)"/>
       </defs>
       <use xlink:href="#DejaVuSans-31" transform="translate(0 0.765625)"/>
       <use xlink:href="#DejaVuSans-30" transform="translate(63.623047 0.765625)"/>
       <use xlink:href="#DejaVuSans-38" transform="translate(128.203125 39.046875)scale(0.7)"/>
      </g>
     </g>
    </g>
    <g id="xtick_7">
     <g id="line2d_7">
      <g>
       <use xlink:href="#m5801b5906e" x="338.395925" y="307.584" style="stroke: #000000; stroke-width: 0.8"/>
      </g>
     </g>
     <g id="text_7">
      <!-- $\mathdefault{10^{9}}$ -->
      <g transform="translate(329.595925 322.182437)scale(0.1 -0.1)">
       <defs>
        <path id="DejaVuSans-39" d="M 703 97 
L 703 672 
Q 941 559 1184 500 
Q 1428 441 1663 441 
Q 2288 441 2617 861 
Q 2947 1281 2994 2138 
Q 2813 1869 2534 1725 
Q 2256 1581 1919 1581 
Q 1219 1581 811 2004 
Q 403 2428 403 3163 
Q 403 3881 828 4315 
Q 1253 4750 1959 4750 
Q 2769 4750 3195 4129 
Q 3622 3509 3622 2328 
Q 3622 1225 3098 567 
Q 2575 -91 1691 -91 
Q 1453 -91 1209 -44 
Q 966 3 703 97 
z
M 1959 2075 
Q 2384 2075 2632 2365 
Q 2881 2656 2881 3163 
Q 2881 3666 2632 3958 
Q 2384 4250 1959 4250 
Q 1534 4250 1286 3958 
Q 1038 3666 1038 3163 
Q 1038 2656 1286 2365 
Q 1534 2075 1959 2075 
z
" transform="scale(0.015625)"/>
       </defs>
       <use xlink:href="#DejaVuSans-31" transform="translate(0 0.765625)"/>
       <use xlink:href="#DejaVuSans-30" transform="translate(63.623047 0.765625)"/>
       <use xlink:href="#DejaVuSans-39" transform="translate(128.203125 39.046875)scale(0.7)"/>
      </g>
     </g>
    </g>
    <g id="xtick_8">
     <g id="line2d_8">
      <g>
       <use xlink:href="#m5801b5906e" x="380.451965" y="307.584" style="stroke: #000000; stroke-width: 0.8"/>
      </g>
     </g>
     <g id="text_8">
      <!-- $\mathdefault{10^{10}}$ -->
      <g transform="translate(369.401965 322.182437)scale(0.1 -0.1)">
       <use xlink:href="#DejaVuSans-31" transform="translate(0 0.765625)"/>
       <use xlink:href="#DejaVuSans-30" transform="translate(63.623047 0.765625)"/>
       <use xlink:href="#DejaVuSans-31" transform="translate(128.203125 39.046875)scale(0.7)"/>
       <use xlink:href="#DejaVuSans-30" transform="translate(172.739258 39.046875)scale(0.7)"/>
      </g>
     </g>
    </g>
    <g id="xtick_9">
     <g id="line2d_9">
      <defs>
       <path id="mc4eef378a2" d="M 0 0 
L 0 2 
" style="stroke: #000000; stroke-width: 0.6"/>
      </defs>
      <g>
       <use xlink:href="#mc4eef378a2" x="64.069472" y="307.584" style="stroke: #000000; stroke-width: 0.6"/>
      </g>
     </g>
    </g>
    <g id="xtick_10">
     <g id="line2d_10">
      <g>
       <use xlink:href="#mc4eef378a2" x="69.3239" y="307.584" style="stroke: #000000; stroke-width: 0.6"/>
      </g>
     </g>
    </g>
    <g id="xtick_11">
     <g id="line2d_11">
      <g>
       <use xlink:href="#mc4eef378a2" x="73.399552" y="307.584" style="stroke: #000000; stroke-width: 0.6"/>
      </g>
     </g>
    </g>
    <g id="xtick_12">
     <g id="line2d_12">
      <g>
       <use xlink:href="#mc4eef378a2" x="76.729602" y="307.584" style="stroke: #000000; stroke-width: 0.6"/>
      </g>
     </g>
    </g>
    <g id="xtick_13">
     <g id="line2d_13">
      <g>
       <use xlink:href="#mc4eef378a2" x="79.545118" y="307.584" style="stroke: #000000; stroke-width: 0.6"/>
      </g>
     </g>
    </g>
    <g id="xtick_14">
     <g id="line2d_14">
      <g>
       <use xlink:href="#mc4eef378a2" x="81.98403" y="307.584" style="stroke: #000000; stroke-width: 0.6"/>
      </g>
     </g>
    </g>
    <g id="xtick_15">
     <g id="line2d_15">
      <g>
       <use xlink:href="#mc4eef378a2" x="84.135303" y="307.584" style="stroke: #000000; stroke-width: 0.6"/>
      </g>
     </g>
    </g>
    <g id="xtick_16">
     <g id="line2d_16">
      <g>
       <use xlink:href="#mc4eef378a2" x="98.719811" y="307.584" style="stroke: #000000; stroke-width: 0.6"/>
      </g>
     </g>
    </g>
    <g id="xtick_17">
     <g id="line2d_17">
      <g>
       <use xlink:href="#mc4eef378a2" x="106.125512" y="307.584" style="stroke: #000000; stroke-width: 0.6"/>
      </g>
     </g>
    </g>
    <g id="xtick_18">
     <g id="line2d_18">
      <g>
       <use xlink:href="#mc4eef378a2" x="111.379941" y="307.584" style="stroke: #000000; stroke-width: 0.6"/>
      </g>
     </g>
    </g>
    <g id="xtick_19">
     <g id="line2d_19">
      <g>
       <use xlink:href="#mc4eef378a2" x="115.455592" y="307.584" style="stroke: #000000; stroke-width: 0.6"/>
      </g>
     </g>
    </g>
    <g id="xtick_20">
     <g id="line2d_20">
      <g>
       <use xlink:href="#mc4eef378a2" x="118.785642" y="307.584" style="stroke: #000000; stroke-width: 0.6"/>
      </g>
     </g>
    </g>
    <g id="xtick_21">
     <g id="line2d_21">
      <g>
       <use xlink:href="#mc4eef378a2" x="121.601159" y="307.584" style="stroke: #000000; stroke-width: 0.6"/>
      </g>
     </g>
    </g>
    <g id="xtick_22">
     <g id="line2d_22">
      <g>
       <use xlink:href="#mc4eef378a2" x="124.040071" y="307.584" style="stroke: #000000; stroke-width: 0.6"/>
      </g>
     </g>
    </g>
    <g id="xtick_23">
     <g id="line2d_23">
      <g>
       <use xlink:href="#mc4eef378a2" x="126.191343" y="307.584" style="stroke: #000000; stroke-width: 0.6"/>
      </g>
     </g>
    </g>
    <g id="xtick_24">
     <g id="line2d_24">
      <g>
       <use xlink:href="#mc4eef378a2" x="140.775852" y="307.584" style="stroke: #000000; stroke-width: 0.6"/>
      </g>
     </g>
    </g>
    <g id="xtick_25">
     <g id="line2d_25">
      <g>
       <use xlink:href="#mc4eef378a2" x="148.181553" y="307.584" style="stroke: #000000; stroke-width: 0.6"/>
      </g>
     </g>
    </g>
    <g id="xtick_26">
     <g id="line2d_26">
      <g>
       <use xlink:href="#mc4eef378a2" x="153.435982" y="307.584" style="stroke: #000000; stroke-width: 0.6"/>
      </g>
     </g>
    </g>
    <g id="xtick_27">
     <g id="line2d_27">
      <g>
       <use xlink:href="#mc4eef378a2" x="157.511633" y="307.584" style="stroke: #000000; stroke-width: 0.6"/>
      </g>
     </g>
    </g>
    <g id="xtick_28">
     <g id="line2d_28">
      <g>
       <use xlink:href="#mc4eef378a2" x="160.841683" y="307.584" style="stroke: #000000; stroke-width: 0.6"/>
      </g>
     </g>
    </g>
    <g id="xtick_29">
     <g id="line2d_29">
      <g>
       <use xlink:href="#mc4eef378a2" x="163.6572" y="307.584" style="stroke: #000000; stroke-width: 0.6"/>
      </g>
     </g>
    </g>
    <g id="xtick_30">
     <g id="line2d_30">
      <g>
       <use xlink:href="#mc4eef378a2" x="166.096111" y="307.584" style="stroke: #000000; stroke-width: 0.6"/>
      </g>
     </g>
    </g>
    <g id="xtick_31">
     <g id="line2d_31">
      <g>
       <use xlink:href="#mc4eef378a2" x="168.247384" y="307.584" style="stroke: #000000; stroke-width: 0.6"/>
      </g>
     </g>
    </g>
    <g id="xtick_32">
     <g id="line2d_32">
      <g>
       <use xlink:href="#mc4eef378a2" x="182.831892" y="307.584" style="stroke: #000000; stroke-width: 0.6"/>
      </g>
     </g>
    </g>
    <g id="xtick_33">
     <g id="line2d_33">
      <g>
       <use xlink:href="#mc4eef378a2" x="190.237594" y="307.584" style="stroke: #000000; stroke-width: 0.6"/>
      </g>
     </g>
    </g>
    <g id="xtick_34">
     <g id="line2d_34">
      <g>
       <use xlink:href="#mc4eef378a2" x="195.492022" y="307.584" style="stroke: #000000; stroke-width: 0.6"/>
      </g>
     </g>
    </g>
    <g id="xtick_35">
     <g id="line2d_35">
      <g>
       <use xlink:href="#mc4eef378a2" x="199.567674" y="307.584" style="stroke: #000000; stroke-width: 0.6"/>
      </g>
     </g>
    </g>
    <g id="xtick_36">
     <g id="line2d_36">
      <g>
       <use xlink:href="#mc4eef378a2" x="202.897723" y="307.584" style="stroke: #000000; stroke-width: 0.6"/>
      </g>
     </g>
    </g>
    <g id="xtick_37">
     <g id="line2d_37">
      <g>
       <use xlink:href="#mc4eef378a2" x="205.71324" y="307.584" style="stroke: #000000; stroke-width: 0.6"/>
      </g>
     </g>
    </g>
    <g id="xtick_38">
     <g id="line2d_38">
      <g>
       <use xlink:href="#mc4eef378a2" x="208.152152" y="307.584" style="stroke: #000000; stroke-width: 0.6"/>
      </g>
     </g>
    </g>
    <g id="xtick_39">
     <g id="line2d_39">
      <g>
       <use xlink:href="#mc4eef378a2" x="210.303424" y="307.584" style="stroke: #000000; stroke-width: 0.6"/>
      </g>
     </g>
    </g>
    <g id="xtick_40">
     <g id="line2d_40">
      <g>
       <use xlink:href="#mc4eef378a2" x="224.887933" y="307.584" style="stroke: #000000; stroke-width: 0.6"/>
      </g>
     </g>
    </g>
    <g id="xtick_41">
     <g id="line2d_41">
      <g>
       <use xlink:href="#mc4eef378a2" x="232.293634" y="307.584" style="stroke: #000000; stroke-width: 0.6"/>
      </g>
     </g>
    </g>
    <g id="xtick_42">
     <g id="line2d_42">
      <g>
       <use xlink:href="#mc4eef378a2" x="237.548063" y="307.584" style="stroke: #000000; stroke-width: 0.6"/>
      </g>
     </g>
    </g>
    <g id="xtick_43">
     <g id="line2d_43">
      <g>
       <use xlink:href="#mc4eef378a2" x="241.623714" y="307.584" style="stroke: #000000; stroke-width: 0.6"/>
      </g>
     </g>
    </g>
    <g id="xtick_44">
     <g id="line2d_44">
      <g>
       <use xlink:href="#mc4eef378a2" x="244.953764" y="307.584" style="stroke: #000000; stroke-width: 0.6"/>
      </g>
     </g>
    </g>
    <g id="xtick_45">
     <g id="line2d_45">
      <g>
       <use xlink:href="#mc4eef378a2" x="247.769281" y="307.584" style="stroke: #000000; stroke-width: 0.6"/>
      </g>
     </g>
    </g>
    <g id="xtick_46">
     <g id="line2d_46">
      <g>
       <use xlink:href="#mc4eef378a2" x="250.208192" y="307.584" style="stroke: #000000; stroke-width: 0.6"/>
      </g>
     </g>
    </g>
    <g id="xtick_47">
     <g id="line2d_47">
      <g>
       <use xlink:href="#mc4eef378a2" x="252.359465" y="307.584" style="stroke: #000000; stroke-width: 0.6"/>
      </g>
     </g>
    </g>
    <g id="xtick_48">
     <g id="line2d_48">
      <g>
       <use xlink:href="#mc4eef378a2" x="266.943973" y="307.584" style="stroke: #000000; stroke-width: 0.6"/>
      </g>
     </g>
    </g>
    <g id="xtick_49">
     <g id="line2d_49">
      <g>
       <use xlink:href="#mc4eef378a2" x="274.349675" y="307.584" style="stroke: #000000; stroke-width: 0.6"/>
      </g>
     </g>
    </g>
    <g id="xtick_50">
     <g id="line2d_50">
      <g>
       <use xlink:href="#mc4eef378a2" x="279.604103" y="307.584" style="stroke: #000000; stroke-width: 0.6"/>
      </g>
     </g>
    </g>
    <g id="xtick_51">
     <g id="line2d_51">
      <g>
       <use xlink:href="#mc4eef378a2" x="283.679755" y="307.584" style="stroke: #000000; stroke-width: 0.6"/>
      </g>
     </g>
    </g>
    <g id="xtick_52">
     <g id="line2d_52">
      <g>
       <use xlink:href="#mc4eef378a2" x="287.009804" y="307.584" style="stroke: #000000; stroke-width: 0.6"/>
      </g>
     </g>
    </g>
    <g id="xtick_53">
     <g id="line2d_53">
      <g>
       <use xlink:href="#mc4eef378a2" x="289.825321" y="307.584" style="stroke: #000000; stroke-width: 0.6"/>
      </g>
     </g>
    </g>
    <g id="xtick_54">
     <g id="line2d_54">
      <g>
       <use xlink:href="#mc4eef378a2" x="292.264233" y="307.584" style="stroke: #000000; stroke-width: 0.6"/>
      </g>
     </g>
    </g>
    <g id="xtick_55">
     <g id="line2d_55">
      <g>
       <use xlink:href="#mc4eef378a2" x="294.415505" y="307.584" style="stroke: #000000; stroke-width: 0.6"/>
      </g>
     </g>
    </g>
    <g id="xtick_56">
     <g id="line2d_56">
      <g>
       <use xlink:href="#mc4eef378a2" x="309.000014" y="307.584" style="stroke: #000000; stroke-width: 0.6"/>
      </g>
     </g>
    </g>
    <g id="xtick_57">
     <g id="line2d_57">
      <g>
       <use xlink:href="#mc4eef378a2" x="316.405715" y="307.584" style="stroke: #000000; stroke-width: 0.6"/>
      </g>
     </g>
    </g>
    <g id="xtick_58">
     <g id="line2d_58">
      <g>
       <use xlink:href="#mc4eef378a2" x="321.660144" y="307.584" style="stroke: #000000; stroke-width: 0.6"/>
      </g>
     </g>
    </g>
    <g id="xtick_59">
     <g id="line2d_59">
      <g>
       <use xlink:href="#mc4eef378a2" x="325.735795" y="307.584" style="stroke: #000000; stroke-width: 0.6"/>
      </g>
     </g>
    </g>
    <g id="xtick_60">
     <g id="line2d_60">
      <g>
       <use xlink:href="#mc4eef378a2" x="329.065845" y="307.584" style="stroke: #000000; stroke-width: 0.6"/>
      </g>
     </g>
    </g>
    <g id="xtick_61">
     <g id="line2d_61">
      <g>
       <use xlink:href="#mc4eef378a2" x="331.881362" y="307.584" style="stroke: #000000; stroke-width: 0.6"/>
      </g>
     </g>
    </g>
    <g id="xtick_62">
     <g id="line2d_62">
      <g>
       <use xlink:href="#mc4eef378a2" x="334.320273" y="307.584" style="stroke: #000000; stroke-width: 0.6"/>
      </g>
     </g>
    </g>
    <g id="xtick_63">
     <g id="line2d_63">
      <g>
       <use xlink:href="#mc4eef378a2" x="336.471546" y="307.584" style="stroke: #000000; stroke-width: 0.6"/>
      </g>
     </g>
    </g>
    <g id="xtick_64">
     <g id="line2d_64">
      <g>
       <use xlink:href="#mc4eef378a2" x="351.056055" y="307.584" style="stroke: #000000; stroke-width: 0.6"/>
      </g>
     </g>
    </g>
    <g id="xtick_65">
     <g id="line2d_65">
      <g>
       <use xlink:href="#mc4eef378a2" x="358.461756" y="307.584" style="stroke: #000000; stroke-width: 0.6"/>
      </g>
     </g>
    </g>
    <g id="xtick_66">
     <g id="line2d_66">
      <g>
       <use xlink:href="#mc4eef378a2" x="363.716184" y="307.584" style="stroke: #000000; stroke-width: 0.6"/>
      </g>
     </g>
    </g>
    <g id="xtick_67">
     <g id="line2d_67">
      <g>
       <use xlink:href="#mc4eef378a2" x="367.791836" y="307.584" style="stroke: #000000; stroke-width: 0.6"/>
      </g>
     </g>
    </g>
    <g id="xtick_68">
     <g id="line2d_68">
      <g>
       <use xlink:href="#mc4eef378a2" x="371.121885" y="307.584" style="stroke: #000000; stroke-width: 0.6"/>
      </g>
     </g>
    </g>
    <g id="xtick_69">
     <g id="line2d_69">
      <g>
       <use xlink:href="#mc4eef378a2" x="373.937402" y="307.584" style="stroke: #000000; stroke-width: 0.6"/>
      </g>
     </g>
    </g>
    <g id="xtick_70">
     <g id="line2d_70">
      <g>
       <use xlink:href="#mc4eef378a2" x="376.376314" y="307.584" style="stroke: #000000; stroke-width: 0.6"/>
      </g>
     </g>
    </g>
    <g id="xtick_71">
     <g id="line2d_71">
      <g>
       <use xlink:href="#mc4eef378a2" x="378.527587" y="307.584" style="stroke: #000000; stroke-width: 0.6"/>
      </g>
     </g>
    </g>
    <g id="xtick_72">
     <g id="line2d_72">
      <g>
       <use xlink:href="#mc4eef378a2" x="393.112095" y="307.584" style="stroke: #000000; stroke-width: 0.6"/>
      </g>
     </g>
    </g>
    <g id="xtick_73">
     <g id="line2d_73">
      <g>
       <use xlink:href="#mc4eef378a2" x="400.517796" y="307.584" style="stroke: #000000; stroke-width: 0.6"/>
      </g>
     </g>
    </g>
    <g id="xtick_74">
     <g id="line2d_74">
      <g>
       <use xlink:href="#mc4eef378a2" x="405.772225" y="307.584" style="stroke: #000000; stroke-width: 0.6"/>
      </g>
     </g>
    </g>
    <g id="xtick_75">
     <g id="line2d_75">
      <g>
       <use xlink:href="#mc4eef378a2" x="409.847876" y="307.584" style="stroke: #000000; stroke-width: 0.6"/>
      </g>
     </g>
    </g>
    <g id="xtick_76">
     <g id="line2d_76">
      <g>
       <use xlink:href="#mc4eef378a2" x="413.177926" y="307.584" style="stroke: #000000; stroke-width: 0.6"/>
      </g>
     </g>
    </g>
    <g id="text_9">
     <!-- Global Problem Size -->
     <g transform="translate(186.327969 335.860562)scale(0.1 -0.1)">
      <defs>
       <path id="DejaVuSans-47" d="M 3809 666 
L 3809 1919 
L 2778 1919 
L 2778 2438 
L 4434 2438 
L 4434 434 
Q 4069 175 3628 42 
Q 3188 -91 2688 -91 
Q 1594 -91 976 548 
Q 359 1188 359 2328 
Q 359 3472 976 4111 
Q 1594 4750 2688 4750 
Q 3144 4750 3555 4637 
Q 3966 4525 4313 4306 
L 4313 3634 
Q 3963 3931 3569 4081 
Q 3175 4231 2741 4231 
Q 1884 4231 1454 3753 
Q 1025 3275 1025 2328 
Q 1025 1384 1454 906 
Q 1884 428 2741 428 
Q 3075 428 3337 486 
Q 3600 544 3809 666 
z
" transform="scale(0.015625)"/>
       <path id="DejaVuSans-6c" d="M 603 4863 
L 1178 4863 
L 1178 0 
L 603 0 
L 603 4863 
z
" transform="scale(0.015625)"/>
       <path id="DejaVuSans-6f" d="M 1959 3097 
Q 1497 3097 1228 2736 
Q 959 2375 959 1747 
Q 959 1119 1226 758 
Q 1494 397 1959 397 
Q 2419 397 2687 759 
Q 2956 1122 2956 1747 
Q 2956 2369 2687 2733 
Q 2419 3097 1959 3097 
z
M 1959 3584 
Q 2709 3584 3137 3096 
Q 3566 2609 3566 1747 
Q 3566 888 3137 398 
Q 2709 -91 1959 -91 
Q 1206 -91 779 398 
Q 353 888 353 1747 
Q 353 2609 779 3096 
Q 1206 3584 1959 3584 
z
" transform="scale(0.015625)"/>
       <path id="DejaVuSans-62" d="M 3116 1747 
Q 3116 2381 2855 2742 
Q 2594 3103 2138 3103 
Q 1681 3103 1420 2742 
Q 1159 2381 1159 1747 
Q 1159 1113 1420 752 
Q 1681 391 2138 391 
Q 2594 391 2855 752 
Q 3116 1113 3116 1747 
z
M 1159 2969 
Q 1341 3281 1617 3432 
Q 1894 3584 2278 3584 
Q 2916 3584 3314 3078 
Q 3713 2572 3713 1747 
Q 3713 922 3314 415 
Q 2916 -91 2278 -91 
Q 1894 -91 1617 61 
Q 1341 213 1159 525 
L 1159 0 
L 581 0 
L 581 4863 
L 1159 4863 
L 1159 2969 
z
" transform="scale(0.015625)"/>
       <path id="DejaVuSans-61" d="M 2194 1759 
Q 1497 1759 1228 1600 
Q 959 1441 959 1056 
Q 959 750 1161 570 
Q 1363 391 1709 391 
Q 2188 391 2477 730 
Q 2766 1069 2766 1631 
L 2766 1759 
L 2194 1759 
z
M 3341 1997 
L 3341 0 
L 2766 0 
L 2766 531 
Q 2569 213 2275 61 
Q 1981 -91 1556 -91 
Q 1019 -91 701 211 
Q 384 513 384 1019 
Q 384 1609 779 1909 
Q 1175 2209 1959 2209 
L 2766 2209 
L 2766 2266 
Q 2766 2663 2505 2880 
Q 2244 3097 1772 3097 
Q 1472 3097 1187 3025 
Q 903 2953 641 2809 
L 641 3341 
Q 956 3463 1253 3523 
Q 1550 3584 1831 3584 
Q 2591 3584 2966 3190 
Q 3341 2797 3341 1997 
z
" transform="scale(0.015625)"/>
       <path id="DejaVuSans-20" transform="scale(0.015625)"/>
       <path id="DejaVuSans-50" d="M 1259 4147 
L 1259 2394 
L 2053 2394 
Q 2494 2394 2734 2622 
Q 2975 2850 2975 3272 
Q 2975 3691 2734 3919 
Q 2494 4147 2053 4147 
L 1259 4147 
z
M 628 4666 
L 2053 4666 
Q 2838 4666 3239 4311 
Q 3641 3956 3641 3272 
Q 3641 2581 3239 2228 
Q 2838 1875 2053 1875 
L 1259 1875 
L 1259 0 
L 628 0 
L 628 4666 
z
" transform="scale(0.015625)"/>
       <path id="DejaVuSans-72" d="M 2631 2963 
Q 2534 3019 2420 3045 
Q 2306 3072 2169 3072 
Q 1681 3072 1420 2755 
Q 1159 2438 1159 1844 
L 1159 0 
L 581 0 
L 581 3500 
L 1159 3500 
L 1159 2956 
Q 1341 3275 1631 3429 
Q 1922 3584 2338 3584 
Q 2397 3584 2469 3576 
Q 2541 3569 2628 3553 
L 2631 2963 
z
" transform="scale(0.015625)"/>
       <path id="DejaVuSans-65" d="M 3597 1894 
L 3597 1613 
L 953 1613 
Q 991 1019 1311 708 
Q 1631 397 2203 397 
Q 2534 397 2845 478 
Q 3156 559 3463 722 
L 3463 178 
Q 3153 47 2828 -22 
Q 2503 -91 2169 -91 
Q 1331 -91 842 396 
Q 353 884 353 1716 
Q 353 2575 817 3079 
Q 1281 3584 2069 3584 
Q 2775 3584 3186 3129 
Q 3597 2675 3597 1894 
z
M 3022 2063 
Q 3016 2534 2758 2815 
Q 2500 3097 2075 3097 
Q 1594 3097 1305 2825 
Q 1016 2553 972 2059 
L 3022 2063 
z
" transform="scale(0.015625)"/>
       <path id="DejaVuSans-6d" d="M 3328 2828 
Q 3544 3216 3844 3400 
Q 4144 3584 4550 3584 
Q 5097 3584 5394 3201 
Q 5691 2819 5691 2113 
L 5691 0 
L 5113 0 
L 5113 2094 
Q 5113 2597 4934 2840 
Q 4756 3084 4391 3084 
Q 3944 3084 3684 2787 
Q 3425 2491 3425 1978 
L 3425 0 
L 2847 0 
L 2847 2094 
Q 2847 2600 2669 2842 
Q 2491 3084 2119 3084 
Q 1678 3084 1418 2786 
Q 1159 2488 1159 1978 
L 1159 0 
L 581 0 
L 581 3500 
L 1159 3500 
L 1159 2956 
Q 1356 3278 1631 3431 
Q 1906 3584 2284 3584 
Q 2666 3584 2933 3390 
Q 3200 3197 3328 2828 
z
" transform="scale(0.015625)"/>
       <path id="DejaVuSans-53" d="M 3425 4513 
L 3425 3897 
Q 3066 4069 2747 4153 
Q 2428 4238 2131 4238 
Q 1616 4238 1336 4038 
Q 1056 3838 1056 3469 
Q 1056 3159 1242 3001 
Q 1428 2844 1947 2747 
L 2328 2669 
Q 3034 2534 3370 2195 
Q 3706 1856 3706 1288 
Q 3706 609 3251 259 
Q 2797 -91 1919 -91 
Q 1588 -91 1214 -16 
Q 841 59 441 206 
L 441 856 
Q 825 641 1194 531 
Q 1563 422 1919 422 
Q 2459 422 2753 634 
Q 3047 847 3047 1241 
Q 3047 1584 2836 1778 
Q 2625 1972 2144 2069 
L 1759 2144 
Q 1053 2284 737 2584 
Q 422 2884 422 3419 
Q 422 4038 858 4394 
Q 1294 4750 2059 4750 
Q 2388 4750 2728 4690 
Q 3069 4631 3425 4513 
z
" transform="scale(0.015625)"/>
       <path id="DejaVuSans-69" d="M 603 3500 
L 1178 3500 
L 1178 0 
L 603 0 
L 603 3500 
z
M 603 4863 
L 1178 4863 
L 1178 4134 
L 603 4134 
L 603 4863 
z
" transform="scale(0.015625)"/>
       <path id="DejaVuSans-7a" d="M 353 3500 
L 3084 3500 
L 3084 2975 
L 922 459 
L 3084 459 
L 3084 0 
L 275 0 
L 275 525 
L 2438 3041 
L 353 3041 
L 353 3500 
z
" transform="scale(0.015625)"/>
      </defs>
      <use xlink:href="#DejaVuSans-47"/>
      <use xlink:href="#DejaVuSans-6c" x="77.490234"/>
      <use xlink:href="#DejaVuSans-6f" x="105.273438"/>
      <use xlink:href="#DejaVuSans-62" x="166.455078"/>
      <use xlink:href="#DejaVuSans-61" x="229.931641"/>
      <use xlink:href="#DejaVuSans-6c" x="291.210938"/>
      <use xlink:href="#DejaVuSans-20" x="318.994141"/>
      <use xlink:href="#DejaVuSans-50" x="350.78125"/>
      <use xlink:href="#DejaVuSans-72" x="409.333984"/>
      <use xlink:href="#DejaVuSans-6f" x="448.197266"/>
      <use xlink:href="#DejaVuSans-62" x="509.378906"/>
      <use xlink:href="#DejaVuSans-6c" x="572.855469"/>
      <use xlink:href="#DejaVuSans-65" x="600.638672"/>
      <use xlink:href="#DejaVuSans-6d" x="662.162109"/>
      <use xlink:href="#DejaVuSans-20" x="759.574219"/>
      <use xlink:href="#DejaVuSans-53" x="791.361328"/>
      <use xlink:href="#DejaVuSans-69" x="854.837891"/>
      <use xlink:href="#DejaVuSans-7a" x="882.621094"/>
      <use xlink:href="#DejaVuSans-65" x="935.111328"/>
     </g>
    </g>
   </g>
   <g id="matplotlib.axis_2">
    <g id="ytick_1">
     <g id="line2d_77">
      <defs>
       <path id="m7a38b5ebbf" d="M 0 0 
L -3.5 0 
" style="stroke: #000000; stroke-width: 0.8"/>
      </defs>
      <g>
       <use xlink:href="#m7a38b5ebbf" x="57.6" y="238.421795" style="stroke: #000000; stroke-width: 0.8"/>
      </g>
     </g>
     <g id="text_10">
      <!-- $\mathdefault{10^{-1}}$ -->
      <g transform="translate(27.1 242.221014)scale(0.1 -0.1)">
       <defs>
        <path id="DejaVuSans-2212" d="M 678 2272 
L 4684 2272 
L 4684 1741 
L 678 1741 
L 678 2272 
z
" transform="scale(0.015625)"/>
       </defs>
       <use xlink:href="#DejaVuSans-31" transform="translate(0 0.684375)"/>
       <use xlink:href="#DejaVuSans-30" transform="translate(63.623047 0.684375)"/>
       <use xlink:href="#DejaVuSans-2212" transform="translate(128.203125 38.965625)scale(0.7)"/>
       <use xlink:href="#DejaVuSans-31" transform="translate(186.855469 38.965625)scale(0.7)"/>
      </g>
     </g>
    </g>
    <g id="ytick_2">
     <g id="line2d_78">
      <g>
       <use xlink:href="#m7a38b5ebbf" x="57.6" y="141.569888" style="stroke: #000000; stroke-width: 0.8"/>
      </g>
     </g>
     <g id="text_11">
      <!-- $\mathdefault{10^{0}}$ -->
      <g transform="translate(33 145.369107)scale(0.1 -0.1)">
       <use xlink:href="#DejaVuSans-31" transform="translate(0 0.765625)"/>
       <use xlink:href="#DejaVuSans-30" transform="translate(63.623047 0.765625)"/>
       <use xlink:href="#DejaVuSans-30" transform="translate(128.203125 39.046875)scale(0.7)"/>
      </g>
     </g>
    </g>
    <g id="ytick_3">
     <g id="line2d_79">
      <g>
       <use xlink:href="#m7a38b5ebbf" x="57.6" y="44.717981" style="stroke: #000000; stroke-width: 0.8"/>
      </g>
     </g>
     <g id="text_12">
      <!-- $\mathdefault{10^{1}}$ -->
      <g transform="translate(33 48.5172)scale(0.1 -0.1)">
       <use xlink:href="#DejaVuSans-31" transform="translate(0 0.684375)"/>
       <use xlink:href="#DejaVuSans-30" transform="translate(63.623047 0.684375)"/>
       <use xlink:href="#DejaVuSans-31" transform="translate(128.203125 38.965625)scale(0.7)"/>
      </g>
     </g>
    </g>
    <g id="ytick_4">
     <g id="line2d_80">
      <defs>
       <path id="m717fc603cc" d="M 0 0 
L -2 0 
" style="stroke: #000000; stroke-width: 0.6"/>
      </defs>
      <g>
       <use xlink:href="#m717fc603cc" x="57.6" y="306.118373" style="stroke: #000000; stroke-width: 0.6"/>
      </g>
     </g>
    </g>
    <g id="ytick_5">
     <g id="line2d_81">
      <g>
       <use xlink:href="#m717fc603cc" x="57.6" y="289.063598" style="stroke: #000000; stroke-width: 0.6"/>
      </g>
     </g>
    </g>
    <g id="ytick_6">
     <g id="line2d_82">
      <g>
       <use xlink:href="#m717fc603cc" x="57.6" y="276.963044" style="stroke: #000000; stroke-width: 0.6"/>
      </g>
     </g>
    </g>
    <g id="ytick_7">
     <g id="line2d_83">
      <g>
       <use xlink:href="#m717fc603cc" x="57.6" y="267.577124" style="stroke: #000000; stroke-width: 0.6"/>
      </g>
     </g>
    </g>
    <g id="ytick_8">
     <g id="line2d_84">
      <g>
       <use xlink:href="#m717fc603cc" x="57.6" y="259.908269" style="stroke: #000000; stroke-width: 0.6"/>
      </g>
     </g>
    </g>
    <g id="ytick_9">
     <g id="line2d_85">
      <g>
       <use xlink:href="#m717fc603cc" x="57.6" y="253.424345" style="stroke: #000000; stroke-width: 0.6"/>
      </g>
     </g>
    </g>
    <g id="ytick_10">
     <g id="line2d_86">
      <g>
       <use xlink:href="#m717fc603cc" x="57.6" y="247.807714" style="stroke: #000000; stroke-width: 0.6"/>
      </g>
     </g>
    </g>
    <g id="ytick_11">
     <g id="line2d_87">
      <g>
       <use xlink:href="#m717fc603cc" x="57.6" y="242.853495" style="stroke: #000000; stroke-width: 0.6"/>
      </g>
     </g>
    </g>
    <g id="ytick_12">
     <g id="line2d_88">
      <g>
       <use xlink:href="#m717fc603cc" x="57.6" y="209.266466" style="stroke: #000000; stroke-width: 0.6"/>
      </g>
     </g>
    </g>
    <g id="ytick_13">
     <g id="line2d_89">
      <g>
       <use xlink:href="#m717fc603cc" x="57.6" y="192.211692" style="stroke: #000000; stroke-width: 0.6"/>
      </g>
     </g>
    </g>
    <g id="ytick_14">
     <g id="line2d_90">
      <g>
       <use xlink:href="#m717fc603cc" x="57.6" y="180.111137" style="stroke: #000000; stroke-width: 0.6"/>
      </g>
     </g>
    </g>
    <g id="ytick_15">
     <g id="line2d_91">
      <g>
       <use xlink:href="#m717fc603cc" x="57.6" y="170.725217" style="stroke: #000000; stroke-width: 0.6"/>
      </g>
     </g>
    </g>
    <g id="ytick_16">
     <g id="line2d_92">
      <g>
       <use xlink:href="#m717fc603cc" x="57.6" y="163.056362" style="stroke: #000000; stroke-width: 0.6"/>
      </g>
     </g>
    </g>
    <g id="ytick_17">
     <g id="line2d_93">
      <g>
       <use xlink:href="#m717fc603cc" x="57.6" y="156.572438" style="stroke: #000000; stroke-width: 0.6"/>
      </g>
     </g>
    </g>
    <g id="ytick_18">
     <g id="line2d_94">
      <g>
       <use xlink:href="#m717fc603cc" x="57.6" y="150.955808" style="stroke: #000000; stroke-width: 0.6"/>
      </g>
     </g>
    </g>
    <g id="ytick_19">
     <g id="line2d_95">
      <g>
       <use xlink:href="#m717fc603cc" x="57.6" y="146.001588" style="stroke: #000000; stroke-width: 0.6"/>
      </g>
     </g>
    </g>
    <g id="ytick_20">
     <g id="line2d_96">
      <g>
       <use xlink:href="#m717fc603cc" x="57.6" y="112.414559" style="stroke: #000000; stroke-width: 0.6"/>
      </g>
     </g>
    </g>
    <g id="ytick_21">
     <g id="line2d_97">
      <g>
       <use xlink:href="#m717fc603cc" x="57.6" y="95.359785" style="stroke: #000000; stroke-width: 0.6"/>
      </g>
     </g>
    </g>
    <g id="ytick_22">
     <g id="line2d_98">
      <g>
       <use xlink:href="#m717fc603cc" x="57.6" y="83.25923" style="stroke: #000000; stroke-width: 0.6"/>
      </g>
     </g>
    </g>
    <g id="ytick_23">
     <g id="line2d_99">
      <g>
       <use xlink:href="#m717fc603cc" x="57.6" y="73.87331" style="stroke: #000000; stroke-width: 0.6"/>
      </g>
     </g>
    </g>
    <g id="ytick_24">
     <g id="line2d_100">
      <g>
       <use xlink:href="#m717fc603cc" x="57.6" y="66.204456" style="stroke: #000000; stroke-width: 0.6"/>
      </g>
     </g>
    </g>
    <g id="ytick_25">
     <g id="line2d_101">
      <g>
       <use xlink:href="#m717fc603cc" x="57.6" y="59.720531" style="stroke: #000000; stroke-width: 0.6"/>
      </g>
     </g>
    </g>
    <g id="ytick_26">
     <g id="line2d_102">
      <g>
       <use xlink:href="#m717fc603cc" x="57.6" y="54.103901" style="stroke: #000000; stroke-width: 0.6"/>
      </g>
     </g>
    </g>
    <g id="ytick_27">
     <g id="line2d_103">
      <g>
       <use xlink:href="#m717fc603cc" x="57.6" y="49.149681" style="stroke: #000000; stroke-width: 0.6"/>
      </g>
     </g>
    </g>
    <g id="text_13">
     <!-- GFLOPS -->
     <g transform="translate(21.020312 194.007688)rotate(-90)scale(0.1 -0.1)">
      <defs>
       <path id="DejaVuSans-46" d="M 628 4666 
L 3309 4666 
L 3309 4134 
L 1259 4134 
L 1259 2759 
L 3109 2759 
L 3109 2228 
L 1259 2228 
L 1259 0 
L 628 0 
L 628 4666 
z
" transform="scale(0.015625)"/>
       <path id="DejaVuSans-4c" d="M 628 4666 
L 1259 4666 
L 1259 531 
L 3531 531 
L 3531 0 
L 628 0 
L 628 4666 
z
" transform="scale(0.015625)"/>
       <path id="DejaVuSans-4f" d="M 2522 4238 
Q 1834 4238 1429 3725 
Q 1025 3213 1025 2328 
Q 1025 1447 1429 934 
Q 1834 422 2522 422 
Q 3209 422 3611 934 
Q 4013 1447 4013 2328 
Q 4013 3213 3611 3725 
Q 3209 4238 2522 4238 
z
M 2522 4750 
Q 3503 4750 4090 4092 
Q 4678 3434 4678 2328 
Q 4678 1225 4090 567 
Q 3503 -91 2522 -91 
Q 1538 -91 948 565 
Q 359 1222 359 2328 
Q 359 3434 948 4092 
Q 1538 4750 2522 4750 
z
" transform="scale(0.015625)"/>
      </defs>
      <use xlink:href="#DejaVuSans-47"/>
      <use xlink:href="#DejaVuSans-46" x="77.490234"/>
      <use xlink:href="#DejaVuSans-4c" x="135.009766"/>
      <use xlink:href="#DejaVuSans-4f" x="187.097656"/>
      <use xlink:href="#DejaVuSans-50" x="265.808594"/>
      <use xlink:href="#DejaVuSans-53" x="326.111328"/>
     </g>
    </g>
   </g>
   <g id="line2d_104">
    <path d="M 73.832727 108.497758 
L 86.492857 107.979178 
L 93.898558 107.946385 
L 99.152987 107.495624 
L 103.228638 106.358777 
L 106.558688 107.665313 
L 109.374205 106.348094 
L 111.813116 105.051296 
L 113.964389 107.989495 
L 115.888768 106.588575 
L 119.218818 107.541888 
L 122.034334 106.495674 
L 123.294469 108.794502 
L 124.473246 103.485225 
L 126.624519 109.821256 
L 128.548898 108.103825 
L 129.440036 110.03728 
L 131.878947 108.075243 
L 132.624549 112.192915 
L 134.03022 109.339051 
L 134.694464 112.899138 
L 135.954599 111.980733 
L 137.133376 103.637528 
L 138.770116 121.087876 
L 139.284648 110.596493 
L 141.209027 107.799614 
L 142.100165 116.213132 
L 142.94984 109.657177 
L 143.3603 118.138694 
L 144.539077 106.876253 
L 144.915682 124.869693 
L 145.284679 110.920036 
L 146.690349 114.710707 
L 147.354594 114.178444 
L 148.614728 118.359586 
L 149.505866 113.999998 
L 149.793505 98.352432 
L 150.355541 119.868162 
L 151.430245 116.725892 
L 151.944778 116.891277 
L 152.69038 125.312278 
L 153.869157 109.335462 
L 154.096051 124.421648 
L 154.760295 122.046643 
L 155.609969 124.070126 
L 156.020429 126.029035 
L 157.199207 104.245308 
L 157.575812 127.802588 
L 157.761242 128.993669 
L 157.944808 124.484562 
L 158.835946 127.960358 
L 159.350479 132.317267 
L 159.685621 125.451291 
L 160.014724 109.860686 
L 161.274858 118.386384 
L 162.02046 137.047643 
L 162.165996 130.134028 
L 162.453635 88.767223 
L 163.015671 131.929489 
L 163.426131 131.563619 
L 164.090375 129.483318 
L 164.604908 115.602594 
L 164.981513 133.192611 
L 165.350509 132.397059 
L 165.831187 127.834762 
L 166.529287 111.878622 
L 166.75618 131.374728 
L 167.091322 131.744751 
L 167.420425 116.006736 
L 168.166026 133.822275 
L 168.270099 132.273943 
L 168.680559 133.775971 
L 169.571697 133.812405 
L 169.859336 92.818945 
L 170.235942 127.207272 
L 170.421372 132.372353 
L 170.604938 122.728043 
L 171.496076 135.383986 
L 172.010609 131.324549 
L 172.345751 134.992743 
L 172.674853 104.739877 
L 172.756211 136.384525 
L 173.236889 132.549131 
L 173.934988 112.229701 
L 174.086563 138.337329 
L 174.161881 131.40703 
L 174.311593 131.571856 
L 174.68059 136.626597 
L 174.826126 133.637486 
L 175.113765 79.743517 
L 175.6758 134.69502 
L 176.08626 135.655074 
L 176.421402 136.874078 
L 176.750505 121.726677 
L 177.265037 104.710174 
L 177.641643 135.482928 
L 177.827073 137.51433 
L 178.010639 136.617142 
L 178.491317 136.379615 
L 178.901777 132.137871 
L 179.189416 94.661875 
L 179.41631 136.341335 
L 179.751452 137.002476 
L 180.080554 106.41737 
L 180.45716 129.29566 
L 180.826156 132.915955 
L 180.930229 116.114116 
L 181.340689 125.729013 
L 181.492264 140.188307 
L 182.231827 135.628064 
L 182.519466 78.578912 
L 182.566969 132.969939 
L 182.896071 117.352779 
L 183.081501 135.535889 
L 183.265068 116.981395 
L 183.491961 133.128518 
L 184.156206 128.980087 
L 184.670739 107.822486 
L 185.00588 135.471977 
L 185.047344 132.411393 
L 185.334983 90.015757 
L 185.41634 136.943835 
L 185.897018 131.360697 
L 186.595117 97.263208 
L 186.746693 139.857151 
L 186.822011 136.499905 
L 186.971723 133.958022 
L 187.157153 135.679964 
L 187.340719 139.054534 
L 187.773895 71.209518 
L 188.712535 139.091229 
L 188.74639 134.639671 
L 189.081532 139.82985 
L 189.410634 112.457812 
L 189.637528 136.045651 
L 189.925167 90.90349 
L 190.487202 131.326711 
L 190.670769 98.892004 
L 190.822344 139.315889 
L 191.151447 131.278695 
L 191.561907 131.953925 
L 191.849546 80.847909 
L 192.07644 115.422487 
L 192.411581 133.810784 
L 192.740684 95.820544 
L 193.302719 131.551682 
L 193.486286 129.827754 
L 193.590358 109.942661 
L 194.000819 105.642177 
L 194.227712 141.409642 
L 195.179596 66.855018 
L 195.227098 129.996641 
L 195.556201 96.151701 
L 195.741631 119.154433 
L 195.925197 102.893286 
L 196.152091 130.611982 
L 196.816335 97.745839 
L 196.967911 128.698756 
L 197.330868 95.181688 
L 197.66601 107.199453 
L 197.892904 134.277373 
L 197.995113 71.057757 
L 198.07647 130.813277 
L 199.255247 80.618887 
L 199.406822 128.815846 
L 199.817282 134.587808 
L 200.000849 99.875069 
L 200.146385 97.114779 
L 200.434024 62.416824 
L 200.99606 98.679209 
L 201.40652 95.962938 
L 201.558095 138.811649 
L 202.070764 97.366335 
L 202.585297 74.906843 
L 202.961902 98.885447 
L 203.811577 97.670437 
L 204.509676 71.84861 
L 204.736569 98.219755 
L 205.071711 99.673254 
L 205.400814 73.489421 
L 206.250488 99.116993 
L 206.660948 98.641136 
L 207.552086 98.197384 
L 207.839725 60.106146 
L 208.216331 99.991365 
L 208.401761 97.752301 
L 208.585327 80.478115 
L 209.476465 99.39486 
L 209.990998 92.234593 
L 210.32614 98.316572 
L 210.655242 65.973717 
L 210.7366 98.309578 
L 211.217278 97.902746 
L 211.915377 71.727722 
L 212.066952 99.251737 
L 212.142271 97.970906 
L 212.291982 100.550215 
L 212.806515 99.046913 
L 213.094154 61.505536 
L 213.656189 99.145959 
L 214.066649 98.640523 
L 214.401791 99.088335 
L 214.730894 80.509133 
L 215.245427 65.728556 
L 215.622032 100.112798 
L 215.807462 97.919418 
L 215.991028 98.806117 
L 216.471706 99.771471 
L 216.882166 99.985261 
L 217.169805 65.064451 
L 217.396699 99.181048 
L 217.731841 98.985711 
L 218.060943 64.929933 
L 218.437549 98.817959 
L 218.806545 99.730267 
L 218.910618 76.057927 
L 219.321078 84.264892 
L 219.472653 97.112939 
L 220.212216 98.850775 
L 220.499855 60.49931 
L 220.547358 100.214343 
L 220.87646 79.100432 
L 221.06189 100.801267 
L 221.245457 75.222531 
L 221.472351 100.167043 
L 222.136595 99.613293 
L 222.651128 68.404658 
L 222.986269 100.859099 
L 223.027733 98.329133 
L 223.315372 65.130453 
L 223.396729 97.890348 
L 223.877407 100.293609 
L 224.575507 63.283267 
L 224.727082 100.524737 
L 224.8024 97.011179 
L 224.952112 98.90123 
L 225.137542 98.739435 
L 225.321108 99.133477 
L 225.466645 79.182981 
L 225.754284 71.430203 
L 226.316319 71.836402 
L 226.692924 98.559596 
L 226.726779 98.30652 
L 227.061921 100.132084 
L 227.391023 70.874011 
L 227.617917 98.612051 
L 227.905556 68.195789 
L 228.467592 100.320577 
L 228.651158 68.448412 
L 228.802733 98.793154 
L 229.131836 99.883655 
L 229.542296 100.213123 
L 229.829935 69.056659 
L 230.39197 100.129022 
L 230.721073 62.174934 
L 231.283108 99.766956 
L 231.466675 100.720814 
L 231.570748 72.763537 
L 231.981208 69.147731 
L 232.208101 100.707279 
L 233.159985 67.199654 
L 233.207487 99.842848 
L 233.53659 70.879103 
L 233.72202 82.188053 
L 233.905587 66.614814 
L 234.13248 99.514477 
L 234.796725 63.704702 
L 234.9483 97.990156 
L 235.311257 63.716665 
L 235.646399 71.358313 
L 235.873293 98.878129 
L 235.975502 64.113472 
L 236.056859 98.324168 
L 237.235636 66.018774 
L 237.387211 98.372941 
L 237.797672 99.116227 
L 237.981238 68.49656 
L 238.126774 64.215623 
L 238.414413 97.904095 
L 238.976449 66.055582 
L 239.386909 67.689777 
L 239.538484 98.445603 
L 240.051153 66.152191 
L 240.565686 67.214998 
L 240.942291 65.150648 
L 241.311288 67.140709 
L 241.791966 64.000547 
L 242.490065 68.57478 
L 242.716959 67.981531 
L 243.0521 68.738779 
L 243.381203 66.726033 
L 244.126805 69.164702 
L 244.230877 66.968437 
L 244.641337 67.463973 
L 245.532475 67.620956 
L 245.820115 87.634185 
L 246.19672 69.146805 
L 246.38215 67.34395 
L 246.565716 68.765299 
L 247.456854 67.356882 
L 247.971387 68.615348 
L 248.306529 68.438203 
L 248.635631 69.34878 
L 248.716989 69.011205 
L 249.197667 68.418925 
L 249.895766 68.471397 
L 250.047341 66.775311 
L 250.12266 69.295781 
L 250.272371 68.405897 
L 250.641368 70.297558 
L 250.786904 67.5858 
L 251.074543 149.325135 
L 251.636578 68.225155 
L 252.047039 68.504284 
L 252.38218 70.511828 
L 252.711283 69.040067 
L 253.225816 67.536422 
L 253.602421 67.121953 
L 253.787851 69.469069 
L 253.971417 68.938418 
L 254.862555 69.297177 
L 255.150195 97.889405 
L 255.377088 68.600033 
L 255.71223 69.116392 
L 256.041333 67.511664 
L 256.786934 68.274318 
L 256.891007 68.693942 
L 257.301467 69.08764 
L 257.453042 67.974862 
L 258.192605 68.106827 
L 258.480244 157.967353 
L 258.527747 70.184319 
L 259.225846 68.800934 
L 259.45274 69.946183 
L 260.116984 67.928385 
L 260.631517 68.434458 
L 260.966658 69.609158 
L 261.295761 250.141815 
L 261.377119 68.874547 
L 261.857796 67.959364 
L 262.555896 68.198758 
L 262.707471 68.561682 
L 262.782789 69.851886 
L 263.301497 70.082107 
L 263.734673 269.784635 
L 264.296708 67.994645 
L 264.707168 68.811363 
L 265.04231 70.099061 
L 265.885945 269.606901 
L 266.447981 68.243952 
L 266.631547 68.302384 
L 266.783122 69.979605 
L 267.810324 263.633053 
L 268.37236 68.450834 
L 270.113172 68.434421 
L 271.140374 261.928171 
L 273.955891 251.400143 
L 275.216025 247.760929 
L 276.394803 259.44082 
L 278.546075 250.717055 
L 280.470454 243.448539 
L 281.361592 231.274135 
L 283.800504 244.203583 
L 284.546105 227.013252 
L 285.951776 252.73675 
L 286.616021 230.126807 
L 287.876155 232.96045 
L 289.054932 247.791216 
L 290.691672 211.40179 
L 291.206205 235.991485 
L 293.130584 226.897888 
L 294.021722 220.756476 
L 294.871396 233.824465 
L 295.281856 231.42556 
L 296.460633 235.388414 
L 296.837239 201.925393 
L 297.206235 224.681641 
L 298.611906 221.678968 
L 299.27615 218.0848 
L 300.536285 218.393076 
L 301.427423 214.983444 
L 301.715062 237.636147 
L 302.277097 215.409268 
L 303.351802 212.551388 
L 303.866334 218.32665 
L 304.611936 207.471406 
L 305.790713 215.48237 
L 306.017607 206.190664 
L 306.681851 204.635495 
L 307.531526 203.032154 
L 307.941986 201.280751 
L 309.120763 226.948098 
L 309.497368 200.866855 
L 309.866365 198.112553 
L 311.272036 199.669898 
L 311.607177 197.735114 
L 311.93628 214.787543 
L 314.087553 190.968042 
L 314.375192 227.93676 
L 314.937227 190.243119 
L 315.347687 187.931267 
L 316.011931 187.502373 
L 316.526464 207.425572 
L 316.903069 182.894024 
L 317.272066 184.365731 
L 317.752744 182.619612 
L 318.450843 198.249445 
L 318.677737 182.655438 
L 319.012878 181.701658 
L 319.341981 199.793211 
L 320.191656 176.65521 
L 320.602116 177.791244 
L 321.493254 175.461991 
L 321.780893 223.245206 
L 322.157498 173.344037 
L 322.526495 178.701558 
L 323.417633 173.629729 
L 323.932165 181.848512 
L 324.267307 173.721134 
L 324.59641 206.335069 
L 324.677767 172.714815 
L 325.158445 173.458925 
L 325.856544 195.304863 
L 326.008119 168.585355 
L 326.083438 169.537074 
L 326.233149 171.431022 
L 326.602146 170.602071 
L 326.747682 170.645123 
L 327.035321 227.950806 
L 327.597357 169.444782 
L 328.007817 170.815271 
L 328.342958 166.597427 
L 328.672061 179.568952 
L 329.186594 211.657883 
L 329.748629 163.570904 
L 329.932196 165.342582 
L 330.412874 163.343292 
L 330.823334 164.11496 
L 331.110973 204.470072 
L 331.337866 163.640295 
L 331.673008 166.765486 
L 332.002111 221.517921 
L 332.747713 159.276179 
L 332.851785 182.937582 
L 333.262245 180.852699 
L 333.413821 174.929649 
L 334.441022 224.419821 
L 334.488525 156.813302 
L 334.817628 202.633964 
L 335.003058 158.939008 
L 335.186624 177.878134 
L 336.592295 221.957778 
L 336.927437 154.009566 
L 337.256539 211.980054 
L 338.516674 218.344045 
L 338.668249 153.734707 
L 339.407812 216.36161 
L 339.695451 223.138919 
L 340.257486 214.374942 
L 341.332191 210.448788 
L 341.846724 210.70964 
L 342.592325 206.248958 
L 343.771102 206.729496 
L 343.997996 205.178235 
L 344.66224 203.83317 
L 345.511915 202.753108 
L 345.922375 201.396544 
L 347.101152 207.280151 
L 347.477757 197.319139 
L 347.663187 197.213994 
L 347.846754 198.784617 
L 348.737892 197.693459 
L 349.587566 196.418184 
L 349.916669 211.503195 
L 351.176804 198.592102 
L 352.067942 192.677826 
L 352.355581 212.312883 
L 352.917616 189.753443 
L 353.992321 188.888251 
L 354.506853 199.813408 
L 354.883459 185.790186 
L 355.252455 183.47914 
L 355.733133 181.561668 
L 356.431232 190.938763 
L 356.658126 181.779778 
L 356.993267 181.08002 
L 357.32237 185.782213 
L 358.172045 177.897084 
L 358.582505 178.414233 
L 359.473643 175.238738 
L 359.761282 204.897932 
L 360.323317 172.986307 
L 360.506884 172.938243 
L 361.398022 173.353484 
L 361.912554 173.118256 
L 362.247696 173.772216 
L 362.576799 216.016238 
L 363.138834 170.230749 
L 363.836933 186.838544 
L 363.988509 169.855918 
L 364.063827 171.026873 
L 365.01571 215.066245 
L 365.577746 168.61228 
L 365.988206 168.302479 
L 366.65245 194.25542 
L 367.166983 222.127783 
L 367.729018 164.309405 
L 367.912585 163.100551 
L 369.091362 196.129028 
L 369.653397 161.728061 
L 369.9825 216.082093 
L 370.832174 214.325577 
L 371.242634 212.40724 
L 371.39421 158.705225 
L 372.421412 201.111458 
L 372.798017 180.29345 
L 374.572684 205.231193 
L 376.497063 200.803432 
L 377.388201 196.915023 
L 377.67584 197.96587 
L 378.237875 197.040175 
L 379.31258 193.616206 
L 379.827113 193.464842 
L 381.751492 188.62251 
L 383.902764 183.844015 
L 385.081541 181.131218 
L 385.458147 181.243522 
L 385.827143 181.03571 
L 386.718281 178.135445 
L 387.232814 179.266185 
L 387.897058 178.082805 
L 389.157193 175.00055 
L 390.048331 173.273682 
L 390.33597 172.215147 
L 390.898005 171.255956 
L 391.308465 169.376842 
L 391.97271 169.053752 
L 393.232844 165.534991 
L 393.713522 163.691222 
L 394.411621 163.673433 
L 395.302759 160.045446 
L 396.152434 158.891424 
L 396.562894 157.771002 
L 397.454032 155.974734 
L 398.487273 153.479243 
L 398.487273 153.479243 
" clip-path="url(#p44fa62c13e)" style="fill: none; stroke: #1f77b4; stroke-width: 1.5; stroke-linecap: square"/>
   </g>
   <g id="line2d_105"/>
   <g id="patch_3">
    <path d="M 57.6 307.584 
L 57.6 41.472 
" style="fill: none; stroke: #000000; stroke-width: 0.8; stroke-linejoin: miter; stroke-linecap: square"/>
   </g>
   <g id="patch_4">
    <path d="M 414.72 307.584 
L 414.72 41.472 
" style="fill: none; stroke: #000000; stroke-width: 0.8; stroke-linejoin: miter; stroke-linecap: square"/>
   </g>
   <g id="patch_5">
    <path d="M 57.6 307.584 
L 414.72 307.584 
" style="fill: none; stroke: #000000; stroke-width: 0.8; stroke-linejoin: miter; stroke-linecap: square"/>
   </g>
   <g id="patch_6">
    <path d="M 57.6 41.472 
L 414.72 41.472 
" style="fill: none; stroke: #000000; stroke-width: 0.8; stroke-linejoin: miter; stroke-linecap: square"/>
   </g>
   <g id="text_14">
    <!-- Gustafson-like Scaling -->
    <g transform="translate(169.757812 35.472)scale(0.12 -0.12)">
     <defs>
      <path id="DejaVuSans-75" d="M 544 1381 
L 544 3500 
L 1119 3500 
L 1119 1403 
Q 1119 906 1312 657 
Q 1506 409 1894 409 
Q 2359 409 2629 706 
Q 2900 1003 2900 1516 
L 2900 3500 
L 3475 3500 
L 3475 0 
L 2900 0 
L 2900 538 
Q 2691 219 2414 64 
Q 2138 -91 1772 -91 
Q 1169 -91 856 284 
Q 544 659 544 1381 
z
M 1991 3584 
L 1991 3584 
z
" transform="scale(0.015625)"/>
      <path id="DejaVuSans-73" d="M 2834 3397 
L 2834 2853 
Q 2591 2978 2328 3040 
Q 2066 3103 1784 3103 
Q 1356 3103 1142 2972 
Q 928 2841 928 2578 
Q 928 2378 1081 2264 
Q 1234 2150 1697 2047 
L 1894 2003 
Q 2506 1872 2764 1633 
Q 3022 1394 3022 966 
Q 3022 478 2636 193 
Q 2250 -91 1575 -91 
Q 1294 -91 989 -36 
Q 684 19 347 128 
L 347 722 
Q 666 556 975 473 
Q 1284 391 1588 391 
Q 1994 391 2212 530 
Q 2431 669 2431 922 
Q 2431 1156 2273 1281 
Q 2116 1406 1581 1522 
L 1381 1569 
Q 847 1681 609 1914 
Q 372 2147 372 2553 
Q 372 3047 722 3315 
Q 1072 3584 1716 3584 
Q 2034 3584 2315 3537 
Q 2597 3491 2834 3397 
z
" transform="scale(0.015625)"/>
      <path id="DejaVuSans-74" d="M 1172 4494 
L 1172 3500 
L 2356 3500 
L 2356 3053 
L 1172 3053 
L 1172 1153 
Q 1172 725 1289 603 
Q 1406 481 1766 481 
L 2356 481 
L 2356 0 
L 1766 0 
Q 1100 0 847 248 
Q 594 497 594 1153 
L 594 3053 
L 172 3053 
L 172 3500 
L 594 3500 
L 594 4494 
L 1172 4494 
z
" transform="scale(0.015625)"/>
      <path id="DejaVuSans-66" d="M 2375 4863 
L 2375 4384 
L 1825 4384 
Q 1516 4384 1395 4259 
Q 1275 4134 1275 3809 
L 1275 3500 
L 2222 3500 
L 2222 3053 
L 1275 3053 
L 1275 0 
L 697 0 
L 697 3053 
L 147 3053 
L 147 3500 
L 697 3500 
L 697 3744 
Q 697 4328 969 4595 
Q 1241 4863 1831 4863 
L 2375 4863 
z
" transform="scale(0.015625)"/>
      <path id="DejaVuSans-6e" d="M 3513 2113 
L 3513 0 
L 2938 0 
L 2938 2094 
Q 2938 2591 2744 2837 
Q 2550 3084 2163 3084 
Q 1697 3084 1428 2787 
Q 1159 2491 1159 1978 
L 1159 0 
L 581 0 
L 581 3500 
L 1159 3500 
L 1159 2956 
Q 1366 3272 1645 3428 
Q 1925 3584 2291 3584 
Q 2894 3584 3203 3211 
Q 3513 2838 3513 2113 
z
" transform="scale(0.015625)"/>
      <path id="DejaVuSans-2d" d="M 313 2009 
L 1997 2009 
L 1997 1497 
L 313 1497 
L 313 2009 
z
" transform="scale(0.015625)"/>
      <path id="DejaVuSans-6b" d="M 581 4863 
L 1159 4863 
L 1159 1991 
L 2875 3500 
L 3609 3500 
L 1753 1863 
L 3688 0 
L 2938 0 
L 1159 1709 
L 1159 0 
L 581 0 
L 581 4863 
z
" transform="scale(0.015625)"/>
      <path id="DejaVuSans-63" d="M 3122 3366 
L 3122 2828 
Q 2878 2963 2633 3030 
Q 2388 3097 2138 3097 
Q 1578 3097 1268 2742 
Q 959 2388 959 1747 
Q 959 1106 1268 751 
Q 1578 397 2138 397 
Q 2388 397 2633 464 
Q 2878 531 3122 666 
L 3122 134 
Q 2881 22 2623 -34 
Q 2366 -91 2075 -91 
Q 1284 -91 818 406 
Q 353 903 353 1747 
Q 353 2603 823 3093 
Q 1294 3584 2113 3584 
Q 2378 3584 2631 3529 
Q 2884 3475 3122 3366 
z
" transform="scale(0.015625)"/>
      <path id="DejaVuSans-67" d="M 2906 1791 
Q 2906 2416 2648 2759 
Q 2391 3103 1925 3103 
Q 1463 3103 1205 2759 
Q 947 2416 947 1791 
Q 947 1169 1205 825 
Q 1463 481 1925 481 
Q 2391 481 2648 825 
Q 2906 1169 2906 1791 
z
M 3481 434 
Q 3481 -459 3084 -895 
Q 2688 -1331 1869 -1331 
Q 1566 -1331 1297 -1286 
Q 1028 -1241 775 -1147 
L 775 -588 
Q 1028 -725 1275 -790 
Q 1522 -856 1778 -856 
Q 2344 -856 2625 -561 
Q 2906 -266 2906 331 
L 2906 616 
Q 2728 306 2450 153 
Q 2172 0 1784 0 
Q 1141 0 747 490 
Q 353 981 353 1791 
Q 353 2603 747 3093 
Q 1141 3584 1784 3584 
Q 2172 3584 2450 3431 
Q 2728 3278 2906 2969 
L 2906 3500 
L 3481 3500 
L 3481 434 
z
" transform="scale(0.015625)"/>
     </defs>
     <use xlink:href="#DejaVuSans-47"/>
     <use xlink:href="#DejaVuSans-75" x="77.490234"/>
     <use xlink:href="#DejaVuSans-73" x="140.869141"/>
     <use xlink:href="#DejaVuSans-74" x="192.96875"/>
     <use xlink:href="#DejaVuSans-61" x="232.177734"/>
     <use xlink:href="#DejaVuSans-66" x="293.457031"/>
     <use xlink:href="#DejaVuSans-73" x="328.662109"/>
     <use xlink:href="#DejaVuSans-6f" x="380.761719"/>
     <use xlink:href="#DejaVuSans-6e" x="441.943359"/>
     <use xlink:href="#DejaVuSans-2d" x="505.322266"/>
     <use xlink:href="#DejaVuSans-6c" x="541.40625"/>
     <use xlink:href="#DejaVuSans-69" x="569.189453"/>
     <use xlink:href="#DejaVuSans-6b" x="596.972656"/>
     <use xlink:href="#DejaVuSans-65" x="651.257812"/>
     <use xlink:href="#DejaVuSans-20" x="712.78125"/>
     <use xlink:href="#DejaVuSans-53" x="744.568359"/>
     <use xlink:href="#DejaVuSans-63" x="808.044922"/>
     <use xlink:href="#DejaVuSans-61" x="863.025391"/>
     <use xlink:href="#DejaVuSans-6c" x="924.304688"/>
     <use xlink:href="#DejaVuSans-69" x="952.087891"/>
     <use xlink:href="#DejaVuSans-6e" x="979.871094"/>
     <use xlink:href="#DejaVuSans-67" x="1043.25"/>
    </g>
   </g>
   <g id="legend_1">
    <g id="patch_7">
     <path d="M 339.12 78.82825 
L 407.72 78.82825 
Q 409.72 78.82825 409.72 76.82825 
L 409.72 48.472 
Q 409.72 46.472 407.72 46.472 
L 339.12 46.472 
Q 337.12 46.472 337.12 48.472 
L 337.12 76.82825 
Q 337.12 78.82825 339.12 78.82825 
z
" style="fill: #ffffff; opacity: 0.8; stroke: #cccccc; stroke-linejoin: miter"/>
    </g>
    <g id="text_15">
     <!-- Cluster -->
     <g transform="translate(355.673906 58.070437)scale(0.1 -0.1)">
      <defs>
       <path id="DejaVuSans-43" d="M 4122 4306 
L 4122 3641 
Q 3803 3938 3442 4084 
Q 3081 4231 2675 4231 
Q 1875 4231 1450 3742 
Q 1025 3253 1025 2328 
Q 1025 1406 1450 917 
Q 1875 428 2675 428 
Q 3081 428 3442 575 
Q 3803 722 4122 1019 
L 4122 359 
Q 3791 134 3420 21 
Q 3050 -91 2638 -91 
Q 1578 -91 968 557 
Q 359 1206 359 2328 
Q 359 3453 968 4101 
Q 1578 4750 2638 4750 
Q 3056 4750 3426 4639 
Q 3797 4528 4122 4306 
z
" transform="scale(0.015625)"/>
      </defs>
      <use xlink:href="#DejaVuSans-43"/>
      <use xlink:href="#DejaVuSans-6c" x="69.824219"/>
      <use xlink:href="#DejaVuSans-75" x="97.607422"/>
      <use xlink:href="#DejaVuSans-73" x="160.986328"/>
      <use xlink:href="#DejaVuSans-74" x="213.085938"/>
      <use xlink:href="#DejaVuSans-65" x="252.294922"/>
      <use xlink:href="#DejaVuSans-72" x="313.818359"/>
     </g>
    </g>
    <g id="line2d_106">
     <path d="M 341.12 69.248562 
L 351.12 69.248562 
L 361.12 69.248562 
" style="fill: none; stroke: #1f77b4; stroke-width: 1.5; stroke-linecap: square"/>
    </g>
    <g id="text_16">
     <!-- Hopper -->
     <g transform="translate(369.12 72.748562)scale(0.1 -0.1)">
      <defs>
       <path id="DejaVuSans-48" d="M 628 4666 
L 1259 4666 
L 1259 2753 
L 3553 2753 
L 3553 4666 
L 4184 4666 
L 4184 0 
L 3553 0 
L 3553 2222 
L 1259 2222 
L 1259 0 
L 628 0 
L 628 4666 
z
" transform="scale(0.015625)"/>
       <path id="DejaVuSans-70" d="M 1159 525 
L 1159 -1331 
L 581 -1331 
L 581 3500 
L 1159 3500 
L 1159 2969 
Q 1341 3281 1617 3432 
Q 1894 3584 2278 3584 
Q 2916 3584 3314 3078 
Q 3713 2572 3713 1747 
Q 3713 922 3314 415 
Q 2916 -91 2278 -91 
Q 1894 -91 1617 61 
Q 1341 213 1159 525 
z
M 3116 1747 
Q 3116 2381 2855 2742 
Q 2594 3103 2138 3103 
Q 1681 3103 1420 2742 
Q 1159 2381 1159 1747 
Q 1159 1113 1420 752 
Q 1681 391 2138 391 
Q 2594 391 2855 752 
Q 3116 1113 3116 1747 
z
" transform="scale(0.015625)"/>
      </defs>
      <use xlink:href="#DejaVuSans-48"/>
      <use xlink:href="#DejaVuSans-6f" x="75.195312"/>
      <use xlink:href="#DejaVuSans-70" x="136.376953"/>
      <use xlink:href="#DejaVuSans-70" x="199.853516"/>
      <use xlink:href="#DejaVuSans-65" x="263.330078"/>
      <use xlink:href="#DejaVuSans-72" x="324.853516"/>
     </g>
    </g>
   </g>
  </g>
 </g>
 <defs>
  <clipPath id="p44fa62c13e">
   <rect x="57.6" y="41.472" width="357.12" height="266.112"/>
  </clipPath>
 </defs>
</svg>
