<?xml version="1.0" encoding="utf-8" standalone="no"?>
<!DOCTYPE svg PUBLIC "-//W3C//DTD SVG 1.1//EN"
  "http://www.w3.org/Graphics/SVG/1.1/DTD/svg11.dtd">
<svg xmlns:xlink="http://www.w3.org/1999/xlink" width="460.8pt" height="345.6pt" viewBox="0 0 460.8 345.6" xmlns="http://www.w3.org/2000/svg" version="1.1">
 <metadata>
  <rdf:RDF xmlns:dc="http://purl.org/dc/elements/1.1/" xmlns:cc="http://creativecommons.org/ns#" xmlns:rdf="http://www.w3.org/1999/02/22-rdf-syntax-ns#">
   <cc:Work>
    <dc:type rdf:resource="http://purl.org/dc/dcmitype/StillImage"/>
    <dc:date>2024-05-05T11:10:44.867915</dc:date>
    <dc:format>image/svg+xml</dc:format>
    <dc:creator>
     <cc:Agent>
      <dc:title>Matplotlib v3.5.3, https://matplotlib.org/</dc:title>
     </cc:Agent>
    </dc:creator>
   </cc:Work>
  </rdf:RDF>
 </metadata>
 <defs>
  <style type="text/css">*{stroke-linejoin: round; stroke-linecap: butt}</style>
 </defs>
 <g id="figure_1">
  <g id="patch_1">
   <path d="M 0 345.6 
L 460.8 345.6 
L 460.8 0 
L 0 0 
z
" style="fill: #ffffff"/>
  </g>
  <g id="axes_1">
   <g id="patch_2">
    <path d="M 57.6 307.584 
L 414.72 307.584 
L 414.72 41.472 
L 57.6 41.472 
z
" style="fill: #ffffff"/>
   </g>
   <g id="PolyCollection_1">
    <path d="M 73.832727 152.36966 
L 73.832727 227.155194 
L 106.012464 198.874132 
L 124.836403 172.32162 
L 138.1922 183.387364 
L 148.551761 154.908082 
L 157.016139 166.516528 
L 164.172668 295.488 
L 170.371936 167.754156 
L 180.731497 154.730605 
L 189.195875 159.428036 
L 196.352405 145.44959 
L 202.551673 150.913343 
L 208.019814 158.297511 
L 212.911234 147.869923 
L 221.375612 144.223907 
L 228.532141 144.985237 
L 231.735173 125.100406 
L 234.731409 138.263168 
L 240.199551 140.413986 
L 245.09097 135.487018 
L 247.35608 116.535794 
L 247.35608 114.211129 
L 247.35608 114.211129 
L 245.09097 120.769095 
L 240.199551 125.964332 
L 234.731409 126.508677 
L 231.735173 122.838291 
L 228.532141 124.397944 
L 221.375612 133.057006 
L 212.911234 133.775827 
L 208.019814 139.221128 
L 202.551673 141.480789 
L 196.352405 144.573019 
L 189.195875 151.107838 
L 180.731497 154.164574 
L 170.371936 153.537692 
L 164.172668 144.75607 
L 157.016139 149.724218 
L 148.551761 154.580336 
L 138.1922 145.854366 
L 124.836403 171.276821 
L 106.012464 183.195636 
L 73.832727 152.36966 
z
" clip-path="url(#p2bca29457e)" style="fill: #1f77b4; fill-opacity: 0.2; stroke: #1f77b4; stroke-opacity: 0.2"/>
    <path d="M 253.555348 119.18576 
L 253.555348 129.923677 
L 260.711877 119.326506 
L 263.914909 125.128104 
L 266.911145 119.373653 
L 272.379287 127.127904 
L 277.270706 122.402589 
L 279.535817 126.689966 
L 281.695534 111.11169 
L 285.735084 116.795099 
L 287.630268 124.096879 
L 291.203226 116.915302 
L 292.891614 106.818556 
L 296.094646 112.442698 
L 296.094646 104.733835 
L 296.094646 104.733835 
L 292.891614 103.128445 
L 291.203226 107.976714 
L 287.630268 111.507027 
L 285.735084 110.259449 
L 281.695534 110.573073 
L 279.535817 114.82334 
L 277.270706 114.365816 
L 272.379287 118.439789 
L 266.911145 105.843469 
L 263.914909 122.926734 
L 260.711877 104.257908 
L 253.555348 119.18576 
z
" clip-path="url(#p2bca29457e)" style="fill: #1f77b4; fill-opacity: 0.2; stroke: #1f77b4; stroke-opacity: 0.2"/>
    <path d="M 299.090882 99.151763 
L 299.090882 108.452697 
L 300.519473 103.518195 
L 303.251175 118.148966 
L 304.559023 107.655657 
L 309.450443 98.850315 
L 309.450443 93.046315 
L 309.450443 93.046315 
L 304.559023 99.206213 
L 303.251175 99.230206 
L 300.519473 101.724137 
L 299.090882 99.151763 
z
" clip-path="url(#p2bca29457e)" style="fill: #1f77b4; fill-opacity: 0.2; stroke: #1f77b4; stroke-opacity: 0.2"/>
    <path d="M 311.715553 94.185641 
L 311.715553 96.676322 
L 313.87527 105.746274 
L 314.918585 106.340882 
L 317.914821 98.341363 
L 319.810004 106.666404 
L 322.075114 90.701777 
L 323.382962 90.851347 
L 324.234831 88.307512 
L 325.07135 88.324453 
L 328.274382 86.376929 
L 330.539492 85.972181 
L 331.270618 80.344728 
L 332.699209 96.312117 
L 333.742524 98.660327 
L 335.430911 93.613099 
L 336.73876 84.397841 
L 336.73876 78.604049 
L 336.73876 78.604049 
L 335.430911 82.065321 
L 333.742524 83.613506 
L 332.699209 84.216244 
L 331.270618 78.763404 
L 330.539492 84.225133 
L 328.274382 83.53466 
L 325.07135 83.822202 
L 324.234831 86.75486 
L 323.382962 88.345882 
L 322.075114 89.258808 
L 319.810004 89.886116 
L 317.914821 90.495611 
L 314.918585 93.790824 
L 313.87527 90.720243 
L 311.715553 94.185641 
z
" clip-path="url(#p2bca29457e)" style="fill: #1f77b4; fill-opacity: 0.2; stroke: #1f77b4; stroke-opacity: 0.2"/>
    <path d="M 341.630179 73.632106 
L 341.630179 81.576378 
L 342.206901 79.681099 
L 343.895289 91.1259 
L 343.895289 79.56894 
L 343.895289 79.56894 
L 342.206901 77.869456 
L 341.630179 73.632106 
z
" clip-path="url(#p2bca29457e)" style="fill: #1f77b4; fill-opacity: 0.2; stroke: #1f77b4; stroke-opacity: 0.2"/>
    <path d="M 346.055006 70.350285 
L 346.055006 70.695432 
L 347.098321 83.360568 
L 349.363431 87.758137 
L 350.094557 74.260471 
L 350.094557 69.310026 
L 350.094557 69.310026 
L 349.363431 74.710578 
L 347.098321 73.63207 
L 346.055006 70.350285 
z
" clip-path="url(#p2bca29457e)" style="fill: #1f77b4; fill-opacity: 0.2; stroke: #1f77b4; stroke-opacity: 0.2"/>
    <path d="M 351.98974 71.213675 
L 351.98974 84.099519 
L 354.25485 86.12743 
L 355.562699 71.523359 
L 355.562699 69.106082 
L 355.562699 69.106082 
L 354.25485 71.338 
L 351.98974 71.213675 
z
" clip-path="url(#p2bca29457e)" style="fill: #1f77b4; fill-opacity: 0.2; stroke: #1f77b4; stroke-opacity: 0.2"/>
    <path d="M 357.251086 64.332294 
L 357.251086 69.748771 
L 357.251086 64.332294 
L 357.251086 64.332294 
z
" clip-path="url(#p2bca29457e)" style="fill: #1f77b4; fill-opacity: 0.2; stroke: #1f77b4; stroke-opacity: 0.2"/>
    <path d="M 360.454118 66.517252 
L 360.454118 69.147535 
L 360.454118 66.517252 
L 360.454118 66.517252 
z
" clip-path="url(#p2bca29457e)" style="fill: #1f77b4; fill-opacity: 0.2; stroke: #1f77b4; stroke-opacity: 0.2"/>
    <path d="M 362.719228 67.756927 
L 362.719228 68.093397 
L 362.719228 67.756927 
L 362.719228 67.756927 
z
" clip-path="url(#p2bca29457e)" style="fill: #1f77b4; fill-opacity: 0.2; stroke: #1f77b4; stroke-opacity: 0.2"/>
    <path d="M 364.878945 67.433302 
L 364.878945 77.349027 
L 365.92226 79.575431 
L 367.610648 78.420681 
L 368.918496 64.889949 
L 368.918496 58.858616 
L 368.918496 58.858616 
L 367.610648 63.155346 
L 365.92226 66.31595 
L 364.878945 67.433302 
z
" clip-path="url(#p2bca29457e)" style="fill: #1f77b4; fill-opacity: 0.2; stroke: #1f77b4; stroke-opacity: 0.2"/>
    <path d="M 373.078789 63.309113 
L 373.078789 64.70152 
L 373.809915 58.43641 
L 373.809915 56.847979 
L 373.809915 56.847979 
L 373.078789 63.309113 
z
" clip-path="url(#p2bca29457e)" style="fill: #1f77b4; fill-opacity: 0.2; stroke: #1f77b4; stroke-opacity: 0.2"/>
    <path d="M 379.278057 60.19866 
L 379.278057 72.310804 
L 379.278057 60.19866 
L 379.278057 60.19866 
z
" clip-path="url(#p2bca29457e)" style="fill: #1f77b4; fill-opacity: 0.2; stroke: #1f77b4; stroke-opacity: 0.2"/>
   </g>
   <g id="PolyCollection_2">
    <defs>
     <path id="macee626371" d="M 73.832727 -190.385383 
L 73.832727 -169.850503 
L 106.012464 -177.555456 
L 124.836403 -177.337162 
L 138.1922 -178.484915 
L 148.551761 -181.894026 
L 157.016139 -182.219234 
L 164.172668 -184.717694 
L 170.371936 -181.87954 
L 175.840078 -181.486423 
L 180.731497 -182.893374 
L 189.195875 -185.004576 
L 196.352405 -183.66371 
L 199.555437 -182.832914 
L 202.551673 -183.675369 
L 208.019814 -184.524778 
L 212.911234 -185.138689 
L 215.176344 -183.961962 
L 221.375612 -184.952512 
L 223.270795 -183.092801 
L 226.843753 -177.94244 
L 228.532141 -184.023633 
L 231.735173 -185.548927 
L 234.731409 -184.163662 
L 238.891702 -182.008996 
L 240.199551 -184.912304 
L 245.09097 -183.812843 
L 247.35608 -183.166775 
L 249.515797 -179.815644 
L 250.559112 -179.760721 
L 253.555348 -183.669053 
L 254.51261 -177.245195 
L 255.450531 -182.246154 
L 259.02349 -184.17587 
L 260.711877 -181.379906 
L 263.914909 -184.21714 
L 266.180019 -181.198559 
L 266.911145 -182.036708 
L 268.339736 -182.172662 
L 271.071439 -181.985302 
L 272.379287 -182.060529 
L 274.27447 -178.184886 
L 277.270706 -181.444177 
L 277.847429 -177.074444 
L 279.535817 -182.223455 
L 281.695534 -178.961659 
L 282.738848 -180.535172 
L 285.735084 -179.141496 
L 286.692346 -175.860164 
L 287.163675 -177.947197 
L 287.630268 -178.845092 
L 289.895378 -177.917097 
L 291.203226 -179.56517 
L 292.055095 -176.657554 
L 292.891614 -178.308216 
L 296.094646 -178.186383 
L 297.989829 -166.819525 
L 298.359756 -177.192505 
L 299.090882 -175.728431 
L 300.519473 -176.137354 
L 301.562787 -175.546688 
L 303.251175 -176.05062 
L 304.559023 -175.969777 
L 305.516285 -173.784506 
L 306.454207 -174.905926 
L 307.676002 -173.518383 
L 309.450443 -174.960128 
L 310.027165 -174.543248 
L 310.879034 -174.037801 
L 311.715553 -175.384746 
L 313.610736 -172.903925 
L 313.87527 -173.258426 
L 314.918585 -175.555643 
L 317.183695 -173.33819 
L 317.914821 -174.027373 
L 318.872082 -171.83322 
L 319.343412 -173.152936 
L 319.810004 -174.596367 
L 322.075114 -173.859323 
L 323.382962 -174.119324 
L 324.234831 -173.030548 
L 325.07135 -173.435564 
L 325.278146 -172.232233 
L 326.499941 -172.096832 
L 328.274382 -174.434067 
L 328.659658 -165.184933 
L 328.851104 -170.059794 
L 329.231644 -170.905261 
L 330.169565 -170.958437 
L 330.539492 -173.182603 
L 331.270618 -169.040317 
L 332.699209 -172.400647 
L 333.742524 -173.352757 
L 334.594392 -171.178022 
L 335.430911 -173.407681 
L 336.73876 -172.41268 
L 337.696021 -168.606165 
L 338.167351 -171.127088 
L 338.633943 -173.473313 
L 339.855738 -171.973013 
L 340.899053 -172.903451 
L 341.630179 -172.60802 
L 342.206901 -172.457837 
L 343.05877 -172.377714 
L 343.895289 -171.28037 
L 344.852551 -167.562025 
L 345.790473 -171.350088 
L 346.055006 -171.535883 
L 347.098321 -173.65796 
L 347.483597 -162.619398 
L 349.363431 -171.606645 
L 350.094557 -169.663271 
L 350.2153 -170.836183 
L 351.051819 -169.484866 
L 351.523148 -171.932227 
L 351.98974 -173.135553 
L 352.566463 -171.158377 
L 354.25485 -171.2873 
L 355.562699 -170.888526 
L 356.414568 -171.430284 
L 356.51996 -168.530013 
L 357.251086 -169.722723 
L 357.457882 -171.387947 
L 358.679678 -170.341008 
L 360.454118 -171.122414 
L 360.839395 -166.258154 
L 361.03084 -169.966839 
L 361.41138 -168.735699 
L 361.882709 -171.999591 
L 362.349302 -170.156698 
L 362.719228 -171.219936 
L 363.450354 -164.363432 
L 364.878945 -170.368006 
L 365.836207 -167.584988 
L 365.92226 -169.634154 
L 366.774129 -169.691435 
L 367.610648 -170.292879 
L 368.18737 -168.14251 
L 368.918496 -168.493896 
L 370.347087 -170.97722 
L 370.813679 -169.288361 
L 371.198956 -167.144916 
L 372.035475 -169.135396 
L 373.078789 -168.974629 
L 373.809915 -167.149371 
L 374.386638 -168.192086 
L 375.238507 -169.801228 
L 377.503617 -169.080506 
L 377.970209 -166.66605 
L 378.234743 -168.212397 
L 379.278057 -170.046404 
L 379.663334 -169.024171 
L 379.85478 -165.087827 
L 382.395036 -168.307955 
L 383.702884 -167.89051 
L 384.169477 -166.476599 
L 384.746199 -165.0067 
L 386.819863 -166.39527 
L 388.594304 -167.495906 
L 389.171026 -167.822708 
L 389.637618 -163.139473 
L 393.019131 -163.501072 
L 394.062446 -166.583575 
L 398.487273 -163.286479 
L 398.487273 -178.648905 
L 398.487273 -178.648905 
L 394.062446 -176.484972 
L 393.019131 -177.740003 
L 389.637618 -177.507292 
L 389.171026 -177.510046 
L 388.594304 -177.068859 
L 386.819863 -179.570832 
L 384.746199 -175.024061 
L 384.169477 -179.071449 
L 383.702884 -175.153425 
L 382.395036 -177.276015 
L 379.85478 -179.28612 
L 379.663334 -183.466572 
L 379.278057 -176.565858 
L 378.234743 -177.440269 
L 377.970209 -179.187181 
L 377.503617 -176.347442 
L 375.238507 -180.77832 
L 374.386638 -176.2312 
L 373.809915 -176.685702 
L 373.078789 -175.803669 
L 372.035475 -175.665182 
L 371.198956 -182.613893 
L 370.813679 -183.740777 
L 370.347087 -178.143176 
L 368.918496 -176.486037 
L 368.18737 -176.578673 
L 367.610648 -176.878054 
L 366.774129 -181.876093 
L 365.92226 -177.84843 
L 365.836207 -177.482289 
L 364.878945 -177.881873 
L 363.450354 -178.746057 
L 362.719228 -176.826284 
L 362.349302 -186.4522 
L 361.882709 -179.577273 
L 361.41138 -178.122079 
L 361.03084 -178.396891 
L 360.839395 -185.146137 
L 360.454118 -178.715764 
L 358.679678 -177.886986 
L 357.457882 -179.231729 
L 357.251086 -177.482055 
L 356.51996 -176.981521 
L 356.414568 -178.674657 
L 355.562699 -177.356536 
L 354.25485 -178.368451 
L 352.566463 -179.953909 
L 351.98974 -180.843173 
L 351.523148 -178.858664 
L 351.051819 -177.660344 
L 350.2153 -178.63744 
L 350.094557 -178.544165 
L 349.363431 -178.052238 
L 347.483597 -180.676716 
L 347.098321 -178.166566 
L 346.055006 -179.396129 
L 345.790473 -179.125175 
L 344.852551 -181.609477 
L 343.895289 -177.856175 
L 343.05877 -179.650801 
L 342.206901 -178.861785 
L 341.630179 -178.724169 
L 340.899053 -179.24827 
L 339.855738 -180.631887 
L 338.633943 -181.549111 
L 338.167351 -179.861794 
L 337.696021 -177.793579 
L 336.73876 -177.94209 
L 335.430911 -178.537045 
L 334.594392 -184.558732 
L 333.742524 -178.9175 
L 332.699209 -178.532007 
L 331.270618 -178.165499 
L 330.539492 -178.646174 
L 330.169565 -183.956384 
L 329.231644 -180.31301 
L 328.851104 -179.573265 
L 328.659658 -184.471558 
L 328.274382 -178.942529 
L 326.499941 -181.317725 
L 325.278146 -182.573556 
L 325.07135 -180.015069 
L 324.234831 -180.561501 
L 323.382962 -178.889033 
L 322.075114 -179.270936 
L 319.810004 -180.823737 
L 319.343412 -179.657283 
L 318.872082 -180.257972 
L 317.914821 -179.73754 
L 317.183695 -180.797267 
L 314.918585 -179.734966 
L 313.87527 -180.654504 
L 313.610736 -183.371367 
L 311.715553 -180.319705 
L 310.879034 -183.176171 
L 310.027165 -179.973128 
L 309.450443 -180.158544 
L 307.676002 -182.24292 
L 306.454207 -181.726563 
L 305.516285 -183.371075 
L 304.559023 -179.943051 
L 303.251175 -181.631868 
L 301.562787 -182.497384 
L 300.519473 -182.454171 
L 299.090882 -183.222489 
L 298.359756 -181.988676 
L 297.989829 -188.725123 
L 296.094646 -182.220917 
L 292.891614 -184.060471 
L 292.055095 -186.451612 
L 291.203226 -184.255722 
L 289.895378 -185.430388 
L 287.630268 -186.06308 
L 287.163675 -190.224159 
L 286.692346 -186.569664 
L 285.735084 -184.051142 
L 282.738848 -185.491253 
L 281.695534 -189.197897 
L 279.535817 -187.588004 
L 277.847429 -187.011713 
L 277.270706 -186.581538 
L 274.27447 -189.882343 
L 272.379287 -186.422805 
L 271.071439 -188.85732 
L 268.339736 -191.554856 
L 266.911145 -187.758806 
L 266.180019 -191.539856 
L 263.914909 -188.934178 
L 260.711877 -186.662099 
L 259.02349 -190.324948 
L 255.450531 -193.207482 
L 254.51261 -188.058975 
L 253.555348 -187.54177 
L 250.559112 -191.004286 
L 249.515797 -192.251771 
L 247.35608 -188.121918 
L 245.09097 -189.109787 
L 240.199551 -189.993093 
L 238.891702 -190.298873 
L 234.731409 -189.451422 
L 231.735173 -190.909441 
L 228.532141 -189.944773 
L 226.843753 -198.562705 
L 223.270795 -194.429827 
L 221.375612 -188.886724 
L 215.176344 -191.566774 
L 212.911234 -191.33367 
L 208.019814 -191.043084 
L 202.551673 -189.199781 
L 199.555437 -190.706935 
L 196.352405 -191.365304 
L 189.195875 -189.855636 
L 180.731497 -190.516668 
L 175.840078 -192.487652 
L 170.371936 -187.955799 
L 164.172668 -194.855659 
L 157.016139 -188.042429 
L 148.551761 -192.244281 
L 138.1922 -186.634459 
L 124.836403 -188.451863 
L 106.012464 -188.081556 
L 73.832727 -190.385383 
z
" style="stroke: #ff7f0e; stroke-opacity: 0.2"/>
    </defs>
    <g clip-path="url(#p2bca29457e)">
     <use xlink:href="#macee626371" x="0" y="345.6" style="fill: #ff7f0e; fill-opacity: 0.2; stroke: #ff7f0e; stroke-opacity: 0.2"/>
    </g>
   </g>
   <g id="matplotlib.axis_1">
    <g id="xtick_1">
     <g id="line2d_1">
      <defs>
       <path id="m5bd45a1c87" d="M 0 0 
L 0 3.5 
" style="stroke: #000000; stroke-width: 0.8"/>
      </defs>
      <g>
       <use xlink:href="#m5bd45a1c87" x="104.911411" y="307.584" style="stroke: #000000; stroke-width: 0.8"/>
      </g>
     </g>
     <g id="text_1">
      <!-- $\mathdefault{10^{3}}$ -->
      <g transform="translate(96.111411 322.182437)scale(0.1 -0.1)">
       <defs>
        <path id="DejaVuSans-31" d="M 794 531 
L 1825 531 
L 1825 4091 
L 703 3866 
L 703 4441 
L 1819 4666 
L 2450 4666 
L 2450 531 
L 3481 531 
L 3481 0 
L 794 0 
L 794 531 
z
" transform="scale(0.015625)"/>
        <path id="DejaVuSans-30" d="M 2034 4250 
Q 1547 4250 1301 3770 
Q 1056 3291 1056 2328 
Q 1056 1369 1301 889 
Q 1547 409 2034 409 
Q 2525 409 2770 889 
Q 3016 1369 3016 2328 
Q 3016 3291 2770 3770 
Q 2525 4250 2034 4250 
z
M 2034 4750 
Q 2819 4750 3233 4129 
Q 3647 3509 3647 2328 
Q 3647 1150 3233 529 
Q 2819 -91 2034 -91 
Q 1250 -91 836 529 
Q 422 1150 422 2328 
Q 422 3509 836 4129 
Q 1250 4750 2034 4750 
z
" transform="scale(0.015625)"/>
        <path id="DejaVuSans-33" d="M 2597 2516 
Q 3050 2419 3304 2112 
Q 3559 1806 3559 1356 
Q 3559 666 3084 287 
Q 2609 -91 1734 -91 
Q 1441 -91 1130 -33 
Q 819 25 488 141 
L 488 750 
Q 750 597 1062 519 
Q 1375 441 1716 441 
Q 2309 441 2620 675 
Q 2931 909 2931 1356 
Q 2931 1769 2642 2001 
Q 2353 2234 1838 2234 
L 1294 2234 
L 1294 2753 
L 1863 2753 
Q 2328 2753 2575 2939 
Q 2822 3125 2822 3475 
Q 2822 3834 2567 4026 
Q 2313 4219 1838 4219 
Q 1578 4219 1281 4162 
Q 984 4106 628 3988 
L 628 4550 
Q 988 4650 1302 4700 
Q 1616 4750 1894 4750 
Q 2613 4750 3031 4423 
Q 3450 4097 3450 3541 
Q 3450 3153 3228 2886 
Q 3006 2619 2597 2516 
z
" transform="scale(0.015625)"/>
       </defs>
       <use xlink:href="#DejaVuSans-31" transform="translate(0 0.765625)"/>
       <use xlink:href="#DejaVuSans-30" transform="translate(63.623047 0.765625)"/>
       <use xlink:href="#DejaVuSans-33" transform="translate(128.203125 39.046875)scale(0.7)"/>
      </g>
     </g>
    </g>
    <g id="xtick_2">
     <g id="line2d_2">
      <g>
       <use xlink:href="#m5bd45a1c87" x="211.810181" y="307.584" style="stroke: #000000; stroke-width: 0.8"/>
      </g>
     </g>
     <g id="text_2">
      <!-- $\mathdefault{10^{4}}$ -->
      <g transform="translate(203.010181 322.182437)scale(0.1 -0.1)">
       <defs>
        <path id="DejaVuSans-34" d="M 2419 4116 
L 825 1625 
L 2419 1625 
L 2419 4116 
z
M 2253 4666 
L 3047 4666 
L 3047 1625 
L 3713 1625 
L 3713 1100 
L 3047 1100 
L 3047 0 
L 2419 0 
L 2419 1100 
L 313 1100 
L 313 1709 
L 2253 4666 
z
" transform="scale(0.015625)"/>
       </defs>
       <use xlink:href="#DejaVuSans-31" transform="translate(0 0.684375)"/>
       <use xlink:href="#DejaVuSans-30" transform="translate(63.623047 0.684375)"/>
       <use xlink:href="#DejaVuSans-34" transform="translate(128.203125 38.965625)scale(0.7)"/>
      </g>
     </g>
    </g>
    <g id="xtick_3">
     <g id="line2d_3">
      <g>
       <use xlink:href="#m5bd45a1c87" x="318.708951" y="307.584" style="stroke: #000000; stroke-width: 0.8"/>
      </g>
     </g>
     <g id="text_3">
      <!-- $\mathdefault{10^{5}}$ -->
      <g transform="translate(309.908951 322.182437)scale(0.1 -0.1)">
       <defs>
        <path id="DejaVuSans-35" d="M 691 4666 
L 3169 4666 
L 3169 4134 
L 1269 4134 
L 1269 2991 
Q 1406 3038 1543 3061 
Q 1681 3084 1819 3084 
Q 2600 3084 3056 2656 
Q 3513 2228 3513 1497 
Q 3513 744 3044 326 
Q 2575 -91 1722 -91 
Q 1428 -91 1123 -41 
Q 819 9 494 109 
L 494 744 
Q 775 591 1075 516 
Q 1375 441 1709 441 
Q 2250 441 2565 725 
Q 2881 1009 2881 1497 
Q 2881 1984 2565 2268 
Q 2250 2553 1709 2553 
Q 1456 2553 1204 2497 
Q 953 2441 691 2322 
L 691 4666 
z
" transform="scale(0.015625)"/>
       </defs>
       <use xlink:href="#DejaVuSans-31" transform="translate(0 0.684375)"/>
       <use xlink:href="#DejaVuSans-30" transform="translate(63.623047 0.684375)"/>
       <use xlink:href="#DejaVuSans-35" transform="translate(128.203125 38.965625)scale(0.7)"/>
      </g>
     </g>
    </g>
    <g id="xtick_4">
     <g id="line2d_4">
      <defs>
       <path id="me0566b5ac5" d="M 0 0 
L 0 2 
" style="stroke: #000000; stroke-width: 0.6"/>
      </defs>
      <g>
       <use xlink:href="#me0566b5ac5" x="62.372113" y="307.584" style="stroke: #000000; stroke-width: 0.6"/>
      </g>
     </g>
    </g>
    <g id="xtick_5">
     <g id="line2d_5">
      <g>
       <use xlink:href="#me0566b5ac5" x="72.731675" y="307.584" style="stroke: #000000; stroke-width: 0.6"/>
      </g>
     </g>
    </g>
    <g id="xtick_6">
     <g id="line2d_6">
      <g>
       <use xlink:href="#me0566b5ac5" x="81.196052" y="307.584" style="stroke: #000000; stroke-width: 0.6"/>
      </g>
     </g>
    </g>
    <g id="xtick_7">
     <g id="line2d_7">
      <g>
       <use xlink:href="#me0566b5ac5" x="88.352582" y="307.584" style="stroke: #000000; stroke-width: 0.6"/>
      </g>
     </g>
    </g>
    <g id="xtick_8">
     <g id="line2d_8">
      <g>
       <use xlink:href="#me0566b5ac5" x="94.55185" y="307.584" style="stroke: #000000; stroke-width: 0.6"/>
      </g>
     </g>
    </g>
    <g id="xtick_9">
     <g id="line2d_9">
      <g>
       <use xlink:href="#me0566b5ac5" x="100.019991" y="307.584" style="stroke: #000000; stroke-width: 0.6"/>
      </g>
     </g>
    </g>
    <g id="xtick_10">
     <g id="line2d_10">
      <g>
       <use xlink:href="#me0566b5ac5" x="137.091147" y="307.584" style="stroke: #000000; stroke-width: 0.6"/>
      </g>
     </g>
    </g>
    <g id="xtick_11">
     <g id="line2d_11">
      <g>
       <use xlink:href="#me0566b5ac5" x="155.915086" y="307.584" style="stroke: #000000; stroke-width: 0.6"/>
      </g>
     </g>
    </g>
    <g id="xtick_12">
     <g id="line2d_12">
      <g>
       <use xlink:href="#me0566b5ac5" x="169.270884" y="307.584" style="stroke: #000000; stroke-width: 0.6"/>
      </g>
     </g>
    </g>
    <g id="xtick_13">
     <g id="line2d_13">
      <g>
       <use xlink:href="#me0566b5ac5" x="179.630445" y="307.584" style="stroke: #000000; stroke-width: 0.6"/>
      </g>
     </g>
    </g>
    <g id="xtick_14">
     <g id="line2d_14">
      <g>
       <use xlink:href="#me0566b5ac5" x="188.094823" y="307.584" style="stroke: #000000; stroke-width: 0.6"/>
      </g>
     </g>
    </g>
    <g id="xtick_15">
     <g id="line2d_15">
      <g>
       <use xlink:href="#me0566b5ac5" x="195.251352" y="307.584" style="stroke: #000000; stroke-width: 0.6"/>
      </g>
     </g>
    </g>
    <g id="xtick_16">
     <g id="line2d_16">
      <g>
       <use xlink:href="#me0566b5ac5" x="201.45062" y="307.584" style="stroke: #000000; stroke-width: 0.6"/>
      </g>
     </g>
    </g>
    <g id="xtick_17">
     <g id="line2d_17">
      <g>
       <use xlink:href="#me0566b5ac5" x="206.918762" y="307.584" style="stroke: #000000; stroke-width: 0.6"/>
      </g>
     </g>
    </g>
    <g id="xtick_18">
     <g id="line2d_18">
      <g>
       <use xlink:href="#me0566b5ac5" x="243.989917" y="307.584" style="stroke: #000000; stroke-width: 0.6"/>
      </g>
     </g>
    </g>
    <g id="xtick_19">
     <g id="line2d_19">
      <g>
       <use xlink:href="#me0566b5ac5" x="262.813856" y="307.584" style="stroke: #000000; stroke-width: 0.6"/>
      </g>
     </g>
    </g>
    <g id="xtick_20">
     <g id="line2d_20">
      <g>
       <use xlink:href="#me0566b5ac5" x="276.169654" y="307.584" style="stroke: #000000; stroke-width: 0.6"/>
      </g>
     </g>
    </g>
    <g id="xtick_21">
     <g id="line2d_21">
      <g>
       <use xlink:href="#me0566b5ac5" x="286.529215" y="307.584" style="stroke: #000000; stroke-width: 0.6"/>
      </g>
     </g>
    </g>
    <g id="xtick_22">
     <g id="line2d_22">
      <g>
       <use xlink:href="#me0566b5ac5" x="294.993593" y="307.584" style="stroke: #000000; stroke-width: 0.6"/>
      </g>
     </g>
    </g>
    <g id="xtick_23">
     <g id="line2d_23">
      <g>
       <use xlink:href="#me0566b5ac5" x="302.150122" y="307.584" style="stroke: #000000; stroke-width: 0.6"/>
      </g>
     </g>
    </g>
    <g id="xtick_24">
     <g id="line2d_24">
      <g>
       <use xlink:href="#me0566b5ac5" x="308.34939" y="307.584" style="stroke: #000000; stroke-width: 0.6"/>
      </g>
     </g>
    </g>
    <g id="xtick_25">
     <g id="line2d_25">
      <g>
       <use xlink:href="#me0566b5ac5" x="313.817532" y="307.584" style="stroke: #000000; stroke-width: 0.6"/>
      </g>
     </g>
    </g>
    <g id="xtick_26">
     <g id="line2d_26">
      <g>
       <use xlink:href="#me0566b5ac5" x="350.888688" y="307.584" style="stroke: #000000; stroke-width: 0.6"/>
      </g>
     </g>
    </g>
    <g id="xtick_27">
     <g id="line2d_27">
      <g>
       <use xlink:href="#me0566b5ac5" x="369.712627" y="307.584" style="stroke: #000000; stroke-width: 0.6"/>
      </g>
     </g>
    </g>
    <g id="xtick_28">
     <g id="line2d_28">
      <g>
       <use xlink:href="#me0566b5ac5" x="383.068424" y="307.584" style="stroke: #000000; stroke-width: 0.6"/>
      </g>
     </g>
    </g>
    <g id="xtick_29">
     <g id="line2d_29">
      <g>
       <use xlink:href="#me0566b5ac5" x="393.427985" y="307.584" style="stroke: #000000; stroke-width: 0.6"/>
      </g>
     </g>
    </g>
    <g id="xtick_30">
     <g id="line2d_30">
      <g>
       <use xlink:href="#me0566b5ac5" x="401.892363" y="307.584" style="stroke: #000000; stroke-width: 0.6"/>
      </g>
     </g>
    </g>
    <g id="xtick_31">
     <g id="line2d_31">
      <g>
       <use xlink:href="#me0566b5ac5" x="409.048893" y="307.584" style="stroke: #000000; stroke-width: 0.6"/>
      </g>
     </g>
    </g>
    <g id="text_4">
     <!-- Problem Size -->
     <g transform="translate(203.867031 335.860562)scale(0.1 -0.1)">
      <defs>
       <path id="DejaVuSans-50" d="M 1259 4147 
L 1259 2394 
L 2053 2394 
Q 2494 2394 2734 2622 
Q 2975 2850 2975 3272 
Q 2975 3691 2734 3919 
Q 2494 4147 2053 4147 
L 1259 4147 
z
M 628 4666 
L 2053 4666 
Q 2838 4666 3239 4311 
Q 3641 3956 3641 3272 
Q 3641 2581 3239 2228 
Q 2838 1875 2053 1875 
L 1259 1875 
L 1259 0 
L 628 0 
L 628 4666 
z
" transform="scale(0.015625)"/>
       <path id="DejaVuSans-72" d="M 2631 2963 
Q 2534 3019 2420 3045 
Q 2306 3072 2169 3072 
Q 1681 3072 1420 2755 
Q 1159 2438 1159 1844 
L 1159 0 
L 581 0 
L 581 3500 
L 1159 3500 
L 1159 2956 
Q 1341 3275 1631 3429 
Q 1922 3584 2338 3584 
Q 2397 3584 2469 3576 
Q 2541 3569 2628 3553 
L 2631 2963 
z
" transform="scale(0.015625)"/>
       <path id="DejaVuSans-6f" d="M 1959 3097 
Q 1497 3097 1228 2736 
Q 959 2375 959 1747 
Q 959 1119 1226 758 
Q 1494 397 1959 397 
Q 2419 397 2687 759 
Q 2956 1122 2956 1747 
Q 2956 2369 2687 2733 
Q 2419 3097 1959 3097 
z
M 1959 3584 
Q 2709 3584 3137 3096 
Q 3566 2609 3566 1747 
Q 3566 888 3137 398 
Q 2709 -91 1959 -91 
Q 1206 -91 779 398 
Q 353 888 353 1747 
Q 353 2609 779 3096 
Q 1206 3584 1959 3584 
z
" transform="scale(0.015625)"/>
       <path id="DejaVuSans-62" d="M 3116 1747 
Q 3116 2381 2855 2742 
Q 2594 3103 2138 3103 
Q 1681 3103 1420 2742 
Q 1159 2381 1159 1747 
Q 1159 1113 1420 752 
Q 1681 391 2138 391 
Q 2594 391 2855 752 
Q 3116 1113 3116 1747 
z
M 1159 2969 
Q 1341 3281 1617 3432 
Q 1894 3584 2278 3584 
Q 2916 3584 3314 3078 
Q 3713 2572 3713 1747 
Q 3713 922 3314 415 
Q 2916 -91 2278 -91 
Q 1894 -91 1617 61 
Q 1341 213 1159 525 
L 1159 0 
L 581 0 
L 581 4863 
L 1159 4863 
L 1159 2969 
z
" transform="scale(0.015625)"/>
       <path id="DejaVuSans-6c" d="M 603 4863 
L 1178 4863 
L 1178 0 
L 603 0 
L 603 4863 
z
" transform="scale(0.015625)"/>
       <path id="DejaVuSans-65" d="M 3597 1894 
L 3597 1613 
L 953 1613 
Q 991 1019 1311 708 
Q 1631 397 2203 397 
Q 2534 397 2845 478 
Q 3156 559 3463 722 
L 3463 178 
Q 3153 47 2828 -22 
Q 2503 -91 2169 -91 
Q 1331 -91 842 396 
Q 353 884 353 1716 
Q 353 2575 817 3079 
Q 1281 3584 2069 3584 
Q 2775 3584 3186 3129 
Q 3597 2675 3597 1894 
z
M 3022 2063 
Q 3016 2534 2758 2815 
Q 2500 3097 2075 3097 
Q 1594 3097 1305 2825 
Q 1016 2553 972 2059 
L 3022 2063 
z
" transform="scale(0.015625)"/>
       <path id="DejaVuSans-6d" d="M 3328 2828 
Q 3544 3216 3844 3400 
Q 4144 3584 4550 3584 
Q 5097 3584 5394 3201 
Q 5691 2819 5691 2113 
L 5691 0 
L 5113 0 
L 5113 2094 
Q 5113 2597 4934 2840 
Q 4756 3084 4391 3084 
Q 3944 3084 3684 2787 
Q 3425 2491 3425 1978 
L 3425 0 
L 2847 0 
L 2847 2094 
Q 2847 2600 2669 2842 
Q 2491 3084 2119 3084 
Q 1678 3084 1418 2786 
Q 1159 2488 1159 1978 
L 1159 0 
L 581 0 
L 581 3500 
L 1159 3500 
L 1159 2956 
Q 1356 3278 1631 3431 
Q 1906 3584 2284 3584 
Q 2666 3584 2933 3390 
Q 3200 3197 3328 2828 
z
" transform="scale(0.015625)"/>
       <path id="DejaVuSans-20" transform="scale(0.015625)"/>
       <path id="DejaVuSans-53" d="M 3425 4513 
L 3425 3897 
Q 3066 4069 2747 4153 
Q 2428 4238 2131 4238 
Q 1616 4238 1336 4038 
Q 1056 3838 1056 3469 
Q 1056 3159 1242 3001 
Q 1428 2844 1947 2747 
L 2328 2669 
Q 3034 2534 3370 2195 
Q 3706 1856 3706 1288 
Q 3706 609 3251 259 
Q 2797 -91 1919 -91 
Q 1588 -91 1214 -16 
Q 841 59 441 206 
L 441 856 
Q 825 641 1194 531 
Q 1563 422 1919 422 
Q 2459 422 2753 634 
Q 3047 847 3047 1241 
Q 3047 1584 2836 1778 
Q 2625 1972 2144 2069 
L 1759 2144 
Q 1053 2284 737 2584 
Q 422 2884 422 3419 
Q 422 4038 858 4394 
Q 1294 4750 2059 4750 
Q 2388 4750 2728 4690 
Q 3069 4631 3425 4513 
z
" transform="scale(0.015625)"/>
       <path id="DejaVuSans-69" d="M 603 3500 
L 1178 3500 
L 1178 0 
L 603 0 
L 603 3500 
z
M 603 4863 
L 1178 4863 
L 1178 4134 
L 603 4134 
L 603 4863 
z
" transform="scale(0.015625)"/>
       <path id="DejaVuSans-7a" d="M 353 3500 
L 3084 3500 
L 3084 2975 
L 922 459 
L 3084 459 
L 3084 0 
L 275 0 
L 275 525 
L 2438 3041 
L 353 3041 
L 353 3500 
z
" transform="scale(0.015625)"/>
      </defs>
      <use xlink:href="#DejaVuSans-50"/>
      <use xlink:href="#DejaVuSans-72" x="58.552734"/>
      <use xlink:href="#DejaVuSans-6f" x="97.416016"/>
      <use xlink:href="#DejaVuSans-62" x="158.597656"/>
      <use xlink:href="#DejaVuSans-6c" x="222.074219"/>
      <use xlink:href="#DejaVuSans-65" x="249.857422"/>
      <use xlink:href="#DejaVuSans-6d" x="311.380859"/>
      <use xlink:href="#DejaVuSans-20" x="408.792969"/>
      <use xlink:href="#DejaVuSans-53" x="440.580078"/>
      <use xlink:href="#DejaVuSans-69" x="504.056641"/>
      <use xlink:href="#DejaVuSans-7a" x="531.839844"/>
      <use xlink:href="#DejaVuSans-65" x="584.330078"/>
     </g>
    </g>
   </g>
   <g id="matplotlib.axis_2">
    <g id="ytick_1">
     <g id="line2d_32">
      <defs>
       <path id="m64c997693c" d="M 0 0 
L -3.5 0 
" style="stroke: #000000; stroke-width: 0.8"/>
      </defs>
      <g>
       <use xlink:href="#m64c997693c" x="57.6" y="273.996363" style="stroke: #000000; stroke-width: 0.8"/>
      </g>
     </g>
     <g id="text_5">
      <!-- $\mathdefault{10^{-1}}$ -->
      <g transform="translate(27.1 277.795582)scale(0.1 -0.1)">
       <defs>
        <path id="DejaVuSans-2212" d="M 678 2272 
L 4684 2272 
L 4684 1741 
L 678 1741 
L 678 2272 
z
" transform="scale(0.015625)"/>
       </defs>
       <use xlink:href="#DejaVuSans-31" transform="translate(0 0.684375)"/>
       <use xlink:href="#DejaVuSans-30" transform="translate(63.623047 0.684375)"/>
       <use xlink:href="#DejaVuSans-2212" transform="translate(128.203125 38.965625)scale(0.7)"/>
       <use xlink:href="#DejaVuSans-31" transform="translate(186.855469 38.965625)scale(0.7)"/>
      </g>
     </g>
    </g>
    <g id="ytick_2">
     <g id="line2d_33">
      <g>
       <use xlink:href="#m64c997693c" x="57.6" y="200.658418" style="stroke: #000000; stroke-width: 0.8"/>
      </g>
     </g>
     <g id="text_6">
      <!-- $\mathdefault{10^{0}}$ -->
      <g transform="translate(33 204.457637)scale(0.1 -0.1)">
       <use xlink:href="#DejaVuSans-31" transform="translate(0 0.765625)"/>
       <use xlink:href="#DejaVuSans-30" transform="translate(63.623047 0.765625)"/>
       <use xlink:href="#DejaVuSans-30" transform="translate(128.203125 39.046875)scale(0.7)"/>
      </g>
     </g>
    </g>
    <g id="ytick_3">
     <g id="line2d_34">
      <g>
       <use xlink:href="#m64c997693c" x="57.6" y="127.320474" style="stroke: #000000; stroke-width: 0.8"/>
      </g>
     </g>
     <g id="text_7">
      <!-- $\mathdefault{10^{1}}$ -->
      <g transform="translate(33 131.119693)scale(0.1 -0.1)">
       <use xlink:href="#DejaVuSans-31" transform="translate(0 0.684375)"/>
       <use xlink:href="#DejaVuSans-30" transform="translate(63.623047 0.684375)"/>
       <use xlink:href="#DejaVuSans-31" transform="translate(128.203125 38.965625)scale(0.7)"/>
      </g>
     </g>
    </g>
    <g id="ytick_4">
     <g id="line2d_35">
      <g>
       <use xlink:href="#m64c997693c" x="57.6" y="53.982529" style="stroke: #000000; stroke-width: 0.8"/>
      </g>
     </g>
     <g id="text_8">
      <!-- $\mathdefault{10^{2}}$ -->
      <g transform="translate(33 57.781748)scale(0.1 -0.1)">
       <defs>
        <path id="DejaVuSans-32" d="M 1228 531 
L 3431 531 
L 3431 0 
L 469 0 
L 469 531 
Q 828 903 1448 1529 
Q 2069 2156 2228 2338 
Q 2531 2678 2651 2914 
Q 2772 3150 2772 3378 
Q 2772 3750 2511 3984 
Q 2250 4219 1831 4219 
Q 1534 4219 1204 4116 
Q 875 4013 500 3803 
L 500 4441 
Q 881 4594 1212 4672 
Q 1544 4750 1819 4750 
Q 2544 4750 2975 4387 
Q 3406 4025 3406 3419 
Q 3406 3131 3298 2873 
Q 3191 2616 2906 2266 
Q 2828 2175 2409 1742 
Q 1991 1309 1228 531 
z
" transform="scale(0.015625)"/>
       </defs>
       <use xlink:href="#DejaVuSans-31" transform="translate(0 0.765625)"/>
       <use xlink:href="#DejaVuSans-30" transform="translate(63.623047 0.765625)"/>
       <use xlink:href="#DejaVuSans-32" transform="translate(128.203125 39.046875)scale(0.7)"/>
      </g>
     </g>
    </g>
    <g id="ytick_5">
     <g id="line2d_36">
      <defs>
       <path id="m313d6c1cec" d="M 0 0 
L -2 0 
" style="stroke: #000000; stroke-width: 0.6"/>
      </defs>
      <g>
       <use xlink:href="#m313d6c1cec" x="57.6" y="303.180465" style="stroke: #000000; stroke-width: 0.6"/>
      </g>
     </g>
    </g>
    <g id="ytick_6">
     <g id="line2d_37">
      <g>
       <use xlink:href="#m313d6c1cec" x="57.6" y="296.073284" style="stroke: #000000; stroke-width: 0.6"/>
      </g>
     </g>
    </g>
    <g id="ytick_7">
     <g id="line2d_38">
      <g>
       <use xlink:href="#m313d6c1cec" x="57.6" y="290.266294" style="stroke: #000000; stroke-width: 0.6"/>
      </g>
     </g>
    </g>
    <g id="ytick_8">
     <g id="line2d_39">
      <g>
       <use xlink:href="#m313d6c1cec" x="57.6" y="285.356554" style="stroke: #000000; stroke-width: 0.6"/>
      </g>
     </g>
    </g>
    <g id="ytick_9">
     <g id="line2d_40">
      <g>
       <use xlink:href="#m313d6c1cec" x="57.6" y="281.103544" style="stroke: #000000; stroke-width: 0.6"/>
      </g>
     </g>
    </g>
    <g id="ytick_10">
     <g id="line2d_41">
      <g>
       <use xlink:href="#m313d6c1cec" x="57.6" y="277.352123" style="stroke: #000000; stroke-width: 0.6"/>
      </g>
     </g>
    </g>
    <g id="ytick_11">
     <g id="line2d_42">
      <g>
       <use xlink:href="#m313d6c1cec" x="57.6" y="251.919442" style="stroke: #000000; stroke-width: 0.6"/>
      </g>
     </g>
    </g>
    <g id="ytick_12">
     <g id="line2d_43">
      <g>
       <use xlink:href="#m313d6c1cec" x="57.6" y="239.005271" style="stroke: #000000; stroke-width: 0.6"/>
      </g>
     </g>
    </g>
    <g id="ytick_13">
     <g id="line2d_44">
      <g>
       <use xlink:href="#m313d6c1cec" x="57.6" y="229.842521" style="stroke: #000000; stroke-width: 0.6"/>
      </g>
     </g>
    </g>
    <g id="ytick_14">
     <g id="line2d_45">
      <g>
       <use xlink:href="#m313d6c1cec" x="57.6" y="222.73534" style="stroke: #000000; stroke-width: 0.6"/>
      </g>
     </g>
    </g>
    <g id="ytick_15">
     <g id="line2d_46">
      <g>
       <use xlink:href="#m313d6c1cec" x="57.6" y="216.92835" style="stroke: #000000; stroke-width: 0.6"/>
      </g>
     </g>
    </g>
    <g id="ytick_16">
     <g id="line2d_47">
      <g>
       <use xlink:href="#m313d6c1cec" x="57.6" y="212.01861" style="stroke: #000000; stroke-width: 0.6"/>
      </g>
     </g>
    </g>
    <g id="ytick_17">
     <g id="line2d_48">
      <g>
       <use xlink:href="#m313d6c1cec" x="57.6" y="207.7656" style="stroke: #000000; stroke-width: 0.6"/>
      </g>
     </g>
    </g>
    <g id="ytick_18">
     <g id="line2d_49">
      <g>
       <use xlink:href="#m313d6c1cec" x="57.6" y="204.014179" style="stroke: #000000; stroke-width: 0.6"/>
      </g>
     </g>
    </g>
    <g id="ytick_19">
     <g id="line2d_50">
      <g>
       <use xlink:href="#m313d6c1cec" x="57.6" y="178.581497" style="stroke: #000000; stroke-width: 0.6"/>
      </g>
     </g>
    </g>
    <g id="ytick_20">
     <g id="line2d_51">
      <g>
       <use xlink:href="#m313d6c1cec" x="57.6" y="165.667326" style="stroke: #000000; stroke-width: 0.6"/>
      </g>
     </g>
    </g>
    <g id="ytick_21">
     <g id="line2d_52">
      <g>
       <use xlink:href="#m313d6c1cec" x="57.6" y="156.504576" style="stroke: #000000; stroke-width: 0.6"/>
      </g>
     </g>
    </g>
    <g id="ytick_22">
     <g id="line2d_53">
      <g>
       <use xlink:href="#m313d6c1cec" x="57.6" y="149.397395" style="stroke: #000000; stroke-width: 0.6"/>
      </g>
     </g>
    </g>
    <g id="ytick_23">
     <g id="line2d_54">
      <g>
       <use xlink:href="#m313d6c1cec" x="57.6" y="143.590405" style="stroke: #000000; stroke-width: 0.6"/>
      </g>
     </g>
    </g>
    <g id="ytick_24">
     <g id="line2d_55">
      <g>
       <use xlink:href="#m313d6c1cec" x="57.6" y="138.680665" style="stroke: #000000; stroke-width: 0.6"/>
      </g>
     </g>
    </g>
    <g id="ytick_25">
     <g id="line2d_56">
      <g>
       <use xlink:href="#m313d6c1cec" x="57.6" y="134.427655" style="stroke: #000000; stroke-width: 0.6"/>
      </g>
     </g>
    </g>
    <g id="ytick_26">
     <g id="line2d_57">
      <g>
       <use xlink:href="#m313d6c1cec" x="57.6" y="130.676234" style="stroke: #000000; stroke-width: 0.6"/>
      </g>
     </g>
    </g>
    <g id="ytick_27">
     <g id="line2d_58">
      <g>
       <use xlink:href="#m313d6c1cec" x="57.6" y="105.243553" style="stroke: #000000; stroke-width: 0.6"/>
      </g>
     </g>
    </g>
    <g id="ytick_28">
     <g id="line2d_59">
      <g>
       <use xlink:href="#m313d6c1cec" x="57.6" y="92.329382" style="stroke: #000000; stroke-width: 0.6"/>
      </g>
     </g>
    </g>
    <g id="ytick_29">
     <g id="line2d_60">
      <g>
       <use xlink:href="#m313d6c1cec" x="57.6" y="83.166632" style="stroke: #000000; stroke-width: 0.6"/>
      </g>
     </g>
    </g>
    <g id="ytick_30">
     <g id="line2d_61">
      <g>
       <use xlink:href="#m313d6c1cec" x="57.6" y="76.05945" style="stroke: #000000; stroke-width: 0.6"/>
      </g>
     </g>
    </g>
    <g id="ytick_31">
     <g id="line2d_62">
      <g>
       <use xlink:href="#m313d6c1cec" x="57.6" y="70.252461" style="stroke: #000000; stroke-width: 0.6"/>
      </g>
     </g>
    </g>
    <g id="ytick_32">
     <g id="line2d_63">
      <g>
       <use xlink:href="#m313d6c1cec" x="57.6" y="65.342721" style="stroke: #000000; stroke-width: 0.6"/>
      </g>
     </g>
    </g>
    <g id="ytick_33">
     <g id="line2d_64">
      <g>
       <use xlink:href="#m313d6c1cec" x="57.6" y="61.08971" style="stroke: #000000; stroke-width: 0.6"/>
      </g>
     </g>
    </g>
    <g id="ytick_34">
     <g id="line2d_65">
      <g>
       <use xlink:href="#m313d6c1cec" x="57.6" y="57.33829" style="stroke: #000000; stroke-width: 0.6"/>
      </g>
     </g>
    </g>
    <g id="text_9">
     <!-- GFLOPS -->
     <g transform="translate(21.020312 194.007688)rotate(-90)scale(0.1 -0.1)">
      <defs>
       <path id="DejaVuSans-47" d="M 3809 666 
L 3809 1919 
L 2778 1919 
L 2778 2438 
L 4434 2438 
L 4434 434 
Q 4069 175 3628 42 
Q 3188 -91 2688 -91 
Q 1594 -91 976 548 
Q 359 1188 359 2328 
Q 359 3472 976 4111 
Q 1594 4750 2688 4750 
Q 3144 4750 3555 4637 
Q 3966 4525 4313 4306 
L 4313 3634 
Q 3963 3931 3569 4081 
Q 3175 4231 2741 4231 
Q 1884 4231 1454 3753 
Q 1025 3275 1025 2328 
Q 1025 1384 1454 906 
Q 1884 428 2741 428 
Q 3075 428 3337 486 
Q 3600 544 3809 666 
z
" transform="scale(0.015625)"/>
       <path id="DejaVuSans-46" d="M 628 4666 
L 3309 4666 
L 3309 4134 
L 1259 4134 
L 1259 2759 
L 3109 2759 
L 3109 2228 
L 1259 2228 
L 1259 0 
L 628 0 
L 628 4666 
z
" transform="scale(0.015625)"/>
       <path id="DejaVuSans-4c" d="M 628 4666 
L 1259 4666 
L 1259 531 
L 3531 531 
L 3531 0 
L 628 0 
L 628 4666 
z
" transform="scale(0.015625)"/>
       <path id="DejaVuSans-4f" d="M 2522 4238 
Q 1834 4238 1429 3725 
Q 1025 3213 1025 2328 
Q 1025 1447 1429 934 
Q 1834 422 2522 422 
Q 3209 422 3611 934 
Q 4013 1447 4013 2328 
Q 4013 3213 3611 3725 
Q 3209 4238 2522 4238 
z
M 2522 4750 
Q 3503 4750 4090 4092 
Q 4678 3434 4678 2328 
Q 4678 1225 4090 567 
Q 3503 -91 2522 -91 
Q 1538 -91 948 565 
Q 359 1222 359 2328 
Q 359 3434 948 4092 
Q 1538 4750 2522 4750 
z
" transform="scale(0.015625)"/>
      </defs>
      <use xlink:href="#DejaVuSans-47"/>
      <use xlink:href="#DejaVuSans-46" x="77.490234"/>
      <use xlink:href="#DejaVuSans-4c" x="135.009766"/>
      <use xlink:href="#DejaVuSans-4f" x="187.097656"/>
      <use xlink:href="#DejaVuSans-50" x="265.808594"/>
      <use xlink:href="#DejaVuSans-53" x="326.111328"/>
     </g>
    </g>
   </g>
   <g id="line2d_66">
    <path d="M 73.832727 175.143228 
L 106.012464 187.890315 
L 124.836403 171.794937 
L 138.1922 162.665153 
L 148.551761 154.743788 
L 157.016139 156.957216 
L 164.172668 157.675673 
L 170.371936 160.495114 
L 180.731497 154.446332 
L 189.195875 154.446191 
L 196.352405 145.008289 
L 202.551673 145.621909 
L 208.019814 147.35197 
L 212.911234 138.918093 
L 221.375612 138.097355 
L 228.532141 130.007477 
L 231.735173 123.94927 
L 234.731409 132.068352 
L 240.199551 132.635674 
L 245.09097 127.389764 
L 247.35608 115.69131 
L 249.515797 132.356799 
L 253.555348 124.129145 
L 260.711877 111.407887 
L 263.914909 124.008404 
L 266.911145 112.026029 
L 272.379287 122.269657 
L 277.270706 117.900914 
L 279.535817 118.82036 
L 281.695534 110.841243 
L 285.735084 112.92293 
L 287.630268 117.183893 
L 291.203226 111.115634 
L 292.891614 104.406167 
L 296.094646 107.972102 
L 298.359756 104.913075 
L 299.090882 103.460445 
L 300.519473 102.89068 
L 303.251175 104.818493 
L 304.559023 102.932314 
L 309.450443 95.303258 
L 310.027165 98.751246 
L 311.715553 95.791635 
L 313.87527 99.71041 
L 314.918585 99.41775 
L 317.914821 93.915291 
L 319.810004 99.581279 
L 322.075114 89.972121 
L 323.382962 89.487677 
L 324.234831 87.521726 
L 325.07135 85.335136 
L 328.274382 84.958952 
L 330.539492 85.08668 
L 331.270618 79.671228 
L 332.699209 89.693387 
L 333.742524 90.256499 
L 335.430911 85.842963 
L 336.73876 81.202935 
L 337.696021 96.170108 
L 338.633943 80.963872 
L 341.630179 76.434837 
L 342.206901 78.762399 
L 343.895289 85.962421 
L 345.790473 92.018874 
L 346.055006 70.522391 
L 347.098321 77.418646 
L 349.363431 80.570856 
L 350.094557 71.354977 
L 351.051819 73.712554 
L 351.523148 88.970787 
L 351.98974 77.009331 
L 354.25485 75.720295 
L 355.562699 70.047106 
L 356.414568 67.725186 
L 357.251086 66.92553 
L 357.457882 71.659163 
L 358.679678 82.316063 
L 360.454118 67.805249 
L 361.03084 68.901655 
L 361.41138 80.98974 
L 362.719228 67.924718 
L 363.450354 74.305112 
L 364.878945 72.006838 
L 365.92226 74.385717 
L 367.610648 68.332427 
L 368.918496 61.73173 
L 370.347087 65.401106 
L 370.813679 64.682128 
L 372.035475 63.940205 
L 373.078789 63.997708 
L 373.809915 57.632293 
L 374.386638 74.12866 
L 375.238507 63.458523 
L 377.970209 61.379267 
L 378.234743 66.750351 
L 379.278057 67.150585 
L 382.395036 59.693933 
L 383.702884 59.6385 
L 384.169477 56.07192 
L 384.746199 57.915808 
L 388.594304 53.568 
L 389.637618 66.827104 
L 394.062446 53.698737 
" clip-path="url(#p2bca29457e)" style="fill: none; stroke: #1f77b4; stroke-width: 1.5; stroke-linecap: square"/>
   </g>
   <g id="line2d_67">
    <path d="M 73.832727 164.455842 
L 106.012464 162.445688 
L 124.836403 162.4869 
L 138.1922 163.06054 
L 148.551761 158.308 
L 157.016139 160.330279 
L 164.172668 155.855172 
L 170.371936 160.581094 
L 175.840078 158.402115 
L 180.731497 158.823916 
L 196.352405 157.917546 
L 202.551673 159.142689 
L 208.019814 157.918526 
L 212.911234 157.295738 
L 215.176344 157.939593 
L 221.375612 158.6922 
L 223.270795 156.521622 
L 226.843753 155.672659 
L 228.532141 158.563976 
L 231.735173 157.300646 
L 234.731409 158.781215 
L 238.891702 159.386239 
L 240.199551 158.054968 
L 245.09097 159.0717 
L 247.35608 159.94347 
L 249.515797 159.074098 
L 250.559112 159.941872 
L 253.555348 159.850824 
L 254.51261 162.59467 
L 255.450531 157.557533 
L 259.02349 158.198238 
L 260.711877 161.519093 
L 263.914909 158.998514 
L 266.180019 159.301923 
L 266.911145 160.528319 
L 268.339736 158.547899 
L 271.071439 160.138225 
L 272.379287 161.421768 
L 274.27447 161.315416 
L 277.270706 161.53862 
L 277.847429 163.032432 
L 279.535817 160.559117 
L 281.695534 161.273445 
L 282.738848 162.57654 
L 286.692346 164.213667 
L 287.163675 161.201223 
L 287.630268 162.864358 
L 289.895378 163.964686 
L 291.203226 163.618952 
L 292.055095 163.667339 
L 292.891614 164.273094 
L 296.094646 165.391517 
L 297.989829 166.593804 
L 298.359756 165.96435 
L 300.519473 166.114497 
L 301.562787 166.483033 
L 303.251175 166.643225 
L 304.559023 167.648105 
L 305.516285 167.037939 
L 307.676002 167.339521 
L 310.027165 168.164188 
L 310.879034 166.93383 
L 311.715553 167.610436 
L 313.610736 166.871281 
L 313.87527 168.353251 
L 314.918585 167.876497 
L 317.183695 168.389762 
L 317.914821 168.714915 
L 318.872082 169.506043 
L 319.343412 168.923216 
L 319.810004 167.862709 
L 322.075114 168.906741 
L 323.382962 169.0289 
L 324.234831 168.62001 
L 325.07135 168.85385 
L 325.278146 167.789088 
L 326.499941 168.630579 
L 328.274382 168.660313 
L 328.851104 170.397368 
L 329.231644 169.877102 
L 330.169565 167.636698 
L 330.539492 169.654139 
L 331.270618 171.651072 
L 332.699209 170.141623 
L 333.742524 169.471074 
L 334.594392 167.240784 
L 335.430911 169.593913 
L 336.73876 170.310275 
L 337.696021 172.236523 
L 338.633943 167.866518 
L 339.855738 169.455013 
L 340.899053 169.353113 
L 341.630179 169.786494 
L 342.206901 169.849434 
L 343.05877 169.284798 
L 343.895289 170.671389 
L 344.852551 170.614016 
L 345.790473 170.346992 
L 346.055006 169.818088 
L 347.098321 169.587083 
L 347.483597 172.960434 
L 349.363431 170.657467 
L 350.094557 171.190041 
L 350.2153 170.518178 
L 351.051819 171.747541 
L 351.98974 168.484937 
L 352.566463 169.67069 
L 354.25485 170.760013 
L 355.562699 171.457306 
L 356.414568 170.574175 
L 356.51996 172.734487 
L 357.251086 171.820532 
L 357.457882 170.126372 
L 358.679678 171.213733 
L 360.454118 170.583647 
L 360.839395 169.542883 
L 361.03084 171.157407 
L 361.41138 171.780127 
L 361.882709 169.928298 
L 362.349302 166.794918 
L 362.719228 171.587741 
L 363.450354 173.380761 
L 364.878945 171.465409 
L 365.836207 172.768262 
L 365.92226 171.616005 
L 366.774129 169.339888 
L 367.610648 171.925507 
L 368.18737 173.117043 
L 368.918496 172.89939 
L 370.347087 170.874227 
L 370.813679 169.111052 
L 371.198956 170.032267 
L 372.035475 173.091919 
L 373.078789 173.081234 
L 373.809915 173.498417 
L 374.386638 173.021068 
L 375.238507 169.987883 
L 377.503617 172.783924 
L 377.970209 172.158615 
L 378.234743 172.670804 
L 379.278057 172.187129 
L 379.663334 169.162257 
L 379.85478 172.674201 
L 382.395036 172.44678 
L 383.702884 173.978954 
L 384.169477 172.416187 
L 384.746199 175.351001 
L 386.819863 172.267528 
L 388.594304 173.13045 
L 389.171026 172.928273 
L 389.637618 174.38792 
L 393.019131 174.474741 
L 394.062446 173.74957 
L 398.487273 173.77063 
L 398.487273 173.77063 
" clip-path="url(#p2bca29457e)" style="fill: none; stroke: #ff7f0e; stroke-width: 1.5; stroke-linecap: square"/>
   </g>
   <g id="line2d_68"/>
   <g id="line2d_69"/>
   <g id="patch_3">
    <path d="M 57.6 307.584 
L 57.6 41.472 
" style="fill: none; stroke: #000000; stroke-width: 0.8; stroke-linejoin: miter; stroke-linecap: square"/>
   </g>
   <g id="patch_4">
    <path d="M 414.72 307.584 
L 414.72 41.472 
" style="fill: none; stroke: #000000; stroke-width: 0.8; stroke-linejoin: miter; stroke-linecap: square"/>
   </g>
   <g id="patch_5">
    <path d="M 57.6 307.584 
L 414.72 307.584 
" style="fill: none; stroke: #000000; stroke-width: 0.8; stroke-linejoin: miter; stroke-linecap: square"/>
   </g>
   <g id="patch_6">
    <path d="M 57.6 41.472 
L 414.72 41.472 
" style="fill: none; stroke: #000000; stroke-width: 0.8; stroke-linejoin: miter; stroke-linecap: square"/>
   </g>
   <g id="text_10">
    <!-- Performance: CPU vs GPU -->
    <g transform="translate(158.865938 35.472)scale(0.12 -0.12)">
     <defs>
      <path id="DejaVuSans-66" d="M 2375 4863 
L 2375 4384 
L 1825 4384 
Q 1516 4384 1395 4259 
Q 1275 4134 1275 3809 
L 1275 3500 
L 2222 3500 
L 2222 3053 
L 1275 3053 
L 1275 0 
L 697 0 
L 697 3053 
L 147 3053 
L 147 3500 
L 697 3500 
L 697 3744 
Q 697 4328 969 4595 
Q 1241 4863 1831 4863 
L 2375 4863 
z
" transform="scale(0.015625)"/>
      <path id="DejaVuSans-61" d="M 2194 1759 
Q 1497 1759 1228 1600 
Q 959 1441 959 1056 
Q 959 750 1161 570 
Q 1363 391 1709 391 
Q 2188 391 2477 730 
Q 2766 1069 2766 1631 
L 2766 1759 
L 2194 1759 
z
M 3341 1997 
L 3341 0 
L 2766 0 
L 2766 531 
Q 2569 213 2275 61 
Q 1981 -91 1556 -91 
Q 1019 -91 701 211 
Q 384 513 384 1019 
Q 384 1609 779 1909 
Q 1175 2209 1959 2209 
L 2766 2209 
L 2766 2266 
Q 2766 2663 2505 2880 
Q 2244 3097 1772 3097 
Q 1472 3097 1187 3025 
Q 903 2953 641 2809 
L 641 3341 
Q 956 3463 1253 3523 
Q 1550 3584 1831 3584 
Q 2591 3584 2966 3190 
Q 3341 2797 3341 1997 
z
" transform="scale(0.015625)"/>
      <path id="DejaVuSans-6e" d="M 3513 2113 
L 3513 0 
L 2938 0 
L 2938 2094 
Q 2938 2591 2744 2837 
Q 2550 3084 2163 3084 
Q 1697 3084 1428 2787 
Q 1159 2491 1159 1978 
L 1159 0 
L 581 0 
L 581 3500 
L 1159 3500 
L 1159 2956 
Q 1366 3272 1645 3428 
Q 1925 3584 2291 3584 
Q 2894 3584 3203 3211 
Q 3513 2838 3513 2113 
z
" transform="scale(0.015625)"/>
      <path id="DejaVuSans-63" d="M 3122 3366 
L 3122 2828 
Q 2878 2963 2633 3030 
Q 2388 3097 2138 3097 
Q 1578 3097 1268 2742 
Q 959 2388 959 1747 
Q 959 1106 1268 751 
Q 1578 397 2138 397 
Q 2388 397 2633 464 
Q 2878 531 3122 666 
L 3122 134 
Q 2881 22 2623 -34 
Q 2366 -91 2075 -91 
Q 1284 -91 818 406 
Q 353 903 353 1747 
Q 353 2603 823 3093 
Q 1294 3584 2113 3584 
Q 2378 3584 2631 3529 
Q 2884 3475 3122 3366 
z
" transform="scale(0.015625)"/>
      <path id="DejaVuSans-3a" d="M 750 794 
L 1409 794 
L 1409 0 
L 750 0 
L 750 794 
z
M 750 3309 
L 1409 3309 
L 1409 2516 
L 750 2516 
L 750 3309 
z
" transform="scale(0.015625)"/>
      <path id="DejaVuSans-43" d="M 4122 4306 
L 4122 3641 
Q 3803 3938 3442 4084 
Q 3081 4231 2675 4231 
Q 1875 4231 1450 3742 
Q 1025 3253 1025 2328 
Q 1025 1406 1450 917 
Q 1875 428 2675 428 
Q 3081 428 3442 575 
Q 3803 722 4122 1019 
L 4122 359 
Q 3791 134 3420 21 
Q 3050 -91 2638 -91 
Q 1578 -91 968 557 
Q 359 1206 359 2328 
Q 359 3453 968 4101 
Q 1578 4750 2638 4750 
Q 3056 4750 3426 4639 
Q 3797 4528 4122 4306 
z
" transform="scale(0.015625)"/>
      <path id="DejaVuSans-55" d="M 556 4666 
L 1191 4666 
L 1191 1831 
Q 1191 1081 1462 751 
Q 1734 422 2344 422 
Q 2950 422 3222 751 
Q 3494 1081 3494 1831 
L 3494 4666 
L 4128 4666 
L 4128 1753 
Q 4128 841 3676 375 
Q 3225 -91 2344 -91 
Q 1459 -91 1007 375 
Q 556 841 556 1753 
L 556 4666 
z
" transform="scale(0.015625)"/>
      <path id="DejaVuSans-76" d="M 191 3500 
L 800 3500 
L 1894 563 
L 2988 3500 
L 3597 3500 
L 2284 0 
L 1503 0 
L 191 3500 
z
" transform="scale(0.015625)"/>
      <path id="DejaVuSans-73" d="M 2834 3397 
L 2834 2853 
Q 2591 2978 2328 3040 
Q 2066 3103 1784 3103 
Q 1356 3103 1142 2972 
Q 928 2841 928 2578 
Q 928 2378 1081 2264 
Q 1234 2150 1697 2047 
L 1894 2003 
Q 2506 1872 2764 1633 
Q 3022 1394 3022 966 
Q 3022 478 2636 193 
Q 2250 -91 1575 -91 
Q 1294 -91 989 -36 
Q 684 19 347 128 
L 347 722 
Q 666 556 975 473 
Q 1284 391 1588 391 
Q 1994 391 2212 530 
Q 2431 669 2431 922 
Q 2431 1156 2273 1281 
Q 2116 1406 1581 1522 
L 1381 1569 
Q 847 1681 609 1914 
Q 372 2147 372 2553 
Q 372 3047 722 3315 
Q 1072 3584 1716 3584 
Q 2034 3584 2315 3537 
Q 2597 3491 2834 3397 
z
" transform="scale(0.015625)"/>
     </defs>
     <use xlink:href="#DejaVuSans-50"/>
     <use xlink:href="#DejaVuSans-65" x="56.677734"/>
     <use xlink:href="#DejaVuSans-72" x="118.201172"/>
     <use xlink:href="#DejaVuSans-66" x="159.314453"/>
     <use xlink:href="#DejaVuSans-6f" x="194.519531"/>
     <use xlink:href="#DejaVuSans-72" x="255.701172"/>
     <use xlink:href="#DejaVuSans-6d" x="295.064453"/>
     <use xlink:href="#DejaVuSans-61" x="392.476562"/>
     <use xlink:href="#DejaVuSans-6e" x="453.755859"/>
     <use xlink:href="#DejaVuSans-63" x="517.134766"/>
     <use xlink:href="#DejaVuSans-65" x="572.115234"/>
     <use xlink:href="#DejaVuSans-3a" x="633.638672"/>
     <use xlink:href="#DejaVuSans-20" x="667.330078"/>
     <use xlink:href="#DejaVuSans-43" x="699.117188"/>
     <use xlink:href="#DejaVuSans-50" x="768.941406"/>
     <use xlink:href="#DejaVuSans-55" x="829.244141"/>
     <use xlink:href="#DejaVuSans-20" x="902.4375"/>
     <use xlink:href="#DejaVuSans-76" x="934.224609"/>
     <use xlink:href="#DejaVuSans-73" x="993.404297"/>
     <use xlink:href="#DejaVuSans-20" x="1045.503906"/>
     <use xlink:href="#DejaVuSans-47" x="1077.291016"/>
     <use xlink:href="#DejaVuSans-50" x="1154.78125"/>
     <use xlink:href="#DejaVuSans-55" x="1215.083984"/>
    </g>
   </g>
   <g id="legend_1">
    <g id="patch_7">
     <path d="M 64.6 93.506375 
L 165.278125 93.506375 
Q 167.278125 93.506375 167.278125 91.506375 
L 167.278125 48.472 
Q 167.278125 46.472 165.278125 46.472 
L 64.6 46.472 
Q 62.6 46.472 62.6 48.472 
L 62.6 91.506375 
Q 62.6 93.506375 64.6 93.506375 
z
" style="fill: #ffffff; opacity: 0.8; stroke: #cccccc; stroke-linejoin: miter"/>
    </g>
    <g id="text_11">
     <!-- Cluster -->
     <g transform="translate(97.192969 58.070438)scale(0.1 -0.1)">
      <defs>
       <path id="DejaVuSans-75" d="M 544 1381 
L 544 3500 
L 1119 3500 
L 1119 1403 
Q 1119 906 1312 657 
Q 1506 409 1894 409 
Q 2359 409 2629 706 
Q 2900 1003 2900 1516 
L 2900 3500 
L 3475 3500 
L 3475 0 
L 2900 0 
L 2900 538 
Q 2691 219 2414 64 
Q 2138 -91 1772 -91 
Q 1169 -91 856 284 
Q 544 659 544 1381 
z
M 1991 3584 
L 1991 3584 
z
" transform="scale(0.015625)"/>
       <path id="DejaVuSans-74" d="M 1172 4494 
L 1172 3500 
L 2356 3500 
L 2356 3053 
L 1172 3053 
L 1172 1153 
Q 1172 725 1289 603 
Q 1406 481 1766 481 
L 2356 481 
L 2356 0 
L 1766 0 
Q 1100 0 847 248 
Q 594 497 594 1153 
L 594 3053 
L 172 3053 
L 172 3500 
L 594 3500 
L 594 4494 
L 1172 4494 
z
" transform="scale(0.015625)"/>
      </defs>
      <use xlink:href="#DejaVuSans-43"/>
      <use xlink:href="#DejaVuSans-6c" x="69.824219"/>
      <use xlink:href="#DejaVuSans-75" x="97.607422"/>
      <use xlink:href="#DejaVuSans-73" x="160.986328"/>
      <use xlink:href="#DejaVuSans-74" x="213.085938"/>
      <use xlink:href="#DejaVuSans-65" x="252.294922"/>
      <use xlink:href="#DejaVuSans-72" x="313.818359"/>
     </g>
    </g>
    <g id="line2d_70">
     <path d="M 66.6 69.248563 
L 76.6 69.248563 
L 86.6 69.248563 
" style="fill: none; stroke: #1f77b4; stroke-width: 1.5; stroke-linecap: square"/>
    </g>
    <g id="text_12">
     <!-- Hopper (GPU) -->
     <g transform="translate(94.6 72.748563)scale(0.1 -0.1)">
      <defs>
       <path id="DejaVuSans-48" d="M 628 4666 
L 1259 4666 
L 1259 2753 
L 3553 2753 
L 3553 4666 
L 4184 4666 
L 4184 0 
L 3553 0 
L 3553 2222 
L 1259 2222 
L 1259 0 
L 628 0 
L 628 4666 
z
" transform="scale(0.015625)"/>
       <path id="DejaVuSans-70" d="M 1159 525 
L 1159 -1331 
L 581 -1331 
L 581 3500 
L 1159 3500 
L 1159 2969 
Q 1341 3281 1617 3432 
Q 1894 3584 2278 3584 
Q 2916 3584 3314 3078 
Q 3713 2572 3713 1747 
Q 3713 922 3314 415 
Q 2916 -91 2278 -91 
Q 1894 -91 1617 61 
Q 1341 213 1159 525 
z
M 3116 1747 
Q 3116 2381 2855 2742 
Q 2594 3103 2138 3103 
Q 1681 3103 1420 2742 
Q 1159 2381 1159 1747 
Q 1159 1113 1420 752 
Q 1681 391 2138 391 
Q 2594 391 2855 752 
Q 3116 1113 3116 1747 
z
" transform="scale(0.015625)"/>
       <path id="DejaVuSans-28" d="M 1984 4856 
Q 1566 4138 1362 3434 
Q 1159 2731 1159 2009 
Q 1159 1288 1364 580 
Q 1569 -128 1984 -844 
L 1484 -844 
Q 1016 -109 783 600 
Q 550 1309 550 2009 
Q 550 2706 781 3412 
Q 1013 4119 1484 4856 
L 1984 4856 
z
" transform="scale(0.015625)"/>
       <path id="DejaVuSans-29" d="M 513 4856 
L 1013 4856 
Q 1481 4119 1714 3412 
Q 1947 2706 1947 2009 
Q 1947 1309 1714 600 
Q 1481 -109 1013 -844 
L 513 -844 
Q 928 -128 1133 580 
Q 1338 1288 1338 2009 
Q 1338 2731 1133 3434 
Q 928 4138 513 4856 
z
" transform="scale(0.015625)"/>
      </defs>
      <use xlink:href="#DejaVuSans-48"/>
      <use xlink:href="#DejaVuSans-6f" x="75.195312"/>
      <use xlink:href="#DejaVuSans-70" x="136.376953"/>
      <use xlink:href="#DejaVuSans-70" x="199.853516"/>
      <use xlink:href="#DejaVuSans-65" x="263.330078"/>
      <use xlink:href="#DejaVuSans-72" x="324.853516"/>
      <use xlink:href="#DejaVuSans-20" x="365.966797"/>
      <use xlink:href="#DejaVuSans-28" x="397.753906"/>
      <use xlink:href="#DejaVuSans-47" x="436.767578"/>
      <use xlink:href="#DejaVuSans-50" x="514.257812"/>
      <use xlink:href="#DejaVuSans-55" x="574.560547"/>
      <use xlink:href="#DejaVuSans-29" x="647.753906"/>
     </g>
    </g>
    <g id="line2d_71">
     <path d="M 66.6 83.926688 
L 76.6 83.926688 
L 86.6 83.926688 
" style="fill: none; stroke: #ff7f0e; stroke-width: 1.5; stroke-linecap: square"/>
    </g>
    <g id="text_13">
     <!-- Hopper -->
     <g transform="translate(94.6 87.426688)scale(0.1 -0.1)">
      <use xlink:href="#DejaVuSans-48"/>
      <use xlink:href="#DejaVuSans-6f" x="75.195312"/>
      <use xlink:href="#DejaVuSans-70" x="136.376953"/>
      <use xlink:href="#DejaVuSans-70" x="199.853516"/>
      <use xlink:href="#DejaVuSans-65" x="263.330078"/>
      <use xlink:href="#DejaVuSans-72" x="324.853516"/>
     </g>
    </g>
   </g>
  </g>
 </g>
 <defs>
  <clipPath id="p2bca29457e">
   <rect x="57.6" y="41.472" width="357.12" height="266.112"/>
  </clipPath>
 </defs>
</svg>
