<?xml version="1.0" encoding="utf-8" standalone="no"?>
<!DOCTYPE svg PUBLIC "-//W3C//DTD SVG 1.1//EN"
  "http://www.w3.org/Graphics/SVG/1.1/DTD/svg11.dtd">
<svg xmlns:xlink="http://www.w3.org/1999/xlink" width="460.8pt" height="345.6pt" viewBox="0 0 460.8 345.6" xmlns="http://www.w3.org/2000/svg" version="1.1">
 <metadata>
  <rdf:RDF xmlns:dc="http://purl.org/dc/elements/1.1/" xmlns:cc="http://creativecommons.org/ns#" xmlns:rdf="http://www.w3.org/1999/02/22-rdf-syntax-ns#">
   <cc:Work>
    <dc:type rdf:resource="http://purl.org/dc/dcmitype/StillImage"/>
    <dc:date>2024-05-05T11:09:31.149796</dc:date>
    <dc:format>image/svg+xml</dc:format>
    <dc:creator>
     <cc:Agent>
      <dc:title>Matplotlib v3.5.3, https://matplotlib.org/</dc:title>
     </cc:Agent>
    </dc:creator>
   </cc:Work>
  </rdf:RDF>
 </metadata>
 <defs>
  <style type="text/css">*{stroke-linejoin: round; stroke-linecap: butt}</style>
 </defs>
 <g id="figure_1">
  <g id="patch_1">
   <path d="M 0 345.6 
L 460.8 345.6 
L 460.8 0 
L 0 0 
z
" style="fill: #ffffff"/>
  </g>
  <g id="axes_1">
   <g id="patch_2">
    <path d="M 57.6 307.584 
L 414.72 307.584 
L 414.72 41.472 
L 57.6 41.472 
z
" style="fill: #ffffff"/>
   </g>
   <g id="PolyCollection_1">
    <path d="M 73.832727 229.575731 
L 73.832727 231.190154 
L 73.832904 230.23186 
L 73.833081 230.485539 
L 73.833258 229.73131 
L 73.833435 227.611552 
L 73.833612 230.08559 
L 73.833789 229.150541 
L 73.833966 228.031724 
L 73.834143 233.033537 
L 73.83432 227.98313 
L 73.834673 230.972839 
L 73.835027 228.49693 
L 73.835204 239.369407 
L 73.835381 228.604138 
L 73.835735 238.668989 
L 73.836089 234.656715 
L 73.836266 241.221628 
L 73.836796 235.654728 
L 73.836973 250.306314 
L 73.837327 239.430644 
L 73.837504 243.466205 
L 73.837858 242.198519 
L 73.838212 232.040777 
L 73.838743 257.190064 
L 73.83892 238.266285 
L 73.839627 237.110789 
L 73.839981 248.13683 
L 73.840335 242.536996 
L 73.840512 259.439504 
L 73.841043 236.184473 
L 73.84122 255.234821 
L 73.841396 246.273668 
L 73.842104 248.412351 
L 73.842458 248.114377 
L 73.843166 250.544465 
L 73.843696 251.667083 
L 73.843873 228.960835 
L 73.844227 257.762355 
L 73.844935 252.149014 
L 73.845289 250.410205 
L 73.84582 265.282365 
L 73.846704 244.778679 
L 73.846881 264.085434 
L 73.847412 254.674271 
L 73.84812 262.343044 
L 73.848473 259.407282 
L 73.849535 237.423594 
L 73.849889 258.943481 
L 73.850066 274.948278 
L 73.850243 260.645235 
L 73.851127 263.355193 
L 73.851658 262.936264 
L 73.852012 265.548941 
L 73.852366 248.176282 
L 73.853781 253.23214 
L 73.854666 274.735122 
L 73.854843 261.836972 
L 73.855196 214.076865 
L 73.855904 265.686307 
L 73.856435 266.005331 
L 73.85732 262.050285 
L 73.858027 252.269661 
L 73.858558 268.011617 
L 73.859089 265.918601 
L 73.859796 261.901319 
L 73.860858 248.525447 
L 73.861212 262.834513 
L 73.861743 268.269005 
L 73.862273 252.911906 
L 73.863512 269.835793 
L 73.863689 265.862216 
L 73.864396 263.752517 
L 73.865989 266.440024 
L 73.86652 218.491805 
L 73.867227 256.228215 
L 73.867581 264.537311 
L 73.867935 261.870461 
L 73.869704 266.636132 
L 73.870766 264.917791 
L 73.871473 268.676942 
L 73.872181 240.733734 
L 73.872358 270.962907 
L 73.87342 266.683755 
L 73.875012 247.799651 
L 73.875366 276.440696 
L 73.875543 265.664296 
L 73.875896 265.711732 
L 73.876781 274.936527 
L 73.877135 264.51348 
L 73.877843 196.908034 
L 73.879258 265.698994 
L 73.88032 266.575106 
L 73.881204 275.317878 
L 73.882089 257.893557 
L 73.883504 239.933646 
L 73.884566 268.058733 
L 73.885096 272.005644 
L 73.885627 269.25864 
L 73.887043 269.885849 
L 73.888281 264.537605 
L 73.889166 226.661281 
L 73.889873 268.383252 
L 73.890935 268.95156 
L 73.891996 242.01643 
L 73.893235 257.334861 
L 73.894473 265.041841 
L 73.894827 262.368979 
L 73.896243 260.846108 
L 73.896773 275.478495 
L 73.899427 267.594619 
L 73.900489 187.315525 
L 73.900666 266.757302 
L 73.901904 258.191883 
L 73.902612 267.275159 
L 73.903319 259.684714 
L 73.904204 266.110886 
L 73.906858 256.60735 
L 73.908981 245.528628 
L 73.910396 267.224024 
L 73.910573 265.743506 
L 73.911812 220.451625 
L 73.912166 270.141693 
L 73.914289 263.105641 
L 73.917473 225.250165 
L 73.918181 275.470511 
L 73.918535 269.267637 
L 73.919243 269.972972 
L 73.920127 270.017536 
L 73.921012 275.862157 
L 73.921719 256.095601 
L 73.923135 176.074965 
L 73.925966 258.218505 
L 73.927912 274.461625 
L 73.928089 267.980781 
L 73.929858 275.811689 
L 73.931627 251.224892 
L 73.932866 269.150977 
L 73.934458 217.164192 
L 73.937642 263.398404 
L 73.938704 243.711041 
L 73.939589 275.46784 
L 73.941535 262.891249 
L 73.944012 263.608361 
L 73.945781 203.31666 
L 73.947196 261.939168 
L 73.949319 270.391996 
L 73.951442 209.970364 
L 73.955158 263.193974 
L 73.956396 257.963943 
L 73.957104 250.276976 
L 73.959935 236.910836 
L 73.960996 257.420099 
L 73.961527 275.642338 
L 73.968427 148.801684 
L 73.968781 257.880505 
L 73.971258 214.100502 
L 73.972673 260.531292 
L 73.974089 235.459007 
L 73.975858 257.843139 
L 73.981165 214.293539 
L 73.982404 257.303947 
L 73.985412 211.264549 
L 73.988242 248.855929 
L 73.990189 270.892869 
L 73.991073 174.952449 
L 73.991781 258.163532 
L 74.002396 198.432677 
L 74.003812 258.145224 
L 74.007704 270.906773 
L 74.007704 254.227194 
L 74.007704 254.227194 
L 74.003812 253.101766 
L 74.002396 138.061134 
L 73.991781 256.853445 
L 73.991073 85.568008 
L 73.990189 253.80348 
L 73.988242 207.199893 
L 73.985412 198.893368 
L 73.982404 253.716441 
L 73.981165 207.510424 
L 73.975858 256.801972 
L 73.974089 209.971403 
L 73.972673 224.489593 
L 73.971258 200.547934 
L 73.968781 255.536531 
L 73.968427 88.196655 
L 73.961527 256.637649 
L 73.960996 253.621298 
L 73.959935 214.332704 
L 73.957104 215.121155 
L 73.956396 255.215312 
L 73.955158 254.70443 
L 73.951442 204.124143 
L 73.949319 254.945041 
L 73.947196 215.504891 
L 73.945781 133.046942 
L 73.944012 255.127598 
L 73.941535 254.523908 
L 73.939589 253.73685 
L 73.938704 183.511345 
L 73.937642 254.45533 
L 73.934458 170.399688 
L 73.932866 254.752109 
L 73.931627 221.008286 
L 73.929858 254.16214 
L 73.928089 255.821407 
L 73.927912 254.403899 
L 73.925966 220.315485 
L 73.923135 97.951974 
L 73.921719 226.208278 
L 73.921012 252.947797 
L 73.920127 254.496057 
L 73.919243 253.5134 
L 73.918535 255.575973 
L 73.918181 254.543911 
L 73.917473 195.983709 
L 73.914289 255.039632 
L 73.912166 256.067009 
L 73.911812 159.436115 
L 73.910573 254.330466 
L 73.910396 256.28765 
L 73.908981 213.082872 
L 73.906858 255.082709 
L 73.904204 255.535955 
L 73.903319 222.617972 
L 73.902612 256.223721 
L 73.901904 226.717308 
L 73.900666 254.014581 
L 73.900489 136.424556 
L 73.899427 256.285002 
L 73.896773 255.026227 
L 73.896243 242.402038 
L 73.894827 214.125686 
L 73.894473 253.855791 
L 73.893235 254.834141 
L 73.891996 212.039548 
L 73.890935 256.938607 
L 73.889873 257.318413 
L 73.889166 179.30939 
L 73.888281 253.987872 
L 73.887043 255.743216 
L 73.885627 256.124288 
L 73.885096 255.935128 
L 73.884566 255.176578 
L 73.883504 208.811316 
L 73.882089 237.368124 
L 73.881204 250.101472 
L 73.88032 257.410677 
L 73.879258 255.908287 
L 73.877843 133.026219 
L 73.877135 255.890092 
L 73.876781 249.468864 
L 73.875896 253.533809 
L 73.875543 252.538813 
L 73.875366 251.273347 
L 73.875012 223.191454 
L 73.87342 252.98232 
L 73.872358 253.573362 
L 73.872181 208.602938 
L 73.871473 254.47687 
L 73.870766 247.842997 
L 73.869704 257.057626 
L 73.867935 234.038516 
L 73.867581 253.559022 
L 73.867227 250.979715 
L 73.86652 180.148686 
L 73.865989 254.817174 
L 73.864396 256.633751 
L 73.863689 252.804607 
L 73.863512 250.548812 
L 73.862273 227.867972 
L 73.861743 249.872795 
L 73.861212 253.702027 
L 73.860858 220.529792 
L 73.859796 248.141907 
L 73.859089 251.991053 
L 73.858558 251.541845 
L 73.858027 228.265196 
L 73.85732 250.931647 
L 73.856435 251.061619 
L 73.855904 252.23583 
L 73.855196 165.143637 
L 73.854843 252.40464 
L 73.854666 250.960607 
L 73.853781 234.032916 
L 73.852366 215.574041 
L 73.852012 242.050357 
L 73.851658 254.638726 
L 73.851127 245.990047 
L 73.850243 242.782464 
L 73.850066 236.641645 
L 73.849889 251.45877 
L 73.849535 210.287428 
L 73.848473 246.178833 
L 73.84812 239.599491 
L 73.847412 243.105759 
L 73.846881 237.984076 
L 73.846704 219.081956 
L 73.84582 236.602448 
L 73.845289 233.53853 
L 73.844935 232.901879 
L 73.844227 234.949897 
L 73.843873 194.614675 
L 73.843696 228.205168 
L 73.843166 238.481416 
L 73.842458 226.758707 
L 73.842104 231.151553 
L 73.841396 224.454438 
L 73.84122 248.4879 
L 73.841043 218.339573 
L 73.840512 229.365403 
L 73.840335 226.619933 
L 73.839981 235.520658 
L 73.839627 219.681003 
L 73.83892 228.996221 
L 73.838743 238.542077 
L 73.838212 211.043518 
L 73.837858 230.200274 
L 73.837504 231.561859 
L 73.837327 223.94461 
L 73.836973 225.962263 
L 73.836796 223.567289 
L 73.836266 226.349402 
L 73.836089 226.210639 
L 73.835735 227.706509 
L 73.835381 214.569939 
L 73.835204 225.903797 
L 73.835027 225.773926 
L 73.834673 227.299591 
L 73.83432 226.720675 
L 73.834143 226.734109 
L 73.833966 218.883092 
L 73.833789 225.288412 
L 73.833612 228.178397 
L 73.833435 226.410964 
L 73.833258 227.888033 
L 73.833081 228.659471 
L 73.832904 229.016631 
L 73.832727 229.575731 
z
" clip-path="url(#p008065c670)" style="fill: #1f77b4; fill-opacity: 0.2; stroke: #1f77b4; stroke-opacity: 0.2"/>
    <path d="M 74.010889 207.909118 
L 74.010889 212.006087 
L 74.013719 143.860412 
L 74.019381 214.097693 
L 74.023627 213.479673 
L 74.025219 275.655784 
L 74.030704 213.968651 
L 74.036365 178.5313 
L 74.040612 214.521591 
L 74.044858 214.454098 
L 74.050519 214.300617 
L 74.059012 176.051344 
L 74.061842 214.516554 
L 74.066088 215.697517 
L 74.070335 190.735051 
L 74.080242 212.095905 
L 74.081658 215.522565 
L 74.087319 214.650148 
L 74.100058 215.639141 
L 74.104304 120.522796 
L 74.109965 216.089493 
L 74.112796 215.027443 
L 74.115627 213.317684 
L 74.129781 215.757935 
L 74.138273 214.542319 
L 74.143934 214.958937 
L 74.149596 160.930613 
L 74.151011 215.660901 
L 74.159504 215.922693 
L 74.172242 170.548305 
L 74.172242 106.774712 
L 74.172242 106.774712 
L 74.159504 205.831199 
L 74.151011 209.144683 
L 74.149596 69.261241 
L 74.143934 208.059997 
L 74.138273 172.12445 
L 74.129781 213.157674 
L 74.115627 122.066876 
L 74.112796 206.65668 
L 74.109965 215.371271 
L 74.104304 56.937486 
L 74.100058 206.45768 
L 74.087319 210.837748 
L 74.081658 211.838777 
L 74.080242 209.824488 
L 74.070335 97.515169 
L 74.066088 214.043026 
L 74.061842 209.253444 
L 74.059012 100.266392 
L 74.050519 207.815088 
L 74.044858 210.073256 
L 74.040612 212.363024 
L 74.036365 115.509922 
L 74.030704 205.814291 
L 74.025219 252.785124 
L 74.023627 198.35629 
L 74.019381 211.99782 
L 74.013719 54.573251 
L 74.010889 207.909118 
z
" clip-path="url(#p008065c670)" style="fill: #1f77b4; fill-opacity: 0.2; stroke: #1f77b4; stroke-opacity: 0.2"/>
    <path d="M 74.176488 204.265699 
L 74.176488 215.545949 
L 74.179319 216.785504 
L 74.186396 216.100598 
L 74.189227 216.078485 
L 74.194888 142.29314 
L 74.206211 215.219806 
L 74.214704 215.473533 
L 74.22178 214.844835 
L 74.228857 200.360238 
L 74.24018 149.010563 
L 74.248673 216.900756 
L 74.252919 215.387178 
L 74.257165 215.843022 
L 74.268488 217.149717 
L 74.278396 216.488071 
L 74.285473 149.944016 
L 74.291134 216.093595 
L 74.299626 215.44419 
L 74.308119 148.618835 
L 74.308119 73.241865 
L 74.308119 73.241865 
L 74.299626 212.483612 
L 74.291134 212.22584 
L 74.285473 77.385403 
L 74.278396 214.296614 
L 74.268488 213.052433 
L 74.257165 210.651238 
L 74.252919 209.04894 
L 74.248673 214.789611 
L 74.24018 77.81554 
L 74.228857 130.729697 
L 74.22178 212.886459 
L 74.214704 210.325514 
L 74.206211 212.827688 
L 74.194888 53.568 
L 74.189227 210.668355 
L 74.186396 213.00201 
L 74.179319 216.50758 
L 74.176488 204.265699 
z
" clip-path="url(#p008065c670)" style="fill: #1f77b4; fill-opacity: 0.2; stroke: #1f77b4; stroke-opacity: 0.2"/>
    <path d="M 74.327934 213.087248 
L 74.327934 217.140113 
L 74.330765 216.381824 
L 74.342088 215.159191 
L 74.342088 141.788081 
L 74.342088 141.788081 
L 74.330765 86.292875 
L 74.327934 213.087248 
z
" clip-path="url(#p008065c670)" style="fill: #1f77b4; fill-opacity: 0.2; stroke: #1f77b4; stroke-opacity: 0.2"/>
    <path d="M 74.367565 210.518448 
L 74.367565 215.697067 
L 74.376057 116.214809 
L 74.377473 217.399054 
L 74.38738 213.764592 
L 74.393042 217.775468 
L 74.398703 214.040374 
L 74.40578 217.227903 
L 74.427011 217.012106 
L 74.443995 169.576841 
L 74.455319 217.716125 
L 74.456734 214.383529 
L 74.466642 151.689246 
L 74.469472 213.723083 
L 74.486457 217.794106 
L 74.511934 134.769001 
L 74.511934 79.035103 
L 74.511934 79.035103 
L 74.486457 214.210126 
L 74.469472 209.057269 
L 74.466642 72.390867 
L 74.456734 209.208912 
L 74.455319 216.819984 
L 74.443995 79.389699 
L 74.427011 212.763253 
L 74.40578 213.414095 
L 74.398703 88.973655 
L 74.393042 216.644006 
L 74.38738 104.095546 
L 74.377473 213.826705 
L 74.376057 66.319848 
L 74.367565 210.518448 
z
" clip-path="url(#p008065c670)" style="fill: #1f77b4; fill-opacity: 0.2; stroke: #1f77b4; stroke-opacity: 0.2"/>
    <path d="M 74.520426 206.794331 
L 74.520426 214.090598 
L 74.526088 213.969644 
L 74.533165 217.357561 
L 74.533165 208.387744 
L 74.533165 208.387744 
L 74.526088 213.026921 
L 74.520426 206.794331 
z
" clip-path="url(#p008065c670)" style="fill: #1f77b4; fill-opacity: 0.2; stroke: #1f77b4; stroke-opacity: 0.2"/>
    <path d="M 74.545903 113.63446 
L 74.545903 215.044081 
L 74.557226 190.289877 
L 74.579872 197.739672 
L 74.595441 213.166784 
L 74.596857 213.93903 
L 74.611011 217.745934 
L 74.625164 186.305612 
L 74.635072 218.16132 
L 74.647811 148.82761 
L 74.673287 217.202905 
L 74.68178 184.635409 
L 74.68178 92.78138 
L 74.68178 92.78138 
L 74.673287 215.102501 
L 74.647811 101.560139 
L 74.635072 209.014725 
L 74.625164 87.436121 
L 74.611011 214.024568 
L 74.596857 211.235419 
L 74.595441 212.479776 
L 74.579872 83.937007 
L 74.557226 91.751706 
L 74.545903 113.63446 
z
" clip-path="url(#p008065c670)" style="fill: #1f77b4; fill-opacity: 0.2; stroke: #1f77b4; stroke-opacity: 0.2"/>
    <path d="M 74.704426 212.440609 
L 74.704426 218.377567 
L 74.724241 218.15967 
L 74.738395 155.070639 
L 74.749718 211.479188 
L 74.766703 217.726126 
L 74.783687 127.869156 
L 74.81341 217.937345 
L 74.81341 212.948436 
L 74.81341 212.948436 
L 74.783687 73.359034 
L 74.766703 214.032672 
L 74.749718 125.360668 
L 74.738395 101.944126 
L 74.724241 212.82268 
L 74.704426 212.440609 
z
" clip-path="url(#p008065c670)" style="fill: #1f77b4; fill-opacity: 0.2; stroke: #1f77b4; stroke-opacity: 0.2"/>
    <path d="M 74.828979 95.555702 
L 74.828979 189.563675 
L 74.851626 153.207119 
L 74.851626 103.865233 
L 74.851626 103.865233 
L 74.828979 95.555702 
z
" clip-path="url(#p008065c670)" style="fill: #1f77b4; fill-opacity: 0.2; stroke: #1f77b4; stroke-opacity: 0.2"/>
    <path d="M 74.919564 104.848109 
L 74.919564 138.698966 
L 74.922395 217.204492 
L 74.94221 206.315616 
L 74.953533 217.280906 
L 74.964856 147.716097 
L 74.97901 217.272022 
L 75.021471 117.967757 
L 75.021471 87.581808 
L 75.021471 87.581808 
L 74.97901 212.120516 
L 74.964856 94.391113 
L 74.953533 124.685485 
L 74.94221 63.942067 
L 74.922395 213.456714 
L 74.919564 104.848109 
z
" clip-path="url(#p008065c670)" style="fill: #1f77b4; fill-opacity: 0.2; stroke: #1f77b4; stroke-opacity: 0.2"/>
    <path d="M 75.055441 96.801641 
L 75.055441 112.757465 
L 75.078087 180.609856 
L 75.093656 217.347956 
L 75.100733 123.652603 
L 75.100733 88.443778 
L 75.100733 88.443778 
L 75.093656 209.557668 
L 75.078087 93.084266 
L 75.055441 96.801641 
z
" clip-path="url(#p008065c670)" style="fill: #1f77b4; fill-opacity: 0.2; stroke: #1f77b4; stroke-opacity: 0.2"/>
    <path d="M 75.191317 108.958953 
L 75.191317 120.798256 
L 75.191317 108.958953 
L 75.191317 108.958953 
z
" clip-path="url(#p008065c670)" style="fill: #1f77b4; fill-opacity: 0.2; stroke: #1f77b4; stroke-opacity: 0.2"/>
    <path d="M 75.233779 210.341619 
L 75.233779 217.498924 
L 75.233779 210.341619 
L 75.233779 210.341619 
z
" clip-path="url(#p008065c670)" style="fill: #1f77b4; fill-opacity: 0.2; stroke: #1f77b4; stroke-opacity: 0.2"/>
    <path d="M 75.259256 95.588609 
L 75.259256 116.44186 
L 75.281902 271.629499 
L 75.327194 124.900614 
L 75.361163 126.002955 
L 75.361163 120.177422 
L 75.361163 120.177422 
L 75.327194 106.709561 
L 75.281902 144.200001 
L 75.259256 95.588609 
z
" clip-path="url(#p008065c670)" style="fill: #1f77b4; fill-opacity: 0.2; stroke: #1f77b4; stroke-opacity: 0.2"/>
    <path d="M 75.417778 107.042515 
L 75.417778 123.63678 
L 75.463071 126.69695 
L 75.49704 125.870596 
L 75.531009 123.612095 
L 75.576301 114.627562 
L 75.64424 130.273157 
L 75.666886 126.185797 
L 75.700855 133.133998 
L 75.734824 126.62337 
L 75.814086 128.912758 
L 75.825409 125.562058 
L 75.870701 126.247376 
L 75.972608 129.013904 
L 76.006578 252.258313 
L 76.006578 127.068729 
L 76.006578 127.068729 
L 75.972608 109.389316 
L 75.870701 116.557829 
L 75.825409 113.295265 
L 75.814086 127.937922 
L 75.734824 109.707106 
L 75.700855 121.958794 
L 75.666886 119.515911 
L 75.64424 120.330115 
L 75.576301 101.694471 
L 75.531009 114.757358 
L 75.49704 97.366833 
L 75.463071 113.559568 
L 75.417778 107.042515 
z
" clip-path="url(#p008065c670)" style="fill: #1f77b4; fill-opacity: 0.2; stroke: #1f77b4; stroke-opacity: 0.2"/>
    <path d="M 76.074516 115.390563 
L 76.074516 127.870151 
L 76.097162 129.22597 
L 76.210393 125.547395 
L 76.278331 130.070575 
L 76.323623 131.268513 
L 76.368915 129.69911 
L 76.380238 128.009054 
L 76.448177 131.400272 
L 76.550084 129.298867 
L 76.550084 122.155953 
L 76.550084 122.155953 
L 76.448177 115.772875 
L 76.380238 127.614377 
L 76.368915 128.617426 
L 76.323623 120.829089 
L 76.278331 122.444712 
L 76.210393 115.916022 
L 76.097162 123.180021 
L 76.074516 115.390563 
z
" clip-path="url(#p008065c670)" style="fill: #1f77b4; fill-opacity: 0.2; stroke: #1f77b4; stroke-opacity: 0.2"/>
    <path d="M 76.663315 128.89505 
L 76.663315 136.875924 
L 76.685961 126.376503 
L 76.731253 295.488 
L 76.821838 127.963793 
L 76.889776 129.369763 
L 76.946391 138.76617 
L 77.003007 129.396575 
L 77.093591 124.422598 
L 77.093591 120.44034 
L 77.093591 120.44034 
L 77.003007 126.457959 
L 76.946391 128.665147 
L 76.889776 122.141926 
L 76.821838 121.684442 
L 76.731253 223.197045 
L 76.685961 118.143036 
L 76.663315 128.89505 
z
" clip-path="url(#p008065c670)" style="fill: #1f77b4; fill-opacity: 0.2; stroke: #1f77b4; stroke-opacity: 0.2"/>
    <path d="M 77.195499 129.547242 
L 77.195499 129.723721 
L 77.229468 129.867846 
L 77.320052 129.171474 
L 77.399314 130.70246 
L 77.455929 267.226244 
L 77.501221 133.409071 
L 77.56916 133.292619 
L 77.637098 122.077498 
L 77.795621 127.820269 
L 77.818267 126.982894 
L 77.908851 132.048462 
L 77.908851 124.186642 
L 77.908851 124.186642 
L 77.818267 126.089694 
L 77.795621 121.848795 
L 77.637098 121.318158 
L 77.56916 123.753802 
L 77.501221 121.190901 
L 77.455929 155.140502 
L 77.399314 127.203793 
L 77.320052 127.036618 
L 77.229468 123.694862 
L 77.195499 129.547242 
z
" clip-path="url(#p008065c670)" style="fill: #1f77b4; fill-opacity: 0.2; stroke: #1f77b4; stroke-opacity: 0.2"/>
    <path d="M 78.112666 122.654656 
L 78.112666 125.646396 
L 78.180605 295.196003 
L 78.191928 137.574337 
L 78.316481 133.356698 
L 78.361774 130.446445 
L 78.361774 122.673264 
L 78.361774 122.673264 
L 78.316481 124.193145 
L 78.191928 127.315743 
L 78.180605 237.682607 
L 78.112666 122.654656 
z
" clip-path="url(#p008065c670)" style="fill: #1f77b4; fill-opacity: 0.2; stroke: #1f77b4; stroke-opacity: 0.2"/>
    <path d="M 78.588235 123.202401 
L 78.588235 123.635195 
L 78.724111 127.503027 
L 78.814696 131.636928 
L 78.90528 294.068504 
L 78.927927 131.131652 
L 79.063803 123.942233 
L 79.267618 124.878352 
L 79.267618 124.174236 
L 79.267618 124.174236 
L 79.063803 123.149878 
L 78.927927 123.395388 
L 78.90528 293.924553 
L 78.814696 128.742132 
L 78.724111 123.468921 
L 78.588235 123.202401 
z
" clip-path="url(#p008065c670)" style="fill: #1f77b4; fill-opacity: 0.2; stroke: #1f77b4; stroke-opacity: 0.2"/>
    <path d="M 79.437464 131.39607 
L 79.437464 131.537734 
L 79.437464 131.39607 
L 79.437464 131.39607 
z
" clip-path="url(#p008065c670)" style="fill: #1f77b4; fill-opacity: 0.2; stroke: #1f77b4; stroke-opacity: 0.2"/>
    <path d="M 79.629956 294.432212 
L 79.629956 295.188553 
L 79.811125 124.442857 
L 79.947002 128.970084 
L 80.060232 132.393417 
L 80.354632 294.860312 
L 80.558447 124.924272 
L 80.558447 124.497181 
L 80.558447 124.497181 
L 80.354632 294.825557 
L 80.060232 131.831865 
L 79.947002 125.048828 
L 79.811125 122.938883 
L 79.629956 294.432212 
z
" clip-path="url(#p008065c670)" style="fill: #1f77b4; fill-opacity: 0.2; stroke: #1f77b4; stroke-opacity: 0.2"/>
    <path d="M 81.079308 294.590835 
L 81.079308 294.652816 
L 81.305769 125.616082 
L 81.305769 125.488825 
L 81.305769 125.488825 
L 81.079308 294.590835 
z
" clip-path="url(#p008065c670)" style="fill: #1f77b4; fill-opacity: 0.2; stroke: #1f77b4; stroke-opacity: 0.2"/>
    <path d="M 82.528659 294.370848 
L 82.528659 294.787368 
L 83.97801 294.125157 
L 84.702686 293.922698 
L 85.427362 294.897241 
L 86.876713 294.641513 
L 88.326065 294.117456 
L 89.05074 292.813672 
L 91.224768 294.195659 
L 91.949443 292.503228 
L 91.949443 292.090303 
L 91.949443 292.090303 
L 91.224768 293.11437 
L 89.05074 292.632774 
L 88.326065 293.131866 
L 86.876713 293.560543 
L 85.427362 293.976217 
L 84.702686 293.809424 
L 83.97801 294.001793 
L 82.528659 294.370848 
z
" clip-path="url(#p008065c670)" style="fill: #1f77b4; fill-opacity: 0.2; stroke: #1f77b4; stroke-opacity: 0.2"/>
    <path d="M 94.12347 291.810718 
L 94.12347 293.431476 
L 95.572822 293.6016 
L 97.022173 294.671507 
L 99.196201 290.590254 
L 99.920876 293.418459 
L 102.819579 293.200949 
L 104.268931 292.944085 
L 105.718282 293.077115 
L 106.442958 292.787665 
L 108.616985 293.818647 
L 108.616985 292.14469 
L 108.616985 292.14469 
L 106.442958 292.611096 
L 105.718282 292.762904 
L 104.268931 290.449182 
L 102.819579 291.329563 
L 99.920876 292.473543 
L 99.196201 290.540213 
L 97.022173 293.000189 
L 95.572822 292.058422 
L 94.12347 291.810718 
z
" clip-path="url(#p008065c670)" style="fill: #1f77b4; fill-opacity: 0.2; stroke: #1f77b4; stroke-opacity: 0.2"/>
    <path d="M 110.066336 291.988978 
L 110.066336 292.276867 
L 112.965039 291.902424 
L 114.414391 292.80801 
L 117.313094 291.56667 
L 119.487121 291.063363 
L 120.211796 294.340942 
L 121.661148 291.182607 
L 124.559851 290.783946 
L 126.009202 292.412778 
L 128.183229 290.074751 
L 131.806608 292.147786 
L 132.531284 289.928735 
L 134.705311 289.769784 
L 137.604014 289.395637 
L 139.053365 289.161618 
L 143.401419 293.503121 
L 143.401419 291.076424 
L 143.401419 291.076424 
L 139.053365 288.859974 
L 137.604014 289.216878 
L 134.705311 289.362664 
L 132.531284 289.691089 
L 131.806608 290.091037 
L 128.183229 289.906795 
L 126.009202 290.524184 
L 124.559851 290.65453 
L 121.661148 290.946348 
L 120.211796 291.948678 
L 119.487121 290.992952 
L 117.313094 291.313461 
L 114.414391 289.900164 
L 112.965039 291.692615 
L 110.066336 291.988978 
z
" clip-path="url(#p008065c670)" style="fill: #1f77b4; fill-opacity: 0.2; stroke: #1f77b4; stroke-opacity: 0.2"/>
    <path d="M 145.575447 288.404503 
L 145.575447 288.816587 
L 146.300122 288.620129 
L 149.923501 288.860557 
L 152.097528 289.221297 
L 153.54688 288.719494 
L 154.996231 293.234708 
L 160.793637 290.114858 
L 160.793637 287.88305 
L 160.793637 287.88305 
L 154.996231 288.790119 
L 153.54688 288.053225 
L 152.097528 288.322812 
L 149.923501 288.470547 
L 146.300122 288.274602 
L 145.575447 288.404503 
z
" clip-path="url(#p008065c670)" style="fill: #1f77b4; fill-opacity: 0.2; stroke: #1f77b4; stroke-opacity: 0.2"/>
    <path d="M 165.141691 286.610179 
L 165.141691 287.460115 
L 166.591042 293.931359 
L 169.489745 287.01244 
L 171.663772 286.70205 
L 175.287151 286.42233 
L 178.185854 292.244255 
L 178.185854 288.057579 
L 178.185854 288.057579 
L 175.287151 285.98676 
L 171.663772 286.019575 
L 169.489745 286.661988 
L 166.591042 290.620839 
L 165.141691 286.610179 
z
" clip-path="url(#p008065c670)" style="fill: #1f77b4; fill-opacity: 0.2; stroke: #1f77b4; stroke-opacity: 0.2"/>
    <path d="M 182.533908 285.056348 
L 182.533908 285.873788 
L 185.432611 285.15963 
L 189.780665 290.983038 
L 191.230017 285.353787 
L 193.404044 284.991223 
L 195.578071 291.756577 
L 200.650801 283.488752 
L 201.375477 283.567117 
L 204.27418 284.470726 
L 210.796261 282.922098 
L 212.970289 293.550774 
L 212.970289 290.017887 
L 212.970289 290.017887 
L 210.796261 282.797002 
L 204.27418 282.947383 
L 201.375477 282.863399 
L 200.650801 283.294115 
L 195.578071 286.004555 
L 193.404044 284.258626 
L 191.230017 284.452423 
L 189.780665 286.432228 
L 185.432611 284.755679 
L 182.533908 285.056348 
z
" clip-path="url(#p008065c670)" style="fill: #1f77b4; fill-opacity: 0.2; stroke: #1f77b4; stroke-opacity: 0.2"/>
    <path d="M 217.318343 281.999447 
L 217.318343 284.740252 
L 218.767694 287.356922 
L 226.014451 282.50723 
L 230.362506 289.437792 
L 233.261209 282.71168 
L 236.159912 292.644011 
L 236.159912 286.684745 
L 236.159912 286.684745 
L 233.261209 281.719694 
L 230.362506 282.195659 
L 226.014451 281.923821 
L 218.767694 281.677746 
L 217.318343 281.999447 
z
" clip-path="url(#p008065c670)" style="fill: #1f77b4; fill-opacity: 0.2; stroke: #1f77b4; stroke-opacity: 0.2"/>
    <path d="M 241.232642 281.811721 
L 241.232642 282.599423 
L 247.754723 291.294858 
L 247.754723 284.643293 
L 247.754723 284.643293 
L 241.232642 281.811721 
z
" clip-path="url(#p008065c670)" style="fill: #1f77b4; fill-opacity: 0.2; stroke: #1f77b4; stroke-opacity: 0.2"/>
    <path d="M 256.450832 281.23012 
L 256.450832 281.235223 
L 259.349535 294.11713 
L 265.14694 281.343954 
L 269.494995 283.946727 
L 269.494995 279.374269 
L 269.494995 279.374269 
L 265.14694 280.399633 
L 259.349535 289.894821 
L 256.450832 281.23012 
z
" clip-path="url(#p008065c670)" style="fill: #1f77b4; fill-opacity: 0.2; stroke: #1f77b4; stroke-opacity: 0.2"/>
    <path d="M 276.741752 279.615589 
L 276.741752 288.598143 
L 282.539158 293.132716 
L 289.061239 278.864461 
L 291.235266 280.190335 
L 297.032672 278.5718 
L 297.032672 278.19291 
L 297.032672 278.19291 
L 291.235266 278.234869 
L 289.061239 278.093296 
L 282.539158 287.021633 
L 276.741752 279.615589 
z
" clip-path="url(#p008065c670)" style="fill: #1f77b4; fill-opacity: 0.2; stroke: #1f77b4; stroke-opacity: 0.2"/>
    <path d="M 305.728781 285.511089 
L 305.728781 292.515957 
L 305.728781 285.511089 
L 305.728781 285.511089 
z
" clip-path="url(#p008065c670)" style="fill: #1f77b4; fill-opacity: 0.2; stroke: #1f77b4; stroke-opacity: 0.2"/>
    <path d="M 312.975538 278.08075 
L 312.975538 282.931762 
L 317.323592 292.897565 
L 317.323592 290.618859 
L 317.323592 290.618859 
L 312.975538 278.08075 
z
" clip-path="url(#p008065c670)" style="fill: #1f77b4; fill-opacity: 0.2; stroke: #1f77b4; stroke-opacity: 0.2"/>
    <path d="M 328.918404 277.257647 
L 328.918404 292.828018 
L 334.715809 292.768877 
L 334.715809 276.175962 
L 334.715809 276.175962 
L 328.918404 277.257647 
z
" clip-path="url(#p008065c670)" style="fill: #1f77b4; fill-opacity: 0.2; stroke: #1f77b4; stroke-opacity: 0.2"/>
    <path d="M 352.108027 291.341817 
L 352.108027 292.667186 
L 352.108027 291.341817 
L 352.108027 291.341817 
z
" clip-path="url(#p008065c670)" style="fill: #1f77b4; fill-opacity: 0.2; stroke: #1f77b4; stroke-opacity: 0.2"/>
    <path d="M 360.804135 275.576549 
L 360.804135 277.239473 
L 363.702838 292.48582 
L 386.892461 291.93098 
L 392.689867 274.142537 
L 398.487273 291.988396 
L 398.487273 289.277363 
L 398.487273 289.277363 
L 392.689867 273.734804 
L 386.892461 291.732413 
L 363.702838 274.73029 
L 360.804135 275.576549 
z
" clip-path="url(#p008065c670)" style="fill: #1f77b4; fill-opacity: 0.2; stroke: #1f77b4; stroke-opacity: 0.2"/>
   </g>
   <g id="matplotlib.axis_1">
    <g id="xtick_1">
     <g id="line2d_1">
      <defs>
       <path id="mba1c52e64f" d="M 0 0 
L 0 3.5 
" style="stroke: #000000; stroke-width: 0.8"/>
      </defs>
      <g>
       <use xlink:href="#mba1c52e64f" x="73.83255" y="307.584" style="stroke: #000000; stroke-width: 0.8"/>
      </g>
     </g>
     <g id="text_1">
      <!-- 0 -->
      <g transform="translate(70.6513 322.182437)scale(0.1 -0.1)">
       <defs>
        <path id="DejaVuSans-30" d="M 2034 4250 
Q 1547 4250 1301 3770 
Q 1056 3291 1056 2328 
Q 1056 1369 1301 889 
Q 1547 409 2034 409 
Q 2525 409 2770 889 
Q 3016 1369 3016 2328 
Q 3016 3291 2770 3770 
Q 2525 4250 2034 4250 
z
M 2034 4750 
Q 2819 4750 3233 4129 
Q 3647 3509 3647 2328 
Q 3647 1150 3233 529 
Q 2819 -91 2034 -91 
Q 1250 -91 836 529 
Q 422 1150 422 2328 
Q 422 3509 836 4129 
Q 1250 4750 2034 4750 
z
" transform="scale(0.015625)"/>
       </defs>
       <use xlink:href="#DejaVuSans-30"/>
      </g>
     </g>
    </g>
    <g id="xtick_2">
     <g id="line2d_2">
      <g>
       <use xlink:href="#mba1c52e64f" x="142.943012" y="307.584" style="stroke: #000000; stroke-width: 0.8"/>
      </g>
     </g>
     <g id="text_2">
      <!-- 2 -->
      <g transform="translate(139.761762 322.182437)scale(0.1 -0.1)">
       <defs>
        <path id="DejaVuSans-32" d="M 1228 531 
L 3431 531 
L 3431 0 
L 469 0 
L 469 531 
Q 828 903 1448 1529 
Q 2069 2156 2228 2338 
Q 2531 2678 2651 2914 
Q 2772 3150 2772 3378 
Q 2772 3750 2511 3984 
Q 2250 4219 1831 4219 
Q 1534 4219 1204 4116 
Q 875 4013 500 3803 
L 500 4441 
Q 881 4594 1212 4672 
Q 1544 4750 1819 4750 
Q 2544 4750 2975 4387 
Q 3406 4025 3406 3419 
Q 3406 3131 3298 2873 
Q 3191 2616 2906 2266 
Q 2828 2175 2409 1742 
Q 1991 1309 1228 531 
z
" transform="scale(0.015625)"/>
       </defs>
       <use xlink:href="#DejaVuSans-32"/>
      </g>
     </g>
    </g>
    <g id="xtick_3">
     <g id="line2d_3">
      <g>
       <use xlink:href="#mba1c52e64f" x="212.053475" y="307.584" style="stroke: #000000; stroke-width: 0.8"/>
      </g>
     </g>
     <g id="text_3">
      <!-- 4 -->
      <g transform="translate(208.872225 322.182437)scale(0.1 -0.1)">
       <defs>
        <path id="DejaVuSans-34" d="M 2419 4116 
L 825 1625 
L 2419 1625 
L 2419 4116 
z
M 2253 4666 
L 3047 4666 
L 3047 1625 
L 3713 1625 
L 3713 1100 
L 3047 1100 
L 3047 0 
L 2419 0 
L 2419 1100 
L 313 1100 
L 313 1709 
L 2253 4666 
z
" transform="scale(0.015625)"/>
       </defs>
       <use xlink:href="#DejaVuSans-34"/>
      </g>
     </g>
    </g>
    <g id="xtick_4">
     <g id="line2d_4">
      <g>
       <use xlink:href="#mba1c52e64f" x="281.163937" y="307.584" style="stroke: #000000; stroke-width: 0.8"/>
      </g>
     </g>
     <g id="text_4">
      <!-- 6 -->
      <g transform="translate(277.982687 322.182437)scale(0.1 -0.1)">
       <defs>
        <path id="DejaVuSans-36" d="M 2113 2584 
Q 1688 2584 1439 2293 
Q 1191 2003 1191 1497 
Q 1191 994 1439 701 
Q 1688 409 2113 409 
Q 2538 409 2786 701 
Q 3034 994 3034 1497 
Q 3034 2003 2786 2293 
Q 2538 2584 2113 2584 
z
M 3366 4563 
L 3366 3988 
Q 3128 4100 2886 4159 
Q 2644 4219 2406 4219 
Q 1781 4219 1451 3797 
Q 1122 3375 1075 2522 
Q 1259 2794 1537 2939 
Q 1816 3084 2150 3084 
Q 2853 3084 3261 2657 
Q 3669 2231 3669 1497 
Q 3669 778 3244 343 
Q 2819 -91 2113 -91 
Q 1303 -91 875 529 
Q 447 1150 447 2328 
Q 447 3434 972 4092 
Q 1497 4750 2381 4750 
Q 2619 4750 2861 4703 
Q 3103 4656 3366 4563 
z
" transform="scale(0.015625)"/>
       </defs>
       <use xlink:href="#DejaVuSans-36"/>
      </g>
     </g>
    </g>
    <g id="xtick_5">
     <g id="line2d_5">
      <g>
       <use xlink:href="#mba1c52e64f" x="350.274399" y="307.584" style="stroke: #000000; stroke-width: 0.8"/>
      </g>
     </g>
     <g id="text_5">
      <!-- 8 -->
      <g transform="translate(347.093149 322.182437)scale(0.1 -0.1)">
       <defs>
        <path id="DejaVuSans-38" d="M 2034 2216 
Q 1584 2216 1326 1975 
Q 1069 1734 1069 1313 
Q 1069 891 1326 650 
Q 1584 409 2034 409 
Q 2484 409 2743 651 
Q 3003 894 3003 1313 
Q 3003 1734 2745 1975 
Q 2488 2216 2034 2216 
z
M 1403 2484 
Q 997 2584 770 2862 
Q 544 3141 544 3541 
Q 544 4100 942 4425 
Q 1341 4750 2034 4750 
Q 2731 4750 3128 4425 
Q 3525 4100 3525 3541 
Q 3525 3141 3298 2862 
Q 3072 2584 2669 2484 
Q 3125 2378 3379 2068 
Q 3634 1759 3634 1313 
Q 3634 634 3220 271 
Q 2806 -91 2034 -91 
Q 1263 -91 848 271 
Q 434 634 434 1313 
Q 434 1759 690 2068 
Q 947 2378 1403 2484 
z
M 1172 3481 
Q 1172 3119 1398 2916 
Q 1625 2713 2034 2713 
Q 2441 2713 2670 2916 
Q 2900 3119 2900 3481 
Q 2900 3844 2670 4047 
Q 2441 4250 2034 4250 
Q 1625 4250 1398 4047 
Q 1172 3844 1172 3481 
z
" transform="scale(0.015625)"/>
       </defs>
       <use xlink:href="#DejaVuSans-38"/>
      </g>
     </g>
    </g>
    <g id="text_6">
     <!-- Global Problem Size -->
     <g transform="translate(186.327969 335.860562)scale(0.1 -0.1)">
      <defs>
       <path id="DejaVuSans-47" d="M 3809 666 
L 3809 1919 
L 2778 1919 
L 2778 2438 
L 4434 2438 
L 4434 434 
Q 4069 175 3628 42 
Q 3188 -91 2688 -91 
Q 1594 -91 976 548 
Q 359 1188 359 2328 
Q 359 3472 976 4111 
Q 1594 4750 2688 4750 
Q 3144 4750 3555 4637 
Q 3966 4525 4313 4306 
L 4313 3634 
Q 3963 3931 3569 4081 
Q 3175 4231 2741 4231 
Q 1884 4231 1454 3753 
Q 1025 3275 1025 2328 
Q 1025 1384 1454 906 
Q 1884 428 2741 428 
Q 3075 428 3337 486 
Q 3600 544 3809 666 
z
" transform="scale(0.015625)"/>
       <path id="DejaVuSans-6c" d="M 603 4863 
L 1178 4863 
L 1178 0 
L 603 0 
L 603 4863 
z
" transform="scale(0.015625)"/>
       <path id="DejaVuSans-6f" d="M 1959 3097 
Q 1497 3097 1228 2736 
Q 959 2375 959 1747 
Q 959 1119 1226 758 
Q 1494 397 1959 397 
Q 2419 397 2687 759 
Q 2956 1122 2956 1747 
Q 2956 2369 2687 2733 
Q 2419 3097 1959 3097 
z
M 1959 3584 
Q 2709 3584 3137 3096 
Q 3566 2609 3566 1747 
Q 3566 888 3137 398 
Q 2709 -91 1959 -91 
Q 1206 -91 779 398 
Q 353 888 353 1747 
Q 353 2609 779 3096 
Q 1206 3584 1959 3584 
z
" transform="scale(0.015625)"/>
       <path id="DejaVuSans-62" d="M 3116 1747 
Q 3116 2381 2855 2742 
Q 2594 3103 2138 3103 
Q 1681 3103 1420 2742 
Q 1159 2381 1159 1747 
Q 1159 1113 1420 752 
Q 1681 391 2138 391 
Q 2594 391 2855 752 
Q 3116 1113 3116 1747 
z
M 1159 2969 
Q 1341 3281 1617 3432 
Q 1894 3584 2278 3584 
Q 2916 3584 3314 3078 
Q 3713 2572 3713 1747 
Q 3713 922 3314 415 
Q 2916 -91 2278 -91 
Q 1894 -91 1617 61 
Q 1341 213 1159 525 
L 1159 0 
L 581 0 
L 581 4863 
L 1159 4863 
L 1159 2969 
z
" transform="scale(0.015625)"/>
       <path id="DejaVuSans-61" d="M 2194 1759 
Q 1497 1759 1228 1600 
Q 959 1441 959 1056 
Q 959 750 1161 570 
Q 1363 391 1709 391 
Q 2188 391 2477 730 
Q 2766 1069 2766 1631 
L 2766 1759 
L 2194 1759 
z
M 3341 1997 
L 3341 0 
L 2766 0 
L 2766 531 
Q 2569 213 2275 61 
Q 1981 -91 1556 -91 
Q 1019 -91 701 211 
Q 384 513 384 1019 
Q 384 1609 779 1909 
Q 1175 2209 1959 2209 
L 2766 2209 
L 2766 2266 
Q 2766 2663 2505 2880 
Q 2244 3097 1772 3097 
Q 1472 3097 1187 3025 
Q 903 2953 641 2809 
L 641 3341 
Q 956 3463 1253 3523 
Q 1550 3584 1831 3584 
Q 2591 3584 2966 3190 
Q 3341 2797 3341 1997 
z
" transform="scale(0.015625)"/>
       <path id="DejaVuSans-20" transform="scale(0.015625)"/>
       <path id="DejaVuSans-50" d="M 1259 4147 
L 1259 2394 
L 2053 2394 
Q 2494 2394 2734 2622 
Q 2975 2850 2975 3272 
Q 2975 3691 2734 3919 
Q 2494 4147 2053 4147 
L 1259 4147 
z
M 628 4666 
L 2053 4666 
Q 2838 4666 3239 4311 
Q 3641 3956 3641 3272 
Q 3641 2581 3239 2228 
Q 2838 1875 2053 1875 
L 1259 1875 
L 1259 0 
L 628 0 
L 628 4666 
z
" transform="scale(0.015625)"/>
       <path id="DejaVuSans-72" d="M 2631 2963 
Q 2534 3019 2420 3045 
Q 2306 3072 2169 3072 
Q 1681 3072 1420 2755 
Q 1159 2438 1159 1844 
L 1159 0 
L 581 0 
L 581 3500 
L 1159 3500 
L 1159 2956 
Q 1341 3275 1631 3429 
Q 1922 3584 2338 3584 
Q 2397 3584 2469 3576 
Q 2541 3569 2628 3553 
L 2631 2963 
z
" transform="scale(0.015625)"/>
       <path id="DejaVuSans-65" d="M 3597 1894 
L 3597 1613 
L 953 1613 
Q 991 1019 1311 708 
Q 1631 397 2203 397 
Q 2534 397 2845 478 
Q 3156 559 3463 722 
L 3463 178 
Q 3153 47 2828 -22 
Q 2503 -91 2169 -91 
Q 1331 -91 842 396 
Q 353 884 353 1716 
Q 353 2575 817 3079 
Q 1281 3584 2069 3584 
Q 2775 3584 3186 3129 
Q 3597 2675 3597 1894 
z
M 3022 2063 
Q 3016 2534 2758 2815 
Q 2500 3097 2075 3097 
Q 1594 3097 1305 2825 
Q 1016 2553 972 2059 
L 3022 2063 
z
" transform="scale(0.015625)"/>
       <path id="DejaVuSans-6d" d="M 3328 2828 
Q 3544 3216 3844 3400 
Q 4144 3584 4550 3584 
Q 5097 3584 5394 3201 
Q 5691 2819 5691 2113 
L 5691 0 
L 5113 0 
L 5113 2094 
Q 5113 2597 4934 2840 
Q 4756 3084 4391 3084 
Q 3944 3084 3684 2787 
Q 3425 2491 3425 1978 
L 3425 0 
L 2847 0 
L 2847 2094 
Q 2847 2600 2669 2842 
Q 2491 3084 2119 3084 
Q 1678 3084 1418 2786 
Q 1159 2488 1159 1978 
L 1159 0 
L 581 0 
L 581 3500 
L 1159 3500 
L 1159 2956 
Q 1356 3278 1631 3431 
Q 1906 3584 2284 3584 
Q 2666 3584 2933 3390 
Q 3200 3197 3328 2828 
z
" transform="scale(0.015625)"/>
       <path id="DejaVuSans-53" d="M 3425 4513 
L 3425 3897 
Q 3066 4069 2747 4153 
Q 2428 4238 2131 4238 
Q 1616 4238 1336 4038 
Q 1056 3838 1056 3469 
Q 1056 3159 1242 3001 
Q 1428 2844 1947 2747 
L 2328 2669 
Q 3034 2534 3370 2195 
Q 3706 1856 3706 1288 
Q 3706 609 3251 259 
Q 2797 -91 1919 -91 
Q 1588 -91 1214 -16 
Q 841 59 441 206 
L 441 856 
Q 825 641 1194 531 
Q 1563 422 1919 422 
Q 2459 422 2753 634 
Q 3047 847 3047 1241 
Q 3047 1584 2836 1778 
Q 2625 1972 2144 2069 
L 1759 2144 
Q 1053 2284 737 2584 
Q 422 2884 422 3419 
Q 422 4038 858 4394 
Q 1294 4750 2059 4750 
Q 2388 4750 2728 4690 
Q 3069 4631 3425 4513 
z
" transform="scale(0.015625)"/>
       <path id="DejaVuSans-69" d="M 603 3500 
L 1178 3500 
L 1178 0 
L 603 0 
L 603 3500 
z
M 603 4863 
L 1178 4863 
L 1178 4134 
L 603 4134 
L 603 4863 
z
" transform="scale(0.015625)"/>
       <path id="DejaVuSans-7a" d="M 353 3500 
L 3084 3500 
L 3084 2975 
L 922 459 
L 3084 459 
L 3084 0 
L 275 0 
L 275 525 
L 2438 3041 
L 353 3041 
L 353 3500 
z
" transform="scale(0.015625)"/>
      </defs>
      <use xlink:href="#DejaVuSans-47"/>
      <use xlink:href="#DejaVuSans-6c" x="77.490234"/>
      <use xlink:href="#DejaVuSans-6f" x="105.273438"/>
      <use xlink:href="#DejaVuSans-62" x="166.455078"/>
      <use xlink:href="#DejaVuSans-61" x="229.931641"/>
      <use xlink:href="#DejaVuSans-6c" x="291.210938"/>
      <use xlink:href="#DejaVuSans-20" x="318.994141"/>
      <use xlink:href="#DejaVuSans-50" x="350.78125"/>
      <use xlink:href="#DejaVuSans-72" x="409.333984"/>
      <use xlink:href="#DejaVuSans-6f" x="448.197266"/>
      <use xlink:href="#DejaVuSans-62" x="509.378906"/>
      <use xlink:href="#DejaVuSans-6c" x="572.855469"/>
      <use xlink:href="#DejaVuSans-65" x="600.638672"/>
      <use xlink:href="#DejaVuSans-6d" x="662.162109"/>
      <use xlink:href="#DejaVuSans-20" x="759.574219"/>
      <use xlink:href="#DejaVuSans-53" x="791.361328"/>
      <use xlink:href="#DejaVuSans-69" x="854.837891"/>
      <use xlink:href="#DejaVuSans-7a" x="882.621094"/>
      <use xlink:href="#DejaVuSans-65" x="935.111328"/>
     </g>
    </g>
    <g id="text_7">
     <!-- 1e8 -->
     <g transform="translate(395.841875 334.860562)scale(0.1 -0.1)">
      <defs>
       <path id="DejaVuSans-31" d="M 794 531 
L 1825 531 
L 1825 4091 
L 703 3866 
L 703 4441 
L 1819 4666 
L 2450 4666 
L 2450 531 
L 3481 531 
L 3481 0 
L 794 0 
L 794 531 
z
" transform="scale(0.015625)"/>
      </defs>
      <use xlink:href="#DejaVuSans-31"/>
      <use xlink:href="#DejaVuSans-65" x="63.623047"/>
      <use xlink:href="#DejaVuSans-38" x="125.146484"/>
     </g>
    </g>
   </g>
   <g id="matplotlib.axis_2">
    <g id="ytick_1">
     <g id="line2d_6">
      <defs>
       <path id="m7e58224c40" d="M 0 0 
L -3.5 0 
" style="stroke: #000000; stroke-width: 0.8"/>
      </defs>
      <g>
       <use xlink:href="#m7e58224c40" x="57.6" y="296.267994" style="stroke: #000000; stroke-width: 0.8"/>
      </g>
     </g>
     <g id="text_8">
      <!-- 0 -->
      <g transform="translate(44.2375 300.067213)scale(0.1 -0.1)">
       <use xlink:href="#DejaVuSans-30"/>
      </g>
     </g>
    </g>
    <g id="ytick_2">
     <g id="line2d_7">
      <g>
       <use xlink:href="#m7e58224c40" x="57.6" y="266.254555" style="stroke: #000000; stroke-width: 0.8"/>
      </g>
     </g>
     <g id="text_9">
      <!-- 1 -->
      <g transform="translate(44.2375 270.053774)scale(0.1 -0.1)">
       <use xlink:href="#DejaVuSans-31"/>
      </g>
     </g>
    </g>
    <g id="ytick_3">
     <g id="line2d_8">
      <g>
       <use xlink:href="#m7e58224c40" x="57.6" y="236.241116" style="stroke: #000000; stroke-width: 0.8"/>
      </g>
     </g>
     <g id="text_10">
      <!-- 2 -->
      <g transform="translate(44.2375 240.040335)scale(0.1 -0.1)">
       <use xlink:href="#DejaVuSans-32"/>
      </g>
     </g>
    </g>
    <g id="ytick_4">
     <g id="line2d_9">
      <g>
       <use xlink:href="#m7e58224c40" x="57.6" y="206.227677" style="stroke: #000000; stroke-width: 0.8"/>
      </g>
     </g>
     <g id="text_11">
      <!-- 3 -->
      <g transform="translate(44.2375 210.026896)scale(0.1 -0.1)">
       <defs>
        <path id="DejaVuSans-33" d="M 2597 2516 
Q 3050 2419 3304 2112 
Q 3559 1806 3559 1356 
Q 3559 666 3084 287 
Q 2609 -91 1734 -91 
Q 1441 -91 1130 -33 
Q 819 25 488 141 
L 488 750 
Q 750 597 1062 519 
Q 1375 441 1716 441 
Q 2309 441 2620 675 
Q 2931 909 2931 1356 
Q 2931 1769 2642 2001 
Q 2353 2234 1838 2234 
L 1294 2234 
L 1294 2753 
L 1863 2753 
Q 2328 2753 2575 2939 
Q 2822 3125 2822 3475 
Q 2822 3834 2567 4026 
Q 2313 4219 1838 4219 
Q 1578 4219 1281 4162 
Q 984 4106 628 3988 
L 628 4550 
Q 988 4650 1302 4700 
Q 1616 4750 1894 4750 
Q 2613 4750 3031 4423 
Q 3450 4097 3450 3541 
Q 3450 3153 3228 2886 
Q 3006 2619 2597 2516 
z
" transform="scale(0.015625)"/>
       </defs>
       <use xlink:href="#DejaVuSans-33"/>
      </g>
     </g>
    </g>
    <g id="ytick_5">
     <g id="line2d_10">
      <g>
       <use xlink:href="#m7e58224c40" x="57.6" y="176.214238" style="stroke: #000000; stroke-width: 0.8"/>
      </g>
     </g>
     <g id="text_12">
      <!-- 4 -->
      <g transform="translate(44.2375 180.013457)scale(0.1 -0.1)">
       <use xlink:href="#DejaVuSans-34"/>
      </g>
     </g>
    </g>
    <g id="ytick_6">
     <g id="line2d_11">
      <g>
       <use xlink:href="#m7e58224c40" x="57.6" y="146.200799" style="stroke: #000000; stroke-width: 0.8"/>
      </g>
     </g>
     <g id="text_13">
      <!-- 5 -->
      <g transform="translate(44.2375 150.000018)scale(0.1 -0.1)">
       <defs>
        <path id="DejaVuSans-35" d="M 691 4666 
L 3169 4666 
L 3169 4134 
L 1269 4134 
L 1269 2991 
Q 1406 3038 1543 3061 
Q 1681 3084 1819 3084 
Q 2600 3084 3056 2656 
Q 3513 2228 3513 1497 
Q 3513 744 3044 326 
Q 2575 -91 1722 -91 
Q 1428 -91 1123 -41 
Q 819 9 494 109 
L 494 744 
Q 775 591 1075 516 
Q 1375 441 1709 441 
Q 2250 441 2565 725 
Q 2881 1009 2881 1497 
Q 2881 1984 2565 2268 
Q 2250 2553 1709 2553 
Q 1456 2553 1204 2497 
Q 953 2441 691 2322 
L 691 4666 
z
" transform="scale(0.015625)"/>
       </defs>
       <use xlink:href="#DejaVuSans-35"/>
      </g>
     </g>
    </g>
    <g id="ytick_7">
     <g id="line2d_12">
      <g>
       <use xlink:href="#m7e58224c40" x="57.6" y="116.18736" style="stroke: #000000; stroke-width: 0.8"/>
      </g>
     </g>
     <g id="text_14">
      <!-- 6 -->
      <g transform="translate(44.2375 119.986579)scale(0.1 -0.1)">
       <use xlink:href="#DejaVuSans-36"/>
      </g>
     </g>
    </g>
    <g id="ytick_8">
     <g id="line2d_13">
      <g>
       <use xlink:href="#m7e58224c40" x="57.6" y="86.173921" style="stroke: #000000; stroke-width: 0.8"/>
      </g>
     </g>
     <g id="text_15">
      <!-- 7 -->
      <g transform="translate(44.2375 89.97314)scale(0.1 -0.1)">
       <defs>
        <path id="DejaVuSans-37" d="M 525 4666 
L 3525 4666 
L 3525 4397 
L 1831 0 
L 1172 0 
L 2766 4134 
L 525 4134 
L 525 4666 
z
" transform="scale(0.015625)"/>
       </defs>
       <use xlink:href="#DejaVuSans-37"/>
      </g>
     </g>
    </g>
    <g id="ytick_9">
     <g id="line2d_14">
      <g>
       <use xlink:href="#m7e58224c40" x="57.6" y="56.160482" style="stroke: #000000; stroke-width: 0.8"/>
      </g>
     </g>
     <g id="text_16">
      <!-- 8 -->
      <g transform="translate(44.2375 59.959701)scale(0.1 -0.1)">
       <use xlink:href="#DejaVuSans-38"/>
      </g>
     </g>
    </g>
    <g id="text_17">
     <!-- GFLOPS -->
     <g transform="translate(38.157812 194.007688)rotate(-90)scale(0.1 -0.1)">
      <defs>
       <path id="DejaVuSans-46" d="M 628 4666 
L 3309 4666 
L 3309 4134 
L 1259 4134 
L 1259 2759 
L 3109 2759 
L 3109 2228 
L 1259 2228 
L 1259 0 
L 628 0 
L 628 4666 
z
" transform="scale(0.015625)"/>
       <path id="DejaVuSans-4c" d="M 628 4666 
L 1259 4666 
L 1259 531 
L 3531 531 
L 3531 0 
L 628 0 
L 628 4666 
z
" transform="scale(0.015625)"/>
       <path id="DejaVuSans-4f" d="M 2522 4238 
Q 1834 4238 1429 3725 
Q 1025 3213 1025 2328 
Q 1025 1447 1429 934 
Q 1834 422 2522 422 
Q 3209 422 3611 934 
Q 4013 1447 4013 2328 
Q 4013 3213 3611 3725 
Q 3209 4238 2522 4238 
z
M 2522 4750 
Q 3503 4750 4090 4092 
Q 4678 3434 4678 2328 
Q 4678 1225 4090 567 
Q 3503 -91 2522 -91 
Q 1538 -91 948 565 
Q 359 1222 359 2328 
Q 359 3434 948 4092 
Q 1538 4750 2522 4750 
z
" transform="scale(0.015625)"/>
      </defs>
      <use xlink:href="#DejaVuSans-47"/>
      <use xlink:href="#DejaVuSans-46" x="77.490234"/>
      <use xlink:href="#DejaVuSans-4c" x="135.009766"/>
      <use xlink:href="#DejaVuSans-4f" x="187.097656"/>
      <use xlink:href="#DejaVuSans-50" x="265.808594"/>
      <use xlink:href="#DejaVuSans-53" x="326.111328"/>
     </g>
    </g>
   </g>
   <g id="line2d_15">
    <path d="M 73.832727 230.382943 
L 73.923135 136.389692 
L 73.896773 265.252361 
L 73.938704 213.480124 
L 73.961527 266.139994 
L 74.013719 99.218887 
L 74.044858 212.52171 
L 74.050519 211.040557 
L 74.104304 88.091202 
L 74.109965 215.615881 
L 74.159504 211.509967 
L 74.194888 94.903194 
L 74.179319 216.680357 
L 74.268488 215.193141 
L 74.278396 215.604175 
L 74.376057 90.028007 
L 74.377473 216.042297 
L 74.38738 163.737592 
L 74.455319 217.262668 
L 74.466642 111.530039 
L 74.486457 216.193339 
L 74.511934 103.236396 
L 74.517595 216.632136 
L 74.596857 212.319705 
L 74.611011 215.885251 
L 74.647811 124.514172 
L 74.673287 216.244662 
L 74.704426 215.409088 
L 74.724241 216.039971 
L 74.783687 98.082444 
L 74.823318 217.002502 
L 74.828979 142.188723 
L 74.851626 128.357603 
L 74.864364 216.97699 
L 74.919564 120.398082 
L 74.953533 173.117632 
L 75.021471 105.160783 
L 74.97901 214.696269 
L 75.055441 105.215129 
L 75.093656 213.452812 
L 75.106394 212.354921 
L 75.191317 115.390645 
L 75.20264 212.452164 
L 75.233779 213.920271 
L 75.259256 107.468081 
L 75.327194 115.548862 
L 75.361163 122.435483 
L 75.373902 212.596829 
L 75.417778 115.96346 
L 75.463071 120.462229 
L 75.576301 106.500223 
L 75.700855 126.717125 
L 75.734824 118.406597 
L 75.814086 128.42534 
L 75.825409 119.428662 
L 75.972608 122.15083 
L 76.006578 188.073751 
L 76.074516 121.000375 
L 76.097162 126.823994 
L 76.210393 121.054254 
L 76.368915 129.158268 
L 76.380238 127.811715 
L 76.57273 118.614847 
L 76.731253 271.308113 
L 76.821838 124.634042 
L 76.889776 125.769251 
L 76.946391 133.715659 
L 77.003007 127.927267 
L 77.161529 120.0729 
L 77.195499 129.635482 
L 77.229468 127.519955 
L 77.399314 128.953126 
L 77.455929 211.483081 
L 77.501221 126.156924 
L 77.56916 128.232454 
L 77.637098 121.697828 
L 77.908851 128.117552 
L 77.94282 123.609684 
L 78.112666 124.150526 
L 78.180605 275.943897 
L 78.191928 132.44504 
L 78.361774 126.967487 
L 78.418389 131.514923 
L 78.588235 123.418798 
L 78.724111 125.485974 
L 78.814696 130.18953 
L 78.90528 293.996529 
L 78.927927 127.26352 
L 79.063803 123.546055 
L 79.267618 124.526294 
L 79.31291 126.001755 
L 79.437464 131.466902 
L 79.494079 132.046461 
L 79.629956 294.844049 
L 79.811125 123.69087 
L 80.060232 132.112641 
L 80.354632 294.838019 
L 80.558447 124.710727 
L 80.626385 124.948883 
L 80.683001 131.645782 
L 81.079308 294.619799 
L 81.305769 125.552454 
L 82.053091 125.485824 
L 82.528659 294.551622 
L 84.702686 293.864246 
L 85.427362 294.447063 
L 88.326065 293.604729 
L 89.05074 292.710733 
L 91.224768 293.652109 
L 91.949443 292.331501 
L 93.398795 294.132427 
L 94.12347 292.612367 
L 95.572822 292.850526 
L 97.022173 293.865977 
L 99.196201 290.562432 
L 99.920876 293.088128 
L 102.819579 292.32069 
L 104.268931 291.700153 
L 105.718282 292.92001 
L 106.442958 292.723517 
L 108.616985 293.042208 
L 109.341661 289.120683 
L 110.066336 292.107131 
L 112.965039 291.799243 
L 114.414391 291.400604 
L 117.313094 291.436147 
L 119.487121 291.028158 
L 120.211796 293.210063 
L 121.661148 291.080936 
L 124.559851 290.716258 
L 126.009202 291.428511 
L 128.183229 290.003589 
L 131.806608 291.089943 
L 132.531284 289.809912 
L 139.053365 289.010301 
L 143.401419 292.325399 
L 144.850771 288.938532 
L 145.575447 288.610545 
L 146.300122 288.442525 
L 152.097528 288.726963 
L 153.54688 288.371988 
L 154.996231 291.003697 
L 160.793637 288.971626 
L 164.417015 287.207837 
L 165.141691 286.993766 
L 166.591042 292.416988 
L 169.489745 286.832544 
L 171.663772 286.29943 
L 175.287151 286.197264 
L 178.185854 289.996759 
L 180.359881 285.031202 
L 182.533908 285.417565 
L 185.432611 284.957654 
L 189.780665 288.467951 
L 191.230017 284.967284 
L 193.404044 284.708108 
L 195.578071 288.749038 
L 200.650801 283.391433 
L 201.375477 283.234575 
L 204.27418 283.581876 
L 210.796261 282.85955 
L 212.970289 291.962582 
L 215.868991 282.16711 
L 217.318343 283.101841 
L 218.767694 283.85348 
L 226.014451 282.26256 
L 230.362506 284.748397 
L 233.261209 282.292962 
L 236.159912 289.832045 
L 236.884587 281.954585 
L 241.232642 282.205572 
L 247.754723 287.90234 
L 249.204074 280.478074 
L 251.378102 281.510986 
L 255.00148 281.217275 
L 256.450832 281.232671 
L 259.349535 292.418274 
L 265.14694 280.797424 
L 269.494995 281.293369 
L 273.118373 279.713901 
L 276.741752 284.106866 
L 282.539158 290.597064 
L 289.061239 278.478878 
L 291.235266 279.212602 
L 297.032672 278.382355 
L 302.105402 278.707491 
L 305.728781 289.540261 
L 308.627483 278.508202 
L 312.975538 279.779911 
L 317.323592 291.7821 
L 327.469052 276.566572 
L 328.918404 285.042833 
L 334.715809 284.47242 
L 336.889837 282.688773 
L 352.108027 292.08115 
L 352.832702 275.37855 
L 357.905432 289.240077 
L 360.804135 276.408011 
L 363.702838 283.608055 
L 386.892461 291.828766 
L 392.689867 273.938671 
L 398.487273 290.640334 
L 398.487273 290.640334 
" clip-path="url(#p008065c670)" style="fill: none; stroke: #1f77b4; stroke-width: 1.5; stroke-linecap: square"/>
   </g>
   <g id="line2d_16"/>
   <g id="patch_3">
    <path d="M 57.6 307.584 
L 57.6 41.472 
" style="fill: none; stroke: #000000; stroke-width: 0.8; stroke-linejoin: miter; stroke-linecap: square"/>
   </g>
   <g id="patch_4">
    <path d="M 414.72 307.584 
L 414.72 41.472 
" style="fill: none; stroke: #000000; stroke-width: 0.8; stroke-linejoin: miter; stroke-linecap: square"/>
   </g>
   <g id="patch_5">
    <path d="M 57.6 307.584 
L 414.72 307.584 
" style="fill: none; stroke: #000000; stroke-width: 0.8; stroke-linejoin: miter; stroke-linecap: square"/>
   </g>
   <g id="patch_6">
    <path d="M 57.6 41.472 
L 414.72 41.472 
" style="fill: none; stroke: #000000; stroke-width: 0.8; stroke-linejoin: miter; stroke-linecap: square"/>
   </g>
   <g id="text_18">
    <!-- Gustafson-like Scaling -->
    <g transform="translate(169.757812 35.472)scale(0.12 -0.12)">
     <defs>
      <path id="DejaVuSans-75" d="M 544 1381 
L 544 3500 
L 1119 3500 
L 1119 1403 
Q 1119 906 1312 657 
Q 1506 409 1894 409 
Q 2359 409 2629 706 
Q 2900 1003 2900 1516 
L 2900 3500 
L 3475 3500 
L 3475 0 
L 2900 0 
L 2900 538 
Q 2691 219 2414 64 
Q 2138 -91 1772 -91 
Q 1169 -91 856 284 
Q 544 659 544 1381 
z
M 1991 3584 
L 1991 3584 
z
" transform="scale(0.015625)"/>
      <path id="DejaVuSans-73" d="M 2834 3397 
L 2834 2853 
Q 2591 2978 2328 3040 
Q 2066 3103 1784 3103 
Q 1356 3103 1142 2972 
Q 928 2841 928 2578 
Q 928 2378 1081 2264 
Q 1234 2150 1697 2047 
L 1894 2003 
Q 2506 1872 2764 1633 
Q 3022 1394 3022 966 
Q 3022 478 2636 193 
Q 2250 -91 1575 -91 
Q 1294 -91 989 -36 
Q 684 19 347 128 
L 347 722 
Q 666 556 975 473 
Q 1284 391 1588 391 
Q 1994 391 2212 530 
Q 2431 669 2431 922 
Q 2431 1156 2273 1281 
Q 2116 1406 1581 1522 
L 1381 1569 
Q 847 1681 609 1914 
Q 372 2147 372 2553 
Q 372 3047 722 3315 
Q 1072 3584 1716 3584 
Q 2034 3584 2315 3537 
Q 2597 3491 2834 3397 
z
" transform="scale(0.015625)"/>
      <path id="DejaVuSans-74" d="M 1172 4494 
L 1172 3500 
L 2356 3500 
L 2356 3053 
L 1172 3053 
L 1172 1153 
Q 1172 725 1289 603 
Q 1406 481 1766 481 
L 2356 481 
L 2356 0 
L 1766 0 
Q 1100 0 847 248 
Q 594 497 594 1153 
L 594 3053 
L 172 3053 
L 172 3500 
L 594 3500 
L 594 4494 
L 1172 4494 
z
" transform="scale(0.015625)"/>
      <path id="DejaVuSans-66" d="M 2375 4863 
L 2375 4384 
L 1825 4384 
Q 1516 4384 1395 4259 
Q 1275 4134 1275 3809 
L 1275 3500 
L 2222 3500 
L 2222 3053 
L 1275 3053 
L 1275 0 
L 697 0 
L 697 3053 
L 147 3053 
L 147 3500 
L 697 3500 
L 697 3744 
Q 697 4328 969 4595 
Q 1241 4863 1831 4863 
L 2375 4863 
z
" transform="scale(0.015625)"/>
      <path id="DejaVuSans-6e" d="M 3513 2113 
L 3513 0 
L 2938 0 
L 2938 2094 
Q 2938 2591 2744 2837 
Q 2550 3084 2163 3084 
Q 1697 3084 1428 2787 
Q 1159 2491 1159 1978 
L 1159 0 
L 581 0 
L 581 3500 
L 1159 3500 
L 1159 2956 
Q 1366 3272 1645 3428 
Q 1925 3584 2291 3584 
Q 2894 3584 3203 3211 
Q 3513 2838 3513 2113 
z
" transform="scale(0.015625)"/>
      <path id="DejaVuSans-2d" d="M 313 2009 
L 1997 2009 
L 1997 1497 
L 313 1497 
L 313 2009 
z
" transform="scale(0.015625)"/>
      <path id="DejaVuSans-6b" d="M 581 4863 
L 1159 4863 
L 1159 1991 
L 2875 3500 
L 3609 3500 
L 1753 1863 
L 3688 0 
L 2938 0 
L 1159 1709 
L 1159 0 
L 581 0 
L 581 4863 
z
" transform="scale(0.015625)"/>
      <path id="DejaVuSans-63" d="M 3122 3366 
L 3122 2828 
Q 2878 2963 2633 3030 
Q 2388 3097 2138 3097 
Q 1578 3097 1268 2742 
Q 959 2388 959 1747 
Q 959 1106 1268 751 
Q 1578 397 2138 397 
Q 2388 397 2633 464 
Q 2878 531 3122 666 
L 3122 134 
Q 2881 22 2623 -34 
Q 2366 -91 2075 -91 
Q 1284 -91 818 406 
Q 353 903 353 1747 
Q 353 2603 823 3093 
Q 1294 3584 2113 3584 
Q 2378 3584 2631 3529 
Q 2884 3475 3122 3366 
z
" transform="scale(0.015625)"/>
      <path id="DejaVuSans-67" d="M 2906 1791 
Q 2906 2416 2648 2759 
Q 2391 3103 1925 3103 
Q 1463 3103 1205 2759 
Q 947 2416 947 1791 
Q 947 1169 1205 825 
Q 1463 481 1925 481 
Q 2391 481 2648 825 
Q 2906 1169 2906 1791 
z
M 3481 434 
Q 3481 -459 3084 -895 
Q 2688 -1331 1869 -1331 
Q 1566 -1331 1297 -1286 
Q 1028 -1241 775 -1147 
L 775 -588 
Q 1028 -725 1275 -790 
Q 1522 -856 1778 -856 
Q 2344 -856 2625 -561 
Q 2906 -266 2906 331 
L 2906 616 
Q 2728 306 2450 153 
Q 2172 0 1784 0 
Q 1141 0 747 490 
Q 353 981 353 1791 
Q 353 2603 747 3093 
Q 1141 3584 1784 3584 
Q 2172 3584 2450 3431 
Q 2728 3278 2906 2969 
L 2906 3500 
L 3481 3500 
L 3481 434 
z
" transform="scale(0.015625)"/>
     </defs>
     <use xlink:href="#DejaVuSans-47"/>
     <use xlink:href="#DejaVuSans-75" x="77.490234"/>
     <use xlink:href="#DejaVuSans-73" x="140.869141"/>
     <use xlink:href="#DejaVuSans-74" x="192.96875"/>
     <use xlink:href="#DejaVuSans-61" x="232.177734"/>
     <use xlink:href="#DejaVuSans-66" x="293.457031"/>
     <use xlink:href="#DejaVuSans-73" x="328.662109"/>
     <use xlink:href="#DejaVuSans-6f" x="380.761719"/>
     <use xlink:href="#DejaVuSans-6e" x="441.943359"/>
     <use xlink:href="#DejaVuSans-2d" x="505.322266"/>
     <use xlink:href="#DejaVuSans-6c" x="541.40625"/>
     <use xlink:href="#DejaVuSans-69" x="569.189453"/>
     <use xlink:href="#DejaVuSans-6b" x="596.972656"/>
     <use xlink:href="#DejaVuSans-65" x="651.257812"/>
     <use xlink:href="#DejaVuSans-20" x="712.78125"/>
     <use xlink:href="#DejaVuSans-53" x="744.568359"/>
     <use xlink:href="#DejaVuSans-63" x="808.044922"/>
     <use xlink:href="#DejaVuSans-61" x="863.025391"/>
     <use xlink:href="#DejaVuSans-6c" x="924.304688"/>
     <use xlink:href="#DejaVuSans-69" x="952.087891"/>
     <use xlink:href="#DejaVuSans-6e" x="979.871094"/>
     <use xlink:href="#DejaVuSans-67" x="1043.25"/>
    </g>
   </g>
   <g id="legend_1">
    <g id="patch_7">
     <path d="M 339.12 78.82825 
L 407.72 78.82825 
Q 409.72 78.82825 409.72 76.82825 
L 409.72 48.472 
Q 409.72 46.472 407.72 46.472 
L 339.12 46.472 
Q 337.12 46.472 337.12 48.472 
L 337.12 76.82825 
Q 337.12 78.82825 339.12 78.82825 
z
" style="fill: #ffffff; opacity: 0.8; stroke: #cccccc; stroke-linejoin: miter"/>
    </g>
    <g id="text_19">
     <!-- Cluster -->
     <g transform="translate(355.673906 58.070437)scale(0.1 -0.1)">
      <defs>
       <path id="DejaVuSans-43" d="M 4122 4306 
L 4122 3641 
Q 3803 3938 3442 4084 
Q 3081 4231 2675 4231 
Q 1875 4231 1450 3742 
Q 1025 3253 1025 2328 
Q 1025 1406 1450 917 
Q 1875 428 2675 428 
Q 3081 428 3442 575 
Q 3803 722 4122 1019 
L 4122 359 
Q 3791 134 3420 21 
Q 3050 -91 2638 -91 
Q 1578 -91 968 557 
Q 359 1206 359 2328 
Q 359 3453 968 4101 
Q 1578 4750 2638 4750 
Q 3056 4750 3426 4639 
Q 3797 4528 4122 4306 
z
" transform="scale(0.015625)"/>
      </defs>
      <use xlink:href="#DejaVuSans-43"/>
      <use xlink:href="#DejaVuSans-6c" x="69.824219"/>
      <use xlink:href="#DejaVuSans-75" x="97.607422"/>
      <use xlink:href="#DejaVuSans-73" x="160.986328"/>
      <use xlink:href="#DejaVuSans-74" x="213.085938"/>
      <use xlink:href="#DejaVuSans-65" x="252.294922"/>
      <use xlink:href="#DejaVuSans-72" x="313.818359"/>
     </g>
    </g>
    <g id="line2d_17">
     <path d="M 341.12 69.248562 
L 351.12 69.248562 
L 361.12 69.248562 
" style="fill: none; stroke: #1f77b4; stroke-width: 1.5; stroke-linecap: square"/>
    </g>
    <g id="text_20">
     <!-- Hopper -->
     <g transform="translate(369.12 72.748562)scale(0.1 -0.1)">
      <defs>
       <path id="DejaVuSans-48" d="M 628 4666 
L 1259 4666 
L 1259 2753 
L 3553 2753 
L 3553 4666 
L 4184 4666 
L 4184 0 
L 3553 0 
L 3553 2222 
L 1259 2222 
L 1259 0 
L 628 0 
L 628 4666 
z
" transform="scale(0.015625)"/>
       <path id="DejaVuSans-70" d="M 1159 525 
L 1159 -1331 
L 581 -1331 
L 581 3500 
L 1159 3500 
L 1159 2969 
Q 1341 3281 1617 3432 
Q 1894 3584 2278 3584 
Q 2916 3584 3314 3078 
Q 3713 2572 3713 1747 
Q 3713 922 3314 415 
Q 2916 -91 2278 -91 
Q 1894 -91 1617 61 
Q 1341 213 1159 525 
z
M 3116 1747 
Q 3116 2381 2855 2742 
Q 2594 3103 2138 3103 
Q 1681 3103 1420 2742 
Q 1159 2381 1159 1747 
Q 1159 1113 1420 752 
Q 1681 391 2138 391 
Q 2594 391 2855 752 
Q 3116 1113 3116 1747 
z
" transform="scale(0.015625)"/>
      </defs>
      <use xlink:href="#DejaVuSans-48"/>
      <use xlink:href="#DejaVuSans-6f" x="75.195312"/>
      <use xlink:href="#DejaVuSans-70" x="136.376953"/>
      <use xlink:href="#DejaVuSans-70" x="199.853516"/>
      <use xlink:href="#DejaVuSans-65" x="263.330078"/>
      <use xlink:href="#DejaVuSans-72" x="324.853516"/>
     </g>
    </g>
   </g>
  </g>
 </g>
 <defs>
  <clipPath id="p008065c670">
   <rect x="57.6" y="41.472" width="357.12" height="266.112"/>
  </clipPath>
 </defs>
</svg>
