<?xml version="1.0" encoding="utf-8" standalone="no"?>
<!DOCTYPE svg PUBLIC "-//W3C//DTD SVG 1.1//EN"
  "http://www.w3.org/Graphics/SVG/1.1/DTD/svg11.dtd">
<svg xmlns:xlink="http://www.w3.org/1999/xlink" width="460.8pt" height="345.6pt" viewBox="0 0 460.8 345.6" xmlns="http://www.w3.org/2000/svg" version="1.1">
 <metadata>
  <rdf:RDF xmlns:dc="http://purl.org/dc/elements/1.1/" xmlns:cc="http://creativecommons.org/ns#" xmlns:rdf="http://www.w3.org/1999/02/22-rdf-syntax-ns#">
   <cc:Work>
    <dc:type rdf:resource="http://purl.org/dc/dcmitype/StillImage"/>
    <dc:date>2024-05-04T18:13:32.252668</dc:date>
    <dc:format>image/svg+xml</dc:format>
    <dc:creator>
     <cc:Agent>
      <dc:title>Matplotlib v3.5.3, https://matplotlib.org/</dc:title>
     </cc:Agent>
    </dc:creator>
   </cc:Work>
  </rdf:RDF>
 </metadata>
 <defs>
  <style type="text/css">*{stroke-linejoin: round; stroke-linecap: butt}</style>
 </defs>
 <g id="figure_1">
  <g id="patch_1">
   <path d="M 0 345.6 
L 460.8 345.6 
L 460.8 0 
L 0 0 
z
" style="fill: #ffffff"/>
  </g>
  <g id="axes_1">
   <g id="patch_2">
    <path d="M 57.6 307.584 
L 414.72 307.584 
L 414.72 41.472 
L 57.6 41.472 
z
" style="fill: #ffffff"/>
   </g>
   <g id="PolyCollection_1">
    <path d="M 73.832727 234.325014 
L 73.832727 240.636664 
L 73.832727 232.716325 
L 73.832727 239.456167 
L 73.832727 240.208521 
L 73.832727 249.90955 
L 73.832727 228.24914 
L 73.832727 164.986583 
L 73.832727 295.488 
L 73.832727 295.451041 
L 73.832727 295.451041 
L 73.832727 161.343009 
L 73.832727 192.009623 
L 73.832727 222.951495 
L 73.832727 210.048359 
L 73.832727 227.597701 
L 73.832727 210.854296 
L 73.832727 234.325014 
z
" clip-path="url(#p8f72221c3c)" style="fill: #1f77b4; fill-opacity: 0.2; stroke: #1f77b4; stroke-opacity: 0.2"/>
    <path d="M 73.832727 292.085093 
L 73.832727 295.471102 
L 73.832727 294.195616 
L 73.832727 294.284012 
L 81.17577 260.647329 
L 81.175823 262.259746 
L 81.176324 259.361211 
L 81.176398 262.458545 
L 81.177113 259.322372 
L 81.17722 260.916 
L 81.178291 260.783392 
L 81.178456 260.352323 
L 81.180164 257.946851 
L 81.180438 260.54015 
L 81.183412 248.754675 
L 81.183914 252.85293 
L 81.189807 237.340637 
L 81.190879 241.72676 
L 81.205303 237.707981 
L 81.208288 236.367775 
L 81.262016 240.473873 
L 81.262016 239.258512 
L 81.276586 239.069339 
L 86.558039 267.508286 
L 86.558039 260.894467 
L 86.56056 260.433252 
L 86.564096 258.811202 
L 86.56928 259.182597 
L 86.57733 258.908718 
L 86.590849 255.892919 
L 86.590849 255.627715 
L 86.616302 243.315609 
L 86.673961 234.765375 
L 86.862404 236.724066 
L 88.518812 234.287079 
L 88.518918 231.50018 
L 88.51992 227.949763 
L 88.520068 226.070777 
L 88.521498 223.22165 
L 88.521713 224.630784 
L 88.523854 222.486284 
L 88.524186 227.062258 
L 88.527601 219.717853 
L 88.528149 221.495943 
L 88.530366 262.071152 
L 88.531096 265.580704 
L 88.534097 240.72032 
L 88.5351 235.115783 
L 88.539304 259.923806 
L 88.540736 261.891298 
L 88.546887 239.557109 
L 88.549031 238.576038 
L 88.558551 258.841333 
L 88.561974 259.210304 
L 88.577879 235.49332 
L 88.583848 237.876529 
L 88.613521 242.712429 
L 88.625371 248.673495 
L 88.691304 232.778685 
L 88.691304 228.980502 
L 88.720445 227.707965 
L 88.924528 237.621948 
L 89.034772 236.325945 
L 93.295797 260.442538 
L 93.298494 260.623778 
L 93.306035 260.153431 
L 93.309814 261.608084 
L 93.309814 260.376293 
L 93.320673 261.095923 
L 93.320673 260.587024 
L 93.326205 259.382755 
L 93.342684 258.893177 
L 93.351253 259.217108 
L 93.378113 254.76504 
L 93.392445 255.395337 
L 93.44098 244.673983 
L 93.467771 249.275847 
L 93.571236 233.451148 
L 93.631015 234.416518 
L 93.936354 235.756821 
L 94.123636 234.853995 
L 95.914706 260.162395 
L 95.919063 261.544761 
L 95.929443 261.29676 
L 95.935554 261.375651 
L 95.950456 261.674397 
L 95.959408 261.108822 
L 95.981924 259.517191 
L 95.99581 260.830787 
L 96.032253 254.326364 
L 96.055536 256.01361 
L 96.120592 243.350303 
L 96.164304 254.759452 
L 96.299682 234.606835 
L 96.398111 238.42483 
L 96.773271 236.893272 
L 97.08986 236.337584 
L 99.283351 226.528842 
L 99.283351 235.450284 
L 99.288392 224.811927 
L 99.295465 222.737386 
L 99.305833 221.362998 
L 99.321933 217.631878 
L 99.34897 212.922919 
L 99.34897 221.267027 
L 99.370018 259.785883 
L 99.399878 233.556698 
L 99.444368 257.489471 
L 99.444368 260.451687 
L 99.515195 235.318139 
L 99.639223 253.385393 
L 99.639223 251.838925 
L 99.892081 224.522965 
L 100.41453 259.703396 
L 100.428865 259.846441 
L 100.444795 258.102462 
L 100.465379 260.278109 
L 100.489159 259.934095 
L 100.520273 259.159357 
L 100.558241 256.48659 
L 100.586098 234.932151 
L 100.608628 256.417199 
L 100.675439 247.23922 
L 100.765487 253.837289 
L 100.902947 234.52273 
L 101.090765 239.906302 
L 101.476217 234.458208 
L 102.000536 234.83642 
L 103.214981 162.706958 
L 103.214981 159.430531 
L 103.214981 159.430531 
L 102.000536 228.801092 
L 101.476217 230.788853 
L 101.090765 231.755355 
L 100.902947 228.775288 
L 100.765487 245.19541 
L 100.675439 237.122457 
L 100.608628 251.321265 
L 100.586098 229.464672 
L 100.558241 249.529329 
L 100.520273 254.356292 
L 100.489159 253.371049 
L 100.465379 254.861445 
L 100.444795 253.436332 
L 100.428865 253.759652 
L 100.41453 255.166518 
L 99.892081 214.150759 
L 99.639223 240.497164 
L 99.639223 237.887228 
L 99.515195 219.953744 
L 99.444368 253.227848 
L 99.444368 250.939682 
L 99.399878 213.284378 
L 99.370018 255.291679 
L 99.34897 183.515791 
L 99.34897 194.120287 
L 99.321933 207.744448 
L 99.305833 212.999566 
L 99.295465 214.322702 
L 99.288392 214.401132 
L 99.283351 214.943804 
L 99.283351 211.899349 
L 97.08986 228.731487 
L 96.773271 232.292035 
L 96.398111 228.023729 
L 96.299682 229.767503 
L 96.164304 240.941045 
L 96.120592 229.073403 
L 96.055536 249.5163 
L 96.032253 241.356035 
L 95.99581 252.957995 
L 95.981924 250.343843 
L 95.959408 254.108575 
L 95.950456 253.586268 
L 95.935554 253.551042 
L 95.929443 253.243233 
L 95.919063 254.96361 
L 95.914706 254.618192 
L 94.123636 230.440587 
L 93.936354 232.689088 
L 93.631015 228.614303 
L 93.571236 229.037888 
L 93.467771 238.488852 
L 93.44098 234.507829 
L 93.392445 248.911741 
L 93.378113 247.24186 
L 93.351253 253.609887 
L 93.342684 253.076407 
L 93.326205 254.113854 
L 93.320673 252.186725 
L 93.320673 253.886004 
L 93.309814 254.677495 
L 93.309814 254.049452 
L 93.306035 254.395082 
L 93.298494 255.43701 
L 93.295797 256.028483 
L 89.034772 230.754844 
L 88.924528 233.416077 
L 88.720445 214.643363 
L 88.691304 214.420072 
L 88.691304 209.215102 
L 88.625371 233.628636 
L 88.613521 228.948759 
L 88.583848 215.899828 
L 88.577879 217.312223 
L 88.561974 251.313493 
L 88.558551 248.760285 
L 88.549031 211.028293 
L 88.546887 213.633311 
L 88.540736 254.631953 
L 88.539304 253.643124 
L 88.5351 205.63461 
L 88.534097 213.622651 
L 88.531096 255.003882 
L 88.530366 254.830145 
L 88.528149 204.065001 
L 88.527601 200.55935 
L 88.524186 213.590329 
L 88.523854 207.004468 
L 88.521713 212.663833 
L 88.521498 211.722848 
L 88.520068 215.92675 
L 88.51992 214.889611 
L 88.518918 213.230916 
L 88.518812 225.838224 
L 86.862404 233.636994 
L 86.673961 229.893722 
L 86.616302 232.533383 
L 86.590849 241.518923 
L 86.590849 244.190188 
L 86.57733 252.220649 
L 86.56928 254.014619 
L 86.564096 254.916563 
L 86.56056 255.69405 
L 86.558039 254.85874 
L 86.558039 256.046072 
L 81.276586 235.723246 
L 81.262016 234.811318 
L 81.262016 234.829236 
L 81.208288 230.745523 
L 81.205303 233.651404 
L 81.190879 228.72248 
L 81.189807 227.661065 
L 81.183914 238.097036 
L 81.183412 233.815384 
L 81.180438 250.036407 
L 81.180164 246.717765 
L 81.178456 252.548088 
L 81.178291 252.021986 
L 81.17722 254.014689 
L 81.177113 252.969462 
L 81.176398 255.662207 
L 81.176324 254.488407 
L 81.175823 256.074994 
L 81.17577 255.30233 
L 73.832727 291.894352 
L 73.832727 288.980092 
L 73.832727 292.085093 
z
" clip-path="url(#p8f72221c3c)" style="fill: #1f77b4; fill-opacity: 0.2; stroke: #1f77b4; stroke-opacity: 0.2"/>
    <path d="M 103.222475 149.079224 
L 103.222475 162.006315 
L 103.223571 166.959446 
L 103.228005 228.224239 
L 103.229465 231.685942 
L 103.235467 225.512441 
L 103.237473 214.589525 
L 103.245881 226.529388 
L 103.248745 226.78833 
L 103.261046 219.491586 
L 103.265335 219.478769 
L 103.284374 217.244233 
L 103.291221 223.522815 
L 103.323032 199.147049 
L 103.334968 210.89375 
L 103.352725 262.863041 
L 103.369212 261.382493 
L 103.394314 235.2529 
L 103.418016 238.35017 
L 103.455225 260.902703 
L 103.491113 259.974823 
L 103.54988 235.673965 
L 103.54988 236.361762 
L 103.608163 233.878803 
L 103.709721 241.943428 
L 103.814387 256.577836 
L 104.01633 225.000612 
L 104.236816 229.550476 
L 104.758862 235.344578 
L 105.391257 239.383727 
L 106.068124 263.218216 
L 106.068124 261.604513 
L 106.086768 259.552935 
L 106.139091 260.398536 
L 106.139091 262.587358 
L 106.166658 259.653712 
L 106.248851 258.105511 
L 106.292224 257.465269 
L 106.433906 252.695733 
L 106.508401 256.676803 
L 106.508401 256.009375 
L 106.791943 239.302113 
L 106.938449 240.766739 
L 107.700063 235.52678 
L 107.733077 259.334422 
L 107.781404 261.266035 
L 107.807622 260.290816 
L 107.879174 260.73295 
L 107.920664 257.416499 
L 108.033473 258.723583 
L 108.07036 238.39297 
L 108.105825 249.248646 
L 108.105825 254.036019 
L 108.30023 256.513461 
L 108.447931 235.146143 
L 108.832661 244.568335 
L 109.245635 233.96909 
L 110.232064 239.929082 
L 110.880314 261.732252 
L 110.92943 260.543007 
L 110.979169 263.127006 
L 111.052022 264.76834 
L 111.129165 257.091415 
L 111.244356 260.486272 
L 111.374645 248.850695 
L 111.574135 258.954044 
L 111.825561 236.00162 
L 111.825561 235.98776 
L 112.22424 251.060945 
L 112.467203 264.488427 
L 112.467203 259.906855 
L 112.637338 259.357511 
L 112.758866 227.859007 
L 112.76426 227.457943 
L 112.779342 224.312223 
L 112.786902 230.478543 
L 112.786902 226.380088 
L 112.808618 222.600395 
L 112.808618 222.077468 
L 112.819683 224.219654 
L 112.848114 235.957938 
L 112.848114 235.803812 
L 112.852642 220.674385 
L 112.869778 221.289901 
L 112.921758 257.25146 
L 112.923499 213.977511 
L 112.952162 213.82243 
L 113.049232 198.130886 
L 113.102814 203.634685 
L 113.153054 260.304444 
L 113.230842 260.48792 
L 113.309745 230.614058 
L 113.429303 231.501778 
L 113.465929 247.071288 
L 113.465929 245.509207 
L 113.565685 255.355817 
L 113.764723 258.035256 
L 113.764723 261.353412 
L 113.897053 242.268032 
L 114.03998 226.163003 
L 114.414545 228.892319 
L 114.820943 239.58896 
L 115.168693 235.723714 
L 115.231777 260.174333 
L 115.364253 263.098175 
L 115.39739 259.233422 
L 115.601557 261.437766 
L 115.661061 252.885554 
L 116.00245 259.086108 
L 116.052162 247.568419 
L 116.052162 244.448115 
L 116.129588 237.853283 
L 116.777155 250.580454 
L 117.159202 233.463976 
L 117.996685 227.063971 
L 118.005399 231.574853 
L 118.026159 224.262425 
L 118.038381 229.0859 
L 118.068184 222.645857 
L 118.086089 227.355208 
L 118.086089 223.973471 
L 118.13112 223.884868 
L 118.13112 220.070113 
L 118.158893 223.813752 
L 118.231778 213.57004 
L 118.278344 219.443462 
L 118.408457 196.069635 
L 118.49588 206.471222 
L 118.552479 263.318844 
L 118.679857 265.636967 
L 118.713404 245.328665 
L 118.766637 231.791969 
L 118.963495 231.603355 
L 119.108131 249.390416 
L 119.389457 259.51545 
L 119.43886 259.862149 
L 119.471294 259.560076 
L 119.713814 225.212218 
L 119.749213 258.220494 
L 119.881659 258.184968 
L 120.346992 236.182383 
L 120.414191 247.393996 
L 120.572196 259.120595 
L 120.653749 251.175115 
L 120.80238 260.371671 
L 120.906733 258.461388 
L 121.018603 235.629274 
L 121.018603 235.90996 
L 121.280008 259.333252 
L 121.504996 244.498177 
L 121.991929 240.516449 
L 122.182465 253.07175 
L 122.522996 243.427895 
L 122.575116 249.351876 
L 122.856752 237.687129 
L 122.958703 259.20107 
L 123.28448 262.394532 
L 123.308894 254.129844 
L 123.839882 259.166373 
L 123.911712 238.495677 
L 124.369175 246.813023 
L 124.778939 162.175714 
L 124.811138 164.74493 
L 124.865213 167.367616 
L 124.865213 159.282797 
L 124.884128 256.555259 
L 124.884128 256.699196 
L 124.907308 224.04562 
L 124.967028 212.582014 
L 125.056009 223.922451 
L 125.056009 222.499903 
L 125.175584 234.181247 
L 125.175584 235.339407 
L 125.197663 207.173564 
L 125.445718 209.923081 
L 125.445718 207.192203 
L 125.951435 180.327178 
L 126.441704 258.43245 
L 126.458249 259.394061 
L 126.763347 264.433641 
L 126.85019 257.621862 
L 126.903265 257.77677 
L 126.903265 259.765319 
L 126.996332 225.193766 
L 127.025003 226.397575 
L 127.056862 223.740054 
L 127.098031 223.314558 
L 127.145591 221.308883 
L 127.17087 264.50046 
L 127.17087 260.451458 
L 127.207818 223.514171 
L 127.283754 219.966403 
L 127.339468 229.215041 
L 127.384529 219.763097 
L 127.388481 251.156465 
L 127.402751 264.0619 
L 127.518151 199.540569 
L 127.640653 248.35059 
L 127.66997 233.059403 
L 127.698246 209.328612 
L 127.973166 185.869727 
L 128.202693 254.571419 
L 128.348802 195.428076 
L 128.392251 262.288741 
L 128.392251 256.796453 
L 128.592559 256.537899 
L 128.987867 260.346279 
L 129.119707 223.595149 
L 129.2546 234.002712 
L 130.168345 231.627704 
L 131.031226 255.574155 
L 131.400752 253.377706 
L 131.773413 239.62394 
L 131.793635 262.366501 
L 132.689364 160.963648 
L 132.689364 160.883213 
L 132.689364 160.883213 
L 131.793635 251.97337 
L 131.773413 230.084525 
L 131.400752 244.662791 
L 131.031226 245.719052 
L 130.168345 212.024467 
L 129.2546 228.580968 
L 129.119707 207.686406 
L 128.987867 252.705812 
L 128.592559 248.003558 
L 128.392251 247.126242 
L 128.392251 247.817675 
L 128.348802 176.898681 
L 128.202693 246.225667 
L 127.973166 175.557649 
L 127.698246 195.257713 
L 127.66997 227.286232 
L 127.640653 238.350108 
L 127.518151 177.927786 
L 127.402751 249.291839 
L 127.388481 243.070296 
L 127.384529 209.67549 
L 127.339468 211.721705 
L 127.283754 208.055092 
L 127.207818 214.763061 
L 127.17087 252.592978 
L 127.17087 248.586151 
L 127.145591 211.369868 
L 127.098031 213.451281 
L 127.056862 212.814156 
L 127.025003 211.773823 
L 126.996332 214.708426 
L 126.903265 230.088693 
L 126.903265 230.995037 
L 126.85019 250.041964 
L 126.763347 252.277553 
L 126.458249 248.035162 
L 126.441704 251.565492 
L 125.951435 151.746145 
L 125.445718 187.460093 
L 125.445718 182.043656 
L 125.197663 168.787426 
L 125.175584 229.634928 
L 125.175584 227.473204 
L 125.056009 211.356407 
L 125.056009 208.248542 
L 124.967028 180.163169 
L 124.907308 212.971804 
L 124.884128 247.368099 
L 124.884128 244.951278 
L 124.865213 133.327435 
L 124.865213 148.010167 
L 124.811138 156.111927 
L 124.778939 161.592613 
L 124.369175 238.983214 
L 123.911712 230.777179 
L 123.839882 252.071903 
L 123.308894 243.201822 
L 123.28448 252.645806 
L 122.958703 251.138859 
L 122.856752 230.338983 
L 122.575116 237.700476 
L 122.522996 235.075282 
L 122.182465 245.301372 
L 121.991929 232.860041 
L 121.504996 234.518362 
L 121.280008 252.514328 
L 121.018603 227.42421 
L 121.018603 228.591796 
L 120.906733 248.194702 
L 120.80238 254.172273 
L 120.653749 242.818539 
L 120.572196 252.17646 
L 120.414191 238.074129 
L 120.346992 214.350549 
L 119.881659 250.780958 
L 119.749213 249.758497 
L 119.713814 209.766534 
L 119.471294 253.629924 
L 119.43886 252.322224 
L 119.389457 252.782532 
L 119.108131 234.96211 
L 118.963495 196.678159 
L 118.766637 206.734209 
L 118.713404 235.730719 
L 118.679857 253.041766 
L 118.552479 251.566665 
L 118.49588 183.691452 
L 118.408457 171.473785 
L 118.278344 204.853413 
L 118.231778 190.794308 
L 118.158893 212.046807 
L 118.13112 198.415961 
L 118.13112 208.664211 
L 118.086089 211.409181 
L 118.086089 208.44269 
L 118.068184 209.031199 
L 118.038381 210.28764 
L 118.026159 211.506879 
L 118.005399 212.09168 
L 117.996685 213.366141 
L 117.159202 229.46171 
L 116.777155 242.733996 
L 116.129588 230.508808 
L 116.052162 232.998347 
L 116.052162 231.36757 
L 116.00245 252.381474 
L 115.661061 243.239938 
L 115.601557 253.972008 
L 115.39739 250.652045 
L 115.364253 253.754296 
L 115.231777 253.01203 
L 115.168693 229.039194 
L 114.820943 231.334009 
L 114.414545 214.178046 
L 114.03998 214.981664 
L 113.897053 229.988847 
L 113.764723 248.91183 
L 113.764723 250.542616 
L 113.565685 247.253221 
L 113.465929 235.090675 
L 113.465929 231.415658 
L 113.429303 211.149489 
L 113.309745 211.265191 
L 113.230842 254.143391 
L 113.153054 253.888565 
L 113.102814 182.977015 
L 113.049232 175.999585 
L 112.952162 201.154754 
L 112.923499 199.521537 
L 112.921758 249.861783 
L 112.869778 210.918843 
L 112.852642 210.534985 
L 112.848114 228.89632 
L 112.848114 227.183745 
L 112.819683 215.519913 
L 112.808618 208.228494 
L 112.808618 212.378613 
L 112.786902 214.287384 
L 112.786902 209.234947 
L 112.779342 214.239464 
L 112.76426 212.326027 
L 112.758866 216.589119 
L 112.637338 252.398233 
L 112.467203 253.493095 
L 112.467203 250.437487 
L 112.22424 239.122627 
L 111.825561 228.179749 
L 111.825561 227.093048 
L 111.574135 250.470859 
L 111.374645 233.23537 
L 111.244356 253.092198 
L 111.129165 246.542274 
L 111.052022 251.567249 
L 110.979169 251.58466 
L 110.92943 253.018818 
L 110.880314 252.737869 
L 110.232064 230.892567 
L 109.245635 230.152319 
L 108.832661 236.180711 
L 108.447931 228.865351 
L 108.30023 249.883542 
L 108.105825 235.427532 
L 108.105825 239.232774 
L 108.07036 230.156895 
L 108.033473 253.541984 
L 107.920664 250.873047 
L 107.879174 254.158116 
L 107.807622 253.026368 
L 107.781404 253.858619 
L 107.733077 254.117911 
L 107.700063 229.035988 
L 106.938449 232.31225 
L 106.791943 231.132119 
L 106.508401 246.753786 
L 106.508401 244.209269 
L 106.433906 243.988901 
L 106.292224 252.737158 
L 106.248851 251.927535 
L 106.166658 253.505303 
L 106.139091 252.287054 
L 106.139091 252.097157 
L 106.086768 254.824176 
L 106.068124 253.397458 
L 106.068124 253.565631 
L 105.391257 228.380559 
L 104.758862 230.57237 
L 104.236816 210.566776 
L 104.01633 213.211621 
L 103.814387 245.954162 
L 103.709721 230.890055 
L 103.608163 203.205466 
L 103.54988 202.901004 
L 103.54988 175.764793 
L 103.491113 253.164995 
L 103.455225 251.473981 
L 103.418016 201.828048 
L 103.394314 206.863501 
L 103.369212 254.224806 
L 103.352725 253.621271 
L 103.334968 160.224118 
L 103.323032 149.092892 
L 103.291221 209.016891 
L 103.284374 201.770004 
L 103.265335 170.704643 
L 103.261046 159.231624 
L 103.248745 212.643993 
L 103.245881 211.854808 
L 103.237473 154.981878 
L 103.235467 182.759606 
L 103.229465 205.820004 
L 103.228005 212.917922 
L 103.223571 152.022846 
L 103.222475 149.079224 
z
" clip-path="url(#p8f72221c3c)" style="fill: #1f77b4; fill-opacity: 0.2; stroke: #1f77b4; stroke-opacity: 0.2"/>
    <path d="M 132.736021 166.675962 
L 132.736021 167.424544 
L 132.736021 166.675962 
L 132.736021 166.675962 
z
" clip-path="url(#p8f72221c3c)" style="fill: #1f77b4; fill-opacity: 0.2; stroke: #1f77b4; stroke-opacity: 0.2"/>
    <path d="M 132.813336 162.264677 
L 132.813336 166.95038 
L 132.83721 167.515812 
L 132.872723 223.988619 
L 132.905696 226.940239 
L 132.9559 220.114129 
L 132.9559 222.931179 
L 132.9559 149.527174 
L 132.9559 149.527174 
L 132.9559 137.476564 
L 132.905696 210.904275 
L 132.872723 211.131559 
L 132.83721 146.253605 
L 132.813336 162.264677 
z
" clip-path="url(#p8f72221c3c)" style="fill: #1f77b4; fill-opacity: 0.2; stroke: #1f77b4; stroke-opacity: 0.2"/>
    <path d="M 133.003304 164.869057 
L 133.003304 219.545076 
L 133.077722 223.950472 
L 133.077722 228.888556 
L 133.128674 256.920973 
L 133.149498 224.369149 
L 133.267034 211.948007 
L 133.267034 214.953946 
L 133.383598 215.208066 
L 133.586715 195.773291 
L 133.796046 216.981642 
L 134.199932 178.960396 
L 134.338998 254.297731 
L 134.640905 201.363451 
L 134.669337 255.188625 
L 134.753829 254.848034 
L 134.753829 257.205338 
L 135.062709 256.043558 
L 135.062709 252.803617 
L 135.459784 264.864408 
L 135.684996 218.536298 
L 136.021396 256.60224 
L 136.845589 248.465289 
L 136.949788 230.282907 
L 138.303521 225.879231 
L 138.303521 231.253418 
L 138.327747 260.656205 
L 138.327747 262.197522 
L 138.340809 223.856962 
L 138.445455 223.613581 
L 138.445455 227.193571 
L 138.500588 223.267513 
L 138.664974 217.968969 
L 138.751721 220.88911 
L 139.035085 212.30954 
L 139.184074 226.380723 
L 139.184074 220.725656 
L 139.700983 242.84381 
L 139.751159 190.48158 
L 140.044171 200.262326 
L 141.493278 262.644002 
L 141.493278 267.432245 
L 141.567399 181.802287 
L 141.633426 223.425418 
L 141.730081 225.399573 
L 141.782517 222.706051 
L 141.925621 224.330721 
L 142.008601 218.485389 
L 142.234219 222.733718 
L 142.307992 194.342375 
L 142.378922 214.863669 
L 142.378922 210.700737 
L 142.767732 217.00491 
L 143.063135 187.544321 
L 143.751526 235.671031 
L 143.751526 240.875326 
L 143.832595 205.894903 
L 144.658543 186.430464 
L 145.408905 266.904529 
L 146.631401 194.717022 
L 147.9279 225.009825 
L 148.026132 224.921558 
L 148.12561 225.468962 
L 148.271316 225.166644 
L 148.425603 223.082819 
L 148.655984 223.745718 
L 148.916562 206.01136 
L 149.315543 221.008259 
L 149.818394 196.7665 
L 149.818394 183.941883 
L 150.615753 209.837035 
L 151.101679 230.864127 
L 151.101679 228.940803 
L 151.441948 223.754883 
L 151.441948 211.978548 
L 151.441948 211.978548 
L 151.101679 215.658198 
L 151.101679 210.241891 
L 150.615753 185.175163 
L 149.818394 167.346518 
L 149.818394 178.858418 
L 149.315543 205.406443 
L 148.916562 178.400321 
L 148.655984 212.149201 
L 148.425603 200.290139 
L 148.271316 210.042161 
L 148.12561 205.96935 
L 148.026132 210.355459 
L 147.9279 210.646655 
L 146.631401 176.949993 
L 145.408905 249.503683 
L 144.658543 177.766732 
L 143.832595 183.579204 
L 143.751526 224.845522 
L 143.751526 224.389128 
L 143.063135 175.008006 
L 142.767732 205.179557 
L 142.378922 176.759342 
L 142.378922 189.689986 
L 142.307992 178.193834 
L 142.234219 212.834601 
L 142.008601 207.370324 
L 141.925621 213.153678 
L 141.782517 212.934654 
L 141.730081 211.807338 
L 141.633426 212.971292 
L 141.567399 171.477486 
L 141.493278 249.115513 
L 141.493278 248.292195 
L 140.044171 182.712263 
L 139.751159 172.025761 
L 139.700983 232.190221 
L 139.184074 203.344948 
L 139.184074 206.383233 
L 139.035085 196.945549 
L 138.751721 211.401445 
L 138.664974 207.687126 
L 138.500588 212.953987 
L 138.445455 209.102505 
L 138.445455 211.395512 
L 138.340809 214.187732 
L 138.327747 250.575235 
L 138.327747 249.594114 
L 138.303521 214.157347 
L 138.303521 212.622403 
L 136.949788 197.167843 
L 136.845589 236.71623 
L 136.021396 249.516823 
L 135.684996 200.604857 
L 135.459784 249.976334 
L 135.062709 240.778823 
L 135.062709 236.203846 
L 134.753829 231.761506 
L 134.753829 233.546247 
L 134.669337 247.931164 
L 134.640905 147.971714 
L 134.338998 245.236255 
L 134.199932 143.185194 
L 133.796046 199.78495 
L 133.586715 168.841096 
L 133.383598 162.198929 
L 133.267034 155.62601 
L 133.267034 134.186324 
L 133.149498 212.472615 
L 133.128674 249.773503 
L 133.077722 201.031721 
L 133.077722 210.024916 
L 133.003304 164.869057 
z
" clip-path="url(#p8f72221c3c)" style="fill: #1f77b4; fill-opacity: 0.2; stroke: #1f77b4; stroke-opacity: 0.2"/>
    <path d="M 151.806638 163.244195 
L 151.806638 166.342004 
L 151.863502 189.799909 
L 151.872556 167.703418 
L 151.906829 168.085314 
L 152.010789 218.650004 
L 152.01427 164.732613 
L 152.071597 165.348428 
L 152.265738 152.173566 
L 152.372901 154.407037 
L 152.47338 222.418456 
L 152.628957 222.176229 
L 152.786762 203.047645 
L 153.02588 208.443877 
L 153.09913 213.807063 
L 153.09913 205.899561 
L 153.298642 214.521326 
L 153.696719 221.214312 
L 153.696719 220.715616 
L 153.961378 217.731184 
L 154.247233 183.961487 
L 154.996364 196.181165 
L 155.809158 190.639589 
L 156.504658 186.27811 
L 156.630826 222.297417 
L 156.895779 227.847013 
L 156.962054 220.424968 
L 157.370387 223.671124 
L 157.489394 206.94692 
L 158.172172 221.802891 
L 158.271596 201.283442 
L 158.426448 191.731412 
L 159.721583 209.449114 
L 160.485676 184.271886 
L 162.30364 163.5528 
L 162.30364 161.494892 
L 162.30364 161.494892 
L 160.485676 174.577527 
L 159.721583 194.232634 
L 158.426448 176.67664 
L 158.271596 181.994768 
L 158.172172 212.328701 
L 157.489394 189.862194 
L 157.370387 212.251394 
L 156.962054 208.214311 
L 156.895779 214.918389 
L 156.630826 211.732334 
L 156.504658 172.780039 
L 155.809158 172.765507 
L 154.996364 159.284758 
L 154.247233 156.917749 
L 153.961378 189.371806 
L 153.696719 205.238054 
L 153.696719 207.105331 
L 153.298642 201.905561 
L 153.09913 181.358722 
L 153.09913 179.962456 
L 153.02588 162.665831 
L 152.786762 157.48148 
L 152.628957 213.239452 
L 152.47338 211.259835 
L 152.372901 135.257122 
L 152.265738 133.395924 
L 152.071597 150.057704 
L 152.01427 160.770971 
L 152.010789 206.930524 
L 151.906829 165.287352 
L 151.872556 158.770106 
L 151.863502 176.389713 
L 151.806638 163.244195 
z
" clip-path="url(#p8f72221c3c)" style="fill: #1f77b4; fill-opacity: 0.2; stroke: #1f77b4; stroke-opacity: 0.2"/>
    <path d="M 162.630828 158.01219 
L 162.630828 169.825859 
L 162.630828 158.01219 
L 162.630828 158.01219 
z
" clip-path="url(#p8f72221c3c)" style="fill: #1f77b4; fill-opacity: 0.2; stroke: #1f77b4; stroke-opacity: 0.2"/>
    <path d="M 162.984187 109.608829 
L 162.984187 125.431143 
L 163.159034 156.364988 
L 163.272231 223.807946 
L 163.526986 225.517842 
L 163.59408 206.389297 
L 163.700547 207.458284 
L 164.094263 208.728994 
L 164.383534 211.41218 
L 164.946187 222.209575 
L 165.044993 223.978218 
L 165.10986 225.511847 
L 165.594901 177.2615 
L 165.665699 216.805953 
L 165.930591 220.877003 
L 166.861257 209.197909 
L 166.995654 211.77683 
L 167.311666 224.186629 
L 167.47477 208.977961 
L 167.772032 227.340104 
L 167.980738 214.863048 
L 168.204479 188.461255 
L 168.204479 193.676872 
L 168.727288 223.535675 
L 169.177265 204.186055 
L 170.15113 198.822547 
L 170.532203 216.598271 
L 171.213265 206.16414 
L 171.317504 208.295691 
L 171.880776 192.527223 
L 172.084679 221.307285 
L 172.736232 228.512737 
L 172.78506 210.379549 
L 173.847037 221.623105 
L 173.990697 191.29059 
L 174.905622 210.575252 
L 175.935528 224.286789 
L 175.935528 219.102675 
L 176.101328 164.326504 
L 176.27929 168.798864 
L 176.51844 188.105769 
L 176.51844 187.426614 
L 176.562599 166.191274 
L 177.058708 159.019825 
L 178.070143 115.14753 
L 179.050681 221.405459 
L 179.083771 224.114827 
L 179.693967 234.784674 
L 179.867652 217.764595 
L 179.973803 224.817164 
L 179.973803 222.336681 
L 180.280996 163.371878 
L 180.363334 167.468564 
L 180.458454 167.652829 
L 180.509012 230.204624 
L 180.509012 224.179108 
L 180.582909 169.042936 
L 180.73478 170.032767 
L 180.846209 199.195554 
L 180.936331 168.028387 
L 180.944234 212.614693 
L 180.972775 226.111222 
L 181.203576 153.052099 
L 181.44858 208.826358 
L 181.507213 190.768858 
L 181.507213 191.57527 
L 181.563765 160.351692 
L 182.113606 92.905449 
L 182.572659 218.629119 
L 182.864877 134.45817 
L 182.951774 218.023648 
L 182.951774 220.868705 
L 183.35239 221.133068 
L 184.143006 220.38485 
L 184.406687 187.692984 
L 184.676474 187.345665 
L 186.503962 201.350193 
L 188.229725 213.672327 
L 188.968777 214.936303 
L 189.714099 200.413111 
L 189.714099 193.84701 
L 189.754543 222.929599 
L 191.391718 288.208325 
L 191.391718 287.438632 
L 191.391718 287.438632 
L 189.754543 210.1926 
L 189.714099 173.679909 
L 189.714099 181.367291 
L 188.968777 198.458655 
L 188.229725 196.918522 
L 186.503962 149.802141 
L 184.676474 172.080618 
L 184.406687 147.773267 
L 184.143006 211.127005 
L 183.35239 205.266746 
L 182.951774 200.51283 
L 182.951774 200.577986 
L 182.864877 101.811565 
L 182.572659 203.414698 
L 182.113606 88.573717 
L 181.563765 139.964966 
L 181.507213 173.186179 
L 181.507213 167.054574 
L 181.44858 189.774366 
L 181.203576 120.459759 
L 180.972775 207.88667 
L 180.944234 196.641234 
L 180.936331 167.197757 
L 180.846209 157.935866 
L 180.73478 164.992518 
L 180.582909 168.519298 
L 180.509012 211.412903 
L 180.509012 208.904504 
L 180.458454 159.783042 
L 180.363334 164.457413 
L 180.280996 163.039533 
L 179.973803 173.940062 
L 179.973803 177.580725 
L 179.867652 205.881657 
L 179.693967 212.113345 
L 179.083771 203.469876 
L 179.050681 208.510602 
L 178.070143 109.337071 
L 177.058708 134.780162 
L 176.562599 156.367638 
L 176.51844 173.037634 
L 176.51844 173.753582 
L 176.27929 166.112221 
L 176.101328 163.78581 
L 175.935528 201.343272 
L 175.935528 200.050322 
L 174.905622 192.92943 
L 173.990697 173.293887 
L 173.847037 211.425578 
L 172.78506 192.898166 
L 172.736232 213.225596 
L 172.084679 208.155468 
L 171.880776 179.121558 
L 171.317504 182.054156 
L 171.213265 187.126481 
L 170.532203 200.850187 
L 170.15113 181.858635 
L 169.177265 185.787615 
L 168.727288 211.03439 
L 168.204479 185.760299 
L 168.204479 168.779952 
L 167.980738 200.930098 
L 167.772032 215.843285 
L 167.47477 192.459798 
L 167.311666 212.361172 
L 166.995654 190.607678 
L 166.861257 159.550226 
L 165.930591 208.768012 
L 165.665699 203.614375 
L 165.594901 137.634055 
L 165.10986 214.436649 
L 165.044993 209.898412 
L 164.946187 210.722637 
L 164.383534 185.276338 
L 164.094263 135.356217 
L 163.700547 144.595663 
L 163.59408 188.334908 
L 163.526986 210.464323 
L 163.272231 206.949493 
L 163.159034 141.893255 
L 162.984187 109.608829 
z
" clip-path="url(#p8f72221c3c)" style="fill: #1f77b4; fill-opacity: 0.2; stroke: #1f77b4; stroke-opacity: 0.2"/>
    <path d="M 191.443685 290.860627 
L 191.443685 290.985452 
L 191.451711 289.972665 
L 191.546001 293.79958 
L 191.563158 292.951101 
L 191.563158 292.847779 
L 191.563158 292.847779 
L 191.546001 293.705818 
L 191.451711 289.678661 
L 191.443685 290.860627 
z
" clip-path="url(#p8f72221c3c)" style="fill: #1f77b4; fill-opacity: 0.2; stroke: #1f77b4; stroke-opacity: 0.2"/>
    <path d="M 191.793945 295.15469 
L 191.793945 295.203963 
L 191.841692 294.871301 
L 191.841692 294.847742 
L 191.841692 294.847742 
L 191.793945 295.15469 
z
" clip-path="url(#p8f72221c3c)" style="fill: #1f77b4; fill-opacity: 0.2; stroke: #1f77b4; stroke-opacity: 0.2"/>
    <path d="M 192.42462 208.153891 
L 192.42462 221.64689 
L 192.42462 208.153891 
L 192.42462 208.153891 
z
" clip-path="url(#p8f72221c3c)" style="fill: #1f77b4; fill-opacity: 0.2; stroke: #1f77b4; stroke-opacity: 0.2"/>
    <path d="M 192.70134 184.750244 
L 192.70134 295.487532 
L 192.70134 295.457328 
L 192.934469 295.480028 
L 193.340703 133.173708 
L 193.759365 165.088453 
L 194.567137 92.790404 
L 194.845268 216.556631 
L 195.449082 222.183012 
L 195.505946 217.363073 
L 195.67493 205.92759 
L 195.67493 219.638203 
L 196.29269 223.407293 
L 196.29269 212.411457 
L 197.08684 224.268289 
L 197.537265 173.968912 
L 198.210066 220.388331 
L 199.858451 211.211978 
L 199.858451 189.108653 
L 199.858451 189.108653 
L 198.210066 206.92939 
L 197.537265 127.091651 
L 197.08684 207.70448 
L 196.29269 191.831952 
L 196.29269 175.399888 
L 195.67493 177.813603 
L 195.67493 172.972474 
L 195.505946 205.428733 
L 195.449082 113.078394 
L 194.845268 200.298711 
L 194.567137 87.574993 
L 193.759365 143.200277 
L 193.340703 84.261229 
L 192.934469 198.453104 
L 192.70134 151.512344 
L 192.70134 184.750244 
z
" clip-path="url(#p8f72221c3c)" style="fill: #1f77b4; fill-opacity: 0.2; stroke: #1f77b4; stroke-opacity: 0.2"/>
    <path d="M 200.066848 138.035003 
L 200.066848 220.357038 
L 200.066848 138.035003 
L 200.066848 138.035003 
z
" clip-path="url(#p8f72221c3c)" style="fill: #1f77b4; fill-opacity: 0.2; stroke: #1f77b4; stroke-opacity: 0.2"/>
    <path d="M 202.822767 207.786391 
L 202.822767 224.170792 
L 202.822767 220.252326 
L 202.848891 164.361766 
L 202.848891 164.033801 
L 202.848891 164.033801 
L 202.822767 206.631789 
L 202.822767 207.786391 
z
" clip-path="url(#p8f72221c3c)" style="fill: #1f77b4; fill-opacity: 0.2; stroke: #1f77b4; stroke-opacity: 0.2"/>
    <path d="M 203.16845 162.633206 
L 203.16845 168.602269 
L 203.497221 167.684289 
L 203.670715 167.465107 
L 204.237444 165.282743 
L 204.237444 156.476998 
L 204.237444 156.476998 
L 203.670715 158.878314 
L 203.497221 161.575097 
L 203.16845 162.633206 
z
" clip-path="url(#p8f72221c3c)" style="fill: #1f77b4; fill-opacity: 0.2; stroke: #1f77b4; stroke-opacity: 0.2"/>
    <path d="M 204.535421 144.693752 
L 204.535421 162.792464 
L 205.569239 195.582657 
L 205.669591 130.388883 
L 205.669591 121.037375 
L 206.255614 131.740847 
L 209.153828 221.546671 
L 209.153828 224.747549 
L 209.302071 90.738111 
L 209.434124 163.607653 
L 209.627436 164.89301 
L 209.732306 168.130775 
L 210.018515 169.128443 
L 210.184474 167.325958 
L 210.635711 164.980821 
L 210.783256 114.341099 
L 210.925117 216.730674 
L 210.925117 162.145522 
L 211.702737 171.0211 
L 212.293543 100.735431 
L 213.670325 187.440791 
L 213.832462 188.49412 
L 215.48436 90.036578 
L 216.985082 225.238276 
L 219.430074 132.603322 
L 222.023073 165.133165 
L 222.023073 162.467495 
L 222.023073 162.467495 
L 219.430074 118.012165 
L 216.985082 209.551537 
L 215.48436 86.940206 
L 213.832462 115.808634 
L 213.670325 165.910711 
L 212.293543 83.639024 
L 211.702737 149.129467 
L 210.925117 139.498393 
L 210.925117 166.205102 
L 210.783256 95.940238 
L 210.635711 161.024493 
L 210.184474 155.439056 
L 210.018515 163.187728 
L 209.732306 162.30599 
L 209.627436 164.795289 
L 209.434124 162.9992 
L 209.302071 68.679203 
L 209.153828 206.64155 
L 209.153828 206.058315 
L 206.255614 106.069881 
L 205.669591 118.637212 
L 205.669591 81.020064 
L 205.569239 178.406701 
L 204.535421 144.693752 
z
" clip-path="url(#p8f72221c3c)" style="fill: #1f77b4; fill-opacity: 0.2; stroke: #1f77b4; stroke-opacity: 0.2"/>
    <path d="M 222.418493 167.410946 
L 222.418493 173.539497 
L 222.418493 167.410946 
L 222.418493 167.410946 
z
" clip-path="url(#p8f72221c3c)" style="fill: #1f77b4; fill-opacity: 0.2; stroke: #1f77b4; stroke-opacity: 0.2"/>
    <path d="M 223.018478 163.911188 
L 223.018478 168.596046 
L 223.018478 163.911188 
L 223.018478 163.911188 
z
" clip-path="url(#p8f72221c3c)" style="fill: #1f77b4; fill-opacity: 0.2; stroke: #1f77b4; stroke-opacity: 0.2"/>
    <path d="M 224.000397 150.388089 
L 224.000397 156.371902 
L 224.000397 150.388089 
L 224.000397 150.388089 
z
" clip-path="url(#p8f72221c3c)" style="fill: #1f77b4; fill-opacity: 0.2; stroke: #1f77b4; stroke-opacity: 0.2"/>
    <path d="M 225.80406 82.843119 
L 225.80406 89.79746 
L 227.398778 226.862569 
L 228.370632 169.759252 
L 229.05117 167.506823 
L 229.894276 89.227381 
L 230.188851 165.348486 
L 231.114033 174.075811 
L 231.425186 169.440275 
L 231.740797 167.110291 
L 232.219032 166.739343 
L 232.365533 150.052633 
L 232.764556 165.190092 
L 233.560711 167.502214 
L 234.090029 153.030711 
L 234.661738 144.118833 
L 236.16 159.378098 
L 237.785589 124.49998 
L 239.17659 91.146889 
L 239.428925 172.013524 
L 239.95883 170.097358 
L 240.09138 168.492736 
L 240.908046 171.935163 
L 241.146061 155.707156 
L 242.511617 172.622899 
L 242.710466 135.293851 
L 243.020169 114.246325 
L 245.610439 159.091503 
L 247.138624 88.629863 
L 252.711734 174.991026 
L 252.711734 167.234402 
L 252.711734 167.234402 
L 247.138624 83.353112 
L 245.610439 128.278196 
L 243.020169 105.808303 
L 242.710466 107.311006 
L 242.511617 167.012455 
L 241.146061 139.784259 
L 240.908046 167.110868 
L 240.09138 167.09727 
L 239.95883 169.66614 
L 239.428925 161.756458 
L 239.17659 76.069162 
L 237.785589 89.411483 
L 236.16 129.047578 
L 234.661738 124.021733 
L 234.090029 112.878342 
L 233.560711 152.432399 
L 232.764556 160.716637 
L 232.365533 142.29019 
L 232.219032 165.748302 
L 231.740797 160.465132 
L 231.425186 169.331491 
L 231.114033 166.198188 
L 230.188851 158.928096 
L 229.894276 63.268332 
L 229.05117 165.791631 
L 228.370632 169.273642 
L 227.398778 117.533239 
L 225.80406 82.843119 
z
" clip-path="url(#p8f72221c3c)" style="fill: #1f77b4; fill-opacity: 0.2; stroke: #1f77b4; stroke-opacity: 0.2"/>
    <path d="M 253.355432 105.17588 
L 253.355432 150.634697 
L 253.355432 147.939296 
L 253.568367 168.372255 
L 253.568367 167.843546 
L 253.568367 167.843546 
L 253.355432 137.803483 
L 253.355432 105.17588 
z
" clip-path="url(#p8f72221c3c)" style="fill: #1f77b4; fill-opacity: 0.2; stroke: #1f77b4; stroke-opacity: 0.2"/>
    <path d="M 254.934342 146.594246 
L 254.934342 152.532195 
L 256.059648 167.623213 
L 256.059648 165.983847 
L 256.059648 165.983847 
L 254.934342 146.594246 
z
" clip-path="url(#p8f72221c3c)" style="fill: #1f77b4; fill-opacity: 0.2; stroke: #1f77b4; stroke-opacity: 0.2"/>
    <path d="M 256.386994 165.256699 
L 256.386994 165.942592 
L 257.357074 93.137729 
L 257.498671 168.885522 
L 258.028454 166.831071 
L 258.028454 155.553487 
L 258.028454 155.553487 
L 257.498671 156.465129 
L 257.357074 90.442098 
L 256.386994 165.256699 
z
" clip-path="url(#p8f72221c3c)" style="fill: #1f77b4; fill-opacity: 0.2; stroke: #1f77b4; stroke-opacity: 0.2"/>
    <path d="M 260.15858 120.8103 
L 260.15858 149.964016 
L 260.790604 164.682702 
L 261.116814 160.943712 
L 261.711337 172.738367 
L 262.128749 164.386196 
L 262.57623 92.124332 
L 262.57623 83.339561 
L 263.621849 171.737415 
L 264.521803 197.217942 
L 266.469533 143.039405 
L 267.231679 161.555507 
L 268.593804 152.291925 
L 268.80228 155.182192 
L 269.928825 109.141846 
L 270.336632 172.701734 
L 271.639737 167.755966 
L 271.737393 165.781029 
L 273.861347 167.657784 
L 274.148667 114.913664 
L 275.978517 161.604022 
L 275.978517 129.723618 
L 275.978517 129.723618 
L 274.148667 85.139453 
L 273.861347 167.53425 
L 271.737393 151.081357 
L 271.639737 166.831071 
L 270.336632 163.366001 
L 269.928825 78.168402 
L 268.80228 118.006633 
L 268.593804 112.659103 
L 267.231679 135.621118 
L 266.469533 110.709346 
L 264.521803 123.457128 
L 263.621849 169.246907 
L 262.57623 53.568 
L 262.57623 83.01874 
L 262.128749 162.159927 
L 261.711337 167.492303 
L 261.116814 135.57099 
L 260.790604 161.299781 
L 260.15858 120.8103 
z
" clip-path="url(#p8f72221c3c)" style="fill: #1f77b4; fill-opacity: 0.2; stroke: #1f77b4; stroke-opacity: 0.2"/>
    <path d="M 277.96267 289.098165 
L 277.96267 289.168044 
L 277.96267 289.098165 
L 277.96267 289.098165 
z
" clip-path="url(#p8f72221c3c)" style="fill: #1f77b4; fill-opacity: 0.2; stroke: #1f77b4; stroke-opacity: 0.2"/>
    <path d="M 278.369929 292.097758 
L 278.369929 292.24593 
L 279.204153 91.84177 
L 279.29247 294.487431 
L 282.307559 295.203328 
L 284.268636 169.334717 
L 284.334815 166.251889 
L 284.334815 163.451161 
L 284.334815 163.451161 
L 284.268636 157.334364 
L 282.307559 295.185318 
L 279.29247 294.410435 
L 279.204153 83.085117 
L 278.369929 292.097758 
z
" clip-path="url(#p8f72221c3c)" style="fill: #1f77b4; fill-opacity: 0.2; stroke: #1f77b4; stroke-opacity: 0.2"/>
    <path d="M 285.902577 155.561553 
L 285.902577 168.95236 
L 286.114879 158.934319 
L 286.114879 158.705227 
L 286.114879 158.705227 
L 285.902577 155.561553 
z
" clip-path="url(#p8f72221c3c)" style="fill: #1f77b4; fill-opacity: 0.2; stroke: #1f77b4; stroke-opacity: 0.2"/>
    <path d="M 287.85969 142.913509 
L 287.85969 163.61837 
L 288.055741 164.879873 
L 288.055741 128.430079 
L 288.055741 128.430079 
L 287.85969 142.913509 
z
" clip-path="url(#p8f72221c3c)" style="fill: #1f77b4; fill-opacity: 0.2; stroke: #1f77b4; stroke-opacity: 0.2"/>
    <path d="M 289.064432 146.940304 
L 289.064432 159.14601 
L 289.064432 146.940304 
L 289.064432 146.940304 
z
" clip-path="url(#p8f72221c3c)" style="fill: #1f77b4; fill-opacity: 0.2; stroke: #1f77b4; stroke-opacity: 0.2"/>
    <path d="M 291.312591 141.810976 
L 291.312591 166.090556 
L 292.07082 163.209393 
L 292.07082 173.151608 
L 292.07082 165.633295 
L 292.07082 165.633295 
L 292.07082 160.95973 
L 291.312591 141.810976 
z
" clip-path="url(#p8f72221c3c)" style="fill: #1f77b4; fill-opacity: 0.2; stroke: #1f77b4; stroke-opacity: 0.2"/>
    <path d="M 294.453286 167.911767 
L 294.453286 168.047286 
L 294.980646 157.093864 
L 295.52022 95.809391 
L 299.175197 164.698029 
L 302.626722 168.383203 
L 302.626722 156.528971 
L 302.626722 156.528971 
L 299.175197 151.220563 
L 295.52022 81.282575 
L 294.980646 133.991202 
L 294.453286 167.911767 
z
" clip-path="url(#p8f72221c3c)" style="fill: #1f77b4; fill-opacity: 0.2; stroke: #1f77b4; stroke-opacity: 0.2"/>
    <path d="M 305.59547 116.80056 
L 305.59547 127.586542 
L 305.59547 122.155868 
L 305.676359 168.909953 
L 309.054643 291.168841 
L 309.054643 290.840138 
L 309.054643 290.840138 
L 305.676359 167.174709 
L 305.59547 117.790448 
L 305.59547 116.80056 
z
" clip-path="url(#p8f72221c3c)" style="fill: #1f77b4; fill-opacity: 0.2; stroke: #1f77b4; stroke-opacity: 0.2"/>
    <path d="M 309.259275 293.600187 
L 309.259275 293.757626 
L 309.293589 293.126654 
L 309.445901 286.124189 
L 309.445901 285.974726 
L 309.445901 285.974726 
L 309.293589 292.908901 
L 309.259275 293.600187 
z
" clip-path="url(#p8f72221c3c)" style="fill: #1f77b4; fill-opacity: 0.2; stroke: #1f77b4; stroke-opacity: 0.2"/>
    <path d="M 309.755162 289.804661 
L 309.755162 295.180478 
L 309.755162 295.217616 
L 309.850656 294.859893 
L 310.325419 293.264869 
L 310.325419 293.129281 
L 310.325419 293.129281 
L 309.850656 289.859569 
L 309.755162 290.019233 
L 309.755162 289.804661 
z
" clip-path="url(#p8f72221c3c)" style="fill: #1f77b4; fill-opacity: 0.2; stroke: #1f77b4; stroke-opacity: 0.2"/>
    <path d="M 310.515033 291.052636 
L 310.515033 291.146646 
L 311.016513 168.768211 
L 311.569953 295.467511 
L 311.569953 295.44301 
L 312.036211 295.208453 
L 315.301546 295.253239 
L 315.857809 161.979235 
L 317.065436 294.856465 
L 317.179165 156.454873 
L 317.179165 146.52349 
L 317.179165 146.52349 
L 317.065436 294.829776 
L 315.857809 141.757966 
L 315.301546 295.182762 
L 312.036211 294.201212 
L 311.569953 294.93499 
L 311.569953 295.040713 
L 311.016513 154.677683 
L 310.515033 291.052636 
z
" clip-path="url(#p8f72221c3c)" style="fill: #1f77b4; fill-opacity: 0.2; stroke: #1f77b4; stroke-opacity: 0.2"/>
    <path d="M 318.752653 129.920328 
L 318.752653 147.984239 
L 318.752653 129.920328 
L 318.752653 129.920328 
z
" clip-path="url(#p8f72221c3c)" style="fill: #1f77b4; fill-opacity: 0.2; stroke: #1f77b4; stroke-opacity: 0.2"/>
    <path d="M 321.241803 88.839608 
L 321.241803 105.559159 
L 322.587404 156.548215 
L 325.884175 147.471894 
L 325.884175 134.740244 
L 325.884175 134.740244 
L 322.587404 154.315377 
L 321.241803 88.839608 
z
" clip-path="url(#p8f72221c3c)" style="fill: #1f77b4; fill-opacity: 0.2; stroke: #1f77b4; stroke-opacity: 0.2"/>
    <path d="M 337.305751 95.680037 
L 337.305751 133.223375 
L 337.305751 95.680037 
L 337.305751 95.680037 
z
" clip-path="url(#p8f72221c3c)" style="fill: #1f77b4; fill-opacity: 0.2; stroke: #1f77b4; stroke-opacity: 0.2"/>
    <path d="M 353.507922 79.780111 
L 353.507922 102.229723 
L 353.507922 79.780111 
L 353.507922 79.780111 
z
" clip-path="url(#p8f72221c3c)" style="fill: #1f77b4; fill-opacity: 0.2; stroke: #1f77b4; stroke-opacity: 0.2"/>
    <path d="M 386.558897 287.919857 
L 386.558897 288.296833 
L 386.788208 286.733864 
L 387.564769 291.650896 
L 387.993422 290.474311 
L 389.648866 294.11832 
L 390.605336 293.534694 
L 395.490749 294.952971 
L 398.487273 294.518196 
L 398.487273 294.442324 
L 398.487273 294.442324 
L 395.490749 294.913846 
L 390.605336 293.417086 
L 389.648866 294.095158 
L 387.993422 290.226061 
L 387.564769 291.309903 
L 386.788208 286.151869 
L 386.558897 287.919857 
z
" clip-path="url(#p8f72221c3c)" style="fill: #1f77b4; fill-opacity: 0.2; stroke: #1f77b4; stroke-opacity: 0.2"/>
   </g>
   <g id="matplotlib.axis_1">
    <g id="xtick_1">
     <g id="line2d_1">
      <defs>
       <path id="m31acd724f3" d="M 0 0 
L 0 3.5 
" style="stroke: #000000; stroke-width: 0.8"/>
      </defs>
      <g>
       <use xlink:href="#m31acd724f3" x="73.832727" y="307.584" style="stroke: #000000; stroke-width: 0.8"/>
      </g>
     </g>
     <g id="text_1">
      <!-- 0 -->
      <g transform="translate(70.651477 322.182437)scale(0.1 -0.1)">
       <defs>
        <path id="DejaVuSans-30" d="M 2034 4250 
Q 1547 4250 1301 3770 
Q 1056 3291 1056 2328 
Q 1056 1369 1301 889 
Q 1547 409 2034 409 
Q 2525 409 2770 889 
Q 3016 1369 3016 2328 
Q 3016 3291 2770 3770 
Q 2525 4250 2034 4250 
z
M 2034 4750 
Q 2819 4750 3233 4129 
Q 3647 3509 3647 2328 
Q 3647 1150 3233 529 
Q 2819 -91 2034 -91 
Q 1250 -91 836 529 
Q 422 1150 422 2328 
Q 422 3509 836 4129 
Q 1250 4750 2034 4750 
z
" transform="scale(0.015625)"/>
       </defs>
       <use xlink:href="#DejaVuSans-30"/>
      </g>
     </g>
    </g>
    <g id="xtick_2">
     <g id="line2d_2">
      <g>
       <use xlink:href="#m31acd724f3" x="130.024071" y="307.584" style="stroke: #000000; stroke-width: 0.8"/>
      </g>
     </g>
     <g id="text_2">
      <!-- 50 -->
      <g transform="translate(123.661571 322.182437)scale(0.1 -0.1)">
       <defs>
        <path id="DejaVuSans-35" d="M 691 4666 
L 3169 4666 
L 3169 4134 
L 1269 4134 
L 1269 2991 
Q 1406 3038 1543 3061 
Q 1681 3084 1819 3084 
Q 2600 3084 3056 2656 
Q 3513 2228 3513 1497 
Q 3513 744 3044 326 
Q 2575 -91 1722 -91 
Q 1428 -91 1123 -41 
Q 819 9 494 109 
L 494 744 
Q 775 591 1075 516 
Q 1375 441 1709 441 
Q 2250 441 2565 725 
Q 2881 1009 2881 1497 
Q 2881 1984 2565 2268 
Q 2250 2553 1709 2553 
Q 1456 2553 1204 2497 
Q 953 2441 691 2322 
L 691 4666 
z
" transform="scale(0.015625)"/>
       </defs>
       <use xlink:href="#DejaVuSans-35"/>
       <use xlink:href="#DejaVuSans-30" x="63.623047"/>
      </g>
     </g>
    </g>
    <g id="xtick_3">
     <g id="line2d_3">
      <g>
       <use xlink:href="#m31acd724f3" x="186.215415" y="307.584" style="stroke: #000000; stroke-width: 0.8"/>
      </g>
     </g>
     <g id="text_3">
      <!-- 100 -->
      <g transform="translate(176.671665 322.182437)scale(0.1 -0.1)">
       <defs>
        <path id="DejaVuSans-31" d="M 794 531 
L 1825 531 
L 1825 4091 
L 703 3866 
L 703 4441 
L 1819 4666 
L 2450 4666 
L 2450 531 
L 3481 531 
L 3481 0 
L 794 0 
L 794 531 
z
" transform="scale(0.015625)"/>
       </defs>
       <use xlink:href="#DejaVuSans-31"/>
       <use xlink:href="#DejaVuSans-30" x="63.623047"/>
       <use xlink:href="#DejaVuSans-30" x="127.246094"/>
      </g>
     </g>
    </g>
    <g id="xtick_4">
     <g id="line2d_4">
      <g>
       <use xlink:href="#m31acd724f3" x="242.406759" y="307.584" style="stroke: #000000; stroke-width: 0.8"/>
      </g>
     </g>
     <g id="text_4">
      <!-- 150 -->
      <g transform="translate(232.863009 322.182437)scale(0.1 -0.1)">
       <use xlink:href="#DejaVuSans-31"/>
       <use xlink:href="#DejaVuSans-35" x="63.623047"/>
       <use xlink:href="#DejaVuSans-30" x="127.246094"/>
      </g>
     </g>
    </g>
    <g id="xtick_5">
     <g id="line2d_5">
      <g>
       <use xlink:href="#m31acd724f3" x="298.598103" y="307.584" style="stroke: #000000; stroke-width: 0.8"/>
      </g>
     </g>
     <g id="text_5">
      <!-- 200 -->
      <g transform="translate(289.054353 322.182437)scale(0.1 -0.1)">
       <defs>
        <path id="DejaVuSans-32" d="M 1228 531 
L 3431 531 
L 3431 0 
L 469 0 
L 469 531 
Q 828 903 1448 1529 
Q 2069 2156 2228 2338 
Q 2531 2678 2651 2914 
Q 2772 3150 2772 3378 
Q 2772 3750 2511 3984 
Q 2250 4219 1831 4219 
Q 1534 4219 1204 4116 
Q 875 4013 500 3803 
L 500 4441 
Q 881 4594 1212 4672 
Q 1544 4750 1819 4750 
Q 2544 4750 2975 4387 
Q 3406 4025 3406 3419 
Q 3406 3131 3298 2873 
Q 3191 2616 2906 2266 
Q 2828 2175 2409 1742 
Q 1991 1309 1228 531 
z
" transform="scale(0.015625)"/>
       </defs>
       <use xlink:href="#DejaVuSans-32"/>
       <use xlink:href="#DejaVuSans-30" x="63.623047"/>
       <use xlink:href="#DejaVuSans-30" x="127.246094"/>
      </g>
     </g>
    </g>
    <g id="xtick_6">
     <g id="line2d_6">
      <g>
       <use xlink:href="#m31acd724f3" x="354.789447" y="307.584" style="stroke: #000000; stroke-width: 0.8"/>
      </g>
     </g>
     <g id="text_6">
      <!-- 250 -->
      <g transform="translate(345.245697 322.182437)scale(0.1 -0.1)">
       <use xlink:href="#DejaVuSans-32"/>
       <use xlink:href="#DejaVuSans-35" x="63.623047"/>
       <use xlink:href="#DejaVuSans-30" x="127.246094"/>
      </g>
     </g>
    </g>
    <g id="xtick_7">
     <g id="line2d_7">
      <g>
       <use xlink:href="#m31acd724f3" x="410.980791" y="307.584" style="stroke: #000000; stroke-width: 0.8"/>
      </g>
     </g>
     <g id="text_7">
      <!-- 300 -->
      <g transform="translate(401.437041 322.182437)scale(0.1 -0.1)">
       <defs>
        <path id="DejaVuSans-33" d="M 2597 2516 
Q 3050 2419 3304 2112 
Q 3559 1806 3559 1356 
Q 3559 666 3084 287 
Q 2609 -91 1734 -91 
Q 1441 -91 1130 -33 
Q 819 25 488 141 
L 488 750 
Q 750 597 1062 519 
Q 1375 441 1716 441 
Q 2309 441 2620 675 
Q 2931 909 2931 1356 
Q 2931 1769 2642 2001 
Q 2353 2234 1838 2234 
L 1294 2234 
L 1294 2753 
L 1863 2753 
Q 2328 2753 2575 2939 
Q 2822 3125 2822 3475 
Q 2822 3834 2567 4026 
Q 2313 4219 1838 4219 
Q 1578 4219 1281 4162 
Q 984 4106 628 3988 
L 628 4550 
Q 988 4650 1302 4700 
Q 1616 4750 1894 4750 
Q 2613 4750 3031 4423 
Q 3450 4097 3450 3541 
Q 3450 3153 3228 2886 
Q 3006 2619 2597 2516 
z
" transform="scale(0.015625)"/>
       </defs>
       <use xlink:href="#DejaVuSans-33"/>
       <use xlink:href="#DejaVuSans-30" x="63.623047"/>
       <use xlink:href="#DejaVuSans-30" x="127.246094"/>
      </g>
     </g>
    </g>
    <g id="text_8">
     <!-- Global close to cube -->
     <g transform="translate(185.375625 335.860562)scale(0.1 -0.1)">
      <defs>
       <path id="DejaVuSans-47" d="M 3809 666 
L 3809 1919 
L 2778 1919 
L 2778 2438 
L 4434 2438 
L 4434 434 
Q 4069 175 3628 42 
Q 3188 -91 2688 -91 
Q 1594 -91 976 548 
Q 359 1188 359 2328 
Q 359 3472 976 4111 
Q 1594 4750 2688 4750 
Q 3144 4750 3555 4637 
Q 3966 4525 4313 4306 
L 4313 3634 
Q 3963 3931 3569 4081 
Q 3175 4231 2741 4231 
Q 1884 4231 1454 3753 
Q 1025 3275 1025 2328 
Q 1025 1384 1454 906 
Q 1884 428 2741 428 
Q 3075 428 3337 486 
Q 3600 544 3809 666 
z
" transform="scale(0.015625)"/>
       <path id="DejaVuSans-6c" d="M 603 4863 
L 1178 4863 
L 1178 0 
L 603 0 
L 603 4863 
z
" transform="scale(0.015625)"/>
       <path id="DejaVuSans-6f" d="M 1959 3097 
Q 1497 3097 1228 2736 
Q 959 2375 959 1747 
Q 959 1119 1226 758 
Q 1494 397 1959 397 
Q 2419 397 2687 759 
Q 2956 1122 2956 1747 
Q 2956 2369 2687 2733 
Q 2419 3097 1959 3097 
z
M 1959 3584 
Q 2709 3584 3137 3096 
Q 3566 2609 3566 1747 
Q 3566 888 3137 398 
Q 2709 -91 1959 -91 
Q 1206 -91 779 398 
Q 353 888 353 1747 
Q 353 2609 779 3096 
Q 1206 3584 1959 3584 
z
" transform="scale(0.015625)"/>
       <path id="DejaVuSans-62" d="M 3116 1747 
Q 3116 2381 2855 2742 
Q 2594 3103 2138 3103 
Q 1681 3103 1420 2742 
Q 1159 2381 1159 1747 
Q 1159 1113 1420 752 
Q 1681 391 2138 391 
Q 2594 391 2855 752 
Q 3116 1113 3116 1747 
z
M 1159 2969 
Q 1341 3281 1617 3432 
Q 1894 3584 2278 3584 
Q 2916 3584 3314 3078 
Q 3713 2572 3713 1747 
Q 3713 922 3314 415 
Q 2916 -91 2278 -91 
Q 1894 -91 1617 61 
Q 1341 213 1159 525 
L 1159 0 
L 581 0 
L 581 4863 
L 1159 4863 
L 1159 2969 
z
" transform="scale(0.015625)"/>
       <path id="DejaVuSans-61" d="M 2194 1759 
Q 1497 1759 1228 1600 
Q 959 1441 959 1056 
Q 959 750 1161 570 
Q 1363 391 1709 391 
Q 2188 391 2477 730 
Q 2766 1069 2766 1631 
L 2766 1759 
L 2194 1759 
z
M 3341 1997 
L 3341 0 
L 2766 0 
L 2766 531 
Q 2569 213 2275 61 
Q 1981 -91 1556 -91 
Q 1019 -91 701 211 
Q 384 513 384 1019 
Q 384 1609 779 1909 
Q 1175 2209 1959 2209 
L 2766 2209 
L 2766 2266 
Q 2766 2663 2505 2880 
Q 2244 3097 1772 3097 
Q 1472 3097 1187 3025 
Q 903 2953 641 2809 
L 641 3341 
Q 956 3463 1253 3523 
Q 1550 3584 1831 3584 
Q 2591 3584 2966 3190 
Q 3341 2797 3341 1997 
z
" transform="scale(0.015625)"/>
       <path id="DejaVuSans-20" transform="scale(0.015625)"/>
       <path id="DejaVuSans-63" d="M 3122 3366 
L 3122 2828 
Q 2878 2963 2633 3030 
Q 2388 3097 2138 3097 
Q 1578 3097 1268 2742 
Q 959 2388 959 1747 
Q 959 1106 1268 751 
Q 1578 397 2138 397 
Q 2388 397 2633 464 
Q 2878 531 3122 666 
L 3122 134 
Q 2881 22 2623 -34 
Q 2366 -91 2075 -91 
Q 1284 -91 818 406 
Q 353 903 353 1747 
Q 353 2603 823 3093 
Q 1294 3584 2113 3584 
Q 2378 3584 2631 3529 
Q 2884 3475 3122 3366 
z
" transform="scale(0.015625)"/>
       <path id="DejaVuSans-73" d="M 2834 3397 
L 2834 2853 
Q 2591 2978 2328 3040 
Q 2066 3103 1784 3103 
Q 1356 3103 1142 2972 
Q 928 2841 928 2578 
Q 928 2378 1081 2264 
Q 1234 2150 1697 2047 
L 1894 2003 
Q 2506 1872 2764 1633 
Q 3022 1394 3022 966 
Q 3022 478 2636 193 
Q 2250 -91 1575 -91 
Q 1294 -91 989 -36 
Q 684 19 347 128 
L 347 722 
Q 666 556 975 473 
Q 1284 391 1588 391 
Q 1994 391 2212 530 
Q 2431 669 2431 922 
Q 2431 1156 2273 1281 
Q 2116 1406 1581 1522 
L 1381 1569 
Q 847 1681 609 1914 
Q 372 2147 372 2553 
Q 372 3047 722 3315 
Q 1072 3584 1716 3584 
Q 2034 3584 2315 3537 
Q 2597 3491 2834 3397 
z
" transform="scale(0.015625)"/>
       <path id="DejaVuSans-65" d="M 3597 1894 
L 3597 1613 
L 953 1613 
Q 991 1019 1311 708 
Q 1631 397 2203 397 
Q 2534 397 2845 478 
Q 3156 559 3463 722 
L 3463 178 
Q 3153 47 2828 -22 
Q 2503 -91 2169 -91 
Q 1331 -91 842 396 
Q 353 884 353 1716 
Q 353 2575 817 3079 
Q 1281 3584 2069 3584 
Q 2775 3584 3186 3129 
Q 3597 2675 3597 1894 
z
M 3022 2063 
Q 3016 2534 2758 2815 
Q 2500 3097 2075 3097 
Q 1594 3097 1305 2825 
Q 1016 2553 972 2059 
L 3022 2063 
z
" transform="scale(0.015625)"/>
       <path id="DejaVuSans-74" d="M 1172 4494 
L 1172 3500 
L 2356 3500 
L 2356 3053 
L 1172 3053 
L 1172 1153 
Q 1172 725 1289 603 
Q 1406 481 1766 481 
L 2356 481 
L 2356 0 
L 1766 0 
Q 1100 0 847 248 
Q 594 497 594 1153 
L 594 3053 
L 172 3053 
L 172 3500 
L 594 3500 
L 594 4494 
L 1172 4494 
z
" transform="scale(0.015625)"/>
       <path id="DejaVuSans-75" d="M 544 1381 
L 544 3500 
L 1119 3500 
L 1119 1403 
Q 1119 906 1312 657 
Q 1506 409 1894 409 
Q 2359 409 2629 706 
Q 2900 1003 2900 1516 
L 2900 3500 
L 3475 3500 
L 3475 0 
L 2900 0 
L 2900 538 
Q 2691 219 2414 64 
Q 2138 -91 1772 -91 
Q 1169 -91 856 284 
Q 544 659 544 1381 
z
M 1991 3584 
L 1991 3584 
z
" transform="scale(0.015625)"/>
      </defs>
      <use xlink:href="#DejaVuSans-47"/>
      <use xlink:href="#DejaVuSans-6c" x="77.490234"/>
      <use xlink:href="#DejaVuSans-6f" x="105.273438"/>
      <use xlink:href="#DejaVuSans-62" x="166.455078"/>
      <use xlink:href="#DejaVuSans-61" x="229.931641"/>
      <use xlink:href="#DejaVuSans-6c" x="291.210938"/>
      <use xlink:href="#DejaVuSans-20" x="318.994141"/>
      <use xlink:href="#DejaVuSans-63" x="350.78125"/>
      <use xlink:href="#DejaVuSans-6c" x="405.761719"/>
      <use xlink:href="#DejaVuSans-6f" x="433.544922"/>
      <use xlink:href="#DejaVuSans-73" x="494.726562"/>
      <use xlink:href="#DejaVuSans-65" x="546.826172"/>
      <use xlink:href="#DejaVuSans-20" x="608.349609"/>
      <use xlink:href="#DejaVuSans-74" x="640.136719"/>
      <use xlink:href="#DejaVuSans-6f" x="679.345703"/>
      <use xlink:href="#DejaVuSans-20" x="740.527344"/>
      <use xlink:href="#DejaVuSans-63" x="772.314453"/>
      <use xlink:href="#DejaVuSans-75" x="827.294922"/>
      <use xlink:href="#DejaVuSans-62" x="890.673828"/>
      <use xlink:href="#DejaVuSans-65" x="954.150391"/>
     </g>
    </g>
   </g>
   <g id="matplotlib.axis_2">
    <g id="ytick_1">
     <g id="line2d_8">
      <defs>
       <path id="mffc15dae00" d="M 0 0 
L -3.5 0 
" style="stroke: #000000; stroke-width: 0.8"/>
      </defs>
      <g>
       <use xlink:href="#mffc15dae00" x="57.6" y="295.93743" style="stroke: #000000; stroke-width: 0.8"/>
      </g>
     </g>
     <g id="text_9">
      <!-- 0 -->
      <g transform="translate(44.2375 299.736649)scale(0.1 -0.1)">
       <use xlink:href="#DejaVuSans-30"/>
      </g>
     </g>
    </g>
    <g id="ytick_2">
     <g id="line2d_9">
      <g>
       <use xlink:href="#mffc15dae00" x="57.6" y="249.842503" style="stroke: #000000; stroke-width: 0.8"/>
      </g>
     </g>
     <g id="text_10">
      <!-- 2 -->
      <g transform="translate(44.2375 253.641722)scale(0.1 -0.1)">
       <use xlink:href="#DejaVuSans-32"/>
      </g>
     </g>
    </g>
    <g id="ytick_3">
     <g id="line2d_10">
      <g>
       <use xlink:href="#mffc15dae00" x="57.6" y="203.747576" style="stroke: #000000; stroke-width: 0.8"/>
      </g>
     </g>
     <g id="text_11">
      <!-- 4 -->
      <g transform="translate(44.2375 207.546795)scale(0.1 -0.1)">
       <defs>
        <path id="DejaVuSans-34" d="M 2419 4116 
L 825 1625 
L 2419 1625 
L 2419 4116 
z
M 2253 4666 
L 3047 4666 
L 3047 1625 
L 3713 1625 
L 3713 1100 
L 3047 1100 
L 3047 0 
L 2419 0 
L 2419 1100 
L 313 1100 
L 313 1709 
L 2253 4666 
z
" transform="scale(0.015625)"/>
       </defs>
       <use xlink:href="#DejaVuSans-34"/>
      </g>
     </g>
    </g>
    <g id="ytick_4">
     <g id="line2d_11">
      <g>
       <use xlink:href="#mffc15dae00" x="57.6" y="157.65265" style="stroke: #000000; stroke-width: 0.8"/>
      </g>
     </g>
     <g id="text_12">
      <!-- 6 -->
      <g transform="translate(44.2375 161.451868)scale(0.1 -0.1)">
       <defs>
        <path id="DejaVuSans-36" d="M 2113 2584 
Q 1688 2584 1439 2293 
Q 1191 2003 1191 1497 
Q 1191 994 1439 701 
Q 1688 409 2113 409 
Q 2538 409 2786 701 
Q 3034 994 3034 1497 
Q 3034 2003 2786 2293 
Q 2538 2584 2113 2584 
z
M 3366 4563 
L 3366 3988 
Q 3128 4100 2886 4159 
Q 2644 4219 2406 4219 
Q 1781 4219 1451 3797 
Q 1122 3375 1075 2522 
Q 1259 2794 1537 2939 
Q 1816 3084 2150 3084 
Q 2853 3084 3261 2657 
Q 3669 2231 3669 1497 
Q 3669 778 3244 343 
Q 2819 -91 2113 -91 
Q 1303 -91 875 529 
Q 447 1150 447 2328 
Q 447 3434 972 4092 
Q 1497 4750 2381 4750 
Q 2619 4750 2861 4703 
Q 3103 4656 3366 4563 
z
" transform="scale(0.015625)"/>
       </defs>
       <use xlink:href="#DejaVuSans-36"/>
      </g>
     </g>
    </g>
    <g id="ytick_5">
     <g id="line2d_12">
      <g>
       <use xlink:href="#mffc15dae00" x="57.6" y="111.557723" style="stroke: #000000; stroke-width: 0.8"/>
      </g>
     </g>
     <g id="text_13">
      <!-- 8 -->
      <g transform="translate(44.2375 115.356941)scale(0.1 -0.1)">
       <defs>
        <path id="DejaVuSans-38" d="M 2034 2216 
Q 1584 2216 1326 1975 
Q 1069 1734 1069 1313 
Q 1069 891 1326 650 
Q 1584 409 2034 409 
Q 2484 409 2743 651 
Q 3003 894 3003 1313 
Q 3003 1734 2745 1975 
Q 2488 2216 2034 2216 
z
M 1403 2484 
Q 997 2584 770 2862 
Q 544 3141 544 3541 
Q 544 4100 942 4425 
Q 1341 4750 2034 4750 
Q 2731 4750 3128 4425 
Q 3525 4100 3525 3541 
Q 3525 3141 3298 2862 
Q 3072 2584 2669 2484 
Q 3125 2378 3379 2068 
Q 3634 1759 3634 1313 
Q 3634 634 3220 271 
Q 2806 -91 2034 -91 
Q 1263 -91 848 271 
Q 434 634 434 1313 
Q 434 1759 690 2068 
Q 947 2378 1403 2484 
z
M 1172 3481 
Q 1172 3119 1398 2916 
Q 1625 2713 2034 2713 
Q 2441 2713 2670 2916 
Q 2900 3119 2900 3481 
Q 2900 3844 2670 4047 
Q 2441 4250 2034 4250 
Q 1625 4250 1398 4047 
Q 1172 3844 1172 3481 
z
" transform="scale(0.015625)"/>
       </defs>
       <use xlink:href="#DejaVuSans-38"/>
      </g>
     </g>
    </g>
    <g id="ytick_6">
     <g id="line2d_13">
      <g>
       <use xlink:href="#mffc15dae00" x="57.6" y="65.462796" style="stroke: #000000; stroke-width: 0.8"/>
      </g>
     </g>
     <g id="text_14">
      <!-- 10 -->
      <g transform="translate(37.875 69.262015)scale(0.1 -0.1)">
       <use xlink:href="#DejaVuSans-31"/>
       <use xlink:href="#DejaVuSans-30" x="63.623047"/>
      </g>
     </g>
    </g>
    <g id="text_15">
     <!-- GFLOPS -->
     <g transform="translate(31.795312 194.007688)rotate(-90)scale(0.1 -0.1)">
      <defs>
       <path id="DejaVuSans-46" d="M 628 4666 
L 3309 4666 
L 3309 4134 
L 1259 4134 
L 1259 2759 
L 3109 2759 
L 3109 2228 
L 1259 2228 
L 1259 0 
L 628 0 
L 628 4666 
z
" transform="scale(0.015625)"/>
       <path id="DejaVuSans-4c" d="M 628 4666 
L 1259 4666 
L 1259 531 
L 3531 531 
L 3531 0 
L 628 0 
L 628 4666 
z
" transform="scale(0.015625)"/>
       <path id="DejaVuSans-4f" d="M 2522 4238 
Q 1834 4238 1429 3725 
Q 1025 3213 1025 2328 
Q 1025 1447 1429 934 
Q 1834 422 2522 422 
Q 3209 422 3611 934 
Q 4013 1447 4013 2328 
Q 4013 3213 3611 3725 
Q 3209 4238 2522 4238 
z
M 2522 4750 
Q 3503 4750 4090 4092 
Q 4678 3434 4678 2328 
Q 4678 1225 4090 567 
Q 3503 -91 2522 -91 
Q 1538 -91 948 565 
Q 359 1222 359 2328 
Q 359 3434 948 4092 
Q 1538 4750 2522 4750 
z
" transform="scale(0.015625)"/>
       <path id="DejaVuSans-50" d="M 1259 4147 
L 1259 2394 
L 2053 2394 
Q 2494 2394 2734 2622 
Q 2975 2850 2975 3272 
Q 2975 3691 2734 3919 
Q 2494 4147 2053 4147 
L 1259 4147 
z
M 628 4666 
L 2053 4666 
Q 2838 4666 3239 4311 
Q 3641 3956 3641 3272 
Q 3641 2581 3239 2228 
Q 2838 1875 2053 1875 
L 1259 1875 
L 1259 0 
L 628 0 
L 628 4666 
z
" transform="scale(0.015625)"/>
       <path id="DejaVuSans-53" d="M 3425 4513 
L 3425 3897 
Q 3066 4069 2747 4153 
Q 2428 4238 2131 4238 
Q 1616 4238 1336 4038 
Q 1056 3838 1056 3469 
Q 1056 3159 1242 3001 
Q 1428 2844 1947 2747 
L 2328 2669 
Q 3034 2534 3370 2195 
Q 3706 1856 3706 1288 
Q 3706 609 3251 259 
Q 2797 -91 1919 -91 
Q 1588 -91 1214 -16 
Q 841 59 441 206 
L 441 856 
Q 825 641 1194 531 
Q 1563 422 1919 422 
Q 2459 422 2753 634 
Q 3047 847 3047 1241 
Q 3047 1584 2836 1778 
Q 2625 1972 2144 2069 
L 1759 2144 
Q 1053 2284 737 2584 
Q 422 2884 422 3419 
Q 422 4038 858 4394 
Q 1294 4750 2059 4750 
Q 2388 4750 2728 4690 
Q 3069 4631 3425 4513 
z
" transform="scale(0.015625)"/>
      </defs>
      <use xlink:href="#DejaVuSans-47"/>
      <use xlink:href="#DejaVuSans-46" x="77.490234"/>
      <use xlink:href="#DejaVuSans-4c" x="135.009766"/>
      <use xlink:href="#DejaVuSans-4f" x="187.097656"/>
      <use xlink:href="#DejaVuSans-50" x="265.808594"/>
      <use xlink:href="#DejaVuSans-53" x="326.111328"/>
     </g>
    </g>
   </g>
   <g id="line2d_14">
    <path d="M 73.832727 237.487911 
L 73.832727 163.164796 
L 73.832727 295.469521 
L 73.832727 293.089182 
L 81.17577 257.917211 
L 81.175823 259.049043 
L 81.189807 232.202407 
L 81.276586 237.376634 
L 86.558039 260.811212 
L 86.616302 237.581489 
L 86.673961 232.204953 
L 86.862404 235.18234 
L 88.518812 229.568168 
L 88.527601 210.466046 
L 88.531096 259.653532 
L 88.625371 240.795181 
L 88.720445 221.482133 
L 88.924528 235.488064 
L 89.034772 233.49125 
L 93.295797 258.104415 
L 93.298494 257.897851 
L 93.571236 231.226721 
L 93.631015 231.414397 
L 93.936354 234.180608 
L 94.123636 232.591537 
L 95.919063 258.233307 
L 95.959408 257.428256 
L 96.120592 236.131416 
L 96.164304 247.861344 
L 96.299682 232.203446 
L 96.398111 233.005769 
L 96.773271 234.459633 
L 97.08986 232.289657 
L 99.283351 219.214095 
L 99.34897 202.923548 
L 99.370018 257.402167 
L 99.399878 223.520027 
L 99.444368 256.743807 
L 99.515195 227.214129 
L 99.639223 245.914363 
L 99.892081 219.275498 
L 100.465379 257.468513 
L 100.489159 256.670069 
L 100.520273 256.550953 
L 100.558241 252.911065 
L 100.586098 232.104685 
L 100.608628 253.805816 
L 100.675439 241.912426 
L 100.765487 249.542456 
L 100.902947 231.601754 
L 101.090765 235.565963 
L 101.476217 232.525535 
L 102.000536 231.588055 
L 103.222475 157.576593 
L 103.223571 159.130683 
L 103.228005 220.721704 
L 103.334968 187.33494 
L 103.352725 257.779564 
L 103.455225 256.080696 
L 103.491113 256.357016 
L 103.54988 208.134072 
L 103.608163 218.510926 
L 103.814387 251.317482 
L 104.01633 219.186351 
L 104.236816 220.026085 
L 104.758862 232.784508 
L 105.391257 233.366572 
L 106.068124 258.01913 
L 106.086768 257.066955 
L 106.139091 257.114394 
L 106.248851 254.747761 
L 106.292224 255.139317 
L 106.433906 248.420756 
L 106.508401 251.336243 
L 106.791943 235.271775 
L 106.938449 236.558056 
L 107.700063 232.164384 
L 107.781404 257.318928 
L 107.807622 256.576589 
L 107.879174 257.173465 
L 107.920664 254.061771 
L 108.033473 256.049389 
L 108.07036 234.451855 
L 108.105825 244.616805 
L 108.30023 253.28061 
L 108.447931 231.956893 
L 108.832661 240.117023 
L 109.245635 232.007259 
L 110.232064 235.246342 
L 110.979169 256.807198 
L 111.052022 257.491323 
L 111.129165 251.72466 
L 111.244356 256.690754 
L 111.374645 240.750169 
L 111.574135 254.563793 
L 111.825561 231.209372 
L 111.825561 232.135801 
L 112.467203 256.653507 
L 112.637338 255.719535 
L 112.808618 214.83356 
L 112.819683 220.089655 
L 112.852642 215.509069 
L 112.921758 253.354776 
L 112.923499 206.404531 
L 112.952162 207.424019 
L 113.049232 187.082374 
L 113.102814 193.075546 
L 113.230842 257.232726 
L 113.309745 221.045126 
L 113.429303 221.868547 
L 113.565685 251.196672 
L 113.764723 254.859481 
L 114.03998 220.40248 
L 114.414545 221.430307 
L 114.820943 235.104519 
L 115.168693 232.076293 
L 115.231777 256.438876 
L 115.364253 257.956099 
L 115.39739 254.756535 
L 115.601557 257.320105 
L 115.661061 248.048482 
L 116.00245 255.742112 
L 116.129588 234.196972 
L 116.777155 246.53093 
L 117.159202 231.586133 
L 117.996685 220.463144 
L 118.005399 221.833267 
L 118.068184 215.770445 
L 118.086089 218.032308 
L 118.13112 216.506393 
L 118.158893 217.819134 
L 118.231778 202.289394 
L 118.278344 212.079784 
L 118.408457 184.194092 
L 118.49588 194.733501 
L 118.552479 257.110446 
L 118.679857 258.27572 
L 118.766637 219.258878 
L 118.963495 213.782285 
L 119.108131 241.772114 
L 119.471294 256.398949 
L 119.713814 217.866382 
L 119.749213 254.0402 
L 119.881659 254.407233 
L 120.346992 225.741899 
L 120.572196 255.545069 
L 120.653749 246.941733 
L 120.80238 257.142927 
L 120.906733 253.125751 
L 121.018603 231.329475 
L 121.280008 255.753835 
L 121.504996 239.16766 
L 121.991929 236.782161 
L 122.182465 249.22412 
L 122.522996 239.101097 
L 122.575116 243.544664 
L 122.856752 233.741644 
L 122.958703 255.306399 
L 123.28448 257.142493 
L 123.308894 248.379584 
L 123.839882 255.658579 
L 123.911712 234.345782 
L 124.369175 242.746105 
L 124.865213 146.305116 
L 124.884128 251.823856 
L 124.967028 196.992886 
L 125.175584 232.49539 
L 125.197663 189.680845 
L 125.445718 196.976402 
L 125.951435 166.505991 
L 126.441704 254.791836 
L 126.458249 253.397887 
L 126.763347 258.032249 
L 126.85019 253.764242 
L 127.145591 216.153555 
L 127.17087 256.189452 
L 127.207818 218.792229 
L 127.283754 214.061667 
L 127.339468 220.927759 
L 127.384529 214.629277 
L 127.402751 255.891175 
L 127.518151 188.544992 
L 127.640653 243.23917 
L 127.66997 230.305658 
L 127.698246 202.177756 
L 127.973166 181.261619 
L 128.202693 250.317948 
L 128.348802 186.347415 
L 128.392251 254.544285 
L 128.392251 251.713372 
L 128.592559 252.026352 
L 128.987867 256.263197 
L 129.119707 215.623543 
L 129.2546 231.324779 
L 130.168345 221.995312 
L 131.031226 250.517704 
L 131.400752 248.948621 
L 131.773413 234.434168 
L 131.793635 256.459499 
L 132.689364 160.92343 
L 132.749715 164.704021 
L 132.813336 164.651242 
L 132.83721 155.93546 
L 132.905696 218.922257 
L 132.9559 193.431117 
L 133.003304 146.928434 
L 133.003304 194.619168 
L 133.128674 253.177942 
L 133.149498 218.383234 
L 133.267034 178.35024 
L 133.267034 188.325528 
L 133.383598 190.354086 
L 133.586715 181.642524 
L 133.796046 208.155757 
L 134.199932 163.27395 
L 134.338998 249.549465 
L 134.640905 176.307991 
L 134.669337 251.630208 
L 134.753829 243.380784 
L 135.062709 246.565366 
L 135.459784 256.789144 
L 135.684996 209.730036 
L 136.021396 252.958999 
L 136.845589 242.53497 
L 136.949788 213.058238 
L 138.303521 218.795214 
L 138.327747 256.079007 
L 138.340809 218.815412 
L 138.664974 212.990957 
L 138.751721 216.057734 
L 139.035085 204.769075 
L 139.184074 215.952169 
L 139.184074 212.31332 
L 139.700983 237.33148 
L 139.751159 181.81412 
L 140.044171 191.789464 
L 141.493278 257.814183 
L 141.567399 176.614173 
L 141.633426 217.847654 
L 141.730081 218.181716 
L 141.782517 217.503333 
L 141.925621 218.937606 
L 142.008601 212.975209 
L 142.234219 217.964054 
L 142.307992 186.07394 
L 142.378922 192.615479 
L 142.767732 211.135202 
L 143.063135 180.883225 
L 143.751526 232.171219 
L 143.832595 194.735096 
L 144.658543 182.424853 
L 145.408905 257.34886 
L 146.631401 185.790721 
L 147.9279 217.649576 
L 148.12561 216.554476 
L 148.271316 217.467501 
L 148.425603 211.858607 
L 148.655984 217.982824 
L 148.916562 191.4508 
L 149.315543 212.959291 
L 149.818394 189.095901 
L 149.818394 175.696347 
L 150.615753 197.596492 
L 151.101679 222.409223 
L 151.441948 217.67219 
L 151.784509 162.618917 
L 151.806638 164.793099 
L 151.872556 163.236762 
L 152.010789 212.565882 
L 152.071597 157.703066 
L 152.265738 141.854766 
L 152.372901 145.457776 
L 152.47338 216.797118 
L 152.628957 217.66738 
L 152.786762 181.1307 
L 153.02588 185.97188 
L 153.09913 196.41897 
L 153.09913 193.235067 
L 153.298642 207.971831 
L 153.696719 213.749167 
L 153.696719 212.559877 
L 153.961378 203.815438 
L 154.247233 170.57377 
L 154.996364 178.954194 
L 155.809158 181.206085 
L 156.504658 179.542031 
L 156.630826 217.031836 
L 156.895779 221.48525 
L 156.962054 214.097974 
L 157.370387 217.834546 
L 157.489394 198.426484 
L 158.172172 217.081526 
L 158.271596 191.634521 
L 158.426448 184.385037 
L 159.721583 202.100792 
L 160.485676 179.530375 
L 162.30364 162.523846 
L 162.339451 169.138814 
L 162.429513 165.813526 
L 162.48506 168.542346 
L 162.630828 163.919024 
L 162.723961 166.9954 
L 162.984187 116.908652 
L 163.159034 149.586268 
L 163.272231 215.3845 
L 163.526986 217.788322 
L 163.700547 177.964714 
L 164.094263 174.206087 
L 164.383534 198.847551 
L 165.10986 219.871049 
L 165.594901 158.467262 
L 165.665699 210.139887 
L 165.930591 214.468592 
L 166.861257 185.879738 
L 166.995654 201.014735 
L 167.311666 218.146556 
L 167.47477 200.667773 
L 167.772032 221.886045 
L 167.980738 207.810456 
L 168.204479 179.417545 
L 168.204479 189.718585 
L 168.727288 217.058916 
L 169.177265 194.886719 
L 170.15113 190.21795 
L 170.532203 208.863296 
L 171.880776 185.717684 
L 172.084679 214.782961 
L 172.736232 221.016897 
L 172.78506 201.937158 
L 173.847037 216.653649 
L 173.990697 182.455044 
L 174.905622 201.460585 
L 175.935528 212.168198 
L 175.935528 210.185408 
L 176.101328 164.056157 
L 176.27929 167.455542 
L 176.51844 181.729459 
L 176.51844 180.680969 
L 176.562599 161.279456 
L 177.058708 149.185288 
L 178.070143 112.131182 
L 179.050681 214.547667 
L 179.083771 214.261051 
L 179.693967 221.828619 
L 179.973803 203.420418 
L 179.973803 193.99026 
L 180.280996 163.205705 
L 180.363334 165.962989 
L 180.458454 163.717935 
L 180.509012 219.694347 
L 180.509012 217.620382 
L 180.582909 168.781117 
L 180.73478 167.426157 
L 180.846209 178.441498 
L 180.936331 167.613072 
L 180.972775 216.998946 
L 181.203576 138.482415 
L 181.44858 199.19626 
L 181.563765 150.535823 
L 182.113606 90.630434 
L 182.572659 211.015717 
L 182.864877 119.926372 
L 182.951774 210.412058 
L 183.35239 213.370411 
L 184.143006 215.728475 
L 184.406687 168.806911 
L 184.676474 180.266198 
L 186.503962 177.148247 
L 188.229725 205.102986 
L 188.968777 206.179438 
L 189.714099 190.181302 
L 189.714099 183.269803 
L 189.754543 216.125678 
L 191.546001 293.747608 
L 191.563158 292.906266 
L 191.793945 295.179326 
L 191.841692 294.85626 
L 192.079073 161.73182 
L 192.17388 164.380665 
L 192.322717 166.730584 
L 192.322717 166.42751 
L 192.42462 214.940441 
L 192.46627 169.422759 
L 192.70134 247.467992 
L 192.934469 263.127703 
L 193.340703 115.362091 
L 193.759365 154.144365 
L 194.567137 89.756436 
L 194.845268 208.707309 
L 195.449082 161.665136 
L 195.505946 211.34662 
L 195.67493 189.203567 
L 195.67493 198.725903 
L 196.29269 199.403591 
L 196.29269 202.272788 
L 197.08684 215.838218 
L 197.537265 151.466661 
L 198.210066 213.281246 
L 199.858451 199.893247 
L 200.066848 93.622878 
L 200.066848 180.424004 
L 202.774315 162.837176 
L 202.822767 215.943731 
L 202.848891 164.197783 
L 203.058182 166.585616 
L 203.058182 162.000093 
L 203.16845 165.617738 
L 203.670715 163.17171 
L 204.237444 160.879871 
L 204.535421 172.609531 
L 204.535421 155.110284 
L 205.569239 186.951155 
L 205.669591 108.783115 
L 205.669591 119.837293 
L 206.255614 121.489013 
L 209.153828 214.746241 
L 209.302071 81.456254 
L 209.434124 163.303427 
L 209.732306 165.892463 
L 210.018515 166.158085 
L 210.184474 162.744468 
L 210.635711 163.002657 
L 210.783256 106.199648 
L 210.925117 191.467888 
L 210.925117 150.821958 
L 211.702737 161.561807 
L 212.293543 92.466817 
L 213.670325 177.135085 
L 213.832462 149.01718 
L 215.48436 88.609363 
L 216.985082 216.403814 
L 219.430074 125.240464 
L 222.023073 163.80033 
L 222.219537 164.792984 
L 222.418493 170.475221 
L 222.709904 169.830929 
L 223.018478 166.253617 
L 223.47924 170.877284 
L 224.000397 153.379996 
L 224.798358 172.087276 
L 225.80406 86.320289 
L 227.398778 172.197904 
L 228.370632 169.516447 
L 229.05117 166.649227 
L 229.894276 79.596134 
L 230.188851 162.901997 
L 231.114033 170.137 
L 231.425186 169.385883 
L 231.740797 163.787711 
L 232.219032 166.243822 
L 232.365533 145.835236 
L 232.764556 162.450613 
L 233.560711 162.232027 
L 234.090029 138.848839 
L 234.661738 135.19353 
L 236.16 147.803374 
L 237.785589 105.747135 
L 239.17659 81.989402 
L 239.428925 166.332036 
L 239.95883 169.881749 
L 240.09138 167.755678 
L 240.908046 169.523015 
L 241.146061 149.63582 
L 242.511617 169.817677 
L 242.710466 121.415084 
L 243.020169 110.027314 
L 245.610439 141.728235 
L 247.138624 85.835985 
L 252.711734 171.112714 
L 253.221245 169.523246 
L 253.355432 121.073175 
L 253.355432 142.871389 
L 253.568367 168.107901 
L 254.355799 166.556807 
L 254.934342 149.56322 
L 256.059648 166.80353 
L 256.257259 167.451279 
L 256.386994 165.599645 
L 257.357074 91.789913 
L 257.498671 162.675326 
L 258.028454 162.672003 
L 259.889787 162.478788 
L 260.15858 137.801927 
L 260.790604 163.057568 
L 261.116814 148.548786 
L 261.711337 170.115335 
L 262.128749 163.036768 
L 262.57623 87.571536 
L 262.57623 68.45378 
L 263.621849 170.492161 
L 264.521803 153.209041 
L 266.469533 131.889734 
L 267.231679 151.659157 
L 268.593804 136.014596 
L 268.80228 136.594413 
L 269.928825 93.641258 
L 270.336632 167.387034 
L 271.639737 167.293519 
L 271.737393 159.011144 
L 273.861347 167.596017 
L 274.148667 99.477337 
L 275.978517 149.969029 
L 277.74637 285.261684 
L 277.96267 289.130976 
L 277.96267 289.114966 
L 278.038329 164.724764 
L 278.038329 167.309998 
L 278.369929 292.172654 
L 279.204153 87.463444 
L 279.29247 294.449433 
L 282.307559 295.193636 
L 284.268636 164.744661 
L 284.334815 164.851525 
L 285.555207 165.18917 
L 285.902577 162.548392 
L 286.114879 158.819773 
L 287.185297 168.464215 
L 287.85969 156.146325 
L 288.055741 141.757505 
L 288.112822 168.205161 
L 289.064432 153.043157 
L 289.181699 96.619509 
L 291.312591 151.118694 
L 292.07082 162.084562 
L 292.07082 169.392451 
L 292.872053 165.258543 
L 294.453286 167.979527 
L 294.980646 145.542533 
L 295.52022 88.545983 
L 299.175197 157.959296 
L 302.626722 162.456087 
L 304.104827 156.12829 
L 305.59547 119.973158 
L 305.676359 168.042331 
L 309.054643 291.004489 
L 309.070695 289.679007 
L 309.259275 293.678907 
L 309.293589 293.011278 
L 309.500678 284.605453 
L 309.755162 293.472542 
L 309.850656 293.186896 
L 310.325419 293.252677 
L 310.515033 291.099641 
L 311.016513 161.722947 
L 311.569953 295.254112 
L 311.569953 295.189 
L 312.036211 294.71797 
L 315.301546 295.210442 
L 315.857809 151.868601 
L 317.065436 294.839346 
L 317.179165 150.21385 
L 317.517133 142.302808 
L 317.517133 158.916342 
L 318.752653 168.720963 
L 318.752653 136.969472 
L 320.340953 163.352287 
L 321.241803 97.199383 
L 322.587404 155.431796 
L 325.884175 142.278455 
L 326.300969 158.103227 
L 331.812806 163.825452 
L 331.812806 155.272308 
L 337.305751 114.482734 
L 344.474929 159.873964 
L 344.474929 159.406562 
L 353.507922 91.004917 
L 360.137437 159.516728 
L 385.992042 285.07871 
L 386.129136 283.426345 
L 386.558897 288.150291 
L 386.788208 286.442866 
L 387.564769 291.485922 
L 387.993422 290.340469 
L 389.648866 294.10439 
L 390.605336 293.471133 
L 395.490749 294.931862 
L 398.487273 294.48026 
L 398.487273 294.48026 
" clip-path="url(#p8f72221c3c)" style="fill: none; stroke: #1f77b4; stroke-width: 1.5; stroke-linecap: square"/>
   </g>
   <g id="line2d_15"/>
   <g id="patch_3">
    <path d="M 57.6 307.584 
L 57.6 41.472 
" style="fill: none; stroke: #000000; stroke-width: 0.8; stroke-linejoin: miter; stroke-linecap: square"/>
   </g>
   <g id="patch_4">
    <path d="M 414.72 307.584 
L 414.72 41.472 
" style="fill: none; stroke: #000000; stroke-width: 0.8; stroke-linejoin: miter; stroke-linecap: square"/>
   </g>
   <g id="patch_5">
    <path d="M 57.6 307.584 
L 414.72 307.584 
" style="fill: none; stroke: #000000; stroke-width: 0.8; stroke-linejoin: miter; stroke-linecap: square"/>
   </g>
   <g id="patch_6">
    <path d="M 57.6 41.472 
L 414.72 41.472 
" style="fill: none; stroke: #000000; stroke-width: 0.8; stroke-linejoin: miter; stroke-linecap: square"/>
   </g>
   <g id="text_16">
    <!-- Global Cubeness -->
    <g transform="translate(185.874375 35.472)scale(0.12 -0.12)">
     <defs>
      <path id="DejaVuSans-43" d="M 4122 4306 
L 4122 3641 
Q 3803 3938 3442 4084 
Q 3081 4231 2675 4231 
Q 1875 4231 1450 3742 
Q 1025 3253 1025 2328 
Q 1025 1406 1450 917 
Q 1875 428 2675 428 
Q 3081 428 3442 575 
Q 3803 722 4122 1019 
L 4122 359 
Q 3791 134 3420 21 
Q 3050 -91 2638 -91 
Q 1578 -91 968 557 
Q 359 1206 359 2328 
Q 359 3453 968 4101 
Q 1578 4750 2638 4750 
Q 3056 4750 3426 4639 
Q 3797 4528 4122 4306 
z
" transform="scale(0.015625)"/>
      <path id="DejaVuSans-6e" d="M 3513 2113 
L 3513 0 
L 2938 0 
L 2938 2094 
Q 2938 2591 2744 2837 
Q 2550 3084 2163 3084 
Q 1697 3084 1428 2787 
Q 1159 2491 1159 1978 
L 1159 0 
L 581 0 
L 581 3500 
L 1159 3500 
L 1159 2956 
Q 1366 3272 1645 3428 
Q 1925 3584 2291 3584 
Q 2894 3584 3203 3211 
Q 3513 2838 3513 2113 
z
" transform="scale(0.015625)"/>
     </defs>
     <use xlink:href="#DejaVuSans-47"/>
     <use xlink:href="#DejaVuSans-6c" x="77.490234"/>
     <use xlink:href="#DejaVuSans-6f" x="105.273438"/>
     <use xlink:href="#DejaVuSans-62" x="166.455078"/>
     <use xlink:href="#DejaVuSans-61" x="229.931641"/>
     <use xlink:href="#DejaVuSans-6c" x="291.210938"/>
     <use xlink:href="#DejaVuSans-20" x="318.994141"/>
     <use xlink:href="#DejaVuSans-43" x="350.78125"/>
     <use xlink:href="#DejaVuSans-75" x="420.605469"/>
     <use xlink:href="#DejaVuSans-62" x="483.984375"/>
     <use xlink:href="#DejaVuSans-65" x="547.460938"/>
     <use xlink:href="#DejaVuSans-6e" x="608.984375"/>
     <use xlink:href="#DejaVuSans-65" x="672.363281"/>
     <use xlink:href="#DejaVuSans-73" x="733.886719"/>
     <use xlink:href="#DejaVuSans-73" x="785.986328"/>
    </g>
   </g>
   <g id="legend_1">
    <g id="patch_7">
     <path d="M 339.12 78.82825 
L 407.72 78.82825 
Q 409.72 78.82825 409.72 76.82825 
L 409.72 48.472 
Q 409.72 46.472 407.72 46.472 
L 339.12 46.472 
Q 337.12 46.472 337.12 48.472 
L 337.12 76.82825 
Q 337.12 78.82825 339.12 78.82825 
z
" style="fill: #ffffff; opacity: 0.8; stroke: #cccccc; stroke-linejoin: miter"/>
    </g>
    <g id="text_17">
     <!-- Cluster -->
     <g transform="translate(355.673906 58.070437)scale(0.1 -0.1)">
      <defs>
       <path id="DejaVuSans-72" d="M 2631 2963 
Q 2534 3019 2420 3045 
Q 2306 3072 2169 3072 
Q 1681 3072 1420 2755 
Q 1159 2438 1159 1844 
L 1159 0 
L 581 0 
L 581 3500 
L 1159 3500 
L 1159 2956 
Q 1341 3275 1631 3429 
Q 1922 3584 2338 3584 
Q 2397 3584 2469 3576 
Q 2541 3569 2628 3553 
L 2631 2963 
z
" transform="scale(0.015625)"/>
      </defs>
      <use xlink:href="#DejaVuSans-43"/>
      <use xlink:href="#DejaVuSans-6c" x="69.824219"/>
      <use xlink:href="#DejaVuSans-75" x="97.607422"/>
      <use xlink:href="#DejaVuSans-73" x="160.986328"/>
      <use xlink:href="#DejaVuSans-74" x="213.085938"/>
      <use xlink:href="#DejaVuSans-65" x="252.294922"/>
      <use xlink:href="#DejaVuSans-72" x="313.818359"/>
     </g>
    </g>
    <g id="line2d_16">
     <path d="M 341.12 69.248562 
L 351.12 69.248562 
L 361.12 69.248562 
" style="fill: none; stroke: #1f77b4; stroke-width: 1.5; stroke-linecap: square"/>
    </g>
    <g id="text_18">
     <!-- Hopper -->
     <g transform="translate(369.12 72.748562)scale(0.1 -0.1)">
      <defs>
       <path id="DejaVuSans-48" d="M 628 4666 
L 1259 4666 
L 1259 2753 
L 3553 2753 
L 3553 4666 
L 4184 4666 
L 4184 0 
L 3553 0 
L 3553 2222 
L 1259 2222 
L 1259 0 
L 628 0 
L 628 4666 
z
" transform="scale(0.015625)"/>
       <path id="DejaVuSans-70" d="M 1159 525 
L 1159 -1331 
L 581 -1331 
L 581 3500 
L 1159 3500 
L 1159 2969 
Q 1341 3281 1617 3432 
Q 1894 3584 2278 3584 
Q 2916 3584 3314 3078 
Q 3713 2572 3713 1747 
Q 3713 922 3314 415 
Q 2916 -91 2278 -91 
Q 1894 -91 1617 61 
Q 1341 213 1159 525 
z
M 3116 1747 
Q 3116 2381 2855 2742 
Q 2594 3103 2138 3103 
Q 1681 3103 1420 2742 
Q 1159 2381 1159 1747 
Q 1159 1113 1420 752 
Q 1681 391 2138 391 
Q 2594 391 2855 752 
Q 3116 1113 3116 1747 
z
" transform="scale(0.015625)"/>
      </defs>
      <use xlink:href="#DejaVuSans-48"/>
      <use xlink:href="#DejaVuSans-6f" x="75.195312"/>
      <use xlink:href="#DejaVuSans-70" x="136.376953"/>
      <use xlink:href="#DejaVuSans-70" x="199.853516"/>
      <use xlink:href="#DejaVuSans-65" x="263.330078"/>
      <use xlink:href="#DejaVuSans-72" x="324.853516"/>
     </g>
    </g>
   </g>
  </g>
 </g>
 <defs>
  <clipPath id="p8f72221c3c">
   <rect x="57.6" y="41.472" width="357.12" height="266.112"/>
  </clipPath>
 </defs>
</svg>
