<?xml version="1.0" encoding="utf-8" standalone="no"?>
<!DOCTYPE svg PUBLIC "-//W3C//DTD SVG 1.1//EN"
  "http://www.w3.org/Graphics/SVG/1.1/DTD/svg11.dtd">
<svg xmlns:xlink="http://www.w3.org/1999/xlink" width="460.8pt" height="345.6pt" viewBox="0 0 460.8 345.6" xmlns="http://www.w3.org/2000/svg" version="1.1">
 <metadata>
  <rdf:RDF xmlns:dc="http://purl.org/dc/elements/1.1/" xmlns:cc="http://creativecommons.org/ns#" xmlns:rdf="http://www.w3.org/1999/02/22-rdf-syntax-ns#">
   <cc:Work>
    <dc:type rdf:resource="http://purl.org/dc/dcmitype/StillImage"/>
    <dc:date>2024-05-04T11:10:27.924652</dc:date>
    <dc:format>image/svg+xml</dc:format>
    <dc:creator>
     <cc:Agent>
      <dc:title>Matplotlib v3.5.3, https://matplotlib.org/</dc:title>
     </cc:Agent>
    </dc:creator>
   </cc:Work>
  </rdf:RDF>
 </metadata>
 <defs>
  <style type="text/css">*{stroke-linejoin: round; stroke-linecap: butt}</style>
 </defs>
 <g id="figure_1">
  <g id="patch_1">
   <path d="M 0 345.6 
L 460.8 345.6 
L 460.8 0 
L 0 0 
z
" style="fill: #ffffff"/>
  </g>
  <g id="axes_1">
   <g id="patch_2">
    <path d="M 57.6 307.584 
L 414.72 307.584 
L 414.72 41.472 
L 57.6 41.472 
z
" style="fill: #ffffff"/>
   </g>
   <g id="PolyCollection_1">
    <path d="M 73.832727 230.683737 
L 73.832727 232.270881 
L 73.832904 231.328401 
L 73.833081 231.789092 
L 73.833258 230.822306 
L 73.833435 228.727323 
L 73.833612 231.285389 
L 73.833789 230.355037 
L 73.833966 229.160562 
L 73.834143 233.980475 
L 73.83432 229.079264 
L 73.834673 231.884996 
L 73.835027 229.739804 
L 73.835204 239.873919 
L 73.835381 229.23244 
L 73.835735 239.676171 
L 73.836089 235.788761 
L 73.836266 242.205538 
L 73.836796 237.101033 
L 73.836973 250.744225 
L 73.837327 240.372126 
L 73.837504 244.178624 
L 73.837858 243.237619 
L 73.838212 233.486123 
L 73.838743 256.845765 
L 73.83892 239.870811 
L 73.839627 238.726653 
L 73.839981 249.036175 
L 73.840335 243.423961 
L 73.840512 260.304075 
L 73.841043 237.346176 
L 73.84122 255.820991 
L 73.841396 248.578586 
L 73.842104 249.098066 
L 73.842458 249.59475 
L 73.843166 251.059147 
L 73.843696 252.033897 
L 73.843873 230.239374 
L 73.844227 257.797071 
L 73.844935 252.411749 
L 73.845289 251.276097 
L 73.84582 266.503118 
L 73.846704 244.210492 
L 73.846881 264.200199 
L 73.847412 255.508479 
L 73.84812 263.013835 
L 73.848473 259.853729 
L 73.849535 237.087254 
L 73.849889 259.571647 
L 73.850066 275.305635 
L 73.850243 260.870275 
L 73.851127 263.384805 
L 73.851658 263.614834 
L 73.852012 265.97378 
L 73.852366 248.445296 
L 73.853781 253.905753 
L 73.854666 275.080045 
L 73.854843 262.527825 
L 73.855196 214.962696 
L 73.855904 266.488957 
L 73.856435 266.016524 
L 73.85732 262.46025 
L 73.858027 252.612291 
L 73.858558 268.336698 
L 73.859089 266.462192 
L 73.859796 262.742831 
L 73.860858 249.700432 
L 73.861212 263.328365 
L 73.861743 268.738368 
L 73.862273 253.448948 
L 73.863512 270.595655 
L 73.863689 265.914647 
L 73.864396 264.218427 
L 73.865989 266.925592 
L 73.86652 220.047304 
L 73.867227 256.965625 
L 73.867581 264.931523 
L 73.867935 262.423384 
L 73.869704 267.014135 
L 73.870766 265.270923 
L 73.871473 268.3767 
L 73.872181 241.281106 
L 73.872358 271.462946 
L 73.87342 267.716498 
L 73.875012 247.816782 
L 73.875366 276.756799 
L 73.875543 266.090036 
L 73.875896 265.694981 
L 73.876781 275.278047 
L 73.877135 265.033607 
L 73.877843 196.814409 
L 73.879258 266.19313 
L 73.88032 266.826615 
L 73.881204 275.652954 
L 73.882089 258.367669 
L 73.883504 241.035441 
L 73.884566 269.069389 
L 73.885096 270.552872 
L 73.885627 269.313029 
L 73.887043 270.39443 
L 73.888281 264.588474 
L 73.889166 229.17223 
L 73.889873 267.877475 
L 73.890935 268.964009 
L 73.891996 242.449186 
L 73.893235 257.973806 
L 73.894473 267.197639 
L 73.894827 262.258535 
L 73.896243 262.054678 
L 73.896773 275.810857 
L 73.899427 267.589031 
L 73.900489 188.876369 
L 73.900666 267.439651 
L 73.901904 258.381655 
L 73.902612 268.514831 
L 73.903319 260.259637 
L 73.904204 266.574978 
L 73.906858 257.171537 
L 73.908981 245.822942 
L 73.910396 267.798935 
L 73.910573 266.609379 
L 73.911812 224.127405 
L 73.912166 271.055142 
L 73.914289 263.66219 
L 73.917473 226.834928 
L 73.918181 275.803008 
L 73.918535 272.54517 
L 73.919243 270.398364 
L 73.920127 269.643008 
L 73.921012 276.188036 
L 73.921719 257.27422 
L 73.923135 173.711124 
L 73.925966 259.07673 
L 73.927912 274.811169 
L 73.928089 266.575312 
L 73.929858 276.201601 
L 73.931627 252.065671 
L 73.932866 269.628228 
L 73.934458 218.579214 
L 73.937642 263.947121 
L 73.938704 244.595951 
L 73.939589 275.800382 
L 73.941535 263.220327 
L 73.944012 264.443667 
L 73.945781 203.466223 
L 73.947196 261.481852 
L 73.949319 270.808671 
L 73.951442 211.428029 
L 73.955158 264.012037 
L 73.956396 258.592257 
L 73.957104 250.480199 
L 73.959935 238.936886 
L 73.960996 258.057604 
L 73.961527 275.971932 
L 73.968427 153.129039 
L 73.968781 258.51023 
L 73.971258 215.470002 
L 73.972673 260.595092 
L 73.974089 235.79795 
L 73.975858 258.473495 
L 73.981165 215.622314 
L 73.982404 257.943414 
L 73.985412 212.69457 
L 73.988242 249.638193 
L 73.990189 271.302717 
L 73.991073 177.10674 
L 73.991781 258.788474 
L 74.002396 198.708173 
L 74.003812 258.770475 
L 74.007704 271.316386 
L 74.007704 254.918651 
L 74.007704 254.918651 
L 74.003812 253.812239 
L 74.002396 140.479148 
L 73.991781 257.500525 
L 73.991073 89.371784 
L 73.990189 254.502096 
L 73.988242 209.372922 
L 73.985412 201.284539 
L 73.982404 254.416528 
L 73.981165 208.99128 
L 73.975858 257.449922 
L 73.974089 211.353044 
L 73.972673 228.600577 
L 73.971258 202.146438 
L 73.968781 256.284718 
L 73.968427 90.702434 
L 73.961527 257.288375 
L 73.960996 254.322993 
L 73.959935 216.014563 
L 73.957104 218.1608 
L 73.956396 255.890072 
L 73.955158 255.479494 
L 73.951442 205.667781 
L 73.949319 255.624368 
L 73.947196 214.847024 
L 73.945781 137.215444 
L 73.944012 255.873013 
L 73.941535 255.102893 
L 73.939589 254.436592 
L 73.938704 185.124262 
L 73.937642 255.195596 
L 73.934458 172.752288 
L 73.932866 255.713428 
L 73.931627 222.484985 
L 73.929858 254.854696 
L 73.928089 256.394449 
L 73.927912 255.092369 
L 73.925966 221.261697 
L 73.923135 103.543036 
L 73.921719 228.87238 
L 73.921012 253.660872 
L 73.920127 254.97276 
L 73.919243 254.733459 
L 73.918535 256.221182 
L 73.918181 255.230016 
L 73.917473 198.173722 
L 73.914289 255.68225 
L 73.912166 256.499465 
L 73.911812 162.073587 
L 73.910573 255.211427 
L 73.910396 256.894972 
L 73.908981 213.342598 
L 73.906858 255.705196 
L 73.904204 256.241117 
L 73.903319 223.151378 
L 73.902612 256.787065 
L 73.901904 228.339212 
L 73.900666 254.586796 
L 73.900489 137.652822 
L 73.899427 257.111893 
L 73.896773 255.704182 
L 73.896243 242.816126 
L 73.894827 215.501683 
L 73.894473 254.496562 
L 73.893235 255.515342 
L 73.891996 213.641684 
L 73.890935 257.31106 
L 73.889873 258.069826 
L 73.889166 182.227934 
L 73.888281 254.477054 
L 73.887043 256.211641 
L 73.885627 256.595729 
L 73.885096 256.085117 
L 73.884566 255.772145 
L 73.883504 209.893161 
L 73.882089 238.102984 
L 73.881204 250.862643 
L 73.88032 258.130731 
L 73.879258 256.729939 
L 73.877843 133.779504 
L 73.877135 256.571143 
L 73.876781 250.848185 
L 73.875896 254.008849 
L 73.875543 253.187837 
L 73.875366 252.014716 
L 73.875012 224.64782 
L 73.87342 253.731442 
L 73.872358 254.280209 
L 73.872181 209.58091 
L 73.871473 254.963315 
L 73.870766 249.032619 
L 73.869704 257.277884 
L 73.867935 236.298089 
L 73.867581 254.319129 
L 73.867227 251.761061 
L 73.86652 180.738223 
L 73.865989 255.108578 
L 73.864396 257.233555 
L 73.863689 253.644317 
L 73.863512 251.329717 
L 73.862273 228.141034 
L 73.861743 250.975412 
L 73.861212 254.634328 
L 73.860858 222.384983 
L 73.859796 248.899784 
L 73.859089 252.691259 
L 73.858558 252.65382 
L 73.858027 229.844112 
L 73.85732 252.024428 
L 73.856435 252.138207 
L 73.855904 252.190704 
L 73.855196 167.814438 
L 73.854843 252.550497 
L 73.854666 251.707261 
L 73.853781 235.854378 
L 73.852366 216.880037 
L 73.852012 242.754556 
L 73.851658 255.184974 
L 73.851127 246.559502 
L 73.850243 243.363878 
L 73.850066 237.630255 
L 73.849889 252.15648 
L 73.849535 212.270453 
L 73.848473 247.325135 
L 73.84812 240.866837 
L 73.847412 243.971794 
L 73.846881 239.133649 
L 73.846704 220.219002 
L 73.84582 239.049581 
L 73.845289 233.450669 
L 73.844935 235.285784 
L 73.844227 236.866147 
L 73.843873 194.361157 
L 73.843696 229.40641 
L 73.843166 239.016472 
L 73.842458 228.417871 
L 73.842104 232.035957 
L 73.841396 225.327412 
L 73.84122 249.19244 
L 73.841043 220.894855 
L 73.840512 230.620545 
L 73.840335 227.777885 
L 73.839981 235.682472 
L 73.839627 220.753522 
L 73.83892 230.111817 
L 73.838743 238.99587 
L 73.838212 213.039885 
L 73.837858 231.442271 
L 73.837504 232.304512 
L 73.837327 225.147768 
L 73.836973 227.131328 
L 73.836796 224.285389 
L 73.836266 227.494812 
L 73.836089 227.376519 
L 73.835735 228.82286 
L 73.835381 215.740393 
L 73.835204 227.170332 
L 73.835027 226.866788 
L 73.834673 228.478572 
L 73.83432 227.879515 
L 73.834143 227.919816 
L 73.833966 220.315605 
L 73.833789 226.423986 
L 73.833612 229.298564 
L 73.833435 227.571316 
L 73.833258 228.991402 
L 73.833081 229.79132 
L 73.832904 230.139571 
L 73.832727 230.683737 
z
" clip-path="url(#p5090771afb)" style="fill: #1f77b4; fill-opacity: 0.2; stroke: #1f77b4; stroke-opacity: 0.2"/>
    <path d="M 74.010889 209.380676 
L 74.010889 213.414707 
L 74.013719 147.318599 
L 74.019381 215.415188 
L 74.023627 214.528256 
L 74.025219 275.98515 
L 74.030704 215.179618 
L 74.036365 185.986707 
L 74.040612 215.883975 
L 74.044858 215.834488 
L 74.050519 215.666735 
L 74.059012 176.320067 
L 74.061842 216.03008 
L 74.066088 217.040031 
L 74.070335 192.307727 
L 74.080242 213.499277 
L 74.081658 216.825668 
L 74.087319 215.989114 
L 74.100058 216.998132 
L 74.104304 124.135156 
L 74.109965 217.425383 
L 74.112796 216.380344 
L 74.115627 202.556937 
L 74.129781 216.955494 
L 74.138273 215.948087 
L 74.143934 216.447397 
L 74.149596 162.065475 
L 74.151011 217.004033 
L 74.159504 216.735379 
L 74.172242 171.304505 
L 74.172242 107.27536 
L 74.172242 107.27536 
L 74.159504 207.34043 
L 74.151011 210.597924 
L 74.149596 72.186199 
L 74.143934 210.102956 
L 74.138273 174.082909 
L 74.129781 214.558886 
L 74.115627 122.932563 
L 74.112796 208.127623 
L 74.109965 216.724284 
L 74.104304 63.996505 
L 74.100058 208.085547 
L 74.087319 212.242316 
L 74.081658 213.022825 
L 74.080242 211.266241 
L 74.070335 100.231411 
L 74.066088 215.413497 
L 74.061842 210.676847 
L 74.059012 103.505768 
L 74.050519 209.290795 
L 74.044858 211.623984 
L 74.040612 213.761883 
L 74.036365 118.905105 
L 74.030704 207.300289 
L 74.025219 253.500948 
L 74.023627 200.145655 
L 74.019381 213.50056 
L 74.013719 63.987191 
L 74.010889 209.380676 
z
" clip-path="url(#p5090771afb)" style="fill: #1f77b4; fill-opacity: 0.2; stroke: #1f77b4; stroke-opacity: 0.2"/>
    <path d="M 74.176488 205.801382 
L 74.176488 216.891024 
L 74.179319 218.109634 
L 74.186396 217.4363 
L 74.189227 217.354732 
L 74.194888 150.510886 
L 74.206211 216.56332 
L 74.214704 217.001318 
L 74.22178 216.201758 
L 74.228857 200.397311 
L 74.24018 152.99386 
L 74.248673 218.222938 
L 74.252919 216.734936 
L 74.257165 217.068636 
L 74.268488 218.214971 
L 74.278396 217.807932 
L 74.285473 150.208913 
L 74.291134 217.315325 
L 74.299626 216.778953 
L 74.308119 153.386799 
L 74.308119 75.980143 
L 74.308119 75.980143 
L 74.299626 213.813715 
L 74.291134 213.644054 
L 74.285473 80.519739 
L 74.278396 215.656039 
L 74.268488 214.692363 
L 74.257165 211.896377 
L 74.252919 210.503799 
L 74.248673 216.147466 
L 74.24018 83.142631 
L 74.228857 136.742637 
L 74.22178 214.276472 
L 74.214704 211.838352 
L 74.206211 214.116843 
L 74.194888 53.568 
L 74.189227 211.862445 
L 74.186396 214.390072 
L 74.179319 217.836406 
L 74.176488 205.801382 
z
" clip-path="url(#p5090771afb)" style="fill: #1f77b4; fill-opacity: 0.2; stroke: #1f77b4; stroke-opacity: 0.2"/>
    <path d="M 74.327934 214.414267 
L 74.327934 218.458251 
L 74.330765 217.756837 
L 74.342088 217.013239 
L 74.342088 133.350735 
L 74.342088 133.350735 
L 74.330765 89.808592 
L 74.327934 214.414267 
z
" clip-path="url(#p5090771afb)" style="fill: #1f77b4; fill-opacity: 0.2; stroke: #1f77b4; stroke-opacity: 0.2"/>
    <path d="M 74.367565 212.013094 
L 74.367565 217.010002 
L 74.376057 117.522771 
L 74.377473 218.712816 
L 74.38738 215.206511 
L 74.393042 218.990298 
L 74.398703 215.560172 
L 74.40578 218.544557 
L 74.427011 218.344257 
L 74.443995 174.076619 
L 74.455319 218.996863 
L 74.456734 215.748246 
L 74.466642 155.193968 
L 74.469472 215.09896 
L 74.486457 219.101193 
L 74.511934 136.059189 
L 74.511934 81.989218 
L 74.511934 81.989218 
L 74.486457 215.85137 
L 74.469472 210.698393 
L 74.466642 77.10825 
L 74.456734 210.661067 
L 74.455319 218.145582 
L 74.443995 85.540772 
L 74.427011 214.155349 
L 74.40578 214.795193 
L 74.398703 94.24573 
L 74.393042 217.999532 
L 74.38738 107.190963 
L 74.377473 215.200831 
L 74.376057 70.552287 
L 74.367565 212.013094 
z
" clip-path="url(#p5090771afb)" style="fill: #1f77b4; fill-opacity: 0.2; stroke: #1f77b4; stroke-opacity: 0.2"/>
    <path d="M 74.520426 208.287287 
L 74.520426 215.460265 
L 74.526088 215.341354 
L 74.533165 218.672024 
L 74.533165 209.853775 
L 74.533165 209.853775 
L 74.526088 214.414562 
L 74.520426 208.287287 
z
" clip-path="url(#p5090771afb)" style="fill: #1f77b4; fill-opacity: 0.2; stroke: #1f77b4; stroke-opacity: 0.2"/>
    <path d="M 74.545903 115.745538 
L 74.545903 215.840644 
L 74.557226 190.371586 
L 74.579872 199.519973 
L 74.595441 214.552061 
L 74.596857 215.311258 
L 74.611011 219.053835 
L 74.625164 187.825258 
L 74.635072 219.462202 
L 74.647811 152.145244 
L 74.673287 218.515493 
L 74.68178 186.502796 
L 74.68178 96.200875 
L 74.68178 96.200875 
L 74.673287 216.275523 
L 74.647811 105.375463 
L 74.635072 210.470162 
L 74.625164 90.696799 
L 74.611011 215.395351 
L 74.596857 212.653332 
L 74.595441 213.876662 
L 74.579872 83.707844 
L 74.557226 96.617316 
L 74.545903 115.745538 
z
" clip-path="url(#p5090771afb)" style="fill: #1f77b4; fill-opacity: 0.2; stroke: #1f77b4; stroke-opacity: 0.2"/>
    <path d="M 74.704426 213.838157 
L 74.704426 219.674795 
L 74.724241 219.460579 
L 74.738395 156.989295 
L 74.749718 212.951758 
L 74.766703 219.034361 
L 74.783687 129.849549 
L 74.81341 218.733839 
L 74.81341 213.881752 
L 74.81341 213.881752 
L 74.783687 77.558978 
L 74.766703 215.403317 
L 74.749718 129.253757 
L 74.738395 106.972906 
L 74.724241 214.213772 
L 74.704426 213.838157 
z
" clip-path="url(#p5090771afb)" style="fill: #1f77b4; fill-opacity: 0.2; stroke: #1f77b4; stroke-opacity: 0.2"/>
    <path d="M 74.828979 98.198923 
L 74.828979 191.951132 
L 74.851626 157.570366 
L 74.851626 106.572953 
L 74.851626 106.572953 
L 74.828979 98.198923 
z
" clip-path="url(#p5090771afb)" style="fill: #1f77b4; fill-opacity: 0.2; stroke: #1f77b4; stroke-opacity: 0.2"/>
    <path d="M 74.919564 106.580826 
L 74.919564 139.804239 
L 74.922395 218.521542 
L 74.94221 207.816661 
L 74.953533 218.568103 
L 74.964856 150.274499 
L 74.97901 218.587931 
L 75.021471 120.961665 
L 75.021471 89.929078 
L 75.021471 89.929078 
L 74.97901 213.523472 
L 74.964856 97.139082 
L 74.953533 127.565165 
L 74.94221 67.848876 
L 74.922395 214.837092 
L 74.919564 106.580826 
z
" clip-path="url(#p5090771afb)" style="fill: #1f77b4; fill-opacity: 0.2; stroke: #1f77b4; stroke-opacity: 0.2"/>
    <path d="M 75.055441 100.255677 
L 75.055441 115.923448 
L 75.078087 182.556445 
L 75.093656 218.662582 
L 75.100733 126.274094 
L 75.100733 94.102093 
L 75.100733 94.102093 
L 75.093656 211.00393 
L 75.078087 96.498643 
L 75.055441 100.255677 
z
" clip-path="url(#p5090771afb)" style="fill: #1f77b4; fill-opacity: 0.2; stroke: #1f77b4; stroke-opacity: 0.2"/>
    <path d="M 75.191317 111.105442 
L 75.191317 124.354438 
L 75.191317 111.105442 
L 75.191317 111.105442 
z
" clip-path="url(#p5090771afb)" style="fill: #1f77b4; fill-opacity: 0.2; stroke: #1f77b4; stroke-opacity: 0.2"/>
    <path d="M 75.233779 211.774634 
L 75.233779 218.810998 
L 75.233779 211.774634 
L 75.233779 211.774634 
z
" clip-path="url(#p5090771afb)" style="fill: #1f77b4; fill-opacity: 0.2; stroke: #1f77b4; stroke-opacity: 0.2"/>
    <path d="M 75.259256 99.037921 
L 75.259256 120.498463 
L 75.281902 272.020493 
L 75.327194 126.604061 
L 75.361163 128.861087 
L 75.361163 123.133991 
L 75.361163 123.133991 
L 75.327194 108.825601 
L 75.281902 146.681075 
L 75.259256 99.037921 
z
" clip-path="url(#p5090771afb)" style="fill: #1f77b4; fill-opacity: 0.2; stroke: #1f77b4; stroke-opacity: 0.2"/>
    <path d="M 75.417778 110.794377 
L 75.417778 127.109426 
L 75.463071 129.81971 
L 75.49704 128.730965 
L 75.531009 126.309353 
L 75.576301 117.67791 
L 75.64424 132.924229 
L 75.666886 129.04084 
L 75.700855 135.151606 
L 75.734824 129.253943 
L 75.814086 131.721722 
L 75.825409 128.42764 
L 75.870701 128.784125 
L 75.972608 131.821158 
L 76.006578 253.153793 
L 76.006578 143.17515 
L 76.006578 143.17515 
L 75.972608 112.528178 
L 75.870701 119.506016 
L 75.825409 116.368126 
L 75.814086 130.763358 
L 75.734824 112.839847 
L 75.700855 124.165236 
L 75.666886 122.465128 
L 75.64424 123.217346 
L 75.576301 104.963357 
L 75.531009 117.761473 
L 75.49704 100.708846 
L 75.463071 116.23773 
L 75.417778 110.794377 
z
" clip-path="url(#p5090771afb)" style="fill: #1f77b4; fill-opacity: 0.2; stroke: #1f77b4; stroke-opacity: 0.2"/>
    <path d="M 76.074516 118.324334 
L 76.074516 129.561744 
L 76.097162 132.088822 
L 76.210393 128.323677 
L 76.278331 133.62532 
L 76.323623 134.806653 
L 76.368915 132.494786 
L 76.380238 130.833288 
L 76.448177 134.167203 
L 76.550084 132.049925 
L 76.550084 124.912094 
L 76.550084 124.912094 
L 76.448177 118.80387 
L 76.380238 130.44528 
L 76.368915 131.43138 
L 76.323623 123.801055 
L 76.278331 125.36297 
L 76.210393 119.195836 
L 76.097162 126.155994 
L 76.074516 118.324334 
z
" clip-path="url(#p5090771afb)" style="fill: #1f77b4; fill-opacity: 0.2; stroke: #1f77b4; stroke-opacity: 0.2"/>
    <path d="M 76.663315 131.704313 
L 76.663315 139.550329 
L 76.685961 129.202106 
L 76.731253 295.488 
L 76.821838 130.788792 
L 76.889776 132.080371 
L 76.946391 141.408635 
L 77.003007 132.382515 
L 77.093591 127.307434 
L 77.093591 123.392466 
L 77.093591 123.392466 
L 77.003007 129.308403 
L 76.946391 131.478295 
L 76.889776 125.065301 
L 76.821838 124.700465 
L 76.731253 224.468833 
L 76.685961 121.133981 
L 76.663315 131.704313 
z
" clip-path="url(#p5090771afb)" style="fill: #1f77b4; fill-opacity: 0.2; stroke: #1f77b4; stroke-opacity: 0.2"/>
    <path d="M 77.195499 132.345485 
L 77.195499 132.518982 
L 77.229468 132.660671 
L 77.320052 131.976066 
L 77.399314 133.481182 
L 77.455929 267.695362 
L 77.501221 136.142058 
L 77.56916 135.902025 
L 77.637098 125.00196 
L 77.795621 130.647693 
L 77.818267 129.824468 
L 77.908851 134.394981 
L 77.908851 126.957096 
L 77.908851 126.957096 
L 77.818267 128.946361 
L 77.795621 124.777122 
L 77.637098 124.255451 
L 77.56916 126.652788 
L 77.501221 124.130345 
L 77.455929 157.884106 
L 77.399314 130.041634 
L 77.320052 129.877284 
L 77.229468 126.661673 
L 77.195499 132.345485 
z
" clip-path="url(#p5090771afb)" style="fill: #1f77b4; fill-opacity: 0.2; stroke: #1f77b4; stroke-opacity: 0.2"/>
    <path d="M 78.112666 125.569366 
L 78.112666 128.510553 
L 78.180605 295.290956 
L 78.191928 140.236941 
L 78.316481 136.109447 
L 78.361774 133.229493 
L 78.361774 125.58766 
L 78.361774 125.58766 
L 78.316481 126.98375 
L 78.191928 130.151692 
L 78.180605 238.552238 
L 78.112666 125.569366 
z
" clip-path="url(#p5090771afb)" style="fill: #1f77b4; fill-opacity: 0.2; stroke: #1f77b4; stroke-opacity: 0.2"/>
    <path d="M 78.588235 126.107856 
L 78.588235 126.533337 
L 78.724111 130.335812 
L 78.814696 134.39986 
L 78.90528 294.08674 
L 78.927927 133.903121 
L 79.063803 126.835186 
L 79.267618 127.755487 
L 79.267618 127.063269 
L 79.267618 127.063269 
L 79.063803 126.05622 
L 78.927927 126.297581 
L 78.90528 293.945222 
L 78.814696 131.553979 
L 78.724111 126.369872 
L 78.588235 126.107856 
z
" clip-path="url(#p5090771afb)" style="fill: #1f77b4; fill-opacity: 0.2; stroke: #1f77b4; stroke-opacity: 0.2"/>
    <path d="M 79.437464 134.163072 
L 79.437464 134.302342 
L 79.437464 134.163072 
L 79.437464 134.163072 
z
" clip-path="url(#p5090771afb)" style="fill: #1f77b4; fill-opacity: 0.2; stroke: #1f77b4; stroke-opacity: 0.2"/>
    <path d="M 79.629956 294.423435 
L 79.629956 295.194126 
L 79.811125 127.327351 
L 79.947002 131.778079 
L 80.060232 135.143566 
L 80.354632 294.865169 
L 80.558447 127.800632 
L 80.558447 127.380757 
L 80.558447 127.380757 
L 80.354632 294.831001 
L 80.060232 134.591503 
L 79.947002 127.923083 
L 79.811125 125.848791 
L 79.629956 294.423435 
z
" clip-path="url(#p5090771afb)" style="fill: #1f77b4; fill-opacity: 0.2; stroke: #1f77b4; stroke-opacity: 0.2"/>
    <path d="M 81.079308 294.601043 
L 81.079308 294.661204 
L 81.305769 128.480751 
L 81.305769 128.355645 
L 81.305769 128.355645 
L 81.079308 294.601043 
z
" clip-path="url(#p5090771afb)" style="fill: #1f77b4; fill-opacity: 0.2; stroke: #1f77b4; stroke-opacity: 0.2"/>
    <path d="M 82.528659 294.361996 
L 82.528659 294.7875 
L 83.97801 294.142436 
L 84.702686 293.941591 
L 85.427362 294.902915 
L 86.876713 294.479535 
L 88.326065 294.121897 
L 89.05074 292.853112 
L 91.224768 294.193152 
L 91.949443 292.547914 
L 91.949443 292.141966 
L 91.949443 292.141966 
L 91.224768 293.16837 
L 89.05074 292.67527 
L 88.326065 293.250034 
L 86.876713 293.589711 
L 85.427362 293.976634 
L 84.702686 293.832038 
L 83.97801 294.021156 
L 82.528659 294.361996 
z
" clip-path="url(#p5090771afb)" style="fill: #1f77b4; fill-opacity: 0.2; stroke: #1f77b4; stroke-opacity: 0.2"/>
    <path d="M 94.12347 291.886862 
L 94.12347 293.445806 
L 95.572822 293.656799 
L 97.022173 294.609074 
L 99.196201 290.667264 
L 99.920876 293.444632 
L 102.819579 293.212896 
L 104.268931 292.981322 
L 105.718282 293.112103 
L 106.442958 292.827545 
L 108.616985 293.889205 
L 108.616985 292.20661 
L 108.616985 292.20661 
L 106.442958 292.653959 
L 105.718282 292.803202 
L 104.268931 290.528744 
L 102.819579 291.431147 
L 99.920876 292.520283 
L 99.196201 290.618158 
L 97.022173 293.045307 
L 95.572822 292.116524 
L 94.12347 291.886862 
z
" clip-path="url(#p5090771afb)" style="fill: #1f77b4; fill-opacity: 0.2; stroke: #1f77b4; stroke-opacity: 0.2"/>
    <path d="M 110.066336 292.042353 
L 110.066336 292.325377 
L 112.965039 291.960458 
L 114.414391 292.8757 
L 117.313094 291.614415 
L 119.487121 291.132379 
L 120.211796 294.326545 
L 121.661148 291.249607 
L 124.559851 290.857683 
L 126.009202 292.473218 
L 128.183229 290.160471 
L 131.806608 292.374602 
L 132.531284 290.016923 
L 134.705311 289.858678 
L 137.604014 289.492833 
L 139.053365 289.259241 
L 143.401419 293.505205 
L 143.401419 291.064227 
L 143.401419 291.064227 
L 139.053365 288.954001 
L 137.604014 289.317167 
L 134.705311 289.461269 
L 132.531284 289.783293 
L 131.806608 290.143897 
L 128.183229 289.995354 
L 126.009202 290.64968 
L 124.559851 290.730703 
L 121.661148 291.017341 
L 120.211796 292.003389 
L 119.487121 291.063157 
L 117.313094 291.378933 
L 114.414391 289.9147 
L 112.965039 291.750998 
L 110.066336 292.042353 
z
" clip-path="url(#p5090771afb)" style="fill: #1f77b4; fill-opacity: 0.2; stroke: #1f77b4; stroke-opacity: 0.2"/>
    <path d="M 145.575447 288.518447 
L 145.575447 288.923568 
L 146.300122 288.730361 
L 149.923501 288.966795 
L 152.097528 289.349993 
L 153.54688 288.828115 
L 154.996231 293.246966 
L 160.793637 290.447182 
L 160.793637 288.009018 
L 160.793637 288.009018 
L 154.996231 288.924642 
L 153.54688 288.173105 
L 152.097528 288.461411 
L 149.923501 288.56264 
L 146.300122 288.390758 
L 145.575447 288.518447 
z
" clip-path="url(#p5090771afb)" style="fill: #1f77b4; fill-opacity: 0.2; stroke: #1f77b4; stroke-opacity: 0.2"/>
    <path d="M 165.141691 286.719788 
L 165.141691 287.677045 
L 166.591042 294.007402 
L 169.489745 287.154993 
L 171.663772 286.844762 
L 175.287151 286.566921 
L 178.185854 292.222444 
L 178.185854 288.12741 
L 178.185854 288.12741 
L 175.287151 286.103736 
L 171.663772 286.173818 
L 169.489745 286.796322 
L 166.591042 290.688212 
L 165.141691 286.719788 
z
" clip-path="url(#p5090771afb)" style="fill: #1f77b4; fill-opacity: 0.2; stroke: #1f77b4; stroke-opacity: 0.2"/>
    <path d="M 182.533908 285.226867 
L 182.533908 286.030494 
L 185.432611 285.328404 
L 189.780665 290.850786 
L 191.230017 285.51928 
L 193.404044 285.269421 
L 195.578071 291.814019 
L 200.650801 283.68576 
L 201.375477 283.762801 
L 204.27418 284.657279 
L 210.796261 283.128681 
L 212.970289 293.436492 
L 212.970289 290.171257 
L 212.970289 290.171257 
L 210.796261 283.005699 
L 204.27418 283.149865 
L 201.375477 283.070974 
L 200.650801 283.494412 
L 195.578071 286.126975 
L 193.404044 284.442625 
L 191.230017 284.633148 
L 189.780665 286.506531 
L 185.432611 284.931279 
L 182.533908 285.226867 
z
" clip-path="url(#p5090771afb)" style="fill: #1f77b4; fill-opacity: 0.2; stroke: #1f77b4; stroke-opacity: 0.2"/>
    <path d="M 217.318343 282.221621 
L 217.318343 284.916113 
L 218.767694 287.420733 
L 226.014451 282.725212 
L 230.362506 289.533467 
L 233.261209 282.921818 
L 236.159912 292.715253 
L 236.159912 286.298375 
L 236.159912 286.298375 
L 233.261209 281.955865 
L 230.362506 282.381281 
L 226.014451 282.147273 
L 218.767694 281.927392 
L 217.318343 282.221621 
z
" clip-path="url(#p5090771afb)" style="fill: #1f77b4; fill-opacity: 0.2; stroke: #1f77b4; stroke-opacity: 0.2"/>
    <path d="M 241.232642 282.037067 
L 241.232642 282.811459 
L 247.754723 291.354813 
L 247.754723 284.89755 
L 247.754723 284.89755 
L 241.232642 282.037067 
z
" clip-path="url(#p5090771afb)" style="fill: #1f77b4; fill-opacity: 0.2; stroke: #1f77b4; stroke-opacity: 0.2"/>
    <path d="M 256.450832 281.465294 
L 256.450832 281.47031 
L 259.349535 294.159772 
L 265.14694 281.53948 
L 269.494995 284.135996 
L 269.494995 279.640802 
L 269.494995 279.640802 
L 265.14694 280.64884 
L 259.349535 289.885749 
L 256.450832 281.465294 
z
" clip-path="url(#p5090771afb)" style="fill: #1f77b4; fill-opacity: 0.2; stroke: #1f77b4; stroke-opacity: 0.2"/>
    <path d="M 276.741752 279.909451 
L 276.741752 288.699218 
L 282.539158 293.158666 
L 289.061239 279.139608 
L 291.235266 280.443078 
L 297.032672 278.851893 
L 297.032672 278.479405 
L 297.032672 278.479405 
L 291.235266 278.520655 
L 289.061239 278.381474 
L 282.539158 287.29481 
L 276.741752 279.909451 
z
" clip-path="url(#p5090771afb)" style="fill: #1f77b4; fill-opacity: 0.2; stroke: #1f77b4; stroke-opacity: 0.2"/>
    <path d="M 305.728781 285.658648 
L 305.728781 292.573289 
L 305.728781 285.658648 
L 305.728781 285.658648 
z
" clip-path="url(#p5090771afb)" style="fill: #1f77b4; fill-opacity: 0.2; stroke: #1f77b4; stroke-opacity: 0.2"/>
    <path d="M 312.975538 278.36914 
L 312.975538 283.138182 
L 317.323592 292.942106 
L 317.323592 290.644561 
L 317.323592 290.644561 
L 312.975538 278.36914 
z
" clip-path="url(#p5090771afb)" style="fill: #1f77b4; fill-opacity: 0.2; stroke: #1f77b4; stroke-opacity: 0.2"/>
    <path d="M 328.918404 277.559945 
L 328.918404 292.867216 
L 334.715809 292.809074 
L 334.715809 276.496539 
L 334.715809 276.496539 
L 328.918404 277.559945 
z
" clip-path="url(#p5090771afb)" style="fill: #1f77b4; fill-opacity: 0.2; stroke: #1f77b4; stroke-opacity: 0.2"/>
    <path d="M 352.108027 291.327385 
L 352.108027 292.686068 
L 352.108027 291.327385 
L 352.108027 291.327385 
z
" clip-path="url(#p5090771afb)" style="fill: #1f77b4; fill-opacity: 0.2; stroke: #1f77b4; stroke-opacity: 0.2"/>
    <path d="M 360.804135 275.907254 
L 360.804135 277.542079 
L 363.702838 292.5308 
L 386.892461 291.97888 
L 392.689867 274.497473 
L 398.487273 292.020303 
L 398.487273 289.344338 
L 398.487273 289.344338 
L 392.689867 274.09663 
L 386.892461 291.785089 
L 363.702838 275.075295 
L 360.804135 275.907254 
z
" clip-path="url(#p5090771afb)" style="fill: #1f77b4; fill-opacity: 0.2; stroke: #1f77b4; stroke-opacity: 0.2"/>
   </g>
   <g id="matplotlib.axis_1">
    <g id="xtick_1">
     <g id="line2d_1">
      <defs>
       <path id="m05da48471d" d="M 0 0 
L 0 3.5 
" style="stroke: #000000; stroke-width: 0.8"/>
      </defs>
      <g>
       <use xlink:href="#m05da48471d" x="73.83255" y="307.584" style="stroke: #000000; stroke-width: 0.8"/>
      </g>
     </g>
     <g id="text_1">
      <!-- 0 -->
      <g transform="translate(70.6513 322.182437)scale(0.1 -0.1)">
       <defs>
        <path id="DejaVuSans-30" d="M 2034 4250 
Q 1547 4250 1301 3770 
Q 1056 3291 1056 2328 
Q 1056 1369 1301 889 
Q 1547 409 2034 409 
Q 2525 409 2770 889 
Q 3016 1369 3016 2328 
Q 3016 3291 2770 3770 
Q 2525 4250 2034 4250 
z
M 2034 4750 
Q 2819 4750 3233 4129 
Q 3647 3509 3647 2328 
Q 3647 1150 3233 529 
Q 2819 -91 2034 -91 
Q 1250 -91 836 529 
Q 422 1150 422 2328 
Q 422 3509 836 4129 
Q 1250 4750 2034 4750 
z
" transform="scale(0.015625)"/>
       </defs>
       <use xlink:href="#DejaVuSans-30"/>
      </g>
     </g>
    </g>
    <g id="xtick_2">
     <g id="line2d_2">
      <g>
       <use xlink:href="#m05da48471d" x="142.943012" y="307.584" style="stroke: #000000; stroke-width: 0.8"/>
      </g>
     </g>
     <g id="text_2">
      <!-- 2 -->
      <g transform="translate(139.761762 322.182437)scale(0.1 -0.1)">
       <defs>
        <path id="DejaVuSans-32" d="M 1228 531 
L 3431 531 
L 3431 0 
L 469 0 
L 469 531 
Q 828 903 1448 1529 
Q 2069 2156 2228 2338 
Q 2531 2678 2651 2914 
Q 2772 3150 2772 3378 
Q 2772 3750 2511 3984 
Q 2250 4219 1831 4219 
Q 1534 4219 1204 4116 
Q 875 4013 500 3803 
L 500 4441 
Q 881 4594 1212 4672 
Q 1544 4750 1819 4750 
Q 2544 4750 2975 4387 
Q 3406 4025 3406 3419 
Q 3406 3131 3298 2873 
Q 3191 2616 2906 2266 
Q 2828 2175 2409 1742 
Q 1991 1309 1228 531 
z
" transform="scale(0.015625)"/>
       </defs>
       <use xlink:href="#DejaVuSans-32"/>
      </g>
     </g>
    </g>
    <g id="xtick_3">
     <g id="line2d_3">
      <g>
       <use xlink:href="#m05da48471d" x="212.053475" y="307.584" style="stroke: #000000; stroke-width: 0.8"/>
      </g>
     </g>
     <g id="text_3">
      <!-- 4 -->
      <g transform="translate(208.872225 322.182437)scale(0.1 -0.1)">
       <defs>
        <path id="DejaVuSans-34" d="M 2419 4116 
L 825 1625 
L 2419 1625 
L 2419 4116 
z
M 2253 4666 
L 3047 4666 
L 3047 1625 
L 3713 1625 
L 3713 1100 
L 3047 1100 
L 3047 0 
L 2419 0 
L 2419 1100 
L 313 1100 
L 313 1709 
L 2253 4666 
z
" transform="scale(0.015625)"/>
       </defs>
       <use xlink:href="#DejaVuSans-34"/>
      </g>
     </g>
    </g>
    <g id="xtick_4">
     <g id="line2d_4">
      <g>
       <use xlink:href="#m05da48471d" x="281.163937" y="307.584" style="stroke: #000000; stroke-width: 0.8"/>
      </g>
     </g>
     <g id="text_4">
      <!-- 6 -->
      <g transform="translate(277.982687 322.182437)scale(0.1 -0.1)">
       <defs>
        <path id="DejaVuSans-36" d="M 2113 2584 
Q 1688 2584 1439 2293 
Q 1191 2003 1191 1497 
Q 1191 994 1439 701 
Q 1688 409 2113 409 
Q 2538 409 2786 701 
Q 3034 994 3034 1497 
Q 3034 2003 2786 2293 
Q 2538 2584 2113 2584 
z
M 3366 4563 
L 3366 3988 
Q 3128 4100 2886 4159 
Q 2644 4219 2406 4219 
Q 1781 4219 1451 3797 
Q 1122 3375 1075 2522 
Q 1259 2794 1537 2939 
Q 1816 3084 2150 3084 
Q 2853 3084 3261 2657 
Q 3669 2231 3669 1497 
Q 3669 778 3244 343 
Q 2819 -91 2113 -91 
Q 1303 -91 875 529 
Q 447 1150 447 2328 
Q 447 3434 972 4092 
Q 1497 4750 2381 4750 
Q 2619 4750 2861 4703 
Q 3103 4656 3366 4563 
z
" transform="scale(0.015625)"/>
       </defs>
       <use xlink:href="#DejaVuSans-36"/>
      </g>
     </g>
    </g>
    <g id="xtick_5">
     <g id="line2d_5">
      <g>
       <use xlink:href="#m05da48471d" x="350.274399" y="307.584" style="stroke: #000000; stroke-width: 0.8"/>
      </g>
     </g>
     <g id="text_5">
      <!-- 8 -->
      <g transform="translate(347.093149 322.182437)scale(0.1 -0.1)">
       <defs>
        <path id="DejaVuSans-38" d="M 2034 2216 
Q 1584 2216 1326 1975 
Q 1069 1734 1069 1313 
Q 1069 891 1326 650 
Q 1584 409 2034 409 
Q 2484 409 2743 651 
Q 3003 894 3003 1313 
Q 3003 1734 2745 1975 
Q 2488 2216 2034 2216 
z
M 1403 2484 
Q 997 2584 770 2862 
Q 544 3141 544 3541 
Q 544 4100 942 4425 
Q 1341 4750 2034 4750 
Q 2731 4750 3128 4425 
Q 3525 4100 3525 3541 
Q 3525 3141 3298 2862 
Q 3072 2584 2669 2484 
Q 3125 2378 3379 2068 
Q 3634 1759 3634 1313 
Q 3634 634 3220 271 
Q 2806 -91 2034 -91 
Q 1263 -91 848 271 
Q 434 634 434 1313 
Q 434 1759 690 2068 
Q 947 2378 1403 2484 
z
M 1172 3481 
Q 1172 3119 1398 2916 
Q 1625 2713 2034 2713 
Q 2441 2713 2670 2916 
Q 2900 3119 2900 3481 
Q 2900 3844 2670 4047 
Q 2441 4250 2034 4250 
Q 1625 4250 1398 4047 
Q 1172 3844 1172 3481 
z
" transform="scale(0.015625)"/>
       </defs>
       <use xlink:href="#DejaVuSans-38"/>
      </g>
     </g>
    </g>
    <g id="text_6">
     <!-- Global Problem Size -->
     <g transform="translate(186.327969 335.860562)scale(0.1 -0.1)">
      <defs>
       <path id="DejaVuSans-47" d="M 3809 666 
L 3809 1919 
L 2778 1919 
L 2778 2438 
L 4434 2438 
L 4434 434 
Q 4069 175 3628 42 
Q 3188 -91 2688 -91 
Q 1594 -91 976 548 
Q 359 1188 359 2328 
Q 359 3472 976 4111 
Q 1594 4750 2688 4750 
Q 3144 4750 3555 4637 
Q 3966 4525 4313 4306 
L 4313 3634 
Q 3963 3931 3569 4081 
Q 3175 4231 2741 4231 
Q 1884 4231 1454 3753 
Q 1025 3275 1025 2328 
Q 1025 1384 1454 906 
Q 1884 428 2741 428 
Q 3075 428 3337 486 
Q 3600 544 3809 666 
z
" transform="scale(0.015625)"/>
       <path id="DejaVuSans-6c" d="M 603 4863 
L 1178 4863 
L 1178 0 
L 603 0 
L 603 4863 
z
" transform="scale(0.015625)"/>
       <path id="DejaVuSans-6f" d="M 1959 3097 
Q 1497 3097 1228 2736 
Q 959 2375 959 1747 
Q 959 1119 1226 758 
Q 1494 397 1959 397 
Q 2419 397 2687 759 
Q 2956 1122 2956 1747 
Q 2956 2369 2687 2733 
Q 2419 3097 1959 3097 
z
M 1959 3584 
Q 2709 3584 3137 3096 
Q 3566 2609 3566 1747 
Q 3566 888 3137 398 
Q 2709 -91 1959 -91 
Q 1206 -91 779 398 
Q 353 888 353 1747 
Q 353 2609 779 3096 
Q 1206 3584 1959 3584 
z
" transform="scale(0.015625)"/>
       <path id="DejaVuSans-62" d="M 3116 1747 
Q 3116 2381 2855 2742 
Q 2594 3103 2138 3103 
Q 1681 3103 1420 2742 
Q 1159 2381 1159 1747 
Q 1159 1113 1420 752 
Q 1681 391 2138 391 
Q 2594 391 2855 752 
Q 3116 1113 3116 1747 
z
M 1159 2969 
Q 1341 3281 1617 3432 
Q 1894 3584 2278 3584 
Q 2916 3584 3314 3078 
Q 3713 2572 3713 1747 
Q 3713 922 3314 415 
Q 2916 -91 2278 -91 
Q 1894 -91 1617 61 
Q 1341 213 1159 525 
L 1159 0 
L 581 0 
L 581 4863 
L 1159 4863 
L 1159 2969 
z
" transform="scale(0.015625)"/>
       <path id="DejaVuSans-61" d="M 2194 1759 
Q 1497 1759 1228 1600 
Q 959 1441 959 1056 
Q 959 750 1161 570 
Q 1363 391 1709 391 
Q 2188 391 2477 730 
Q 2766 1069 2766 1631 
L 2766 1759 
L 2194 1759 
z
M 3341 1997 
L 3341 0 
L 2766 0 
L 2766 531 
Q 2569 213 2275 61 
Q 1981 -91 1556 -91 
Q 1019 -91 701 211 
Q 384 513 384 1019 
Q 384 1609 779 1909 
Q 1175 2209 1959 2209 
L 2766 2209 
L 2766 2266 
Q 2766 2663 2505 2880 
Q 2244 3097 1772 3097 
Q 1472 3097 1187 3025 
Q 903 2953 641 2809 
L 641 3341 
Q 956 3463 1253 3523 
Q 1550 3584 1831 3584 
Q 2591 3584 2966 3190 
Q 3341 2797 3341 1997 
z
" transform="scale(0.015625)"/>
       <path id="DejaVuSans-20" transform="scale(0.015625)"/>
       <path id="DejaVuSans-50" d="M 1259 4147 
L 1259 2394 
L 2053 2394 
Q 2494 2394 2734 2622 
Q 2975 2850 2975 3272 
Q 2975 3691 2734 3919 
Q 2494 4147 2053 4147 
L 1259 4147 
z
M 628 4666 
L 2053 4666 
Q 2838 4666 3239 4311 
Q 3641 3956 3641 3272 
Q 3641 2581 3239 2228 
Q 2838 1875 2053 1875 
L 1259 1875 
L 1259 0 
L 628 0 
L 628 4666 
z
" transform="scale(0.015625)"/>
       <path id="DejaVuSans-72" d="M 2631 2963 
Q 2534 3019 2420 3045 
Q 2306 3072 2169 3072 
Q 1681 3072 1420 2755 
Q 1159 2438 1159 1844 
L 1159 0 
L 581 0 
L 581 3500 
L 1159 3500 
L 1159 2956 
Q 1341 3275 1631 3429 
Q 1922 3584 2338 3584 
Q 2397 3584 2469 3576 
Q 2541 3569 2628 3553 
L 2631 2963 
z
" transform="scale(0.015625)"/>
       <path id="DejaVuSans-65" d="M 3597 1894 
L 3597 1613 
L 953 1613 
Q 991 1019 1311 708 
Q 1631 397 2203 397 
Q 2534 397 2845 478 
Q 3156 559 3463 722 
L 3463 178 
Q 3153 47 2828 -22 
Q 2503 -91 2169 -91 
Q 1331 -91 842 396 
Q 353 884 353 1716 
Q 353 2575 817 3079 
Q 1281 3584 2069 3584 
Q 2775 3584 3186 3129 
Q 3597 2675 3597 1894 
z
M 3022 2063 
Q 3016 2534 2758 2815 
Q 2500 3097 2075 3097 
Q 1594 3097 1305 2825 
Q 1016 2553 972 2059 
L 3022 2063 
z
" transform="scale(0.015625)"/>
       <path id="DejaVuSans-6d" d="M 3328 2828 
Q 3544 3216 3844 3400 
Q 4144 3584 4550 3584 
Q 5097 3584 5394 3201 
Q 5691 2819 5691 2113 
L 5691 0 
L 5113 0 
L 5113 2094 
Q 5113 2597 4934 2840 
Q 4756 3084 4391 3084 
Q 3944 3084 3684 2787 
Q 3425 2491 3425 1978 
L 3425 0 
L 2847 0 
L 2847 2094 
Q 2847 2600 2669 2842 
Q 2491 3084 2119 3084 
Q 1678 3084 1418 2786 
Q 1159 2488 1159 1978 
L 1159 0 
L 581 0 
L 581 3500 
L 1159 3500 
L 1159 2956 
Q 1356 3278 1631 3431 
Q 1906 3584 2284 3584 
Q 2666 3584 2933 3390 
Q 3200 3197 3328 2828 
z
" transform="scale(0.015625)"/>
       <path id="DejaVuSans-53" d="M 3425 4513 
L 3425 3897 
Q 3066 4069 2747 4153 
Q 2428 4238 2131 4238 
Q 1616 4238 1336 4038 
Q 1056 3838 1056 3469 
Q 1056 3159 1242 3001 
Q 1428 2844 1947 2747 
L 2328 2669 
Q 3034 2534 3370 2195 
Q 3706 1856 3706 1288 
Q 3706 609 3251 259 
Q 2797 -91 1919 -91 
Q 1588 -91 1214 -16 
Q 841 59 441 206 
L 441 856 
Q 825 641 1194 531 
Q 1563 422 1919 422 
Q 2459 422 2753 634 
Q 3047 847 3047 1241 
Q 3047 1584 2836 1778 
Q 2625 1972 2144 2069 
L 1759 2144 
Q 1053 2284 737 2584 
Q 422 2884 422 3419 
Q 422 4038 858 4394 
Q 1294 4750 2059 4750 
Q 2388 4750 2728 4690 
Q 3069 4631 3425 4513 
z
" transform="scale(0.015625)"/>
       <path id="DejaVuSans-69" d="M 603 3500 
L 1178 3500 
L 1178 0 
L 603 0 
L 603 3500 
z
M 603 4863 
L 1178 4863 
L 1178 4134 
L 603 4134 
L 603 4863 
z
" transform="scale(0.015625)"/>
       <path id="DejaVuSans-7a" d="M 353 3500 
L 3084 3500 
L 3084 2975 
L 922 459 
L 3084 459 
L 3084 0 
L 275 0 
L 275 525 
L 2438 3041 
L 353 3041 
L 353 3500 
z
" transform="scale(0.015625)"/>
      </defs>
      <use xlink:href="#DejaVuSans-47"/>
      <use xlink:href="#DejaVuSans-6c" x="77.490234"/>
      <use xlink:href="#DejaVuSans-6f" x="105.273438"/>
      <use xlink:href="#DejaVuSans-62" x="166.455078"/>
      <use xlink:href="#DejaVuSans-61" x="229.931641"/>
      <use xlink:href="#DejaVuSans-6c" x="291.210938"/>
      <use xlink:href="#DejaVuSans-20" x="318.994141"/>
      <use xlink:href="#DejaVuSans-50" x="350.78125"/>
      <use xlink:href="#DejaVuSans-72" x="409.333984"/>
      <use xlink:href="#DejaVuSans-6f" x="448.197266"/>
      <use xlink:href="#DejaVuSans-62" x="509.378906"/>
      <use xlink:href="#DejaVuSans-6c" x="572.855469"/>
      <use xlink:href="#DejaVuSans-65" x="600.638672"/>
      <use xlink:href="#DejaVuSans-6d" x="662.162109"/>
      <use xlink:href="#DejaVuSans-20" x="759.574219"/>
      <use xlink:href="#DejaVuSans-53" x="791.361328"/>
      <use xlink:href="#DejaVuSans-69" x="854.837891"/>
      <use xlink:href="#DejaVuSans-7a" x="882.621094"/>
      <use xlink:href="#DejaVuSans-65" x="935.111328"/>
     </g>
    </g>
    <g id="text_7">
     <!-- 1e8 -->
     <g transform="translate(395.841875 334.860562)scale(0.1 -0.1)">
      <defs>
       <path id="DejaVuSans-31" d="M 794 531 
L 1825 531 
L 1825 4091 
L 703 3866 
L 703 4441 
L 1819 4666 
L 2450 4666 
L 2450 531 
L 3481 531 
L 3481 0 
L 794 0 
L 794 531 
z
" transform="scale(0.015625)"/>
      </defs>
      <use xlink:href="#DejaVuSans-31"/>
      <use xlink:href="#DejaVuSans-65" x="63.623047"/>
      <use xlink:href="#DejaVuSans-38" x="125.146484"/>
     </g>
    </g>
   </g>
   <g id="matplotlib.axis_2">
    <g id="ytick_1">
     <g id="line2d_6">
      <defs>
       <path id="mad9873d8d8" d="M 0 0 
L -3.5 0 
" style="stroke: #000000; stroke-width: 0.8"/>
      </defs>
      <g>
       <use xlink:href="#mad9873d8d8" x="57.6" y="296.249064" style="stroke: #000000; stroke-width: 0.8"/>
      </g>
     </g>
     <g id="text_8">
      <!-- 0 -->
      <g transform="translate(44.2375 300.048283)scale(0.1 -0.1)">
       <use xlink:href="#DejaVuSans-30"/>
      </g>
     </g>
    </g>
    <g id="ytick_2">
     <g id="line2d_7">
      <g>
       <use xlink:href="#mad9873d8d8" x="57.6" y="237.236493" style="stroke: #000000; stroke-width: 0.8"/>
      </g>
     </g>
     <g id="text_9">
      <!-- 2 -->
      <g transform="translate(44.2375 241.035712)scale(0.1 -0.1)">
       <use xlink:href="#DejaVuSans-32"/>
      </g>
     </g>
    </g>
    <g id="ytick_3">
     <g id="line2d_8">
      <g>
       <use xlink:href="#mad9873d8d8" x="57.6" y="178.223923" style="stroke: #000000; stroke-width: 0.8"/>
      </g>
     </g>
     <g id="text_10">
      <!-- 4 -->
      <g transform="translate(44.2375 182.023141)scale(0.1 -0.1)">
       <use xlink:href="#DejaVuSans-34"/>
      </g>
     </g>
    </g>
    <g id="ytick_4">
     <g id="line2d_9">
      <g>
       <use xlink:href="#mad9873d8d8" x="57.6" y="119.211352" style="stroke: #000000; stroke-width: 0.8"/>
      </g>
     </g>
     <g id="text_11">
      <!-- 6 -->
      <g transform="translate(44.2375 123.010571)scale(0.1 -0.1)">
       <use xlink:href="#DejaVuSans-36"/>
      </g>
     </g>
    </g>
    <g id="ytick_5">
     <g id="line2d_10">
      <g>
       <use xlink:href="#mad9873d8d8" x="57.6" y="60.198781" style="stroke: #000000; stroke-width: 0.8"/>
      </g>
     </g>
     <g id="text_12">
      <!-- 8 -->
      <g transform="translate(44.2375 63.998)scale(0.1 -0.1)">
       <use xlink:href="#DejaVuSans-38"/>
      </g>
     </g>
    </g>
    <g id="text_13">
     <!-- GFLOPS -->
     <g transform="translate(38.157812 194.007688)rotate(-90)scale(0.1 -0.1)">
      <defs>
       <path id="DejaVuSans-46" d="M 628 4666 
L 3309 4666 
L 3309 4134 
L 1259 4134 
L 1259 2759 
L 3109 2759 
L 3109 2228 
L 1259 2228 
L 1259 0 
L 628 0 
L 628 4666 
z
" transform="scale(0.015625)"/>
       <path id="DejaVuSans-4c" d="M 628 4666 
L 1259 4666 
L 1259 531 
L 3531 531 
L 3531 0 
L 628 0 
L 628 4666 
z
" transform="scale(0.015625)"/>
       <path id="DejaVuSans-4f" d="M 2522 4238 
Q 1834 4238 1429 3725 
Q 1025 3213 1025 2328 
Q 1025 1447 1429 934 
Q 1834 422 2522 422 
Q 3209 422 3611 934 
Q 4013 1447 4013 2328 
Q 4013 3213 3611 3725 
Q 3209 4238 2522 4238 
z
M 2522 4750 
Q 3503 4750 4090 4092 
Q 4678 3434 4678 2328 
Q 4678 1225 4090 567 
Q 3503 -91 2522 -91 
Q 1538 -91 948 565 
Q 359 1222 359 2328 
Q 359 3434 948 4092 
Q 1538 4750 2522 4750 
z
" transform="scale(0.015625)"/>
      </defs>
      <use xlink:href="#DejaVuSans-47"/>
      <use xlink:href="#DejaVuSans-46" x="77.490234"/>
      <use xlink:href="#DejaVuSans-4c" x="135.009766"/>
      <use xlink:href="#DejaVuSans-4f" x="187.097656"/>
      <use xlink:href="#DejaVuSans-50" x="265.808594"/>
      <use xlink:href="#DejaVuSans-53" x="326.111328"/>
     </g>
    </g>
   </g>
   <g id="line2d_11">
    <path d="M 73.832727 231.477309 
L 73.923135 139.072314 
L 73.896773 265.757519 
L 73.938704 214.860107 
L 73.961527 266.630153 
L 74.013719 102.529605 
L 74.044858 213.917887 
L 74.050519 212.461762 
L 74.104304 91.58995 
L 74.109965 216.959774 
L 74.159504 212.92324 
L 74.194888 98.286836 
L 74.179319 218.006264 
L 74.268488 216.544178 
L 74.278396 216.948267 
L 74.376057 93.494028 
L 74.377473 217.378985 
L 74.38738 165.958101 
L 74.455319 218.578735 
L 74.466642 114.632727 
L 74.486457 217.527475 
L 74.511934 106.479227 
L 74.517595 217.958857 
L 74.596857 213.719295 
L 74.611011 217.224593 
L 74.647811 127.397461 
L 74.673287 217.577931 
L 74.704426 216.756476 
L 74.724241 217.376698 
L 74.783687 101.412364 
L 74.823318 218.322964 
L 74.828979 144.773355 
L 74.851626 131.175948 
L 74.864364 218.297884 
L 74.919564 123.350923 
L 74.953533 175.179641 
L 75.021471 108.371097 
L 74.97901 216.055701 
L 75.055441 108.424525 
L 75.093656 214.833256 
L 75.106394 213.753916 
L 75.191317 118.428099 
L 75.20264 213.849516 
L 75.233779 215.292816 
L 75.259256 110.639407 
L 75.327194 118.583643 
L 75.361163 125.353897 
L 75.373902 213.991737 
L 75.417778 118.991235 
L 75.463071 123.413986 
L 75.576301 109.687903 
L 75.700855 129.56319 
L 75.734824 121.393089 
L 75.814086 131.24254 
L 75.825409 122.397883 
L 75.972608 125.074054 
L 76.006578 189.883039 
L 76.074516 123.943039 
L 76.097162 129.668253 
L 76.210393 123.996007 
L 76.368915 131.963083 
L 76.380238 130.639284 
L 76.57273 121.59782 
L 76.731253 271.710944 
L 76.821838 127.515306 
L 76.889776 128.631332 
L 76.946391 136.443465 
L 77.003007 130.752883 
L 77.161529 123.031236 
L 77.195499 132.432233 
L 77.229468 130.352453 
L 77.399314 131.761408 
L 77.455929 212.896808 
L 77.501221 129.012455 
L 77.56916 131.052913 
L 77.637098 124.628706 
L 77.908851 130.939953 
L 77.94282 126.508256 
L 78.112666 127.03996 
L 78.180605 276.268395 
L 78.191928 135.194317 
L 78.361774 129.809321 
L 78.418389 134.279917 
L 78.588235 126.320596 
L 78.724111 128.352842 
L 78.814696 132.976919 
L 78.90528 294.015981 
L 78.927927 130.100351 
L 79.063803 126.445703 
L 79.267618 127.409378 
L 79.31291 128.859907 
L 79.437464 134.232707 
L 79.494079 134.802473 
L 79.629956 294.84918 
L 79.811125 126.588071 
L 80.060232 134.867534 
L 80.354632 294.843253 
L 80.558447 127.590694 
L 80.626385 127.824827 
L 80.683001 134.408564 
L 81.079308 294.62872 
L 81.305769 128.418198 
L 82.053091 128.352694 
L 82.528659 294.561694 
L 84.702686 293.885934 
L 85.427362 294.458902 
L 88.326065 293.630801 
L 89.05074 292.751913 
L 91.224768 293.677382 
L 91.949443 292.379088 
L 93.398795 294.149583 
L 94.12347 292.655208 
L 95.572822 292.889343 
L 97.022173 293.887635 
L 99.196201 290.639912 
L 99.920876 293.12293 
L 102.819579 292.36846 
L 104.268931 291.758409 
L 105.718282 292.957653 
L 106.442958 292.76448 
L 108.616985 293.077786 
L 109.341661 289.222526 
L 110.066336 292.158509 
L 112.965039 291.855824 
L 114.414391 291.463922 
L 117.313094 291.498864 
L 119.487121 291.097768 
L 120.211796 293.242805 
L 121.661148 291.149655 
L 124.559851 290.791139 
L 126.009202 291.491356 
L 128.183229 290.090512 
L 131.806608 291.15851 
L 132.531284 289.900108 
L 139.053365 289.114008 
L 143.401419 292.373089 
L 144.850771 289.043452 
L 145.575447 288.721007 
L 146.300122 288.555826 
L 152.097528 288.835458 
L 153.54688 288.486482 
L 154.996231 291.073721 
L 160.793637 289.075987 
L 164.417015 287.342002 
L 165.141691 287.131548 
L 166.591042 292.463131 
L 169.489745 286.97305 
L 171.663772 286.448945 
L 175.287151 286.348505 
L 178.185854 290.083798 
L 180.359881 285.202147 
L 182.533908 285.581981 
L 185.432611 285.129842 
L 189.780665 288.580823 
L 191.230017 285.139308 
L 193.404044 284.884512 
L 195.578071 288.85716 
L 200.650801 283.590086 
L 201.375477 283.435878 
L 204.27418 283.77731 
L 210.796261 283.06719 
L 212.970289 292.016403 
L 215.868991 282.38645 
L 217.318343 283.305387 
L 218.767694 284.044325 
L 226.014451 282.480288 
L 230.362506 284.92412 
L 233.261209 282.510176 
L 236.159912 289.921867 
L 236.884587 282.177516 
L 241.232642 282.424263 
L 247.754723 288.024769 
L 249.204074 280.725955 
L 251.378102 281.741414 
L 255.00148 281.452665 
L 256.450832 281.467802 
L 259.349535 292.464395 
L 265.14694 281.039909 
L 269.494995 281.527473 
L 273.118373 279.974695 
L 276.741752 284.29343 
L 282.539158 290.673959 
L 289.061239 278.760541 
L 291.235266 279.481867 
L 297.032672 278.665649 
L 302.105402 278.98529 
L 305.728781 289.635014 
L 308.627483 278.789369 
L 312.975538 280.039589 
L 317.323592 291.838971 
L 327.469052 276.880548 
L 328.918404 285.21358 
L 334.715809 284.652806 
L 336.889837 282.899299 
L 352.108027 292.132968 
L 352.832702 275.712601 
L 357.905432 289.339902 
L 360.804135 276.724666 
L 363.702838 283.803047 
L 386.892461 291.884848 
L 392.689867 274.297052 
L 398.487273 290.716498 
L 398.487273 290.716498 
" clip-path="url(#p5090771afb)" style="fill: none; stroke: #1f77b4; stroke-width: 1.5; stroke-linecap: square"/>
   </g>
   <g id="line2d_12"/>
   <g id="patch_3">
    <path d="M 57.6 307.584 
L 57.6 41.472 
" style="fill: none; stroke: #000000; stroke-width: 0.8; stroke-linejoin: miter; stroke-linecap: square"/>
   </g>
   <g id="patch_4">
    <path d="M 414.72 307.584 
L 414.72 41.472 
" style="fill: none; stroke: #000000; stroke-width: 0.8; stroke-linejoin: miter; stroke-linecap: square"/>
   </g>
   <g id="patch_5">
    <path d="M 57.6 307.584 
L 414.72 307.584 
" style="fill: none; stroke: #000000; stroke-width: 0.8; stroke-linejoin: miter; stroke-linecap: square"/>
   </g>
   <g id="patch_6">
    <path d="M 57.6 41.472 
L 414.72 41.472 
" style="fill: none; stroke: #000000; stroke-width: 0.8; stroke-linejoin: miter; stroke-linecap: square"/>
   </g>
   <g id="text_14">
    <!-- Gustafson-like Scaling -->
    <g transform="translate(169.757812 35.472)scale(0.12 -0.12)">
     <defs>
      <path id="DejaVuSans-75" d="M 544 1381 
L 544 3500 
L 1119 3500 
L 1119 1403 
Q 1119 906 1312 657 
Q 1506 409 1894 409 
Q 2359 409 2629 706 
Q 2900 1003 2900 1516 
L 2900 3500 
L 3475 3500 
L 3475 0 
L 2900 0 
L 2900 538 
Q 2691 219 2414 64 
Q 2138 -91 1772 -91 
Q 1169 -91 856 284 
Q 544 659 544 1381 
z
M 1991 3584 
L 1991 3584 
z
" transform="scale(0.015625)"/>
      <path id="DejaVuSans-73" d="M 2834 3397 
L 2834 2853 
Q 2591 2978 2328 3040 
Q 2066 3103 1784 3103 
Q 1356 3103 1142 2972 
Q 928 2841 928 2578 
Q 928 2378 1081 2264 
Q 1234 2150 1697 2047 
L 1894 2003 
Q 2506 1872 2764 1633 
Q 3022 1394 3022 966 
Q 3022 478 2636 193 
Q 2250 -91 1575 -91 
Q 1294 -91 989 -36 
Q 684 19 347 128 
L 347 722 
Q 666 556 975 473 
Q 1284 391 1588 391 
Q 1994 391 2212 530 
Q 2431 669 2431 922 
Q 2431 1156 2273 1281 
Q 2116 1406 1581 1522 
L 1381 1569 
Q 847 1681 609 1914 
Q 372 2147 372 2553 
Q 372 3047 722 3315 
Q 1072 3584 1716 3584 
Q 2034 3584 2315 3537 
Q 2597 3491 2834 3397 
z
" transform="scale(0.015625)"/>
      <path id="DejaVuSans-74" d="M 1172 4494 
L 1172 3500 
L 2356 3500 
L 2356 3053 
L 1172 3053 
L 1172 1153 
Q 1172 725 1289 603 
Q 1406 481 1766 481 
L 2356 481 
L 2356 0 
L 1766 0 
Q 1100 0 847 248 
Q 594 497 594 1153 
L 594 3053 
L 172 3053 
L 172 3500 
L 594 3500 
L 594 4494 
L 1172 4494 
z
" transform="scale(0.015625)"/>
      <path id="DejaVuSans-66" d="M 2375 4863 
L 2375 4384 
L 1825 4384 
Q 1516 4384 1395 4259 
Q 1275 4134 1275 3809 
L 1275 3500 
L 2222 3500 
L 2222 3053 
L 1275 3053 
L 1275 0 
L 697 0 
L 697 3053 
L 147 3053 
L 147 3500 
L 697 3500 
L 697 3744 
Q 697 4328 969 4595 
Q 1241 4863 1831 4863 
L 2375 4863 
z
" transform="scale(0.015625)"/>
      <path id="DejaVuSans-6e" d="M 3513 2113 
L 3513 0 
L 2938 0 
L 2938 2094 
Q 2938 2591 2744 2837 
Q 2550 3084 2163 3084 
Q 1697 3084 1428 2787 
Q 1159 2491 1159 1978 
L 1159 0 
L 581 0 
L 581 3500 
L 1159 3500 
L 1159 2956 
Q 1366 3272 1645 3428 
Q 1925 3584 2291 3584 
Q 2894 3584 3203 3211 
Q 3513 2838 3513 2113 
z
" transform="scale(0.015625)"/>
      <path id="DejaVuSans-2d" d="M 313 2009 
L 1997 2009 
L 1997 1497 
L 313 1497 
L 313 2009 
z
" transform="scale(0.015625)"/>
      <path id="DejaVuSans-6b" d="M 581 4863 
L 1159 4863 
L 1159 1991 
L 2875 3500 
L 3609 3500 
L 1753 1863 
L 3688 0 
L 2938 0 
L 1159 1709 
L 1159 0 
L 581 0 
L 581 4863 
z
" transform="scale(0.015625)"/>
      <path id="DejaVuSans-63" d="M 3122 3366 
L 3122 2828 
Q 2878 2963 2633 3030 
Q 2388 3097 2138 3097 
Q 1578 3097 1268 2742 
Q 959 2388 959 1747 
Q 959 1106 1268 751 
Q 1578 397 2138 397 
Q 2388 397 2633 464 
Q 2878 531 3122 666 
L 3122 134 
Q 2881 22 2623 -34 
Q 2366 -91 2075 -91 
Q 1284 -91 818 406 
Q 353 903 353 1747 
Q 353 2603 823 3093 
Q 1294 3584 2113 3584 
Q 2378 3584 2631 3529 
Q 2884 3475 3122 3366 
z
" transform="scale(0.015625)"/>
      <path id="DejaVuSans-67" d="M 2906 1791 
Q 2906 2416 2648 2759 
Q 2391 3103 1925 3103 
Q 1463 3103 1205 2759 
Q 947 2416 947 1791 
Q 947 1169 1205 825 
Q 1463 481 1925 481 
Q 2391 481 2648 825 
Q 2906 1169 2906 1791 
z
M 3481 434 
Q 3481 -459 3084 -895 
Q 2688 -1331 1869 -1331 
Q 1566 -1331 1297 -1286 
Q 1028 -1241 775 -1147 
L 775 -588 
Q 1028 -725 1275 -790 
Q 1522 -856 1778 -856 
Q 2344 -856 2625 -561 
Q 2906 -266 2906 331 
L 2906 616 
Q 2728 306 2450 153 
Q 2172 0 1784 0 
Q 1141 0 747 490 
Q 353 981 353 1791 
Q 353 2603 747 3093 
Q 1141 3584 1784 3584 
Q 2172 3584 2450 3431 
Q 2728 3278 2906 2969 
L 2906 3500 
L 3481 3500 
L 3481 434 
z
" transform="scale(0.015625)"/>
     </defs>
     <use xlink:href="#DejaVuSans-47"/>
     <use xlink:href="#DejaVuSans-75" x="77.490234"/>
     <use xlink:href="#DejaVuSans-73" x="140.869141"/>
     <use xlink:href="#DejaVuSans-74" x="192.96875"/>
     <use xlink:href="#DejaVuSans-61" x="232.177734"/>
     <use xlink:href="#DejaVuSans-66" x="293.457031"/>
     <use xlink:href="#DejaVuSans-73" x="328.662109"/>
     <use xlink:href="#DejaVuSans-6f" x="380.761719"/>
     <use xlink:href="#DejaVuSans-6e" x="441.943359"/>
     <use xlink:href="#DejaVuSans-2d" x="505.322266"/>
     <use xlink:href="#DejaVuSans-6c" x="541.40625"/>
     <use xlink:href="#DejaVuSans-69" x="569.189453"/>
     <use xlink:href="#DejaVuSans-6b" x="596.972656"/>
     <use xlink:href="#DejaVuSans-65" x="651.257812"/>
     <use xlink:href="#DejaVuSans-20" x="712.78125"/>
     <use xlink:href="#DejaVuSans-53" x="744.568359"/>
     <use xlink:href="#DejaVuSans-63" x="808.044922"/>
     <use xlink:href="#DejaVuSans-61" x="863.025391"/>
     <use xlink:href="#DejaVuSans-6c" x="924.304688"/>
     <use xlink:href="#DejaVuSans-69" x="952.087891"/>
     <use xlink:href="#DejaVuSans-6e" x="979.871094"/>
     <use xlink:href="#DejaVuSans-67" x="1043.25"/>
    </g>
   </g>
   <g id="legend_1">
    <g id="patch_7">
     <path d="M 339.12 78.82825 
L 407.72 78.82825 
Q 409.72 78.82825 409.72 76.82825 
L 409.72 48.472 
Q 409.72 46.472 407.72 46.472 
L 339.12 46.472 
Q 337.12 46.472 337.12 48.472 
L 337.12 76.82825 
Q 337.12 78.82825 339.12 78.82825 
z
" style="fill: #ffffff; opacity: 0.8; stroke: #cccccc; stroke-linejoin: miter"/>
    </g>
    <g id="text_15">
     <!-- Cluster -->
     <g transform="translate(355.673906 58.070437)scale(0.1 -0.1)">
      <defs>
       <path id="DejaVuSans-43" d="M 4122 4306 
L 4122 3641 
Q 3803 3938 3442 4084 
Q 3081 4231 2675 4231 
Q 1875 4231 1450 3742 
Q 1025 3253 1025 2328 
Q 1025 1406 1450 917 
Q 1875 428 2675 428 
Q 3081 428 3442 575 
Q 3803 722 4122 1019 
L 4122 359 
Q 3791 134 3420 21 
Q 3050 -91 2638 -91 
Q 1578 -91 968 557 
Q 359 1206 359 2328 
Q 359 3453 968 4101 
Q 1578 4750 2638 4750 
Q 3056 4750 3426 4639 
Q 3797 4528 4122 4306 
z
" transform="scale(0.015625)"/>
      </defs>
      <use xlink:href="#DejaVuSans-43"/>
      <use xlink:href="#DejaVuSans-6c" x="69.824219"/>
      <use xlink:href="#DejaVuSans-75" x="97.607422"/>
      <use xlink:href="#DejaVuSans-73" x="160.986328"/>
      <use xlink:href="#DejaVuSans-74" x="213.085938"/>
      <use xlink:href="#DejaVuSans-65" x="252.294922"/>
      <use xlink:href="#DejaVuSans-72" x="313.818359"/>
     </g>
    </g>
    <g id="line2d_13">
     <path d="M 341.12 69.248562 
L 351.12 69.248562 
L 361.12 69.248562 
" style="fill: none; stroke: #1f77b4; stroke-width: 1.5; stroke-linecap: square"/>
    </g>
    <g id="text_16">
     <!-- Hopper -->
     <g transform="translate(369.12 72.748562)scale(0.1 -0.1)">
      <defs>
       <path id="DejaVuSans-48" d="M 628 4666 
L 1259 4666 
L 1259 2753 
L 3553 2753 
L 3553 4666 
L 4184 4666 
L 4184 0 
L 3553 0 
L 3553 2222 
L 1259 2222 
L 1259 0 
L 628 0 
L 628 4666 
z
" transform="scale(0.015625)"/>
       <path id="DejaVuSans-70" d="M 1159 525 
L 1159 -1331 
L 581 -1331 
L 581 3500 
L 1159 3500 
L 1159 2969 
Q 1341 3281 1617 3432 
Q 1894 3584 2278 3584 
Q 2916 3584 3314 3078 
Q 3713 2572 3713 1747 
Q 3713 922 3314 415 
Q 2916 -91 2278 -91 
Q 1894 -91 1617 61 
Q 1341 213 1159 525 
z
M 3116 1747 
Q 3116 2381 2855 2742 
Q 2594 3103 2138 3103 
Q 1681 3103 1420 2742 
Q 1159 2381 1159 1747 
Q 1159 1113 1420 752 
Q 1681 391 2138 391 
Q 2594 391 2855 752 
Q 3116 1113 3116 1747 
z
" transform="scale(0.015625)"/>
      </defs>
      <use xlink:href="#DejaVuSans-48"/>
      <use xlink:href="#DejaVuSans-6f" x="75.195312"/>
      <use xlink:href="#DejaVuSans-70" x="136.376953"/>
      <use xlink:href="#DejaVuSans-70" x="199.853516"/>
      <use xlink:href="#DejaVuSans-65" x="263.330078"/>
      <use xlink:href="#DejaVuSans-72" x="324.853516"/>
     </g>
    </g>
   </g>
  </g>
 </g>
 <defs>
  <clipPath id="p5090771afb">
   <rect x="57.6" y="41.472" width="357.12" height="266.112"/>
  </clipPath>
 </defs>
</svg>
