<?xml version="1.0" encoding="utf-8" standalone="no"?>
<!DOCTYPE svg PUBLIC "-//W3C//DTD SVG 1.1//EN"
  "http://www.w3.org/Graphics/SVG/1.1/DTD/svg11.dtd">
<svg xmlns:xlink="http://www.w3.org/1999/xlink" width="460.8pt" height="345.6pt" viewBox="0 0 460.8 345.6" xmlns="http://www.w3.org/2000/svg" version="1.1">
 <metadata>
  <rdf:RDF xmlns:dc="http://purl.org/dc/elements/1.1/" xmlns:cc="http://creativecommons.org/ns#" xmlns:rdf="http://www.w3.org/1999/02/22-rdf-syntax-ns#">
   <cc:Work>
    <dc:type rdf:resource="http://purl.org/dc/dcmitype/StillImage"/>
    <dc:date>2024-05-02T16:25:00.475330</dc:date>
    <dc:format>image/svg+xml</dc:format>
    <dc:creator>
     <cc:Agent>
      <dc:title>Matplotlib v3.5.3, https://matplotlib.org/</dc:title>
     </cc:Agent>
    </dc:creator>
   </cc:Work>
  </rdf:RDF>
 </metadata>
 <defs>
  <style type="text/css">*{stroke-linejoin: round; stroke-linecap: butt}</style>
 </defs>
 <g id="figure_1">
  <g id="patch_1">
   <path d="M 0 345.6 
L 460.8 345.6 
L 460.8 0 
L 0 0 
z
" style="fill: #ffffff"/>
  </g>
  <g id="axes_1">
   <g id="patch_2">
    <path d="M 57.6 307.584 
L 414.72 307.584 
L 414.72 41.472 
L 57.6 41.472 
z
" style="fill: #ffffff"/>
   </g>
   <g id="PolyCollection_1">
    <path d="M 73.832727 226.012526 
L 73.832727 240.84371 
L 73.832727 239.278732 
L 73.832727 247.825843 
L 73.832727 272.904013 
L 73.832727 265.999118 
L 73.832727 295.464246 
L 73.832727 151.494481 
L 73.832727 295.488 
L 73.832727 295.44722 
L 73.832727 295.44722 
L 73.832727 147.474211 
L 73.832727 67.175358 
L 73.832727 185.312757 
L 73.832727 186.428982 
L 73.832727 228.527834 
L 73.832727 225.663877 
L 73.832727 226.012526 
z
" clip-path="url(#p123e135dca)" style="fill: #1f77b4; fill-opacity: 0.2; stroke: #1f77b4; stroke-opacity: 0.2"/>
    <path d="M 73.832727 291.733278 
L 73.832727 295.469355 
L 73.832727 294.062001 
L 73.832727 294.159536 
L 81.17577 263.426674 
L 81.175823 263.698142 
L 81.176324 262.083574 
L 81.176398 273.350333 
L 81.177113 268.16064 
L 81.17722 271.780836 
L 81.178291 274.385833 
L 81.178456 271.318886 
L 81.180164 275.639504 
L 81.180438 276.943232 
L 81.183412 275.780958 
L 81.183914 276.465926 
L 81.189807 253.028249 
L 81.190879 265.297519 
L 81.205303 236.780092 
L 81.208288 238.763447 
L 81.262016 239.400543 
L 81.262016 237.430693 
L 81.276586 236.716633 
L 86.558039 278.532784 
L 86.558039 263.670677 
L 86.56056 266.697396 
L 86.564096 264.333882 
L 86.56928 268.270505 
L 86.57733 274.741893 
L 86.590849 275.562994 
L 86.590849 276.432982 
L 86.616302 269.859964 
L 86.673961 240.069244 
L 86.862404 235.991109 
L 88.530366 272.557887 
L 88.531096 278.519255 
L 88.534097 263.169574 
L 88.5351 263.418918 
L 88.539304 269.418281 
L 88.540736 272.083203 
L 88.546887 275.014872 
L 88.549031 269.497602 
L 88.558551 276.355767 
L 88.561974 271.433562 
L 88.577879 273.314621 
L 88.583848 274.095729 
L 88.613521 268.211496 
L 88.625371 273.947038 
L 88.691304 236.800298 
L 88.691304 237.879762 
L 88.720445 240.523631 
L 88.924528 237.905443 
L 89.034772 239.299209 
L 93.295797 266.794047 
L 93.298494 263.590572 
L 93.306035 269.088989 
L 93.309814 263.429344 
L 93.309814 269.123252 
L 93.320673 274.05235 
L 93.320673 271.948012 
L 93.326205 268.981873 
L 93.342684 272.325254 
L 93.351253 271.243216 
L 93.378113 271.977024 
L 93.392445 266.220643 
L 93.44098 267.825803 
L 93.467771 274.583708 
L 93.571236 237.189589 
L 93.631015 243.40403 
L 93.936354 234.659022 
L 94.123636 238.53941 
L 95.914706 263.333599 
L 95.919063 263.682629 
L 95.929443 272.328073 
L 95.935554 263.529031 
L 95.950456 274.605414 
L 95.959408 271.897342 
L 95.981924 274.13787 
L 95.99581 272.303306 
L 96.032253 273.68172 
L 96.055536 260.844439 
L 96.120592 271.840637 
L 96.164304 275.893432 
L 96.299682 234.419416 
L 96.398111 251.723755 
L 96.773271 236.54324 
L 97.08986 244.494331 
L 99.370018 266.783856 
L 99.399878 266.552934 
L 99.444368 260.737423 
L 99.444368 273.893238 
L 99.515195 269.426327 
L 99.639223 273.279953 
L 99.639223 273.40315 
L 99.892081 252.27752 
L 100.41453 266.770637 
L 100.428865 263.458334 
L 100.444795 261.173533 
L 100.465379 269.599684 
L 100.489159 274.139667 
L 100.520273 268.138202 
L 100.558241 270.773196 
L 100.586098 242.270311 
L 100.608628 263.800319 
L 100.675439 269.918357 
L 100.765487 272.014936 
L 100.902947 240.171477 
L 101.090765 253.076669 
L 101.476217 233.195787 
L 102.000536 241.657806 
L 103.214981 148.979174 
L 103.214981 145.364007 
L 103.214981 145.364007 
L 102.000536 228.923401 
L 101.476217 226.875241 
L 101.090765 236.485518 
L 100.902947 228.213007 
L 100.765487 258.727998 
L 100.675439 257.678897 
L 100.608628 256.013941 
L 100.586098 228.558823 
L 100.558241 259.037258 
L 100.520273 258.338769 
L 100.489159 262.412185 
L 100.465379 255.855962 
L 100.444795 254.913786 
L 100.428865 255.792127 
L 100.41453 256.535974 
L 99.892081 234.851157 
L 99.639223 254.17745 
L 99.639223 256.607803 
L 99.515195 258.34864 
L 99.444368 258.791135 
L 99.444368 253.002555 
L 99.399878 255.384861 
L 99.370018 256.216489 
L 97.08986 226.438427 
L 96.773271 228.646984 
L 96.398111 230.137728 
L 96.299682 224.843469 
L 96.164304 260.942298 
L 96.120592 242.747242 
L 96.055536 251.950952 
L 96.032253 256.366872 
L 95.99581 258.274948 
L 95.981924 258.93516 
L 95.959408 256.035964 
L 95.950456 260.120324 
L 95.935554 256.644295 
L 95.929443 254.240881 
L 95.919063 256.394316 
L 95.914706 255.693903 
L 94.123636 228.547831 
L 93.936354 228.571263 
L 93.631015 229.316893 
L 93.571236 227.946269 
L 93.467771 261.348986 
L 93.44098 254.243184 
L 93.392445 255.051606 
L 93.378113 259.658093 
L 93.351253 259.956063 
L 93.342684 260.386314 
L 93.326205 258.310162 
L 93.320673 252.931986 
L 93.320673 260.350753 
L 93.309814 255.582412 
L 93.309814 256.669471 
L 93.306035 256.700136 
L 93.298494 256.148469 
L 93.295797 256.312973 
L 89.034772 227.591312 
L 88.924528 229.210559 
L 88.720445 225.752727 
L 88.691304 227.681165 
L 88.691304 223.225624 
L 88.625371 258.260801 
L 88.613521 239.447673 
L 88.583848 257.026396 
L 88.577879 253.542004 
L 88.561974 255.21203 
L 88.558551 257.170511 
L 88.549031 258.526389 
L 88.546887 259.741356 
L 88.540736 256.786154 
L 88.539304 256.268534 
L 88.5351 255.341249 
L 88.534097 253.384771 
L 88.531096 253.539006 
L 88.530366 254.510951 
L 86.862404 229.124786 
L 86.673961 228.502904 
L 86.616302 255.153914 
L 86.590849 253.249101 
L 86.590849 261.837579 
L 86.57733 261.849635 
L 86.56928 258.598694 
L 86.564096 257.499983 
L 86.56056 256.119001 
L 86.558039 255.385243 
L 86.558039 254.931567 
L 81.276586 229.796662 
L 81.262016 228.211057 
L 81.262016 226.830872 
L 81.208288 227.327375 
L 81.205303 228.181419 
L 81.190879 242.685341 
L 81.189807 232.586037 
L 81.183914 260.882876 
L 81.183412 256.198838 
L 81.180438 260.92003 
L 81.180164 260.61277 
L 81.178456 256.590256 
L 81.178291 259.076615 
L 81.17722 257.352787 
L 81.177113 255.772334 
L 81.176398 256.127425 
L 81.176324 256.75077 
L 81.175823 254.430082 
L 81.17577 255.065839 
L 73.832727 291.522817 
L 73.832727 288.307262 
L 73.832727 291.733278 
z
" clip-path="url(#p123e135dca)" style="fill: #1f77b4; fill-opacity: 0.2; stroke: #1f77b4; stroke-opacity: 0.2"/>
    <path d="M 103.222475 133.942513 
L 103.222475 148.206094 
L 103.223571 153.671311 
L 103.235467 220.683869 
L 103.237473 147.333073 
L 103.261046 70.277341 
L 103.265335 99.998707 
L 103.323032 79.186834 
L 103.334968 70.505705 
L 103.352725 277.507449 
L 103.369212 262.969819 
L 103.394314 272.419991 
L 103.418016 261.220726 
L 103.455225 277.142486 
L 103.491113 269.277792 
L 103.54988 278.012379 
L 103.54988 261.11376 
L 103.608163 251.115275 
L 103.709721 259.037504 
L 103.814387 272.607671 
L 104.01633 234.044848 
L 104.236816 258.484689 
L 104.758862 235.644018 
L 105.391257 251.855908 
L 106.068124 278.062095 
L 106.068124 272.848993 
L 106.086768 266.110005 
L 106.139091 270.481302 
L 106.139091 277.892539 
L 106.166658 269.566283 
L 106.248851 269.314393 
L 106.292224 265.897474 
L 106.433906 271.799098 
L 106.508401 273.852967 
L 106.508401 273.435668 
L 106.791943 256.928069 
L 106.938449 256.156439 
L 107.700063 245.369688 
L 107.733077 266.247211 
L 107.781404 271.985356 
L 107.807622 273.828297 
L 107.879174 272.467551 
L 107.920664 272.446753 
L 108.033473 268.032424 
L 108.07036 253.177971 
L 108.105825 265.368864 
L 108.105825 278.004038 
L 108.30023 270.220324 
L 108.447931 243.016071 
L 108.832661 255.577423 
L 109.245635 233.834801 
L 110.232064 254.52679 
L 110.880314 272.496841 
L 110.92943 263.068234 
L 110.979169 277.913906 
L 111.052022 278.694114 
L 111.129165 273.620975 
L 111.244356 271.874065 
L 111.374645 270.853836 
L 111.574135 272.179402 
L 111.825561 236.74486 
L 111.825561 238.65274 
L 112.22424 263.733532 
L 112.467203 278.455985 
L 112.467203 269.564916 
L 112.637338 272.638046 
L 112.848114 236.880912 
L 112.848114 237.328892 
L 112.921758 272.349103 
L 113.153054 271.929638 
L 113.230842 272.475435 
L 113.309745 271.997163 
L 113.429303 269.809775 
L 113.465929 270.032321 
L 113.465929 263.424933 
L 113.565685 273.18948 
L 113.764723 270.884555 
L 113.764723 277.30271 
L 113.897053 259.481368 
L 114.03998 255.082973 
L 114.414545 260.805975 
L 114.820943 253.487112 
L 115.168693 244.087023 
L 115.231777 274.357658 
L 115.364253 278.651353 
L 115.39739 274.912571 
L 115.601557 275.323859 
L 115.661061 272.173711 
L 116.00245 273.903053 
L 116.052162 271.965169 
L 116.052162 258.336751 
L 116.129588 250.185724 
L 116.777155 262.020844 
L 117.159202 232.959407 
L 118.552479 278.232949 
L 118.679857 278.360011 
L 118.713404 257.933124 
L 118.766637 278.035368 
L 118.963495 278.552823 
L 119.108131 272.345379 
L 119.389457 272.205255 
L 119.43886 271.888653 
L 119.471294 269.705879 
L 119.713814 237.58286 
L 119.749213 274.086911 
L 119.881659 270.892078 
L 120.346992 262.603963 
L 120.414191 265.043439 
L 120.572196 272.461674 
L 120.653749 266.081325 
L 120.80238 272.310803 
L 120.906733 277.301654 
L 121.018603 236.532721 
L 121.018603 236.469705 
L 121.280008 272.279978 
L 121.504996 265.43401 
L 121.991929 253.831015 
L 122.182465 268.109404 
L 122.522996 255.269255 
L 122.575116 257.954971 
L 122.856752 248.456546 
L 122.958703 275.440617 
L 123.28448 278.470149 
L 123.308894 277.013663 
L 123.839882 272.241335 
L 123.911712 252.146646 
L 124.369175 254.999849 
L 124.778939 148.393006 
L 124.811138 151.227845 
L 124.865213 155.394339 
L 124.865213 145.200999 
L 124.884128 271.719839 
L 124.884128 271.824501 
L 124.967028 143.294069 
L 125.175584 232.556087 
L 125.175584 237.5377 
L 125.197663 67.890254 
L 125.951435 78.590494 
L 126.441704 271.307207 
L 126.458249 278.088835 
L 126.763347 278.362274 
L 126.85019 271.579259 
L 126.903265 275.896022 
L 126.903265 277.853516 
L 127.17087 278.27782 
L 127.17087 272.762756 
L 127.339468 260.468779 
L 127.388481 259.667873 
L 127.402751 278.73081 
L 127.640653 265.602887 
L 127.66997 232.932227 
L 128.202693 269.78766 
L 128.392251 277.71426 
L 128.392251 272.021988 
L 128.592559 267.231499 
L 128.987867 274.651799 
L 129.119707 264.685126 
L 129.2546 233.418839 
L 130.168345 273.149712 
L 131.031226 275.911629 
L 131.400752 258.557917 
L 131.773413 254.620775 
L 131.793635 278.645457 
L 132.689364 147.055628 
L 132.689364 146.966877 
L 132.689364 146.966877 
L 131.793635 253.752366 
L 131.773413 233.512569 
L 131.400752 249.546564 
L 131.031226 256.602699 
L 130.168345 260.927753 
L 129.2546 224.012722 
L 129.119707 245.019106 
L 128.987867 259.176032 
L 128.592559 255.610386 
L 128.392251 251.581766 
L 128.392251 273.197121 
L 128.202693 255.577336 
L 127.66997 224.163639 
L 127.640653 241.242326 
L 127.402751 254.294031 
L 127.388481 248.598343 
L 127.339468 245.507247 
L 127.17087 258.16511 
L 127.17087 254.809502 
L 126.903265 271.802767 
L 126.903265 269.680866 
L 126.85019 256.979775 
L 126.763347 254.475603 
L 126.458249 253.984926 
L 126.441704 257.718083 
L 125.951435 76.428673 
L 125.197663 65.353059 
L 125.175584 227.962504 
L 125.175584 221.655706 
L 124.967028 103.801758 
L 124.884128 257.745776 
L 124.884128 249.405698 
L 124.865213 116.5622 
L 124.865213 133.419667 
L 124.811138 141.702304 
L 124.778939 147.74962 
L 124.369175 242.846838 
L 123.911712 237.324139 
L 123.839882 258.816694 
L 123.308894 259.445385 
L 123.28448 254.737916 
L 122.958703 260.442954 
L 122.856752 230.027707 
L 122.575116 240.780809 
L 122.522996 239.324134 
L 122.182465 257.352812 
L 121.991929 235.980847 
L 121.504996 247.947015 
L 121.280008 258.34946 
L 121.018603 221.450846 
L 121.018603 223.928313 
L 120.906733 264.815578 
L 120.80238 257.29955 
L 120.653749 250.760195 
L 120.572196 256.939552 
L 120.414191 247.944242 
L 120.346992 252.177467 
L 119.881659 256.857038 
L 119.749213 258.507563 
L 119.713814 226.516291 
L 119.471294 256.219676 
L 119.43886 257.611361 
L 119.389457 257.19052 
L 119.108131 255.791186 
L 118.963495 255.400247 
L 118.766637 253.103894 
L 118.713404 240.897294 
L 118.679857 255.888762 
L 118.552479 260.493916 
L 117.159202 225.406583 
L 116.777155 251.390736 
L 116.129588 235.421591 
L 116.052162 236.809647 
L 116.052162 237.063311 
L 116.00245 262.5781 
L 115.661061 262.023273 
L 115.601557 257.602307 
L 115.39739 259.105561 
L 115.364253 255.460008 
L 115.231777 259.379037 
L 115.168693 228.700903 
L 114.820943 234.245355 
L 114.414545 245.045492 
L 114.03998 235.741915 
L 113.897053 230.945043 
L 113.764723 259.099721 
L 113.764723 256.579067 
L 113.565685 262.516426 
L 113.465929 242.023826 
L 113.465929 236.669688 
L 113.429303 257.120156 
L 113.309745 255.533085 
L 113.230842 257.964932 
L 113.153054 258.583464 
L 112.921758 261.557244 
L 112.848114 225.266097 
L 112.848114 220.419903 
L 112.637338 257.686099 
L 112.467203 256.507523 
L 112.467203 253.337853 
L 112.22424 251.115305 
L 111.825561 225.374074 
L 111.825561 220.591812 
L 111.574135 256.553425 
L 111.374645 258.591787 
L 111.244356 255.967935 
L 111.129165 256.273231 
L 111.052022 254.995143 
L 110.979169 259.89181 
L 110.92943 252.843234 
L 110.880314 253.482042 
L 110.232064 235.49192 
L 109.245635 226.629814 
L 108.832661 239.264353 
L 108.447931 228.942203 
L 108.30023 257.658188 
L 108.105825 265.878711 
L 108.105825 246.973367 
L 108.07036 234.791308 
L 108.033473 257.677216 
L 107.920664 260.828954 
L 107.879174 257.267795 
L 107.807622 258.643948 
L 107.781404 252.720533 
L 107.733077 255.651788 
L 107.700063 229.370715 
L 106.938449 238.6939 
L 106.791943 238.410992 
L 106.508401 256.864003 
L 106.508401 256.725354 
L 106.433906 257.859877 
L 106.292224 256.304039 
L 106.248851 258.65107 
L 106.166658 256.46521 
L 106.139091 253.63764 
L 106.139091 256.618627 
L 106.086768 255.492546 
L 106.068124 254.26771 
L 106.068124 255.468273 
L 105.391257 227.77528 
L 104.758862 226.195398 
L 104.236816 231.726777 
L 104.01633 224.964225 
L 103.814387 255.118875 
L 103.709721 240.87954 
L 103.608163 144.60198 
L 103.54988 140.190599 
L 103.54988 84.349686 
L 103.491113 255.729039 
L 103.455225 262.579912 
L 103.418016 252.608767 
L 103.394314 253.549941 
L 103.369212 255.180784 
L 103.352725 254.739823 
L 103.334968 69.213593 
L 103.323032 76.107992 
L 103.265335 90.53102 
L 103.261046 66.535024 
L 103.237473 97.975984 
L 103.235467 125.945967 
L 103.223571 137.190466 
L 103.222475 133.942513 
z
" clip-path="url(#p123e135dca)" style="fill: #1f77b4; fill-opacity: 0.2; stroke: #1f77b4; stroke-opacity: 0.2"/>
    <path d="M 132.736021 153.358519 
L 132.736021 154.184494 
L 132.736021 153.358519 
L 132.736021 153.358519 
z
" clip-path="url(#p123e135dca)" style="fill: #1f77b4; fill-opacity: 0.2; stroke: #1f77b4; stroke-opacity: 0.2"/>
    <path d="M 132.813336 148.491167 
L 132.813336 156.101682 
L 132.83721 154.285198 
L 132.9559 82.739187 
L 132.9559 78.665513 
L 132.9559 78.665513 
L 132.83721 130.824763 
L 132.813336 148.491167 
z
" clip-path="url(#p123e135dca)" style="fill: #1f77b4; fill-opacity: 0.2; stroke: #1f77b4; stroke-opacity: 0.2"/>
    <path d="M 133.003304 121.365468 
L 133.003304 125.775584 
L 133.128674 268.100208 
L 133.128674 255.661588 
L 133.128674 255.661588 
L 133.003304 121.365468 
z
" clip-path="url(#p123e135dca)" style="fill: #1f77b4; fill-opacity: 0.2; stroke: #1f77b4; stroke-opacity: 0.2"/>
    <path d="M 133.267034 77.539461 
L 133.267034 79.584054 
L 133.383598 84.286364 
L 134.199932 78.575745 
L 134.338998 269.498027 
L 134.640905 69.380416 
L 134.669337 267.800352 
L 134.753829 277.94743 
L 134.753829 277.892145 
L 135.062709 275.98607 
L 135.062709 271.481231 
L 135.459784 278.369039 
L 135.684996 241.276332 
L 136.021396 267.360015 
L 136.845589 271.232999 
L 136.949788 278.494308 
L 138.327747 275.528618 
L 138.327747 278.37284 
L 139.700983 263.430011 
L 141.493278 273.776638 
L 141.493278 279.201905 
L 143.751526 236.713581 
L 143.751526 254.78636 
L 145.408905 279.184307 
L 145.408905 272.760826 
L 145.408905 272.760826 
L 143.751526 217.851446 
L 143.751526 227.376351 
L 141.493278 274.321889 
L 141.493278 260.352536 
L 139.700983 239.897998 
L 138.327747 258.647507 
L 138.327747 255.02159 
L 136.949788 274.107995 
L 136.845589 247.735441 
L 136.021396 254.787839 
L 135.684996 222.8489 
L 135.459784 254.338534 
L 135.062709 249.31296 
L 135.062709 240.830741 
L 134.753829 255.053633 
L 134.753829 242.564067 
L 134.669337 253.206564 
L 134.640905 67.302763 
L 134.338998 250.692317 
L 134.199932 75.717637 
L 133.383598 64.240451 
L 133.267034 77.539461 
z
" clip-path="url(#p123e135dca)" style="fill: #1f77b4; fill-opacity: 0.2; stroke: #1f77b4; stroke-opacity: 0.2"/>
    <path d="M 151.806638 149.571953 
L 151.806638 152.990035 
L 151.872556 154.4922 
L 151.906829 154.91358 
L 152.01427 151.210616 
L 152.071597 151.893736 
L 152.265738 137.935399 
L 152.372901 139.820888 
L 152.786762 67.028388 
L 153.02588 77.760123 
L 154.247233 78.051556 
L 154.996364 68.452593 
L 162.30364 149.912464 
L 162.30364 147.641796 
L 162.30364 147.641796 
L 154.996364 64.162338 
L 154.247233 74.820076 
L 153.02588 63.293131 
L 152.786762 62.619356 
L 152.372901 119.342109 
L 152.265738 116.531259 
L 152.071597 135.022155 
L 152.01427 146.843031 
L 151.906829 151.826346 
L 151.872556 144.635303 
L 151.806638 149.571953 
z
" clip-path="url(#p123e135dca)" style="fill: #1f77b4; fill-opacity: 0.2; stroke: #1f77b4; stroke-opacity: 0.2"/>
    <path d="M 162.630828 143.799029 
L 162.630828 156.834073 
L 162.630828 143.799029 
L 162.630828 143.799029 
z
" clip-path="url(#p123e135dca)" style="fill: #1f77b4; fill-opacity: 0.2; stroke: #1f77b4; stroke-opacity: 0.2"/>
    <path d="M 162.984187 90.391408 
L 162.984187 107.849538 
L 163.159034 141.981528 
L 163.700547 69.688122 
L 164.094263 93.9224 
L 165.594901 78.791139 
L 166.861257 87.962563 
L 176.101328 150.766158 
L 176.27929 155.700901 
L 176.562599 152.823721 
L 177.058708 146.508496 
L 178.070143 96.357087 
L 180.280996 149.712837 
L 180.363334 154.233066 
L 180.458454 154.436381 
L 180.582909 155.970207 
L 180.73478 157.062373 
L 180.846209 68.010996 
L 180.936331 154.850767 
L 181.203576 140.452279 
L 181.563765 148.417928 
L 182.113606 71.775226 
L 182.864877 117.809838 
L 184.406687 69.448781 
L 186.503962 106.665698 
L 191.391718 287.455704 
L 191.391718 286.606435 
L 191.391718 286.606435 
L 186.503962 69.137928 
L 184.406687 66.752791 
L 182.864877 81.563928 
L 182.113606 67.132198 
L 181.563765 126.462519 
L 181.203576 120.460214 
L 180.936331 153.93426 
L 180.846209 60.63605 
L 180.73478 151.501029 
L 180.582909 155.392432 
L 180.458454 145.752963 
L 180.363334 150.910602 
L 180.280996 149.346132 
L 178.070143 89.865626 
L 177.058708 135.754674 
L 176.562599 141.984453 
L 176.27929 152.736495 
L 176.101328 150.169564 
L 166.861257 60.087435 
L 165.594901 72.551824 
L 164.094263 68.054482 
L 163.700547 66.76415 
L 163.159034 126.013612 
L 162.984187 90.391408 
z
" clip-path="url(#p123e135dca)" style="fill: #1f77b4; fill-opacity: 0.2; stroke: #1f77b4; stroke-opacity: 0.2"/>
    <path d="M 191.443685 290.382219 
L 191.443685 290.553161 
L 191.451711 289.494499 
L 191.546001 293.62502 
L 191.563158 292.68882 
L 191.563158 292.574816 
L 191.563158 292.574816 
L 191.546001 293.521564 
L 191.451711 289.078053 
L 191.443685 290.382219 
z
" clip-path="url(#p123e135dca)" style="fill: #1f77b4; fill-opacity: 0.2; stroke: #1f77b4; stroke-opacity: 0.2"/>
    <path d="M 191.793945 295.12023 
L 191.793945 295.174597 
L 191.841692 294.807542 
L 191.841692 294.779503 
L 191.841692 294.779503 
L 191.793945 295.12023 
z
" clip-path="url(#p123e135dca)" style="fill: #1f77b4; fill-opacity: 0.2; stroke: #1f77b4; stroke-opacity: 0.2"/>
    <path d="M 192.70134 173.30144 
L 192.70134 295.487484 
L 192.70134 295.454157 
L 192.934469 295.479201 
L 193.340703 116.39258 
L 193.340703 111.402654 
L 193.340703 111.402654 
L 192.934469 188.420888 
L 192.70134 136.627186 
L 192.70134 173.30144 
z
" clip-path="url(#p123e135dca)" style="fill: #1f77b4; fill-opacity: 0.2; stroke: #1f77b4; stroke-opacity: 0.2"/>
    <path d="M 194.567137 66.079568 
L 194.567137 71.834182 
L 195.449082 214.604256 
L 197.537265 70.190115 
L 197.537265 65.449914 
L 197.537265 65.449914 
L 195.449082 94.219679 
L 194.567137 66.079568 
z
" clip-path="url(#p123e135dca)" style="fill: #1f77b4; fill-opacity: 0.2; stroke: #1f77b4; stroke-opacity: 0.2"/>
    <path d="M 200.066848 83.724356 
L 200.066848 95.497296 
L 200.066848 83.724356 
L 200.066848 83.724356 
z
" clip-path="url(#p123e135dca)" style="fill: #1f77b4; fill-opacity: 0.2; stroke: #1f77b4; stroke-opacity: 0.2"/>
    <path d="M 202.848891 150.443194 
L 202.848891 150.805066 
L 202.848891 150.443194 
L 202.848891 150.443194 
z
" clip-path="url(#p123e135dca)" style="fill: #1f77b4; fill-opacity: 0.2; stroke: #1f77b4; stroke-opacity: 0.2"/>
    <path d="M 203.16845 148.897797 
L 203.16845 155.483981 
L 203.497221 154.471093 
L 203.670715 154.229251 
L 204.237444 151.82126 
L 204.237444 142.105119 
L 204.237444 142.105119 
L 203.670715 144.754698 
L 203.497221 147.730293 
L 203.16845 148.897797 
z
" clip-path="url(#p123e135dca)" style="fill: #1f77b4; fill-opacity: 0.2; stroke: #1f77b4; stroke-opacity: 0.2"/>
    <path d="M 204.535421 129.103643 
L 204.535421 149.07352 
L 205.669591 113.319841 
L 205.669591 103.001512 
L 206.255614 114.359329 
L 209.302071 72.123493 
L 209.434124 149.972988 
L 209.627436 151.391234 
L 209.732306 154.963741 
L 210.018515 156.064553 
L 210.184474 154.075716 
L 210.635711 151.488123 
L 210.783256 95.643435 
L 210.925117 208.588219 
L 210.925117 148.359692 
L 211.702737 158.152887 
L 212.293543 80.881178 
L 213.832462 175.639839 
L 215.48436 68.936645 
L 219.430074 114.716683 
L 222.023073 151.656217 
L 222.023073 148.714953 
L 222.023073 148.714953 
L 219.430074 99.663199 
L 215.48436 65.56435 
L 213.832462 96.522492 
L 212.293543 62.197394 
L 211.702737 150.996048 
L 210.925117 123.371153 
L 210.925117 152.838979 
L 210.783256 74.676042 
L 210.635711 147.122764 
L 210.184474 140.959867 
L 210.018515 149.509649 
L 209.732306 148.536751 
L 209.627436 151.28341 
L 209.434124 149.301629 
L 209.302071 59.627271 
L 206.255614 86.303057 
L 205.669591 100.353205 
L 205.669591 58.846946 
L 204.535421 129.103643 
z
" clip-path="url(#p123e135dca)" style="fill: #1f77b4; fill-opacity: 0.2; stroke: #1f77b4; stroke-opacity: 0.2"/>
    <path d="M 222.418493 154.16949 
L 222.418493 160.931651 
L 222.418493 154.16949 
L 222.418493 154.16949 
z
" clip-path="url(#p123e135dca)" style="fill: #1f77b4; fill-opacity: 0.2; stroke: #1f77b4; stroke-opacity: 0.2"/>
    <path d="M 223.018478 150.307905 
L 223.018478 155.477114 
L 223.018478 150.307905 
L 223.018478 150.307905 
z
" clip-path="url(#p123e135dca)" style="fill: #1f77b4; fill-opacity: 0.2; stroke: #1f77b4; stroke-opacity: 0.2"/>
    <path d="M 224.000397 135.386698 
L 224.000397 141.989157 
L 224.000397 135.386698 
L 224.000397 135.386698 
z
" clip-path="url(#p123e135dca)" style="fill: #1f77b4; fill-opacity: 0.2; stroke: #1f77b4; stroke-opacity: 0.2"/>
    <path d="M 225.80406 60.85848 
L 225.80406 68.531808 
L 227.398778 219.767617 
L 228.370632 156.76058 
L 229.05117 154.27528 
L 229.894276 68.593858 
L 230.188851 151.8938 
L 231.114033 161.523414 
L 231.425186 156.408625 
L 231.740797 153.837752 
L 232.219032 153.428452 
L 232.365533 135.051845 
L 232.764556 151.71903 
L 233.560711 154.270194 
L 234.090029 138.302532 
L 234.661738 128.007344 
L 236.16 145.83523 
L 237.785589 106.822104 
L 239.17659 69.83655 
L 239.428925 159.247914 
L 239.95883 157.133642 
L 240.09138 155.276342 
L 240.908046 159.161451 
L 241.146061 140.992164 
L 242.511617 159.92029 
L 242.710466 123.714653 
L 243.020169 95.508358 
L 245.610439 144.989928 
L 247.138624 67.306408 
L 252.711734 162.533249 
L 252.711734 153.974694 
L 252.711734 153.974694 
L 247.138624 61.407256 
L 245.610439 110.990938 
L 243.020169 86.197957 
L 242.710466 86.591719 
L 242.511617 153.729801 
L 241.146061 123.117168 
L 240.908046 153.838388 
L 240.09138 153.823384 
L 239.95883 156.657841 
L 239.428925 147.938313 
L 239.17659 53.568 
L 237.785589 66.600278 
L 236.16 111.839864 
L 234.661738 106.294413 
L 234.090029 93.998945 
L 233.560711 153.452865 
L 232.764556 146.78308 
L 232.365533 126.451584 
L 232.219032 152.334951 
L 231.740797 146.505572 
L 231.425186 156.288594 
L 231.114033 152.83135 
L 230.188851 144.82959 
L 229.894276 63.354969 
L 229.05117 152.38276 
L 228.370632 156.224764 
L 227.398778 99.135095 
L 225.80406 60.85848 
z
" clip-path="url(#p123e135dca)" style="fill: #1f77b4; fill-opacity: 0.2; stroke: #1f77b4; stroke-opacity: 0.2"/>
    <path d="M 253.355432 85.500151 
L 253.355432 135.658802 
L 253.355432 132.684732 
L 253.568367 155.230186 
L 253.568367 154.646816 
L 253.568367 154.646816 
L 253.355432 121.501011 
L 253.355432 85.500151 
z
" clip-path="url(#p123e135dca)" style="fill: #1f77b4; fill-opacity: 0.2; stroke: #1f77b4; stroke-opacity: 0.2"/>
    <path d="M 254.934342 131.200622 
L 254.934342 137.752475 
L 256.059648 154.403703 
L 256.059648 152.594848 
L 256.059648 152.594848 
L 254.934342 131.200622 
z
" clip-path="url(#p123e135dca)" style="fill: #1f77b4; fill-opacity: 0.2; stroke: #1f77b4; stroke-opacity: 0.2"/>
    <path d="M 256.386994 151.792524 
L 256.386994 152.549328 
L 257.357074 72.217416 
L 257.498671 155.796518 
L 258.028454 153.529665 
L 258.028454 152.20602 
L 258.028454 152.20602 
L 257.498671 142.092023 
L 257.357074 69.243092 
L 256.386994 151.792524 
z
" clip-path="url(#p123e135dca)" style="fill: #1f77b4; fill-opacity: 0.2; stroke: #1f77b4; stroke-opacity: 0.2"/>
    <path d="M 260.15858 102.750961 
L 260.15858 134.918781 
L 260.790604 151.391234 
L 261.116814 148.662757 
L 261.711337 160.047696 
L 262.128749 150.832022 
L 262.57623 71.099247 
L 262.57623 61.052259 
L 262.57623 61.052259 
L 262.128749 148.375586 
L 261.711337 154.259259 
L 261.116814 119.037709 
L 260.790604 147.432314 
L 260.15858 102.750961 
z
" clip-path="url(#p123e135dca)" style="fill: #1f77b4; fill-opacity: 0.2; stroke: #1f77b4; stroke-opacity: 0.2"/>
    <path d="M 263.621849 156.195265 
L 263.621849 158.943259 
L 264.521803 187.058132 
L 266.469533 127.278259 
L 267.231679 147.708678 
L 268.593804 137.407279 
L 268.80228 140.676447 
L 269.928825 89.845547 
L 270.336632 160.607861 
L 271.639737 154.550181 
L 271.737393 152.371062 
L 273.861347 154.441848 
L 274.148667 95.032685 
L 275.978517 147.762208 
L 275.978517 112.585797 
L 275.978517 112.585797 
L 274.148667 63.284593 
L 273.861347 154.305542 
L 271.737393 136.15164 
L 271.639737 153.529665 
L 270.336632 150.098614 
L 269.928825 55.70046 
L 268.80228 99.657433 
L 268.593804 93.757039 
L 267.231679 119.09302 
L 266.469533 91.605703 
L 264.521803 105.671436 
L 263.621849 156.195265 
z
" clip-path="url(#p123e135dca)" style="fill: #1f77b4; fill-opacity: 0.2; stroke: #1f77b4; stroke-opacity: 0.2"/>
    <path d="M 277.96267 288.437541 
L 277.96267 288.514646 
L 277.96267 288.437541 
L 277.96267 288.437541 
z
" clip-path="url(#p123e135dca)" style="fill: #1f77b4; fill-opacity: 0.2; stroke: #1f77b4; stroke-opacity: 0.2"/>
    <path d="M 278.369929 291.748598 
L 278.369929 291.907827 
L 279.204153 70.787472 
L 279.29247 294.382733 
L 282.307559 295.171771 
L 284.268636 156.292154 
L 284.334815 152.890602 
L 284.334815 149.800317 
L 284.334815 149.800317 
L 284.268636 154.339364 
L 282.307559 295.153186 
L 279.29247 294.299568 
L 279.204153 61.125498 
L 278.369929 291.748598 
z
" clip-path="url(#p123e135dca)" style="fill: #1f77b4; fill-opacity: 0.2; stroke: #1f77b4; stroke-opacity: 0.2"/>
    <path d="M 285.902577 141.095029 
L 285.902577 155.870266 
L 286.114879 144.816494 
L 286.114879 144.563717 
L 286.114879 144.563717 
L 285.902577 141.095029 
z
" clip-path="url(#p123e135dca)" style="fill: #1f77b4; fill-opacity: 0.2; stroke: #1f77b4; stroke-opacity: 0.2"/>
    <path d="M 287.85969 127.139346 
L 287.85969 149.984813 
L 288.055741 151.376739 
L 288.055741 111.158523 
L 288.055741 111.158523 
L 287.85969 127.139346 
z
" clip-path="url(#p123e135dca)" style="fill: #1f77b4; fill-opacity: 0.2; stroke: #1f77b4; stroke-opacity: 0.2"/>
    <path d="M 289.064432 131.582458 
L 289.064432 145.050071 
L 289.064432 131.582458 
L 289.064432 131.582458 
z
" clip-path="url(#p123e135dca)" style="fill: #1f77b4; fill-opacity: 0.2; stroke: #1f77b4; stroke-opacity: 0.2"/>
    <path d="M 291.312591 125.922826 
L 291.312591 152.71259 
L 292.07082 149.533553 
L 292.07082 160.50366 
L 292.07082 152.208054 
L 292.07082 152.208054 
L 292.07082 147.051305 
L 291.312591 125.922826 
z
" clip-path="url(#p123e135dca)" style="fill: #1f77b4; fill-opacity: 0.2; stroke: #1f77b4; stroke-opacity: 0.2"/>
    <path d="M 294.453286 154.72209 
L 294.453286 154.87162 
L 294.980646 142.78576 
L 295.52022 75.165292 
L 299.175197 151.176094 
L 302.626722 155.242266 
L 302.626722 142.162464 
L 302.626722 142.162464 
L 299.175197 136.305239 
L 295.52022 59.136597 
L 294.980646 113.438092 
L 294.453286 154.72209 
z
" clip-path="url(#p123e135dca)" style="fill: #1f77b4; fill-opacity: 0.2; stroke: #1f77b4; stroke-opacity: 0.2"/>
    <path d="M 305.59547 98.326667 
L 305.59547 110.227776 
L 305.59547 104.235643 
L 305.676359 155.823475 
L 309.054643 290.722297 
L 309.054643 290.359611 
L 309.054643 290.359611 
L 305.676359 153.90883 
L 305.59547 99.418897 
L 305.59547 98.326667 
z
" clip-path="url(#p123e135dca)" style="fill: #1f77b4; fill-opacity: 0.2; stroke: #1f77b4; stroke-opacity: 0.2"/>
    <path d="M 309.259275 293.405012 
L 309.259275 293.578729 
L 309.293589 292.882522 
L 309.445901 285.156096 
L 309.445901 284.991181 
L 309.445901 284.991181 
L 309.293589 292.642257 
L 309.259275 293.405012 
z
" clip-path="url(#p123e135dca)" style="fill: #1f77b4; fill-opacity: 0.2; stroke: #1f77b4; stroke-opacity: 0.2"/>
    <path d="M 309.755162 289.21708 
L 309.755162 295.148684 
L 309.755162 295.189662 
L 309.850656 294.794955 
L 310.325419 293.035027 
L 310.325419 292.885421 
L 310.325419 292.885421 
L 309.850656 289.277665 
L 309.755162 289.453836 
L 309.755162 289.21708 
z
" clip-path="url(#p123e135dca)" style="fill: #1f77b4; fill-opacity: 0.2; stroke: #1f77b4; stroke-opacity: 0.2"/>
    <path d="M 310.515033 290.594078 
L 310.515033 290.697808 
L 311.016513 155.667078 
L 311.569953 295.465392 
L 311.569953 295.438359 
L 312.036211 295.176294 
L 315.301546 295.228967 
L 315.857809 148.176213 
L 317.065436 294.791173 
L 317.179165 142.080706 
L 317.179165 131.122551 
L 317.179165 131.122551 
L 317.065436 294.761724 
L 315.857809 125.864336 
L 315.301546 295.151204 
L 312.036211 294.085828 
L 311.569953 294.877816 
L 311.569953 294.99447 
L 311.016513 140.119778 
L 310.515033 290.594078 
z
" clip-path="url(#p123e135dca)" style="fill: #1f77b4; fill-opacity: 0.2; stroke: #1f77b4; stroke-opacity: 0.2"/>
    <path d="M 318.752653 112.802844 
L 318.752653 132.734321 
L 318.752653 112.802844 
L 318.752653 112.802844 
z
" clip-path="url(#p123e135dca)" style="fill: #1f77b4; fill-opacity: 0.2; stroke: #1f77b4; stroke-opacity: 0.2"/>
    <path d="M 321.241803 67.474926 
L 321.241803 85.923056 
L 322.587404 142.183699 
L 325.884175 132.169007 
L 325.884175 118.121075 
L 325.884175 118.121075 
L 322.587404 139.720015 
L 321.241803 67.474926 
z
" clip-path="url(#p123e135dca)" style="fill: #1f77b4; fill-opacity: 0.2; stroke: #1f77b4; stroke-opacity: 0.2"/>
    <path d="M 337.305751 74.719754 
L 337.305751 116.447382 
L 337.305751 74.719754 
L 337.305751 74.719754 
z
" clip-path="url(#p123e135dca)" style="fill: #1f77b4; fill-opacity: 0.2; stroke: #1f77b4; stroke-opacity: 0.2"/>
    <path d="M 353.507922 57.478798 
L 353.507922 82.2494 
L 353.507922 57.478798 
L 353.507922 57.478798 
z
" clip-path="url(#p123e135dca)" style="fill: #1f77b4; fill-opacity: 0.2; stroke: #1f77b4; stroke-opacity: 0.2"/>
    <path d="M 386.558897 287.137412 
L 386.558897 287.553362 
L 386.788208 285.828803 
L 387.564769 291.254191 
L 387.993422 289.955963 
L 389.648866 293.976435 
L 390.605336 293.324545 
L 395.490749 294.897761 
L 398.487273 294.419854 
L 398.487273 294.333702 
L 398.487273 294.333702 
L 395.490749 294.854818 
L 390.605336 293.198434 
L 389.648866 293.951137 
L 387.993422 289.681931 
L 387.564769 290.877943 
L 386.788208 285.186638 
L 386.558897 287.137412 
z
" clip-path="url(#p123e135dca)" style="fill: #1f77b4; fill-opacity: 0.2; stroke: #1f77b4; stroke-opacity: 0.2"/>
   </g>
   <g id="matplotlib.axis_1">
    <g id="xtick_1">
     <g id="line2d_1">
      <defs>
       <path id="m89d1b24988" d="M 0 0 
L 0 3.5 
" style="stroke: #000000; stroke-width: 0.8"/>
      </defs>
      <g>
       <use xlink:href="#m89d1b24988" x="73.832727" y="307.584" style="stroke: #000000; stroke-width: 0.8"/>
      </g>
     </g>
     <g id="text_1">
      <!-- 0 -->
      <g transform="translate(70.651477 322.182437)scale(0.1 -0.1)">
       <defs>
        <path id="DejaVuSans-30" d="M 2034 4250 
Q 1547 4250 1301 3770 
Q 1056 3291 1056 2328 
Q 1056 1369 1301 889 
Q 1547 409 2034 409 
Q 2525 409 2770 889 
Q 3016 1369 3016 2328 
Q 3016 3291 2770 3770 
Q 2525 4250 2034 4250 
z
M 2034 4750 
Q 2819 4750 3233 4129 
Q 3647 3509 3647 2328 
Q 3647 1150 3233 529 
Q 2819 -91 2034 -91 
Q 1250 -91 836 529 
Q 422 1150 422 2328 
Q 422 3509 836 4129 
Q 1250 4750 2034 4750 
z
" transform="scale(0.015625)"/>
       </defs>
       <use xlink:href="#DejaVuSans-30"/>
      </g>
     </g>
    </g>
    <g id="xtick_2">
     <g id="line2d_2">
      <g>
       <use xlink:href="#m89d1b24988" x="130.024071" y="307.584" style="stroke: #000000; stroke-width: 0.8"/>
      </g>
     </g>
     <g id="text_2">
      <!-- 50 -->
      <g transform="translate(123.661571 322.182437)scale(0.1 -0.1)">
       <defs>
        <path id="DejaVuSans-35" d="M 691 4666 
L 3169 4666 
L 3169 4134 
L 1269 4134 
L 1269 2991 
Q 1406 3038 1543 3061 
Q 1681 3084 1819 3084 
Q 2600 3084 3056 2656 
Q 3513 2228 3513 1497 
Q 3513 744 3044 326 
Q 2575 -91 1722 -91 
Q 1428 -91 1123 -41 
Q 819 9 494 109 
L 494 744 
Q 775 591 1075 516 
Q 1375 441 1709 441 
Q 2250 441 2565 725 
Q 2881 1009 2881 1497 
Q 2881 1984 2565 2268 
Q 2250 2553 1709 2553 
Q 1456 2553 1204 2497 
Q 953 2441 691 2322 
L 691 4666 
z
" transform="scale(0.015625)"/>
       </defs>
       <use xlink:href="#DejaVuSans-35"/>
       <use xlink:href="#DejaVuSans-30" x="63.623047"/>
      </g>
     </g>
    </g>
    <g id="xtick_3">
     <g id="line2d_3">
      <g>
       <use xlink:href="#m89d1b24988" x="186.215415" y="307.584" style="stroke: #000000; stroke-width: 0.8"/>
      </g>
     </g>
     <g id="text_3">
      <!-- 100 -->
      <g transform="translate(176.671665 322.182437)scale(0.1 -0.1)">
       <defs>
        <path id="DejaVuSans-31" d="M 794 531 
L 1825 531 
L 1825 4091 
L 703 3866 
L 703 4441 
L 1819 4666 
L 2450 4666 
L 2450 531 
L 3481 531 
L 3481 0 
L 794 0 
L 794 531 
z
" transform="scale(0.015625)"/>
       </defs>
       <use xlink:href="#DejaVuSans-31"/>
       <use xlink:href="#DejaVuSans-30" x="63.623047"/>
       <use xlink:href="#DejaVuSans-30" x="127.246094"/>
      </g>
     </g>
    </g>
    <g id="xtick_4">
     <g id="line2d_4">
      <g>
       <use xlink:href="#m89d1b24988" x="242.406759" y="307.584" style="stroke: #000000; stroke-width: 0.8"/>
      </g>
     </g>
     <g id="text_4">
      <!-- 150 -->
      <g transform="translate(232.863009 322.182437)scale(0.1 -0.1)">
       <use xlink:href="#DejaVuSans-31"/>
       <use xlink:href="#DejaVuSans-35" x="63.623047"/>
       <use xlink:href="#DejaVuSans-30" x="127.246094"/>
      </g>
     </g>
    </g>
    <g id="xtick_5">
     <g id="line2d_5">
      <g>
       <use xlink:href="#m89d1b24988" x="298.598103" y="307.584" style="stroke: #000000; stroke-width: 0.8"/>
      </g>
     </g>
     <g id="text_5">
      <!-- 200 -->
      <g transform="translate(289.054353 322.182437)scale(0.1 -0.1)">
       <defs>
        <path id="DejaVuSans-32" d="M 1228 531 
L 3431 531 
L 3431 0 
L 469 0 
L 469 531 
Q 828 903 1448 1529 
Q 2069 2156 2228 2338 
Q 2531 2678 2651 2914 
Q 2772 3150 2772 3378 
Q 2772 3750 2511 3984 
Q 2250 4219 1831 4219 
Q 1534 4219 1204 4116 
Q 875 4013 500 3803 
L 500 4441 
Q 881 4594 1212 4672 
Q 1544 4750 1819 4750 
Q 2544 4750 2975 4387 
Q 3406 4025 3406 3419 
Q 3406 3131 3298 2873 
Q 3191 2616 2906 2266 
Q 2828 2175 2409 1742 
Q 1991 1309 1228 531 
z
" transform="scale(0.015625)"/>
       </defs>
       <use xlink:href="#DejaVuSans-32"/>
       <use xlink:href="#DejaVuSans-30" x="63.623047"/>
       <use xlink:href="#DejaVuSans-30" x="127.246094"/>
      </g>
     </g>
    </g>
    <g id="xtick_6">
     <g id="line2d_6">
      <g>
       <use xlink:href="#m89d1b24988" x="354.789447" y="307.584" style="stroke: #000000; stroke-width: 0.8"/>
      </g>
     </g>
     <g id="text_6">
      <!-- 250 -->
      <g transform="translate(345.245697 322.182437)scale(0.1 -0.1)">
       <use xlink:href="#DejaVuSans-32"/>
       <use xlink:href="#DejaVuSans-35" x="63.623047"/>
       <use xlink:href="#DejaVuSans-30" x="127.246094"/>
      </g>
     </g>
    </g>
    <g id="xtick_7">
     <g id="line2d_7">
      <g>
       <use xlink:href="#m89d1b24988" x="410.980791" y="307.584" style="stroke: #000000; stroke-width: 0.8"/>
      </g>
     </g>
     <g id="text_7">
      <!-- 300 -->
      <g transform="translate(401.437041 322.182437)scale(0.1 -0.1)">
       <defs>
        <path id="DejaVuSans-33" d="M 2597 2516 
Q 3050 2419 3304 2112 
Q 3559 1806 3559 1356 
Q 3559 666 3084 287 
Q 2609 -91 1734 -91 
Q 1441 -91 1130 -33 
Q 819 25 488 141 
L 488 750 
Q 750 597 1062 519 
Q 1375 441 1716 441 
Q 2309 441 2620 675 
Q 2931 909 2931 1356 
Q 2931 1769 2642 2001 
Q 2353 2234 1838 2234 
L 1294 2234 
L 1294 2753 
L 1863 2753 
Q 2328 2753 2575 2939 
Q 2822 3125 2822 3475 
Q 2822 3834 2567 4026 
Q 2313 4219 1838 4219 
Q 1578 4219 1281 4162 
Q 984 4106 628 3988 
L 628 4550 
Q 988 4650 1302 4700 
Q 1616 4750 1894 4750 
Q 2613 4750 3031 4423 
Q 3450 4097 3450 3541 
Q 3450 3153 3228 2886 
Q 3006 2619 2597 2516 
z
" transform="scale(0.015625)"/>
       </defs>
       <use xlink:href="#DejaVuSans-33"/>
       <use xlink:href="#DejaVuSans-30" x="63.623047"/>
       <use xlink:href="#DejaVuSans-30" x="127.246094"/>
      </g>
     </g>
    </g>
    <g id="text_8">
     <!-- Global close to cube -->
     <g transform="translate(185.375625 335.860562)scale(0.1 -0.1)">
      <defs>
       <path id="DejaVuSans-47" d="M 3809 666 
L 3809 1919 
L 2778 1919 
L 2778 2438 
L 4434 2438 
L 4434 434 
Q 4069 175 3628 42 
Q 3188 -91 2688 -91 
Q 1594 -91 976 548 
Q 359 1188 359 2328 
Q 359 3472 976 4111 
Q 1594 4750 2688 4750 
Q 3144 4750 3555 4637 
Q 3966 4525 4313 4306 
L 4313 3634 
Q 3963 3931 3569 4081 
Q 3175 4231 2741 4231 
Q 1884 4231 1454 3753 
Q 1025 3275 1025 2328 
Q 1025 1384 1454 906 
Q 1884 428 2741 428 
Q 3075 428 3337 486 
Q 3600 544 3809 666 
z
" transform="scale(0.015625)"/>
       <path id="DejaVuSans-6c" d="M 603 4863 
L 1178 4863 
L 1178 0 
L 603 0 
L 603 4863 
z
" transform="scale(0.015625)"/>
       <path id="DejaVuSans-6f" d="M 1959 3097 
Q 1497 3097 1228 2736 
Q 959 2375 959 1747 
Q 959 1119 1226 758 
Q 1494 397 1959 397 
Q 2419 397 2687 759 
Q 2956 1122 2956 1747 
Q 2956 2369 2687 2733 
Q 2419 3097 1959 3097 
z
M 1959 3584 
Q 2709 3584 3137 3096 
Q 3566 2609 3566 1747 
Q 3566 888 3137 398 
Q 2709 -91 1959 -91 
Q 1206 -91 779 398 
Q 353 888 353 1747 
Q 353 2609 779 3096 
Q 1206 3584 1959 3584 
z
" transform="scale(0.015625)"/>
       <path id="DejaVuSans-62" d="M 3116 1747 
Q 3116 2381 2855 2742 
Q 2594 3103 2138 3103 
Q 1681 3103 1420 2742 
Q 1159 2381 1159 1747 
Q 1159 1113 1420 752 
Q 1681 391 2138 391 
Q 2594 391 2855 752 
Q 3116 1113 3116 1747 
z
M 1159 2969 
Q 1341 3281 1617 3432 
Q 1894 3584 2278 3584 
Q 2916 3584 3314 3078 
Q 3713 2572 3713 1747 
Q 3713 922 3314 415 
Q 2916 -91 2278 -91 
Q 1894 -91 1617 61 
Q 1341 213 1159 525 
L 1159 0 
L 581 0 
L 581 4863 
L 1159 4863 
L 1159 2969 
z
" transform="scale(0.015625)"/>
       <path id="DejaVuSans-61" d="M 2194 1759 
Q 1497 1759 1228 1600 
Q 959 1441 959 1056 
Q 959 750 1161 570 
Q 1363 391 1709 391 
Q 2188 391 2477 730 
Q 2766 1069 2766 1631 
L 2766 1759 
L 2194 1759 
z
M 3341 1997 
L 3341 0 
L 2766 0 
L 2766 531 
Q 2569 213 2275 61 
Q 1981 -91 1556 -91 
Q 1019 -91 701 211 
Q 384 513 384 1019 
Q 384 1609 779 1909 
Q 1175 2209 1959 2209 
L 2766 2209 
L 2766 2266 
Q 2766 2663 2505 2880 
Q 2244 3097 1772 3097 
Q 1472 3097 1187 3025 
Q 903 2953 641 2809 
L 641 3341 
Q 956 3463 1253 3523 
Q 1550 3584 1831 3584 
Q 2591 3584 2966 3190 
Q 3341 2797 3341 1997 
z
" transform="scale(0.015625)"/>
       <path id="DejaVuSans-20" transform="scale(0.015625)"/>
       <path id="DejaVuSans-63" d="M 3122 3366 
L 3122 2828 
Q 2878 2963 2633 3030 
Q 2388 3097 2138 3097 
Q 1578 3097 1268 2742 
Q 959 2388 959 1747 
Q 959 1106 1268 751 
Q 1578 397 2138 397 
Q 2388 397 2633 464 
Q 2878 531 3122 666 
L 3122 134 
Q 2881 22 2623 -34 
Q 2366 -91 2075 -91 
Q 1284 -91 818 406 
Q 353 903 353 1747 
Q 353 2603 823 3093 
Q 1294 3584 2113 3584 
Q 2378 3584 2631 3529 
Q 2884 3475 3122 3366 
z
" transform="scale(0.015625)"/>
       <path id="DejaVuSans-73" d="M 2834 3397 
L 2834 2853 
Q 2591 2978 2328 3040 
Q 2066 3103 1784 3103 
Q 1356 3103 1142 2972 
Q 928 2841 928 2578 
Q 928 2378 1081 2264 
Q 1234 2150 1697 2047 
L 1894 2003 
Q 2506 1872 2764 1633 
Q 3022 1394 3022 966 
Q 3022 478 2636 193 
Q 2250 -91 1575 -91 
Q 1294 -91 989 -36 
Q 684 19 347 128 
L 347 722 
Q 666 556 975 473 
Q 1284 391 1588 391 
Q 1994 391 2212 530 
Q 2431 669 2431 922 
Q 2431 1156 2273 1281 
Q 2116 1406 1581 1522 
L 1381 1569 
Q 847 1681 609 1914 
Q 372 2147 372 2553 
Q 372 3047 722 3315 
Q 1072 3584 1716 3584 
Q 2034 3584 2315 3537 
Q 2597 3491 2834 3397 
z
" transform="scale(0.015625)"/>
       <path id="DejaVuSans-65" d="M 3597 1894 
L 3597 1613 
L 953 1613 
Q 991 1019 1311 708 
Q 1631 397 2203 397 
Q 2534 397 2845 478 
Q 3156 559 3463 722 
L 3463 178 
Q 3153 47 2828 -22 
Q 2503 -91 2169 -91 
Q 1331 -91 842 396 
Q 353 884 353 1716 
Q 353 2575 817 3079 
Q 1281 3584 2069 3584 
Q 2775 3584 3186 3129 
Q 3597 2675 3597 1894 
z
M 3022 2063 
Q 3016 2534 2758 2815 
Q 2500 3097 2075 3097 
Q 1594 3097 1305 2825 
Q 1016 2553 972 2059 
L 3022 2063 
z
" transform="scale(0.015625)"/>
       <path id="DejaVuSans-74" d="M 1172 4494 
L 1172 3500 
L 2356 3500 
L 2356 3053 
L 1172 3053 
L 1172 1153 
Q 1172 725 1289 603 
Q 1406 481 1766 481 
L 2356 481 
L 2356 0 
L 1766 0 
Q 1100 0 847 248 
Q 594 497 594 1153 
L 594 3053 
L 172 3053 
L 172 3500 
L 594 3500 
L 594 4494 
L 1172 4494 
z
" transform="scale(0.015625)"/>
       <path id="DejaVuSans-75" d="M 544 1381 
L 544 3500 
L 1119 3500 
L 1119 1403 
Q 1119 906 1312 657 
Q 1506 409 1894 409 
Q 2359 409 2629 706 
Q 2900 1003 2900 1516 
L 2900 3500 
L 3475 3500 
L 3475 0 
L 2900 0 
L 2900 538 
Q 2691 219 2414 64 
Q 2138 -91 1772 -91 
Q 1169 -91 856 284 
Q 544 659 544 1381 
z
M 1991 3584 
L 1991 3584 
z
" transform="scale(0.015625)"/>
      </defs>
      <use xlink:href="#DejaVuSans-47"/>
      <use xlink:href="#DejaVuSans-6c" x="77.490234"/>
      <use xlink:href="#DejaVuSans-6f" x="105.273438"/>
      <use xlink:href="#DejaVuSans-62" x="166.455078"/>
      <use xlink:href="#DejaVuSans-61" x="229.931641"/>
      <use xlink:href="#DejaVuSans-6c" x="291.210938"/>
      <use xlink:href="#DejaVuSans-20" x="318.994141"/>
      <use xlink:href="#DejaVuSans-63" x="350.78125"/>
      <use xlink:href="#DejaVuSans-6c" x="405.761719"/>
      <use xlink:href="#DejaVuSans-6f" x="433.544922"/>
      <use xlink:href="#DejaVuSans-73" x="494.726562"/>
      <use xlink:href="#DejaVuSans-65" x="546.826172"/>
      <use xlink:href="#DejaVuSans-20" x="608.349609"/>
      <use xlink:href="#DejaVuSans-74" x="640.136719"/>
      <use xlink:href="#DejaVuSans-6f" x="679.345703"/>
      <use xlink:href="#DejaVuSans-20" x="740.527344"/>
      <use xlink:href="#DejaVuSans-63" x="772.314453"/>
      <use xlink:href="#DejaVuSans-75" x="827.294922"/>
      <use xlink:href="#DejaVuSans-62" x="890.673828"/>
      <use xlink:href="#DejaVuSans-65" x="954.150391"/>
     </g>
    </g>
   </g>
   <g id="matplotlib.axis_2">
    <g id="ytick_1">
     <g id="line2d_8">
      <defs>
       <path id="m5efdae3a28" d="M 0 0 
L -3.5 0 
" style="stroke: #000000; stroke-width: 0.8"/>
      </defs>
      <g>
       <use xlink:href="#m5efdae3a28" x="57.6" y="295.983895" style="stroke: #000000; stroke-width: 0.8"/>
      </g>
     </g>
     <g id="text_9">
      <!-- 0 -->
      <g transform="translate(44.2375 299.783114)scale(0.1 -0.1)">
       <use xlink:href="#DejaVuSans-30"/>
      </g>
     </g>
    </g>
    <g id="ytick_2">
     <g id="line2d_9">
      <g>
       <use xlink:href="#m5efdae3a28" x="57.6" y="245.123369" style="stroke: #000000; stroke-width: 0.8"/>
      </g>
     </g>
     <g id="text_10">
      <!-- 2 -->
      <g transform="translate(44.2375 248.922588)scale(0.1 -0.1)">
       <use xlink:href="#DejaVuSans-32"/>
      </g>
     </g>
    </g>
    <g id="ytick_3">
     <g id="line2d_10">
      <g>
       <use xlink:href="#m5efdae3a28" x="57.6" y="194.262843" style="stroke: #000000; stroke-width: 0.8"/>
      </g>
     </g>
     <g id="text_11">
      <!-- 4 -->
      <g transform="translate(44.2375 198.062062)scale(0.1 -0.1)">
       <defs>
        <path id="DejaVuSans-34" d="M 2419 4116 
L 825 1625 
L 2419 1625 
L 2419 4116 
z
M 2253 4666 
L 3047 4666 
L 3047 1625 
L 3713 1625 
L 3713 1100 
L 3047 1100 
L 3047 0 
L 2419 0 
L 2419 1100 
L 313 1100 
L 313 1709 
L 2253 4666 
z
" transform="scale(0.015625)"/>
       </defs>
       <use xlink:href="#DejaVuSans-34"/>
      </g>
     </g>
    </g>
    <g id="ytick_4">
     <g id="line2d_11">
      <g>
       <use xlink:href="#m5efdae3a28" x="57.6" y="143.402317" style="stroke: #000000; stroke-width: 0.8"/>
      </g>
     </g>
     <g id="text_12">
      <!-- 6 -->
      <g transform="translate(44.2375 147.201536)scale(0.1 -0.1)">
       <defs>
        <path id="DejaVuSans-36" d="M 2113 2584 
Q 1688 2584 1439 2293 
Q 1191 2003 1191 1497 
Q 1191 994 1439 701 
Q 1688 409 2113 409 
Q 2538 409 2786 701 
Q 3034 994 3034 1497 
Q 3034 2003 2786 2293 
Q 2538 2584 2113 2584 
z
M 3366 4563 
L 3366 3988 
Q 3128 4100 2886 4159 
Q 2644 4219 2406 4219 
Q 1781 4219 1451 3797 
Q 1122 3375 1075 2522 
Q 1259 2794 1537 2939 
Q 1816 3084 2150 3084 
Q 2853 3084 3261 2657 
Q 3669 2231 3669 1497 
Q 3669 778 3244 343 
Q 2819 -91 2113 -91 
Q 1303 -91 875 529 
Q 447 1150 447 2328 
Q 447 3434 972 4092 
Q 1497 4750 2381 4750 
Q 2619 4750 2861 4703 
Q 3103 4656 3366 4563 
z
" transform="scale(0.015625)"/>
       </defs>
       <use xlink:href="#DejaVuSans-36"/>
      </g>
     </g>
    </g>
    <g id="ytick_5">
     <g id="line2d_12">
      <g>
       <use xlink:href="#m5efdae3a28" x="57.6" y="92.541791" style="stroke: #000000; stroke-width: 0.8"/>
      </g>
     </g>
     <g id="text_13">
      <!-- 8 -->
      <g transform="translate(44.2375 96.341009)scale(0.1 -0.1)">
       <defs>
        <path id="DejaVuSans-38" d="M 2034 2216 
Q 1584 2216 1326 1975 
Q 1069 1734 1069 1313 
Q 1069 891 1326 650 
Q 1584 409 2034 409 
Q 2484 409 2743 651 
Q 3003 894 3003 1313 
Q 3003 1734 2745 1975 
Q 2488 2216 2034 2216 
z
M 1403 2484 
Q 997 2584 770 2862 
Q 544 3141 544 3541 
Q 544 4100 942 4425 
Q 1341 4750 2034 4750 
Q 2731 4750 3128 4425 
Q 3525 4100 3525 3541 
Q 3525 3141 3298 2862 
Q 3072 2584 2669 2484 
Q 3125 2378 3379 2068 
Q 3634 1759 3634 1313 
Q 3634 634 3220 271 
Q 2806 -91 2034 -91 
Q 1263 -91 848 271 
Q 434 634 434 1313 
Q 434 1759 690 2068 
Q 947 2378 1403 2484 
z
M 1172 3481 
Q 1172 3119 1398 2916 
Q 1625 2713 2034 2713 
Q 2441 2713 2670 2916 
Q 2900 3119 2900 3481 
Q 2900 3844 2670 4047 
Q 2441 4250 2034 4250 
Q 1625 4250 1398 4047 
Q 1172 3844 1172 3481 
z
" transform="scale(0.015625)"/>
       </defs>
       <use xlink:href="#DejaVuSans-38"/>
      </g>
     </g>
    </g>
    <g id="ytick_6">
     <g id="line2d_13">
      <g>
       <use xlink:href="#m5efdae3a28" x="57.6" y="41.681265" style="stroke: #000000; stroke-width: 0.8"/>
      </g>
     </g>
     <g id="text_14">
      <!-- 10 -->
      <g transform="translate(37.875 45.480483)scale(0.1 -0.1)">
       <use xlink:href="#DejaVuSans-31"/>
       <use xlink:href="#DejaVuSans-30" x="63.623047"/>
      </g>
     </g>
    </g>
    <g id="text_15">
     <!-- GFLOPS -->
     <g transform="translate(31.795312 194.007688)rotate(-90)scale(0.1 -0.1)">
      <defs>
       <path id="DejaVuSans-46" d="M 628 4666 
L 3309 4666 
L 3309 4134 
L 1259 4134 
L 1259 2759 
L 3109 2759 
L 3109 2228 
L 1259 2228 
L 1259 0 
L 628 0 
L 628 4666 
z
" transform="scale(0.015625)"/>
       <path id="DejaVuSans-4c" d="M 628 4666 
L 1259 4666 
L 1259 531 
L 3531 531 
L 3531 0 
L 628 0 
L 628 4666 
z
" transform="scale(0.015625)"/>
       <path id="DejaVuSans-4f" d="M 2522 4238 
Q 1834 4238 1429 3725 
Q 1025 3213 1025 2328 
Q 1025 1447 1429 934 
Q 1834 422 2522 422 
Q 3209 422 3611 934 
Q 4013 1447 4013 2328 
Q 4013 3213 3611 3725 
Q 3209 4238 2522 4238 
z
M 2522 4750 
Q 3503 4750 4090 4092 
Q 4678 3434 4678 2328 
Q 4678 1225 4090 567 
Q 3503 -91 2522 -91 
Q 1538 -91 948 565 
Q 359 1222 359 2328 
Q 359 3434 948 4092 
Q 1538 4750 2522 4750 
z
" transform="scale(0.015625)"/>
       <path id="DejaVuSans-50" d="M 1259 4147 
L 1259 2394 
L 2053 2394 
Q 2494 2394 2734 2622 
Q 2975 2850 2975 3272 
Q 2975 3691 2734 3919 
Q 2494 4147 2053 4147 
L 1259 4147 
z
M 628 4666 
L 2053 4666 
Q 2838 4666 3239 4311 
Q 3641 3956 3641 3272 
Q 3641 2581 3239 2228 
Q 2838 1875 2053 1875 
L 1259 1875 
L 1259 0 
L 628 0 
L 628 4666 
z
" transform="scale(0.015625)"/>
       <path id="DejaVuSans-53" d="M 3425 4513 
L 3425 3897 
Q 3066 4069 2747 4153 
Q 2428 4238 2131 4238 
Q 1616 4238 1336 4038 
Q 1056 3838 1056 3469 
Q 1056 3159 1242 3001 
Q 1428 2844 1947 2747 
L 2328 2669 
Q 3034 2534 3370 2195 
Q 3706 1856 3706 1288 
Q 3706 609 3251 259 
Q 2797 -91 1919 -91 
Q 1588 -91 1214 -16 
Q 841 59 441 206 
L 441 856 
Q 825 641 1194 531 
Q 1563 422 1919 422 
Q 2459 422 2753 634 
Q 3047 847 3047 1241 
Q 3047 1584 2836 1778 
Q 2625 1972 2144 2069 
L 1759 2144 
Q 1053 2284 737 2584 
Q 422 2884 422 3419 
Q 422 4038 858 4394 
Q 1294 4750 2059 4750 
Q 2388 4750 2728 4690 
Q 3069 4631 3425 4513 
z
" transform="scale(0.015625)"/>
      </defs>
      <use xlink:href="#DejaVuSans-47"/>
      <use xlink:href="#DejaVuSans-46" x="77.490234"/>
      <use xlink:href="#DejaVuSans-4c" x="135.009766"/>
      <use xlink:href="#DejaVuSans-4f" x="187.097656"/>
      <use xlink:href="#DejaVuSans-50" x="265.808594"/>
      <use xlink:href="#DejaVuSans-53" x="326.111328"/>
     </g>
    </g>
   </g>
   <g id="line2d_14">
    <path d="M 73.832727 234.063239 
L 73.832727 149.484346 
L 73.832727 295.46761 
L 73.832727 292.841176 
L 81.175823 259.064112 
L 81.176324 259.476464 
L 81.183914 270.043141 
L 81.205303 232.625762 
L 81.276586 233.264729 
L 86.558039 266.732176 
L 86.558039 259.52796 
L 86.590849 269.491229 
L 86.616302 262.461896 
L 86.673961 233.804196 
L 86.862404 232.489837 
L 88.530366 262.647268 
L 88.546887 267.707074 
L 88.613521 254.79243 
L 88.625371 266.562302 
L 88.691304 229.954726 
L 88.720445 232.98278 
L 88.924528 233.536833 
L 89.034772 233.264656 
L 93.295797 260.99014 
L 93.298494 259.869552 
L 93.320673 267.236474 
L 93.392445 260.540309 
L 93.44098 261.361431 
L 93.467771 268.913372 
L 93.571236 232.540057 
L 93.631015 235.598718 
L 93.936354 231.606962 
L 94.123636 233.239553 
L 95.919063 260.038473 
L 95.950456 267.316906 
L 96.032253 264.871626 
L 96.055536 256.540582 
L 96.120592 259.221576 
L 96.164304 268.679638 
L 96.299682 229.587545 
L 96.398111 241.243329 
L 96.773271 232.200091 
L 97.08986 235.078597 
L 99.370018 260.910104 
L 99.399878 260.496761 
L 99.444368 256.637175 
L 99.444368 266.564768 
L 99.515195 263.6926 
L 99.639223 263.821968 
L 99.639223 264.280514 
L 99.892081 243.233263 
L 100.41453 261.025691 
L 100.428865 259.651043 
L 100.444795 257.986441 
L 100.465379 262.380663 
L 100.489159 268.605227 
L 100.558241 264.853494 
L 100.586098 234.470754 
L 100.608628 259.664069 
L 100.765487 265.659862 
L 100.902947 234.372217 
L 101.090765 244.45927 
L 101.476217 230.069671 
L 102.000536 235.097288 
L 103.222475 143.318397 
L 103.223571 145.03316 
L 103.235467 167.129346 
L 103.261046 68.236647 
L 103.265335 93.86035 
L 103.334968 69.779586 
L 103.455225 271.34846 
L 103.491113 261.319281 
L 103.54988 201.228959 
L 103.608163 204.584501 
L 103.814387 263.708394 
L 104.01633 229.425713 
L 104.236816 244.229808 
L 104.758862 231.105477 
L 105.391257 239.007754 
L 106.068124 266.765184 
L 106.068124 262.561396 
L 106.086768 260.400225 
L 106.139091 265.770702 
L 106.166658 262.78826 
L 106.248851 264.050898 
L 106.292224 260.724975 
L 106.508401 265.487151 
L 106.791943 247.602303 
L 106.938449 248.166276 
L 107.700063 236.964685 
L 107.807622 266.513679 
L 107.879174 264.49266 
L 107.920664 266.729185 
L 108.033473 262.714381 
L 108.07036 244.210154 
L 108.105825 272.696501 
L 108.30023 264.155573 
L 108.447931 235.866499 
L 108.832661 247.419305 
L 109.245635 230.103556 
L 110.232064 245.264945 
L 110.880314 261.966411 
L 110.92943 257.955734 
L 110.979169 270.81529 
L 111.052022 266.844628 
L 111.244356 263.892361 
L 111.374645 264.831632 
L 111.574135 263.892586 
L 111.825561 228.410261 
L 111.825561 232.013407 
L 112.467203 265.896919 
L 112.467203 261.748154 
L 112.637338 264.645867 
L 112.848114 228.234114 
L 112.848114 231.383907 
L 112.921758 267.161608 
L 113.309745 263.190573 
L 113.429303 263.016061 
L 113.465929 252.687232 
L 113.565685 268.163698 
L 113.764723 264.19182 
L 113.764723 270.602674 
L 113.897053 243.62173 
L 114.03998 244.762788 
L 114.414545 253.193878 
L 115.168693 235.422398 
L 115.231777 266.793711 
L 115.364253 267.05568 
L 115.39739 268.171529 
L 115.601557 266.425808 
L 115.661061 267.350301 
L 116.00245 268.267856 
L 116.129588 242.467155 
L 116.777155 256.610162 
L 117.159202 229.221762 
L 118.552479 271.194907 
L 118.679857 267.124387 
L 118.713404 249.403844 
L 118.766637 265.569631 
L 118.963495 266.976535 
L 119.108131 264.444634 
L 119.389457 264.316987 
L 119.43886 264.486747 
L 119.471294 262.6285 
L 119.713814 232.330421 
L 119.749213 266.246499 
L 120.414191 256.707587 
L 120.572196 263.631085 
L 120.653749 257.974326 
L 120.906733 272.489412 
L 121.018603 228.626249 
L 121.280008 265.086107 
L 121.504996 256.373847 
L 121.991929 244.070269 
L 122.182465 262.754166 
L 122.522996 246.833598 
L 122.575116 249.887475 
L 122.856752 238.848477 
L 122.958703 268.765618 
L 123.28448 266.604033 
L 123.308894 268.692534 
L 123.839882 265.155509 
L 123.911712 243.993454 
L 124.369175 248.882576 
L 124.865213 130.8816 
L 124.884128 264.929501 
L 124.967028 118.878558 
L 125.175584 233.084909 
L 125.197663 66.542229 
L 125.951435 77.52645 
L 126.458249 266.03688 
L 126.763347 266.418938 
L 126.85019 263.741424 
L 126.903265 274.828141 
L 127.17087 265.179853 
L 127.339468 252.855169 
L 127.388481 254.436505 
L 127.402751 266.51242 
L 127.640653 252.794871 
L 127.66997 228.633369 
L 128.392251 275.45569 
L 128.392251 260.05293 
L 128.592559 260.736983 
L 128.987867 266.76362 
L 129.119707 254.649489 
L 129.2546 228.831121 
L 130.168345 267.101944 
L 131.031226 266.729064 
L 131.773413 243.826022 
L 131.793635 266.198178 
L 132.689364 147.011253 
L 132.749715 151.182706 
L 132.813336 151.124471 
L 132.9559 80.70235 
L 132.9559 84.132766 
L 133.128674 261.751309 
L 133.267034 74.492153 
L 133.267034 78.561758 
L 133.383598 70.92878 
L 134.199932 76.9655 
L 134.338998 260.749359 
L 134.640905 68.685322 
L 134.753829 266.472889 
L 135.062709 258.408406 
L 135.062709 261.205504 
L 135.459784 266.353786 
L 135.684996 232.113399 
L 136.021396 261.039646 
L 136.845589 259.684173 
L 136.949788 276.301151 
L 138.327747 265.275104 
L 138.327747 270.604575 
L 139.700983 251.84224 
L 141.493278 267.064587 
L 141.493278 276.761897 
L 143.751526 232.044966 
L 143.751526 234.473005 
L 145.408905 275.972567 
L 151.784509 151.416919 
L 151.784509 148.88203 
L 151.872556 149.563752 
L 151.906829 153.369963 
L 152.071597 143.457946 
L 152.265738 125.971143 
L 152.372901 129.946656 
L 152.786762 65.075877 
L 153.02588 71.226695 
L 154.247233 76.564762 
L 154.996364 66.197691 
L 162.30364 148.77713 
L 162.339451 156.075997 
L 162.429513 152.406919 
L 162.48506 155.417862 
L 162.630828 150.316551 
L 162.723961 153.710983 
L 162.984187 98.445935 
L 163.159034 134.501979 
L 163.700547 68.226899 
L 164.094263 82.848198 
L 165.594901 76.317876 
L 166.861257 73.193514 
L 176.101328 150.467861 
L 176.27929 154.218698 
L 176.562599 147.404087 
L 177.058708 141.397649 
L 178.070143 93.174538 
L 180.363334 152.571834 
L 180.458454 150.094672 
L 180.582909 155.681319 
L 180.73478 154.186274 
L 180.846209 64.332339 
L 180.936331 154.392514 
L 181.203576 131.26121 
L 181.563765 139.716137 
L 182.113606 69.4509 
L 182.864877 101.775646 
L 184.406687 67.904994 
L 186.503962 84.010955 
L 191.546001 293.567674 
L 191.563158 292.639349 
L 191.793945 295.147414 
L 191.841692 294.790946 
L 192.079073 147.903219 
L 192.17388 150.825919 
L 192.46627 156.389298 
L 192.70134 242.503365 
L 192.934469 259.782081 
L 193.340703 113.897617 
L 193.759365 151.606883 
L 194.567137 68.486542 
L 195.449082 147.829641 
L 197.537265 67.307765 
L 200.066848 72.752723 
L 200.066848 89.610826 
L 203.058182 153.258832 
L 203.058182 148.199227 
L 203.16845 152.190889 
L 203.670715 149.491975 
L 204.237444 146.963189 
L 204.535421 159.90554 
L 204.535421 140.597105 
L 205.669591 89.480326 
L 205.669591 101.677358 
L 206.255614 103.499844 
L 209.302071 65.844889 
L 209.434124 149.637309 
L 209.732306 152.494017 
L 210.018515 152.787101 
L 210.184474 149.020561 
L 210.635711 149.305444 
L 210.783256 86.629763 
L 210.925117 180.713599 
L 210.925117 135.865423 
L 211.702737 154.574467 
L 212.293543 71.477141 
L 213.832462 133.874055 
L 215.48436 67.220878 
L 219.430074 107.639145 
L 222.023073 150.185585 
L 222.219537 151.280867 
L 222.418493 157.550571 
L 222.709904 156.839668 
L 223.018478 152.89251 
L 223.47924 157.994202 
L 224.000397 138.687928 
L 224.798358 159.329291 
L 225.80406 64.695144 
L 227.398778 159.451356 
L 228.370632 156.492672 
L 229.05117 153.32902 
L 229.894276 66.38685 
L 230.188851 149.194377 
L 231.114033 157.177382 
L 231.425186 156.348609 
L 231.740797 150.171662 
L 232.219032 152.881702 
L 232.365533 130.36314 
L 232.764556 148.696325 
L 233.560711 153.86153 
L 234.090029 122.654443 
L 234.661738 118.621225 
L 236.16 132.534757 
L 237.785589 86.130465 
L 239.17659 59.916501 
L 239.428925 152.979036 
L 239.95883 156.895742 
L 240.09138 154.549863 
L 240.908046 156.49992 
L 241.146061 134.556654 
L 242.511617 156.825045 
L 242.710466 105.886067 
L 243.020169 90.853158 
L 245.610439 125.831531 
L 247.138624 64.160769 
L 252.711734 158.253972 
L 253.221245 156.500174 
L 253.355432 103.041014 
L 253.355432 127.092872 
L 253.568367 154.938501 
L 254.355799 153.227045 
L 254.934342 134.476549 
L 256.059648 153.499276 
L 256.257259 154.213993 
L 256.386994 152.170926 
L 257.357074 70.730254 
L 257.498671 148.94427 
L 258.028454 152.867842 
L 259.889787 148.727414 
L 260.15858 121.499295 
L 260.790604 149.366031 
L 261.116814 133.357236 
L 261.711337 157.153477 
L 262.128749 149.343081 
L 262.57623 61.406248 
L 263.621849 157.569262 
L 264.521803 138.499299 
L 266.469533 114.97586 
L 267.231679 136.789177 
L 268.593804 119.527178 
L 268.80228 120.16694 
L 269.928825 72.773004 
L 270.336632 154.143106 
L 271.639737 154.039923 
L 271.737393 144.901261 
L 273.861347 154.373695 
L 274.148667 79.212455 
L 275.978517 134.924312 
L 277.74637 284.204419 
L 277.96267 288.473745 
L 277.96267 288.45608 
L 278.038329 151.205593 
L 278.038329 154.058106 
L 278.369929 291.829891 
L 279.204153 65.956485 
L 279.29247 294.342059 
L 282.307559 295.163203 
L 284.334815 151.34546 
L 285.555207 151.718013 
L 285.902577 148.804213 
L 286.114879 144.690105 
L 287.185297 155.331653 
L 287.85969 141.740258 
L 288.055741 125.863827 
L 288.112822 155.045817 
L 289.064432 138.316264 
L 289.181699 76.059166 
L 291.312591 136.192837 
L 292.07082 148.292429 
L 292.07082 156.355857 
L 292.872053 151.794558 
L 294.453286 154.796855 
L 294.980646 130.040176 
L 295.52022 67.150945 
L 299.175197 143.740666 
L 302.626722 148.702365 
L 304.104827 141.720359 
L 305.59547 101.82727 
L 305.676359 154.866152 
L 309.054643 290.540954 
L 309.070695 289.078434 
L 309.259275 293.491871 
L 309.293589 292.755218 
L 309.500678 283.480343 
L 309.755162 293.26417 
L 309.850656 292.948992 
L 310.325419 293.021575 
L 310.515033 290.645943 
L 311.016513 147.893428 
L 311.569953 295.229931 
L 311.569953 295.158087 
L 312.036211 294.638359 
L 315.301546 295.181747 
L 315.857809 137.020274 
L 317.065436 294.772284 
L 317.179165 135.194445 
L 317.517133 126.465507 
L 317.517133 144.796658 
L 318.752653 155.614946 
L 318.752653 120.580775 
L 320.340953 149.691221 
L 321.241803 76.698991 
L 322.587404 140.951857 
L 325.884175 126.438636 
L 326.300969 143.899478 
L 331.812806 150.213304 
L 331.812806 140.775879 
L 337.305751 95.769209 
L 344.474929 145.853286 
L 344.474929 145.33756 
L 353.507922 69.864099 
L 360.137437 145.459117 
L 385.992042 284.002528 
L 386.129136 282.179331 
L 386.558897 287.391671 
L 386.788208 285.50772 
L 387.564769 291.072161 
L 387.993422 289.808283 
L 389.648866 293.961343 
L 390.605336 293.262615 
L 395.490749 294.874365 
L 398.487273 294.376073 
L 398.487273 294.376073 
" clip-path="url(#p123e135dca)" style="fill: none; stroke: #1f77b4; stroke-width: 1.5; stroke-linecap: square"/>
   </g>
   <g id="line2d_15"/>
   <g id="patch_3">
    <path d="M 57.6 307.584 
L 57.6 41.472 
" style="fill: none; stroke: #000000; stroke-width: 0.8; stroke-linejoin: miter; stroke-linecap: square"/>
   </g>
   <g id="patch_4">
    <path d="M 414.72 307.584 
L 414.72 41.472 
" style="fill: none; stroke: #000000; stroke-width: 0.8; stroke-linejoin: miter; stroke-linecap: square"/>
   </g>
   <g id="patch_5">
    <path d="M 57.6 307.584 
L 414.72 307.584 
" style="fill: none; stroke: #000000; stroke-width: 0.8; stroke-linejoin: miter; stroke-linecap: square"/>
   </g>
   <g id="patch_6">
    <path d="M 57.6 41.472 
L 414.72 41.472 
" style="fill: none; stroke: #000000; stroke-width: 0.8; stroke-linejoin: miter; stroke-linecap: square"/>
   </g>
   <g id="text_16">
    <!-- Global Cubeness -->
    <g transform="translate(185.874375 35.472)scale(0.12 -0.12)">
     <defs>
      <path id="DejaVuSans-43" d="M 4122 4306 
L 4122 3641 
Q 3803 3938 3442 4084 
Q 3081 4231 2675 4231 
Q 1875 4231 1450 3742 
Q 1025 3253 1025 2328 
Q 1025 1406 1450 917 
Q 1875 428 2675 428 
Q 3081 428 3442 575 
Q 3803 722 4122 1019 
L 4122 359 
Q 3791 134 3420 21 
Q 3050 -91 2638 -91 
Q 1578 -91 968 557 
Q 359 1206 359 2328 
Q 359 3453 968 4101 
Q 1578 4750 2638 4750 
Q 3056 4750 3426 4639 
Q 3797 4528 4122 4306 
z
" transform="scale(0.015625)"/>
      <path id="DejaVuSans-6e" d="M 3513 2113 
L 3513 0 
L 2938 0 
L 2938 2094 
Q 2938 2591 2744 2837 
Q 2550 3084 2163 3084 
Q 1697 3084 1428 2787 
Q 1159 2491 1159 1978 
L 1159 0 
L 581 0 
L 581 3500 
L 1159 3500 
L 1159 2956 
Q 1366 3272 1645 3428 
Q 1925 3584 2291 3584 
Q 2894 3584 3203 3211 
Q 3513 2838 3513 2113 
z
" transform="scale(0.015625)"/>
     </defs>
     <use xlink:href="#DejaVuSans-47"/>
     <use xlink:href="#DejaVuSans-6c" x="77.490234"/>
     <use xlink:href="#DejaVuSans-6f" x="105.273438"/>
     <use xlink:href="#DejaVuSans-62" x="166.455078"/>
     <use xlink:href="#DejaVuSans-61" x="229.931641"/>
     <use xlink:href="#DejaVuSans-6c" x="291.210938"/>
     <use xlink:href="#DejaVuSans-20" x="318.994141"/>
     <use xlink:href="#DejaVuSans-43" x="350.78125"/>
     <use xlink:href="#DejaVuSans-75" x="420.605469"/>
     <use xlink:href="#DejaVuSans-62" x="483.984375"/>
     <use xlink:href="#DejaVuSans-65" x="547.460938"/>
     <use xlink:href="#DejaVuSans-6e" x="608.984375"/>
     <use xlink:href="#DejaVuSans-65" x="672.363281"/>
     <use xlink:href="#DejaVuSans-73" x="733.886719"/>
     <use xlink:href="#DejaVuSans-73" x="785.986328"/>
    </g>
   </g>
   <g id="legend_1">
    <g id="patch_7">
     <path d="M 201.86 302.584 
L 270.46 302.584 
Q 272.46 302.584 272.46 300.584 
L 272.46 272.22775 
Q 272.46 270.22775 270.46 270.22775 
L 201.86 270.22775 
Q 199.86 270.22775 199.86 272.22775 
L 199.86 300.584 
Q 199.86 302.584 201.86 302.584 
z
" style="fill: #ffffff; opacity: 0.8; stroke: #cccccc; stroke-linejoin: miter"/>
    </g>
    <g id="text_17">
     <!-- Cluster -->
     <g transform="translate(218.413906 281.826187)scale(0.1 -0.1)">
      <defs>
       <path id="DejaVuSans-72" d="M 2631 2963 
Q 2534 3019 2420 3045 
Q 2306 3072 2169 3072 
Q 1681 3072 1420 2755 
Q 1159 2438 1159 1844 
L 1159 0 
L 581 0 
L 581 3500 
L 1159 3500 
L 1159 2956 
Q 1341 3275 1631 3429 
Q 1922 3584 2338 3584 
Q 2397 3584 2469 3576 
Q 2541 3569 2628 3553 
L 2631 2963 
z
" transform="scale(0.015625)"/>
      </defs>
      <use xlink:href="#DejaVuSans-43"/>
      <use xlink:href="#DejaVuSans-6c" x="69.824219"/>
      <use xlink:href="#DejaVuSans-75" x="97.607422"/>
      <use xlink:href="#DejaVuSans-73" x="160.986328"/>
      <use xlink:href="#DejaVuSans-74" x="213.085938"/>
      <use xlink:href="#DejaVuSans-65" x="252.294922"/>
      <use xlink:href="#DejaVuSans-72" x="313.818359"/>
     </g>
    </g>
    <g id="line2d_16">
     <path d="M 203.86 293.004312 
L 213.86 293.004312 
L 223.86 293.004312 
" style="fill: none; stroke: #1f77b4; stroke-width: 1.5; stroke-linecap: square"/>
    </g>
    <g id="text_18">
     <!-- Hopper -->
     <g transform="translate(231.86 296.504312)scale(0.1 -0.1)">
      <defs>
       <path id="DejaVuSans-48" d="M 628 4666 
L 1259 4666 
L 1259 2753 
L 3553 2753 
L 3553 4666 
L 4184 4666 
L 4184 0 
L 3553 0 
L 3553 2222 
L 1259 2222 
L 1259 0 
L 628 0 
L 628 4666 
z
" transform="scale(0.015625)"/>
       <path id="DejaVuSans-70" d="M 1159 525 
L 1159 -1331 
L 581 -1331 
L 581 3500 
L 1159 3500 
L 1159 2969 
Q 1341 3281 1617 3432 
Q 1894 3584 2278 3584 
Q 2916 3584 3314 3078 
Q 3713 2572 3713 1747 
Q 3713 922 3314 415 
Q 2916 -91 2278 -91 
Q 1894 -91 1617 61 
Q 1341 213 1159 525 
z
M 3116 1747 
Q 3116 2381 2855 2742 
Q 2594 3103 2138 3103 
Q 1681 3103 1420 2742 
Q 1159 2381 1159 1747 
Q 1159 1113 1420 752 
Q 1681 391 2138 391 
Q 2594 391 2855 752 
Q 3116 1113 3116 1747 
z
" transform="scale(0.015625)"/>
      </defs>
      <use xlink:href="#DejaVuSans-48"/>
      <use xlink:href="#DejaVuSans-6f" x="75.195312"/>
      <use xlink:href="#DejaVuSans-70" x="136.376953"/>
      <use xlink:href="#DejaVuSans-70" x="199.853516"/>
      <use xlink:href="#DejaVuSans-65" x="263.330078"/>
      <use xlink:href="#DejaVuSans-72" x="324.853516"/>
     </g>
    </g>
   </g>
  </g>
 </g>
 <defs>
  <clipPath id="p123e135dca">
   <rect x="57.6" y="41.472" width="357.12" height="266.112"/>
  </clipPath>
 </defs>
</svg>
