<?xml version="1.0" encoding="utf-8" standalone="no"?>
<!DOCTYPE svg PUBLIC "-//W3C//DTD SVG 1.1//EN"
  "http://www.w3.org/Graphics/SVG/1.1/DTD/svg11.dtd">
<svg xmlns:xlink="http://www.w3.org/1999/xlink" width="460.8pt" height="345.6pt" viewBox="0 0 460.8 345.6" xmlns="http://www.w3.org/2000/svg" version="1.1">
 <metadata>
  <rdf:RDF xmlns:dc="http://purl.org/dc/elements/1.1/" xmlns:cc="http://creativecommons.org/ns#" xmlns:rdf="http://www.w3.org/1999/02/22-rdf-syntax-ns#">
   <cc:Work>
    <dc:type rdf:resource="http://purl.org/dc/dcmitype/StillImage"/>
    <dc:date>2024-05-05T11:10:08.182496</dc:date>
    <dc:format>image/svg+xml</dc:format>
    <dc:creator>
     <cc:Agent>
      <dc:title>Matplotlib v3.5.3, https://matplotlib.org/</dc:title>
     </cc:Agent>
    </dc:creator>
   </cc:Work>
  </rdf:RDF>
 </metadata>
 <defs>
  <style type="text/css">*{stroke-linejoin: round; stroke-linecap: butt}</style>
 </defs>
 <g id="figure_1">
  <g id="patch_1">
   <path d="M 0 345.6 
L 460.8 345.6 
L 460.8 0 
L 0 0 
z
" style="fill: #ffffff"/>
  </g>
  <g id="axes_1">
   <g id="patch_2">
    <path d="M 57.6 307.584 
L 414.72 307.584 
L 414.72 41.472 
L 57.6 41.472 
z
" style="fill: #ffffff"/>
   </g>
   <g id="PolyCollection_1">
    <path d="M 73.832727 286.800885 
L 73.832727 288.004785 
L 75.143812 254.975087 
L 75.143812 251.936812 
L 75.143812 251.936812 
L 73.832727 286.800885 
z
" clip-path="url(#pe5c54ba014)" style="fill: #1f77b4; fill-opacity: 0.2; stroke: #1f77b4; stroke-opacity: 0.2"/>
    <path d="M 76.336169 191.433398 
L 76.336169 192.26776 
L 76.336169 191.433398 
L 76.336169 191.433398 
z
" clip-path="url(#pe5c54ba014)" style="fill: #1f77b4; fill-opacity: 0.2; stroke: #1f77b4; stroke-opacity: 0.2"/>
    <path d="M 76.662442 242.92344 
L 76.662442 254.630322 
L 76.662442 242.92344 
L 76.662442 242.92344 
z
" clip-path="url(#pe5c54ba014)" style="fill: #1f77b4; fill-opacity: 0.2; stroke: #1f77b4; stroke-opacity: 0.2"/>
    <path d="M 78.620864 286.939945 
L 78.620864 287.467831 
L 78.718746 183.345822 
L 78.718746 176.068158 
L 78.718746 176.068158 
L 78.620864 286.939945 
z
" clip-path="url(#pe5c54ba014)" style="fill: #1f77b4; fill-opacity: 0.2; stroke: #1f77b4; stroke-opacity: 0.2"/>
    <path d="M 78.888174 243.745238 
L 78.888174 248.190247 
L 78.959391 227.256308 
L 78.959391 226.531292 
L 78.959391 226.531292 
L 78.888174 243.745238 
z
" clip-path="url(#pe5c54ba014)" style="fill: #1f77b4; fill-opacity: 0.2; stroke: #1f77b4; stroke-opacity: 0.2"/>
    <path d="M 79.234427 185.515211 
L 79.234427 282.449227 
L 79.393335 274.581324 
L 79.442015 240.546594 
L 79.574603 201.521474 
L 79.839149 158.753355 
L 79.839149 157.337961 
L 79.839149 157.337961 
L 79.574603 193.799632 
L 79.442015 235.254174 
L 79.393335 163.195704 
L 79.234427 185.515211 
z
" clip-path="url(#pe5c54ba014)" style="fill: #1f77b4; fill-opacity: 0.2; stroke: #1f77b4; stroke-opacity: 0.2"/>
    <path d="M 80.205 265.132211 
L 80.205 290.794036 
L 80.702843 288.090411 
L 81.242995 261.172104 
L 81.705197 270.671169 
L 81.705197 268.6244 
L 81.705197 268.6244 
L 81.242995 258.120076 
L 80.702843 251.37163 
L 80.205 265.132211 
z
" clip-path="url(#pe5c54ba014)" style="fill: #1f77b4; fill-opacity: 0.2; stroke: #1f77b4; stroke-opacity: 0.2"/>
    <path d="M 82.009164 136.723742 
L 82.009164 158.051771 
L 82.280527 83.088876 
L 82.359615 233.380399 
L 82.813363 161.122645 
L 82.879436 245.514395 
L 82.982345 267.345095 
L 83.843041 216.930521 
L 84.350828 285.509915 
L 84.350828 284.114116 
L 84.350828 284.114116 
L 83.843041 214.142522 
L 82.982345 266.322263 
L 82.879436 244.94924 
L 82.813363 148.933212 
L 82.359615 217.601203 
L 82.280527 81.760077 
L 82.009164 136.723742 
z
" clip-path="url(#pe5c54ba014)" style="fill: #1f77b4; fill-opacity: 0.2; stroke: #1f77b4; stroke-opacity: 0.2"/>
    <path d="M 86.487307 180.316376 
L 86.487307 292.181283 
L 86.487307 291.20623 
L 86.748955 266.961703 
L 86.941194 238.029669 
L 87.315111 109.532086 
L 87.315111 105.245154 
L 87.315111 105.245154 
L 86.941194 235.340828 
L 86.748955 66.067476 
L 86.487307 180.991133 
L 86.487307 180.316376 
z
" clip-path="url(#pe5c54ba014)" style="fill: #1f77b4; fill-opacity: 0.2; stroke: #1f77b4; stroke-opacity: 0.2"/>
    <path d="M 87.423882 93.977017 
L 87.423882 95.349283 
L 87.746221 294.752831 
L 87.746221 295.488 
L 87.793271 197.652913 
L 87.969308 154.661006 
L 88.587793 280.806101 
L 88.677107 230.414117 
L 88.887117 143.085544 
L 88.99551 228.666948 
L 89.193058 94.457531 
L 89.331756 188.600233 
L 89.331756 180.457984 
L 89.331756 180.457984 
L 89.193058 75.642438 
L 88.99551 222.632507 
L 88.887117 128.839578 
L 88.677107 222.993147 
L 88.587793 218.936981 
L 87.969308 145.792382 
L 87.793271 157.444591 
L 87.746221 282.028821 
L 87.746221 282.330611 
L 87.423882 93.977017 
z
" clip-path="url(#pe5c54ba014)" style="fill: #1f77b4; fill-opacity: 0.2; stroke: #1f77b4; stroke-opacity: 0.2"/>
    <path d="M 90.126922 241.627326 
L 90.126922 243.484691 
L 90.774115 252.37751 
L 91.027361 213.038189 
L 91.027361 199.684315 
L 91.027361 199.684315 
L 90.774115 251.405615 
L 90.126922 241.627326 
z
" clip-path="url(#pe5c54ba014)" style="fill: #1f77b4; fill-opacity: 0.2; stroke: #1f77b4; stroke-opacity: 0.2"/>
    <path d="M 91.479969 232.9532 
L 91.479969 235.534732 
L 91.479969 232.9532 
L 91.479969 232.9532 
z
" clip-path="url(#pe5c54ba014)" style="fill: #1f77b4; fill-opacity: 0.2; stroke: #1f77b4; stroke-opacity: 0.2"/>
    <path d="M 91.923571 265.763984 
L 91.923571 266.15213 
L 91.923571 265.905251 
L 92.059077 156.131752 
L 92.492074 59.417366 
L 92.524523 215.455361 
L 92.524523 208.888619 
L 92.524523 208.888619 
L 92.492074 54.804092 
L 92.059077 140.200083 
L 91.923571 263.526792 
L 91.923571 265.763984 
z
" clip-path="url(#pe5c54ba014)" style="fill: #1f77b4; fill-opacity: 0.2; stroke: #1f77b4; stroke-opacity: 0.2"/>
    <path d="M 93.325743 257.322899 
L 93.325743 260.825217 
L 93.933766 222.488523 
L 94.618202 192.555729 
L 94.618202 186.999426 
L 94.618202 186.999426 
L 93.933766 220.530811 
L 93.325743 257.322899 
z
" clip-path="url(#pe5c54ba014)" style="fill: #1f77b4; fill-opacity: 0.2; stroke: #1f77b4; stroke-opacity: 0.2"/>
    <path d="M 95.005583 279.062275 
L 95.005583 281.405732 
L 95.034929 276.914421 
L 95.364624 220.648307 
L 96.036785 266.679507 
L 96.688413 155.102468 
L 96.710403 167.536743 
L 96.710403 161.595349 
L 96.710403 161.595349 
L 96.688413 146.190037 
L 96.036785 265.966886 
L 95.364624 220.00649 
L 95.034929 156.059081 
L 95.005583 279.062275 
z
" clip-path="url(#pe5c54ba014)" style="fill: #1f77b4; fill-opacity: 0.2; stroke: #1f77b4; stroke-opacity: 0.2"/>
    <path d="M 97.23134 153.782497 
L 97.23134 187.838882 
L 97.301884 231.247121 
L 97.657563 134.333398 
L 97.657563 132.596756 
L 97.657563 132.596756 
L 97.301884 226.371008 
L 97.23134 153.782497 
z
" clip-path="url(#pe5c54ba014)" style="fill: #1f77b4; fill-opacity: 0.2; stroke: #1f77b4; stroke-opacity: 0.2"/>
    <path d="M 97.881651 237.59063 
L 97.881651 283.262123 
L 97.946794 220.856813 
L 97.946794 213.550624 
L 97.946794 213.550624 
L 97.881651 237.59063 
z
" clip-path="url(#pe5c54ba014)" style="fill: #1f77b4; fill-opacity: 0.2; stroke: #1f77b4; stroke-opacity: 0.2"/>
    <path d="M 98.119143 232.490005 
L 98.119143 234.128676 
L 98.281963 225.153593 
L 98.281963 220.482929 
L 98.281963 220.482929 
L 98.119143 232.490005 
z
" clip-path="url(#pe5c54ba014)" style="fill: #1f77b4; fill-opacity: 0.2; stroke: #1f77b4; stroke-opacity: 0.2"/>
    <path d="M 98.358511 204.568918 
L 98.358511 209.983954 
L 98.723914 277.148896 
L 99.028983 200.891203 
L 99.028983 193.898452 
L 99.028983 193.898452 
L 98.723914 276.644832 
L 98.358511 204.568918 
z
" clip-path="url(#pe5c54ba014)" style="fill: #1f77b4; fill-opacity: 0.2; stroke: #1f77b4; stroke-opacity: 0.2"/>
    <path d="M 99.280928 173.875452 
L 99.280928 179.61683 
L 99.280928 173.875452 
L 99.280928 173.875452 
z
" clip-path="url(#pe5c54ba014)" style="fill: #1f77b4; fill-opacity: 0.2; stroke: #1f77b4; stroke-opacity: 0.2"/>
    <path d="M 100.072575 104.118069 
L 100.072575 112.843387 
L 100.247807 283.732621 
L 100.427097 281.508949 
L 101.641575 273.285584 
L 102.78845 205.507448 
L 102.78845 200.080782 
L 102.78845 200.080782 
L 101.641575 206.314049 
L 100.427097 279.575245 
L 100.247807 241.498958 
L 100.072575 104.118069 
z
" clip-path="url(#pe5c54ba014)" style="fill: #1f77b4; fill-opacity: 0.2; stroke: #1f77b4; stroke-opacity: 0.2"/>
    <path d="M 103.774908 253.860312 
L 103.774908 259.459233 
L 103.801785 158.862702 
L 105.346578 247.6301 
L 105.576215 166.803237 
L 105.576215 162.918715 
L 105.576215 162.918715 
L 105.346578 245.818749 
L 103.801785 106.764801 
L 103.774908 253.860312 
z
" clip-path="url(#pe5c54ba014)" style="fill: #1f77b4; fill-opacity: 0.2; stroke: #1f77b4; stroke-opacity: 0.2"/>
    <path d="M 106.185008 251.547223 
L 106.185008 253.212891 
L 106.185008 251.547223 
L 106.185008 251.547223 
z
" clip-path="url(#pe5c54ba014)" style="fill: #1f77b4; fill-opacity: 0.2; stroke: #1f77b4; stroke-opacity: 0.2"/>
    <path d="M 107.000049 287.845655 
L 107.000049 293.201925 
L 107.184884 205.648801 
L 107.184884 202.157858 
L 107.184884 202.157858 
L 107.000049 287.845655 
z
" clip-path="url(#pe5c54ba014)" style="fill: #1f77b4; fill-opacity: 0.2; stroke: #1f77b4; stroke-opacity: 0.2"/>
    <path d="M 107.623946 179.499333 
L 107.623946 184.069819 
L 107.623946 179.499333 
L 107.623946 179.499333 
z
" clip-path="url(#pe5c54ba014)" style="fill: #1f77b4; fill-opacity: 0.2; stroke: #1f77b4; stroke-opacity: 0.2"/>
    <path d="M 108.146785 216.809289 
L 108.146785 222.928739 
L 108.146785 216.809289 
L 108.146785 216.809289 
z
" clip-path="url(#pe5c54ba014)" style="fill: #1f77b4; fill-opacity: 0.2; stroke: #1f77b4; stroke-opacity: 0.2"/>
    <path d="M 108.973881 274.572671 
L 108.973881 291.542047 
L 109.420999 163.856651 
L 110.516452 231.997945 
L 110.654945 264.949657 
L 112.486422 155.662105 
L 112.486422 145.864714 
L 112.486422 145.864714 
L 110.654945 157.376334 
L 110.516452 229.976221 
L 109.420999 156.16673 
L 108.973881 274.572671 
z
" clip-path="url(#pe5c54ba014)" style="fill: #1f77b4; fill-opacity: 0.2; stroke: #1f77b4; stroke-opacity: 0.2"/>
    <path d="M 113.426561 210.076661 
L 113.426561 214.650203 
L 113.624585 193.26852 
L 114.311621 252.216546 
L 114.378311 260.079996 
L 114.378311 263.322362 
L 114.767759 244.445464 
L 116.6938 156.69954 
L 116.792317 278.83539 
L 116.792317 277.558241 
L 116.792317 277.558241 
L 116.6938 156.16605 
L 114.767759 242.995093 
L 114.378311 261.100451 
L 114.378311 258.789909 
L 114.311621 249.543411 
L 113.624585 188.149603 
L 113.426561 210.076661 
z
" clip-path="url(#pe5c54ba014)" style="fill: #1f77b4; fill-opacity: 0.2; stroke: #1f77b4; stroke-opacity: 0.2"/>
    <path d="M 117.776655 265.665504 
L 117.776655 267.26716 
L 117.870931 227.579254 
L 118.387707 168.207425 
L 118.780333 272.181222 
L 119.695289 273.651884 
L 119.803039 232.644517 
L 120.900827 288.018894 
L 120.900827 287.475438 
L 120.900827 287.475438 
L 119.803039 228.955596 
L 119.695289 270.096759 
L 118.780333 270.863544 
L 118.387707 164.10319 
L 117.870931 222.053853 
L 117.776655 265.665504 
z
" clip-path="url(#pe5c54ba014)" style="fill: #1f77b4; fill-opacity: 0.2; stroke: #1f77b4; stroke-opacity: 0.2"/>
    <path d="M 123.522996 253.231908 
L 123.522996 254.166788 
L 123.522996 253.231908 
L 123.522996 253.231908 
z
" clip-path="url(#pe5c54ba014)" style="fill: #1f77b4; fill-opacity: 0.2; stroke: #1f77b4; stroke-opacity: 0.2"/>
    <path d="M 126.560256 245.009176 
L 126.560256 246.487394 
L 126.560256 245.009176 
L 126.560256 245.009176 
z
" clip-path="url(#pe5c54ba014)" style="fill: #1f77b4; fill-opacity: 0.2; stroke: #1f77b4; stroke-opacity: 0.2"/>
    <path d="M 130.4771 287.576567 
L 130.4771 287.776956 
L 130.672863 188.561521 
L 130.672863 177.733147 
L 130.672863 177.733147 
L 130.4771 287.576567 
z
" clip-path="url(#pe5c54ba014)" style="fill: #1f77b4; fill-opacity: 0.2; stroke: #1f77b4; stroke-opacity: 0.2"/>
    <path d="M 131.154154 185.52834 
L 131.154154 187.190952 
L 131.704226 269.036572 
L 131.704226 139.663877 
L 131.704226 139.663877 
L 131.154154 185.52834 
z
" clip-path="url(#pe5c54ba014)" style="fill: #1f77b4; fill-opacity: 0.2; stroke: #1f77b4; stroke-opacity: 0.2"/>
    <path d="M 132.119402 233.200419 
L 132.119402 238.54482 
L 132.119402 233.200419 
L 132.119402 233.200419 
z
" clip-path="url(#pe5c54ba014)" style="fill: #1f77b4; fill-opacity: 0.2; stroke: #1f77b4; stroke-opacity: 0.2"/>
    <path d="M 132.913671 156.057723 
L 132.913671 158.418863 
L 132.913671 156.057723 
L 132.913671 156.057723 
z
" clip-path="url(#pe5c54ba014)" style="fill: #1f77b4; fill-opacity: 0.2; stroke: #1f77b4; stroke-opacity: 0.2"/>
    <path d="M 133.645371 251.955235 
L 133.645371 287.360302 
L 134.641058 276.272264 
L 135.721361 260.989407 
L 136.645767 272.305001 
L 136.645767 271.019244 
L 136.645767 271.019244 
L 135.721361 256.722596 
L 134.641058 219.060404 
L 133.645371 251.955235 
z
" clip-path="url(#pe5c54ba014)" style="fill: #1f77b4; fill-opacity: 0.2; stroke: #1f77b4; stroke-opacity: 0.2"/>
    <path d="M 137.954601 214.090565 
L 137.954601 224.076766 
L 138.862097 148.86869 
L 138.994244 247.648098 
L 139.200061 268.605808 
L 140.921455 221.899002 
L 141.937027 284.283683 
L 141.937027 283.35959 
L 141.937027 283.35959 
L 140.921455 219.823453 
L 139.200061 265.629847 
L 138.994244 247.081669 
L 138.862097 141.582876 
L 137.954601 214.090565 
z
" clip-path="url(#pe5c54ba014)" style="fill: #1f77b4; fill-opacity: 0.2; stroke: #1f77b4; stroke-opacity: 0.2"/>
    <path d="M 146.068477 231.972476 
L 146.068477 235.938839 
L 146.068477 231.972476 
L 146.068477 231.972476 
z
" clip-path="url(#pe5c54ba014)" style="fill: #1f77b4; fill-opacity: 0.2; stroke: #1f77b4; stroke-opacity: 0.2"/>
    <path d="M 147.11776 229.738001 
L 147.11776 240.072278 
L 147.11776 229.738001 
L 147.11776 229.738001 
z
" clip-path="url(#pe5c54ba014)" style="fill: #1f77b4; fill-opacity: 0.2; stroke: #1f77b4; stroke-opacity: 0.2"/>
    <path d="M 148.727814 278.710184 
L 148.727814 287.811526 
L 148.727814 278.710184 
L 148.727814 278.710184 
z
" clip-path="url(#pe5c54ba014)" style="fill: #1f77b4; fill-opacity: 0.2; stroke: #1f77b4; stroke-opacity: 0.2"/>
    <path d="M 149.173987 145.802909 
L 149.173987 154.69089 
L 149.173987 145.802909 
L 149.173987 145.802909 
z
" clip-path="url(#pe5c54ba014)" style="fill: #1f77b4; fill-opacity: 0.2; stroke: #1f77b4; stroke-opacity: 0.2"/>
    <path d="M 150.589587 226.437906 
L 150.589587 231.582292 
L 150.589587 226.437906 
L 150.589587 226.437906 
z
" clip-path="url(#pe5c54ba014)" style="fill: #1f77b4; fill-opacity: 0.2; stroke: #1f77b4; stroke-opacity: 0.2"/>
    <path d="M 151.226391 217.632445 
L 151.226391 221.829726 
L 151.898884 186.169478 
L 151.898884 182.57666 
L 151.898884 182.57666 
L 151.226391 217.632445 
z
" clip-path="url(#pe5c54ba014)" style="fill: #1f77b4; fill-opacity: 0.2; stroke: #1f77b4; stroke-opacity: 0.2"/>
    <path d="M 153.489216 239.277307 
L 153.489216 243.160471 
L 154.783602 253.454337 
L 155.290095 212.215033 
L 155.290095 209.239921 
L 155.290095 209.239921 
L 154.783602 251.951669 
L 153.489216 239.277307 
z
" clip-path="url(#pe5c54ba014)" style="fill: #1f77b4; fill-opacity: 0.2; stroke: #1f77b4; stroke-opacity: 0.2"/>
    <path d="M 157.082514 264.84065 
L 157.082514 270.693412 
L 157.082514 265.777567 
L 157.082514 264.544871 
L 157.082514 264.544871 
L 157.082514 264.84065 
z
" clip-path="url(#pe5c54ba014)" style="fill: #1f77b4; fill-opacity: 0.2; stroke: #1f77b4; stroke-opacity: 0.2"/>
    <path d="M 158.284418 209.522456 
L 158.284418 214.797922 
L 158.284418 209.522456 
L 158.284418 209.522456 
z
" clip-path="url(#pe5c54ba014)" style="fill: #1f77b4; fill-opacity: 0.2; stroke: #1f77b4; stroke-opacity: 0.2"/>
    <path d="M 159.886857 257.950114 
L 159.886857 260.201568 
L 161.102905 229.621863 
L 162.471776 193.385677 
L 163.246538 282.128472 
L 163.964621 172.329997 
L 163.964621 162.446351 
L 163.964621 162.446351 
L 163.246538 279.579439 
L 162.471776 192.486793 
L 161.102905 219.970154 
L 159.886857 257.950114 
z
" clip-path="url(#pe5c54ba014)" style="fill: #1f77b4; fill-opacity: 0.2; stroke: #1f77b4; stroke-opacity: 0.2"/>
    <path d="M 166.612197 134.550393 
L 166.612197 141.35807 
L 166.612197 134.550393 
L 166.612197 134.550393 
z
" clip-path="url(#pe5c54ba014)" style="fill: #1f77b4; fill-opacity: 0.2; stroke: #1f77b4; stroke-opacity: 0.2"/>
    <path d="M 167.698052 148.459489 
L 167.698052 154.371339 
L 167.839139 229.974353 
L 168.550498 130.210146 
L 168.998673 268.228789 
L 169.128961 218.050815 
L 169.128961 215.142602 
L 169.128961 215.142602 
L 168.998673 209.496478 
L 168.550498 126.73041 
L 167.839139 225.400811 
L 167.698052 148.459489 
z
" clip-path="url(#pe5c54ba014)" style="fill: #1f77b4; fill-opacity: 0.2; stroke: #1f77b4; stroke-opacity: 0.2"/>
    <path d="M 169.473658 192.652172 
L 169.473658 194.798694 
L 169.799298 227.530693 
L 169.799298 222.779548 
L 169.799298 222.779548 
L 169.473658 192.652172 
z
" clip-path="url(#pe5c54ba014)" style="fill: #1f77b4; fill-opacity: 0.2; stroke: #1f77b4; stroke-opacity: 0.2"/>
    <path d="M 170.683199 259.634459 
L 170.683199 259.726827 
L 171.293338 200.158037 
L 171.797228 182.391585 
L 171.797228 171.635883 
L 171.797228 171.635883 
L 171.293338 194.707345 
L 170.683199 259.634459 
z
" clip-path="url(#pe5c54ba014)" style="fill: #1f77b4; fill-opacity: 0.2; stroke: #1f77b4; stroke-opacity: 0.2"/>
    <path d="M 173.380522 108.947998 
L 173.380522 115.019453 
L 173.730986 241.314483 
L 174.089565 282.565706 
L 176.518522 254.68958 
L 178.812272 201.963276 
L 178.812272 196.008298 
L 178.812272 196.008298 
L 176.518522 178.94428 
L 174.089565 280.7423 
L 173.730986 236.201339 
L 173.380522 108.947998 
z
" clip-path="url(#pe5c54ba014)" style="fill: #1f77b4; fill-opacity: 0.2; stroke: #1f77b4; stroke-opacity: 0.2"/>
    <path d="M 180.785187 254.49262 
L 180.785187 257.786316 
L 180.838942 102.909483 
L 184.387802 174.757356 
L 184.387802 173.637742 
L 184.387802 173.637742 
L 180.838942 96.023361 
L 180.785187 254.49262 
z
" clip-path="url(#pe5c54ba014)" style="fill: #1f77b4; fill-opacity: 0.2; stroke: #1f77b4; stroke-opacity: 0.2"/>
    <path d="M 187.23547 273.403986 
L 187.23547 276.912179 
L 187.605141 208.490795 
L 187.605141 203.837789 
L 187.605141 203.837789 
L 187.23547 273.403986 
z
" clip-path="url(#pe5c54ba014)" style="fill: #1f77b4; fill-opacity: 0.2; stroke: #1f77b4; stroke-opacity: 0.2"/>
    <path d="M 188.483263 177.823137 
L 188.483263 179.226985 
L 188.483263 177.823137 
L 188.483263 177.823137 
z
" clip-path="url(#pe5c54ba014)" style="fill: #1f77b4; fill-opacity: 0.2; stroke: #1f77b4; stroke-opacity: 0.2"/>
    <path d="M 189.528942 216.247275 
L 189.528942 218.901817 
L 189.528942 216.247275 
L 189.528942 216.247275 
z
" clip-path="url(#pe5c54ba014)" style="fill: #1f77b4; fill-opacity: 0.2; stroke: #1f77b4; stroke-opacity: 0.2"/>
    <path d="M 191.183135 273.419607 
L 191.183135 274.519186 
L 192.077369 170.290105 
L 194.268276 232.635687 
L 194.268276 229.179383 
L 194.268276 229.179383 
L 192.077369 162.976444 
L 191.183135 273.419607 
z
" clip-path="url(#pe5c54ba014)" style="fill: #1f77b4; fill-opacity: 0.2; stroke: #1f77b4; stroke-opacity: 0.2"/>
    <path d="M 198.208215 146.13876 
L 198.208215 146.424012 
L 200.088494 156.995659 
L 201.858614 251.141248 
L 201.858614 248.069015 
L 201.858614 248.069015 
L 200.088494 156.947098 
L 198.208215 146.13876 
z
" clip-path="url(#pe5c54ba014)" style="fill: #1f77b4; fill-opacity: 0.2; stroke: #1f77b4; stroke-opacity: 0.2"/>
    <path d="M 202.77089 211.083872 
L 202.77089 211.365728 
L 206.622972 163.791111 
L 206.820005 260.863081 
L 206.820005 259.587596 
L 206.820005 259.587596 
L 206.622972 146.83559 
L 202.77089 211.083872 
z
" clip-path="url(#pe5c54ba014)" style="fill: #1f77b4; fill-opacity: 0.2; stroke: #1f77b4; stroke-opacity: 0.2"/>
    <path d="M 210.796038 251.413765 
L 210.796038 253.002348 
L 212.62595 271.269689 
L 215.037025 276.972388 
L 215.037025 276.740587 
L 215.037025 276.740587 
L 212.62595 270.397293 
L 210.796038 251.413765 
z
" clip-path="url(#pe5c54ba014)" style="fill: #1f77b4; fill-opacity: 0.2; stroke: #1f77b4; stroke-opacity: 0.2"/>
    <path d="M 226.355883 210.125561 
L 226.355883 211.203067 
L 226.355883 210.125561 
L 226.355883 210.125561 
z
" clip-path="url(#pe5c54ba014)" style="fill: #1f77b4; fill-opacity: 0.2; stroke: #1f77b4; stroke-opacity: 0.2"/>
    <path d="M 234.189572 275.772258 
L 234.189572 276.786804 
L 234.189572 275.772258 
L 234.189572 275.772258 
z
" clip-path="url(#pe5c54ba014)" style="fill: #1f77b4; fill-opacity: 0.2; stroke: #1f77b4; stroke-opacity: 0.2"/>
    <path d="M 240.526114 220.740675 
L 240.526114 221.068714 
L 240.526114 220.740675 
L 240.526114 220.740675 
z
" clip-path="url(#pe5c54ba014)" style="fill: #1f77b4; fill-opacity: 0.2; stroke: #1f77b4; stroke-opacity: 0.2"/>
    <path d="M 255.078281 166.49761 
L 255.078281 167.922173 
L 257.109427 271.489061 
L 257.109427 270.865242 
L 257.109427 270.865242 
L 255.078281 166.49761 
z
" clip-path="url(#pe5c54ba014)" style="fill: #1f77b4; fill-opacity: 0.2; stroke: #1f77b4; stroke-opacity: 0.2"/>
    <path d="M 280.213804 210.144238 
L 280.213804 211.601741 
L 280.213804 210.144238 
L 280.213804 210.144238 
z
" clip-path="url(#pe5c54ba014)" style="fill: #1f77b4; fill-opacity: 0.2; stroke: #1f77b4; stroke-opacity: 0.2"/>
    <path d="M 287.4004 243.715015 
L 287.4004 244.119462 
L 287.4004 243.715015 
L 287.4004 243.715015 
z
" clip-path="url(#pe5c54ba014)" style="fill: #1f77b4; fill-opacity: 0.2; stroke: #1f77b4; stroke-opacity: 0.2"/>
    <path d="M 293.009087 234.492882 
L 293.009087 236.403392 
L 293.009087 234.492882 
L 293.009087 234.492882 
z
" clip-path="url(#pe5c54ba014)" style="fill: #1f77b4; fill-opacity: 0.2; stroke: #1f77b4; stroke-opacity: 0.2"/>
    <path d="M 299.728448 264.085411 
L 299.728448 265.932758 
L 299.728448 264.085411 
L 299.728448 264.085411 
z
" clip-path="url(#pe5c54ba014)" style="fill: #1f77b4; fill-opacity: 0.2; stroke: #1f77b4; stroke-opacity: 0.2"/>
    <path d="M 312.833968 171.486126 
L 312.833968 182.261524 
L 312.833968 171.486126 
L 312.833968 171.486126 
z
" clip-path="url(#pe5c54ba014)" style="fill: #1f77b4; fill-opacity: 0.2; stroke: #1f77b4; stroke-opacity: 0.2"/>
    <path d="M 321.414503 265.706594 
L 321.414503 266.270985 
L 321.414503 265.706594 
L 321.414503 265.706594 
z
" clip-path="url(#pe5c54ba014)" style="fill: #1f77b4; fill-opacity: 0.2; stroke: #1f77b4; stroke-opacity: 0.2"/>
    <path d="M 348.445654 141.667773 
L 348.445654 141.836886 
L 348.445654 141.667773 
L 348.445654 141.667773 
z
" clip-path="url(#pe5c54ba014)" style="fill: #1f77b4; fill-opacity: 0.2; stroke: #1f77b4; stroke-opacity: 0.2"/>
    <path d="M 369.651803 53.568 
L 369.651803 56.521718 
L 369.651803 53.568 
L 369.651803 53.568 
z
" clip-path="url(#pe5c54ba014)" style="fill: #1f77b4; fill-opacity: 0.2; stroke: #1f77b4; stroke-opacity: 0.2"/>
   </g>
   <g id="matplotlib.axis_1">
    <g id="xtick_1">
     <g id="line2d_1">
      <defs>
       <path id="me123e331f6" d="M 0 0 
L 0 3.5 
" style="stroke: #000000; stroke-width: 0.8"/>
      </defs>
      <g>
       <use xlink:href="#me123e331f6" x="73.442872" y="307.584" style="stroke: #000000; stroke-width: 0.8"/>
      </g>
     </g>
     <g id="text_1">
      <!-- 500 -->
      <g transform="translate(63.899122 322.182437)scale(0.1 -0.1)">
       <defs>
        <path id="DejaVuSans-35" d="M 691 4666 
L 3169 4666 
L 3169 4134 
L 1269 4134 
L 1269 2991 
Q 1406 3038 1543 3061 
Q 1681 3084 1819 3084 
Q 2600 3084 3056 2656 
Q 3513 2228 3513 1497 
Q 3513 744 3044 326 
Q 2575 -91 1722 -91 
Q 1428 -91 1123 -41 
Q 819 9 494 109 
L 494 744 
Q 775 591 1075 516 
Q 1375 441 1709 441 
Q 2250 441 2565 725 
Q 2881 1009 2881 1497 
Q 2881 1984 2565 2268 
Q 2250 2553 1709 2553 
Q 1456 2553 1204 2497 
Q 953 2441 691 2322 
L 691 4666 
z
" transform="scale(0.015625)"/>
        <path id="DejaVuSans-30" d="M 2034 4250 
Q 1547 4250 1301 3770 
Q 1056 3291 1056 2328 
Q 1056 1369 1301 889 
Q 1547 409 2034 409 
Q 2525 409 2770 889 
Q 3016 1369 3016 2328 
Q 3016 3291 2770 3770 
Q 2525 4250 2034 4250 
z
M 2034 4750 
Q 2819 4750 3233 4129 
Q 3647 3509 3647 2328 
Q 3647 1150 3233 529 
Q 2819 -91 2034 -91 
Q 1250 -91 836 529 
Q 422 1150 422 2328 
Q 422 3509 836 4129 
Q 1250 4750 2034 4750 
z
" transform="scale(0.015625)"/>
       </defs>
       <use xlink:href="#DejaVuSans-35"/>
       <use xlink:href="#DejaVuSans-30" x="63.623047"/>
       <use xlink:href="#DejaVuSans-30" x="127.246094"/>
      </g>
     </g>
    </g>
    <g id="xtick_2">
     <g id="line2d_2">
      <g>
       <use xlink:href="#me123e331f6" x="120.121115" y="307.584" style="stroke: #000000; stroke-width: 0.8"/>
      </g>
     </g>
     <g id="text_2">
      <!-- 1000 -->
      <g transform="translate(107.396115 322.182437)scale(0.1 -0.1)">
       <defs>
        <path id="DejaVuSans-31" d="M 794 531 
L 1825 531 
L 1825 4091 
L 703 3866 
L 703 4441 
L 1819 4666 
L 2450 4666 
L 2450 531 
L 3481 531 
L 3481 0 
L 794 0 
L 794 531 
z
" transform="scale(0.015625)"/>
       </defs>
       <use xlink:href="#DejaVuSans-31"/>
       <use xlink:href="#DejaVuSans-30" x="63.623047"/>
       <use xlink:href="#DejaVuSans-30" x="127.246094"/>
       <use xlink:href="#DejaVuSans-30" x="190.869141"/>
      </g>
     </g>
    </g>
    <g id="xtick_3">
     <g id="line2d_3">
      <g>
       <use xlink:href="#me123e331f6" x="166.799359" y="307.584" style="stroke: #000000; stroke-width: 0.8"/>
      </g>
     </g>
     <g id="text_3">
      <!-- 1500 -->
      <g transform="translate(154.074359 322.182437)scale(0.1 -0.1)">
       <use xlink:href="#DejaVuSans-31"/>
       <use xlink:href="#DejaVuSans-35" x="63.623047"/>
       <use xlink:href="#DejaVuSans-30" x="127.246094"/>
       <use xlink:href="#DejaVuSans-30" x="190.869141"/>
      </g>
     </g>
    </g>
    <g id="xtick_4">
     <g id="line2d_4">
      <g>
       <use xlink:href="#me123e331f6" x="213.477602" y="307.584" style="stroke: #000000; stroke-width: 0.8"/>
      </g>
     </g>
     <g id="text_4">
      <!-- 2000 -->
      <g transform="translate(200.752602 322.182437)scale(0.1 -0.1)">
       <defs>
        <path id="DejaVuSans-32" d="M 1228 531 
L 3431 531 
L 3431 0 
L 469 0 
L 469 531 
Q 828 903 1448 1529 
Q 2069 2156 2228 2338 
Q 2531 2678 2651 2914 
Q 2772 3150 2772 3378 
Q 2772 3750 2511 3984 
Q 2250 4219 1831 4219 
Q 1534 4219 1204 4116 
Q 875 4013 500 3803 
L 500 4441 
Q 881 4594 1212 4672 
Q 1544 4750 1819 4750 
Q 2544 4750 2975 4387 
Q 3406 4025 3406 3419 
Q 3406 3131 3298 2873 
Q 3191 2616 2906 2266 
Q 2828 2175 2409 1742 
Q 1991 1309 1228 531 
z
" transform="scale(0.015625)"/>
       </defs>
       <use xlink:href="#DejaVuSans-32"/>
       <use xlink:href="#DejaVuSans-30" x="63.623047"/>
       <use xlink:href="#DejaVuSans-30" x="127.246094"/>
       <use xlink:href="#DejaVuSans-30" x="190.869141"/>
      </g>
     </g>
    </g>
    <g id="xtick_5">
     <g id="line2d_5">
      <g>
       <use xlink:href="#me123e331f6" x="260.155846" y="307.584" style="stroke: #000000; stroke-width: 0.8"/>
      </g>
     </g>
     <g id="text_5">
      <!-- 2500 -->
      <g transform="translate(247.430846 322.182437)scale(0.1 -0.1)">
       <use xlink:href="#DejaVuSans-32"/>
       <use xlink:href="#DejaVuSans-35" x="63.623047"/>
       <use xlink:href="#DejaVuSans-30" x="127.246094"/>
       <use xlink:href="#DejaVuSans-30" x="190.869141"/>
      </g>
     </g>
    </g>
    <g id="xtick_6">
     <g id="line2d_6">
      <g>
       <use xlink:href="#me123e331f6" x="306.834089" y="307.584" style="stroke: #000000; stroke-width: 0.8"/>
      </g>
     </g>
     <g id="text_6">
      <!-- 3000 -->
      <g transform="translate(294.109089 322.182437)scale(0.1 -0.1)">
       <defs>
        <path id="DejaVuSans-33" d="M 2597 2516 
Q 3050 2419 3304 2112 
Q 3559 1806 3559 1356 
Q 3559 666 3084 287 
Q 2609 -91 1734 -91 
Q 1441 -91 1130 -33 
Q 819 25 488 141 
L 488 750 
Q 750 597 1062 519 
Q 1375 441 1716 441 
Q 2309 441 2620 675 
Q 2931 909 2931 1356 
Q 2931 1769 2642 2001 
Q 2353 2234 1838 2234 
L 1294 2234 
L 1294 2753 
L 1863 2753 
Q 2328 2753 2575 2939 
Q 2822 3125 2822 3475 
Q 2822 3834 2567 4026 
Q 2313 4219 1838 4219 
Q 1578 4219 1281 4162 
Q 984 4106 628 3988 
L 628 4550 
Q 988 4650 1302 4700 
Q 1616 4750 1894 4750 
Q 2613 4750 3031 4423 
Q 3450 4097 3450 3541 
Q 3450 3153 3228 2886 
Q 3006 2619 2597 2516 
z
" transform="scale(0.015625)"/>
       </defs>
       <use xlink:href="#DejaVuSans-33"/>
       <use xlink:href="#DejaVuSans-30" x="63.623047"/>
       <use xlink:href="#DejaVuSans-30" x="127.246094"/>
       <use xlink:href="#DejaVuSans-30" x="190.869141"/>
      </g>
     </g>
    </g>
    <g id="xtick_7">
     <g id="line2d_7">
      <g>
       <use xlink:href="#me123e331f6" x="353.512333" y="307.584" style="stroke: #000000; stroke-width: 0.8"/>
      </g>
     </g>
     <g id="text_7">
      <!-- 3500 -->
      <g transform="translate(340.787333 322.182437)scale(0.1 -0.1)">
       <use xlink:href="#DejaVuSans-33"/>
       <use xlink:href="#DejaVuSans-35" x="63.623047"/>
       <use xlink:href="#DejaVuSans-30" x="127.246094"/>
       <use xlink:href="#DejaVuSans-30" x="190.869141"/>
      </g>
     </g>
    </g>
    <g id="xtick_8">
     <g id="line2d_8">
      <g>
       <use xlink:href="#me123e331f6" x="400.190577" y="307.584" style="stroke: #000000; stroke-width: 0.8"/>
      </g>
     </g>
     <g id="text_8">
      <!-- 4000 -->
      <g transform="translate(387.465577 322.182437)scale(0.1 -0.1)">
       <defs>
        <path id="DejaVuSans-34" d="M 2419 4116 
L 825 1625 
L 2419 1625 
L 2419 4116 
z
M 2253 4666 
L 3047 4666 
L 3047 1625 
L 3713 1625 
L 3713 1100 
L 3047 1100 
L 3047 0 
L 2419 0 
L 2419 1100 
L 313 1100 
L 313 1709 
L 2253 4666 
z
" transform="scale(0.015625)"/>
       </defs>
       <use xlink:href="#DejaVuSans-34"/>
       <use xlink:href="#DejaVuSans-30" x="63.623047"/>
       <use xlink:href="#DejaVuSans-30" x="127.246094"/>
       <use xlink:href="#DejaVuSans-30" x="190.869141"/>
      </g>
     </g>
    </g>
    <g id="text_9">
     <!-- Global close to cube -->
     <g transform="translate(185.375625 335.860562)scale(0.1 -0.1)">
      <defs>
       <path id="DejaVuSans-47" d="M 3809 666 
L 3809 1919 
L 2778 1919 
L 2778 2438 
L 4434 2438 
L 4434 434 
Q 4069 175 3628 42 
Q 3188 -91 2688 -91 
Q 1594 -91 976 548 
Q 359 1188 359 2328 
Q 359 3472 976 4111 
Q 1594 4750 2688 4750 
Q 3144 4750 3555 4637 
Q 3966 4525 4313 4306 
L 4313 3634 
Q 3963 3931 3569 4081 
Q 3175 4231 2741 4231 
Q 1884 4231 1454 3753 
Q 1025 3275 1025 2328 
Q 1025 1384 1454 906 
Q 1884 428 2741 428 
Q 3075 428 3337 486 
Q 3600 544 3809 666 
z
" transform="scale(0.015625)"/>
       <path id="DejaVuSans-6c" d="M 603 4863 
L 1178 4863 
L 1178 0 
L 603 0 
L 603 4863 
z
" transform="scale(0.015625)"/>
       <path id="DejaVuSans-6f" d="M 1959 3097 
Q 1497 3097 1228 2736 
Q 959 2375 959 1747 
Q 959 1119 1226 758 
Q 1494 397 1959 397 
Q 2419 397 2687 759 
Q 2956 1122 2956 1747 
Q 2956 2369 2687 2733 
Q 2419 3097 1959 3097 
z
M 1959 3584 
Q 2709 3584 3137 3096 
Q 3566 2609 3566 1747 
Q 3566 888 3137 398 
Q 2709 -91 1959 -91 
Q 1206 -91 779 398 
Q 353 888 353 1747 
Q 353 2609 779 3096 
Q 1206 3584 1959 3584 
z
" transform="scale(0.015625)"/>
       <path id="DejaVuSans-62" d="M 3116 1747 
Q 3116 2381 2855 2742 
Q 2594 3103 2138 3103 
Q 1681 3103 1420 2742 
Q 1159 2381 1159 1747 
Q 1159 1113 1420 752 
Q 1681 391 2138 391 
Q 2594 391 2855 752 
Q 3116 1113 3116 1747 
z
M 1159 2969 
Q 1341 3281 1617 3432 
Q 1894 3584 2278 3584 
Q 2916 3584 3314 3078 
Q 3713 2572 3713 1747 
Q 3713 922 3314 415 
Q 2916 -91 2278 -91 
Q 1894 -91 1617 61 
Q 1341 213 1159 525 
L 1159 0 
L 581 0 
L 581 4863 
L 1159 4863 
L 1159 2969 
z
" transform="scale(0.015625)"/>
       <path id="DejaVuSans-61" d="M 2194 1759 
Q 1497 1759 1228 1600 
Q 959 1441 959 1056 
Q 959 750 1161 570 
Q 1363 391 1709 391 
Q 2188 391 2477 730 
Q 2766 1069 2766 1631 
L 2766 1759 
L 2194 1759 
z
M 3341 1997 
L 3341 0 
L 2766 0 
L 2766 531 
Q 2569 213 2275 61 
Q 1981 -91 1556 -91 
Q 1019 -91 701 211 
Q 384 513 384 1019 
Q 384 1609 779 1909 
Q 1175 2209 1959 2209 
L 2766 2209 
L 2766 2266 
Q 2766 2663 2505 2880 
Q 2244 3097 1772 3097 
Q 1472 3097 1187 3025 
Q 903 2953 641 2809 
L 641 3341 
Q 956 3463 1253 3523 
Q 1550 3584 1831 3584 
Q 2591 3584 2966 3190 
Q 3341 2797 3341 1997 
z
" transform="scale(0.015625)"/>
       <path id="DejaVuSans-20" transform="scale(0.015625)"/>
       <path id="DejaVuSans-63" d="M 3122 3366 
L 3122 2828 
Q 2878 2963 2633 3030 
Q 2388 3097 2138 3097 
Q 1578 3097 1268 2742 
Q 959 2388 959 1747 
Q 959 1106 1268 751 
Q 1578 397 2138 397 
Q 2388 397 2633 464 
Q 2878 531 3122 666 
L 3122 134 
Q 2881 22 2623 -34 
Q 2366 -91 2075 -91 
Q 1284 -91 818 406 
Q 353 903 353 1747 
Q 353 2603 823 3093 
Q 1294 3584 2113 3584 
Q 2378 3584 2631 3529 
Q 2884 3475 3122 3366 
z
" transform="scale(0.015625)"/>
       <path id="DejaVuSans-73" d="M 2834 3397 
L 2834 2853 
Q 2591 2978 2328 3040 
Q 2066 3103 1784 3103 
Q 1356 3103 1142 2972 
Q 928 2841 928 2578 
Q 928 2378 1081 2264 
Q 1234 2150 1697 2047 
L 1894 2003 
Q 2506 1872 2764 1633 
Q 3022 1394 3022 966 
Q 3022 478 2636 193 
Q 2250 -91 1575 -91 
Q 1294 -91 989 -36 
Q 684 19 347 128 
L 347 722 
Q 666 556 975 473 
Q 1284 391 1588 391 
Q 1994 391 2212 530 
Q 2431 669 2431 922 
Q 2431 1156 2273 1281 
Q 2116 1406 1581 1522 
L 1381 1569 
Q 847 1681 609 1914 
Q 372 2147 372 2553 
Q 372 3047 722 3315 
Q 1072 3584 1716 3584 
Q 2034 3584 2315 3537 
Q 2597 3491 2834 3397 
z
" transform="scale(0.015625)"/>
       <path id="DejaVuSans-65" d="M 3597 1894 
L 3597 1613 
L 953 1613 
Q 991 1019 1311 708 
Q 1631 397 2203 397 
Q 2534 397 2845 478 
Q 3156 559 3463 722 
L 3463 178 
Q 3153 47 2828 -22 
Q 2503 -91 2169 -91 
Q 1331 -91 842 396 
Q 353 884 353 1716 
Q 353 2575 817 3079 
Q 1281 3584 2069 3584 
Q 2775 3584 3186 3129 
Q 3597 2675 3597 1894 
z
M 3022 2063 
Q 3016 2534 2758 2815 
Q 2500 3097 2075 3097 
Q 1594 3097 1305 2825 
Q 1016 2553 972 2059 
L 3022 2063 
z
" transform="scale(0.015625)"/>
       <path id="DejaVuSans-74" d="M 1172 4494 
L 1172 3500 
L 2356 3500 
L 2356 3053 
L 1172 3053 
L 1172 1153 
Q 1172 725 1289 603 
Q 1406 481 1766 481 
L 2356 481 
L 2356 0 
L 1766 0 
Q 1100 0 847 248 
Q 594 497 594 1153 
L 594 3053 
L 172 3053 
L 172 3500 
L 594 3500 
L 594 4494 
L 1172 4494 
z
" transform="scale(0.015625)"/>
       <path id="DejaVuSans-75" d="M 544 1381 
L 544 3500 
L 1119 3500 
L 1119 1403 
Q 1119 906 1312 657 
Q 1506 409 1894 409 
Q 2359 409 2629 706 
Q 2900 1003 2900 1516 
L 2900 3500 
L 3475 3500 
L 3475 0 
L 2900 0 
L 2900 538 
Q 2691 219 2414 64 
Q 2138 -91 1772 -91 
Q 1169 -91 856 284 
Q 544 659 544 1381 
z
M 1991 3584 
L 1991 3584 
z
" transform="scale(0.015625)"/>
      </defs>
      <use xlink:href="#DejaVuSans-47"/>
      <use xlink:href="#DejaVuSans-6c" x="77.490234"/>
      <use xlink:href="#DejaVuSans-6f" x="105.273438"/>
      <use xlink:href="#DejaVuSans-62" x="166.455078"/>
      <use xlink:href="#DejaVuSans-61" x="229.931641"/>
      <use xlink:href="#DejaVuSans-6c" x="291.210938"/>
      <use xlink:href="#DejaVuSans-20" x="318.994141"/>
      <use xlink:href="#DejaVuSans-63" x="350.78125"/>
      <use xlink:href="#DejaVuSans-6c" x="405.761719"/>
      <use xlink:href="#DejaVuSans-6f" x="433.544922"/>
      <use xlink:href="#DejaVuSans-73" x="494.726562"/>
      <use xlink:href="#DejaVuSans-65" x="546.826172"/>
      <use xlink:href="#DejaVuSans-20" x="608.349609"/>
      <use xlink:href="#DejaVuSans-74" x="640.136719"/>
      <use xlink:href="#DejaVuSans-6f" x="679.345703"/>
      <use xlink:href="#DejaVuSans-20" x="740.527344"/>
      <use xlink:href="#DejaVuSans-63" x="772.314453"/>
      <use xlink:href="#DejaVuSans-75" x="827.294922"/>
      <use xlink:href="#DejaVuSans-62" x="890.673828"/>
      <use xlink:href="#DejaVuSans-65" x="954.150391"/>
     </g>
    </g>
   </g>
   <g id="matplotlib.axis_2">
    <g id="ytick_1">
     <g id="line2d_9">
      <defs>
       <path id="md83cca95bb" d="M 0 0 
L -3.5 0 
" style="stroke: #000000; stroke-width: 0.8"/>
      </defs>
      <g>
       <use xlink:href="#md83cca95bb" x="57.6" y="275.796368" style="stroke: #000000; stroke-width: 0.8"/>
      </g>
     </g>
     <g id="text_10">
      <!-- 0.1 -->
      <g transform="translate(34.696875 279.595587)scale(0.1 -0.1)">
       <defs>
        <path id="DejaVuSans-2e" d="M 684 794 
L 1344 794 
L 1344 0 
L 684 0 
L 684 794 
z
" transform="scale(0.015625)"/>
       </defs>
       <use xlink:href="#DejaVuSans-30"/>
       <use xlink:href="#DejaVuSans-2e" x="63.623047"/>
       <use xlink:href="#DejaVuSans-31" x="95.410156"/>
      </g>
     </g>
    </g>
    <g id="ytick_2">
     <g id="line2d_10">
      <g>
       <use xlink:href="#md83cca95bb" x="57.6" y="241.837784" style="stroke: #000000; stroke-width: 0.8"/>
      </g>
     </g>
     <g id="text_11">
      <!-- 0.2 -->
      <g transform="translate(34.696875 245.637003)scale(0.1 -0.1)">
       <use xlink:href="#DejaVuSans-30"/>
       <use xlink:href="#DejaVuSans-2e" x="63.623047"/>
       <use xlink:href="#DejaVuSans-32" x="95.410156"/>
      </g>
     </g>
    </g>
    <g id="ytick_3">
     <g id="line2d_11">
      <g>
       <use xlink:href="#md83cca95bb" x="57.6" y="207.879201" style="stroke: #000000; stroke-width: 0.8"/>
      </g>
     </g>
     <g id="text_12">
      <!-- 0.3 -->
      <g transform="translate(34.696875 211.678419)scale(0.1 -0.1)">
       <use xlink:href="#DejaVuSans-30"/>
       <use xlink:href="#DejaVuSans-2e" x="63.623047"/>
       <use xlink:href="#DejaVuSans-33" x="95.410156"/>
      </g>
     </g>
    </g>
    <g id="ytick_4">
     <g id="line2d_12">
      <g>
       <use xlink:href="#md83cca95bb" x="57.6" y="173.920617" style="stroke: #000000; stroke-width: 0.8"/>
      </g>
     </g>
     <g id="text_13">
      <!-- 0.4 -->
      <g transform="translate(34.696875 177.719836)scale(0.1 -0.1)">
       <use xlink:href="#DejaVuSans-30"/>
       <use xlink:href="#DejaVuSans-2e" x="63.623047"/>
       <use xlink:href="#DejaVuSans-34" x="95.410156"/>
      </g>
     </g>
    </g>
    <g id="ytick_5">
     <g id="line2d_13">
      <g>
       <use xlink:href="#md83cca95bb" x="57.6" y="139.962033" style="stroke: #000000; stroke-width: 0.8"/>
      </g>
     </g>
     <g id="text_14">
      <!-- 0.5 -->
      <g transform="translate(34.696875 143.761252)scale(0.1 -0.1)">
       <use xlink:href="#DejaVuSans-30"/>
       <use xlink:href="#DejaVuSans-2e" x="63.623047"/>
       <use xlink:href="#DejaVuSans-35" x="95.410156"/>
      </g>
     </g>
    </g>
    <g id="ytick_6">
     <g id="line2d_14">
      <g>
       <use xlink:href="#md83cca95bb" x="57.6" y="106.003449" style="stroke: #000000; stroke-width: 0.8"/>
      </g>
     </g>
     <g id="text_15">
      <!-- 0.6 -->
      <g transform="translate(34.696875 109.802668)scale(0.1 -0.1)">
       <defs>
        <path id="DejaVuSans-36" d="M 2113 2584 
Q 1688 2584 1439 2293 
Q 1191 2003 1191 1497 
Q 1191 994 1439 701 
Q 1688 409 2113 409 
Q 2538 409 2786 701 
Q 3034 994 3034 1497 
Q 3034 2003 2786 2293 
Q 2538 2584 2113 2584 
z
M 3366 4563 
L 3366 3988 
Q 3128 4100 2886 4159 
Q 2644 4219 2406 4219 
Q 1781 4219 1451 3797 
Q 1122 3375 1075 2522 
Q 1259 2794 1537 2939 
Q 1816 3084 2150 3084 
Q 2853 3084 3261 2657 
Q 3669 2231 3669 1497 
Q 3669 778 3244 343 
Q 2819 -91 2113 -91 
Q 1303 -91 875 529 
Q 447 1150 447 2328 
Q 447 3434 972 4092 
Q 1497 4750 2381 4750 
Q 2619 4750 2861 4703 
Q 3103 4656 3366 4563 
z
" transform="scale(0.015625)"/>
       </defs>
       <use xlink:href="#DejaVuSans-30"/>
       <use xlink:href="#DejaVuSans-2e" x="63.623047"/>
       <use xlink:href="#DejaVuSans-36" x="95.410156"/>
      </g>
     </g>
    </g>
    <g id="ytick_7">
     <g id="line2d_15">
      <g>
       <use xlink:href="#md83cca95bb" x="57.6" y="72.044865" style="stroke: #000000; stroke-width: 0.8"/>
      </g>
     </g>
     <g id="text_16">
      <!-- 0.7 -->
      <g transform="translate(34.696875 75.844084)scale(0.1 -0.1)">
       <defs>
        <path id="DejaVuSans-37" d="M 525 4666 
L 3525 4666 
L 3525 4397 
L 1831 0 
L 1172 0 
L 2766 4134 
L 525 4134 
L 525 4666 
z
" transform="scale(0.015625)"/>
       </defs>
       <use xlink:href="#DejaVuSans-30"/>
       <use xlink:href="#DejaVuSans-2e" x="63.623047"/>
       <use xlink:href="#DejaVuSans-37" x="95.410156"/>
      </g>
     </g>
    </g>
    <g id="text_17">
     <!-- GFLOPS -->
     <g transform="translate(28.617187 194.007688)rotate(-90)scale(0.1 -0.1)">
      <defs>
       <path id="DejaVuSans-46" d="M 628 4666 
L 3309 4666 
L 3309 4134 
L 1259 4134 
L 1259 2759 
L 3109 2759 
L 3109 2228 
L 1259 2228 
L 1259 0 
L 628 0 
L 628 4666 
z
" transform="scale(0.015625)"/>
       <path id="DejaVuSans-4c" d="M 628 4666 
L 1259 4666 
L 1259 531 
L 3531 531 
L 3531 0 
L 628 0 
L 628 4666 
z
" transform="scale(0.015625)"/>
       <path id="DejaVuSans-4f" d="M 2522 4238 
Q 1834 4238 1429 3725 
Q 1025 3213 1025 2328 
Q 1025 1447 1429 934 
Q 1834 422 2522 422 
Q 3209 422 3611 934 
Q 4013 1447 4013 2328 
Q 4013 3213 3611 3725 
Q 3209 4238 2522 4238 
z
M 2522 4750 
Q 3503 4750 4090 4092 
Q 4678 3434 4678 2328 
Q 4678 1225 4090 567 
Q 3503 -91 2522 -91 
Q 1538 -91 948 565 
Q 359 1222 359 2328 
Q 359 3434 948 4092 
Q 1538 4750 2522 4750 
z
" transform="scale(0.015625)"/>
       <path id="DejaVuSans-50" d="M 1259 4147 
L 1259 2394 
L 2053 2394 
Q 2494 2394 2734 2622 
Q 2975 2850 2975 3272 
Q 2975 3691 2734 3919 
Q 2494 4147 2053 4147 
L 1259 4147 
z
M 628 4666 
L 2053 4666 
Q 2838 4666 3239 4311 
Q 3641 3956 3641 3272 
Q 3641 2581 3239 2228 
Q 2838 1875 2053 1875 
L 1259 1875 
L 1259 0 
L 628 0 
L 628 4666 
z
" transform="scale(0.015625)"/>
       <path id="DejaVuSans-53" d="M 3425 4513 
L 3425 3897 
Q 3066 4069 2747 4153 
Q 2428 4238 2131 4238 
Q 1616 4238 1336 4038 
Q 1056 3838 1056 3469 
Q 1056 3159 1242 3001 
Q 1428 2844 1947 2747 
L 2328 2669 
Q 3034 2534 3370 2195 
Q 3706 1856 3706 1288 
Q 3706 609 3251 259 
Q 2797 -91 1919 -91 
Q 1588 -91 1214 -16 
Q 841 59 441 206 
L 441 856 
Q 825 641 1194 531 
Q 1563 422 1919 422 
Q 2459 422 2753 634 
Q 3047 847 3047 1241 
Q 3047 1584 2836 1778 
Q 2625 1972 2144 2069 
L 1759 2144 
Q 1053 2284 737 2584 
Q 422 2884 422 3419 
Q 422 4038 858 4394 
Q 1294 4750 2059 4750 
Q 2388 4750 2728 4690 
Q 3069 4631 3425 4513 
z
" transform="scale(0.015625)"/>
      </defs>
      <use xlink:href="#DejaVuSans-47"/>
      <use xlink:href="#DejaVuSans-46" x="77.490234"/>
      <use xlink:href="#DejaVuSans-4c" x="135.009766"/>
      <use xlink:href="#DejaVuSans-4f" x="187.097656"/>
      <use xlink:href="#DejaVuSans-50" x="265.808594"/>
      <use xlink:href="#DejaVuSans-53" x="326.111328"/>
     </g>
    </g>
   </g>
   <g id="line2d_16">
    <path d="M 73.832727 287.242601 
L 75.143812 253.600528 
L 76.136806 139.4642 
L 76.336169 191.850579 
L 76.489272 108.812503 
L 76.662442 248.776881 
L 76.927589 191.21878 
L 77.261764 286.537536 
L 77.261764 284.338242 
L 77.791658 226.826053 
L 78.340716 117.041008 
L 78.620864 287.203888 
L 78.718746 179.70699 
L 78.759156 180.560199 
L 78.888174 245.967742 
L 78.959391 226.8938 
L 79.026166 73.40219 
L 79.234427 236.627694 
L 79.393335 219.284225 
L 79.442015 238.62335 
L 79.574603 196.966044 
L 79.839149 158.045658 
L 80.015032 243.271516 
L 80.205 278.131092 
L 80.702843 273.243638 
L 81.242995 259.87132 
L 81.705197 269.506474 
L 81.789043 103.976122 
L 82.009164 148.482468 
L 82.280527 82.424476 
L 82.359615 224.724016 
L 82.813363 155.027928 
L 82.982345 266.811606 
L 83.843041 215.536522 
L 84.350828 284.812016 
L 85.776413 216.928484 
L 86.011241 262.018012 
L 86.127438 218.729647 
L 86.202664 122.454346 
L 86.487307 236.24883 
L 86.487307 236.098682 
L 86.748955 166.514589 
L 86.941194 236.685248 
L 87.315111 107.38862 
L 87.380774 135.097466 
L 87.423882 94.66315 
L 87.746221 290.607087 
L 87.746221 288.75841 
L 87.793271 177.548752 
L 87.969308 150.226694 
L 88.587793 259.889768 
L 88.887117 135.962561 
L 88.99551 225.649727 
L 89.193058 85.049984 
L 89.480446 284.868913 
L 89.827884 139.494084 
L 89.827884 149.703732 
L 90.126922 242.610851 
L 90.774115 252.007588 
L 91.027361 206.361252 
L 91.479969 235.225369 
L 91.479969 234.451906 
L 91.549242 228.886999 
L 91.923571 265.958057 
L 91.923571 264.716022 
L 92.059077 148.436511 
L 92.492074 57.110729 
L 92.524523 212.17199 
L 93.230272 170.346476 
L 93.230272 118.611592 
L 93.325743 259.074058 
L 93.933766 221.509667 
L 94.618202 189.777577 
L 94.728387 226.621283 
L 95.005583 280.444042 
L 95.034929 216.486751 
L 95.364624 220.327399 
L 96.036785 266.300614 
L 97.115915 55.454399 
L 97.301884 228.809064 
L 97.657563 133.465077 
L 97.8076 183.846371 
L 97.881651 260.510161 
L 97.946794 217.203718 
L 97.965762 127.844931 
L 98.119143 233.309341 
L 98.281963 222.444264 
L 98.320928 277.721209 
L 98.358511 207.276436 
L 98.723914 276.909879 
L 99.028983 197.394827 
L 99.223179 254.410271 
L 99.280928 176.746141 
L 99.280928 183.390987 
L 99.547162 186.266599 
L 100.072575 108.480728 
L 100.247807 263.117039 
L 100.427097 280.542097 
L 102.78845 202.545241 
L 103.279596 203.260833 
L 103.774908 256.659772 
L 103.801785 132.813751 
L 105.346578 246.724425 
L 105.576215 164.860976 
L 105.760113 206.47739 
L 105.760113 287.671277 
L 105.915041 265.323201 
L 106.185008 252.380057 
L 106.463235 191.076154 
L 107.000049 290.52379 
L 107.184884 203.90333 
L 107.586156 240.699832 
L 107.623946 181.784576 
L 107.736246 225.446316 
L 108.146785 220.415917 
L 108.674546 156.113415 
L 108.973881 283.057359 
L 109.420999 160.01169 
L 110.516452 230.987083 
L 110.654945 211.162996 
L 112.486422 150.76341 
L 112.934638 157.605555 
L 113.426561 212.363432 
L 113.624585 190.709061 
L 114.378311 262.211406 
L 116.6938 156.432795 
L 116.792317 278.244009 
L 117.378728 165.329095 
L 117.776655 266.466332 
L 117.870931 224.144117 
L 118.387707 166.155307 
L 118.780333 271.521407 
L 119.695289 271.874321 
L 119.803039 230.800056 
L 120.900827 287.747166 
L 121.898149 131.100541 
L 123.522996 253.699348 
L 125.907711 196.128172 
L 126.560256 245.748285 
L 127.09055 151.727324 
L 127.758901 284.941483 
L 128.818689 219.528014 
L 130.4771 287.676762 
L 130.672863 183.147334 
L 131.011721 212.163076 
L 131.154154 186.359646 
L 132.022043 255.018469 
L 132.384577 200.757746 
L 132.384577 201.040621 
L 132.913671 157.238293 
L 133.265435 243.324831 
L 133.645371 269.657768 
L 134.641058 239.376059 
L 135.721361 258.951043 
L 136.645767 271.632621 
L 137.253701 146.051147 
L 137.954601 217.747565 
L 138.862097 145.225783 
L 138.994244 247.364883 
L 139.200061 267.117828 
L 140.921455 220.861228 
L 141.937027 283.805245 
L 145.257855 234.101679 
L 145.490248 170.651424 
L 146.068477 233.955657 
L 146.209986 177.379978 
L 147.11776 234.905139 
L 147.996919 141.175373 
L 148.727814 283.260855 
L 148.821914 159.590434 
L 149.173987 150.246899 
L 150.410957 208.747522 
L 150.589587 229.010099 
L 151.009605 136.704046 
L 151.226391 219.731086 
L 151.898884 184.373069 
L 152.196263 285.631589 
L 152.196263 284.708221 
L 152.891141 143.117125 
L 152.891141 149.416103 
L 153.489216 241.739304 
L 154.783602 252.703003 
L 155.290095 210.727477 
L 156.19531 237.360685 
L 156.19531 235.338111 
L 156.333856 230.237872 
L 157.082514 267.767031 
L 157.082514 265.161219 
L 157.353526 144.854107 
L 158.284418 212.530621 
L 159.695916 129.156072 
L 159.886857 258.897218 
L 161.102905 224.796009 
L 162.471776 192.936235 
L 163.246538 280.754924 
L 163.964621 167.388174 
L 165.308941 243.316681 
L 166.612197 137.954232 
L 166.656177 166.470783 
L 167.698052 151.415414 
L 167.839139 227.687582 
L 168.550498 128.470278 
L 168.998673 238.861484 
L 169.128961 216.596709 
L 169.166895 106.217388 
L 169.473658 193.725433 
L 169.799298 225.155121 
L 169.877229 277.745659 
L 169.952394 151.270921 
L 170.683199 259.680643 
L 171.293338 197.432691 
L 171.797228 177.013734 
L 172.329696 171.316673 
L 173.380522 111.983726 
L 173.730986 239.139322 
L 174.089565 281.654003 
L 176.518522 216.81693 
L 178.812272 198.803543 
L 179.794564 202.079414 
L 180.785187 255.732958 
L 180.838942 99.466422 
L 184.387802 174.197549 
L 185.605389 218.656976 
L 186.161842 123.10669 
L 187.23547 275.158083 
L 187.605141 206.164292 
L 188.407683 209.979879 
L 188.483263 178.525061 
L 188.707863 223.603723 
L 188.707863 215.000655 
L 189.528942 217.574546 
L 190.584465 83.797592 
L 191.183135 273.969396 
L 192.077369 166.633274 
L 194.268276 230.462791 
L 194.545261 151.277712 
L 198.208215 146.281386 
L 200.088494 156.971378 
L 201.858614 249.605131 
L 201.991993 232.157211 
L 201.991993 232.60886 
L 202.77089 211.2248 
L 206.622972 155.31335 
L 206.820005 260.225339 
L 208.788683 242.741762 
L 208.977233 176.658358 
L 210.010785 90.883729 
L 210.796038 251.997513 
L 212.62595 270.833491 
L 215.037025 276.856487 
L 217.03167 136.416417 
L 226.355883 210.664314 
L 228.753174 272.051415 
L 230.872749 177.528716 
L 234.189572 276.279531 
L 238.004527 134.430859 
L 239.062714 68.642895 
L 240.526114 220.904695 
L 242.517488 177.692057 
L 244.678095 231.762612 
L 246.526906 251.343811 
L 251.22386 212.710828 
L 251.635494 242.884727 
L 255.078281 167.209891 
L 257.109427 271.159776 
L 270.691 265.983017 
L 274.057287 145.871166 
L 275.688155 171.677313 
L 277.033141 117.663129 
L 280.213804 210.872989 
L 282.802576 220.450668 
L 283.815561 148.617057 
L 285.625992 198.14701 
L 285.903083 174.5081 
L 287.4004 244.048828 
L 293.009087 235.448137 
L 295.441182 179.462997 
L 298.178924 127.01736 
L 299.728448 265.009084 
L 308.631475 55.276796 
L 308.91365 183.648732 
L 311.232719 155.173781 
L 312.833968 176.873825 
L 312.98983 259.611707 
L 315.822048 133.078968 
L 320.697343 198.804448 
L 321.414503 265.98879 
L 326.272416 108.97075 
L 330.859916 142.76837 
L 334.805746 226.780548 
L 342.010977 78.722821 
L 348.445654 141.75233 
L 350.201898 109.055647 
L 357.390111 84.795634 
L 362.325894 53.905209 
L 369.651803 55.044859 
L 376.9526 218.927626 
L 398.487273 249.534497 
L 398.487273 249.534497 
" clip-path="url(#pe5c54ba014)" style="fill: none; stroke: #1f77b4; stroke-width: 1.5; stroke-linecap: square"/>
   </g>
   <g id="line2d_17"/>
   <g id="patch_3">
    <path d="M 57.6 307.584 
L 57.6 41.472 
" style="fill: none; stroke: #000000; stroke-width: 0.8; stroke-linejoin: miter; stroke-linecap: square"/>
   </g>
   <g id="patch_4">
    <path d="M 414.72 307.584 
L 414.72 41.472 
" style="fill: none; stroke: #000000; stroke-width: 0.8; stroke-linejoin: miter; stroke-linecap: square"/>
   </g>
   <g id="patch_5">
    <path d="M 57.6 307.584 
L 414.72 307.584 
" style="fill: none; stroke: #000000; stroke-width: 0.8; stroke-linejoin: miter; stroke-linecap: square"/>
   </g>
   <g id="patch_6">
    <path d="M 57.6 41.472 
L 414.72 41.472 
" style="fill: none; stroke: #000000; stroke-width: 0.8; stroke-linejoin: miter; stroke-linecap: square"/>
   </g>
   <g id="text_18">
    <!-- Global Cubeness -->
    <g transform="translate(185.874375 35.472)scale(0.12 -0.12)">
     <defs>
      <path id="DejaVuSans-43" d="M 4122 4306 
L 4122 3641 
Q 3803 3938 3442 4084 
Q 3081 4231 2675 4231 
Q 1875 4231 1450 3742 
Q 1025 3253 1025 2328 
Q 1025 1406 1450 917 
Q 1875 428 2675 428 
Q 3081 428 3442 575 
Q 3803 722 4122 1019 
L 4122 359 
Q 3791 134 3420 21 
Q 3050 -91 2638 -91 
Q 1578 -91 968 557 
Q 359 1206 359 2328 
Q 359 3453 968 4101 
Q 1578 4750 2638 4750 
Q 3056 4750 3426 4639 
Q 3797 4528 4122 4306 
z
" transform="scale(0.015625)"/>
      <path id="DejaVuSans-6e" d="M 3513 2113 
L 3513 0 
L 2938 0 
L 2938 2094 
Q 2938 2591 2744 2837 
Q 2550 3084 2163 3084 
Q 1697 3084 1428 2787 
Q 1159 2491 1159 1978 
L 1159 0 
L 581 0 
L 581 3500 
L 1159 3500 
L 1159 2956 
Q 1366 3272 1645 3428 
Q 1925 3584 2291 3584 
Q 2894 3584 3203 3211 
Q 3513 2838 3513 2113 
z
" transform="scale(0.015625)"/>
     </defs>
     <use xlink:href="#DejaVuSans-47"/>
     <use xlink:href="#DejaVuSans-6c" x="77.490234"/>
     <use xlink:href="#DejaVuSans-6f" x="105.273438"/>
     <use xlink:href="#DejaVuSans-62" x="166.455078"/>
     <use xlink:href="#DejaVuSans-61" x="229.931641"/>
     <use xlink:href="#DejaVuSans-6c" x="291.210938"/>
     <use xlink:href="#DejaVuSans-20" x="318.994141"/>
     <use xlink:href="#DejaVuSans-43" x="350.78125"/>
     <use xlink:href="#DejaVuSans-75" x="420.605469"/>
     <use xlink:href="#DejaVuSans-62" x="483.984375"/>
     <use xlink:href="#DejaVuSans-65" x="547.460938"/>
     <use xlink:href="#DejaVuSans-6e" x="608.984375"/>
     <use xlink:href="#DejaVuSans-65" x="672.363281"/>
     <use xlink:href="#DejaVuSans-73" x="733.886719"/>
     <use xlink:href="#DejaVuSans-73" x="785.986328"/>
    </g>
   </g>
   <g id="legend_1">
    <g id="patch_7">
     <path d="M 339.12 302.584 
L 407.72 302.584 
Q 409.72 302.584 409.72 300.584 
L 409.72 272.22775 
Q 409.72 270.22775 407.72 270.22775 
L 339.12 270.22775 
Q 337.12 270.22775 337.12 272.22775 
L 337.12 300.584 
Q 337.12 302.584 339.12 302.584 
z
" style="fill: #ffffff; opacity: 0.8; stroke: #cccccc; stroke-linejoin: miter"/>
    </g>
    <g id="text_19">
     <!-- Cluster -->
     <g transform="translate(355.673906 281.826187)scale(0.1 -0.1)">
      <defs>
       <path id="DejaVuSans-72" d="M 2631 2963 
Q 2534 3019 2420 3045 
Q 2306 3072 2169 3072 
Q 1681 3072 1420 2755 
Q 1159 2438 1159 1844 
L 1159 0 
L 581 0 
L 581 3500 
L 1159 3500 
L 1159 2956 
Q 1341 3275 1631 3429 
Q 1922 3584 2338 3584 
Q 2397 3584 2469 3576 
Q 2541 3569 2628 3553 
L 2631 2963 
z
" transform="scale(0.015625)"/>
      </defs>
      <use xlink:href="#DejaVuSans-43"/>
      <use xlink:href="#DejaVuSans-6c" x="69.824219"/>
      <use xlink:href="#DejaVuSans-75" x="97.607422"/>
      <use xlink:href="#DejaVuSans-73" x="160.986328"/>
      <use xlink:href="#DejaVuSans-74" x="213.085938"/>
      <use xlink:href="#DejaVuSans-65" x="252.294922"/>
      <use xlink:href="#DejaVuSans-72" x="313.818359"/>
     </g>
    </g>
    <g id="line2d_18">
     <path d="M 341.12 293.004312 
L 351.12 293.004312 
L 361.12 293.004312 
" style="fill: none; stroke: #1f77b4; stroke-width: 1.5; stroke-linecap: square"/>
    </g>
    <g id="text_20">
     <!-- Hopper -->
     <g transform="translate(369.12 296.504312)scale(0.1 -0.1)">
      <defs>
       <path id="DejaVuSans-48" d="M 628 4666 
L 1259 4666 
L 1259 2753 
L 3553 2753 
L 3553 4666 
L 4184 4666 
L 4184 0 
L 3553 0 
L 3553 2222 
L 1259 2222 
L 1259 0 
L 628 0 
L 628 4666 
z
" transform="scale(0.015625)"/>
       <path id="DejaVuSans-70" d="M 1159 525 
L 1159 -1331 
L 581 -1331 
L 581 3500 
L 1159 3500 
L 1159 2969 
Q 1341 3281 1617 3432 
Q 1894 3584 2278 3584 
Q 2916 3584 3314 3078 
Q 3713 2572 3713 1747 
Q 3713 922 3314 415 
Q 2916 -91 2278 -91 
Q 1894 -91 1617 61 
Q 1341 213 1159 525 
z
M 3116 1747 
Q 3116 2381 2855 2742 
Q 2594 3103 2138 3103 
Q 1681 3103 1420 2742 
Q 1159 2381 1159 1747 
Q 1159 1113 1420 752 
Q 1681 391 2138 391 
Q 2594 391 2855 752 
Q 3116 1113 3116 1747 
z
" transform="scale(0.015625)"/>
      </defs>
      <use xlink:href="#DejaVuSans-48"/>
      <use xlink:href="#DejaVuSans-6f" x="75.195312"/>
      <use xlink:href="#DejaVuSans-70" x="136.376953"/>
      <use xlink:href="#DejaVuSans-70" x="199.853516"/>
      <use xlink:href="#DejaVuSans-65" x="263.330078"/>
      <use xlink:href="#DejaVuSans-72" x="324.853516"/>
     </g>
    </g>
   </g>
  </g>
 </g>
 <defs>
  <clipPath id="pe5c54ba014">
   <rect x="57.6" y="41.472" width="357.12" height="266.112"/>
  </clipPath>
 </defs>
</svg>
