<?xml version="1.0" encoding="utf-8" standalone="no"?>
<!DOCTYPE svg PUBLIC "-//W3C//DTD SVG 1.1//EN"
  "http://www.w3.org/Graphics/SVG/1.1/DTD/svg11.dtd">
<svg xmlns:xlink="http://www.w3.org/1999/xlink" width="460.8pt" height="345.6pt" viewBox="0 0 460.8 345.6" xmlns="http://www.w3.org/2000/svg" version="1.1">
 <metadata>
  <rdf:RDF xmlns:dc="http://purl.org/dc/elements/1.1/" xmlns:cc="http://creativecommons.org/ns#" xmlns:rdf="http://www.w3.org/1999/02/22-rdf-syntax-ns#">
   <cc:Work>
    <dc:type rdf:resource="http://purl.org/dc/dcmitype/StillImage"/>
    <dc:date>2024-04-30T15:25:24.776438</dc:date>
    <dc:format>image/svg+xml</dc:format>
    <dc:creator>
     <cc:Agent>
      <dc:title>Matplotlib v3.5.3, https://matplotlib.org/</dc:title>
     </cc:Agent>
    </dc:creator>
   </cc:Work>
  </rdf:RDF>
 </metadata>
 <defs>
  <style type="text/css">*{stroke-linejoin: round; stroke-linecap: butt}</style>
 </defs>
 <g id="figure_1">
  <g id="patch_1">
   <path d="M 0 345.6 
L 460.8 345.6 
L 460.8 0 
L 0 0 
z
" style="fill: #ffffff"/>
  </g>
  <g id="axes_1">
   <g id="patch_2">
    <path d="M 57.6 307.584 
L 414.72 307.584 
L 414.72 41.472 
L 57.6 41.472 
z
" style="fill: #ffffff"/>
   </g>
   <g id="PolyCollection_1">
    <path d="M 73.832727 64.093983 
L 73.832727 295.488 
L 73.910229 294.369581 
L 73.94898 293.831157 
L 73.987731 292.938404 
L 74.065232 253.410286 
L 74.142734 293.578508 
L 74.258987 291.70487 
L 74.375239 290.323028 
L 74.568993 288.064424 
L 74.607744 262.962264 
L 74.762747 286.288109 
L 74.879 284.952147 
L 75.150256 254.225038 
L 75.189007 289.43136 
L 75.692768 255.772113 
L 76.119027 284.41265 
L 76.235279 283.459688 
L 77.049047 279.323266 
L 77.281552 277.648331 
L 77.669061 275.5134 
L 77.862815 274.862973 
L 77.979067 273.927304 
L 78.327825 271.703743 
L 78.909087 269.243403 
L 79.219094 266.690051 
L 79.374098 265.691862 
L 79.49035 265.391857 
L 79.606603 265.732968 
L 79.839108 264.056052 
L 80.42037 260.326417 
L 80.575374 259.92881 
L 80.769128 247.314555 
L 81.117885 261.819189 
L 81.35039 259.307309 
L 81.389141 260.790587 
L 81.699148 259.872524 
L 81.931653 258.688624 
L 82.319161 256.071631 
L 82.629168 254.582641 
L 82.745421 253.85 
L 83.094178 251.343285 
L 83.287932 251.863846 
L 83.481687 250.329498 
L 83.559188 237.842956 
L 83.869195 248.988006 
L 84.256703 247.009676 
L 84.372956 235.340092 
L 84.837966 245.302477 
L 85.419229 241.837296 
L 85.729235 240.979537 
L 86.000491 228.298091 
L 86.349249 238.115017 
L 86.388 237.705934 
L 86.581754 237.365605 
L 86.814259 235.748627 
L 86.969262 234.93646 
L 87.085515 233.634719 
L 87.356771 234.671041 
L 87.395522 234.335877 
L 87.628027 236.215979 
L 87.899283 237.890027 
L 88.519296 237.818507 
L 88.71305 236.773212 
L 88.906804 237.973752 
L 89.139309 236.682496 
L 89.255562 226.324901 
L 89.294313 231.900002 
L 90.06933 225.121571 
L 90.418087 231.800627 
L 90.53434 234.143125 
L 90.883097 223.691778 
L 91.231855 221.285966 
L 91.425609 220.518882 
L 91.92937 230.676092 
L 92.200626 227.147817 
L 92.239377 227.684236 
L 92.549383 224.439377 
L 92.781888 226.040236 
L 93.440653 223.511089 
L 93.556905 223.43018 
L 93.673158 226.015509 
L 94.138168 222.301055 
L 94.25442 224.881115 
L 94.409424 224.465746 
L 94.68068 223.465008 
L 94.719431 222.134855 
L 95.106939 224.261909 
L 95.494447 222.914366 
L 95.765703 222.070013 
L 95.881956 222.206739 
L 95.959457 221.612416 
L 96.463218 211.837285 
L 96.579471 219.6272 
L 96.850727 216.535447 
L 97.509491 216.948808 
L 97.974501 215.286602 
L 98.090754 214.112092 
L 98.207006 206.639655 
L 98.478262 206.919076 
L 98.982023 212.730329 
L 99.369531 213.358768 
L 99.485784 211.985662 
L 99.563286 204.318697 
L 99.989545 208.981132 
L 100.299552 210.575783 
L 100.648309 206.448594 
L 101.500828 208.55353 
L 101.694582 202.432429 
L 102.275845 203.127886 
L 102.50835 200.675482 
L 102.779605 208.931105 
L 102.857107 207.8663 
L 103.089612 207.614653 
L 103.632124 209.467681 
L 104.019632 204.334269 
L 104.174636 208.683996 
L 105.182158 202.327091 
L 105.414663 205.03381 
L 105.530915 195.028108 
L 106.073427 205.652442 
L 106.189679 205.527193 
L 106.538437 203.886009 
L 106.615939 204.561763 
L 106.732191 204.152732 
L 106.925945 197.905925 
L 107.894716 199.303988 
L 108.04972 201.026967 
L 108.669733 204.904909 
L 109.057242 200.508284 
L 109.134743 206.092512 
L 109.599753 203.267064 
L 109.871009 195.377185 
L 110.413521 200.325548 
L 110.607275 199.067365 
L 111.343541 200.113755 
L 111.576046 197.914947 
L 112.079807 199.516094 
L 112.157309 197.261625 
L 112.583568 187.707779 
L 112.854824 191.424707 
L 113.319834 195.015242 
L 113.668592 192.472271 
L 114.094851 193.205094 
L 114.288605 192.560223 
L 114.482359 189.258279 
L 114.598612 194.925413 
L 115.296127 194.353156 
L 115.761137 195.657192 
L 116.109895 194.972571 
L 116.613656 192.505605 
L 117.969935 195.624067 
L 118.551198 192.439511 
L 118.589949 191.530473 
L 119.13246 193.742035 
L 119.636221 187.637138 
L 119.907477 191.676015 
L 120.178733 185.98611 
L 120.294986 187.994164 
L 120.682494 192.823033 
L 121.535012 195.239554 
L 121.651265 189.299554 
L 122.620036 192.846612 
L 123.666309 190.689563 
L 123.860063 189.522096 
L 124.015066 189.063038 
L 124.518827 189.370815 
L 125.061339 187.934173 
L 125.332595 187.964951 
L 126.107612 185.426571 
L 126.49512 185.539249 
L 126.688874 179.998699 
L 129.013925 187.408344 
L 129.130177 186.152717 
L 129.207679 182.534508 
L 129.750191 187.388521 
L 130.215201 183.655026 
L 130.486457 182.411553 
L 130.757713 187.935738 
L 132.695255 185.887715 
L 132.734006 185.366059 
L 133.082763 184.72703 
L 133.431521 183.817261 
L 133.741527 179.183139 
L 134.749049 187.181945 
L 134.826551 188.232561 
L 135.175308 189.140243 
L 135.640319 189.35021 
L 136.376585 188.490781 
L 136.454086 188.104755 
L 137.732864 186.787051 
L 138.895389 180.995925 
L 139.282898 183.109895 
L 140.057914 184.261191 
L 140.79418 176.355775 
L 141.801702 179.361794 
L 142.15046 181.320613 
L 142.964228 180.675846 
L 143.739244 179.274677 
L 145.83179 178.487497 
L 146.258049 178.211541 
L 146.335551 178.323176 
L 146.684308 175.826006 
L 147.033066 181.062915 
L 147.575578 178.067825 
L 147.846833 176.55282 
L 148.815605 175.654381 
L 149.358116 177.444706 
L 150.869399 176.768118 
L 151.101904 175.720751 
L 152.186928 179.861019 
L 154.783234 176.876622 
L 156.255766 176.769683 
L 156.91453 175.818182 
L 157.495793 174.573509 
L 158.929574 169.486316 
L 159.239581 175.219842 
L 159.433335 176.317407 
L 159.937096 173.258736 
L 160.983369 170.848882 
L 161.409628 173.498235 
L 162.455901 172.52653 
L 162.88216 174.21148 
L 163.308419 170.720555 
L 164.935954 174.363282 
L 167.997271 173.956911 
L 168.656035 173.661132 
L 169.004793 175.950161 
L 169.508554 173.620965 
L 170.632328 173.714341 
L 171.717352 171.088271 
L 172.027358 170.64961 
L 172.608621 171.500953 
L 173.189883 170.183249 
L 176.096197 172.515575 
L 178.57625 168.704875 
L 179.080011 167.331562 
L 179.583772 165.62658 
L 179.816277 167.825362 
L 182.025075 167.363908 
L 184.233873 169.95998 
L 185.125142 170.373653 
L 185.783907 179.046191 
L 186.442671 171.947491 
L 187.140186 169.191058 
L 189.736493 165.89106 
L 190.162752 171.413315 
L 190.976519 170.531715 
L 193.417822 175.542747 
L 194.6966 166.765356 
L 195.277863 167.143035 
L 195.859125 160.516955 
L 198.222927 161.331783 
L 198.959193 158.595173 
L 199.695459 160.407408 
L 202.253014 160.462703 
L 203.376789 167.372564 
L 210.81695 164.158117 
L 211.320711 165.445565 
L 211.475714 167.0627 
L 212.134479 165.677963 
L 212.948246 165.306805 
L 213.297004 166.785179 
L 213.684512 166.083029 
L 217.017085 159.188818 
L 217.365842 161.626832 
L 219.380886 163.961974 
L 226.9373 159.691695 
L 227.673566 158.59413 
L 228.409832 160.206048 
L 231.897407 160.552428 
L 232.47867 160.066244 
L 236.508758 160.169011 
L 236.508758 158.908689 
L 236.508758 158.908689 
L 232.47867 159.792896 
L 231.897407 159.436083 
L 228.409832 159.808546 
L 227.673566 155.37551 
L 226.9373 159.619706 
L 219.380886 157.520561 
L 217.365842 157.790816 
L 217.017085 156.73599 
L 213.684512 160.486699 
L 213.297004 160.712055 
L 212.948246 160.80045 
L 212.134479 158.58474 
L 211.475714 159.619706 
L 211.320711 160.491916 
L 210.81695 154.993657 
L 203.376789 154.617021 
L 202.253014 159.296279 
L 199.695459 159.805416 
L 198.959193 155.015567 
L 198.222927 152.755751 
L 195.859125 158.455369 
L 195.277863 159.307756 
L 194.6966 158.564917 
L 193.417822 162.173736 
L 190.976519 160.546168 
L 190.162752 159.267067 
L 189.736493 158.136116 
L 187.140186 158.389641 
L 186.442671 150.659736 
L 185.783907 157.546644 
L 185.125142 157.098541 
L 184.233873 158.258444 
L 182.025075 160.257953 
L 179.816277 158.587348 
L 179.583772 159.765249 
L 179.080011 160.147258 
L 178.57625 155.657204 
L 176.096197 158.753235 
L 173.189883 159.319232 
L 172.608621 160.19405 
L 172.027358 159.877926 
L 171.717352 163.466401 
L 170.632328 160.897243 
L 169.508554 159.812719 
L 169.004793 161.125207 
L 168.656035 157.164791 
L 167.997271 159.760554 
L 164.935954 153.198638 
L 163.308419 158.064192 
L 162.88216 161.219105 
L 162.455901 160.146579 
L 161.409628 160.75071 
L 160.983369 157.545601 
L 159.937096 162.929457 
L 159.433335 156.929524 
L 159.239581 156.716949 
L 158.929574 158.110033 
L 157.495793 159.581104 
L 156.91453 155.253442 
L 156.255766 158.237317 
L 154.783234 158.772536 
L 152.186928 161.1419 
L 151.101904 164.259684 
L 150.869399 157.561772 
L 149.358116 152.125069 
L 148.815605 157.764696 
L 147.846833 162.48255 
L 147.575578 157.432401 
L 147.033066 160.595726 
L 146.684308 159.787419 
L 146.335551 159.191948 
L 146.258049 157.357283 
L 145.83179 159.047971 
L 143.739244 159.381309 
L 142.964228 156.939436 
L 142.15046 159.708388 
L 141.801702 159.445995 
L 140.79418 161.638008 
L 140.057914 158.568047 
L 139.282898 157.74383 
L 138.895389 163.419018 
L 137.732864 158.481974 
L 136.454086 156.740163 
L 136.376585 159.513549 
L 135.640319 161.093907 
L 135.175308 159.659874 
L 134.826551 157.689578 
L 134.749049 158.066214 
L 133.741527 160.058433 
L 133.431521 156.310318 
L 133.082763 160.36098 
L 132.734006 154.431833 
L 132.695255 158.530488 
L 130.757713 159.225334 
L 130.486457 162.980941 
L 130.215201 159.892011 
L 129.750191 161.426724 
L 129.207679 158.349127 
L 129.130177 156.111828 
L 129.013925 158.772536 
L 126.688874 165.144717 
L 126.49512 158.079255 
L 126.107612 158.894604 
L 125.332595 159.482511 
L 125.061339 160.388106 
L 124.518827 158.401639 
L 124.015066 154.991571 
L 123.860063 159.737601 
L 123.666309 159.514853 
L 122.620036 160.415232 
L 121.651265 164.840395 
L 121.535012 158.957724 
L 120.682494 146.87564 
L 120.294986 160.833079 
L 120.178733 166.488951 
L 119.907477 158.84922 
L 119.636221 165.304892 
L 119.13246 157.965012 
L 118.589949 154.322807 
L 118.551198 160.025555 
L 117.969935 158.75793 
L 116.613656 160.988011 
L 116.109895 157.320767 
L 115.761137 160.862814 
L 115.296127 160.019295 
L 114.598612 159.112656 
L 114.482359 164.481351 
L 114.288605 158.221928 
L 114.094851 160.074069 
L 113.668592 157.635847 
L 113.319834 158.219059 
L 112.854824 163.339681 
L 112.583568 164.253501 
L 112.157309 159.405306 
L 112.079807 159.626488 
L 111.576046 160.250598 
L 111.343541 160.93402 
L 110.607275 161.016181 
L 110.413521 153.701514 
L 109.871009 166.218155 
L 109.599753 159.597275 
L 109.134743 161.654166 
L 109.057242 158.852871 
L 108.669733 160.652586 
L 108.04972 160.161707 
L 107.894716 155.713022 
L 106.925945 166.679723 
L 106.732191 158.716198 
L 106.615939 160.884202 
L 106.538437 159.472078 
L 106.189679 159.764205 
L 106.073427 158.188803 
L 105.530915 170.136886 
L 105.414663 159.375571 
L 105.182158 160.001559 
L 104.174636 160.284297 
L 104.019632 157.579247 
L 103.632124 157.681753 
L 103.089612 158.579002 
L 102.857107 159.44443 
L 102.779605 158.232622 
L 102.50835 165.929204 
L 102.275845 163.687255 
L 101.694582 165.482788 
L 101.500828 157.637412 
L 100.648309 157.681231 
L 100.299552 159.874275 
L 99.989545 161.266054 
L 99.563286 171.548114 
L 99.485784 152.886165 
L 99.369531 156.943348 
L 98.982023 154.584679 
L 98.478262 167.708998 
L 98.207006 166.634781 
L 98.090754 152.03743 
L 97.974501 160.936367 
L 97.509491 159.449646 
L 96.850727 160.166402 
L 96.579471 156.069835 
L 96.463218 167.19811 
L 95.959457 158.117336 
L 95.881956 160.787173 
L 95.765703 157.788692 
L 95.494447 159.303583 
L 95.106939 153.211157 
L 94.719431 153.760983 
L 94.68068 158.318174 
L 94.409424 159.648398 
L 94.25442 157.73131 
L 94.138168 159.151259 
L 93.673158 159.85393 
L 93.556905 160.340114 
L 93.440653 160.267604 
L 92.781888 160.61607 
L 92.549383 159.856538 
L 92.239377 157.818166 
L 92.200626 158.328085 
L 91.92937 158.720371 
L 91.425609 167.581563 
L 91.231855 167.576435 
L 90.883097 167.565808 
L 90.53434 158.698461 
L 90.418087 158.005701 
L 90.06933 160.003198 
L 89.294313 158.674465 
L 89.255562 170.284238 
L 89.139309 155.789705 
L 88.906804 157.890937 
L 88.71305 158.068822 
L 88.519296 160.811691 
L 87.899283 157.999963 
L 87.628027 157.928496 
L 87.395522 158.152809 
L 87.356771 155.80692 
L 87.085515 158.559701 
L 86.969262 152.6389 
L 86.814259 156.833018 
L 86.581754 151.332673 
L 86.388 156.675478 
L 86.349249 158.060997 
L 86.000491 167.859059 
L 85.729235 158.01127 
L 85.419229 151.588284 
L 84.837966 154.414097 
L 84.372956 168.546004 
L 84.256703 158.173936 
L 83.869195 153.798542 
L 83.559188 179.299373 
L 83.481687 156.209117 
L 83.287932 155.786575 
L 83.094178 156.101656 
L 82.745421 156.73912 
L 82.629168 153.35044 
L 82.319161 154.735959 
L 81.931653 154.457395 
L 81.699148 155.13294 
L 81.389141 154.418792 
L 81.35039 155.944115 
L 81.117885 155.995238 
L 80.769128 168.341922 
L 80.575374 155.843957 
L 80.42037 157.077153 
L 79.839108 150.385866 
L 79.606603 155.284096 
L 79.49035 136.762287 
L 79.374098 158.42407 
L 79.219094 149.324817 
L 78.909087 146.10098 
L 78.327825 148.703524 
L 77.979067 137.722657 
L 77.862815 147.141163 
L 77.669061 141.575611 
L 77.281552 147.972162 
L 77.049047 145.265808 
L 76.235279 132.854559 
L 76.119027 124.334866 
L 75.692768 162.932548 
L 75.189007 59.209193 
L 75.150256 126.394875 
L 74.879 114.469822 
L 74.762747 74.185948 
L 74.607744 119.167998 
L 74.568993 96.740815 
L 74.375239 108.20857 
L 74.258987 106.370793 
L 74.142734 53.568 
L 74.065232 94.854348 
L 73.987731 58.161185 
L 73.94898 58.300467 
L 73.910229 140.929548 
L 73.832727 64.093983 
z
" clip-path="url(#p1737490c5c)" style="fill: #1f77b4; fill-opacity: 0.2; stroke: #1f77b4; stroke-opacity: 0.2"/>
    <path d="M 243.05765 158.553441 
L 243.05765 160.676582 
L 243.871417 158.841395 
L 243.871417 154.788125 
L 243.871417 154.788125 
L 243.05765 158.553441 
z
" clip-path="url(#p1737490c5c)" style="fill: #1f77b4; fill-opacity: 0.2; stroke: #1f77b4; stroke-opacity: 0.2"/>
    <path d="M 250.497811 158.954073 
L 250.497811 160.073548 
L 250.497811 158.954073 
L 250.497811 158.954073 
z
" clip-path="url(#p1737490c5c)" style="fill: #1f77b4; fill-opacity: 0.2; stroke: #1f77b4; stroke-opacity: 0.2"/>
    <path d="M 253.636629 159.802286 
L 253.636629 160.059984 
L 255.651673 161.006269 
L 261.541801 157.879461 
L 269.098215 159.210728 
L 274.058322 159.040668 
L 274.794588 159.510159 
L 283.62978 160.79239 
L 283.62978 159.019802 
L 283.62978 159.019802 
L 274.794588 158.730282 
L 274.058322 154.452178 
L 269.098215 159.112656 
L 261.541801 157.612373 
L 255.651673 159.418347 
L 253.636629 159.802286 
z
" clip-path="url(#p1737490c5c)" style="fill: #1f77b4; fill-opacity: 0.2; stroke: #1f77b4; stroke-opacity: 0.2"/>
    <path d="M 295.13878 154.213259 
L 295.13878 154.674404 
L 295.13878 154.213259 
L 295.13878 154.213259 
z
" clip-path="url(#p1737490c5c)" style="fill: #1f77b4; fill-opacity: 0.2; stroke: #1f77b4; stroke-opacity: 0.2"/>
    <path d="M 305.717759 157.657235 
L 305.717759 158.249837 
L 311.607887 160.206048 
L 321.179345 156.816325 
L 336.640931 159.888881 
L 336.640931 158.41781 
L 336.640931 158.41781 
L 321.179345 156.224766 
L 311.607887 157.826252 
L 305.717759 157.657235 
z
" clip-path="url(#p1737490c5c)" style="fill: #1f77b4; fill-opacity: 0.2; stroke: #1f77b4; stroke-opacity: 0.2"/>
    <path d="M 367.564102 155.343167 
L 367.564102 158.971809 
L 367.564102 155.343167 
L 367.564102 155.343167 
z
" clip-path="url(#p1737490c5c)" style="fill: #1f77b4; fill-opacity: 0.2; stroke: #1f77b4; stroke-opacity: 0.2"/>
   </g>
   <g id="matplotlib.axis_1">
    <g id="xtick_1">
     <g id="line2d_1">
      <defs>
       <path id="mdf76f032ae" d="M 0 0 
L 0 3.5 
" style="stroke: #000000; stroke-width: 0.8"/>
      </defs>
      <g>
       <use xlink:href="#mdf76f032ae" x="73.793976" y="307.584" style="stroke: #000000; stroke-width: 0.8"/>
      </g>
     </g>
     <g id="text_1">
      <!-- 0 -->
      <g transform="translate(70.612726 322.182437)scale(0.1 -0.1)">
       <defs>
        <path id="DejaVuSans-30" d="M 2034 4250 
Q 1547 4250 1301 3770 
Q 1056 3291 1056 2328 
Q 1056 1369 1301 889 
Q 1547 409 2034 409 
Q 2525 409 2770 889 
Q 3016 1369 3016 2328 
Q 3016 3291 2770 3770 
Q 2525 4250 2034 4250 
z
M 2034 4750 
Q 2819 4750 3233 4129 
Q 3647 3509 3647 2328 
Q 3647 1150 3233 529 
Q 2819 -91 2034 -91 
Q 1250 -91 836 529 
Q 422 1150 422 2328 
Q 422 3509 836 4129 
Q 1250 4750 2034 4750 
z
" transform="scale(0.015625)"/>
       </defs>
       <use xlink:href="#DejaVuSans-30"/>
      </g>
     </g>
    </g>
    <g id="xtick_2">
     <g id="line2d_2">
      <g>
       <use xlink:href="#mdf76f032ae" x="149.479213" y="307.584" style="stroke: #000000; stroke-width: 0.8"/>
      </g>
     </g>
     <g id="text_2">
      <!-- 1 -->
      <g transform="translate(146.297963 322.182437)scale(0.1 -0.1)">
       <defs>
        <path id="DejaVuSans-31" d="M 794 531 
L 1825 531 
L 1825 4091 
L 703 3866 
L 703 4441 
L 1819 4666 
L 2450 4666 
L 2450 531 
L 3481 531 
L 3481 0 
L 794 0 
L 794 531 
z
" transform="scale(0.015625)"/>
       </defs>
       <use xlink:href="#DejaVuSans-31"/>
      </g>
     </g>
    </g>
    <g id="xtick_3">
     <g id="line2d_3">
      <g>
       <use xlink:href="#mdf76f032ae" x="225.164449" y="307.584" style="stroke: #000000; stroke-width: 0.8"/>
      </g>
     </g>
     <g id="text_3">
      <!-- 2 -->
      <g transform="translate(221.983199 322.182437)scale(0.1 -0.1)">
       <defs>
        <path id="DejaVuSans-32" d="M 1228 531 
L 3431 531 
L 3431 0 
L 469 0 
L 469 531 
Q 828 903 1448 1529 
Q 2069 2156 2228 2338 
Q 2531 2678 2651 2914 
Q 2772 3150 2772 3378 
Q 2772 3750 2511 3984 
Q 2250 4219 1831 4219 
Q 1534 4219 1204 4116 
Q 875 4013 500 3803 
L 500 4441 
Q 881 4594 1212 4672 
Q 1544 4750 1819 4750 
Q 2544 4750 2975 4387 
Q 3406 4025 3406 3419 
Q 3406 3131 3298 2873 
Q 3191 2616 2906 2266 
Q 2828 2175 2409 1742 
Q 1991 1309 1228 531 
z
" transform="scale(0.015625)"/>
       </defs>
       <use xlink:href="#DejaVuSans-32"/>
      </g>
     </g>
    </g>
    <g id="xtick_4">
     <g id="line2d_4">
      <g>
       <use xlink:href="#mdf76f032ae" x="300.849685" y="307.584" style="stroke: #000000; stroke-width: 0.8"/>
      </g>
     </g>
     <g id="text_4">
      <!-- 3 -->
      <g transform="translate(297.668435 322.182437)scale(0.1 -0.1)">
       <defs>
        <path id="DejaVuSans-33" d="M 2597 2516 
Q 3050 2419 3304 2112 
Q 3559 1806 3559 1356 
Q 3559 666 3084 287 
Q 2609 -91 1734 -91 
Q 1441 -91 1130 -33 
Q 819 25 488 141 
L 488 750 
Q 750 597 1062 519 
Q 1375 441 1716 441 
Q 2309 441 2620 675 
Q 2931 909 2931 1356 
Q 2931 1769 2642 2001 
Q 2353 2234 1838 2234 
L 1294 2234 
L 1294 2753 
L 1863 2753 
Q 2328 2753 2575 2939 
Q 2822 3125 2822 3475 
Q 2822 3834 2567 4026 
Q 2313 4219 1838 4219 
Q 1578 4219 1281 4162 
Q 984 4106 628 3988 
L 628 4550 
Q 988 4650 1302 4700 
Q 1616 4750 1894 4750 
Q 2613 4750 3031 4423 
Q 3450 4097 3450 3541 
Q 3450 3153 3228 2886 
Q 3006 2619 2597 2516 
z
" transform="scale(0.015625)"/>
       </defs>
       <use xlink:href="#DejaVuSans-33"/>
      </g>
     </g>
    </g>
    <g id="xtick_5">
     <g id="line2d_5">
      <g>
       <use xlink:href="#mdf76f032ae" x="376.534921" y="307.584" style="stroke: #000000; stroke-width: 0.8"/>
      </g>
     </g>
     <g id="text_5">
      <!-- 4 -->
      <g transform="translate(373.353671 322.182437)scale(0.1 -0.1)">
       <defs>
        <path id="DejaVuSans-34" d="M 2419 4116 
L 825 1625 
L 2419 1625 
L 2419 4116 
z
M 2253 4666 
L 3047 4666 
L 3047 1625 
L 3713 1625 
L 3713 1100 
L 3047 1100 
L 3047 0 
L 2419 0 
L 2419 1100 
L 313 1100 
L 313 1709 
L 2253 4666 
z
" transform="scale(0.015625)"/>
       </defs>
       <use xlink:href="#DejaVuSans-34"/>
      </g>
     </g>
    </g>
    <g id="text_6">
     <!-- Problem Size -->
     <g transform="translate(203.867031 335.860562)scale(0.1 -0.1)">
      <defs>
       <path id="DejaVuSans-50" d="M 1259 4147 
L 1259 2394 
L 2053 2394 
Q 2494 2394 2734 2622 
Q 2975 2850 2975 3272 
Q 2975 3691 2734 3919 
Q 2494 4147 2053 4147 
L 1259 4147 
z
M 628 4666 
L 2053 4666 
Q 2838 4666 3239 4311 
Q 3641 3956 3641 3272 
Q 3641 2581 3239 2228 
Q 2838 1875 2053 1875 
L 1259 1875 
L 1259 0 
L 628 0 
L 628 4666 
z
" transform="scale(0.015625)"/>
       <path id="DejaVuSans-72" d="M 2631 2963 
Q 2534 3019 2420 3045 
Q 2306 3072 2169 3072 
Q 1681 3072 1420 2755 
Q 1159 2438 1159 1844 
L 1159 0 
L 581 0 
L 581 3500 
L 1159 3500 
L 1159 2956 
Q 1341 3275 1631 3429 
Q 1922 3584 2338 3584 
Q 2397 3584 2469 3576 
Q 2541 3569 2628 3553 
L 2631 2963 
z
" transform="scale(0.015625)"/>
       <path id="DejaVuSans-6f" d="M 1959 3097 
Q 1497 3097 1228 2736 
Q 959 2375 959 1747 
Q 959 1119 1226 758 
Q 1494 397 1959 397 
Q 2419 397 2687 759 
Q 2956 1122 2956 1747 
Q 2956 2369 2687 2733 
Q 2419 3097 1959 3097 
z
M 1959 3584 
Q 2709 3584 3137 3096 
Q 3566 2609 3566 1747 
Q 3566 888 3137 398 
Q 2709 -91 1959 -91 
Q 1206 -91 779 398 
Q 353 888 353 1747 
Q 353 2609 779 3096 
Q 1206 3584 1959 3584 
z
" transform="scale(0.015625)"/>
       <path id="DejaVuSans-62" d="M 3116 1747 
Q 3116 2381 2855 2742 
Q 2594 3103 2138 3103 
Q 1681 3103 1420 2742 
Q 1159 2381 1159 1747 
Q 1159 1113 1420 752 
Q 1681 391 2138 391 
Q 2594 391 2855 752 
Q 3116 1113 3116 1747 
z
M 1159 2969 
Q 1341 3281 1617 3432 
Q 1894 3584 2278 3584 
Q 2916 3584 3314 3078 
Q 3713 2572 3713 1747 
Q 3713 922 3314 415 
Q 2916 -91 2278 -91 
Q 1894 -91 1617 61 
Q 1341 213 1159 525 
L 1159 0 
L 581 0 
L 581 4863 
L 1159 4863 
L 1159 2969 
z
" transform="scale(0.015625)"/>
       <path id="DejaVuSans-6c" d="M 603 4863 
L 1178 4863 
L 1178 0 
L 603 0 
L 603 4863 
z
" transform="scale(0.015625)"/>
       <path id="DejaVuSans-65" d="M 3597 1894 
L 3597 1613 
L 953 1613 
Q 991 1019 1311 708 
Q 1631 397 2203 397 
Q 2534 397 2845 478 
Q 3156 559 3463 722 
L 3463 178 
Q 3153 47 2828 -22 
Q 2503 -91 2169 -91 
Q 1331 -91 842 396 
Q 353 884 353 1716 
Q 353 2575 817 3079 
Q 1281 3584 2069 3584 
Q 2775 3584 3186 3129 
Q 3597 2675 3597 1894 
z
M 3022 2063 
Q 3016 2534 2758 2815 
Q 2500 3097 2075 3097 
Q 1594 3097 1305 2825 
Q 1016 2553 972 2059 
L 3022 2063 
z
" transform="scale(0.015625)"/>
       <path id="DejaVuSans-6d" d="M 3328 2828 
Q 3544 3216 3844 3400 
Q 4144 3584 4550 3584 
Q 5097 3584 5394 3201 
Q 5691 2819 5691 2113 
L 5691 0 
L 5113 0 
L 5113 2094 
Q 5113 2597 4934 2840 
Q 4756 3084 4391 3084 
Q 3944 3084 3684 2787 
Q 3425 2491 3425 1978 
L 3425 0 
L 2847 0 
L 2847 2094 
Q 2847 2600 2669 2842 
Q 2491 3084 2119 3084 
Q 1678 3084 1418 2786 
Q 1159 2488 1159 1978 
L 1159 0 
L 581 0 
L 581 3500 
L 1159 3500 
L 1159 2956 
Q 1356 3278 1631 3431 
Q 1906 3584 2284 3584 
Q 2666 3584 2933 3390 
Q 3200 3197 3328 2828 
z
" transform="scale(0.015625)"/>
       <path id="DejaVuSans-20" transform="scale(0.015625)"/>
       <path id="DejaVuSans-53" d="M 3425 4513 
L 3425 3897 
Q 3066 4069 2747 4153 
Q 2428 4238 2131 4238 
Q 1616 4238 1336 4038 
Q 1056 3838 1056 3469 
Q 1056 3159 1242 3001 
Q 1428 2844 1947 2747 
L 2328 2669 
Q 3034 2534 3370 2195 
Q 3706 1856 3706 1288 
Q 3706 609 3251 259 
Q 2797 -91 1919 -91 
Q 1588 -91 1214 -16 
Q 841 59 441 206 
L 441 856 
Q 825 641 1194 531 
Q 1563 422 1919 422 
Q 2459 422 2753 634 
Q 3047 847 3047 1241 
Q 3047 1584 2836 1778 
Q 2625 1972 2144 2069 
L 1759 2144 
Q 1053 2284 737 2584 
Q 422 2884 422 3419 
Q 422 4038 858 4394 
Q 1294 4750 2059 4750 
Q 2388 4750 2728 4690 
Q 3069 4631 3425 4513 
z
" transform="scale(0.015625)"/>
       <path id="DejaVuSans-69" d="M 603 3500 
L 1178 3500 
L 1178 0 
L 603 0 
L 603 3500 
z
M 603 4863 
L 1178 4863 
L 1178 4134 
L 603 4134 
L 603 4863 
z
" transform="scale(0.015625)"/>
       <path id="DejaVuSans-7a" d="M 353 3500 
L 3084 3500 
L 3084 2975 
L 922 459 
L 3084 459 
L 3084 0 
L 275 0 
L 275 525 
L 2438 3041 
L 353 3041 
L 353 3500 
z
" transform="scale(0.015625)"/>
      </defs>
      <use xlink:href="#DejaVuSans-50"/>
      <use xlink:href="#DejaVuSans-72" x="58.552734"/>
      <use xlink:href="#DejaVuSans-6f" x="97.416016"/>
      <use xlink:href="#DejaVuSans-62" x="158.597656"/>
      <use xlink:href="#DejaVuSans-6c" x="222.074219"/>
      <use xlink:href="#DejaVuSans-65" x="249.857422"/>
      <use xlink:href="#DejaVuSans-6d" x="311.380859"/>
      <use xlink:href="#DejaVuSans-20" x="408.792969"/>
      <use xlink:href="#DejaVuSans-53" x="440.580078"/>
      <use xlink:href="#DejaVuSans-69" x="504.056641"/>
      <use xlink:href="#DejaVuSans-7a" x="531.839844"/>
      <use xlink:href="#DejaVuSans-65" x="584.330078"/>
     </g>
    </g>
    <g id="text_7">
     <!-- 1e6 -->
     <g transform="translate(395.841875 334.860562)scale(0.1 -0.1)">
      <defs>
       <path id="DejaVuSans-36" d="M 2113 2584 
Q 1688 2584 1439 2293 
Q 1191 2003 1191 1497 
Q 1191 994 1439 701 
Q 1688 409 2113 409 
Q 2538 409 2786 701 
Q 3034 994 3034 1497 
Q 3034 2003 2786 2293 
Q 2538 2584 2113 2584 
z
M 3366 4563 
L 3366 3988 
Q 3128 4100 2886 4159 
Q 2644 4219 2406 4219 
Q 1781 4219 1451 3797 
Q 1122 3375 1075 2522 
Q 1259 2794 1537 2939 
Q 1816 3084 2150 3084 
Q 2853 3084 3261 2657 
Q 3669 2231 3669 1497 
Q 3669 778 3244 343 
Q 2819 -91 2113 -91 
Q 1303 -91 875 529 
Q 447 1150 447 2328 
Q 447 3434 972 4092 
Q 1497 4750 2381 4750 
Q 2619 4750 2861 4703 
Q 3103 4656 3366 4563 
z
" transform="scale(0.015625)"/>
      </defs>
      <use xlink:href="#DejaVuSans-31"/>
      <use xlink:href="#DejaVuSans-65" x="63.623047"/>
      <use xlink:href="#DejaVuSans-36" x="125.146484"/>
     </g>
    </g>
   </g>
   <g id="matplotlib.axis_2">
    <g id="ytick_1">
     <g id="line2d_6">
      <defs>
       <path id="md19ec742b4" d="M 0 0 
L -3.5 0 
" style="stroke: #000000; stroke-width: 0.8"/>
      </defs>
      <g>
       <use xlink:href="#md19ec742b4" x="57.6" y="297.145031" style="stroke: #000000; stroke-width: 0.8"/>
      </g>
     </g>
     <g id="text_8">
      <!-- 0.0 -->
      <g transform="translate(34.696875 300.94425)scale(0.1 -0.1)">
       <defs>
        <path id="DejaVuSans-2e" d="M 684 794 
L 1344 794 
L 1344 0 
L 684 0 
L 684 794 
z
" transform="scale(0.015625)"/>
       </defs>
       <use xlink:href="#DejaVuSans-30"/>
       <use xlink:href="#DejaVuSans-2e" x="63.623047"/>
       <use xlink:href="#DejaVuSans-30" x="95.410156"/>
      </g>
     </g>
    </g>
    <g id="ytick_2">
     <g id="line2d_7">
      <g>
       <use xlink:href="#md19ec742b4" x="57.6" y="244.979389" style="stroke: #000000; stroke-width: 0.8"/>
      </g>
     </g>
     <g id="text_9">
      <!-- 0.5 -->
      <g transform="translate(34.696875 248.778608)scale(0.1 -0.1)">
       <defs>
        <path id="DejaVuSans-35" d="M 691 4666 
L 3169 4666 
L 3169 4134 
L 1269 4134 
L 1269 2991 
Q 1406 3038 1543 3061 
Q 1681 3084 1819 3084 
Q 2600 3084 3056 2656 
Q 3513 2228 3513 1497 
Q 3513 744 3044 326 
Q 2575 -91 1722 -91 
Q 1428 -91 1123 -41 
Q 819 9 494 109 
L 494 744 
Q 775 591 1075 516 
Q 1375 441 1709 441 
Q 2250 441 2565 725 
Q 2881 1009 2881 1497 
Q 2881 1984 2565 2268 
Q 2250 2553 1709 2553 
Q 1456 2553 1204 2497 
Q 953 2441 691 2322 
L 691 4666 
z
" transform="scale(0.015625)"/>
       </defs>
       <use xlink:href="#DejaVuSans-30"/>
       <use xlink:href="#DejaVuSans-2e" x="63.623047"/>
       <use xlink:href="#DejaVuSans-35" x="95.410156"/>
      </g>
     </g>
    </g>
    <g id="ytick_3">
     <g id="line2d_8">
      <g>
       <use xlink:href="#md19ec742b4" x="57.6" y="192.813748" style="stroke: #000000; stroke-width: 0.8"/>
      </g>
     </g>
     <g id="text_10">
      <!-- 1.0 -->
      <g transform="translate(34.696875 196.612966)scale(0.1 -0.1)">
       <use xlink:href="#DejaVuSans-31"/>
       <use xlink:href="#DejaVuSans-2e" x="63.623047"/>
       <use xlink:href="#DejaVuSans-30" x="95.410156"/>
      </g>
     </g>
    </g>
    <g id="ytick_4">
     <g id="line2d_9">
      <g>
       <use xlink:href="#md19ec742b4" x="57.6" y="140.648106" style="stroke: #000000; stroke-width: 0.8"/>
      </g>
     </g>
     <g id="text_11">
      <!-- 1.5 -->
      <g transform="translate(34.696875 144.447325)scale(0.1 -0.1)">
       <use xlink:href="#DejaVuSans-31"/>
       <use xlink:href="#DejaVuSans-2e" x="63.623047"/>
       <use xlink:href="#DejaVuSans-35" x="95.410156"/>
      </g>
     </g>
    </g>
    <g id="ytick_5">
     <g id="line2d_10">
      <g>
       <use xlink:href="#md19ec742b4" x="57.6" y="88.482464" style="stroke: #000000; stroke-width: 0.8"/>
      </g>
     </g>
     <g id="text_12">
      <!-- 2.0 -->
      <g transform="translate(34.696875 92.281683)scale(0.1 -0.1)">
       <use xlink:href="#DejaVuSans-32"/>
       <use xlink:href="#DejaVuSans-2e" x="63.623047"/>
       <use xlink:href="#DejaVuSans-30" x="95.410156"/>
      </g>
     </g>
    </g>
    <g id="text_13">
     <!-- GFLOPS -->
     <g transform="translate(28.617187 194.007688)rotate(-90)scale(0.1 -0.1)">
      <defs>
       <path id="DejaVuSans-47" d="M 3809 666 
L 3809 1919 
L 2778 1919 
L 2778 2438 
L 4434 2438 
L 4434 434 
Q 4069 175 3628 42 
Q 3188 -91 2688 -91 
Q 1594 -91 976 548 
Q 359 1188 359 2328 
Q 359 3472 976 4111 
Q 1594 4750 2688 4750 
Q 3144 4750 3555 4637 
Q 3966 4525 4313 4306 
L 4313 3634 
Q 3963 3931 3569 4081 
Q 3175 4231 2741 4231 
Q 1884 4231 1454 3753 
Q 1025 3275 1025 2328 
Q 1025 1384 1454 906 
Q 1884 428 2741 428 
Q 3075 428 3337 486 
Q 3600 544 3809 666 
z
" transform="scale(0.015625)"/>
       <path id="DejaVuSans-46" d="M 628 4666 
L 3309 4666 
L 3309 4134 
L 1259 4134 
L 1259 2759 
L 3109 2759 
L 3109 2228 
L 1259 2228 
L 1259 0 
L 628 0 
L 628 4666 
z
" transform="scale(0.015625)"/>
       <path id="DejaVuSans-4c" d="M 628 4666 
L 1259 4666 
L 1259 531 
L 3531 531 
L 3531 0 
L 628 0 
L 628 4666 
z
" transform="scale(0.015625)"/>
       <path id="DejaVuSans-4f" d="M 2522 4238 
Q 1834 4238 1429 3725 
Q 1025 3213 1025 2328 
Q 1025 1447 1429 934 
Q 1834 422 2522 422 
Q 3209 422 3611 934 
Q 4013 1447 4013 2328 
Q 4013 3213 3611 3725 
Q 3209 4238 2522 4238 
z
M 2522 4750 
Q 3503 4750 4090 4092 
Q 4678 3434 4678 2328 
Q 4678 1225 4090 567 
Q 3503 -91 2522 -91 
Q 1538 -91 948 565 
Q 359 1222 359 2328 
Q 359 3434 948 4092 
Q 1538 4750 2522 4750 
z
" transform="scale(0.015625)"/>
      </defs>
      <use xlink:href="#DejaVuSans-47"/>
      <use xlink:href="#DejaVuSans-46" x="77.490234"/>
      <use xlink:href="#DejaVuSans-4c" x="135.009766"/>
      <use xlink:href="#DejaVuSans-4f" x="187.097656"/>
      <use xlink:href="#DejaVuSans-50" x="265.808594"/>
      <use xlink:href="#DejaVuSans-53" x="326.111328"/>
     </g>
    </g>
   </g>
   <g id="line2d_11">
    <path d="M 73.832727 179.790992 
L 73.910229 217.685656 
L 73.987731 175.549795 
L 74.065232 175.135509 
L 74.142734 173.573254 
L 74.258987 199.127328 
L 74.375239 199.265799 
L 74.568993 195.768896 
L 74.762747 180.237029 
L 74.879 199.710984 
L 75.150256 190.29686 
L 75.189007 174.320276 
L 75.692768 210.632644 
L 76.119027 204.373758 
L 76.235279 208.157123 
L 77.049047 212.294537 
L 77.281552 212.810247 
L 77.669061 208.544506 
L 77.862815 210.861677 
L 77.979067 205.82498 
L 78.327825 210.203634 
L 78.909087 207.672192 
L 79.219094 208.007434 
L 79.374098 212.057966 
L 79.49035 201.077072 
L 79.606603 210.519549 
L 79.839108 207.220959 
L 80.42037 208.701785 
L 80.575374 207.886384 
L 80.769128 207.723184 
L 81.117885 208.907213 
L 81.389141 207.604689 
L 81.699148 207.502732 
L 82.629168 203.826514 
L 82.745421 205.29456 
L 83.094178 203.72247 
L 83.287932 203.82521 
L 83.481687 203.269307 
L 83.559188 203.342078 
L 83.869195 201.393274 
L 84.256703 202.630017 
L 84.372956 201.821945 
L 85.419229 196.71279 
L 85.729235 199.496271 
L 86.000491 198.114846 
L 86.349249 198.088007 
L 86.581754 194.349139 
L 86.814259 196.28511 
L 86.969262 193.78768 
L 87.085515 196.09721 
L 87.356771 195.253848 
L 87.395522 196.244343 
L 87.899283 197.944995 
L 88.519296 199.315099 
L 88.71305 197.421017 
L 88.906804 197.932345 
L 89.139309 196.236101 
L 89.255562 197.24681 
L 89.294313 195.287234 
L 90.06933 192.531517 
L 90.418087 194.022895 
L 90.53434 195.954484 
L 90.883097 194.821355 
L 91.231855 194.57529 
L 91.425609 194.099761 
L 91.92937 194.164577 
L 92.200626 192.737951 
L 92.239377 193.26099 
L 92.549383 192.147958 
L 92.781888 193.328153 
L 93.556905 191.885147 
L 93.673158 192.93472 
L 94.138168 190.726157 
L 94.409424 191.597427 
L 94.68068 190.882289 
L 94.719431 187.947919 
L 95.106939 188.736533 
L 95.494447 191.108974 
L 95.765703 189.929353 
L 95.881956 191.843858 
L 95.959457 189.864876 
L 96.463218 189.278521 
L 96.579471 187.848517 
L 96.850727 188.350925 
L 97.974501 188.111484 
L 98.090754 183.074761 
L 98.207006 186.582849 
L 98.478262 186.901468 
L 98.982023 183.657504 
L 99.369531 185.690842 
L 99.485784 182.428533 
L 99.563286 185.108452 
L 100.299552 185.225029 
L 100.648309 182.064913 
L 101.500828 183.095471 
L 101.694582 184.153273 
L 102.275845 182.888739 
L 102.50835 183.490678 
L 102.857107 183.655365 
L 103.089612 183.096827 
L 103.632124 183.574717 
L 104.019632 181.041918 
L 104.174636 184.484147 
L 105.182158 181.164325 
L 105.414663 182.204691 
L 105.530915 182.106498 
L 106.073427 181.920623 
L 106.189679 182.645699 
L 106.538437 181.679044 
L 106.615939 182.722982 
L 106.732191 181.434465 
L 106.925945 181.917232 
L 107.894716 177.508505 
L 108.04972 180.594337 
L 108.669733 182.778747 
L 109.057242 179.680578 
L 109.134743 183.873339 
L 109.599753 181.43217 
L 109.871009 180.69753 
L 110.413521 177.013531 
L 110.607275 180.041773 
L 111.343541 180.64113 
L 111.576046 178.665773 
L 112.079807 179.571291 
L 112.157309 178.194248 
L 112.583568 177.968488 
L 113.319834 176.61715 
L 113.668592 175.054059 
L 114.094851 176.62461 
L 114.288605 175.589435 
L 114.598612 177.019035 
L 115.296127 177.186225 
L 115.761137 178.260003 
L 116.109895 176.146669 
L 116.613656 176.746808 
L 117.969935 177.190999 
L 118.551198 176.232533 
L 118.589949 172.92664 
L 119.13246 175.853524 
L 119.636221 176.141174 
L 119.907477 175.385468 
L 120.178733 176.041955 
L 120.682494 169.849337 
L 121.535012 177.098639 
L 122.620036 176.630922 
L 123.860063 174.629848 
L 124.015066 172.027304 
L 124.518827 173.886227 
L 125.061339 174.16114 
L 125.332595 173.723731 
L 126.107612 172.160588 
L 126.49512 171.809252 
L 126.688874 172.286915 
L 129.013925 173.09044 
L 129.207679 170.447207 
L 129.750191 174.407623 
L 130.215201 171.773518 
L 130.757713 173.580536 
L 132.695255 172.538788 
L 132.734006 169.898946 
L 133.082763 172.544005 
L 133.431521 170.06379 
L 133.741527 169.7521 
L 134.826551 172.961069 
L 135.175308 174.400059 
L 135.640319 174.684883 
L 136.376585 174.134796 
L 136.454086 172.422459 
L 137.732864 172.634512 
L 138.895389 172.082078 
L 139.282898 170.426862 
L 140.057914 171.414619 
L 140.79418 169.302867 
L 141.801702 169.365031 
L 142.15046 170.514501 
L 142.964228 168.807641 
L 143.739244 169.327993 
L 145.83179 168.767734 
L 146.258049 167.784412 
L 146.335551 168.757562 
L 146.684308 167.823275 
L 147.033066 170.82932 
L 147.575578 167.562969 
L 147.846833 169.666548 
L 149.358116 164.784887 
L 150.869399 167.164945 
L 151.101904 169.645769 
L 152.186928 170.501459 
L 154.783234 167.824579 
L 156.255766 167.5035 
L 156.91453 165.535812 
L 157.495793 167.077307 
L 158.929574 163.798174 
L 159.239581 166.734578 
L 159.433335 166.623465 
L 159.937096 167.978598 
L 160.983369 164.197241 
L 161.409628 166.982365 
L 162.455901 166.336554 
L 162.88216 167.715292 
L 163.308419 164.410077 
L 164.935954 163.78096 
L 167.997271 166.858733 
L 168.656035 165.412962 
L 169.004793 168.537684 
L 169.508554 166.716842 
L 170.632328 167.305792 
L 171.717352 167.139558 
L 172.027358 165.263768 
L 172.608621 165.847502 
L 173.189883 164.751241 
L 176.096197 165.634405 
L 178.57625 162.181039 
L 179.080011 163.618203 
L 179.583772 162.695914 
L 179.816277 163.206355 
L 182.025075 163.871206 
L 184.233873 164.314353 
L 185.125142 163.736097 
L 185.783907 168.296418 
L 186.442671 160.490873 
L 187.140186 163.790349 
L 189.736493 162.013588 
L 190.162752 163.414583 
L 190.976519 164.103865 
L 193.417822 168.858242 
L 194.6966 162.665137 
L 195.277863 162.423088 
L 195.859125 159.486162 
L 198.222927 157.828338 
L 198.959193 156.80537 
L 199.695459 160.106412 
L 202.253014 159.879491 
L 203.376789 160.625808 
L 210.81695 159.11996 
L 211.475714 163.341203 
L 212.134479 162.083751 
L 212.948246 162.642531 
L 213.297004 163.748617 
L 213.684512 163.284864 
L 217.017085 157.962404 
L 217.365842 159.539163 
L 219.380886 160.741268 
L 226.9373 159.655701 
L 227.673566 156.98482 
L 228.409832 160.007297 
L 232.47867 159.92957 
L 236.508758 159.53885 
L 239.453821 154.083889 
L 243.05765 159.615012 
L 243.871417 156.81476 
L 244.685185 160.483569 
L 250.497811 159.51381 
L 252.977865 158.231057 
L 253.636629 159.931135 
L 255.651673 159.949046 
L 261.541801 157.745917 
L 269.098215 159.161692 
L 274.058322 156.746423 
L 274.794588 159.097268 
L 283.62978 159.906096 
L 286.574844 159.661439 
L 295.13878 154.443831 
L 295.952548 153.271148 
L 297.618834 158.276963 
L 305.717759 157.953536 
L 311.607887 159.01615 
L 321.179345 156.520546 
L 336.640931 159.153346 
L 339.585994 158.527358 
L 347.21991 149.969063 
L 367.564102 157.157488 
L 398.487273 152.337383 
L 398.487273 152.337383 
" clip-path="url(#p1737490c5c)" style="fill: none; stroke: #1f77b4; stroke-width: 1.5; stroke-linecap: square"/>
   </g>
   <g id="line2d_12"/>
   <g id="patch_3">
    <path d="M 57.6 307.584 
L 57.6 41.472 
" style="fill: none; stroke: #000000; stroke-width: 0.8; stroke-linejoin: miter; stroke-linecap: square"/>
   </g>
   <g id="patch_4">
    <path d="M 414.72 307.584 
L 414.72 41.472 
" style="fill: none; stroke: #000000; stroke-width: 0.8; stroke-linejoin: miter; stroke-linecap: square"/>
   </g>
   <g id="patch_5">
    <path d="M 57.6 307.584 
L 414.72 307.584 
" style="fill: none; stroke: #000000; stroke-width: 0.8; stroke-linejoin: miter; stroke-linecap: square"/>
   </g>
   <g id="patch_6">
    <path d="M 57.6 41.472 
L 414.72 41.472 
" style="fill: none; stroke: #000000; stroke-width: 0.8; stroke-linejoin: miter; stroke-linecap: square"/>
   </g>
   <g id="text_14">
    <!-- Performance vs Problem Size -->
    <g transform="translate(148.899375 35.472)scale(0.12 -0.12)">
     <defs>
      <path id="DejaVuSans-66" d="M 2375 4863 
L 2375 4384 
L 1825 4384 
Q 1516 4384 1395 4259 
Q 1275 4134 1275 3809 
L 1275 3500 
L 2222 3500 
L 2222 3053 
L 1275 3053 
L 1275 0 
L 697 0 
L 697 3053 
L 147 3053 
L 147 3500 
L 697 3500 
L 697 3744 
Q 697 4328 969 4595 
Q 1241 4863 1831 4863 
L 2375 4863 
z
" transform="scale(0.015625)"/>
      <path id="DejaVuSans-61" d="M 2194 1759 
Q 1497 1759 1228 1600 
Q 959 1441 959 1056 
Q 959 750 1161 570 
Q 1363 391 1709 391 
Q 2188 391 2477 730 
Q 2766 1069 2766 1631 
L 2766 1759 
L 2194 1759 
z
M 3341 1997 
L 3341 0 
L 2766 0 
L 2766 531 
Q 2569 213 2275 61 
Q 1981 -91 1556 -91 
Q 1019 -91 701 211 
Q 384 513 384 1019 
Q 384 1609 779 1909 
Q 1175 2209 1959 2209 
L 2766 2209 
L 2766 2266 
Q 2766 2663 2505 2880 
Q 2244 3097 1772 3097 
Q 1472 3097 1187 3025 
Q 903 2953 641 2809 
L 641 3341 
Q 956 3463 1253 3523 
Q 1550 3584 1831 3584 
Q 2591 3584 2966 3190 
Q 3341 2797 3341 1997 
z
" transform="scale(0.015625)"/>
      <path id="DejaVuSans-6e" d="M 3513 2113 
L 3513 0 
L 2938 0 
L 2938 2094 
Q 2938 2591 2744 2837 
Q 2550 3084 2163 3084 
Q 1697 3084 1428 2787 
Q 1159 2491 1159 1978 
L 1159 0 
L 581 0 
L 581 3500 
L 1159 3500 
L 1159 2956 
Q 1366 3272 1645 3428 
Q 1925 3584 2291 3584 
Q 2894 3584 3203 3211 
Q 3513 2838 3513 2113 
z
" transform="scale(0.015625)"/>
      <path id="DejaVuSans-63" d="M 3122 3366 
L 3122 2828 
Q 2878 2963 2633 3030 
Q 2388 3097 2138 3097 
Q 1578 3097 1268 2742 
Q 959 2388 959 1747 
Q 959 1106 1268 751 
Q 1578 397 2138 397 
Q 2388 397 2633 464 
Q 2878 531 3122 666 
L 3122 134 
Q 2881 22 2623 -34 
Q 2366 -91 2075 -91 
Q 1284 -91 818 406 
Q 353 903 353 1747 
Q 353 2603 823 3093 
Q 1294 3584 2113 3584 
Q 2378 3584 2631 3529 
Q 2884 3475 3122 3366 
z
" transform="scale(0.015625)"/>
      <path id="DejaVuSans-76" d="M 191 3500 
L 800 3500 
L 1894 563 
L 2988 3500 
L 3597 3500 
L 2284 0 
L 1503 0 
L 191 3500 
z
" transform="scale(0.015625)"/>
      <path id="DejaVuSans-73" d="M 2834 3397 
L 2834 2853 
Q 2591 2978 2328 3040 
Q 2066 3103 1784 3103 
Q 1356 3103 1142 2972 
Q 928 2841 928 2578 
Q 928 2378 1081 2264 
Q 1234 2150 1697 2047 
L 1894 2003 
Q 2506 1872 2764 1633 
Q 3022 1394 3022 966 
Q 3022 478 2636 193 
Q 2250 -91 1575 -91 
Q 1294 -91 989 -36 
Q 684 19 347 128 
L 347 722 
Q 666 556 975 473 
Q 1284 391 1588 391 
Q 1994 391 2212 530 
Q 2431 669 2431 922 
Q 2431 1156 2273 1281 
Q 2116 1406 1581 1522 
L 1381 1569 
Q 847 1681 609 1914 
Q 372 2147 372 2553 
Q 372 3047 722 3315 
Q 1072 3584 1716 3584 
Q 2034 3584 2315 3537 
Q 2597 3491 2834 3397 
z
" transform="scale(0.015625)"/>
     </defs>
     <use xlink:href="#DejaVuSans-50"/>
     <use xlink:href="#DejaVuSans-65" x="56.677734"/>
     <use xlink:href="#DejaVuSans-72" x="118.201172"/>
     <use xlink:href="#DejaVuSans-66" x="159.314453"/>
     <use xlink:href="#DejaVuSans-6f" x="194.519531"/>
     <use xlink:href="#DejaVuSans-72" x="255.701172"/>
     <use xlink:href="#DejaVuSans-6d" x="295.064453"/>
     <use xlink:href="#DejaVuSans-61" x="392.476562"/>
     <use xlink:href="#DejaVuSans-6e" x="453.755859"/>
     <use xlink:href="#DejaVuSans-63" x="517.134766"/>
     <use xlink:href="#DejaVuSans-65" x="572.115234"/>
     <use xlink:href="#DejaVuSans-20" x="633.638672"/>
     <use xlink:href="#DejaVuSans-76" x="665.425781"/>
     <use xlink:href="#DejaVuSans-73" x="724.605469"/>
     <use xlink:href="#DejaVuSans-20" x="776.705078"/>
     <use xlink:href="#DejaVuSans-50" x="808.492188"/>
     <use xlink:href="#DejaVuSans-72" x="867.044922"/>
     <use xlink:href="#DejaVuSans-6f" x="905.908203"/>
     <use xlink:href="#DejaVuSans-62" x="967.089844"/>
     <use xlink:href="#DejaVuSans-6c" x="1030.566406"/>
     <use xlink:href="#DejaVuSans-65" x="1058.349609"/>
     <use xlink:href="#DejaVuSans-6d" x="1119.873047"/>
     <use xlink:href="#DejaVuSans-20" x="1217.285156"/>
     <use xlink:href="#DejaVuSans-53" x="1249.072266"/>
     <use xlink:href="#DejaVuSans-69" x="1312.548828"/>
     <use xlink:href="#DejaVuSans-7a" x="1340.332031"/>
     <use xlink:href="#DejaVuSans-65" x="1392.822266"/>
    </g>
   </g>
   <g id="legend_1">
    <g id="patch_7">
     <path d="M 339.12 78.82825 
L 407.72 78.82825 
Q 409.72 78.82825 409.72 76.82825 
L 409.72 48.472 
Q 409.72 46.472 407.72 46.472 
L 339.12 46.472 
Q 337.12 46.472 337.12 48.472 
L 337.12 76.82825 
Q 337.12 78.82825 339.12 78.82825 
z
" style="fill: #ffffff; opacity: 0.8; stroke: #cccccc; stroke-linejoin: miter"/>
    </g>
    <g id="text_15">
     <!-- Cluster -->
     <g transform="translate(355.673906 58.070437)scale(0.1 -0.1)">
      <defs>
       <path id="DejaVuSans-43" d="M 4122 4306 
L 4122 3641 
Q 3803 3938 3442 4084 
Q 3081 4231 2675 4231 
Q 1875 4231 1450 3742 
Q 1025 3253 1025 2328 
Q 1025 1406 1450 917 
Q 1875 428 2675 428 
Q 3081 428 3442 575 
Q 3803 722 4122 1019 
L 4122 359 
Q 3791 134 3420 21 
Q 3050 -91 2638 -91 
Q 1578 -91 968 557 
Q 359 1206 359 2328 
Q 359 3453 968 4101 
Q 1578 4750 2638 4750 
Q 3056 4750 3426 4639 
Q 3797 4528 4122 4306 
z
" transform="scale(0.015625)"/>
       <path id="DejaVuSans-75" d="M 544 1381 
L 544 3500 
L 1119 3500 
L 1119 1403 
Q 1119 906 1312 657 
Q 1506 409 1894 409 
Q 2359 409 2629 706 
Q 2900 1003 2900 1516 
L 2900 3500 
L 3475 3500 
L 3475 0 
L 2900 0 
L 2900 538 
Q 2691 219 2414 64 
Q 2138 -91 1772 -91 
Q 1169 -91 856 284 
Q 544 659 544 1381 
z
M 1991 3584 
L 1991 3584 
z
" transform="scale(0.015625)"/>
       <path id="DejaVuSans-74" d="M 1172 4494 
L 1172 3500 
L 2356 3500 
L 2356 3053 
L 1172 3053 
L 1172 1153 
Q 1172 725 1289 603 
Q 1406 481 1766 481 
L 2356 481 
L 2356 0 
L 1766 0 
Q 1100 0 847 248 
Q 594 497 594 1153 
L 594 3053 
L 172 3053 
L 172 3500 
L 594 3500 
L 594 4494 
L 1172 4494 
z
" transform="scale(0.015625)"/>
      </defs>
      <use xlink:href="#DejaVuSans-43"/>
      <use xlink:href="#DejaVuSans-6c" x="69.824219"/>
      <use xlink:href="#DejaVuSans-75" x="97.607422"/>
      <use xlink:href="#DejaVuSans-73" x="160.986328"/>
      <use xlink:href="#DejaVuSans-74" x="213.085938"/>
      <use xlink:href="#DejaVuSans-65" x="252.294922"/>
      <use xlink:href="#DejaVuSans-72" x="313.818359"/>
     </g>
    </g>
    <g id="line2d_13">
     <path d="M 341.12 69.248562 
L 351.12 69.248562 
L 361.12 69.248562 
" style="fill: none; stroke: #1f77b4; stroke-width: 1.5; stroke-linecap: square"/>
    </g>
    <g id="text_16">
     <!-- Hopper -->
     <g transform="translate(369.12 72.748562)scale(0.1 -0.1)">
      <defs>
       <path id="DejaVuSans-48" d="M 628 4666 
L 1259 4666 
L 1259 2753 
L 3553 2753 
L 3553 4666 
L 4184 4666 
L 4184 0 
L 3553 0 
L 3553 2222 
L 1259 2222 
L 1259 0 
L 628 0 
L 628 4666 
z
" transform="scale(0.015625)"/>
       <path id="DejaVuSans-70" d="M 1159 525 
L 1159 -1331 
L 581 -1331 
L 581 3500 
L 1159 3500 
L 1159 2969 
Q 1341 3281 1617 3432 
Q 1894 3584 2278 3584 
Q 2916 3584 3314 3078 
Q 3713 2572 3713 1747 
Q 3713 922 3314 415 
Q 2916 -91 2278 -91 
Q 1894 -91 1617 61 
Q 1341 213 1159 525 
z
M 3116 1747 
Q 3116 2381 2855 2742 
Q 2594 3103 2138 3103 
Q 1681 3103 1420 2742 
Q 1159 2381 1159 1747 
Q 1159 1113 1420 752 
Q 1681 391 2138 391 
Q 2594 391 2855 752 
Q 3116 1113 3116 1747 
z
" transform="scale(0.015625)"/>
      </defs>
      <use xlink:href="#DejaVuSans-48"/>
      <use xlink:href="#DejaVuSans-6f" x="75.195312"/>
      <use xlink:href="#DejaVuSans-70" x="136.376953"/>
      <use xlink:href="#DejaVuSans-70" x="199.853516"/>
      <use xlink:href="#DejaVuSans-65" x="263.330078"/>
      <use xlink:href="#DejaVuSans-72" x="324.853516"/>
     </g>
    </g>
   </g>
  </g>
 </g>
 <defs>
  <clipPath id="p1737490c5c">
   <rect x="57.6" y="41.472" width="357.12" height="266.112"/>
  </clipPath>
 </defs>
</svg>
