<?xml version="1.0" encoding="utf-8" standalone="no"?>
<!DOCTYPE svg PUBLIC "-//W3C//DTD SVG 1.1//EN"
  "http://www.w3.org/Graphics/SVG/1.1/DTD/svg11.dtd">
<svg xmlns:xlink="http://www.w3.org/1999/xlink" width="460.8pt" height="345.6pt" viewBox="0 0 460.8 345.6" xmlns="http://www.w3.org/2000/svg" version="1.1">
 <metadata>
  <rdf:RDF xmlns:dc="http://purl.org/dc/elements/1.1/" xmlns:cc="http://creativecommons.org/ns#" xmlns:rdf="http://www.w3.org/1999/02/22-rdf-syntax-ns#">
   <cc:Work>
    <dc:type rdf:resource="http://purl.org/dc/dcmitype/StillImage"/>
    <dc:date>2024-05-05T11:09:07.073063</dc:date>
    <dc:format>image/svg+xml</dc:format>
    <dc:creator>
     <cc:Agent>
      <dc:title>Matplotlib v3.5.3, https://matplotlib.org/</dc:title>
     </cc:Agent>
    </dc:creator>
   </cc:Work>
  </rdf:RDF>
 </metadata>
 <defs>
  <style type="text/css">*{stroke-linejoin: round; stroke-linecap: butt}</style>
 </defs>
 <g id="figure_1">
  <g id="patch_1">
   <path d="M 0 345.6 
L 460.8 345.6 
L 460.8 0 
L 0 0 
z
" style="fill: #ffffff"/>
  </g>
  <g id="axes_1">
   <g id="patch_2">
    <path d="M 57.6 307.584 
L 414.72 307.584 
L 414.72 41.472 
L 57.6 41.472 
z
" style="fill: #ffffff"/>
   </g>
   <g id="PolyCollection_1">
    <path d="M 73.832727 220.444318 
L 73.832727 228.11652 
L 73.832733 225.790115 
L 73.83274 224.314656 
L 73.832746 223.884671 
L 73.832752 221.450115 
L 73.832758 221.74647 
L 73.832764 220.435915 
L 73.832771 219.181833 
L 73.832777 222.45098 
L 73.832783 220.210328 
L 73.832795 219.891669 
L 73.832808 219.497088 
L 73.832814 221.230011 
L 73.83282 215.686809 
L 73.832833 220.964227 
L 73.832845 219.720461 
L 73.832851 221.7773 
L 73.83287 217.516456 
L 73.832876 225.888692 
L 73.832888 225.922716 
L 73.832894 223.254153 
L 73.832907 221.957515 
L 73.832919 213.684995 
L 73.832938 231.413621 
L 73.832944 220.500642 
L 73.832969 217.20276 
L 73.832981 226.192583 
L 73.832994 223.273401 
L 73.833 230.302641 
L 73.833018 214.321789 
L 73.833025 238.467786 
L 73.833031 225.079089 
L 73.833055 225.589262 
L 73.833068 223.64023 
L 73.833093 225.705781 
L 73.833111 229.241273 
L 73.833117 207.523192 
L 73.83313 231.564403 
L 73.833155 228.082444 
L 73.833167 224.192157 
L 73.833186 237.905257 
L 73.833216 217.275198 
L 73.833223 238.526828 
L 73.833241 232.357711 
L 73.833266 238.114351 
L 73.833278 235.553098 
L 73.833316 208.182167 
L 73.833328 241.63396 
L 73.833334 242.5197 
L 73.83334 237.782362 
L 73.833371 240.136845 
L 73.83339 239.980022 
L 73.833402 241.781553 
L 73.833415 216.726823 
L 73.833464 230.290233 
L 73.833495 256.550941 
L 73.833501 242.220999 
L 73.833514 194.300117 
L 73.833538 243.764725 
L 73.833557 246.370724 
L 73.833588 244.053831 
L 73.833613 224.179096 
L 73.833631 247.778544 
L 73.83365 247.559477 
L 73.833675 246.494755 
L 73.833712 220.769137 
L 73.833724 246.764643 
L 73.833743 248.935912 
L 73.833761 226.846606 
L 73.833805 250.748772 
L 73.833811 247.111619 
L 73.833836 247.315596 
L 73.833891 249.201443 
L 73.83391 192.904531 
L 73.833935 246.853612 
L 73.833947 248.785554 
L 73.83396 236.262346 
L 73.834021 249.115273 
L 73.834059 245.980796 
L 73.834083 250.654617 
L 73.834108 208.303166 
L 73.834114 253.650589 
L 73.834152 249.744262 
L 73.834207 219.739788 
L 73.83422 260.794777 
L 73.834226 252.034247 
L 73.834238 250.897932 
L 73.834269 255.108766 
L 73.834282 248.935471 
L 73.834306 178.425098 
L 73.834356 249.792052 
L 73.834393 250.277906 
L 73.834424 255.306386 
L 73.834455 231.052255 
L 73.834504 209.540063 
L 73.834542 251.628246 
L 73.83456 252.332494 
L 73.834579 251.495015 
L 73.834628 251.374562 
L 73.834672 250.020824 
L 73.834703 198.750048 
L 73.834727 251.837869 
L 73.834765 251.289587 
L 73.834802 205.4443 
L 73.834845 251.840103 
L 73.834888 251.522762 
L 73.834901 233.847323 
L 73.83495 240.06445 
L 73.834969 257.902033 
L 73.835062 251.395358 
L 73.835099 168.678931 
L 73.835105 252.402824 
L 73.835148 226.970829 
L 73.835173 251.385137 
L 73.835198 234.383695 
L 73.835229 251.474257 
L 73.835322 249.350582 
L 73.835396 209.689483 
L 73.835446 251.168536 
L 73.835452 251.805526 
L 73.835495 187.264298 
L 73.835508 252.587781 
L 73.835582 250.641402 
L 73.835693 190.368451 
L 73.835718 258.180773 
L 73.835731 253.268171 
L 73.835755 253.574144 
L 73.835786 252.055432 
L 73.835817 257.792904 
L 73.835842 233.363213 
L 73.835892 158.88326 
L 73.835991 222.674854 
L 73.836059 254.577788 
L 73.836065 252.000287 
L 73.836127 255.945069 
L 73.836189 215.692744 
L 73.836232 253.969482 
L 73.836288 180.410436 
L 73.836399 251.266768 
L 73.836436 212.895986 
L 73.836467 259.007489 
L 73.836536 251.683144 
L 73.836622 251.749328 
L 73.836684 176.785539 
L 73.836734 231.019975 
L 73.836808 253.547605 
L 73.836882 170.112312 
L 73.837012 251.516891 
L 73.837056 253.819217 
L 73.83708 217.131675 
L 73.83718 201.056506 
L 73.837217 252.482008 
L 73.837235 259.317572 
L 73.837477 143.607542 
L 73.837489 251.83408 
L 73.837576 182.556392 
L 73.837625 238.195336 
L 73.837675 195.776048 
L 73.837737 252.770315 
L 73.837923 177.945761 
L 73.837966 252.962087 
L 73.838071 174.035602 
L 73.83817 221.413738 
L 73.838238 254.140366 
L 73.838269 165.293246 
L 73.838294 254.850713 
L 73.838666 171.804879 
L 73.838715 254.030687 
L 73.838851 255.330578 
L 73.838913 216.061715 
L 73.838963 182.764429 
L 73.839062 148.809113 
L 73.83926 188.264599 
L 73.839409 187.820027 
L 73.839464 259.629851 
L 73.839656 188.31855 
L 73.839855 172.049548 
L 73.840003 193.032759 
L 73.840152 190.352419 
L 73.84035 193.760504 
L 73.840647 165.961556 
L 73.840746 191.989536 
L 73.840895 193.892462 
L 73.841044 177.957127 
L 73.84139 193.292986 
L 73.84144 195.55232 
L 73.841638 192.157929 
L 73.842084 193.722114 
L 73.842232 143.302321 
L 73.842431 197.81482 
L 73.84253 194.328402 
L 73.842629 186.751998 
L 73.843124 194.717403 
L 73.843421 191.055866 
L 73.84362 198.009325 
L 73.843818 168.978669 
L 73.843867 200.140903 
L 73.844164 197.691312 
L 73.84461 169.935664 
L 73.844709 206.05278 
L 73.844759 198.22737 
L 73.844858 201.759158 
L 73.845106 205.806352 
L 73.845205 196.911279 
L 73.845403 137.250386 
L 73.845799 198.957315 
L 73.846096 196.820441 
L 73.846344 202.684788 
L 73.846592 184.76689 
L 73.846988 156.172385 
L 73.847285 205.585653 
L 73.847434 197.894386 
L 73.847583 200.289396 
L 73.847979 201.252054 
L 73.848326 198.407057 
L 73.848573 160.488698 
L 73.848772 198.746049 
L 73.849069 199.455826 
L 73.849366 171.468455 
L 73.849713 205.212519 
L 73.85006 201.157128 
L 73.850159 196.373328 
L 73.850555 192.622483 
L 73.850704 203.806657 
L 73.851447 198.384024 
L 73.851744 129.387588 
L 73.851793 201.587491 
L 73.85214 194.757993 
L 73.852338 202.393889 
L 73.852536 189.649152 
L 73.852784 202.022596 
L 73.853527 202.687224 
L 73.854122 167.055858 
L 73.854518 204.374925 
L 73.854567 201.369213 
L 73.854914 160.881469 
L 73.855013 201.385187 
L 73.855608 203.159844 
L 73.856499 140.208531 
L 73.856698 213.702799 
L 73.856797 201.2007 
L 73.856995 204.061852 
L 73.857243 200.694945 
L 73.85749 207.255371 
L 73.857688 193.233025 
L 73.858085 149.764192 
L 73.858877 175.532591 
L 73.859422 204.482165 
L 73.859472 201.03761 
L 73.859967 208.771365 
L 73.860463 182.565089 
L 73.860809 202.901923 
L 73.861255 148.066946 
L 73.862147 203.320677 
L 73.862444 180.523722 
L 73.862692 206.828981 
L 73.863237 203.590159 
L 73.86393 203.486929 
L 73.864426 141.990572 
L 73.864822 193.762008 
L 73.865416 206.023685 
L 73.866011 105.612878 
L 73.867051 202.311893 
L 73.867398 208.000097 
L 73.867596 171.541957 
L 73.868389 164.29258 
L 73.868686 206.091062 
L 73.868835 209.205497 
L 73.870767 128.40403 
L 73.870866 204.314049 
L 73.871559 210.918947 
L 73.871955 193.385721 
L 73.872352 154.257704 
L 73.872847 210.836876 
L 73.874333 122.865135 
L 73.87468 206.296474 
L 73.875522 113.000371 
L 73.876315 181.730923 
L 73.87686 204.931797 
L 73.877107 117.163819 
L 73.877306 210.829463 
L 73.880278 121.90524 
L 73.880674 209.915383 
L 73.881764 206.321043 
L 73.882259 134.506901 
L 73.882656 123.571747 
L 73.883448 236.382007 
L 73.885034 123.698615 
L 73.886223 130.835276 
L 73.886668 208.487339 
L 73.888204 125.041754 
L 73.889789 127.447601 
L 73.890978 134.632702 
L 73.892167 129.354416 
L 73.893752 120.399282 
L 73.89613 126.461397 
L 73.896923 132.058075 
L 73.898112 134.630299 
L 73.899301 130.001556 
L 73.902075 137.055373 
L 73.902471 126.009882 
L 73.904056 126.875081 
L 73.907623 130.966019 
L 73.908812 210.113031 
L 73.908812 125.403637 
L 73.908812 125.403637 
L 73.907623 100.187293 
L 73.904056 111.210132 
L 73.902471 102.251167 
L 73.902075 97.679931 
L 73.899301 118.563612 
L 73.898112 101.417218 
L 73.896923 113.258367 
L 73.89613 106.46766 
L 73.893752 100.277109 
L 73.892167 107.754798 
L 73.890978 107.602501 
L 73.889789 106.205984 
L 73.888204 98.167255 
L 73.886668 184.986861 
L 73.886223 102.846781 
L 73.885034 102.876315 
L 73.883448 111.87558 
L 73.882656 102.477396 
L 73.882259 63.738551 
L 73.881764 193.457055 
L 73.880674 184.237261 
L 73.880278 107.011965 
L 73.877306 190.946483 
L 73.877107 78.926203 
L 73.87686 190.548629 
L 73.876315 131.62246 
L 73.875522 86.735186 
L 73.87468 190.446349 
L 73.874333 85.502029 
L 73.872847 191.793998 
L 73.872352 100.981023 
L 73.871955 155.830094 
L 73.871559 53.568 
L 73.870866 190.973196 
L 73.870767 95.390928 
L 73.868835 187.811356 
L 73.868686 189.955614 
L 73.868389 131.602965 
L 73.867596 111.77093 
L 73.867398 189.430075 
L 73.867051 190.717352 
L 73.866011 63.321222 
L 73.865416 191.741641 
L 73.864822 164.456619 
L 73.864426 98.081397 
L 73.86393 192.567352 
L 73.863237 192.529687 
L 73.862692 190.549669 
L 73.862444 106.989269 
L 73.862147 192.518841 
L 73.861255 105.959007 
L 73.860809 189.421987 
L 73.860463 140.951695 
L 73.859967 193.384105 
L 73.859472 190.593185 
L 73.859422 189.887436 
L 73.858877 124.936347 
L 73.858085 75.338262 
L 73.857688 169.514573 
L 73.85749 189.587082 
L 73.857243 190.088068 
L 73.856995 189.303186 
L 73.856797 188.454032 
L 73.856698 187.550503 
L 73.856499 103.786158 
L 73.855608 190.919209 
L 73.855013 189.177312 
L 73.854914 112.116 
L 73.854567 186.071501 
L 73.854518 193.935991 
L 73.854122 124.811581 
L 73.853527 190.208014 
L 73.852784 189.33112 
L 73.852536 146.285688 
L 73.852338 191.544637 
L 73.85214 153.056537 
L 73.851793 188.645303 
L 73.851744 89.15741 
L 73.851447 189.101389 
L 73.850704 187.277583 
L 73.850555 175.124206 
L 73.850159 155.876117 
L 73.85006 189.186042 
L 73.849713 182.108078 
L 73.849366 134.375509 
L 73.849069 190.322569 
L 73.848772 188.946067 
L 73.848573 122.878295 
L 73.848326 188.495069 
L 73.847979 187.401163 
L 73.847583 189.193638 
L 73.847434 186.711167 
L 73.847285 188.121305 
L 73.846988 118.927113 
L 73.846592 155.995576 
L 73.846344 183.118129 
L 73.846096 187.685643 
L 73.845799 189.809812 
L 73.845403 82.230946 
L 73.845205 187.483535 
L 73.845106 184.032913 
L 73.844858 185.329295 
L 73.844759 181.969782 
L 73.844709 188.489567 
L 73.84461 141.132306 
L 73.844164 183.952888 
L 73.843867 184.096828 
L 73.843818 127.589048 
L 73.84362 186.531183 
L 73.843421 175.677268 
L 73.843124 186.143608 
L 73.842629 153.569494 
L 73.84253 184.370416 
L 73.842431 179.297688 
L 73.842232 108.844971 
L 73.842084 181.549573 
L 73.841638 184.639472 
L 73.84144 182.562467 
L 73.84139 175.108016 
L 73.841044 154.333665 
L 73.840895 178.389807 
L 73.840746 180.51614 
L 73.840647 134.877238 
L 73.84035 178.837068 
L 73.840152 177.651436 
L 73.840003 174.134786 
L 73.839855 149.031201 
L 73.839656 175.926497 
L 73.839464 245.63552 
L 73.839409 171.95517 
L 73.83926 174.883467 
L 73.839062 105.828173 
L 73.838963 170.720101 
L 73.838913 162.071543 
L 73.838851 247.168343 
L 73.838715 245.497364 
L 73.838666 153.519668 
L 73.838294 247.258002 
L 73.838269 135.027987 
L 73.838238 245.35529 
L 73.83817 193.719548 
L 73.838071 162.615926 
L 73.837966 244.662731 
L 73.837923 158.618952 
L 73.837737 246.123374 
L 73.837675 173.477674 
L 73.837625 214.928651 
L 73.837576 156.278667 
L 73.837489 244.290121 
L 73.837477 117.305161 
L 73.837235 243.836999 
L 73.837217 243.192428 
L 73.83718 182.948724 
L 73.83708 190.581782 
L 73.837056 243.545775 
L 73.837012 245.926968 
L 73.836882 153.629692 
L 73.836808 244.41805 
L 73.836734 201.104419 
L 73.836684 151.822796 
L 73.836622 246.019317 
L 73.836536 245.721977 
L 73.836467 243.046485 
L 73.836436 169.927365 
L 73.836399 245.448631 
L 73.836288 161.32527 
L 73.836232 245.534735 
L 73.836189 191.132095 
L 73.836127 244.046157 
L 73.836065 245.741605 
L 73.836059 243.767239 
L 73.835991 197.497529 
L 73.835892 130.904043 
L 73.835842 211.223345 
L 73.835817 241.264235 
L 73.835786 244.755747 
L 73.835755 243.412098 
L 73.835731 244.591234 
L 73.835718 242.401494 
L 73.835693 172.081793 
L 73.835582 244.734717 
L 73.835508 244.254201 
L 73.835495 162.821567 
L 73.835452 244.315966 
L 73.835446 244.855218 
L 73.835396 187.838278 
L 73.835322 243.423166 
L 73.835229 243.598724 
L 73.835198 211.850675 
L 73.835173 245.172961 
L 73.835148 198.527979 
L 73.835105 244.341379 
L 73.835099 152.349309 
L 73.835062 244.951288 
L 73.834969 239.253037 
L 73.83495 227.510062 
L 73.834901 206.750502 
L 73.834888 243.948095 
L 73.834845 239.702947 
L 73.834802 188.178419 
L 73.834765 244.064454 
L 73.834727 245.146497 
L 73.834703 180.523487 
L 73.834672 243.528823 
L 73.834628 243.390254 
L 73.834579 243.57317 
L 73.83456 242.660799 
L 73.834542 242.381764 
L 73.834504 193.207592 
L 73.834455 215.574713 
L 73.834424 241.544435 
L 73.834393 244.343623 
L 73.834356 243.612723 
L 73.834306 156.512295 
L 73.834282 243.530139 
L 73.834269 241.110916 
L 73.834238 240.987721 
L 73.834226 242.273693 
L 73.83422 238.175742 
L 73.834207 206.255589 
L 73.834152 241.112382 
L 73.834114 241.319112 
L 73.834108 188.466723 
L 73.834083 242.236756 
L 73.834059 237.359545 
L 73.834021 242.710677 
L 73.83396 220.171531 
L 73.833947 241.799022 
L 73.833935 238.778222 
L 73.83391 178.794146 
L 73.833891 241.117767 
L 73.833836 242.113643 
L 73.833811 239.747159 
L 73.833805 237.934331 
L 73.833761 212.799281 
L 73.833743 238.373677 
L 73.833724 239.620918 
L 73.833712 206.202216 
L 73.833675 236.990398 
L 73.83365 238.241522 
L 73.833631 235.046464 
L 73.833613 212.451624 
L 73.833588 236.624128 
L 73.833557 235.866719 
L 73.833538 235.390277 
L 73.833514 176.010786 
L 73.833501 235.187009 
L 73.833495 228.40534 
L 73.833464 220.557707 
L 73.833415 200.919512 
L 73.833402 228.739263 
L 73.83339 233.060917 
L 73.833371 228.705524 
L 73.83334 227.357282 
L 73.833334 221.5613 
L 73.833328 225.791322 
L 73.833316 197.243548 
L 73.833278 226.898135 
L 73.833266 223.433492 
L 73.833241 224.15056 
L 73.833223 220.681545 
L 73.833216 206.088921 
L 73.833186 219.539798 
L 73.833167 215.546982 
L 73.833155 218.126876 
L 73.83313 216.966715 
L 73.833117 194.030869 
L 73.833111 215.641995 
L 73.833093 219.012046 
L 73.833068 212.133958 
L 73.833055 216.693912 
L 73.833031 212.458992 
L 73.833025 225.188692 
L 73.833018 206.585396 
L 73.833 213.162499 
L 73.832994 210.294435 
L 73.832981 218.694288 
L 73.832969 208.286062 
L 73.832944 215.319339 
L 73.832938 220.439153 
L 73.832919 205.252454 
L 73.832907 215.676536 
L 73.832894 216.19398 
L 73.832888 211.369755 
L 73.832876 212.952475 
L 73.83287 212.27154 
L 73.832851 213.866841 
L 73.832845 214.492131 
L 73.832833 215.348675 
L 73.83282 209.414805 
L 73.832814 214.366584 
L 73.832808 214.426234 
L 73.832795 216.934528 
L 73.832783 215.680667 
L 73.832777 215.726143 
L 73.832771 213.494962 
L 73.832764 213.379289 
L 73.832758 218.113489 
L 73.832752 215.304996 
L 73.832746 220.377162 
L 73.83274 218.991052 
L 73.832733 221.370051 
L 73.832727 220.444318 
z
" clip-path="url(#pf85e7692ce)" style="fill: #1f77b4; fill-opacity: 0.2; stroke: #1f77b4; stroke-opacity: 0.2"/>
    <path d="M 73.91119 107.857603 
L 73.91119 127.703631 
L 73.911982 128.977417 
L 73.915946 130.675849 
L 73.918323 132.194934 
L 73.919909 131.746799 
L 73.921494 137.750411 
L 73.92189 136.473471 
L 73.924268 133.408037 
L 73.927835 130.252636 
L 73.928627 127.752054 
L 73.929024 137.550609 
L 73.929816 134.157959 
L 73.931798 141.284943 
L 73.93259 131.516506 
L 73.934176 295.488 
L 73.937346 131.517588 
L 73.939724 133.173316 
L 73.941705 142.072198 
L 73.943687 132.356453 
L 73.946857 131.188589 
L 73.946857 110.982818 
L 73.946857 110.982818 
L 73.943687 110.45663 
L 73.941705 99.865579 
L 73.939724 116.657627 
L 73.937346 117.264634 
L 73.934176 226.912528 
L 73.93259 108.430835 
L 73.931798 110.875469 
L 73.929816 115.172779 
L 73.929024 120.353686 
L 73.928627 121.47679 
L 73.927835 113.388031 
L 73.924268 102.67823 
L 73.92189 102.549245 
L 73.921494 95.427384 
L 73.919909 113.790491 
L 73.918323 110.973157 
L 73.915946 116.443457 
L 73.911982 107.962011 
L 73.91119 107.857603 
z
" clip-path="url(#pf85e7692ce)" style="fill: #1f77b4; fill-opacity: 0.2; stroke: #1f77b4; stroke-opacity: 0.2"/>
    <path d="M 73.950424 120.35269 
L 73.950424 138.202954 
L 73.951613 132.496648 
L 73.954784 136.750689 
L 73.957558 137.555874 
L 73.959539 251.863398 
L 73.961124 138.884828 
L 73.963502 137.447571 
L 73.96588 131.035696 
L 73.971428 136.481582 
L 73.972221 135.475741 
L 73.975392 133.540165 
L 73.975392 115.100894 
L 73.975392 115.100894 
L 73.972221 104.298296 
L 73.971428 120.527872 
L 73.96588 130.315611 
L 73.963502 121.292502 
L 73.961124 110.107996 
L 73.959539 131.833071 
L 73.957558 109.209598 
L 73.954784 93.977396 
L 73.951613 107.746954 
L 73.950424 120.35269 
z
" clip-path="url(#pf85e7692ce)" style="fill: #1f77b4; fill-opacity: 0.2; stroke: #1f77b4; stroke-opacity: 0.2"/>
    <path d="M 73.982525 131.583017 
L 73.982525 134.420092 
L 73.984903 295.297043 
L 73.985299 145.731393 
L 73.989659 137.22548 
L 73.991244 131.648558 
L 73.993225 139.985234 
L 73.99917 132.512865 
L 74.003926 136.180741 
L 74.007096 138.86398 
L 74.010267 294.135264 
L 74.011059 139.621776 
L 74.015815 132.804029 
L 74.022948 133.691754 
L 74.024534 134.75708 
L 74.024534 107.043511 
L 74.024534 107.043511 
L 74.022948 133.024039 
L 74.015815 132.052637 
L 74.011059 109.187541 
L 74.010267 293.998755 
L 74.007096 116.154843 
L 74.003926 132.355186 
L 73.99917 132.102445 
L 73.993225 104.476823 
L 73.991244 108.394689 
L 73.989659 115.88404 
L 73.985299 111.613627 
L 73.984903 240.566509 
L 73.982525 131.583017 
z
" clip-path="url(#pf85e7692ce)" style="fill: #1f77b4; fill-opacity: 0.2; stroke: #1f77b4; stroke-opacity: 0.2"/>
    <path d="M 74.028893 105.993554 
L 74.028893 140.006865 
L 74.030874 140.489293 
L 74.03563 295.243748 
L 74.041971 133.278773 
L 74.046727 137.571955 
L 74.05069 140.818312 
L 74.060994 294.886138 
L 74.068127 133.7353 
L 74.068127 133.330289 
L 74.068127 133.330289 
L 74.060994 294.853179 
L 74.05069 107.231074 
L 74.046727 133.853417 
L 74.041971 131.85255 
L 74.03563 294.464672 
L 74.030874 105.904468 
L 74.028893 105.993554 
z
" clip-path="url(#pf85e7692ce)" style="fill: #1f77b4; fill-opacity: 0.2; stroke: #1f77b4; stroke-opacity: 0.2"/>
    <path d="M 74.086357 294.631507 
L 74.086357 294.688914 
L 74.094284 134.391346 
L 74.094284 134.270667 
L 74.094284 134.270667 
L 74.086357 294.631507 
z
" clip-path="url(#pf85e7692ce)" style="fill: #1f77b4; fill-opacity: 0.2; stroke: #1f77b4; stroke-opacity: 0.2"/>
    <path d="M 74.137085 294.399851 
L 74.137085 294.809398 
L 74.187812 294.188988 
L 74.213176 293.995379 
L 74.238539 294.945694 
L 74.289267 294.691197 
L 74.339994 294.182388 
L 74.365357 292.945303 
L 74.441448 294.227355 
L 74.466812 292.650908 
L 74.466812 292.25933 
L 74.466812 292.25933 
L 74.441448 293.256482 
L 74.365357 292.773756 
L 74.339994 293.232663 
L 74.289267 293.657746 
L 74.238539 294.060403 
L 74.213176 293.887753 
L 74.187812 294.072002 
L 74.137085 294.399851 
z
" clip-path="url(#pf85e7692ce)" style="fill: #1f77b4; fill-opacity: 0.2; stroke: #1f77b4; stroke-opacity: 0.2"/>
    <path d="M 74.542903 292.008363 
L 74.542903 293.531168 
L 74.59363 293.712004 
L 74.644357 294.641878 
L 74.720448 290.836829 
L 74.745812 293.516136 
L 74.847267 293.372995 
L 74.897994 293.041689 
L 74.948721 293.195127 
L 74.974085 292.920641 
L 75.050176 293.922569 
L 75.050176 292.334418 
L 75.050176 292.334418 
L 74.974085 292.7532 
L 74.948721 292.89716 
L 74.897994 290.69646 
L 74.847267 291.575686 
L 74.745812 292.631046 
L 74.720448 290.789375 
L 74.644357 293.095899 
L 74.59363 292.235324 
L 74.542903 292.008363 
z
" clip-path="url(#pf85e7692ce)" style="fill: #1f77b4; fill-opacity: 0.2; stroke: #1f77b4; stroke-opacity: 0.2"/>
    <path d="M 75.100903 292.163243 
L 75.100903 292.436249 
L 75.202357 292.082582 
L 75.253085 293.019813 
L 75.354539 291.755606 
L 75.43063 291.28548 
L 75.455994 294.400605 
L 75.506721 291.398559 
L 75.608176 291.030114 
L 75.658903 292.525064 
L 75.734994 290.347976 
L 75.861812 292.354216 
L 75.887176 290.209509 
L 75.963267 290.050716 
L 76.064721 289.70397 
L 76.115448 289.468903 
L 76.26763 293.582034 
L 76.26763 291.277969 
L 76.26763 291.277969 
L 76.115448 289.193129 
L 76.064721 289.534523 
L 75.963267 289.683644 
L 75.887176 289.984148 
L 75.861812 290.394202 
L 75.734994 290.188704 
L 75.658903 290.76164 
L 75.608176 290.902683 
L 75.506721 291.174515 
L 75.455994 292.113766 
L 75.43063 291.218709 
L 75.354539 291.520664 
L 75.253085 290.159181 
L 75.202357 291.878905 
L 75.100903 292.163243 
z
" clip-path="url(#pf85e7692ce)" style="fill: #1f77b4; fill-opacity: 0.2; stroke: #1f77b4; stroke-opacity: 0.2"/>
    <path d="M 76.343721 288.764075 
L 76.343721 289.154856 
L 76.369085 288.96857 
L 76.495903 289.196553 
L 76.571994 289.535557 
L 76.622721 289.062782 
L 76.673448 292.681943 
L 76.876358 290.548509 
L 76.876358 288.236875 
L 76.876358 288.236875 
L 76.673448 289.11145 
L 76.622721 288.430958 
L 76.571994 288.698284 
L 76.495903 288.826705 
L 76.369085 288.640906 
L 76.343721 288.764075 
z
" clip-path="url(#pf85e7692ce)" style="fill: #1f77b4; fill-opacity: 0.2; stroke: #1f77b4; stroke-opacity: 0.2"/>
    <path d="M 77.028539 287.062513 
L 77.028539 287.868509 
L 77.079267 294.056391 
L 77.180721 287.448811 
L 77.256812 287.149635 
L 77.38363 286.883404 
L 77.485085 292.401198 
L 77.485085 288.087724 
L 77.485085 288.087724 
L 77.38363 286.434742 
L 77.256812 286.502441 
L 77.180721 287.099769 
L 77.079267 290.92153 
L 77.028539 287.062513 
z
" clip-path="url(#pf85e7692ce)" style="fill: #1f77b4; fill-opacity: 0.2; stroke: #1f77b4; stroke-opacity: 0.2"/>
    <path d="M 77.637267 285.589107 
L 77.637267 286.364191 
L 77.738721 285.686953 
L 77.890903 291.139077 
L 77.94163 285.871072 
L 78.017721 285.630057 
L 78.093812 291.963165 
L 78.271358 284.102454 
L 78.296721 284.176768 
L 78.398176 285.054223 
L 78.626448 283.565095 
L 78.702539 293.541899 
L 78.702539 290.271019 
L 78.702539 290.271019 
L 78.626448 283.446466 
L 78.398176 283.613986 
L 78.296721 283.50943 
L 78.271358 283.917879 
L 78.093812 286.405384 
L 78.017721 284.832528 
L 77.94163 285.016307 
L 77.890903 286.649177 
L 77.738721 285.303885 
L 77.637267 285.589107 
z
" clip-path="url(#pf85e7692ce)" style="fill: #1f77b4; fill-opacity: 0.2; stroke: #1f77b4; stroke-opacity: 0.2"/>
    <path d="M 78.854721 282.690142 
L 78.854721 285.289255 
L 78.905448 287.873504 
L 79.159085 283.171674 
L 79.311267 289.743166 
L 79.412721 283.36498 
L 79.514176 292.987721 
L 79.514176 286.492259 
L 79.514176 286.492259 
L 79.412721 282.54188 
L 79.311267 282.827051 
L 79.159085 282.618426 
L 78.905448 282.497891 
L 78.854721 282.690142 
z
" clip-path="url(#pf85e7692ce)" style="fill: #1f77b4; fill-opacity: 0.2; stroke: #1f77b4; stroke-opacity: 0.2"/>
    <path d="M 79.691721 282.512121 
L 79.691721 283.259102 
L 79.919994 291.309467 
L 79.919994 285.295896 
L 79.919994 285.295896 
L 79.691721 282.512121 
z
" clip-path="url(#pf85e7692ce)" style="fill: #1f77b4; fill-opacity: 0.2; stroke: #1f77b4; stroke-opacity: 0.2"/>
    <path d="M 80.224358 281.960587 
L 80.224358 281.965426 
L 80.325812 294.152784 
L 80.528721 282.068536 
L 80.680903 284.536753 
L 80.680903 280.200679 
L 80.680903 280.200679 
L 80.528721 281.173034 
L 80.325812 290.185573 
L 80.224358 281.960587 
z
" clip-path="url(#pf85e7692ce)" style="fill: #1f77b4; fill-opacity: 0.2; stroke: #1f77b4; stroke-opacity: 0.2"/>
    <path d="M 80.934539 280.429523 
L 80.934539 288.947705 
L 81.137448 293.433874 
L 81.365721 279.717226 
L 81.441812 280.974556 
L 81.644721 279.439695 
L 81.644721 279.080392 
L 81.644721 279.080392 
L 81.441812 279.120182 
L 81.365721 278.985928 
L 81.137448 288.085991 
L 80.934539 280.429523 
z
" clip-path="url(#pf85e7692ce)" style="fill: #1f77b4; fill-opacity: 0.2; stroke: #1f77b4; stroke-opacity: 0.2"/>
    <path d="M 81.949085 286.0192 
L 81.949085 292.912513 
L 81.949085 286.0192 
L 81.949085 286.0192 
z
" clip-path="url(#pf85e7692ce)" style="fill: #1f77b4; fill-opacity: 0.2; stroke: #1f77b4; stroke-opacity: 0.2"/>
    <path d="M 82.202721 278.974031 
L 82.202721 283.574259 
L 82.354903 293.035145 
L 82.354903 290.837326 
L 82.354903 290.837326 
L 82.202721 278.974031 
z
" clip-path="url(#pf85e7692ce)" style="fill: #1f77b4; fill-opacity: 0.2; stroke: #1f77b4; stroke-opacity: 0.2"/>
    <path d="M 82.760721 278.164726 
L 82.760721 292.958908 
L 82.96363 292.902824 
L 82.96363 277.167715 
L 82.96363 277.167715 
L 82.760721 278.164726 
z
" clip-path="url(#pf85e7692ce)" style="fill: #1f77b4; fill-opacity: 0.2; stroke: #1f77b4; stroke-opacity: 0.2"/>
    <path d="M 83.572358 291.607759 
L 83.572358 292.784832 
L 83.572358 291.607759 
L 83.572358 291.607759 
z
" clip-path="url(#pf85e7692ce)" style="fill: #1f77b4; fill-opacity: 0.2; stroke: #1f77b4; stroke-opacity: 0.2"/>
    <path d="M 83.876721 276.599289 
L 83.876721 278.176246 
L 83.978176 292.6344 
L 84.789812 292.119127 
L 84.992721 275.239412 
L 85.19563 292.141974 
L 86.007267 291.735179 
L 86.007267 291.542656 
L 86.007267 291.542656 
L 85.19563 289.57399 
L 84.992721 274.852758 
L 84.789812 291.919908 
L 83.978176 275.79678 
L 83.876721 276.599289 
z
" clip-path="url(#pf85e7692ce)" style="fill: #1f77b4; fill-opacity: 0.2; stroke: #1f77b4; stroke-opacity: 0.2"/>
    <path d="M 86.615994 291.342461 
L 86.615994 291.482066 
L 86.818903 293.399795 
L 87.224721 291.308435 
L 88.036358 290.747238 
L 88.442176 290.866374 
L 88.442176 290.567808 
L 88.442176 290.567808 
L 88.036358 290.625678 
L 87.224721 291.05094 
L 86.818903 290.761021 
L 86.615994 291.342461 
z
" clip-path="url(#pf85e7692ce)" style="fill: #1f77b4; fill-opacity: 0.2; stroke: #1f77b4; stroke-opacity: 0.2"/>
    <path d="M 90.065449 290.001811 
L 90.065449 290.335595 
L 90.268358 290.380707 
L 90.877085 289.839169 
L 91.688721 289.757421 
L 92.09454 289.504253 
L 93.311994 291.618056 
L 93.311994 289.184693 
L 93.311994 289.184693 
L 92.09454 289.224303 
L 91.688721 289.467737 
L 90.877085 289.601127 
L 90.268358 289.514557 
L 90.065449 290.001811 
z
" clip-path="url(#pf85e7692ce)" style="fill: #1f77b4; fill-opacity: 0.2; stroke: #1f77b4; stroke-opacity: 0.2"/>
    <path d="M 93.920721 288.27937 
L 93.920721 289.000422 
L 94.123631 289.329555 
L 95.138176 288.752719 
L 95.746903 288.824529 
L 96.152722 288.60634 
L 96.55854 292.303707 
L 98.181812 290.107841 
L 99.399267 287.983559 
L 99.805085 293.245986 
L 100.616722 287.487578 
L 101.225449 287.109333 
L 102.239994 287.32755 
L 103.051631 291.308087 
L 103.051631 287.158757 
L 103.051631 287.158757 
L 102.239994 286.57852 
L 101.225449 287.085624 
L 100.616722 286.86887 
L 99.805085 288.599691 
L 99.399267 287.518514 
L 98.181812 287.99496 
L 96.55854 289.304257 
L 96.152722 288.383853 
L 95.746903 288.366202 
L 95.138176 288.698926 
L 94.123631 288.492378 
L 93.920721 288.27937 
z
" clip-path="url(#pf85e7692ce)" style="fill: #1f77b4; fill-opacity: 0.2; stroke: #1f77b4; stroke-opacity: 0.2"/>
    <path d="M 104.269085 285.561806 
L 104.269085 285.862932 
L 105.080722 285.281058 
L 106.298176 289.609168 
L 106.703994 286.063417 
L 107.312722 285.546294 
L 107.921449 289.583427 
L 109.544722 284.532028 
L 110.356358 284.859525 
L 112.18254 283.53706 
L 112.791267 292.184847 
L 114.008722 283.0313 
L 114.41454 282.938536 
L 116.443631 283.224606 
L 117.661086 283.468894 
L 118.472722 283.987326 
L 119.284358 293.060986 
L 120.704722 282.107137 
L 122.530904 290.788935 
L 122.530904 282.244386 
L 122.530904 282.244386 
L 120.704722 281.536563 
L 119.284358 289.684246 
L 118.472722 282.400152 
L 117.661086 282.125979 
L 116.443631 282.479674 
L 114.41454 282.50048 
L 114.008722 282.519777 
L 112.791267 287.378185 
L 112.18254 283.339165 
L 110.356358 283.875741 
L 109.544722 283.919046 
L 107.921449 284.185477 
L 107.312722 284.644823 
L 106.703994 284.618069 
L 106.298176 285.260213 
L 105.080722 285.163397 
L 104.269085 285.561806 
z
" clip-path="url(#pf85e7692ce)" style="fill: #1f77b4; fill-opacity: 0.2; stroke: #1f77b4; stroke-opacity: 0.2"/>
    <path d="M 125.777449 288.736154 
L 125.777449 292.552373 
L 127.400722 281.717068 
L 128.618177 281.208313 
L 128.618177 281.084447 
L 128.618177 281.084447 
L 127.400722 280.881144 
L 125.777449 288.736154 
z
" clip-path="url(#pf85e7692ce)" style="fill: #1f77b4; fill-opacity: 0.2; stroke: #1f77b4; stroke-opacity: 0.2"/>
    <path d="M 132.27054 292.013835 
L 132.27054 292.048443 
L 134.096722 279.899609 
L 134.096722 279.39074 
L 134.096722 279.39074 
L 132.27054 292.013835 
z
" clip-path="url(#pf85e7692ce)" style="fill: #1f77b4; fill-opacity: 0.2; stroke: #1f77b4; stroke-opacity: 0.2"/>
    <path d="M 138.763631 286.825198 
L 138.763631 291.633398 
L 140.792722 278.884632 
L 142.010177 291.46442 
L 142.010177 291.331275 
L 142.010177 291.331275 
L 140.792722 278.307483 
L 138.763631 286.825198 
z
" clip-path="url(#pf85e7692ce)" style="fill: #1f77b4; fill-opacity: 0.2; stroke: #1f77b4; stroke-opacity: 0.2"/>
    <path d="M 146.879995 290.862338 
L 146.879995 291.014154 
L 146.879995 290.862338 
L 146.879995 290.862338 
z
" clip-path="url(#pf85e7692ce)" style="fill: #1f77b4; fill-opacity: 0.2; stroke: #1f77b4; stroke-opacity: 0.2"/>
    <path d="M 151.749813 286.638787 
L 151.749813 290.662963 
L 151.749813 286.638787 
L 151.749813 286.638787 
z
" clip-path="url(#pf85e7692ce)" style="fill: #1f77b4; fill-opacity: 0.2; stroke: #1f77b4; stroke-opacity: 0.2"/>
    <path d="M 161.48945 289.880291 
L 161.48945 290.073205 
L 164.735996 289.755173 
L 171.229087 289.266683 
L 171.229087 289.253334 
L 171.229087 289.253334 
L 164.735996 289.717319 
L 161.48945 289.880291 
z
" clip-path="url(#pf85e7692ce)" style="fill: #1f77b4; fill-opacity: 0.2; stroke: #1f77b4; stroke-opacity: 0.2"/>
    <path d="M 177.722178 288.76046 
L 177.722178 288.787955 
L 177.722178 288.76046 
L 177.722178 288.76046 
z
" clip-path="url(#pf85e7692ce)" style="fill: #1f77b4; fill-opacity: 0.2; stroke: #1f77b4; stroke-opacity: 0.2"/>
    <path d="M 187.461814 287.951091 
L 187.461814 287.974715 
L 190.70836 287.989818 
L 190.70836 287.879719 
L 190.70836 287.879719 
L 187.461814 287.951091 
z
" clip-path="url(#pf85e7692ce)" style="fill: #1f77b4; fill-opacity: 0.2; stroke: #1f77b4; stroke-opacity: 0.2"/>
    <path d="M 210.187633 286.406269 
L 210.187633 286.586176 
L 219.927269 285.948545 
L 229.666906 285.152411 
L 229.666906 285.065773 
L 229.666906 285.065773 
L 219.927269 285.65166 
L 210.187633 286.406269 
z
" clip-path="url(#pf85e7692ce)" style="fill: #1f77b4; fill-opacity: 0.2; stroke: #1f77b4; stroke-opacity: 0.2"/>
    <path d="M 236.159997 284.632271 
L 236.159997 285.535393 
L 244.276361 284.702999 
L 249.146179 284.648295 
L 255.63927 284.333564 
L 268.625452 283.417776 
L 278.365089 282.937967 
L 278.365089 282.715538 
L 278.365089 282.715538 
L 268.625452 283.265079 
L 255.63927 284.214167 
L 249.146179 284.562312 
L 244.276361 283.874617 
L 236.159997 284.632271 
z
" clip-path="url(#pf85e7692ce)" style="fill: #1f77b4; fill-opacity: 0.2; stroke: #1f77b4; stroke-opacity: 0.2"/>
    <path d="M 288.104725 282.133095 
L 288.104725 282.225339 
L 288.104725 282.133095 
L 288.104725 282.133095 
z
" clip-path="url(#pf85e7692ce)" style="fill: #1f77b4; fill-opacity: 0.2; stroke: #1f77b4; stroke-opacity: 0.2"/>
    <path d="M 395.240727 274.749156 
L 395.240727 274.996717 
L 395.240727 274.749156 
L 395.240727 274.749156 
z
" clip-path="url(#pf85e7692ce)" style="fill: #1f77b4; fill-opacity: 0.2; stroke: #1f77b4; stroke-opacity: 0.2"/>
   </g>
   <g id="matplotlib.axis_1">
    <g id="xtick_1">
     <g id="line2d_1">
      <defs>
       <path id="md927de0d69" d="M 0 0 
L 0 3.5 
" style="stroke: #000000; stroke-width: 0.8"/>
      </defs>
      <g>
       <use xlink:href="#md927de0d69" x="73.832721" y="307.584" style="stroke: #000000; stroke-width: 0.8"/>
      </g>
     </g>
     <g id="text_1">
      <!-- 0.0 -->
      <g transform="translate(65.881159 322.182437)scale(0.1 -0.1)">
       <defs>
        <path id="DejaVuSans-30" d="M 2034 4250 
Q 1547 4250 1301 3770 
Q 1056 3291 1056 2328 
Q 1056 1369 1301 889 
Q 1547 409 2034 409 
Q 2525 409 2770 889 
Q 3016 1369 3016 2328 
Q 3016 3291 2770 3770 
Q 2525 4250 2034 4250 
z
M 2034 4750 
Q 2819 4750 3233 4129 
Q 3647 3509 3647 2328 
Q 3647 1150 3233 529 
Q 2819 -91 2034 -91 
Q 1250 -91 836 529 
Q 422 1150 422 2328 
Q 422 3509 836 4129 
Q 1250 4750 2034 4750 
z
" transform="scale(0.015625)"/>
        <path id="DejaVuSans-2e" d="M 684 794 
L 1344 794 
L 1344 0 
L 684 0 
L 684 794 
z
" transform="scale(0.015625)"/>
       </defs>
       <use xlink:href="#DejaVuSans-30"/>
       <use xlink:href="#DejaVuSans-2e" x="63.623047"/>
       <use xlink:href="#DejaVuSans-30" x="95.410156"/>
      </g>
     </g>
    </g>
    <g id="xtick_2">
     <g id="line2d_2">
      <g>
       <use xlink:href="#md927de0d69" x="134.304344" y="307.584" style="stroke: #000000; stroke-width: 0.8"/>
      </g>
     </g>
     <g id="text_2">
      <!-- 0.5 -->
      <g transform="translate(126.352781 322.182437)scale(0.1 -0.1)">
       <defs>
        <path id="DejaVuSans-35" d="M 691 4666 
L 3169 4666 
L 3169 4134 
L 1269 4134 
L 1269 2991 
Q 1406 3038 1543 3061 
Q 1681 3084 1819 3084 
Q 2600 3084 3056 2656 
Q 3513 2228 3513 1497 
Q 3513 744 3044 326 
Q 2575 -91 1722 -91 
Q 1428 -91 1123 -41 
Q 819 9 494 109 
L 494 744 
Q 775 591 1075 516 
Q 1375 441 1709 441 
Q 2250 441 2565 725 
Q 2881 1009 2881 1497 
Q 2881 1984 2565 2268 
Q 2250 2553 1709 2553 
Q 1456 2553 1204 2497 
Q 953 2441 691 2322 
L 691 4666 
z
" transform="scale(0.015625)"/>
       </defs>
       <use xlink:href="#DejaVuSans-30"/>
       <use xlink:href="#DejaVuSans-2e" x="63.623047"/>
       <use xlink:href="#DejaVuSans-35" x="95.410156"/>
      </g>
     </g>
    </g>
    <g id="xtick_3">
     <g id="line2d_3">
      <g>
       <use xlink:href="#md927de0d69" x="194.775966" y="307.584" style="stroke: #000000; stroke-width: 0.8"/>
      </g>
     </g>
     <g id="text_3">
      <!-- 1.0 -->
      <g transform="translate(186.824404 322.182437)scale(0.1 -0.1)">
       <defs>
        <path id="DejaVuSans-31" d="M 794 531 
L 1825 531 
L 1825 4091 
L 703 3866 
L 703 4441 
L 1819 4666 
L 2450 4666 
L 2450 531 
L 3481 531 
L 3481 0 
L 794 0 
L 794 531 
z
" transform="scale(0.015625)"/>
       </defs>
       <use xlink:href="#DejaVuSans-31"/>
       <use xlink:href="#DejaVuSans-2e" x="63.623047"/>
       <use xlink:href="#DejaVuSans-30" x="95.410156"/>
      </g>
     </g>
    </g>
    <g id="xtick_4">
     <g id="line2d_4">
      <g>
       <use xlink:href="#md927de0d69" x="255.247589" y="307.584" style="stroke: #000000; stroke-width: 0.8"/>
      </g>
     </g>
     <g id="text_4">
      <!-- 1.5 -->
      <g transform="translate(247.296026 322.182437)scale(0.1 -0.1)">
       <use xlink:href="#DejaVuSans-31"/>
       <use xlink:href="#DejaVuSans-2e" x="63.623047"/>
       <use xlink:href="#DejaVuSans-35" x="95.410156"/>
      </g>
     </g>
    </g>
    <g id="xtick_5">
     <g id="line2d_5">
      <g>
       <use xlink:href="#md927de0d69" x="315.719211" y="307.584" style="stroke: #000000; stroke-width: 0.8"/>
      </g>
     </g>
     <g id="text_5">
      <!-- 2.0 -->
      <g transform="translate(307.767649 322.182437)scale(0.1 -0.1)">
       <defs>
        <path id="DejaVuSans-32" d="M 1228 531 
L 3431 531 
L 3431 0 
L 469 0 
L 469 531 
Q 828 903 1448 1529 
Q 2069 2156 2228 2338 
Q 2531 2678 2651 2914 
Q 2772 3150 2772 3378 
Q 2772 3750 2511 3984 
Q 2250 4219 1831 4219 
Q 1534 4219 1204 4116 
Q 875 4013 500 3803 
L 500 4441 
Q 881 4594 1212 4672 
Q 1544 4750 1819 4750 
Q 2544 4750 2975 4387 
Q 3406 4025 3406 3419 
Q 3406 3131 3298 2873 
Q 3191 2616 2906 2266 
Q 2828 2175 2409 1742 
Q 1991 1309 1228 531 
z
" transform="scale(0.015625)"/>
       </defs>
       <use xlink:href="#DejaVuSans-32"/>
       <use xlink:href="#DejaVuSans-2e" x="63.623047"/>
       <use xlink:href="#DejaVuSans-30" x="95.410156"/>
      </g>
     </g>
    </g>
    <g id="xtick_6">
     <g id="line2d_6">
      <g>
       <use xlink:href="#md927de0d69" x="376.190834" y="307.584" style="stroke: #000000; stroke-width: 0.8"/>
      </g>
     </g>
     <g id="text_6">
      <!-- 2.5 -->
      <g transform="translate(368.239271 322.182437)scale(0.1 -0.1)">
       <use xlink:href="#DejaVuSans-32"/>
       <use xlink:href="#DejaVuSans-2e" x="63.623047"/>
       <use xlink:href="#DejaVuSans-35" x="95.410156"/>
      </g>
     </g>
    </g>
    <g id="text_7">
     <!-- Global Problem Size -->
     <g transform="translate(186.327969 335.860562)scale(0.1 -0.1)">
      <defs>
       <path id="DejaVuSans-47" d="M 3809 666 
L 3809 1919 
L 2778 1919 
L 2778 2438 
L 4434 2438 
L 4434 434 
Q 4069 175 3628 42 
Q 3188 -91 2688 -91 
Q 1594 -91 976 548 
Q 359 1188 359 2328 
Q 359 3472 976 4111 
Q 1594 4750 2688 4750 
Q 3144 4750 3555 4637 
Q 3966 4525 4313 4306 
L 4313 3634 
Q 3963 3931 3569 4081 
Q 3175 4231 2741 4231 
Q 1884 4231 1454 3753 
Q 1025 3275 1025 2328 
Q 1025 1384 1454 906 
Q 1884 428 2741 428 
Q 3075 428 3337 486 
Q 3600 544 3809 666 
z
" transform="scale(0.015625)"/>
       <path id="DejaVuSans-6c" d="M 603 4863 
L 1178 4863 
L 1178 0 
L 603 0 
L 603 4863 
z
" transform="scale(0.015625)"/>
       <path id="DejaVuSans-6f" d="M 1959 3097 
Q 1497 3097 1228 2736 
Q 959 2375 959 1747 
Q 959 1119 1226 758 
Q 1494 397 1959 397 
Q 2419 397 2687 759 
Q 2956 1122 2956 1747 
Q 2956 2369 2687 2733 
Q 2419 3097 1959 3097 
z
M 1959 3584 
Q 2709 3584 3137 3096 
Q 3566 2609 3566 1747 
Q 3566 888 3137 398 
Q 2709 -91 1959 -91 
Q 1206 -91 779 398 
Q 353 888 353 1747 
Q 353 2609 779 3096 
Q 1206 3584 1959 3584 
z
" transform="scale(0.015625)"/>
       <path id="DejaVuSans-62" d="M 3116 1747 
Q 3116 2381 2855 2742 
Q 2594 3103 2138 3103 
Q 1681 3103 1420 2742 
Q 1159 2381 1159 1747 
Q 1159 1113 1420 752 
Q 1681 391 2138 391 
Q 2594 391 2855 752 
Q 3116 1113 3116 1747 
z
M 1159 2969 
Q 1341 3281 1617 3432 
Q 1894 3584 2278 3584 
Q 2916 3584 3314 3078 
Q 3713 2572 3713 1747 
Q 3713 922 3314 415 
Q 2916 -91 2278 -91 
Q 1894 -91 1617 61 
Q 1341 213 1159 525 
L 1159 0 
L 581 0 
L 581 4863 
L 1159 4863 
L 1159 2969 
z
" transform="scale(0.015625)"/>
       <path id="DejaVuSans-61" d="M 2194 1759 
Q 1497 1759 1228 1600 
Q 959 1441 959 1056 
Q 959 750 1161 570 
Q 1363 391 1709 391 
Q 2188 391 2477 730 
Q 2766 1069 2766 1631 
L 2766 1759 
L 2194 1759 
z
M 3341 1997 
L 3341 0 
L 2766 0 
L 2766 531 
Q 2569 213 2275 61 
Q 1981 -91 1556 -91 
Q 1019 -91 701 211 
Q 384 513 384 1019 
Q 384 1609 779 1909 
Q 1175 2209 1959 2209 
L 2766 2209 
L 2766 2266 
Q 2766 2663 2505 2880 
Q 2244 3097 1772 3097 
Q 1472 3097 1187 3025 
Q 903 2953 641 2809 
L 641 3341 
Q 956 3463 1253 3523 
Q 1550 3584 1831 3584 
Q 2591 3584 2966 3190 
Q 3341 2797 3341 1997 
z
" transform="scale(0.015625)"/>
       <path id="DejaVuSans-20" transform="scale(0.015625)"/>
       <path id="DejaVuSans-50" d="M 1259 4147 
L 1259 2394 
L 2053 2394 
Q 2494 2394 2734 2622 
Q 2975 2850 2975 3272 
Q 2975 3691 2734 3919 
Q 2494 4147 2053 4147 
L 1259 4147 
z
M 628 4666 
L 2053 4666 
Q 2838 4666 3239 4311 
Q 3641 3956 3641 3272 
Q 3641 2581 3239 2228 
Q 2838 1875 2053 1875 
L 1259 1875 
L 1259 0 
L 628 0 
L 628 4666 
z
" transform="scale(0.015625)"/>
       <path id="DejaVuSans-72" d="M 2631 2963 
Q 2534 3019 2420 3045 
Q 2306 3072 2169 3072 
Q 1681 3072 1420 2755 
Q 1159 2438 1159 1844 
L 1159 0 
L 581 0 
L 581 3500 
L 1159 3500 
L 1159 2956 
Q 1341 3275 1631 3429 
Q 1922 3584 2338 3584 
Q 2397 3584 2469 3576 
Q 2541 3569 2628 3553 
L 2631 2963 
z
" transform="scale(0.015625)"/>
       <path id="DejaVuSans-65" d="M 3597 1894 
L 3597 1613 
L 953 1613 
Q 991 1019 1311 708 
Q 1631 397 2203 397 
Q 2534 397 2845 478 
Q 3156 559 3463 722 
L 3463 178 
Q 3153 47 2828 -22 
Q 2503 -91 2169 -91 
Q 1331 -91 842 396 
Q 353 884 353 1716 
Q 353 2575 817 3079 
Q 1281 3584 2069 3584 
Q 2775 3584 3186 3129 
Q 3597 2675 3597 1894 
z
M 3022 2063 
Q 3016 2534 2758 2815 
Q 2500 3097 2075 3097 
Q 1594 3097 1305 2825 
Q 1016 2553 972 2059 
L 3022 2063 
z
" transform="scale(0.015625)"/>
       <path id="DejaVuSans-6d" d="M 3328 2828 
Q 3544 3216 3844 3400 
Q 4144 3584 4550 3584 
Q 5097 3584 5394 3201 
Q 5691 2819 5691 2113 
L 5691 0 
L 5113 0 
L 5113 2094 
Q 5113 2597 4934 2840 
Q 4756 3084 4391 3084 
Q 3944 3084 3684 2787 
Q 3425 2491 3425 1978 
L 3425 0 
L 2847 0 
L 2847 2094 
Q 2847 2600 2669 2842 
Q 2491 3084 2119 3084 
Q 1678 3084 1418 2786 
Q 1159 2488 1159 1978 
L 1159 0 
L 581 0 
L 581 3500 
L 1159 3500 
L 1159 2956 
Q 1356 3278 1631 3431 
Q 1906 3584 2284 3584 
Q 2666 3584 2933 3390 
Q 3200 3197 3328 2828 
z
" transform="scale(0.015625)"/>
       <path id="DejaVuSans-53" d="M 3425 4513 
L 3425 3897 
Q 3066 4069 2747 4153 
Q 2428 4238 2131 4238 
Q 1616 4238 1336 4038 
Q 1056 3838 1056 3469 
Q 1056 3159 1242 3001 
Q 1428 2844 1947 2747 
L 2328 2669 
Q 3034 2534 3370 2195 
Q 3706 1856 3706 1288 
Q 3706 609 3251 259 
Q 2797 -91 1919 -91 
Q 1588 -91 1214 -16 
Q 841 59 441 206 
L 441 856 
Q 825 641 1194 531 
Q 1563 422 1919 422 
Q 2459 422 2753 634 
Q 3047 847 3047 1241 
Q 3047 1584 2836 1778 
Q 2625 1972 2144 2069 
L 1759 2144 
Q 1053 2284 737 2584 
Q 422 2884 422 3419 
Q 422 4038 858 4394 
Q 1294 4750 2059 4750 
Q 2388 4750 2728 4690 
Q 3069 4631 3425 4513 
z
" transform="scale(0.015625)"/>
       <path id="DejaVuSans-69" d="M 603 3500 
L 1178 3500 
L 1178 0 
L 603 0 
L 603 3500 
z
M 603 4863 
L 1178 4863 
L 1178 4134 
L 603 4134 
L 603 4863 
z
" transform="scale(0.015625)"/>
       <path id="DejaVuSans-7a" d="M 353 3500 
L 3084 3500 
L 3084 2975 
L 922 459 
L 3084 459 
L 3084 0 
L 275 0 
L 275 525 
L 2438 3041 
L 353 3041 
L 353 3500 
z
" transform="scale(0.015625)"/>
      </defs>
      <use xlink:href="#DejaVuSans-47"/>
      <use xlink:href="#DejaVuSans-6c" x="77.490234"/>
      <use xlink:href="#DejaVuSans-6f" x="105.273438"/>
      <use xlink:href="#DejaVuSans-62" x="166.455078"/>
      <use xlink:href="#DejaVuSans-61" x="229.931641"/>
      <use xlink:href="#DejaVuSans-6c" x="291.210938"/>
      <use xlink:href="#DejaVuSans-20" x="318.994141"/>
      <use xlink:href="#DejaVuSans-50" x="350.78125"/>
      <use xlink:href="#DejaVuSans-72" x="409.333984"/>
      <use xlink:href="#DejaVuSans-6f" x="448.197266"/>
      <use xlink:href="#DejaVuSans-62" x="509.378906"/>
      <use xlink:href="#DejaVuSans-6c" x="572.855469"/>
      <use xlink:href="#DejaVuSans-65" x="600.638672"/>
      <use xlink:href="#DejaVuSans-6d" x="662.162109"/>
      <use xlink:href="#DejaVuSans-20" x="759.574219"/>
      <use xlink:href="#DejaVuSans-53" x="791.361328"/>
      <use xlink:href="#DejaVuSans-69" x="854.837891"/>
      <use xlink:href="#DejaVuSans-7a" x="882.621094"/>
      <use xlink:href="#DejaVuSans-65" x="935.111328"/>
     </g>
    </g>
    <g id="text_8">
     <!-- 1e10 -->
     <g transform="translate(389.479375 334.860562)scale(0.1 -0.1)">
      <use xlink:href="#DejaVuSans-31"/>
      <use xlink:href="#DejaVuSans-65" x="63.623047"/>
      <use xlink:href="#DejaVuSans-31" x="125.146484"/>
      <use xlink:href="#DejaVuSans-30" x="188.769531"/>
     </g>
    </g>
   </g>
   <g id="matplotlib.axis_2">
    <g id="ytick_1">
     <g id="line2d_7">
      <defs>
       <path id="m3aa176eb58" d="M 0 0 
L -3.5 0 
" style="stroke: #000000; stroke-width: 0.8"/>
      </defs>
      <g>
       <use xlink:href="#m3aa176eb58" x="57.6" y="296.221046" style="stroke: #000000; stroke-width: 0.8"/>
      </g>
     </g>
     <g id="text_9">
      <!-- 0 -->
      <g transform="translate(44.2375 300.020265)scale(0.1 -0.1)">
       <use xlink:href="#DejaVuSans-30"/>
      </g>
     </g>
    </g>
    <g id="ytick_2">
     <g id="line2d_8">
      <g>
       <use xlink:href="#m3aa176eb58" x="57.6" y="239.297385" style="stroke: #000000; stroke-width: 0.8"/>
      </g>
     </g>
     <g id="text_10">
      <!-- 2 -->
      <g transform="translate(44.2375 243.096603)scale(0.1 -0.1)">
       <use xlink:href="#DejaVuSans-32"/>
      </g>
     </g>
    </g>
    <g id="ytick_3">
     <g id="line2d_9">
      <g>
       <use xlink:href="#m3aa176eb58" x="57.6" y="182.373723" style="stroke: #000000; stroke-width: 0.8"/>
      </g>
     </g>
     <g id="text_11">
      <!-- 4 -->
      <g transform="translate(44.2375 186.172942)scale(0.1 -0.1)">
       <defs>
        <path id="DejaVuSans-34" d="M 2419 4116 
L 825 1625 
L 2419 1625 
L 2419 4116 
z
M 2253 4666 
L 3047 4666 
L 3047 1625 
L 3713 1625 
L 3713 1100 
L 3047 1100 
L 3047 0 
L 2419 0 
L 2419 1100 
L 313 1100 
L 313 1709 
L 2253 4666 
z
" transform="scale(0.015625)"/>
       </defs>
       <use xlink:href="#DejaVuSans-34"/>
      </g>
     </g>
    </g>
    <g id="ytick_4">
     <g id="line2d_10">
      <g>
       <use xlink:href="#m3aa176eb58" x="57.6" y="125.450061" style="stroke: #000000; stroke-width: 0.8"/>
      </g>
     </g>
     <g id="text_12">
      <!-- 6 -->
      <g transform="translate(44.2375 129.24928)scale(0.1 -0.1)">
       <defs>
        <path id="DejaVuSans-36" d="M 2113 2584 
Q 1688 2584 1439 2293 
Q 1191 2003 1191 1497 
Q 1191 994 1439 701 
Q 1688 409 2113 409 
Q 2538 409 2786 701 
Q 3034 994 3034 1497 
Q 3034 2003 2786 2293 
Q 2538 2584 2113 2584 
z
M 3366 4563 
L 3366 3988 
Q 3128 4100 2886 4159 
Q 2644 4219 2406 4219 
Q 1781 4219 1451 3797 
Q 1122 3375 1075 2522 
Q 1259 2794 1537 2939 
Q 1816 3084 2150 3084 
Q 2853 3084 3261 2657 
Q 3669 2231 3669 1497 
Q 3669 778 3244 343 
Q 2819 -91 2113 -91 
Q 1303 -91 875 529 
Q 447 1150 447 2328 
Q 447 3434 972 4092 
Q 1497 4750 2381 4750 
Q 2619 4750 2861 4703 
Q 3103 4656 3366 4563 
z
" transform="scale(0.015625)"/>
       </defs>
       <use xlink:href="#DejaVuSans-36"/>
      </g>
     </g>
    </g>
    <g id="ytick_5">
     <g id="line2d_11">
      <g>
       <use xlink:href="#m3aa176eb58" x="57.6" y="68.5264" style="stroke: #000000; stroke-width: 0.8"/>
      </g>
     </g>
     <g id="text_13">
      <!-- 8 -->
      <g transform="translate(44.2375 72.325619)scale(0.1 -0.1)">
       <defs>
        <path id="DejaVuSans-38" d="M 2034 2216 
Q 1584 2216 1326 1975 
Q 1069 1734 1069 1313 
Q 1069 891 1326 650 
Q 1584 409 2034 409 
Q 2484 409 2743 651 
Q 3003 894 3003 1313 
Q 3003 1734 2745 1975 
Q 2488 2216 2034 2216 
z
M 1403 2484 
Q 997 2584 770 2862 
Q 544 3141 544 3541 
Q 544 4100 942 4425 
Q 1341 4750 2034 4750 
Q 2731 4750 3128 4425 
Q 3525 4100 3525 3541 
Q 3525 3141 3298 2862 
Q 3072 2584 2669 2484 
Q 3125 2378 3379 2068 
Q 3634 1759 3634 1313 
Q 3634 634 3220 271 
Q 2806 -91 2034 -91 
Q 1263 -91 848 271 
Q 434 634 434 1313 
Q 434 1759 690 2068 
Q 947 2378 1403 2484 
z
M 1172 3481 
Q 1172 3119 1398 2916 
Q 1625 2713 2034 2713 
Q 2441 2713 2670 2916 
Q 2900 3119 2900 3481 
Q 2900 3844 2670 4047 
Q 2441 4250 2034 4250 
Q 1625 4250 1398 4047 
Q 1172 3844 1172 3481 
z
" transform="scale(0.015625)"/>
       </defs>
       <use xlink:href="#DejaVuSans-38"/>
      </g>
     </g>
    </g>
    <g id="text_14">
     <!-- GFLOPS -->
     <g transform="translate(38.157812 194.007688)rotate(-90)scale(0.1 -0.1)">
      <defs>
       <path id="DejaVuSans-46" d="M 628 4666 
L 3309 4666 
L 3309 4134 
L 1259 4134 
L 1259 2759 
L 3109 2759 
L 3109 2228 
L 1259 2228 
L 1259 0 
L 628 0 
L 628 4666 
z
" transform="scale(0.015625)"/>
       <path id="DejaVuSans-4c" d="M 628 4666 
L 1259 4666 
L 1259 531 
L 3531 531 
L 3531 0 
L 628 0 
L 628 4666 
z
" transform="scale(0.015625)"/>
       <path id="DejaVuSans-4f" d="M 2522 4238 
Q 1834 4238 1429 3725 
Q 1025 3213 1025 2328 
Q 1025 1447 1429 934 
Q 1834 422 2522 422 
Q 3209 422 3611 934 
Q 4013 1447 4013 2328 
Q 4013 3213 3611 3725 
Q 3209 4238 2522 4238 
z
M 2522 4750 
Q 3503 4750 4090 4092 
Q 4678 3434 4678 2328 
Q 4678 1225 4090 567 
Q 3503 -91 2522 -91 
Q 1538 -91 948 565 
Q 359 1222 359 2328 
Q 359 3434 948 4092 
Q 1538 4750 2522 4750 
z
" transform="scale(0.015625)"/>
      </defs>
      <use xlink:href="#DejaVuSans-47"/>
      <use xlink:href="#DejaVuSans-46" x="77.490234"/>
      <use xlink:href="#DejaVuSans-4c" x="135.009766"/>
      <use xlink:href="#DejaVuSans-4f" x="187.097656"/>
      <use xlink:href="#DejaVuSans-50" x="265.808594"/>
      <use xlink:href="#DejaVuSans-53" x="326.111328"/>
     </g>
    </g>
   </g>
   <g id="line2d_12">
    <path d="M 73.832727 224.04042 
L 73.866011 83.743205 
L 73.934176 272.551519 
L 73.943687 121.218677 
L 73.946857 121.142221 
L 74.03563 294.870715 
L 73.954784 115.364042 
L 74.060994 294.864997 
L 74.068127 133.532794 
L 74.137085 294.593406 
L 74.365357 292.847686 
L 74.441448 293.740395 
L 74.466812 292.488059 
L 74.517539 294.195882 
L 74.542903 292.754405 
L 74.59363 292.980252 
L 74.644357 293.943206 
L 74.720448 290.810445 
L 74.745812 293.20557 
L 74.897994 291.88935 
L 75.050176 293.162024 
L 75.075539 289.443231 
L 75.100903 292.275288 
L 75.43063 291.252094 
L 75.455994 293.321202 
L 75.506721 291.302145 
L 75.608176 290.956319 
L 75.658903 291.63175 
L 75.734994 290.280493 
L 75.861812 291.310686 
L 75.963267 289.86616 
L 76.115448 289.338555 
L 76.26763 292.482272 
L 76.369085 288.800131 
L 76.571994 289.069865 
L 76.622721 288.733241 
L 76.673448 291.228898 
L 77.028539 287.426269 
L 77.079267 292.569126 
L 77.256812 286.767829 
L 77.38363 286.670945 
L 77.485085 290.274016 
L 77.561176 285.565164 
L 77.637267 285.931554 
L 77.738721 285.495419 
L 77.890903 288.824244 
L 78.017721 285.258773 
L 78.093812 289.090799 
L 78.296721 283.861418 
L 78.398176 284.190764 
L 78.626448 283.50578 
L 78.702539 292.138212 
L 78.803994 282.849137 
L 78.854721 283.735545 
L 78.905448 284.448327 
L 79.159085 282.939653 
L 79.311267 285.296979 
L 79.412721 282.968484 
L 79.514176 290.117818 
L 79.539539 282.647599 
L 79.691721 282.885611 
L 79.919994 288.287873 
L 79.970721 281.247419 
L 80.046812 282.226933 
L 80.224358 281.963007 
L 80.325812 292.570346 
L 80.528721 281.55026 
L 80.680903 282.020566 
L 80.807721 280.522753 
L 81.137448 290.843287 
L 81.365721 279.351577 
L 81.441812 280.047369 
L 81.644721 279.260044 
L 81.822267 279.568371 
L 81.949085 289.841118 
L 82.050539 279.379384 
L 82.202721 280.58535 
L 82.354903 291.96706 
L 82.709994 277.538131 
L 82.760721 285.576193 
L 82.96363 285.035269 
L 83.039721 283.343832 
L 83.572358 292.25065 
L 83.597721 276.411527 
L 83.775267 289.556452 
L 83.876721 277.387767 
L 83.978176 284.21559 
L 84.789812 292.011314 
L 84.992721 275.046085 
L 85.19563 290.88432 
L 86.007267 291.633648 
L 86.108721 274.907262 
L 86.615994 291.412263 
L 86.818903 292.127882 
L 87.224721 291.179688 
L 88.036358 290.686458 
L 88.442176 290.720675 
L 89.050903 290.10531 
L 90.065449 290.174782 
L 90.268358 289.947632 
L 92.09454 289.357476 
L 93.311994 290.25342 
L 93.717812 288.658823 
L 93.920721 288.639896 
L 94.123631 288.917759 
L 96.152722 288.495097 
L 96.55854 290.823473 
L 98.181812 288.884256 
L 99.399267 287.776599 
L 99.805085 290.926382 
L 100.616722 287.168607 
L 102.239994 286.980476 
L 103.051631 289.094222 
L 103.660358 286.274177 
L 104.269085 285.712369 
L 105.080722 285.222228 
L 106.298176 287.420145 
L 106.703994 285.279114 
L 107.312722 285.095559 
L 107.921449 286.272292 
L 109.544722 284.220998 
L 110.356358 284.367633 
L 112.18254 283.438112 
L 112.791267 289.905686 
L 114.008722 282.734927 
L 114.41454 282.719508 
L 116.443631 282.85214 
L 117.661086 282.777167 
L 118.472722 282.984568 
L 119.284358 291.372616 
L 120.704722 281.82185 
L 122.530904 286.519029 
L 122.936722 281.692961 
L 123.139631 282.091825 
L 125.777449 291.261866 
L 127.400722 281.257002 
L 128.618177 281.14638 
L 130.647268 288.087452 
L 132.27054 292.028294 
L 134.096722 279.645175 
L 134.70545 279.161879 
L 138.763631 288.441802 
L 140.792722 278.596058 
L 142.010177 291.380201 
L 145.256722 291.173767 
L 146.879995 290.938246 
L 147.488722 277.2828 
L 151.749813 289.310798 
L 153.373086 284.885553 
L 161.48945 289.955525 
L 171.229087 289.260008 
L 176.098905 288.585819 
L 177.722178 288.774207 
L 180.968723 288.608503 
L 187.461814 287.962903 
L 190.70836 287.933132 
L 210.187633 286.496222 
L 229.666906 285.109092 
L 236.159997 285.083832 
L 244.276361 284.288808 
L 249.146179 284.605303 
L 255.63927 284.273865 
L 268.625452 283.36552 
L 278.365089 282.826752 
L 281.611634 282.485395 
L 288.104725 282.168568 
L 292.974543 281.526545 
L 301.090907 281.413238 
L 317.323635 280.121185 
L 323.816726 279.399763 
L 333.556362 279.392647 
L 346.542544 277.876713 
L 359.528727 277.36645 
L 366.021818 276.857467 
L 380.631272 276.012634 
L 395.240727 274.879417 
L 398.487273 274.777419 
L 398.487273 274.777419 
" clip-path="url(#pf85e7692ce)" style="fill: none; stroke: #1f77b4; stroke-width: 1.5; stroke-linecap: square"/>
   </g>
   <g id="line2d_13"/>
   <g id="patch_3">
    <path d="M 57.6 307.584 
L 57.6 41.472 
" style="fill: none; stroke: #000000; stroke-width: 0.8; stroke-linejoin: miter; stroke-linecap: square"/>
   </g>
   <g id="patch_4">
    <path d="M 414.72 307.584 
L 414.72 41.472 
" style="fill: none; stroke: #000000; stroke-width: 0.8; stroke-linejoin: miter; stroke-linecap: square"/>
   </g>
   <g id="patch_5">
    <path d="M 57.6 307.584 
L 414.72 307.584 
" style="fill: none; stroke: #000000; stroke-width: 0.8; stroke-linejoin: miter; stroke-linecap: square"/>
   </g>
   <g id="patch_6">
    <path d="M 57.6 41.472 
L 414.72 41.472 
" style="fill: none; stroke: #000000; stroke-width: 0.8; stroke-linejoin: miter; stroke-linecap: square"/>
   </g>
   <g id="text_15">
    <!-- Performance vs Global Problem Size -->
    <g transform="translate(127.8525 35.472)scale(0.12 -0.12)">
     <defs>
      <path id="DejaVuSans-66" d="M 2375 4863 
L 2375 4384 
L 1825 4384 
Q 1516 4384 1395 4259 
Q 1275 4134 1275 3809 
L 1275 3500 
L 2222 3500 
L 2222 3053 
L 1275 3053 
L 1275 0 
L 697 0 
L 697 3053 
L 147 3053 
L 147 3500 
L 697 3500 
L 697 3744 
Q 697 4328 969 4595 
Q 1241 4863 1831 4863 
L 2375 4863 
z
" transform="scale(0.015625)"/>
      <path id="DejaVuSans-6e" d="M 3513 2113 
L 3513 0 
L 2938 0 
L 2938 2094 
Q 2938 2591 2744 2837 
Q 2550 3084 2163 3084 
Q 1697 3084 1428 2787 
Q 1159 2491 1159 1978 
L 1159 0 
L 581 0 
L 581 3500 
L 1159 3500 
L 1159 2956 
Q 1366 3272 1645 3428 
Q 1925 3584 2291 3584 
Q 2894 3584 3203 3211 
Q 3513 2838 3513 2113 
z
" transform="scale(0.015625)"/>
      <path id="DejaVuSans-63" d="M 3122 3366 
L 3122 2828 
Q 2878 2963 2633 3030 
Q 2388 3097 2138 3097 
Q 1578 3097 1268 2742 
Q 959 2388 959 1747 
Q 959 1106 1268 751 
Q 1578 397 2138 397 
Q 2388 397 2633 464 
Q 2878 531 3122 666 
L 3122 134 
Q 2881 22 2623 -34 
Q 2366 -91 2075 -91 
Q 1284 -91 818 406 
Q 353 903 353 1747 
Q 353 2603 823 3093 
Q 1294 3584 2113 3584 
Q 2378 3584 2631 3529 
Q 2884 3475 3122 3366 
z
" transform="scale(0.015625)"/>
      <path id="DejaVuSans-76" d="M 191 3500 
L 800 3500 
L 1894 563 
L 2988 3500 
L 3597 3500 
L 2284 0 
L 1503 0 
L 191 3500 
z
" transform="scale(0.015625)"/>
      <path id="DejaVuSans-73" d="M 2834 3397 
L 2834 2853 
Q 2591 2978 2328 3040 
Q 2066 3103 1784 3103 
Q 1356 3103 1142 2972 
Q 928 2841 928 2578 
Q 928 2378 1081 2264 
Q 1234 2150 1697 2047 
L 1894 2003 
Q 2506 1872 2764 1633 
Q 3022 1394 3022 966 
Q 3022 478 2636 193 
Q 2250 -91 1575 -91 
Q 1294 -91 989 -36 
Q 684 19 347 128 
L 347 722 
Q 666 556 975 473 
Q 1284 391 1588 391 
Q 1994 391 2212 530 
Q 2431 669 2431 922 
Q 2431 1156 2273 1281 
Q 2116 1406 1581 1522 
L 1381 1569 
Q 847 1681 609 1914 
Q 372 2147 372 2553 
Q 372 3047 722 3315 
Q 1072 3584 1716 3584 
Q 2034 3584 2315 3537 
Q 2597 3491 2834 3397 
z
" transform="scale(0.015625)"/>
     </defs>
     <use xlink:href="#DejaVuSans-50"/>
     <use xlink:href="#DejaVuSans-65" x="56.677734"/>
     <use xlink:href="#DejaVuSans-72" x="118.201172"/>
     <use xlink:href="#DejaVuSans-66" x="159.314453"/>
     <use xlink:href="#DejaVuSans-6f" x="194.519531"/>
     <use xlink:href="#DejaVuSans-72" x="255.701172"/>
     <use xlink:href="#DejaVuSans-6d" x="295.064453"/>
     <use xlink:href="#DejaVuSans-61" x="392.476562"/>
     <use xlink:href="#DejaVuSans-6e" x="453.755859"/>
     <use xlink:href="#DejaVuSans-63" x="517.134766"/>
     <use xlink:href="#DejaVuSans-65" x="572.115234"/>
     <use xlink:href="#DejaVuSans-20" x="633.638672"/>
     <use xlink:href="#DejaVuSans-76" x="665.425781"/>
     <use xlink:href="#DejaVuSans-73" x="724.605469"/>
     <use xlink:href="#DejaVuSans-20" x="776.705078"/>
     <use xlink:href="#DejaVuSans-47" x="808.492188"/>
     <use xlink:href="#DejaVuSans-6c" x="885.982422"/>
     <use xlink:href="#DejaVuSans-6f" x="913.765625"/>
     <use xlink:href="#DejaVuSans-62" x="974.947266"/>
     <use xlink:href="#DejaVuSans-61" x="1038.423828"/>
     <use xlink:href="#DejaVuSans-6c" x="1099.703125"/>
     <use xlink:href="#DejaVuSans-20" x="1127.486328"/>
     <use xlink:href="#DejaVuSans-50" x="1159.273438"/>
     <use xlink:href="#DejaVuSans-72" x="1217.826172"/>
     <use xlink:href="#DejaVuSans-6f" x="1256.689453"/>
     <use xlink:href="#DejaVuSans-62" x="1317.871094"/>
     <use xlink:href="#DejaVuSans-6c" x="1381.347656"/>
     <use xlink:href="#DejaVuSans-65" x="1409.130859"/>
     <use xlink:href="#DejaVuSans-6d" x="1470.654297"/>
     <use xlink:href="#DejaVuSans-20" x="1568.066406"/>
     <use xlink:href="#DejaVuSans-53" x="1599.853516"/>
     <use xlink:href="#DejaVuSans-69" x="1663.330078"/>
     <use xlink:href="#DejaVuSans-7a" x="1691.113281"/>
     <use xlink:href="#DejaVuSans-65" x="1743.603516"/>
    </g>
   </g>
   <g id="legend_1">
    <g id="patch_7">
     <path d="M 339.12 78.82825 
L 407.72 78.82825 
Q 409.72 78.82825 409.72 76.82825 
L 409.72 48.472 
Q 409.72 46.472 407.72 46.472 
L 339.12 46.472 
Q 337.12 46.472 337.12 48.472 
L 337.12 76.82825 
Q 337.12 78.82825 339.12 78.82825 
z
" style="fill: #ffffff; opacity: 0.8; stroke: #cccccc; stroke-linejoin: miter"/>
    </g>
    <g id="text_16">
     <!-- Cluster -->
     <g transform="translate(355.673906 58.070437)scale(0.1 -0.1)">
      <defs>
       <path id="DejaVuSans-43" d="M 4122 4306 
L 4122 3641 
Q 3803 3938 3442 4084 
Q 3081 4231 2675 4231 
Q 1875 4231 1450 3742 
Q 1025 3253 1025 2328 
Q 1025 1406 1450 917 
Q 1875 428 2675 428 
Q 3081 428 3442 575 
Q 3803 722 4122 1019 
L 4122 359 
Q 3791 134 3420 21 
Q 3050 -91 2638 -91 
Q 1578 -91 968 557 
Q 359 1206 359 2328 
Q 359 3453 968 4101 
Q 1578 4750 2638 4750 
Q 3056 4750 3426 4639 
Q 3797 4528 4122 4306 
z
" transform="scale(0.015625)"/>
       <path id="DejaVuSans-75" d="M 544 1381 
L 544 3500 
L 1119 3500 
L 1119 1403 
Q 1119 906 1312 657 
Q 1506 409 1894 409 
Q 2359 409 2629 706 
Q 2900 1003 2900 1516 
L 2900 3500 
L 3475 3500 
L 3475 0 
L 2900 0 
L 2900 538 
Q 2691 219 2414 64 
Q 2138 -91 1772 -91 
Q 1169 -91 856 284 
Q 544 659 544 1381 
z
M 1991 3584 
L 1991 3584 
z
" transform="scale(0.015625)"/>
       <path id="DejaVuSans-74" d="M 1172 4494 
L 1172 3500 
L 2356 3500 
L 2356 3053 
L 1172 3053 
L 1172 1153 
Q 1172 725 1289 603 
Q 1406 481 1766 481 
L 2356 481 
L 2356 0 
L 1766 0 
Q 1100 0 847 248 
Q 594 497 594 1153 
L 594 3053 
L 172 3053 
L 172 3500 
L 594 3500 
L 594 4494 
L 1172 4494 
z
" transform="scale(0.015625)"/>
      </defs>
      <use xlink:href="#DejaVuSans-43"/>
      <use xlink:href="#DejaVuSans-6c" x="69.824219"/>
      <use xlink:href="#DejaVuSans-75" x="97.607422"/>
      <use xlink:href="#DejaVuSans-73" x="160.986328"/>
      <use xlink:href="#DejaVuSans-74" x="213.085938"/>
      <use xlink:href="#DejaVuSans-65" x="252.294922"/>
      <use xlink:href="#DejaVuSans-72" x="313.818359"/>
     </g>
    </g>
    <g id="line2d_14">
     <path d="M 341.12 69.248562 
L 351.12 69.248562 
L 361.12 69.248562 
" style="fill: none; stroke: #1f77b4; stroke-width: 1.5; stroke-linecap: square"/>
    </g>
    <g id="text_17">
     <!-- Hopper -->
     <g transform="translate(369.12 72.748562)scale(0.1 -0.1)">
      <defs>
       <path id="DejaVuSans-48" d="M 628 4666 
L 1259 4666 
L 1259 2753 
L 3553 2753 
L 3553 4666 
L 4184 4666 
L 4184 0 
L 3553 0 
L 3553 2222 
L 1259 2222 
L 1259 0 
L 628 0 
L 628 4666 
z
" transform="scale(0.015625)"/>
       <path id="DejaVuSans-70" d="M 1159 525 
L 1159 -1331 
L 581 -1331 
L 581 3500 
L 1159 3500 
L 1159 2969 
Q 1341 3281 1617 3432 
Q 1894 3584 2278 3584 
Q 2916 3584 3314 3078 
Q 3713 2572 3713 1747 
Q 3713 922 3314 415 
Q 2916 -91 2278 -91 
Q 1894 -91 1617 61 
Q 1341 213 1159 525 
z
M 3116 1747 
Q 3116 2381 2855 2742 
Q 2594 3103 2138 3103 
Q 1681 3103 1420 2742 
Q 1159 2381 1159 1747 
Q 1159 1113 1420 752 
Q 1681 391 2138 391 
Q 2594 391 2855 752 
Q 3116 1113 3116 1747 
z
" transform="scale(0.015625)"/>
      </defs>
      <use xlink:href="#DejaVuSans-48"/>
      <use xlink:href="#DejaVuSans-6f" x="75.195312"/>
      <use xlink:href="#DejaVuSans-70" x="136.376953"/>
      <use xlink:href="#DejaVuSans-70" x="199.853516"/>
      <use xlink:href="#DejaVuSans-65" x="263.330078"/>
      <use xlink:href="#DejaVuSans-72" x="324.853516"/>
     </g>
    </g>
   </g>
  </g>
 </g>
 <defs>
  <clipPath id="pf85e7692ce">
   <rect x="57.6" y="41.472" width="357.12" height="266.112"/>
  </clipPath>
 </defs>
</svg>
