<?xml version="1.0" encoding="utf-8" standalone="no"?>
<!DOCTYPE svg PUBLIC "-//W3C//DTD SVG 1.1//EN"
  "http://www.w3.org/Graphics/SVG/1.1/DTD/svg11.dtd">
<svg xmlns:xlink="http://www.w3.org/1999/xlink" width="460.8pt" height="345.6pt" viewBox="0 0 460.8 345.6" xmlns="http://www.w3.org/2000/svg" version="1.1">
 <metadata>
  <rdf:RDF xmlns:dc="http://purl.org/dc/elements/1.1/" xmlns:cc="http://creativecommons.org/ns#" xmlns:rdf="http://www.w3.org/1999/02/22-rdf-syntax-ns#">
   <cc:Work>
    <dc:type rdf:resource="http://purl.org/dc/dcmitype/StillImage"/>
    <dc:date>2024-05-04T11:11:31.261160</dc:date>
    <dc:format>image/svg+xml</dc:format>
    <dc:creator>
     <cc:Agent>
      <dc:title>Matplotlib v3.5.3, https://matplotlib.org/</dc:title>
     </cc:Agent>
    </dc:creator>
   </cc:Work>
  </rdf:RDF>
 </metadata>
 <defs>
  <style type="text/css">*{stroke-linejoin: round; stroke-linecap: butt}</style>
 </defs>
 <g id="figure_1">
  <g id="patch_1">
   <path d="M 0 345.6 
L 460.8 345.6 
L 460.8 0 
L 0 0 
z
" style="fill: #ffffff"/>
  </g>
  <g id="axes_1">
   <g id="patch_2">
    <path d="M 57.6 307.584 
L 414.72 307.584 
L 414.72 41.472 
L 57.6 41.472 
z
" style="fill: #ffffff"/>
   </g>
   <g id="PolyCollection_1">
    <path d="M 73.832727 152.36966 
L 73.832727 227.155194 
L 106.012464 198.874132 
L 124.836403 172.32162 
L 138.1922 187.356568 
L 148.551761 154.908082 
L 157.016139 166.432528 
L 164.172668 295.488 
L 170.371936 167.764963 
L 180.731497 154.730605 
L 189.195875 159.51821 
L 196.352405 145.44959 
L 202.551673 151.046331 
L 208.019814 158.297511 
L 212.911234 147.869923 
L 221.375612 145.154077 
L 228.532141 144.985237 
L 231.735173 125.100406 
L 234.731409 138.244079 
L 240.199551 140.347608 
L 245.09097 135.533155 
L 247.35608 116.535794 
L 247.35608 114.211129 
L 247.35608 114.211129 
L 245.09097 120.802753 
L 240.199551 125.961519 
L 234.731409 126.159078 
L 231.735173 122.838291 
L 228.532141 124.397944 
L 221.375612 132.570503 
L 212.911234 133.775827 
L 208.019814 139.221128 
L 202.551673 141.457883 
L 196.352405 144.573019 
L 189.195875 150.670271 
L 180.731497 154.164574 
L 170.371936 153.109937 
L 164.172668 144.75607 
L 157.016139 149.614447 
L 148.551761 154.580336 
L 138.1922 145.801455 
L 124.836403 171.276821 
L 106.012464 183.195636 
L 73.832727 152.36966 
z
" clip-path="url(#pa102c3358b)" style="fill: #1f77b4; fill-opacity: 0.2; stroke: #1f77b4; stroke-opacity: 0.2"/>
    <path d="M 253.555348 119.040598 
L 253.555348 129.26919 
L 260.711877 120.642093 
L 263.914909 125.093693 
L 266.911145 119.567307 
L 272.379287 127.605064 
L 277.270706 122.762071 
L 279.535817 126.689966 
L 281.695534 111.11169 
L 285.735084 116.591248 
L 287.630268 124.096879 
L 291.203226 116.911305 
L 292.891614 106.758878 
L 296.094646 112.164481 
L 296.094646 104.721978 
L 296.094646 104.721978 
L 292.891614 103.128445 
L 291.203226 107.976714 
L 287.630268 111.507027 
L 285.735084 110.178286 
L 281.695534 110.573073 
L 279.535817 114.82334 
L 277.270706 114.528333 
L 272.379287 118.717424 
L 266.911145 105.807495 
L 263.914909 122.926734 
L 260.711877 104.257908 
L 253.555348 119.040598 
z
" clip-path="url(#pa102c3358b)" style="fill: #1f77b4; fill-opacity: 0.2; stroke: #1f77b4; stroke-opacity: 0.2"/>
    <path d="M 299.090882 99.246457 
L 299.090882 108.44477 
L 300.519473 103.573909 
L 303.251175 118.148966 
L 304.559023 107.799746 
L 309.450443 98.734658 
L 309.450443 92.977801 
L 309.450443 92.977801 
L 304.559023 99.214739 
L 303.251175 99.602839 
L 300.519473 101.724137 
L 299.090882 99.246457 
z
" clip-path="url(#pa102c3358b)" style="fill: #1f77b4; fill-opacity: 0.2; stroke: #1f77b4; stroke-opacity: 0.2"/>
    <path d="M 311.715553 94.185641 
L 311.715553 96.676322 
L 313.87527 105.746274 
L 314.918585 106.258831 
L 317.914821 97.874646 
L 319.810004 106.666404 
L 322.075114 90.701777 
L 323.382962 90.839807 
L 324.234831 88.307512 
L 325.07135 88.324453 
L 328.274382 86.536982 
L 330.539492 85.972181 
L 331.270618 80.344728 
L 332.699209 96.312117 
L 333.742524 98.660327 
L 335.430911 93.613099 
L 336.73876 84.395027 
L 336.73876 78.526377 
L 336.73876 78.526377 
L 335.430911 82.065321 
L 333.742524 83.613506 
L 332.699209 84.216244 
L 331.270618 78.763404 
L 330.539492 84.225133 
L 328.274382 83.639332 
L 325.07135 83.822202 
L 324.234831 86.75486 
L 323.382962 88.278536 
L 322.075114 89.258808 
L 319.810004 89.886116 
L 317.914821 90.482974 
L 314.918585 93.790933 
L 313.87527 90.720243 
L 311.715553 94.185641 
z
" clip-path="url(#pa102c3358b)" style="fill: #1f77b4; fill-opacity: 0.2; stroke: #1f77b4; stroke-opacity: 0.2"/>
    <path d="M 341.630179 73.465228 
L 341.630179 81.263257 
L 342.206901 79.681099 
L 343.895289 91.538954 
L 343.895289 79.56894 
L 343.895289 79.56894 
L 342.206901 77.869456 
L 341.630179 73.465228 
z
" clip-path="url(#pa102c3358b)" style="fill: #1f77b4; fill-opacity: 0.2; stroke: #1f77b4; stroke-opacity: 0.2"/>
    <path d="M 346.055006 70.350285 
L 346.055006 70.695432 
L 347.098321 83.3376 
L 349.363431 87.758137 
L 350.094557 74.260471 
L 350.094557 69.310026 
L 350.094557 69.310026 
L 349.363431 74.710578 
L 347.098321 73.649003 
L 346.055006 70.350285 
z
" clip-path="url(#pa102c3358b)" style="fill: #1f77b4; fill-opacity: 0.2; stroke: #1f77b4; stroke-opacity: 0.2"/>
    <path d="M 351.98974 71.213675 
L 351.98974 84.099519 
L 354.25485 86.12743 
L 355.562699 71.383703 
L 355.562699 69.106082 
L 355.562699 69.106082 
L 354.25485 71.338 
L 351.98974 71.213675 
z
" clip-path="url(#pa102c3358b)" style="fill: #1f77b4; fill-opacity: 0.2; stroke: #1f77b4; stroke-opacity: 0.2"/>
    <path d="M 357.251086 64.332294 
L 357.251086 69.748771 
L 357.251086 64.332294 
L 357.251086 64.332294 
z
" clip-path="url(#pa102c3358b)" style="fill: #1f77b4; fill-opacity: 0.2; stroke: #1f77b4; stroke-opacity: 0.2"/>
    <path d="M 360.454118 66.517252 
L 360.454118 69.148815 
L 360.454118 66.517252 
L 360.454118 66.517252 
z
" clip-path="url(#pa102c3358b)" style="fill: #1f77b4; fill-opacity: 0.2; stroke: #1f77b4; stroke-opacity: 0.2"/>
    <path d="M 362.719228 67.756927 
L 362.719228 68.093397 
L 362.719228 67.756927 
L 362.719228 67.756927 
z
" clip-path="url(#pa102c3358b)" style="fill: #1f77b4; fill-opacity: 0.2; stroke: #1f77b4; stroke-opacity: 0.2"/>
    <path d="M 364.878945 67.433302 
L 364.878945 77.349027 
L 365.92226 79.575431 
L 367.610648 78.420681 
L 368.918496 64.889949 
L 368.918496 58.858616 
L 368.918496 58.858616 
L 367.610648 63.155346 
L 365.92226 66.31595 
L 364.878945 67.433302 
z
" clip-path="url(#pa102c3358b)" style="fill: #1f77b4; fill-opacity: 0.2; stroke: #1f77b4; stroke-opacity: 0.2"/>
    <path d="M 373.078789 63.309113 
L 373.078789 64.70152 
L 373.809915 58.43641 
L 373.809915 56.847979 
L 373.809915 56.847979 
L 373.078789 63.309113 
z
" clip-path="url(#pa102c3358b)" style="fill: #1f77b4; fill-opacity: 0.2; stroke: #1f77b4; stroke-opacity: 0.2"/>
    <path d="M 379.278057 60.19866 
L 379.278057 72.310804 
L 379.278057 60.19866 
L 379.278057 60.19866 
z
" clip-path="url(#pa102c3358b)" style="fill: #1f77b4; fill-opacity: 0.2; stroke: #1f77b4; stroke-opacity: 0.2"/>
   </g>
   <g id="PolyCollection_2">
    <defs>
     <path id="md73fd9e831" d="M 73.832727 -190.658575 
L 73.832727 -168.128943 
L 106.012464 -174.694443 
L 124.836403 -174.292036 
L 138.1922 -176.565431 
L 148.551761 -180.047782 
L 157.016139 -180.160751 
L 164.172668 -181.280633 
L 170.371936 -178.618607 
L 175.840078 -176.784813 
L 180.731497 -180.582107 
L 189.195875 -181.452357 
L 196.352405 -181.177756 
L 199.555437 -179.019398 
L 202.551673 -180.64199 
L 208.019814 -181.776156 
L 212.911234 -181.53756 
L 215.176344 -181.70034 
L 221.375612 -181.514586 
L 223.270795 -179.058735 
L 226.843753 -173.368457 
L 228.532141 -181.008811 
L 231.735173 -181.790587 
L 234.731409 -180.231319 
L 238.891702 -178.137169 
L 240.199551 -180.924002 
L 245.09097 -180.326835 
L 247.35608 -180.691705 
L 249.515797 -177.460504 
L 250.559112 -176.50988 
L 253.555348 -180.372538 
L 254.51261 -174.312446 
L 255.450531 -178.890999 
L 259.02349 -180.07747 
L 260.711877 -177.906408 
L 263.914909 -180.358357 
L 266.180019 -178.290082 
L 266.911145 -177.555286 
L 268.339736 -176.958834 
L 271.071439 -179.122994 
L 272.379287 -177.939903 
L 274.27447 -174.315871 
L 277.270706 -177.136937 
L 277.847429 -173.073126 
L 279.535817 -178.198448 
L 281.695534 -172.975557 
L 282.738848 -176.416147 
L 285.735084 -175.302222 
L 286.692346 -172.652375 
L 287.163675 -171.844269 
L 287.630268 -175.067065 
L 289.895378 -175.018899 
L 291.203226 -175.47133 
L 292.055095 -173.16768 
L 292.891614 -174.695628 
L 296.094646 -174.584717 
L 297.989829 -160.720655 
L 298.359756 -174.07391 
L 299.090882 -171.270395 
L 300.519473 -172.127989 
L 301.562787 -171.368431 
L 303.251175 -172.79962 
L 304.559023 -172.036072 
L 305.516285 -170.394757 
L 306.454207 -172.102799 
L 307.676002 -169.898732 
L 309.450443 -170.429942 
L 310.027165 -171.020954 
L 310.879034 -170.064591 
L 311.715553 -172.723068 
L 313.610736 -169.729721 
L 313.87527 -169.069833 
L 314.918585 -172.162491 
L 317.183695 -169.34863 
L 317.914821 -169.710945 
L 318.872082 -169.809881 
L 319.343412 -169.860438 
L 319.810004 -170.450688 
L 322.075114 -171.195959 
L 323.382962 -170.441652 
L 324.234831 -169.3954 
L 325.07135 -170.030216 
L 325.278146 -167.993107 
L 326.499941 -167.510696 
L 328.274382 -170.839522 
L 328.659658 -161.100008 
L 328.851104 -165.771975 
L 329.231644 -168.378063 
L 330.169565 -166.223201 
L 330.539492 -170.337035 
L 331.270618 -166.545069 
L 332.699209 -168.531898 
L 333.742524 -169.716895 
L 334.594392 -167.080263 
L 335.430911 -169.845426 
L 336.73876 -169.183863 
L 337.696021 -166.752435 
L 338.167351 -167.770875 
L 338.633943 -169.813318 
L 339.855738 -168.475647 
L 340.899053 -169.667042 
L 341.630179 -169.128433 
L 342.206901 -169.573508 
L 343.05877 -169.824425 
L 343.895289 -169.588304 
L 344.852551 -166.407369 
L 345.790473 -168.544708 
L 346.055006 -167.167896 
L 347.098321 -170.077992 
L 347.483597 -159.915355 
L 349.363431 -169.066834 
L 350.094557 -166.492127 
L 350.2153 -168.103312 
L 351.051819 -167.139225 
L 351.523148 -168.665761 
L 351.98974 -169.357041 
L 352.566463 -167.462437 
L 354.25485 -169.074799 
L 355.562699 -167.929571 
L 356.414568 -168.393485 
L 356.51996 -165.231301 
L 357.251086 -166.95884 
L 357.457882 -167.889193 
L 358.679678 -168.79033 
L 360.454118 -168.866225 
L 360.839395 -160.838969 
L 361.03084 -166.913313 
L 361.41138 -166.450274 
L 361.882709 -168.277894 
L 362.349302 -166.762393 
L 362.719228 -168.23094 
L 363.450354 -161.558958 
L 364.878945 -167.645236 
L 365.836207 -165.389861 
L 365.92226 -167.458283 
L 366.774129 -167.141651 
L 367.610648 -167.527617 
L 368.18737 -163.671298 
L 368.918496 -165.00569 
L 370.347087 -168.752332 
L 370.813679 -167.795798 
L 371.198956 -165.898795 
L 372.035475 -166.177305 
L 373.078789 -166.224866 
L 373.809915 -163.371468 
L 374.386638 -164.418433 
L 375.238507 -168.679772 
L 377.503617 -166.464662 
L 377.970209 -163.296484 
L 378.234743 -164.638551 
L 379.278057 -166.908953 
L 379.663334 -167.372272 
L 379.85478 -161.042215 
L 382.395036 -164.975521 
L 383.702884 -164.19156 
L 384.169477 -163.278279 
L 384.746199 -161.202983 
L 386.819863 -163.338366 
L 388.594304 -164.210613 
L 389.171026 -164.168271 
L 389.637618 -160.792204 
L 393.019131 -160.10935 
L 394.062446 -163.138266 
L 398.487273 -158.801505 
L 398.487273 -175.244664 
L 398.487273 -175.244664 
L 394.062446 -173.377244 
L 393.019131 -172.615171 
L 389.637618 -173.483879 
L 389.171026 -174.176357 
L 388.594304 -173.682769 
L 386.819863 -176.993345 
L 384.746199 -169.11567 
L 384.169477 -176.571836 
L 383.702884 -170.9803 
L 382.395036 -175.251189 
L 379.85478 -176.715032 
L 379.663334 -182.752943 
L 379.278057 -173.802847 
L 378.234743 -174.030348 
L 377.970209 -177.152241 
L 377.503617 -173.598903 
L 375.238507 -180.439641 
L 374.386638 -172.586305 
L 373.809915 -172.549814 
L 373.078789 -173.17963 
L 372.035475 -173.222587 
L 371.198956 -182.126551 
L 370.813679 -182.809179 
L 370.347087 -176.870612 
L 368.918496 -172.659485 
L 368.18737 -172.655308 
L 367.610648 -174.317076 
L 366.774129 -179.020233 
L 365.92226 -175.754476 
L 365.836207 -176.154403 
L 364.878945 -175.936095 
L 363.450354 -174.328406 
L 362.719228 -173.781384 
L 362.349302 -182.450339 
L 361.882709 -176.431783 
L 361.41138 -175.976919 
L 361.03084 -176.184019 
L 360.839395 -179.739776 
L 360.454118 -176.685327 
L 358.679678 -176.965586 
L 357.457882 -176.337417 
L 357.251086 -174.878609 
L 356.51996 -173.256871 
L 356.414568 -175.208507 
L 355.562699 -174.603244 
L 354.25485 -177.21051 
L 352.566463 -176.426777 
L 351.98974 -176.829016 
L 351.523148 -175.382531 
L 351.051819 -175.043581 
L 350.2153 -176.570775 
L 350.094557 -175.716606 
L 349.363431 -175.899988 
L 347.483597 -180.424811 
L 347.098321 -174.63094 
L 346.055006 -175.467805 
L 345.790473 -176.290903 
L 344.852551 -179.597597 
L 343.895289 -175.796109 
L 343.05877 -177.084999 
L 342.206901 -176.170588 
L 341.630179 -175.24983 
L 340.899053 -175.956579 
L 339.855738 -176.729906 
L 338.633943 -177.549143 
L 338.167351 -176.340197 
L 337.696021 -176.1444 
L 336.73876 -174.753365 
L 335.430911 -175.034395 
L 334.594392 -179.349637 
L 333.742524 -175.205792 
L 332.699209 -174.551808 
L 331.270618 -176.220691 
L 330.539492 -175.79063 
L 330.169565 -179.678969 
L 329.231644 -177.170586 
L 328.851104 -175.370699 
L 328.659658 -181.004098 
L 328.274382 -175.503117 
L 326.499941 -176.626905 
L 325.278146 -178.388609 
L 325.07135 -176.620335 
L 324.234831 -176.60364 
L 323.382962 -175.006281 
L 322.075114 -176.795487 
L 319.810004 -176.78696 
L 319.343412 -175.91881 
L 318.872082 -178.454112 
L 317.914821 -175.509633 
L 317.183695 -176.601667 
L 314.918585 -176.441709 
L 313.87527 -176.503545 
L 313.610736 -179.449677 
L 311.715553 -177.684879 
L 310.879034 -179.540706 
L 310.027165 -176.717146 
L 309.450443 -175.423888 
L 307.676002 -179.198652 
L 306.454207 -179.221609 
L 305.516285 -180.876119 
L 304.559023 -176.239115 
L 303.251175 -178.088313 
L 301.562787 -178.848524 
L 300.519473 -178.90412 
L 299.090882 -178.490852 
L 298.359756 -179.105747 
L 297.989829 -181.200179 
L 296.094646 -178.613329 
L 292.891614 -180.71918 
L 292.055095 -182.521758 
L 291.203226 -180.289978 
L 289.895378 -182.624707 
L 287.630268 -182.159481 
L 287.163675 -185.594516 
L 286.692346 -183.094526 
L 285.735084 -180.172121 
L 282.738848 -181.690284 
L 281.695534 -182.665958 
L 279.535817 -183.58435 
L 277.847429 -183.585654 
L 277.270706 -182.18416 
L 274.27447 -185.537391 
L 272.379287 -182.536697 
L 271.071439 -186.056206 
L 268.339736 -186.530794 
L 266.911145 -183.490517 
L 266.180019 -189.122155 
L 263.914909 -185.085919 
L 260.711877 -183.409451 
L 259.02349 -186.254475 
L 255.450531 -189.450919 
L 254.51261 -185.285844 
L 253.555348 -184.353912 
L 250.559112 -188.529439 
L 249.515797 -190.566658 
L 247.35608 -185.920932 
L 245.09097 -185.185102 
L 240.199551 -185.904881 
L 238.891702 -185.764582 
L 234.731409 -185.368917 
L 231.735173 -186.971088 
L 228.532141 -187.228695 
L 226.843753 -192.815551 
L 223.270795 -189.461075 
L 221.375612 -185.665844 
L 215.176344 -189.462212 
L 212.911234 -187.628209 
L 208.019814 -188.269167 
L 202.551673 -185.99342 
L 199.555437 -187.696366 
L 196.352405 -188.586681 
L 189.195875 -186.357437 
L 180.731497 -188.140227 
L 175.840078 -188.485511 
L 170.371936 -184.636682 
L 164.172668 -192.283786 
L 157.016139 -186.637062 
L 148.551761 -190.978363 
L 138.1922 -184.803318 
L 124.836403 -186.813774 
L 106.012464 -187.153902 
L 73.832727 -190.658575 
z
" style="stroke: #ff7f0e; stroke-opacity: 0.2"/>
    </defs>
    <g clip-path="url(#pa102c3358b)">
     <use xlink:href="#md73fd9e831" x="0" y="345.6" style="fill: #ff7f0e; fill-opacity: 0.2; stroke: #ff7f0e; stroke-opacity: 0.2"/>
    </g>
   </g>
   <g id="matplotlib.axis_1">
    <g id="xtick_1">
     <g id="line2d_1">
      <defs>
       <path id="mc5e5042bfb" d="M 0 0 
L 0 3.5 
" style="stroke: #000000; stroke-width: 0.8"/>
      </defs>
      <g>
       <use xlink:href="#mc5e5042bfb" x="104.911411" y="307.584" style="stroke: #000000; stroke-width: 0.8"/>
      </g>
     </g>
     <g id="text_1">
      <!-- $\mathdefault{10^{3}}$ -->
      <g transform="translate(96.111411 322.182437)scale(0.1 -0.1)">
       <defs>
        <path id="DejaVuSans-31" d="M 794 531 
L 1825 531 
L 1825 4091 
L 703 3866 
L 703 4441 
L 1819 4666 
L 2450 4666 
L 2450 531 
L 3481 531 
L 3481 0 
L 794 0 
L 794 531 
z
" transform="scale(0.015625)"/>
        <path id="DejaVuSans-30" d="M 2034 4250 
Q 1547 4250 1301 3770 
Q 1056 3291 1056 2328 
Q 1056 1369 1301 889 
Q 1547 409 2034 409 
Q 2525 409 2770 889 
Q 3016 1369 3016 2328 
Q 3016 3291 2770 3770 
Q 2525 4250 2034 4250 
z
M 2034 4750 
Q 2819 4750 3233 4129 
Q 3647 3509 3647 2328 
Q 3647 1150 3233 529 
Q 2819 -91 2034 -91 
Q 1250 -91 836 529 
Q 422 1150 422 2328 
Q 422 3509 836 4129 
Q 1250 4750 2034 4750 
z
" transform="scale(0.015625)"/>
        <path id="DejaVuSans-33" d="M 2597 2516 
Q 3050 2419 3304 2112 
Q 3559 1806 3559 1356 
Q 3559 666 3084 287 
Q 2609 -91 1734 -91 
Q 1441 -91 1130 -33 
Q 819 25 488 141 
L 488 750 
Q 750 597 1062 519 
Q 1375 441 1716 441 
Q 2309 441 2620 675 
Q 2931 909 2931 1356 
Q 2931 1769 2642 2001 
Q 2353 2234 1838 2234 
L 1294 2234 
L 1294 2753 
L 1863 2753 
Q 2328 2753 2575 2939 
Q 2822 3125 2822 3475 
Q 2822 3834 2567 4026 
Q 2313 4219 1838 4219 
Q 1578 4219 1281 4162 
Q 984 4106 628 3988 
L 628 4550 
Q 988 4650 1302 4700 
Q 1616 4750 1894 4750 
Q 2613 4750 3031 4423 
Q 3450 4097 3450 3541 
Q 3450 3153 3228 2886 
Q 3006 2619 2597 2516 
z
" transform="scale(0.015625)"/>
       </defs>
       <use xlink:href="#DejaVuSans-31" transform="translate(0 0.765625)"/>
       <use xlink:href="#DejaVuSans-30" transform="translate(63.623047 0.765625)"/>
       <use xlink:href="#DejaVuSans-33" transform="translate(128.203125 39.046875)scale(0.7)"/>
      </g>
     </g>
    </g>
    <g id="xtick_2">
     <g id="line2d_2">
      <g>
       <use xlink:href="#mc5e5042bfb" x="211.810181" y="307.584" style="stroke: #000000; stroke-width: 0.8"/>
      </g>
     </g>
     <g id="text_2">
      <!-- $\mathdefault{10^{4}}$ -->
      <g transform="translate(203.010181 322.182437)scale(0.1 -0.1)">
       <defs>
        <path id="DejaVuSans-34" d="M 2419 4116 
L 825 1625 
L 2419 1625 
L 2419 4116 
z
M 2253 4666 
L 3047 4666 
L 3047 1625 
L 3713 1625 
L 3713 1100 
L 3047 1100 
L 3047 0 
L 2419 0 
L 2419 1100 
L 313 1100 
L 313 1709 
L 2253 4666 
z
" transform="scale(0.015625)"/>
       </defs>
       <use xlink:href="#DejaVuSans-31" transform="translate(0 0.684375)"/>
       <use xlink:href="#DejaVuSans-30" transform="translate(63.623047 0.684375)"/>
       <use xlink:href="#DejaVuSans-34" transform="translate(128.203125 38.965625)scale(0.7)"/>
      </g>
     </g>
    </g>
    <g id="xtick_3">
     <g id="line2d_3">
      <g>
       <use xlink:href="#mc5e5042bfb" x="318.708951" y="307.584" style="stroke: #000000; stroke-width: 0.8"/>
      </g>
     </g>
     <g id="text_3">
      <!-- $\mathdefault{10^{5}}$ -->
      <g transform="translate(309.908951 322.182437)scale(0.1 -0.1)">
       <defs>
        <path id="DejaVuSans-35" d="M 691 4666 
L 3169 4666 
L 3169 4134 
L 1269 4134 
L 1269 2991 
Q 1406 3038 1543 3061 
Q 1681 3084 1819 3084 
Q 2600 3084 3056 2656 
Q 3513 2228 3513 1497 
Q 3513 744 3044 326 
Q 2575 -91 1722 -91 
Q 1428 -91 1123 -41 
Q 819 9 494 109 
L 494 744 
Q 775 591 1075 516 
Q 1375 441 1709 441 
Q 2250 441 2565 725 
Q 2881 1009 2881 1497 
Q 2881 1984 2565 2268 
Q 2250 2553 1709 2553 
Q 1456 2553 1204 2497 
Q 953 2441 691 2322 
L 691 4666 
z
" transform="scale(0.015625)"/>
       </defs>
       <use xlink:href="#DejaVuSans-31" transform="translate(0 0.684375)"/>
       <use xlink:href="#DejaVuSans-30" transform="translate(63.623047 0.684375)"/>
       <use xlink:href="#DejaVuSans-35" transform="translate(128.203125 38.965625)scale(0.7)"/>
      </g>
     </g>
    </g>
    <g id="xtick_4">
     <g id="line2d_4">
      <defs>
       <path id="m131781708c" d="M 0 0 
L 0 2 
" style="stroke: #000000; stroke-width: 0.6"/>
      </defs>
      <g>
       <use xlink:href="#m131781708c" x="62.372113" y="307.584" style="stroke: #000000; stroke-width: 0.6"/>
      </g>
     </g>
    </g>
    <g id="xtick_5">
     <g id="line2d_5">
      <g>
       <use xlink:href="#m131781708c" x="72.731675" y="307.584" style="stroke: #000000; stroke-width: 0.6"/>
      </g>
     </g>
    </g>
    <g id="xtick_6">
     <g id="line2d_6">
      <g>
       <use xlink:href="#m131781708c" x="81.196052" y="307.584" style="stroke: #000000; stroke-width: 0.6"/>
      </g>
     </g>
    </g>
    <g id="xtick_7">
     <g id="line2d_7">
      <g>
       <use xlink:href="#m131781708c" x="88.352582" y="307.584" style="stroke: #000000; stroke-width: 0.6"/>
      </g>
     </g>
    </g>
    <g id="xtick_8">
     <g id="line2d_8">
      <g>
       <use xlink:href="#m131781708c" x="94.55185" y="307.584" style="stroke: #000000; stroke-width: 0.6"/>
      </g>
     </g>
    </g>
    <g id="xtick_9">
     <g id="line2d_9">
      <g>
       <use xlink:href="#m131781708c" x="100.019991" y="307.584" style="stroke: #000000; stroke-width: 0.6"/>
      </g>
     </g>
    </g>
    <g id="xtick_10">
     <g id="line2d_10">
      <g>
       <use xlink:href="#m131781708c" x="137.091147" y="307.584" style="stroke: #000000; stroke-width: 0.6"/>
      </g>
     </g>
    </g>
    <g id="xtick_11">
     <g id="line2d_11">
      <g>
       <use xlink:href="#m131781708c" x="155.915086" y="307.584" style="stroke: #000000; stroke-width: 0.6"/>
      </g>
     </g>
    </g>
    <g id="xtick_12">
     <g id="line2d_12">
      <g>
       <use xlink:href="#m131781708c" x="169.270884" y="307.584" style="stroke: #000000; stroke-width: 0.6"/>
      </g>
     </g>
    </g>
    <g id="xtick_13">
     <g id="line2d_13">
      <g>
       <use xlink:href="#m131781708c" x="179.630445" y="307.584" style="stroke: #000000; stroke-width: 0.6"/>
      </g>
     </g>
    </g>
    <g id="xtick_14">
     <g id="line2d_14">
      <g>
       <use xlink:href="#m131781708c" x="188.094823" y="307.584" style="stroke: #000000; stroke-width: 0.6"/>
      </g>
     </g>
    </g>
    <g id="xtick_15">
     <g id="line2d_15">
      <g>
       <use xlink:href="#m131781708c" x="195.251352" y="307.584" style="stroke: #000000; stroke-width: 0.6"/>
      </g>
     </g>
    </g>
    <g id="xtick_16">
     <g id="line2d_16">
      <g>
       <use xlink:href="#m131781708c" x="201.45062" y="307.584" style="stroke: #000000; stroke-width: 0.6"/>
      </g>
     </g>
    </g>
    <g id="xtick_17">
     <g id="line2d_17">
      <g>
       <use xlink:href="#m131781708c" x="206.918762" y="307.584" style="stroke: #000000; stroke-width: 0.6"/>
      </g>
     </g>
    </g>
    <g id="xtick_18">
     <g id="line2d_18">
      <g>
       <use xlink:href="#m131781708c" x="243.989917" y="307.584" style="stroke: #000000; stroke-width: 0.6"/>
      </g>
     </g>
    </g>
    <g id="xtick_19">
     <g id="line2d_19">
      <g>
       <use xlink:href="#m131781708c" x="262.813856" y="307.584" style="stroke: #000000; stroke-width: 0.6"/>
      </g>
     </g>
    </g>
    <g id="xtick_20">
     <g id="line2d_20">
      <g>
       <use xlink:href="#m131781708c" x="276.169654" y="307.584" style="stroke: #000000; stroke-width: 0.6"/>
      </g>
     </g>
    </g>
    <g id="xtick_21">
     <g id="line2d_21">
      <g>
       <use xlink:href="#m131781708c" x="286.529215" y="307.584" style="stroke: #000000; stroke-width: 0.6"/>
      </g>
     </g>
    </g>
    <g id="xtick_22">
     <g id="line2d_22">
      <g>
       <use xlink:href="#m131781708c" x="294.993593" y="307.584" style="stroke: #000000; stroke-width: 0.6"/>
      </g>
     </g>
    </g>
    <g id="xtick_23">
     <g id="line2d_23">
      <g>
       <use xlink:href="#m131781708c" x="302.150122" y="307.584" style="stroke: #000000; stroke-width: 0.6"/>
      </g>
     </g>
    </g>
    <g id="xtick_24">
     <g id="line2d_24">
      <g>
       <use xlink:href="#m131781708c" x="308.34939" y="307.584" style="stroke: #000000; stroke-width: 0.6"/>
      </g>
     </g>
    </g>
    <g id="xtick_25">
     <g id="line2d_25">
      <g>
       <use xlink:href="#m131781708c" x="313.817532" y="307.584" style="stroke: #000000; stroke-width: 0.6"/>
      </g>
     </g>
    </g>
    <g id="xtick_26">
     <g id="line2d_26">
      <g>
       <use xlink:href="#m131781708c" x="350.888688" y="307.584" style="stroke: #000000; stroke-width: 0.6"/>
      </g>
     </g>
    </g>
    <g id="xtick_27">
     <g id="line2d_27">
      <g>
       <use xlink:href="#m131781708c" x="369.712627" y="307.584" style="stroke: #000000; stroke-width: 0.6"/>
      </g>
     </g>
    </g>
    <g id="xtick_28">
     <g id="line2d_28">
      <g>
       <use xlink:href="#m131781708c" x="383.068424" y="307.584" style="stroke: #000000; stroke-width: 0.6"/>
      </g>
     </g>
    </g>
    <g id="xtick_29">
     <g id="line2d_29">
      <g>
       <use xlink:href="#m131781708c" x="393.427985" y="307.584" style="stroke: #000000; stroke-width: 0.6"/>
      </g>
     </g>
    </g>
    <g id="xtick_30">
     <g id="line2d_30">
      <g>
       <use xlink:href="#m131781708c" x="401.892363" y="307.584" style="stroke: #000000; stroke-width: 0.6"/>
      </g>
     </g>
    </g>
    <g id="xtick_31">
     <g id="line2d_31">
      <g>
       <use xlink:href="#m131781708c" x="409.048893" y="307.584" style="stroke: #000000; stroke-width: 0.6"/>
      </g>
     </g>
    </g>
    <g id="text_4">
     <!-- Problem Size -->
     <g transform="translate(203.867031 335.860562)scale(0.1 -0.1)">
      <defs>
       <path id="DejaVuSans-50" d="M 1259 4147 
L 1259 2394 
L 2053 2394 
Q 2494 2394 2734 2622 
Q 2975 2850 2975 3272 
Q 2975 3691 2734 3919 
Q 2494 4147 2053 4147 
L 1259 4147 
z
M 628 4666 
L 2053 4666 
Q 2838 4666 3239 4311 
Q 3641 3956 3641 3272 
Q 3641 2581 3239 2228 
Q 2838 1875 2053 1875 
L 1259 1875 
L 1259 0 
L 628 0 
L 628 4666 
z
" transform="scale(0.015625)"/>
       <path id="DejaVuSans-72" d="M 2631 2963 
Q 2534 3019 2420 3045 
Q 2306 3072 2169 3072 
Q 1681 3072 1420 2755 
Q 1159 2438 1159 1844 
L 1159 0 
L 581 0 
L 581 3500 
L 1159 3500 
L 1159 2956 
Q 1341 3275 1631 3429 
Q 1922 3584 2338 3584 
Q 2397 3584 2469 3576 
Q 2541 3569 2628 3553 
L 2631 2963 
z
" transform="scale(0.015625)"/>
       <path id="DejaVuSans-6f" d="M 1959 3097 
Q 1497 3097 1228 2736 
Q 959 2375 959 1747 
Q 959 1119 1226 758 
Q 1494 397 1959 397 
Q 2419 397 2687 759 
Q 2956 1122 2956 1747 
Q 2956 2369 2687 2733 
Q 2419 3097 1959 3097 
z
M 1959 3584 
Q 2709 3584 3137 3096 
Q 3566 2609 3566 1747 
Q 3566 888 3137 398 
Q 2709 -91 1959 -91 
Q 1206 -91 779 398 
Q 353 888 353 1747 
Q 353 2609 779 3096 
Q 1206 3584 1959 3584 
z
" transform="scale(0.015625)"/>
       <path id="DejaVuSans-62" d="M 3116 1747 
Q 3116 2381 2855 2742 
Q 2594 3103 2138 3103 
Q 1681 3103 1420 2742 
Q 1159 2381 1159 1747 
Q 1159 1113 1420 752 
Q 1681 391 2138 391 
Q 2594 391 2855 752 
Q 3116 1113 3116 1747 
z
M 1159 2969 
Q 1341 3281 1617 3432 
Q 1894 3584 2278 3584 
Q 2916 3584 3314 3078 
Q 3713 2572 3713 1747 
Q 3713 922 3314 415 
Q 2916 -91 2278 -91 
Q 1894 -91 1617 61 
Q 1341 213 1159 525 
L 1159 0 
L 581 0 
L 581 4863 
L 1159 4863 
L 1159 2969 
z
" transform="scale(0.015625)"/>
       <path id="DejaVuSans-6c" d="M 603 4863 
L 1178 4863 
L 1178 0 
L 603 0 
L 603 4863 
z
" transform="scale(0.015625)"/>
       <path id="DejaVuSans-65" d="M 3597 1894 
L 3597 1613 
L 953 1613 
Q 991 1019 1311 708 
Q 1631 397 2203 397 
Q 2534 397 2845 478 
Q 3156 559 3463 722 
L 3463 178 
Q 3153 47 2828 -22 
Q 2503 -91 2169 -91 
Q 1331 -91 842 396 
Q 353 884 353 1716 
Q 353 2575 817 3079 
Q 1281 3584 2069 3584 
Q 2775 3584 3186 3129 
Q 3597 2675 3597 1894 
z
M 3022 2063 
Q 3016 2534 2758 2815 
Q 2500 3097 2075 3097 
Q 1594 3097 1305 2825 
Q 1016 2553 972 2059 
L 3022 2063 
z
" transform="scale(0.015625)"/>
       <path id="DejaVuSans-6d" d="M 3328 2828 
Q 3544 3216 3844 3400 
Q 4144 3584 4550 3584 
Q 5097 3584 5394 3201 
Q 5691 2819 5691 2113 
L 5691 0 
L 5113 0 
L 5113 2094 
Q 5113 2597 4934 2840 
Q 4756 3084 4391 3084 
Q 3944 3084 3684 2787 
Q 3425 2491 3425 1978 
L 3425 0 
L 2847 0 
L 2847 2094 
Q 2847 2600 2669 2842 
Q 2491 3084 2119 3084 
Q 1678 3084 1418 2786 
Q 1159 2488 1159 1978 
L 1159 0 
L 581 0 
L 581 3500 
L 1159 3500 
L 1159 2956 
Q 1356 3278 1631 3431 
Q 1906 3584 2284 3584 
Q 2666 3584 2933 3390 
Q 3200 3197 3328 2828 
z
" transform="scale(0.015625)"/>
       <path id="DejaVuSans-20" transform="scale(0.015625)"/>
       <path id="DejaVuSans-53" d="M 3425 4513 
L 3425 3897 
Q 3066 4069 2747 4153 
Q 2428 4238 2131 4238 
Q 1616 4238 1336 4038 
Q 1056 3838 1056 3469 
Q 1056 3159 1242 3001 
Q 1428 2844 1947 2747 
L 2328 2669 
Q 3034 2534 3370 2195 
Q 3706 1856 3706 1288 
Q 3706 609 3251 259 
Q 2797 -91 1919 -91 
Q 1588 -91 1214 -16 
Q 841 59 441 206 
L 441 856 
Q 825 641 1194 531 
Q 1563 422 1919 422 
Q 2459 422 2753 634 
Q 3047 847 3047 1241 
Q 3047 1584 2836 1778 
Q 2625 1972 2144 2069 
L 1759 2144 
Q 1053 2284 737 2584 
Q 422 2884 422 3419 
Q 422 4038 858 4394 
Q 1294 4750 2059 4750 
Q 2388 4750 2728 4690 
Q 3069 4631 3425 4513 
z
" transform="scale(0.015625)"/>
       <path id="DejaVuSans-69" d="M 603 3500 
L 1178 3500 
L 1178 0 
L 603 0 
L 603 3500 
z
M 603 4863 
L 1178 4863 
L 1178 4134 
L 603 4134 
L 603 4863 
z
" transform="scale(0.015625)"/>
       <path id="DejaVuSans-7a" d="M 353 3500 
L 3084 3500 
L 3084 2975 
L 922 459 
L 3084 459 
L 3084 0 
L 275 0 
L 275 525 
L 2438 3041 
L 353 3041 
L 353 3500 
z
" transform="scale(0.015625)"/>
      </defs>
      <use xlink:href="#DejaVuSans-50"/>
      <use xlink:href="#DejaVuSans-72" x="58.552734"/>
      <use xlink:href="#DejaVuSans-6f" x="97.416016"/>
      <use xlink:href="#DejaVuSans-62" x="158.597656"/>
      <use xlink:href="#DejaVuSans-6c" x="222.074219"/>
      <use xlink:href="#DejaVuSans-65" x="249.857422"/>
      <use xlink:href="#DejaVuSans-6d" x="311.380859"/>
      <use xlink:href="#DejaVuSans-20" x="408.792969"/>
      <use xlink:href="#DejaVuSans-53" x="440.580078"/>
      <use xlink:href="#DejaVuSans-69" x="504.056641"/>
      <use xlink:href="#DejaVuSans-7a" x="531.839844"/>
      <use xlink:href="#DejaVuSans-65" x="584.330078"/>
     </g>
    </g>
   </g>
   <g id="matplotlib.axis_2">
    <g id="ytick_1">
     <g id="line2d_32">
      <defs>
       <path id="m677dd90531" d="M 0 0 
L -3.5 0 
" style="stroke: #000000; stroke-width: 0.8"/>
      </defs>
      <g>
       <use xlink:href="#m677dd90531" x="57.6" y="273.996363" style="stroke: #000000; stroke-width: 0.8"/>
      </g>
     </g>
     <g id="text_5">
      <!-- $\mathdefault{10^{-1}}$ -->
      <g transform="translate(27.1 277.795582)scale(0.1 -0.1)">
       <defs>
        <path id="DejaVuSans-2212" d="M 678 2272 
L 4684 2272 
L 4684 1741 
L 678 1741 
L 678 2272 
z
" transform="scale(0.015625)"/>
       </defs>
       <use xlink:href="#DejaVuSans-31" transform="translate(0 0.684375)"/>
       <use xlink:href="#DejaVuSans-30" transform="translate(63.623047 0.684375)"/>
       <use xlink:href="#DejaVuSans-2212" transform="translate(128.203125 38.965625)scale(0.7)"/>
       <use xlink:href="#DejaVuSans-31" transform="translate(186.855469 38.965625)scale(0.7)"/>
      </g>
     </g>
    </g>
    <g id="ytick_2">
     <g id="line2d_33">
      <g>
       <use xlink:href="#m677dd90531" x="57.6" y="200.658418" style="stroke: #000000; stroke-width: 0.8"/>
      </g>
     </g>
     <g id="text_6">
      <!-- $\mathdefault{10^{0}}$ -->
      <g transform="translate(33 204.457637)scale(0.1 -0.1)">
       <use xlink:href="#DejaVuSans-31" transform="translate(0 0.765625)"/>
       <use xlink:href="#DejaVuSans-30" transform="translate(63.623047 0.765625)"/>
       <use xlink:href="#DejaVuSans-30" transform="translate(128.203125 39.046875)scale(0.7)"/>
      </g>
     </g>
    </g>
    <g id="ytick_3">
     <g id="line2d_34">
      <g>
       <use xlink:href="#m677dd90531" x="57.6" y="127.320474" style="stroke: #000000; stroke-width: 0.8"/>
      </g>
     </g>
     <g id="text_7">
      <!-- $\mathdefault{10^{1}}$ -->
      <g transform="translate(33 131.119693)scale(0.1 -0.1)">
       <use xlink:href="#DejaVuSans-31" transform="translate(0 0.684375)"/>
       <use xlink:href="#DejaVuSans-30" transform="translate(63.623047 0.684375)"/>
       <use xlink:href="#DejaVuSans-31" transform="translate(128.203125 38.965625)scale(0.7)"/>
      </g>
     </g>
    </g>
    <g id="ytick_4">
     <g id="line2d_35">
      <g>
       <use xlink:href="#m677dd90531" x="57.6" y="53.982529" style="stroke: #000000; stroke-width: 0.8"/>
      </g>
     </g>
     <g id="text_8">
      <!-- $\mathdefault{10^{2}}$ -->
      <g transform="translate(33 57.781748)scale(0.1 -0.1)">
       <defs>
        <path id="DejaVuSans-32" d="M 1228 531 
L 3431 531 
L 3431 0 
L 469 0 
L 469 531 
Q 828 903 1448 1529 
Q 2069 2156 2228 2338 
Q 2531 2678 2651 2914 
Q 2772 3150 2772 3378 
Q 2772 3750 2511 3984 
Q 2250 4219 1831 4219 
Q 1534 4219 1204 4116 
Q 875 4013 500 3803 
L 500 4441 
Q 881 4594 1212 4672 
Q 1544 4750 1819 4750 
Q 2544 4750 2975 4387 
Q 3406 4025 3406 3419 
Q 3406 3131 3298 2873 
Q 3191 2616 2906 2266 
Q 2828 2175 2409 1742 
Q 1991 1309 1228 531 
z
" transform="scale(0.015625)"/>
       </defs>
       <use xlink:href="#DejaVuSans-31" transform="translate(0 0.765625)"/>
       <use xlink:href="#DejaVuSans-30" transform="translate(63.623047 0.765625)"/>
       <use xlink:href="#DejaVuSans-32" transform="translate(128.203125 39.046875)scale(0.7)"/>
      </g>
     </g>
    </g>
    <g id="ytick_5">
     <g id="line2d_36">
      <defs>
       <path id="mc898f857e6" d="M 0 0 
L -2 0 
" style="stroke: #000000; stroke-width: 0.6"/>
      </defs>
      <g>
       <use xlink:href="#mc898f857e6" x="57.6" y="303.180465" style="stroke: #000000; stroke-width: 0.6"/>
      </g>
     </g>
    </g>
    <g id="ytick_6">
     <g id="line2d_37">
      <g>
       <use xlink:href="#mc898f857e6" x="57.6" y="296.073284" style="stroke: #000000; stroke-width: 0.6"/>
      </g>
     </g>
    </g>
    <g id="ytick_7">
     <g id="line2d_38">
      <g>
       <use xlink:href="#mc898f857e6" x="57.6" y="290.266294" style="stroke: #000000; stroke-width: 0.6"/>
      </g>
     </g>
    </g>
    <g id="ytick_8">
     <g id="line2d_39">
      <g>
       <use xlink:href="#mc898f857e6" x="57.6" y="285.356554" style="stroke: #000000; stroke-width: 0.6"/>
      </g>
     </g>
    </g>
    <g id="ytick_9">
     <g id="line2d_40">
      <g>
       <use xlink:href="#mc898f857e6" x="57.6" y="281.103544" style="stroke: #000000; stroke-width: 0.6"/>
      </g>
     </g>
    </g>
    <g id="ytick_10">
     <g id="line2d_41">
      <g>
       <use xlink:href="#mc898f857e6" x="57.6" y="277.352123" style="stroke: #000000; stroke-width: 0.6"/>
      </g>
     </g>
    </g>
    <g id="ytick_11">
     <g id="line2d_42">
      <g>
       <use xlink:href="#mc898f857e6" x="57.6" y="251.919442" style="stroke: #000000; stroke-width: 0.6"/>
      </g>
     </g>
    </g>
    <g id="ytick_12">
     <g id="line2d_43">
      <g>
       <use xlink:href="#mc898f857e6" x="57.6" y="239.005271" style="stroke: #000000; stroke-width: 0.6"/>
      </g>
     </g>
    </g>
    <g id="ytick_13">
     <g id="line2d_44">
      <g>
       <use xlink:href="#mc898f857e6" x="57.6" y="229.842521" style="stroke: #000000; stroke-width: 0.6"/>
      </g>
     </g>
    </g>
    <g id="ytick_14">
     <g id="line2d_45">
      <g>
       <use xlink:href="#mc898f857e6" x="57.6" y="222.73534" style="stroke: #000000; stroke-width: 0.6"/>
      </g>
     </g>
    </g>
    <g id="ytick_15">
     <g id="line2d_46">
      <g>
       <use xlink:href="#mc898f857e6" x="57.6" y="216.92835" style="stroke: #000000; stroke-width: 0.6"/>
      </g>
     </g>
    </g>
    <g id="ytick_16">
     <g id="line2d_47">
      <g>
       <use xlink:href="#mc898f857e6" x="57.6" y="212.01861" style="stroke: #000000; stroke-width: 0.6"/>
      </g>
     </g>
    </g>
    <g id="ytick_17">
     <g id="line2d_48">
      <g>
       <use xlink:href="#mc898f857e6" x="57.6" y="207.7656" style="stroke: #000000; stroke-width: 0.6"/>
      </g>
     </g>
    </g>
    <g id="ytick_18">
     <g id="line2d_49">
      <g>
       <use xlink:href="#mc898f857e6" x="57.6" y="204.014179" style="stroke: #000000; stroke-width: 0.6"/>
      </g>
     </g>
    </g>
    <g id="ytick_19">
     <g id="line2d_50">
      <g>
       <use xlink:href="#mc898f857e6" x="57.6" y="178.581497" style="stroke: #000000; stroke-width: 0.6"/>
      </g>
     </g>
    </g>
    <g id="ytick_20">
     <g id="line2d_51">
      <g>
       <use xlink:href="#mc898f857e6" x="57.6" y="165.667326" style="stroke: #000000; stroke-width: 0.6"/>
      </g>
     </g>
    </g>
    <g id="ytick_21">
     <g id="line2d_52">
      <g>
       <use xlink:href="#mc898f857e6" x="57.6" y="156.504576" style="stroke: #000000; stroke-width: 0.6"/>
      </g>
     </g>
    </g>
    <g id="ytick_22">
     <g id="line2d_53">
      <g>
       <use xlink:href="#mc898f857e6" x="57.6" y="149.397395" style="stroke: #000000; stroke-width: 0.6"/>
      </g>
     </g>
    </g>
    <g id="ytick_23">
     <g id="line2d_54">
      <g>
       <use xlink:href="#mc898f857e6" x="57.6" y="143.590405" style="stroke: #000000; stroke-width: 0.6"/>
      </g>
     </g>
    </g>
    <g id="ytick_24">
     <g id="line2d_55">
      <g>
       <use xlink:href="#mc898f857e6" x="57.6" y="138.680665" style="stroke: #000000; stroke-width: 0.6"/>
      </g>
     </g>
    </g>
    <g id="ytick_25">
     <g id="line2d_56">
      <g>
       <use xlink:href="#mc898f857e6" x="57.6" y="134.427655" style="stroke: #000000; stroke-width: 0.6"/>
      </g>
     </g>
    </g>
    <g id="ytick_26">
     <g id="line2d_57">
      <g>
       <use xlink:href="#mc898f857e6" x="57.6" y="130.676234" style="stroke: #000000; stroke-width: 0.6"/>
      </g>
     </g>
    </g>
    <g id="ytick_27">
     <g id="line2d_58">
      <g>
       <use xlink:href="#mc898f857e6" x="57.6" y="105.243553" style="stroke: #000000; stroke-width: 0.6"/>
      </g>
     </g>
    </g>
    <g id="ytick_28">
     <g id="line2d_59">
      <g>
       <use xlink:href="#mc898f857e6" x="57.6" y="92.329382" style="stroke: #000000; stroke-width: 0.6"/>
      </g>
     </g>
    </g>
    <g id="ytick_29">
     <g id="line2d_60">
      <g>
       <use xlink:href="#mc898f857e6" x="57.6" y="83.166632" style="stroke: #000000; stroke-width: 0.6"/>
      </g>
     </g>
    </g>
    <g id="ytick_30">
     <g id="line2d_61">
      <g>
       <use xlink:href="#mc898f857e6" x="57.6" y="76.05945" style="stroke: #000000; stroke-width: 0.6"/>
      </g>
     </g>
    </g>
    <g id="ytick_31">
     <g id="line2d_62">
      <g>
       <use xlink:href="#mc898f857e6" x="57.6" y="70.252461" style="stroke: #000000; stroke-width: 0.6"/>
      </g>
     </g>
    </g>
    <g id="ytick_32">
     <g id="line2d_63">
      <g>
       <use xlink:href="#mc898f857e6" x="57.6" y="65.342721" style="stroke: #000000; stroke-width: 0.6"/>
      </g>
     </g>
    </g>
    <g id="ytick_33">
     <g id="line2d_64">
      <g>
       <use xlink:href="#mc898f857e6" x="57.6" y="61.08971" style="stroke: #000000; stroke-width: 0.6"/>
      </g>
     </g>
    </g>
    <g id="ytick_34">
     <g id="line2d_65">
      <g>
       <use xlink:href="#mc898f857e6" x="57.6" y="57.33829" style="stroke: #000000; stroke-width: 0.6"/>
      </g>
     </g>
    </g>
    <g id="text_9">
     <!-- GFLOPS -->
     <g transform="translate(21.020312 194.007688)rotate(-90)scale(0.1 -0.1)">
      <defs>
       <path id="DejaVuSans-47" d="M 3809 666 
L 3809 1919 
L 2778 1919 
L 2778 2438 
L 4434 2438 
L 4434 434 
Q 4069 175 3628 42 
Q 3188 -91 2688 -91 
Q 1594 -91 976 548 
Q 359 1188 359 2328 
Q 359 3472 976 4111 
Q 1594 4750 2688 4750 
Q 3144 4750 3555 4637 
Q 3966 4525 4313 4306 
L 4313 3634 
Q 3963 3931 3569 4081 
Q 3175 4231 2741 4231 
Q 1884 4231 1454 3753 
Q 1025 3275 1025 2328 
Q 1025 1384 1454 906 
Q 1884 428 2741 428 
Q 3075 428 3337 486 
Q 3600 544 3809 666 
z
" transform="scale(0.015625)"/>
       <path id="DejaVuSans-46" d="M 628 4666 
L 3309 4666 
L 3309 4134 
L 1259 4134 
L 1259 2759 
L 3109 2759 
L 3109 2228 
L 1259 2228 
L 1259 0 
L 628 0 
L 628 4666 
z
" transform="scale(0.015625)"/>
       <path id="DejaVuSans-4c" d="M 628 4666 
L 1259 4666 
L 1259 531 
L 3531 531 
L 3531 0 
L 628 0 
L 628 4666 
z
" transform="scale(0.015625)"/>
       <path id="DejaVuSans-4f" d="M 2522 4238 
Q 1834 4238 1429 3725 
Q 1025 3213 1025 2328 
Q 1025 1447 1429 934 
Q 1834 422 2522 422 
Q 3209 422 3611 934 
Q 4013 1447 4013 2328 
Q 4013 3213 3611 3725 
Q 3209 4238 2522 4238 
z
M 2522 4750 
Q 3503 4750 4090 4092 
Q 4678 3434 4678 2328 
Q 4678 1225 4090 567 
Q 3503 -91 2522 -91 
Q 1538 -91 948 565 
Q 359 1222 359 2328 
Q 359 3434 948 4092 
Q 1538 4750 2522 4750 
z
" transform="scale(0.015625)"/>
      </defs>
      <use xlink:href="#DejaVuSans-47"/>
      <use xlink:href="#DejaVuSans-46" x="77.490234"/>
      <use xlink:href="#DejaVuSans-4c" x="135.009766"/>
      <use xlink:href="#DejaVuSans-4f" x="187.097656"/>
      <use xlink:href="#DejaVuSans-50" x="265.808594"/>
      <use xlink:href="#DejaVuSans-53" x="326.111328"/>
     </g>
    </g>
   </g>
   <g id="line2d_66">
    <path d="M 73.832727 175.143228 
L 106.012464 187.890315 
L 124.836403 171.794937 
L 138.1922 162.665153 
L 148.551761 154.743788 
L 157.016139 156.957216 
L 164.172668 157.675673 
L 170.371936 160.495114 
L 180.731497 154.446332 
L 189.195875 154.446191 
L 196.352405 145.008289 
L 202.551673 145.621909 
L 208.019814 147.35197 
L 212.911234 138.918093 
L 221.375612 138.097355 
L 228.532141 130.007477 
L 231.735173 123.94927 
L 234.731409 132.068352 
L 240.199551 132.635674 
L 245.09097 127.389764 
L 247.35608 115.69131 
L 249.515797 132.356799 
L 253.555348 124.129145 
L 260.711877 111.407887 
L 263.914909 124.008404 
L 266.911145 112.026029 
L 272.379287 122.269657 
L 277.270706 117.900914 
L 279.535817 118.82036 
L 281.695534 110.841243 
L 285.735084 112.92293 
L 287.630268 117.183893 
L 291.203226 111.115634 
L 292.891614 104.406167 
L 296.094646 107.972102 
L 298.359756 104.913075 
L 299.090882 103.460445 
L 300.519473 102.89068 
L 303.251175 104.818493 
L 304.559023 102.932314 
L 309.450443 95.303258 
L 310.027165 98.751246 
L 311.715553 95.791635 
L 313.87527 99.71041 
L 314.918585 99.41775 
L 317.914821 93.915291 
L 319.810004 99.581279 
L 322.075114 89.972121 
L 323.382962 89.487677 
L 324.234831 87.521726 
L 325.07135 85.335136 
L 328.274382 84.958952 
L 330.539492 85.08668 
L 331.270618 79.671228 
L 332.699209 89.693387 
L 333.742524 90.256499 
L 335.430911 85.842963 
L 336.73876 81.202935 
L 337.696021 96.170108 
L 338.633943 80.963872 
L 341.630179 76.434837 
L 342.206901 78.762399 
L 343.895289 85.962421 
L 345.790473 92.018874 
L 346.055006 70.522391 
L 347.098321 77.418646 
L 349.363431 80.570856 
L 350.094557 71.354977 
L 351.051819 73.712554 
L 351.523148 88.970787 
L 351.98974 77.009331 
L 354.25485 75.720295 
L 355.562699 70.047106 
L 356.414568 67.725186 
L 357.251086 66.92553 
L 357.457882 71.659163 
L 358.679678 82.316063 
L 360.454118 67.805249 
L 361.03084 68.901655 
L 361.41138 80.98974 
L 362.719228 67.924718 
L 363.450354 74.305112 
L 364.878945 72.006838 
L 365.92226 74.385717 
L 367.610648 68.332427 
L 368.918496 61.73173 
L 370.347087 65.401106 
L 370.813679 64.682128 
L 372.035475 63.940205 
L 373.078789 63.997708 
L 373.809915 57.632293 
L 374.386638 74.12866 
L 375.238507 63.458523 
L 377.970209 61.379267 
L 378.234743 66.750351 
L 379.278057 67.150585 
L 382.395036 59.693933 
L 383.702884 59.6385 
L 384.169477 56.07192 
L 384.746199 57.915808 
L 388.594304 53.568 
L 389.637618 66.827104 
L 394.062446 53.698737 
" clip-path="url(#pa102c3358b)" style="fill: none; stroke: #1f77b4; stroke-width: 1.5; stroke-linecap: square"/>
   </g>
   <g id="line2d_67">
    <path d="M 73.832727 164.708487 
L 106.012464 163.888763 
L 124.836403 164.660118 
L 138.1922 164.763094 
L 148.551761 159.796942 
L 157.016139 162.413083 
L 164.172668 158.651861 
L 170.371936 163.884988 
L 180.731497 161.270388 
L 189.195875 161.759582 
L 196.352405 160.360894 
L 199.555437 162.130713 
L 202.551673 162.243351 
L 208.019814 160.529659 
L 212.911234 160.952025 
L 215.176344 159.953629 
L 221.375612 161.87954 
L 223.270795 161.174928 
L 226.843753 161.684982 
L 228.532141 161.308431 
L 231.735173 161.175496 
L 234.731409 162.854227 
L 238.891702 163.459341 
L 240.199551 162.082557 
L 245.09097 162.685348 
L 247.35608 162.107869 
L 249.515797 161.090785 
L 250.559112 162.696805 
L 253.555348 163.243258 
L 254.51261 165.447143 
L 255.450531 161.1847 
L 259.02349 162.384999 
L 260.711877 164.917593 
L 263.914909 162.770393 
L 266.180019 161.733777 
L 266.911145 165.00813 
L 268.339736 163.777567 
L 271.071439 163.07314 
L 272.379287 165.272647 
L 274.27447 165.326221 
L 277.270706 165.754373 
L 277.847429 167.081377 
L 279.535817 164.613011 
L 281.695534 167.438208 
L 282.738848 166.614911 
L 285.735084 167.784372 
L 286.692346 167.253361 
L 287.163675 166.168764 
L 287.630268 166.722356 
L 289.895378 166.57043 
L 291.203226 167.668143 
L 292.055095 167.550704 
L 292.891614 167.864437 
L 296.094646 168.892912 
L 297.989829 173.580435 
L 298.359756 168.8921 
L 299.090882 170.674329 
L 300.519473 170.023164 
L 301.562787 170.322193 
L 303.251175 170.081458 
L 304.559023 171.462028 
L 305.516285 169.462292 
L 306.454207 170.084611 
L 307.676002 170.678441 
L 309.450443 172.602407 
L 310.027165 171.715056 
L 310.879034 170.635487 
L 311.715553 170.46993 
L 313.610736 170.743118 
L 313.87527 172.684697 
L 314.918585 171.205302 
L 317.183695 172.555289 
L 317.914821 172.783 
L 318.872082 171.206781 
L 319.343412 172.817275 
L 319.810004 171.755328 
L 322.075114 171.518501 
L 323.382962 172.771425 
L 324.234831 172.600377 
L 325.07135 172.038851 
L 325.278146 172.258402 
L 326.499941 173.179333 
L 328.274382 172.263286 
L 328.659658 173.441307 
L 328.851104 174.674874 
L 329.231644 172.691396 
L 330.169565 172.137848 
L 330.539492 172.371228 
L 331.270618 174.04075 
L 332.699209 173.859287 
L 333.742524 173.079415 
L 334.594392 172.046267 
L 335.430911 173.104545 
L 337.696021 174.257712 
L 338.167351 173.676641 
L 338.633943 171.948221 
L 339.855738 172.971104 
L 340.899053 172.775439 
L 341.630179 173.212619 
L 342.206901 172.678117 
L 343.05877 172.141629 
L 343.895289 172.743726 
L 344.852551 172.13079 
L 345.790473 173.091078 
L 346.055006 173.949278 
L 347.098321 173.125481 
L 347.483597 174.258726 
L 349.363431 172.989739 
L 350.094557 174.156856 
L 350.2153 172.970039 
L 351.051819 174.275366 
L 351.523148 173.543493 
L 351.98974 172.413667 
L 352.566463 173.395546 
L 354.25485 172.64974 
L 355.562699 174.36336 
L 356.414568 173.860441 
L 356.51996 176.304936 
L 357.251086 174.550758 
L 357.457882 173.432015 
L 358.679678 172.712467 
L 360.454118 172.733298 
L 360.839395 174.856685 
L 361.03084 173.725437 
L 361.41138 174.137803 
L 361.882709 173.02564 
L 362.349302 170.718787 
L 362.719228 174.515393 
L 363.450354 177.58805 
L 364.878945 173.80036 
L 365.836207 174.332612 
L 365.92226 174.008583 
L 366.774129 172.394351 
L 367.610648 174.690265 
L 368.18737 177.045039 
L 368.918496 176.736732 
L 370.347087 172.803884 
L 370.813679 170.036126 
L 371.198956 171.012083 
L 372.035475 175.736961 
L 373.078789 175.609274 
L 373.809915 177.597956 
L 374.386638 176.616781 
L 375.238507 170.983077 
L 377.503617 175.422311 
L 377.970209 175.122931 
L 378.234743 176.069286 
L 379.278057 175.311391 
L 379.663334 170.109137 
L 379.85478 175.815995 
L 382.395036 175.476396 
L 383.702884 177.971503 
L 384.169477 175.415452 
L 384.746199 180.288131 
L 386.819863 175.141711 
L 388.594304 176.28528 
L 389.171026 176.468327 
L 389.637618 178.273623 
L 393.019131 179.358424 
L 394.062446 177.205562 
L 398.487273 177.764896 
L 398.487273 177.764896 
" clip-path="url(#pa102c3358b)" style="fill: none; stroke: #ff7f0e; stroke-width: 1.5; stroke-linecap: square"/>
   </g>
   <g id="line2d_68"/>
   <g id="line2d_69"/>
   <g id="patch_3">
    <path d="M 57.6 307.584 
L 57.6 41.472 
" style="fill: none; stroke: #000000; stroke-width: 0.8; stroke-linejoin: miter; stroke-linecap: square"/>
   </g>
   <g id="patch_4">
    <path d="M 414.72 307.584 
L 414.72 41.472 
" style="fill: none; stroke: #000000; stroke-width: 0.8; stroke-linejoin: miter; stroke-linecap: square"/>
   </g>
   <g id="patch_5">
    <path d="M 57.6 307.584 
L 414.72 307.584 
" style="fill: none; stroke: #000000; stroke-width: 0.8; stroke-linejoin: miter; stroke-linecap: square"/>
   </g>
   <g id="patch_6">
    <path d="M 57.6 41.472 
L 414.72 41.472 
" style="fill: none; stroke: #000000; stroke-width: 0.8; stroke-linejoin: miter; stroke-linecap: square"/>
   </g>
   <g id="text_10">
    <!-- Performance: CPU vs GPU -->
    <g transform="translate(158.865938 35.472)scale(0.12 -0.12)">
     <defs>
      <path id="DejaVuSans-66" d="M 2375 4863 
L 2375 4384 
L 1825 4384 
Q 1516 4384 1395 4259 
Q 1275 4134 1275 3809 
L 1275 3500 
L 2222 3500 
L 2222 3053 
L 1275 3053 
L 1275 0 
L 697 0 
L 697 3053 
L 147 3053 
L 147 3500 
L 697 3500 
L 697 3744 
Q 697 4328 969 4595 
Q 1241 4863 1831 4863 
L 2375 4863 
z
" transform="scale(0.015625)"/>
      <path id="DejaVuSans-61" d="M 2194 1759 
Q 1497 1759 1228 1600 
Q 959 1441 959 1056 
Q 959 750 1161 570 
Q 1363 391 1709 391 
Q 2188 391 2477 730 
Q 2766 1069 2766 1631 
L 2766 1759 
L 2194 1759 
z
M 3341 1997 
L 3341 0 
L 2766 0 
L 2766 531 
Q 2569 213 2275 61 
Q 1981 -91 1556 -91 
Q 1019 -91 701 211 
Q 384 513 384 1019 
Q 384 1609 779 1909 
Q 1175 2209 1959 2209 
L 2766 2209 
L 2766 2266 
Q 2766 2663 2505 2880 
Q 2244 3097 1772 3097 
Q 1472 3097 1187 3025 
Q 903 2953 641 2809 
L 641 3341 
Q 956 3463 1253 3523 
Q 1550 3584 1831 3584 
Q 2591 3584 2966 3190 
Q 3341 2797 3341 1997 
z
" transform="scale(0.015625)"/>
      <path id="DejaVuSans-6e" d="M 3513 2113 
L 3513 0 
L 2938 0 
L 2938 2094 
Q 2938 2591 2744 2837 
Q 2550 3084 2163 3084 
Q 1697 3084 1428 2787 
Q 1159 2491 1159 1978 
L 1159 0 
L 581 0 
L 581 3500 
L 1159 3500 
L 1159 2956 
Q 1366 3272 1645 3428 
Q 1925 3584 2291 3584 
Q 2894 3584 3203 3211 
Q 3513 2838 3513 2113 
z
" transform="scale(0.015625)"/>
      <path id="DejaVuSans-63" d="M 3122 3366 
L 3122 2828 
Q 2878 2963 2633 3030 
Q 2388 3097 2138 3097 
Q 1578 3097 1268 2742 
Q 959 2388 959 1747 
Q 959 1106 1268 751 
Q 1578 397 2138 397 
Q 2388 397 2633 464 
Q 2878 531 3122 666 
L 3122 134 
Q 2881 22 2623 -34 
Q 2366 -91 2075 -91 
Q 1284 -91 818 406 
Q 353 903 353 1747 
Q 353 2603 823 3093 
Q 1294 3584 2113 3584 
Q 2378 3584 2631 3529 
Q 2884 3475 3122 3366 
z
" transform="scale(0.015625)"/>
      <path id="DejaVuSans-3a" d="M 750 794 
L 1409 794 
L 1409 0 
L 750 0 
L 750 794 
z
M 750 3309 
L 1409 3309 
L 1409 2516 
L 750 2516 
L 750 3309 
z
" transform="scale(0.015625)"/>
      <path id="DejaVuSans-43" d="M 4122 4306 
L 4122 3641 
Q 3803 3938 3442 4084 
Q 3081 4231 2675 4231 
Q 1875 4231 1450 3742 
Q 1025 3253 1025 2328 
Q 1025 1406 1450 917 
Q 1875 428 2675 428 
Q 3081 428 3442 575 
Q 3803 722 4122 1019 
L 4122 359 
Q 3791 134 3420 21 
Q 3050 -91 2638 -91 
Q 1578 -91 968 557 
Q 359 1206 359 2328 
Q 359 3453 968 4101 
Q 1578 4750 2638 4750 
Q 3056 4750 3426 4639 
Q 3797 4528 4122 4306 
z
" transform="scale(0.015625)"/>
      <path id="DejaVuSans-55" d="M 556 4666 
L 1191 4666 
L 1191 1831 
Q 1191 1081 1462 751 
Q 1734 422 2344 422 
Q 2950 422 3222 751 
Q 3494 1081 3494 1831 
L 3494 4666 
L 4128 4666 
L 4128 1753 
Q 4128 841 3676 375 
Q 3225 -91 2344 -91 
Q 1459 -91 1007 375 
Q 556 841 556 1753 
L 556 4666 
z
" transform="scale(0.015625)"/>
      <path id="DejaVuSans-76" d="M 191 3500 
L 800 3500 
L 1894 563 
L 2988 3500 
L 3597 3500 
L 2284 0 
L 1503 0 
L 191 3500 
z
" transform="scale(0.015625)"/>
      <path id="DejaVuSans-73" d="M 2834 3397 
L 2834 2853 
Q 2591 2978 2328 3040 
Q 2066 3103 1784 3103 
Q 1356 3103 1142 2972 
Q 928 2841 928 2578 
Q 928 2378 1081 2264 
Q 1234 2150 1697 2047 
L 1894 2003 
Q 2506 1872 2764 1633 
Q 3022 1394 3022 966 
Q 3022 478 2636 193 
Q 2250 -91 1575 -91 
Q 1294 -91 989 -36 
Q 684 19 347 128 
L 347 722 
Q 666 556 975 473 
Q 1284 391 1588 391 
Q 1994 391 2212 530 
Q 2431 669 2431 922 
Q 2431 1156 2273 1281 
Q 2116 1406 1581 1522 
L 1381 1569 
Q 847 1681 609 1914 
Q 372 2147 372 2553 
Q 372 3047 722 3315 
Q 1072 3584 1716 3584 
Q 2034 3584 2315 3537 
Q 2597 3491 2834 3397 
z
" transform="scale(0.015625)"/>
     </defs>
     <use xlink:href="#DejaVuSans-50"/>
     <use xlink:href="#DejaVuSans-65" x="56.677734"/>
     <use xlink:href="#DejaVuSans-72" x="118.201172"/>
     <use xlink:href="#DejaVuSans-66" x="159.314453"/>
     <use xlink:href="#DejaVuSans-6f" x="194.519531"/>
     <use xlink:href="#DejaVuSans-72" x="255.701172"/>
     <use xlink:href="#DejaVuSans-6d" x="295.064453"/>
     <use xlink:href="#DejaVuSans-61" x="392.476562"/>
     <use xlink:href="#DejaVuSans-6e" x="453.755859"/>
     <use xlink:href="#DejaVuSans-63" x="517.134766"/>
     <use xlink:href="#DejaVuSans-65" x="572.115234"/>
     <use xlink:href="#DejaVuSans-3a" x="633.638672"/>
     <use xlink:href="#DejaVuSans-20" x="667.330078"/>
     <use xlink:href="#DejaVuSans-43" x="699.117188"/>
     <use xlink:href="#DejaVuSans-50" x="768.941406"/>
     <use xlink:href="#DejaVuSans-55" x="829.244141"/>
     <use xlink:href="#DejaVuSans-20" x="902.4375"/>
     <use xlink:href="#DejaVuSans-76" x="934.224609"/>
     <use xlink:href="#DejaVuSans-73" x="993.404297"/>
     <use xlink:href="#DejaVuSans-20" x="1045.503906"/>
     <use xlink:href="#DejaVuSans-47" x="1077.291016"/>
     <use xlink:href="#DejaVuSans-50" x="1154.78125"/>
     <use xlink:href="#DejaVuSans-55" x="1215.083984"/>
    </g>
   </g>
   <g id="legend_1">
    <g id="patch_7">
     <path d="M 64.6 93.506375 
L 165.278125 93.506375 
Q 167.278125 93.506375 167.278125 91.506375 
L 167.278125 48.472 
Q 167.278125 46.472 165.278125 46.472 
L 64.6 46.472 
Q 62.6 46.472 62.6 48.472 
L 62.6 91.506375 
Q 62.6 93.506375 64.6 93.506375 
z
" style="fill: #ffffff; opacity: 0.8; stroke: #cccccc; stroke-linejoin: miter"/>
    </g>
    <g id="text_11">
     <!-- Cluster -->
     <g transform="translate(97.192969 58.070438)scale(0.1 -0.1)">
      <defs>
       <path id="DejaVuSans-75" d="M 544 1381 
L 544 3500 
L 1119 3500 
L 1119 1403 
Q 1119 906 1312 657 
Q 1506 409 1894 409 
Q 2359 409 2629 706 
Q 2900 1003 2900 1516 
L 2900 3500 
L 3475 3500 
L 3475 0 
L 2900 0 
L 2900 538 
Q 2691 219 2414 64 
Q 2138 -91 1772 -91 
Q 1169 -91 856 284 
Q 544 659 544 1381 
z
M 1991 3584 
L 1991 3584 
z
" transform="scale(0.015625)"/>
       <path id="DejaVuSans-74" d="M 1172 4494 
L 1172 3500 
L 2356 3500 
L 2356 3053 
L 1172 3053 
L 1172 1153 
Q 1172 725 1289 603 
Q 1406 481 1766 481 
L 2356 481 
L 2356 0 
L 1766 0 
Q 1100 0 847 248 
Q 594 497 594 1153 
L 594 3053 
L 172 3053 
L 172 3500 
L 594 3500 
L 594 4494 
L 1172 4494 
z
" transform="scale(0.015625)"/>
      </defs>
      <use xlink:href="#DejaVuSans-43"/>
      <use xlink:href="#DejaVuSans-6c" x="69.824219"/>
      <use xlink:href="#DejaVuSans-75" x="97.607422"/>
      <use xlink:href="#DejaVuSans-73" x="160.986328"/>
      <use xlink:href="#DejaVuSans-74" x="213.085938"/>
      <use xlink:href="#DejaVuSans-65" x="252.294922"/>
      <use xlink:href="#DejaVuSans-72" x="313.818359"/>
     </g>
    </g>
    <g id="line2d_70">
     <path d="M 66.6 69.248563 
L 76.6 69.248563 
L 86.6 69.248563 
" style="fill: none; stroke: #1f77b4; stroke-width: 1.5; stroke-linecap: square"/>
    </g>
    <g id="text_12">
     <!-- Hopper (GPU) -->
     <g transform="translate(94.6 72.748563)scale(0.1 -0.1)">
      <defs>
       <path id="DejaVuSans-48" d="M 628 4666 
L 1259 4666 
L 1259 2753 
L 3553 2753 
L 3553 4666 
L 4184 4666 
L 4184 0 
L 3553 0 
L 3553 2222 
L 1259 2222 
L 1259 0 
L 628 0 
L 628 4666 
z
" transform="scale(0.015625)"/>
       <path id="DejaVuSans-70" d="M 1159 525 
L 1159 -1331 
L 581 -1331 
L 581 3500 
L 1159 3500 
L 1159 2969 
Q 1341 3281 1617 3432 
Q 1894 3584 2278 3584 
Q 2916 3584 3314 3078 
Q 3713 2572 3713 1747 
Q 3713 922 3314 415 
Q 2916 -91 2278 -91 
Q 1894 -91 1617 61 
Q 1341 213 1159 525 
z
M 3116 1747 
Q 3116 2381 2855 2742 
Q 2594 3103 2138 3103 
Q 1681 3103 1420 2742 
Q 1159 2381 1159 1747 
Q 1159 1113 1420 752 
Q 1681 391 2138 391 
Q 2594 391 2855 752 
Q 3116 1113 3116 1747 
z
" transform="scale(0.015625)"/>
       <path id="DejaVuSans-28" d="M 1984 4856 
Q 1566 4138 1362 3434 
Q 1159 2731 1159 2009 
Q 1159 1288 1364 580 
Q 1569 -128 1984 -844 
L 1484 -844 
Q 1016 -109 783 600 
Q 550 1309 550 2009 
Q 550 2706 781 3412 
Q 1013 4119 1484 4856 
L 1984 4856 
z
" transform="scale(0.015625)"/>
       <path id="DejaVuSans-29" d="M 513 4856 
L 1013 4856 
Q 1481 4119 1714 3412 
Q 1947 2706 1947 2009 
Q 1947 1309 1714 600 
Q 1481 -109 1013 -844 
L 513 -844 
Q 928 -128 1133 580 
Q 1338 1288 1338 2009 
Q 1338 2731 1133 3434 
Q 928 4138 513 4856 
z
" transform="scale(0.015625)"/>
      </defs>
      <use xlink:href="#DejaVuSans-48"/>
      <use xlink:href="#DejaVuSans-6f" x="75.195312"/>
      <use xlink:href="#DejaVuSans-70" x="136.376953"/>
      <use xlink:href="#DejaVuSans-70" x="199.853516"/>
      <use xlink:href="#DejaVuSans-65" x="263.330078"/>
      <use xlink:href="#DejaVuSans-72" x="324.853516"/>
      <use xlink:href="#DejaVuSans-20" x="365.966797"/>
      <use xlink:href="#DejaVuSans-28" x="397.753906"/>
      <use xlink:href="#DejaVuSans-47" x="436.767578"/>
      <use xlink:href="#DejaVuSans-50" x="514.257812"/>
      <use xlink:href="#DejaVuSans-55" x="574.560547"/>
      <use xlink:href="#DejaVuSans-29" x="647.753906"/>
     </g>
    </g>
    <g id="line2d_71">
     <path d="M 66.6 83.926688 
L 76.6 83.926688 
L 86.6 83.926688 
" style="fill: none; stroke: #ff7f0e; stroke-width: 1.5; stroke-linecap: square"/>
    </g>
    <g id="text_13">
     <!-- Hopper -->
     <g transform="translate(94.6 87.426688)scale(0.1 -0.1)">
      <use xlink:href="#DejaVuSans-48"/>
      <use xlink:href="#DejaVuSans-6f" x="75.195312"/>
      <use xlink:href="#DejaVuSans-70" x="136.376953"/>
      <use xlink:href="#DejaVuSans-70" x="199.853516"/>
      <use xlink:href="#DejaVuSans-65" x="263.330078"/>
      <use xlink:href="#DejaVuSans-72" x="324.853516"/>
     </g>
    </g>
   </g>
  </g>
 </g>
 <defs>
  <clipPath id="pa102c3358b">
   <rect x="57.6" y="41.472" width="357.12" height="266.112"/>
  </clipPath>
 </defs>
</svg>
