<?xml version="1.0" encoding="utf-8" standalone="no"?>
<!DOCTYPE svg PUBLIC "-//W3C//DTD SVG 1.1//EN"
  "http://www.w3.org/Graphics/SVG/1.1/DTD/svg11.dtd">
<svg xmlns:xlink="http://www.w3.org/1999/xlink" width="460.8pt" height="345.6pt" viewBox="0 0 460.8 345.6" xmlns="http://www.w3.org/2000/svg" version="1.1">
 <metadata>
  <rdf:RDF xmlns:dc="http://purl.org/dc/elements/1.1/" xmlns:cc="http://creativecommons.org/ns#" xmlns:rdf="http://www.w3.org/1999/02/22-rdf-syntax-ns#">
   <cc:Work>
    <dc:type rdf:resource="http://purl.org/dc/dcmitype/StillImage"/>
    <dc:date>2024-05-05T11:10:25.499718</dc:date>
    <dc:format>image/svg+xml</dc:format>
    <dc:creator>
     <cc:Agent>
      <dc:title>Matplotlib v3.5.3, https://matplotlib.org/</dc:title>
     </cc:Agent>
    </dc:creator>
   </cc:Work>
  </rdf:RDF>
 </metadata>
 <defs>
  <style type="text/css">*{stroke-linejoin: round; stroke-linecap: butt}</style>
 </defs>
 <g id="figure_1">
  <g id="patch_1">
   <path d="M 0 345.6 
L 460.8 345.6 
L 460.8 0 
L 0 0 
z
" style="fill: #ffffff"/>
  </g>
  <g id="axes_1">
   <g id="patch_2">
    <path d="M 57.6 307.584 
L 414.72 307.584 
L 414.72 41.472 
L 57.6 41.472 
z
" style="fill: #ffffff"/>
   </g>
   <g id="PolyCollection_1">
    <path d="M 73.832727 241.358507 
L 73.832727 246.870743 
L 73.832727 238.190622 
L 73.832727 245.05918 
L 73.832727 244.133444 
L 73.832727 248.959334 
L 73.832727 223.668227 
L 73.832727 178.378651 
L 73.832727 295.488 
L 73.832727 295.45514 
L 73.832727 295.45514 
L 73.832727 128.507505 
L 73.832727 193.067523 
L 73.832727 219.450879 
L 73.832727 219.623059 
L 73.832727 234.876186 
L 73.832727 220.555489 
L 73.832727 241.358507 
z
" clip-path="url(#p699d6d4ea6)" style="fill: #1f77b4; fill-opacity: 0.2; stroke: #1f77b4; stroke-opacity: 0.2"/>
    <path d="M 73.832727 292.462457 
L 73.832727 295.472976 
L 73.832727 294.338934 
L 73.832727 294.417528 
L 81.17577 264.429478 
L 81.175823 266.174993 
L 81.176324 263.322014 
L 81.176398 265.751241 
L 81.177113 263.714842 
L 81.17722 264.763974 
L 81.178291 265.044391 
L 81.178456 263.918631 
L 81.180164 261.804117 
L 81.180438 264.646343 
L 81.183412 253.714324 
L 81.183914 257.656472 
L 81.189807 243.988939 
L 81.190879 247.337393 
L 81.205303 244.088871 
L 81.208288 243.256042 
L 81.262016 246.662006 
L 81.262016 245.399398 
L 81.276586 245.361401 
L 86.558039 270.336734 
L 86.558039 264.836347 
L 86.56056 264.095071 
L 86.564096 262.802929 
L 86.56928 263.23557 
L 86.57733 263.166979 
L 86.590849 260.362442 
L 86.590849 260.547699 
L 86.616302 248.771193 
L 86.673961 241.429994 
L 86.862404 243.304569 
L 88.518812 234.487217 
L 88.518918 233.530967 
L 88.51992 229.083556 
L 88.520068 228.728925 
L 88.521498 227.453636 
L 88.521713 228.267496 
L 88.523854 227.445342 
L 88.524186 231.038755 
L 88.527601 223.566753 
L 88.528149 225.651937 
L 88.530366 265.564032 
L 88.531096 269.055382 
L 88.534097 242.643251 
L 88.5351 235.662477 
L 88.539304 263.997048 
L 88.540736 265.534205 
L 88.546887 242.344531 
L 88.549031 240.472851 
L 88.558551 262.709556 
L 88.561974 263.074347 
L 88.577879 240.179579 
L 88.583848 242.223666 
L 88.613521 248.959047 
L 88.625371 253.769716 
L 88.691304 238.424125 
L 88.691304 235.655609 
L 88.720445 234.060209 
L 88.924528 244.216053 
L 89.034772 242.932962 
L 93.295797 264.339237 
L 93.298494 264.239081 
L 93.306035 263.858867 
L 93.309814 265.244829 
L 93.309814 264.195914 
L 93.320673 264.435962 
L 93.320673 264.802689 
L 93.326205 263.434504 
L 93.342684 262.926788 
L 93.351253 263.215494 
L 93.378113 259.314012 
L 93.392445 259.648356 
L 93.44098 250.219124 
L 93.467771 254.441186 
L 93.571236 240.469721 
L 93.631015 241.337988 
L 93.936354 242.451621 
L 94.123636 241.556801 
L 95.914706 264.145216 
L 95.919063 265.300201 
L 95.929443 265.142251 
L 95.935554 265.028014 
L 95.950456 265.489743 
L 95.959408 264.921317 
L 95.981924 263.398884 
L 95.99581 264.144259 
L 96.032253 258.754889 
L 96.055536 260.444266 
L 96.120592 249.632561 
L 96.164304 259.318084 
L 96.299682 241.51348 
L 96.398111 244.494586 
L 96.773271 243.151015 
L 97.08986 243.170531 
L 99.283351 231.064766 
L 99.283351 235.516687 
L 99.288392 228.955383 
L 99.295465 226.503643 
L 99.305833 226.068733 
L 99.321933 222.649829 
L 99.34897 216.240207 
L 99.34897 222.489324 
L 99.370018 263.831277 
L 99.399878 236.215761 
L 99.444368 261.590179 
L 99.444368 264.389873 
L 99.515195 239.094945 
L 99.639223 258.304699 
L 99.639223 256.820427 
L 99.892081 231.277528 
L 100.41453 263.723757 
L 100.428865 263.989606 
L 100.444795 262.207687 
L 100.465379 264.411375 
L 100.489159 263.610986 
L 100.520273 263.077179 
L 100.558241 260.643836 
L 100.586098 241.872099 
L 100.608628 260.390328 
L 100.675439 252.778745 
L 100.765487 258.49276 
L 100.902947 241.059691 
L 101.090765 245.906705 
L 101.476217 241.158964 
L 102.000536 241.297541 
L 103.214981 177.431665 
L 103.214981 174.518576 
L 103.214981 174.518576 
L 102.000536 236.226231 
L 101.476217 237.826611 
L 101.090765 238.613338 
L 100.902947 236.188013 
L 100.765487 250.793242 
L 100.675439 243.455645 
L 100.608628 256.186961 
L 100.586098 236.806496 
L 100.558241 254.475857 
L 100.520273 258.634472 
L 100.489159 258.160913 
L 100.465379 259.496976 
L 100.444795 257.696782 
L 100.428865 258.408763 
L 100.41453 259.572431 
L 99.892081 222.790627 
L 99.639223 245.999956 
L 99.639223 244.343396 
L 99.515195 225.689917 
L 99.444368 258.161159 
L 99.444368 256.172145 
L 99.399878 217.604303 
L 99.370018 259.658758 
L 99.34897 194.413826 
L 99.34897 200.082284 
L 99.321933 215.11152 
L 99.305833 219.259611 
L 99.295465 220.252841 
L 99.288392 221.224869 
L 99.283351 219.356255 
L 99.283351 221.15389 
L 97.08986 236.206488 
L 96.773271 239.12049 
L 96.398111 235.563993 
L 96.299682 237.100803 
L 96.164304 247.178869 
L 96.120592 236.188062 
L 96.055536 254.581182 
L 96.032253 246.80546 
L 95.99581 257.549104 
L 95.981924 255.409341 
L 95.959408 258.486107 
L 95.950456 258.147169 
L 95.935554 258.077043 
L 95.929443 258.044534 
L 95.919063 259.323694 
L 95.914706 258.95406 
L 94.123636 237.755571 
L 93.936354 239.552628 
L 93.631015 235.900167 
L 93.571236 236.376792 
L 93.467771 244.326973 
L 93.44098 240.926272 
L 93.392445 254.221861 
L 93.378113 252.279951 
L 93.351253 258.343673 
L 93.342684 257.899044 
L 93.326205 258.928853 
L 93.320673 256.854315 
L 93.320673 258.391677 
L 93.309814 259.230737 
L 93.309814 258.958342 
L 93.306035 258.93538 
L 93.298494 259.924809 
L 93.295797 260.375541 
L 89.034772 238.074248 
L 88.924528 240.384666 
L 88.720445 224.345063 
L 88.691304 223.076208 
L 88.691304 218.375699 
L 88.625371 240.293082 
L 88.613521 235.926332 
L 88.583848 223.114935 
L 88.577879 225.481233 
L 88.561974 256.235082 
L 88.558551 254.068388 
L 88.549031 218.46094 
L 88.546887 220.123088 
L 88.540736 259.287496 
L 88.539304 258.386514 
L 88.5351 210.511657 
L 88.534097 218.127947 
L 88.531096 259.563143 
L 88.530366 259.237926 
L 88.528149 210.581957 
L 88.527601 207.858084 
L 88.524186 218.07759 
L 88.523854 214.974348 
L 88.521713 218.941783 
L 88.521498 217.224476 
L 88.520068 220.670466 
L 88.51992 219.580432 
L 88.518918 220.093216 
L 88.518812 220.705235 
L 86.862404 240.573666 
L 86.673961 237.095506 
L 86.616302 239.311024 
L 86.590849 246.911245 
L 86.590849 249.75787 
L 86.57733 256.855794 
L 86.56928 258.570737 
L 86.564096 259.255239 
L 86.56056 260.186276 
L 86.558039 259.57394 
L 86.558039 260.611137 
L 81.276586 242.292104 
L 81.262016 241.546597 
L 81.262016 241.541371 
L 81.208288 237.881209 
L 81.205303 240.429864 
L 81.190879 235.909211 
L 81.189807 235.377821 
L 81.183914 244.286483 
L 81.183412 240.448955 
L 81.180438 254.986251 
L 81.180164 252.105988 
L 81.178456 257.278666 
L 81.178291 256.874016 
L 81.17722 258.592707 
L 81.177113 257.506674 
L 81.176398 260.347809 
L 81.176324 258.977186 
L 81.175823 260.525684 
L 81.17577 259.742331 
L 73.832727 292.292868 
L 73.832727 289.701784 
L 73.832727 292.462457 
z
" clip-path="url(#p699d6d4ea6)" style="fill: #1f77b4; fill-opacity: 0.2; stroke: #1f77b4; stroke-opacity: 0.2"/>
    <path d="M 103.222475 148.676439 
L 103.222475 176.64977 
L 103.223571 177.892522 
L 103.228005 230.447937 
L 103.229465 231.56373 
L 103.235467 224.560629 
L 103.237473 215.700431 
L 103.245881 227.302337 
L 103.248745 228.565317 
L 103.261046 203.38545 
L 103.265335 206.239249 
L 103.284374 222.125839 
L 103.291221 228.44091 
L 103.323032 197.685401 
L 103.334968 204.765935 
L 103.352725 266.241935 
L 103.369212 264.692454 
L 103.394314 237.74357 
L 103.418016 235.195477 
L 103.455225 264.348265 
L 103.491113 263.789635 
L 103.54988 240.095278 
L 103.54988 236.632178 
L 103.608163 234.59965 
L 103.709721 247.616906 
L 103.814387 260.548885 
L 104.01633 231.541744 
L 104.236816 234.136104 
L 104.758862 242.257249 
L 105.391257 244.676016 
L 106.068124 267.030848 
L 106.068124 265.530133 
L 106.086768 263.561137 
L 106.139091 263.977543 
L 106.139091 266.422804 
L 106.166658 263.454683 
L 106.248851 261.835563 
L 106.292224 261.748608 
L 106.433906 257.363342 
L 106.508401 261.339057 
L 106.508401 260.549715 
L 106.791943 246.196149 
L 106.938449 246.620063 
L 107.700063 242.155777 
L 107.733077 263.209503 
L 107.781404 265.27379 
L 107.807622 264.36114 
L 107.879174 264.32758 
L 107.920664 261.622516 
L 108.033473 262.884869 
L 108.07036 244.709144 
L 108.105825 254.652068 
L 108.105825 258.752835 
L 108.30023 260.804482 
L 108.447931 241.914763 
L 108.832661 250.019405 
L 109.245635 240.834357 
L 110.232064 245.673316 
L 110.880314 264.902723 
L 110.92943 264.127482 
L 110.979169 266.412317 
L 111.052022 267.973204 
L 111.129165 261.633379 
L 111.244356 264.370826 
L 111.374645 254.876482 
L 111.574135 262.9172 
L 111.825561 242.433089 
L 111.825561 242.790436 
L 112.22424 256.027892 
L 112.467203 268.028123 
L 112.467203 263.757507 
L 112.637338 263.622072 
L 112.758866 229.543895 
L 112.76426 230.577666 
L 112.779342 228.112976 
L 112.786902 234.277723 
L 112.786902 229.631844 
L 112.808618 226.295494 
L 112.808618 227.886402 
L 112.819683 227.06504 
L 112.848114 242.489537 
L 112.848114 242.65762 
L 112.852642 224.831011 
L 112.869778 225.640539 
L 112.921758 261.458003 
L 112.923499 218.112281 
L 112.952162 219.059004 
L 113.049232 203.911502 
L 113.102814 208.565235 
L 113.153054 264.255876 
L 113.230842 264.37432 
L 113.309745 234.64638 
L 113.429303 234.532785 
L 113.465929 254.010643 
L 113.465929 251.21537 
L 113.565685 259.547341 
L 113.764723 262.486422 
L 113.764723 265.446462 
L 113.897053 247.703886 
L 114.03998 232.011135 
L 114.414545 233.837489 
L 114.820943 245.870242 
L 115.168693 242.060102 
L 115.231777 263.962365 
L 115.364253 266.522033 
L 115.39739 263.257687 
L 115.601557 264.821772 
L 115.661061 257.628581 
L 116.00245 263.010283 
L 116.052162 253.206245 
L 116.052162 249.928276 
L 116.129588 244.490026 
L 116.777155 255.545134 
L 117.159202 240.408338 
L 117.996685 230.32183 
L 118.005399 233.750227 
L 118.026159 228.856764 
L 118.038381 232.371282 
L 118.068184 226.647326 
L 118.086089 229.305697 
L 118.086089 229.105543 
L 118.13112 229.157126 
L 118.13112 225.008945 
L 118.158893 227.29839 
L 118.231778 217.564687 
L 118.278344 225.336661 
L 118.408457 204.030464 
L 118.49588 210.803883 
L 118.552479 266.682505 
L 118.679857 268.272221 
L 118.713404 250.450778 
L 118.766637 235.524823 
L 118.963495 231.520115 
L 119.108131 254.582571 
L 119.389457 263.680303 
L 119.43886 263.981478 
L 119.471294 263.497638 
L 119.713814 230.758694 
L 119.749213 262.583015 
L 119.881659 262.25364 
L 120.346992 239.987076 
L 120.414191 252.858862 
L 120.572196 263.39874 
L 120.653749 256.171602 
L 120.80238 264.357065 
L 120.906733 262.521205 
L 121.018603 242.665568 
L 121.018603 242.553803 
L 121.280008 263.584963 
L 121.504996 249.550133 
L 121.991929 247.119443 
L 122.182465 257.72872 
L 122.522996 249.203145 
L 122.575116 254.558087 
L 122.856752 244.252656 
L 122.958703 263.778202 
L 123.28448 266.228504 
L 123.308894 258.821703 
L 123.839882 263.295071 
L 123.911712 244.594364 
L 124.369175 251.863267 
L 124.778939 176.959333 
L 124.811138 178.138093 
L 124.865213 176.481776 
L 124.865213 174.387225 
L 124.884128 260.949658 
L 124.884128 260.684988 
L 124.907308 228.507371 
L 124.967028 205.685769 
L 125.056009 228.059333 
L 125.056009 226.192098 
L 125.175584 240.908023 
L 125.175584 242.031571 
L 125.197663 205.557281 
L 125.445718 214.305658 
L 125.445718 211.938409 
L 125.951435 185.196806 
L 126.441704 262.781957 
L 126.458249 263.400632 
L 126.763347 268.316761 
L 126.85019 262.120428 
L 126.903265 262.695388 
L 126.903265 262.552963 
L 126.996332 229.625087 
L 127.025003 229.78453 
L 127.056862 228.134164 
L 127.098031 227.042906 
L 127.145591 225.251439 
L 127.17087 267.453338 
L 127.17087 264.019982 
L 127.207818 226.395839 
L 127.283754 222.87012 
L 127.339468 233.154307 
L 127.384529 224.153283 
L 127.388481 255.599941 
L 127.402751 267.700717 
L 127.518151 205.511163 
L 127.640653 254.057512 
L 127.66997 239.955783 
L 127.698246 214.658669 
L 127.973166 197.247817 
L 128.202693 258.957512 
L 128.348802 202.394222 
L 128.392251 265.375401 
L 128.392251 261.155457 
L 128.592559 260.482668 
L 128.987867 264.203103 
L 129.119707 229.289571 
L 129.2546 241.108159 
L 130.168345 235.218601 
L 131.031226 260.043165 
L 131.400752 258.016088 
L 131.773413 245.7113 
L 131.793635 265.801376 
L 132.689364 175.881679 
L 132.689364 175.810163 
L 132.689364 175.810163 
L 131.793635 256.512797 
L 131.773413 237.284062 
L 131.400752 250.153944 
L 131.031226 251.216862 
L 130.168345 217.834591 
L 129.2546 236.224156 
L 129.119707 215.978347 
L 128.987867 257.622901 
L 128.592559 252.994884 
L 128.392251 252.099153 
L 128.392251 253.122129 
L 128.348802 189.150565 
L 128.202693 251.658091 
L 127.973166 189.705686 
L 127.698246 203.29396 
L 127.66997 234.917338 
L 127.640653 244.821742 
L 127.518151 189.770542 
L 127.402751 254.207962 
L 127.388481 249.26319 
L 127.384529 216.020971 
L 127.339468 218.664172 
L 127.283754 212.286309 
L 127.207818 219.130523 
L 127.17087 257.2759 
L 127.17087 254.421458 
L 127.145591 216.476424 
L 127.098031 219.680521 
L 127.056862 219.522344 
L 127.025003 220.205982 
L 126.996332 221.230967 
L 126.903265 237.255765 
L 126.903265 238.477209 
L 126.85019 255.172732 
L 126.763347 256.908635 
L 126.458249 253.246265 
L 126.441704 256.15471 
L 125.951435 162.331164 
L 125.445718 195.540709 
L 125.445718 192.3031 
L 125.197663 173.427721 
L 125.175584 237.263837 
L 125.175584 235.156095 
L 125.056009 217.318685 
L 125.056009 215.278014 
L 124.967028 175.503963 
L 124.907308 220.041204 
L 124.884128 252.728462 
L 124.884128 250.801681 
L 124.865213 151.310173 
L 124.865213 148.747389 
L 124.811138 160.153989 
L 124.778939 176.440895 
L 124.369175 245.22024 
L 123.911712 237.97728 
L 123.839882 256.949765 
L 123.308894 249.096666 
L 123.28448 257.417594 
L 122.958703 256.275284 
L 122.856752 237.233208 
L 122.575116 244.3555 
L 122.522996 241.737353 
L 122.182465 250.967855 
L 121.991929 239.622156 
L 121.504996 241.175404 
L 121.280008 257.072013 
L 121.018603 234.731544 
L 121.018603 235.713288 
L 120.906733 253.535897 
L 120.80238 258.7717 
L 120.653749 248.425039 
L 120.572196 257.063437 
L 120.414191 244.593417 
L 120.346992 220.228177 
L 119.881659 256.014105 
L 119.749213 254.917282 
L 119.713814 219.191413 
L 119.471294 258.19994 
L 119.43886 257.093041 
L 119.389457 257.652632 
L 119.108131 241.373112 
L 118.963495 205.196803 
L 118.766637 215.080044 
L 118.713404 242.321754 
L 118.679857 257.139204 
L 118.552479 256.720132 
L 118.49588 193.463988 
L 118.408457 185.008828 
L 118.278344 211.870839 
L 118.231778 199.736608 
L 118.158893 217.429473 
L 118.13112 208.62999 
L 118.13112 215.108839 
L 118.086089 218.427679 
L 118.086089 215.431877 
L 118.068184 216.394242 
L 118.038381 219.00145 
L 118.026159 219.071039 
L 118.005399 215.262787 
L 117.996685 219.816506 
L 117.159202 236.855779 
L 116.777155 248.564574 
L 116.129588 237.891513 
L 116.052162 240.164591 
L 116.052162 238.078766 
L 116.00245 257.235282 
L 115.661061 249.116545 
L 115.601557 258.60646 
L 115.39739 255.811331 
L 115.364253 258.518895 
L 115.231777 257.637493 
L 115.168693 236.475486 
L 114.820943 238.257398 
L 114.414545 221.173248 
L 114.03998 222.382308 
L 113.897053 237.50448 
L 113.764723 254.190806 
L 113.764723 255.786837 
L 113.565685 252.56241 
L 113.465929 241.654635 
L 113.465929 238.964045 
L 113.429303 217.796612 
L 113.309745 218.423567 
L 113.230842 259.018381 
L 113.153054 258.693215 
L 113.102814 192.710481 
L 113.049232 187.574001 
L 112.952162 208.855328 
L 112.923499 206.834204 
L 112.921758 254.929481 
L 112.869778 217.431678 
L 112.852642 216.470931 
L 112.848114 236.278123 
L 112.848114 234.758585 
L 112.819683 219.961687 
L 112.808618 215.30915 
L 112.808618 218.520912 
L 112.786902 220.813226 
L 112.786902 218.443722 
L 112.779342 220.22425 
L 112.76426 221.117298 
L 112.758866 221.894925 
L 112.637338 256.903894 
L 112.467203 258.103319 
L 112.467203 255.673511 
L 112.22424 244.814017 
L 111.825561 235.92712 
L 111.825561 234.323344 
L 111.574135 255.406843 
L 111.374645 239.861258 
L 111.244356 257.973668 
L 111.129165 252.111461 
L 111.052022 256.687141 
L 110.979169 256.443466 
L 110.92943 257.862276 
L 110.880314 256.98556 
L 110.232064 238.345032 
L 109.245635 237.411097 
L 108.832661 242.787292 
L 108.447931 236.314074 
L 108.30023 255.200464 
L 108.105825 241.639441 
L 108.105825 245.317848 
L 108.07036 237.700288 
L 108.033473 258.012824 
L 107.920664 255.880256 
L 107.879174 258.647323 
L 107.807622 257.619666 
L 107.781404 258.468951 
L 107.733077 258.827026 
L 107.700063 236.509957 
L 106.938449 239.688262 
L 106.791943 238.498213 
L 106.508401 252.076929 
L 106.508401 250.424478 
L 106.433906 249.985672 
L 106.292224 257.65634 
L 106.248851 256.709965 
L 106.166658 258.584812 
L 106.139091 257.160386 
L 106.139091 256.910105 
L 106.086768 259.356177 
L 106.068124 258.171343 
L 106.068124 258.12088 
L 105.391257 236.043361 
L 104.758862 237.566563 
L 104.236816 219.167423 
L 104.01633 221.945073 
L 103.814387 251.659505 
L 103.709721 237.56718 
L 103.608163 208.158402 
L 103.54988 207.688806 
L 103.54988 188.070078 
L 103.491113 257.912575 
L 103.455225 256.449664 
L 103.418016 205.388504 
L 103.394314 213.180801 
L 103.369212 259.028064 
L 103.352725 258.156109 
L 103.334968 159.244933 
L 103.323032 157.231108 
L 103.291221 215.831917 
L 103.284374 208.837485 
L 103.265335 163.442785 
L 103.261046 154.161393 
L 103.248745 218.735291 
L 103.245881 216.724265 
L 103.237473 167.426196 
L 103.235467 194.170735 
L 103.229465 216.387429 
L 103.228005 219.768828 
L 103.223571 153.271734 
L 103.222475 148.676439 
z
" clip-path="url(#p699d6d4ea6)" style="fill: #1f77b4; fill-opacity: 0.2; stroke: #1f77b4; stroke-opacity: 0.2"/>
    <path d="M 132.736021 149.326174 
L 132.736021 181.293311 
L 132.749715 179.207264 
L 132.813336 179.58472 
L 132.83721 175.529551 
L 132.872723 229.667921 
L 132.905696 230.992146 
L 132.9559 222.445475 
L 132.9559 223.881405 
L 133.003304 163.402895 
L 133.003304 221.989465 
L 133.077722 227.83367 
L 133.077722 233.435636 
L 133.128674 261.013762 
L 133.149498 228.379988 
L 133.267034 218.515135 
L 133.267034 208.328309 
L 133.383598 211.460798 
L 133.586715 204.248172 
L 133.796046 222.19923 
L 134.199932 189.91514 
L 134.338998 259.193787 
L 134.640905 194.222375 
L 134.669337 259.846786 
L 134.753829 260.472751 
L 134.753829 261.851451 
L 135.062709 261.090147 
L 135.062709 257.439214 
L 135.459784 268.354673 
L 135.684996 225.348221 
L 136.021396 260.821816 
L 136.845589 253.873134 
L 136.949788 231.637205 
L 138.303521 229.992948 
L 138.303521 232.679235 
L 138.327747 264.063961 
L 138.327747 265.847628 
L 138.340809 228.591505 
L 138.445455 229.032474 
L 138.445455 230.428119 
L 138.500588 227.308294 
L 138.664974 222.54921 
L 138.751721 224.997451 
L 139.035085 215.713112 
L 139.184074 226.43602 
L 139.184074 222.888414 
L 139.700983 248.600351 
L 139.751159 199.625065 
L 140.044171 206.843789 
L 141.493278 266.334958 
L 141.493278 270.274228 
L 141.567399 193.950611 
L 141.633426 228.661013 
L 141.730081 230.895938 
L 141.782517 227.619095 
L 141.925621 227.635922 
L 142.008601 222.931414 
L 142.234219 226.151854 
L 142.307992 201.416951 
L 142.378922 213.426238 
L 142.378922 214.294021 
L 142.767732 220.542273 
L 143.063135 197.529574 
L 143.751526 242.528019 
L 143.751526 246.9161 
L 143.832595 208.886236 
L 144.658543 198.984849 
L 145.408905 269.9033 
L 146.631401 202.065784 
L 147.9279 230.321574 
L 148.026132 231.152846 
L 148.12561 229.525297 
L 148.271316 230.769828 
L 148.425603 223.93449 
L 148.655984 227.317841 
L 148.916562 208.169488 
L 149.315543 222.737335 
L 149.818394 206.724973 
L 149.818394 196.125205 
L 150.615753 214.04854 
L 151.101679 233.942521 
L 151.101679 230.978099 
L 151.441948 227.49959 
L 151.441948 217.871385 
L 151.441948 217.871385 
L 151.101679 219.83143 
L 151.101679 216.022104 
L 150.615753 195.014121 
L 149.818394 183.965697 
L 149.818394 193.745702 
L 149.315543 211.153222 
L 148.916562 187.999575 
L 148.655984 218.05187 
L 148.425603 206.109508 
L 148.271316 219.185036 
L 148.12561 214.92034 
L 148.026132 218.88898 
L 147.9279 218.127918 
L 146.631401 188.373959 
L 145.408905 254.155586 
L 144.658543 192.605674 
L 143.832595 192.828903 
L 143.751526 232.988157 
L 143.751526 232.114697 
L 143.063135 188.617788 
L 142.767732 211.261808 
L 142.378922 189.178207 
L 142.378922 192.926036 
L 142.307992 189.918204 
L 142.234219 217.950784 
L 142.008601 213.76393 
L 141.925621 218.990768 
L 141.782517 218.231588 
L 141.730081 220.642999 
L 141.633426 219.933729 
L 141.567399 185.985886 
L 141.493278 254.332187 
L 141.493278 253.206026 
L 140.044171 192.184255 
L 139.751159 186.61093 
L 139.700983 239.509069 
L 139.184074 207.608142 
L 139.184074 205.840142 
L 139.035085 203.434123 
L 138.751721 217.239339 
L 138.664974 214.748232 
L 138.500588 219.005903 
L 138.445455 216.72822 
L 138.445455 217.35895 
L 138.340809 221.287982 
L 138.327747 255.390308 
L 138.327747 254.999208 
L 138.303521 218.34535 
L 138.303521 219.171626 
L 136.949788 204.784933 
L 136.845589 243.447326 
L 136.021396 254.49351 
L 135.684996 211.298963 
L 135.459784 255.075498 
L 135.062709 246.670255 
L 135.062709 243.153133 
L 134.753829 238.652678 
L 134.753829 239.992996 
L 134.669337 253.256616 
L 134.640905 155.002145 
L 134.338998 250.702299 
L 134.199932 162.698779 
L 133.796046 207.793419 
L 133.586715 182.590925 
L 133.383598 162.349732 
L 133.267034 159.191798 
L 133.267034 158.576298 
L 133.149498 218.730994 
L 133.128674 254.818223 
L 133.077722 208.178362 
L 133.077722 215.317592 
L 133.003304 181.473272 
L 133.003304 88.588184 
L 132.9559 161.628713 
L 132.9559 157.50726 
L 132.905696 219.919372 
L 132.872723 219.910316 
L 132.83721 144.080729 
L 132.813336 164.615794 
L 132.749715 165.538532 
L 132.736021 149.326174 
z
" clip-path="url(#p699d6d4ea6)" style="fill: #1f77b4; fill-opacity: 0.2; stroke: #1f77b4; stroke-opacity: 0.2"/>
    <path d="M 151.806638 177.909325 
L 151.806638 180.663604 
L 151.863502 201.603732 
L 151.872556 179.11051 
L 151.906829 180.969749 
L 152.010789 222.062902 
L 152.01427 174.829381 
L 152.071597 175.747766 
L 152.265738 159.110886 
L 152.372901 167.268069 
L 152.47338 227.918367 
L 152.628957 227.148944 
L 152.786762 194.556302 
L 153.02588 199.720787 
L 153.09913 217.18999 
L 153.09913 208.740419 
L 153.298642 218.083127 
L 153.696719 223.703251 
L 153.696719 224.506061 
L 153.961378 218.678187 
L 154.247233 187.292128 
L 154.996364 190.528548 
L 155.809158 199.446789 
L 156.504658 196.633541 
L 156.630826 227.784508 
L 156.895779 232.828972 
L 156.962054 225.586681 
L 157.370387 226.969375 
L 157.489394 209.923193 
L 158.172172 224.352948 
L 158.271596 206.239877 
L 158.426448 199.434372 
L 159.721583 214.371546 
L 160.485676 196.628706 
L 162.30364 178.183708 
L 162.30364 176.354011 
L 162.30364 176.354011 
L 160.485676 189.580168 
L 159.721583 201.51183 
L 158.426448 188.413535 
L 158.271596 191.375186 
L 158.172172 216.023622 
L 157.489394 196.520167 
L 157.370387 218.07654 
L 156.962054 214.956776 
L 156.895779 221.585549 
L 156.630826 218.559619 
L 156.504658 186.502547 
L 155.809158 185.547945 
L 154.996364 158.081801 
L 154.247233 162.036854 
L 153.961378 193.955835 
L 153.696719 211.820808 
L 153.696719 212.067914 
L 153.298642 206.810174 
L 153.09913 189.932982 
L 153.09913 190.039836 
L 153.02588 163.658843 
L 152.786762 153.000288 
L 152.628957 219.494719 
L 152.47338 218.756113 
L 152.372901 155.552544 
L 152.265738 121.047714 
L 152.071597 166.613044 
L 152.01427 146.85798 
L 152.010789 211.602593 
L 151.906829 160.027515 
L 151.872556 159.30761 
L 151.863502 191.638875 
L 151.806638 177.909325 
z
" clip-path="url(#p699d6d4ea6)" style="fill: #1f77b4; fill-opacity: 0.2; stroke: #1f77b4; stroke-opacity: 0.2"/>
    <path d="M 162.429513 148.095038 
L 162.429513 180.185739 
L 162.429513 180.193731 
L 162.429513 149.011218 
L 162.429513 149.011218 
L 162.429513 148.095038 
z
" clip-path="url(#p699d6d4ea6)" style="fill: #1f77b4; fill-opacity: 0.2; stroke: #1f77b4; stroke-opacity: 0.2"/>
    <path d="M 162.630828 135.004169 
L 162.630828 173.6526 
L 162.630828 135.004169 
L 162.630828 135.004169 
z
" clip-path="url(#p699d6d4ea6)" style="fill: #1f77b4; fill-opacity: 0.2; stroke: #1f77b4; stroke-opacity: 0.2"/>
    <path d="M 162.984187 130.557405 
L 162.984187 144.551298 
L 163.159034 169.594644 
L 163.272231 228.363784 
L 163.526986 231.658579 
L 163.59408 211.961831 
L 163.700547 200.546912 
L 164.094263 206.161524 
L 164.383534 212.728545 
L 164.946187 227.293768 
L 165.044993 225.655997 
L 165.10986 228.543854 
L 165.594901 188.449853 
L 165.665699 222.563193 
L 165.930591 224.809295 
L 166.861257 201.013082 
L 166.995654 212.783932 
L 167.311666 228.274601 
L 167.47477 211.950308 
L 167.772032 229.61112 
L 167.980738 220.722991 
L 168.204479 200.300739 
L 168.204479 204.283232 
L 168.727288 226.62347 
L 169.177265 207.880783 
L 170.15113 203.35067 
L 170.532203 217.283401 
L 171.213265 210.25088 
L 171.317504 213.409237 
L 171.880776 199.962883 
L 172.084679 226.162755 
L 172.736232 233.142943 
L 172.78506 216.320146 
L 173.847037 226.115145 
L 173.990697 198.631282 
L 174.905622 212.450404 
L 175.935528 224.839182 
L 175.935528 220.578187 
L 176.101328 178.871611 
L 176.27929 181.653657 
L 176.51844 199.887298 
L 176.51844 197.532325 
L 176.562599 175.927953 
L 177.058708 171.075117 
L 178.070143 136.386929 
L 179.050681 224.674552 
L 179.083771 228.538893 
L 179.693967 237.916174 
L 179.867652 223.589134 
L 179.973803 227.310284 
L 179.973803 221.486524 
L 180.280996 178.022848 
L 180.363334 181.665234 
L 180.458454 179.435405 
L 180.509012 233.487137 
L 180.509012 227.131438 
L 180.582909 182.832232 
L 180.73478 173.60508 
L 180.846209 195.366777 
L 180.936331 181.793717 
L 180.944234 215.364507 
L 180.972775 230.979145 
L 181.203576 159.260727 
L 181.44858 214.123061 
L 181.507213 201.70153 
L 181.507213 199.661079 
L 181.563765 172.718854 
L 182.113606 114.471217 
L 182.572659 221.814326 
L 182.864877 144.411755 
L 182.951774 223.566983 
L 182.951774 225.191577 
L 183.35239 223.103263 
L 184.143006 225.04729 
L 184.406687 191.128299 
L 184.676474 198.430863 
L 186.503962 196.321716 
L 188.229725 218.935697 
L 188.968777 217.234228 
L 189.714099 207.296516 
L 189.714099 202.080395 
L 189.754543 228.32379 
L 191.391718 289.015602 
L 191.391718 288.331264 
L 191.391718 288.331264 
L 189.754543 218.071223 
L 189.714099 186.945539 
L 189.714099 192.208167 
L 188.968777 203.231614 
L 188.229725 205.804582 
L 186.503962 155.111352 
L 184.676474 187.376053 
L 184.406687 153.986793 
L 184.143006 217.24909 
L 183.35239 209.995102 
L 182.951774 208.919359 
L 182.951774 208.359975 
L 182.864877 111.739843 
L 182.572659 208.982734 
L 182.113606 91.99068 
L 181.563765 159.943195 
L 181.507213 184.663551 
L 181.507213 184.829715 
L 181.44858 198.933011 
L 181.203576 128.415138 
L 180.972775 214.705026 
L 180.944234 201.818963 
L 180.936331 151.322468 
L 180.846209 160.757174 
L 180.73478 151.482688 
L 180.582909 157.199466 
L 180.509012 216.422845 
L 180.509012 217.307667 
L 180.458454 159.632094 
L 180.363334 178.988004 
L 180.280996 177.727359 
L 179.973803 186.895885 
L 179.973803 188.590051 
L 179.867652 213.131835 
L 179.693967 217.648217 
L 179.083771 211.190022 
L 179.050681 215.183408 
L 178.070143 112.868602 
L 177.058708 141.398978 
L 176.562599 158.198684 
L 176.51844 186.821342 
L 176.51844 189.446343 
L 176.27929 161.245229 
L 176.101328 178.390878 
L 175.935528 205.992481 
L 175.935528 205.61878 
L 174.905622 197.679311 
L 173.990697 185.641888 
L 173.847037 217.505536 
L 172.78506 201.967273 
L 172.736232 221.09186 
L 172.084679 215.159114 
L 171.880776 189.317643 
L 171.317504 191.361142 
L 171.213265 194.028742 
L 170.532203 204.419972 
L 170.15113 190.137639 
L 169.177265 191.504497 
L 168.727288 216.61246 
L 168.204479 198.652298 
L 168.204479 185.446673 
L 167.980738 208.724739 
L 167.772032 219.498247 
L 167.47477 199.409064 
L 167.311666 217.801118 
L 166.995654 195.203649 
L 166.861257 154.365692 
L 165.930591 215.509179 
L 165.665699 211.875219 
L 165.594901 156.898049 
L 165.10986 219.813737 
L 165.044993 214.57275 
L 164.946187 217.820652 
L 164.383534 191.974849 
L 164.094263 134.325088 
L 163.700547 140.72593 
L 163.59408 196.796483 
L 163.526986 219.996995 
L 163.272231 214.604749 
L 163.159034 160.83929 
L 162.984187 130.557405 
z
" clip-path="url(#p699d6d4ea6)" style="fill: #1f77b4; fill-opacity: 0.2; stroke: #1f77b4; stroke-opacity: 0.2"/>
    <path d="M 191.443685 291.373778 
L 191.443685 291.511523 
L 191.451711 290.658456 
L 191.546001 293.986816 
L 191.563158 293.23243 
L 191.563158 293.140566 
L 191.563158 293.140566 
L 191.546001 293.903452 
L 191.451711 290.322886 
L 191.443685 291.373778 
z
" clip-path="url(#p699d6d4ea6)" style="fill: #1f77b4; fill-opacity: 0.2; stroke: #1f77b4; stroke-opacity: 0.2"/>
    <path d="M 191.793945 295.191652 
L 191.793945 295.235461 
L 191.841692 294.939689 
L 191.841692 294.917095 
L 191.841692 294.917095 
L 191.793945 295.191652 
z
" clip-path="url(#p699d6d4ea6)" style="fill: #1f77b4; fill-opacity: 0.2; stroke: #1f77b4; stroke-opacity: 0.2"/>
    <path d="M 192.322717 151.646851 
L 192.322717 181.009093 
L 192.322717 180.739628 
L 192.42462 224.863364 
L 192.46627 183.402719 
L 192.70134 263.489968 
L 192.70134 295.450493 
L 192.934469 295.48091 
L 193.340703 151.227838 
L 193.759365 179.549064 
L 194.567137 107.89744 
L 194.845268 220.831332 
L 195.449082 206.060768 
L 195.505946 221.889995 
L 195.67493 212.015446 
L 195.67493 223.530679 
L 196.29269 225.151614 
L 196.29269 217.636896 
L 197.08684 231.069964 
L 197.537265 186.395651 
L 198.210066 223.406186 
L 199.858451 215.487854 
L 200.066848 116.00864 
L 200.066848 210.936961 
L 200.066848 125.12952 
L 200.066848 125.12952 
L 200.066848 73.897739 
L 199.858451 198.238501 
L 198.210066 212.815693 
L 197.537265 145.459491 
L 197.08684 217.451723 
L 196.29269 200.053095 
L 196.29269 188.127022 
L 195.67493 191.766478 
L 195.67493 185.555788 
L 195.505946 211.320013 
L 195.449082 106.503088 
L 194.845268 207.241408 
L 194.567137 73.211553 
L 193.759365 160.08817 
L 193.340703 124.411885 
L 192.934469 209.222409 
L 192.70134 150.256392 
L 192.70134 128.234813 
L 192.46627 157.83778 
L 192.42462 214.221683 
L 192.322717 161.253119 
L 192.322717 151.646851 
z
" clip-path="url(#p699d6d4ea6)" style="fill: #1f77b4; fill-opacity: 0.2; stroke: #1f77b4; stroke-opacity: 0.2"/>
    <path d="M 202.822767 212.93334 
L 202.822767 227.750277 
L 202.822767 224.978532 
L 202.848891 178.902964 
L 203.058182 180.8802 
L 203.058182 169.394031 
L 203.058182 169.394031 
L 202.848891 178.611368 
L 202.822767 213.076863 
L 202.822767 212.93334 
z
" clip-path="url(#p699d6d4ea6)" style="fill: #1f77b4; fill-opacity: 0.2; stroke: #1f77b4; stroke-opacity: 0.2"/>
    <path d="M 203.16845 157.910833 
L 203.16845 181.346436 
L 203.497221 176.620035 
L 203.670715 177.844879 
L 204.237444 176.072732 
L 204.237444 152.589364 
L 204.237444 152.589364 
L 203.670715 153.845397 
L 203.497221 153.361595 
L 203.16845 157.910833 
z
" clip-path="url(#p699d6d4ea6)" style="fill: #1f77b4; fill-opacity: 0.2; stroke: #1f77b4; stroke-opacity: 0.2"/>
    <path d="M 204.535421 164.286186 
L 204.535421 175.308118 
L 205.569239 204.298891 
L 205.669591 137.762478 
L 205.669591 153.093969 
L 206.255614 145.008878 
L 209.153828 227.92118 
L 209.153828 229.993361 
L 209.302071 116.570526 
L 209.434124 178.232478 
L 209.627436 179.375295 
L 209.732306 181.402168 
L 210.018515 183.141041 
L 210.184474 177.039847 
L 210.635711 177.694573 
L 210.783256 132.50486 
L 210.925117 210.569284 
L 210.925117 173.689024 
L 211.702737 179.777628 
L 212.293543 123.632883 
L 213.670325 198.920137 
L 213.832462 174.903369 
L 215.48436 111.227534 
L 216.985082 231.202879 
L 219.430074 138.420386 
L 222.023073 179.588818 
L 222.023073 177.218757 
L 222.023073 177.218757 
L 219.430074 93.459247 
L 216.985082 218.324372 
L 215.48436 84.092507 
L 213.832462 110.154208 
L 213.670325 183.921548 
L 212.293543 109.237473 
L 211.702737 166.620203 
L 210.925117 159.091867 
L 210.925117 127.507498 
L 210.783256 97.26271 
L 210.635711 155.828474 
L 210.184474 152.742563 
L 210.018515 161.229348 
L 209.732306 163.32993 
L 209.627436 179.288411 
L 209.434124 177.691499 
L 209.302071 99.581122 
L 209.153828 215.368217 
L 209.153828 215.677311 
L 206.255614 110.845673 
L 205.669591 138.249018 
L 205.669591 85.935031 
L 205.569239 190.265312 
L 204.535421 164.286186 
z
" clip-path="url(#p699d6d4ea6)" style="fill: #1f77b4; fill-opacity: 0.2; stroke: #1f77b4; stroke-opacity: 0.2"/>
    <path d="M 222.418493 162.444604 
L 222.418493 184.338469 
L 222.709904 183.765626 
L 223.018478 180.585018 
L 223.47924 184.695945 
L 224.000397 169.139013 
L 224.798358 185.771756 
L 225.80406 111.541261 
L 225.80406 112.60744 
L 227.398778 234.472762 
L 228.370632 183.701897 
L 229.05117 180.936757 
L 229.894276 112.10058 
L 230.188851 178.063114 
L 231.114033 187.539773 
L 231.425186 183.418293 
L 231.740797 179.377276 
L 232.219032 180.57631 
L 232.365533 154.239096 
L 232.764556 176.772053 
L 233.560711 176.90226 
L 234.090029 167.764537 
L 234.661738 139.767535 
L 236.16 169.426442 
L 237.785589 135.579427 
L 239.17659 111.860141 
L 239.428925 183.985501 
L 239.95883 184.002509 
L 240.09138 179.002787 
L 240.908046 183.491858 
L 241.146061 167.501912 
L 242.511617 183.753843 
L 242.710466 135.929398 
L 243.020169 136.148834 
L 245.610439 167.368075 
L 247.138624 108.290588 
L 252.711734 184.905267 
L 252.711734 154.51783 
L 252.711734 154.51783 
L 247.138624 83.418044 
L 245.610439 137.711522 
L 243.020169 116.41862 
L 242.710466 98.959623 
L 242.511617 168.142413 
L 241.146061 136.826178 
L 240.908046 161.062649 
L 240.09138 159.936803 
L 239.95883 159.820754 
L 239.428925 165.194478 
L 239.17659 85.838778 
L 237.785589 99.309021 
L 236.16 127.318027 
L 234.661738 94.46067 
L 234.090029 101.071271 
L 233.560711 154.698702 
L 232.764556 156.536773 
L 232.365533 116.38435 
L 232.219032 158.391259 
L 231.740797 168.774501 
L 231.425186 158.929779 
L 231.114033 162.976054 
L 230.188851 170.279064 
L 229.894276 89.02025 
L 229.05117 157.631532 
L 228.370632 158.439824 
L 227.398778 121.185028 
L 225.80406 106.424298 
L 225.80406 59.543357 
L 224.798358 167.433392 
L 224.000397 151.014121 
L 223.47924 157.071393 
L 223.018478 148.93586 
L 222.709904 158.86564 
L 222.418493 162.444604 
z
" clip-path="url(#p699d6d4ea6)" style="fill: #1f77b4; fill-opacity: 0.2; stroke: #1f77b4; stroke-opacity: 0.2"/>
    <path d="M 253.355432 114.820279 
L 253.355432 156.593734 
L 253.355432 164.301658 
L 253.568367 182.233672 
L 254.355799 180.854586 
L 254.934342 167.065363 
L 256.059648 181.073949 
L 256.257259 181.649866 
L 256.386994 180.003569 
L 257.357074 114.378941 
L 257.498671 179.473963 
L 258.028454 178.879726 
L 258.028454 169.010837 
L 258.028454 169.010837 
L 257.498671 169.561891 
L 257.357074 74.234826 
L 256.386994 157.731941 
L 256.257259 169.268622 
L 256.059648 150.278523 
L 254.934342 155.154146 
L 254.355799 156.455415 
L 253.568367 163.318162 
L 253.355432 88.909902 
L 253.355432 114.820279 
z
" clip-path="url(#p699d6d4ea6)" style="fill: #1f77b4; fill-opacity: 0.2; stroke: #1f77b4; stroke-opacity: 0.2"/>
    <path d="M 260.15858 115.387373 
L 260.15858 150.251065 
L 260.790604 178.112259 
L 261.116814 165.74355 
L 261.711337 184.018492 
L 262.128749 177.968119 
L 262.57623 114.676274 
L 262.57623 106.865687 
L 263.621849 181.146673 
L 264.521803 180.284884 
L 266.469533 146.282802 
L 267.231679 174.738758 
L 268.593804 157.17129 
L 268.80228 170.741355 
L 269.928825 131.094771 
L 270.336632 180.181875 
L 271.639737 181.920765 
L 271.737393 171.371344 
L 273.861347 181.778553 
L 274.148667 120.378107 
L 275.978517 175.690984 
L 275.978517 132.703329 
L 275.978517 132.703329 
L 274.148667 87.824721 
L 273.861347 169.716466 
L 271.737393 155.951819 
L 271.639737 158.821173 
L 270.336632 161.339974 
L 269.928825 110.192161 
L 268.80228 120.753816 
L 268.593804 104.827044 
L 267.231679 141.480547 
L 266.469533 100.898146 
L 264.521803 108.250767 
L 263.621849 154.541334 
L 262.57623 70.458562 
L 262.57623 66.143709 
L 262.128749 164.090867 
L 261.711337 159.874033 
L 261.116814 131.35823 
L 260.790604 165.236964 
L 260.15858 115.387373 
z
" clip-path="url(#p699d6d4ea6)" style="fill: #1f77b4; fill-opacity: 0.2; stroke: #1f77b4; stroke-opacity: 0.2"/>
    <path d="M 277.96267 289.806763 
L 277.96267 289.868894 
L 277.96267 289.806763 
L 277.96267 289.806763 
z
" clip-path="url(#p699d6d4ea6)" style="fill: #1f77b4; fill-opacity: 0.2; stroke: #1f77b4; stroke-opacity: 0.2"/>
    <path d="M 278.038329 144.043844 
L 278.038329 179.225707 
L 278.038329 144.043844 
L 278.038329 144.043844 
z
" clip-path="url(#p699d6d4ea6)" style="fill: #1f77b4; fill-opacity: 0.2; stroke: #1f77b4; stroke-opacity: 0.2"/>
    <path d="M 278.369929 292.474802 
L 278.369929 292.603149 
L 279.204153 113.157615 
L 279.29247 294.601039 
L 282.307559 295.234896 
L 284.268636 178.667344 
L 284.334815 179.338411 
L 285.555207 179.638613 
L 285.902577 178.922718 
L 286.114879 172.206301 
L 287.185297 182.550472 
L 287.185297 170.363899 
L 287.185297 170.363899 
L 286.114879 143.343891 
L 285.902577 168.780635 
L 285.555207 159.685715 
L 284.334815 154.421519 
L 284.268636 156.542849 
L 282.307559 295.218885 
L 279.29247 294.531264 
L 279.204153 79.681869 
L 278.369929 292.474802 
z
" clip-path="url(#p699d6d4ea6)" style="fill: #1f77b4; fill-opacity: 0.2; stroke: #1f77b4; stroke-opacity: 0.2"/>
    <path d="M 287.85969 159.106017 
L 287.85969 177.694982 
L 288.055741 161.175292 
L 288.112822 182.320147 
L 289.064432 164.015985 
L 289.181699 118.67296 
L 289.181699 53.568 
L 289.181699 53.568 
L 289.064432 122.999198 
L 288.112822 142.194475 
L 288.055741 122.096455 
L 287.85969 159.106017 
z
" clip-path="url(#p699d6d4ea6)" style="fill: #1f77b4; fill-opacity: 0.2; stroke: #1f77b4; stroke-opacity: 0.2"/>
    <path d="M 291.312591 159.662815 
L 291.312591 175.853144 
L 292.07082 176.878289 
L 292.07082 186.718059 
L 292.872053 179.700293 
L 294.453286 182.119534 
L 294.980646 156.540374 
L 295.52022 117.95268 
L 299.175197 179.201936 
L 302.626722 174.797256 
L 304.104827 171.582536 
L 305.59547 150.515816 
L 305.59547 139.436815 
L 305.676359 182.175373 
L 309.054643 291.647812 
L 309.054643 291.355561 
L 309.054643 291.355561 
L 305.676359 170.047714 
L 305.59547 93.880812 
L 305.59547 96.597693 
L 304.104827 116.796952 
L 302.626722 155.857879 
L 299.175197 160.410503 
L 295.52022 65.87322 
L 294.980646 119.224331 
L 294.453286 169.267905 
L 292.872053 148.042169 
L 292.07082 168.554899 
L 292.07082 143.45512 
L 291.312591 159.662815 
z
" clip-path="url(#p699d6d4ea6)" style="fill: #1f77b4; fill-opacity: 0.2; stroke: #1f77b4; stroke-opacity: 0.2"/>
    <path d="M 309.259275 293.809535 
L 309.259275 293.949516 
L 309.293589 293.388514 
L 309.445901 287.162585 
L 309.445901 287.029697 
L 309.445901 287.029697 
L 309.293589 293.19491 
L 309.259275 293.809535 
z
" clip-path="url(#p699d6d4ea6)" style="fill: #1f77b4; fill-opacity: 0.2; stroke: #1f77b4; stroke-opacity: 0.2"/>
    <path d="M 309.755162 290.434913 
L 309.755162 295.21458 
L 309.755162 295.2476 
L 309.850656 294.929547 
L 310.325419 293.511403 
L 310.325419 293.39085 
L 310.325419 293.39085 
L 309.850656 290.483618 
L 309.755162 292.155408 
L 309.755162 290.434913 
z
" clip-path="url(#p699d6d4ea6)" style="fill: #1f77b4; fill-opacity: 0.2; stroke: #1f77b4; stroke-opacity: 0.2"/>
    <path d="M 310.515033 291.544494 
L 310.515033 291.628079 
L 311.016513 177.842522 
L 311.569953 295.469783 
L 311.569953 295.447999 
L 312.036211 295.238815 
L 315.301546 295.279272 
L 315.857809 172.340111 
L 317.065436 294.926499 
L 317.179165 169.60284 
L 317.517133 161.09226 
L 317.517133 174.061408 
L 318.752653 182.778749 
L 318.752653 161.780901 
L 318.752653 134.670424 
L 318.752653 134.670424 
L 318.752653 122.189938 
L 317.517133 166.532171 
L 317.517133 95.26251 
L 317.179165 154.611456 
L 317.065436 294.902769 
L 315.857809 150.622391 
L 315.301546 295.216611 
L 312.036211 294.360255 
L 311.569953 294.98068 
L 311.569953 295.090315 
L 311.016513 156.223194 
L 310.515033 291.544494 
z
" clip-path="url(#p699d6d4ea6)" style="fill: #1f77b4; fill-opacity: 0.2; stroke: #1f77b4; stroke-opacity: 0.2"/>
    <path d="M 321.241803 58.037223 
L 321.241803 126.621251 
L 322.587404 170.963279 
L 325.884175 154.490263 
L 326.300969 173.338463 
L 331.812806 178.426124 
L 331.812806 170.821477 
L 337.305751 140.626611 
L 344.474929 174.912835 
L 344.474929 174.497265 
L 353.507922 123.661031 
L 360.137437 174.595215 
L 360.137437 170.077222 
L 360.137437 170.077222 
L 353.507922 103.700961 
L 344.474929 169.252434 
L 344.474929 163.093062 
L 337.305751 98.621025 
L 331.812806 143.806141 
L 331.812806 151.643982 
L 326.300969 162.331388 
L 325.884175 117.212192 
L 322.587404 152.635981 
L 321.241803 58.037223 
z
" clip-path="url(#p699d6d4ea6)" style="fill: #1f77b4; fill-opacity: 0.2; stroke: #1f77b4; stroke-opacity: 0.2"/>
    <path d="M 386.558897 288.759124 
L 386.558897 289.094295 
L 386.788208 287.70465 
L 387.564769 292.07641 
L 387.993422 291.030303 
L 389.648866 294.270007 
L 390.605336 293.748901 
L 395.490749 295.012387 
L 398.487273 294.631481 
L 398.487273 294.559104 
L 398.487273 294.559104 
L 395.490749 294.97835 
L 390.605336 293.647924 
L 389.648866 294.249614 
L 387.993422 290.809582 
L 387.564769 291.773231 
L 386.788208 287.187196 
L 386.558897 288.759124 
z
" clip-path="url(#p699d6d4ea6)" style="fill: #1f77b4; fill-opacity: 0.2; stroke: #1f77b4; stroke-opacity: 0.2"/>
   </g>
   <g id="matplotlib.axis_1">
    <g id="xtick_1">
     <g id="line2d_1">
      <defs>
       <path id="ma9c3775a5b" d="M 0 0 
L 0 3.5 
" style="stroke: #000000; stroke-width: 0.8"/>
      </defs>
      <g>
       <use xlink:href="#ma9c3775a5b" x="73.832727" y="307.584" style="stroke: #000000; stroke-width: 0.8"/>
      </g>
     </g>
     <g id="text_1">
      <!-- 0 -->
      <g transform="translate(70.651477 322.182437)scale(0.1 -0.1)">
       <defs>
        <path id="DejaVuSans-30" d="M 2034 4250 
Q 1547 4250 1301 3770 
Q 1056 3291 1056 2328 
Q 1056 1369 1301 889 
Q 1547 409 2034 409 
Q 2525 409 2770 889 
Q 3016 1369 3016 2328 
Q 3016 3291 2770 3770 
Q 2525 4250 2034 4250 
z
M 2034 4750 
Q 2819 4750 3233 4129 
Q 3647 3509 3647 2328 
Q 3647 1150 3233 529 
Q 2819 -91 2034 -91 
Q 1250 -91 836 529 
Q 422 1150 422 2328 
Q 422 3509 836 4129 
Q 1250 4750 2034 4750 
z
" transform="scale(0.015625)"/>
       </defs>
       <use xlink:href="#DejaVuSans-30"/>
      </g>
     </g>
    </g>
    <g id="xtick_2">
     <g id="line2d_2">
      <g>
       <use xlink:href="#ma9c3775a5b" x="130.024071" y="307.584" style="stroke: #000000; stroke-width: 0.8"/>
      </g>
     </g>
     <g id="text_2">
      <!-- 50 -->
      <g transform="translate(123.661571 322.182437)scale(0.1 -0.1)">
       <defs>
        <path id="DejaVuSans-35" d="M 691 4666 
L 3169 4666 
L 3169 4134 
L 1269 4134 
L 1269 2991 
Q 1406 3038 1543 3061 
Q 1681 3084 1819 3084 
Q 2600 3084 3056 2656 
Q 3513 2228 3513 1497 
Q 3513 744 3044 326 
Q 2575 -91 1722 -91 
Q 1428 -91 1123 -41 
Q 819 9 494 109 
L 494 744 
Q 775 591 1075 516 
Q 1375 441 1709 441 
Q 2250 441 2565 725 
Q 2881 1009 2881 1497 
Q 2881 1984 2565 2268 
Q 2250 2553 1709 2553 
Q 1456 2553 1204 2497 
Q 953 2441 691 2322 
L 691 4666 
z
" transform="scale(0.015625)"/>
       </defs>
       <use xlink:href="#DejaVuSans-35"/>
       <use xlink:href="#DejaVuSans-30" x="63.623047"/>
      </g>
     </g>
    </g>
    <g id="xtick_3">
     <g id="line2d_3">
      <g>
       <use xlink:href="#ma9c3775a5b" x="186.215415" y="307.584" style="stroke: #000000; stroke-width: 0.8"/>
      </g>
     </g>
     <g id="text_3">
      <!-- 100 -->
      <g transform="translate(176.671665 322.182437)scale(0.1 -0.1)">
       <defs>
        <path id="DejaVuSans-31" d="M 794 531 
L 1825 531 
L 1825 4091 
L 703 3866 
L 703 4441 
L 1819 4666 
L 2450 4666 
L 2450 531 
L 3481 531 
L 3481 0 
L 794 0 
L 794 531 
z
" transform="scale(0.015625)"/>
       </defs>
       <use xlink:href="#DejaVuSans-31"/>
       <use xlink:href="#DejaVuSans-30" x="63.623047"/>
       <use xlink:href="#DejaVuSans-30" x="127.246094"/>
      </g>
     </g>
    </g>
    <g id="xtick_4">
     <g id="line2d_4">
      <g>
       <use xlink:href="#ma9c3775a5b" x="242.406759" y="307.584" style="stroke: #000000; stroke-width: 0.8"/>
      </g>
     </g>
     <g id="text_4">
      <!-- 150 -->
      <g transform="translate(232.863009 322.182437)scale(0.1 -0.1)">
       <use xlink:href="#DejaVuSans-31"/>
       <use xlink:href="#DejaVuSans-35" x="63.623047"/>
       <use xlink:href="#DejaVuSans-30" x="127.246094"/>
      </g>
     </g>
    </g>
    <g id="xtick_5">
     <g id="line2d_5">
      <g>
       <use xlink:href="#ma9c3775a5b" x="298.598103" y="307.584" style="stroke: #000000; stroke-width: 0.8"/>
      </g>
     </g>
     <g id="text_5">
      <!-- 200 -->
      <g transform="translate(289.054353 322.182437)scale(0.1 -0.1)">
       <defs>
        <path id="DejaVuSans-32" d="M 1228 531 
L 3431 531 
L 3431 0 
L 469 0 
L 469 531 
Q 828 903 1448 1529 
Q 2069 2156 2228 2338 
Q 2531 2678 2651 2914 
Q 2772 3150 2772 3378 
Q 2772 3750 2511 3984 
Q 2250 4219 1831 4219 
Q 1534 4219 1204 4116 
Q 875 4013 500 3803 
L 500 4441 
Q 881 4594 1212 4672 
Q 1544 4750 1819 4750 
Q 2544 4750 2975 4387 
Q 3406 4025 3406 3419 
Q 3406 3131 3298 2873 
Q 3191 2616 2906 2266 
Q 2828 2175 2409 1742 
Q 1991 1309 1228 531 
z
" transform="scale(0.015625)"/>
       </defs>
       <use xlink:href="#DejaVuSans-32"/>
       <use xlink:href="#DejaVuSans-30" x="63.623047"/>
       <use xlink:href="#DejaVuSans-30" x="127.246094"/>
      </g>
     </g>
    </g>
    <g id="xtick_6">
     <g id="line2d_6">
      <g>
       <use xlink:href="#ma9c3775a5b" x="354.789447" y="307.584" style="stroke: #000000; stroke-width: 0.8"/>
      </g>
     </g>
     <g id="text_6">
      <!-- 250 -->
      <g transform="translate(345.245697 322.182437)scale(0.1 -0.1)">
       <use xlink:href="#DejaVuSans-32"/>
       <use xlink:href="#DejaVuSans-35" x="63.623047"/>
       <use xlink:href="#DejaVuSans-30" x="127.246094"/>
      </g>
     </g>
    </g>
    <g id="xtick_7">
     <g id="line2d_7">
      <g>
       <use xlink:href="#ma9c3775a5b" x="410.980791" y="307.584" style="stroke: #000000; stroke-width: 0.8"/>
      </g>
     </g>
     <g id="text_7">
      <!-- 300 -->
      <g transform="translate(401.437041 322.182437)scale(0.1 -0.1)">
       <defs>
        <path id="DejaVuSans-33" d="M 2597 2516 
Q 3050 2419 3304 2112 
Q 3559 1806 3559 1356 
Q 3559 666 3084 287 
Q 2609 -91 1734 -91 
Q 1441 -91 1130 -33 
Q 819 25 488 141 
L 488 750 
Q 750 597 1062 519 
Q 1375 441 1716 441 
Q 2309 441 2620 675 
Q 2931 909 2931 1356 
Q 2931 1769 2642 2001 
Q 2353 2234 1838 2234 
L 1294 2234 
L 1294 2753 
L 1863 2753 
Q 2328 2753 2575 2939 
Q 2822 3125 2822 3475 
Q 2822 3834 2567 4026 
Q 2313 4219 1838 4219 
Q 1578 4219 1281 4162 
Q 984 4106 628 3988 
L 628 4550 
Q 988 4650 1302 4700 
Q 1616 4750 1894 4750 
Q 2613 4750 3031 4423 
Q 3450 4097 3450 3541 
Q 3450 3153 3228 2886 
Q 3006 2619 2597 2516 
z
" transform="scale(0.015625)"/>
       </defs>
       <use xlink:href="#DejaVuSans-33"/>
       <use xlink:href="#DejaVuSans-30" x="63.623047"/>
       <use xlink:href="#DejaVuSans-30" x="127.246094"/>
      </g>
     </g>
    </g>
    <g id="text_8">
     <!-- Global close to cube -->
     <g transform="translate(185.375625 335.860562)scale(0.1 -0.1)">
      <defs>
       <path id="DejaVuSans-47" d="M 3809 666 
L 3809 1919 
L 2778 1919 
L 2778 2438 
L 4434 2438 
L 4434 434 
Q 4069 175 3628 42 
Q 3188 -91 2688 -91 
Q 1594 -91 976 548 
Q 359 1188 359 2328 
Q 359 3472 976 4111 
Q 1594 4750 2688 4750 
Q 3144 4750 3555 4637 
Q 3966 4525 4313 4306 
L 4313 3634 
Q 3963 3931 3569 4081 
Q 3175 4231 2741 4231 
Q 1884 4231 1454 3753 
Q 1025 3275 1025 2328 
Q 1025 1384 1454 906 
Q 1884 428 2741 428 
Q 3075 428 3337 486 
Q 3600 544 3809 666 
z
" transform="scale(0.015625)"/>
       <path id="DejaVuSans-6c" d="M 603 4863 
L 1178 4863 
L 1178 0 
L 603 0 
L 603 4863 
z
" transform="scale(0.015625)"/>
       <path id="DejaVuSans-6f" d="M 1959 3097 
Q 1497 3097 1228 2736 
Q 959 2375 959 1747 
Q 959 1119 1226 758 
Q 1494 397 1959 397 
Q 2419 397 2687 759 
Q 2956 1122 2956 1747 
Q 2956 2369 2687 2733 
Q 2419 3097 1959 3097 
z
M 1959 3584 
Q 2709 3584 3137 3096 
Q 3566 2609 3566 1747 
Q 3566 888 3137 398 
Q 2709 -91 1959 -91 
Q 1206 -91 779 398 
Q 353 888 353 1747 
Q 353 2609 779 3096 
Q 1206 3584 1959 3584 
z
" transform="scale(0.015625)"/>
       <path id="DejaVuSans-62" d="M 3116 1747 
Q 3116 2381 2855 2742 
Q 2594 3103 2138 3103 
Q 1681 3103 1420 2742 
Q 1159 2381 1159 1747 
Q 1159 1113 1420 752 
Q 1681 391 2138 391 
Q 2594 391 2855 752 
Q 3116 1113 3116 1747 
z
M 1159 2969 
Q 1341 3281 1617 3432 
Q 1894 3584 2278 3584 
Q 2916 3584 3314 3078 
Q 3713 2572 3713 1747 
Q 3713 922 3314 415 
Q 2916 -91 2278 -91 
Q 1894 -91 1617 61 
Q 1341 213 1159 525 
L 1159 0 
L 581 0 
L 581 4863 
L 1159 4863 
L 1159 2969 
z
" transform="scale(0.015625)"/>
       <path id="DejaVuSans-61" d="M 2194 1759 
Q 1497 1759 1228 1600 
Q 959 1441 959 1056 
Q 959 750 1161 570 
Q 1363 391 1709 391 
Q 2188 391 2477 730 
Q 2766 1069 2766 1631 
L 2766 1759 
L 2194 1759 
z
M 3341 1997 
L 3341 0 
L 2766 0 
L 2766 531 
Q 2569 213 2275 61 
Q 1981 -91 1556 -91 
Q 1019 -91 701 211 
Q 384 513 384 1019 
Q 384 1609 779 1909 
Q 1175 2209 1959 2209 
L 2766 2209 
L 2766 2266 
Q 2766 2663 2505 2880 
Q 2244 3097 1772 3097 
Q 1472 3097 1187 3025 
Q 903 2953 641 2809 
L 641 3341 
Q 956 3463 1253 3523 
Q 1550 3584 1831 3584 
Q 2591 3584 2966 3190 
Q 3341 2797 3341 1997 
z
" transform="scale(0.015625)"/>
       <path id="DejaVuSans-20" transform="scale(0.015625)"/>
       <path id="DejaVuSans-63" d="M 3122 3366 
L 3122 2828 
Q 2878 2963 2633 3030 
Q 2388 3097 2138 3097 
Q 1578 3097 1268 2742 
Q 959 2388 959 1747 
Q 959 1106 1268 751 
Q 1578 397 2138 397 
Q 2388 397 2633 464 
Q 2878 531 3122 666 
L 3122 134 
Q 2881 22 2623 -34 
Q 2366 -91 2075 -91 
Q 1284 -91 818 406 
Q 353 903 353 1747 
Q 353 2603 823 3093 
Q 1294 3584 2113 3584 
Q 2378 3584 2631 3529 
Q 2884 3475 3122 3366 
z
" transform="scale(0.015625)"/>
       <path id="DejaVuSans-73" d="M 2834 3397 
L 2834 2853 
Q 2591 2978 2328 3040 
Q 2066 3103 1784 3103 
Q 1356 3103 1142 2972 
Q 928 2841 928 2578 
Q 928 2378 1081 2264 
Q 1234 2150 1697 2047 
L 1894 2003 
Q 2506 1872 2764 1633 
Q 3022 1394 3022 966 
Q 3022 478 2636 193 
Q 2250 -91 1575 -91 
Q 1294 -91 989 -36 
Q 684 19 347 128 
L 347 722 
Q 666 556 975 473 
Q 1284 391 1588 391 
Q 1994 391 2212 530 
Q 2431 669 2431 922 
Q 2431 1156 2273 1281 
Q 2116 1406 1581 1522 
L 1381 1569 
Q 847 1681 609 1914 
Q 372 2147 372 2553 
Q 372 3047 722 3315 
Q 1072 3584 1716 3584 
Q 2034 3584 2315 3537 
Q 2597 3491 2834 3397 
z
" transform="scale(0.015625)"/>
       <path id="DejaVuSans-65" d="M 3597 1894 
L 3597 1613 
L 953 1613 
Q 991 1019 1311 708 
Q 1631 397 2203 397 
Q 2534 397 2845 478 
Q 3156 559 3463 722 
L 3463 178 
Q 3153 47 2828 -22 
Q 2503 -91 2169 -91 
Q 1331 -91 842 396 
Q 353 884 353 1716 
Q 353 2575 817 3079 
Q 1281 3584 2069 3584 
Q 2775 3584 3186 3129 
Q 3597 2675 3597 1894 
z
M 3022 2063 
Q 3016 2534 2758 2815 
Q 2500 3097 2075 3097 
Q 1594 3097 1305 2825 
Q 1016 2553 972 2059 
L 3022 2063 
z
" transform="scale(0.015625)"/>
       <path id="DejaVuSans-74" d="M 1172 4494 
L 1172 3500 
L 2356 3500 
L 2356 3053 
L 1172 3053 
L 1172 1153 
Q 1172 725 1289 603 
Q 1406 481 1766 481 
L 2356 481 
L 2356 0 
L 1766 0 
Q 1100 0 847 248 
Q 594 497 594 1153 
L 594 3053 
L 172 3053 
L 172 3500 
L 594 3500 
L 594 4494 
L 1172 4494 
z
" transform="scale(0.015625)"/>
       <path id="DejaVuSans-75" d="M 544 1381 
L 544 3500 
L 1119 3500 
L 1119 1403 
Q 1119 906 1312 657 
Q 1506 409 1894 409 
Q 2359 409 2629 706 
Q 2900 1003 2900 1516 
L 2900 3500 
L 3475 3500 
L 3475 0 
L 2900 0 
L 2900 538 
Q 2691 219 2414 64 
Q 2138 -91 1772 -91 
Q 1169 -91 856 284 
Q 544 659 544 1381 
z
M 1991 3584 
L 1991 3584 
z
" transform="scale(0.015625)"/>
      </defs>
      <use xlink:href="#DejaVuSans-47"/>
      <use xlink:href="#DejaVuSans-6c" x="77.490234"/>
      <use xlink:href="#DejaVuSans-6f" x="105.273438"/>
      <use xlink:href="#DejaVuSans-62" x="166.455078"/>
      <use xlink:href="#DejaVuSans-61" x="229.931641"/>
      <use xlink:href="#DejaVuSans-6c" x="291.210938"/>
      <use xlink:href="#DejaVuSans-20" x="318.994141"/>
      <use xlink:href="#DejaVuSans-63" x="350.78125"/>
      <use xlink:href="#DejaVuSans-6c" x="405.761719"/>
      <use xlink:href="#DejaVuSans-6f" x="433.544922"/>
      <use xlink:href="#DejaVuSans-73" x="494.726562"/>
      <use xlink:href="#DejaVuSans-65" x="546.826172"/>
      <use xlink:href="#DejaVuSans-20" x="608.349609"/>
      <use xlink:href="#DejaVuSans-74" x="640.136719"/>
      <use xlink:href="#DejaVuSans-6f" x="679.345703"/>
      <use xlink:href="#DejaVuSans-20" x="740.527344"/>
      <use xlink:href="#DejaVuSans-63" x="772.314453"/>
      <use xlink:href="#DejaVuSans-75" x="827.294922"/>
      <use xlink:href="#DejaVuSans-62" x="890.673828"/>
      <use xlink:href="#DejaVuSans-65" x="954.150391"/>
     </g>
    </g>
   </g>
   <g id="matplotlib.axis_2">
    <g id="ytick_1">
     <g id="line2d_8">
      <defs>
       <path id="mbd56ce6cd8" d="M 0 0 
L -3.5 0 
" style="stroke: #000000; stroke-width: 0.8"/>
      </defs>
      <g>
       <use xlink:href="#mbd56ce6cd8" x="57.6" y="295.887591" style="stroke: #000000; stroke-width: 0.8"/>
      </g>
     </g>
     <g id="text_9">
      <!-- 0 -->
      <g transform="translate(44.2375 299.686809)scale(0.1 -0.1)">
       <use xlink:href="#DejaVuSans-30"/>
      </g>
     </g>
    </g>
    <g id="ytick_2">
     <g id="line2d_9">
      <g>
       <use xlink:href="#mbd56ce6cd8" x="57.6" y="254.904345" style="stroke: #000000; stroke-width: 0.8"/>
      </g>
     </g>
     <g id="text_10">
      <!-- 2 -->
      <g transform="translate(44.2375 258.703563)scale(0.1 -0.1)">
       <use xlink:href="#DejaVuSans-32"/>
      </g>
     </g>
    </g>
    <g id="ytick_3">
     <g id="line2d_10">
      <g>
       <use xlink:href="#mbd56ce6cd8" x="57.6" y="213.921098" style="stroke: #000000; stroke-width: 0.8"/>
      </g>
     </g>
     <g id="text_11">
      <!-- 4 -->
      <g transform="translate(44.2375 217.720317)scale(0.1 -0.1)">
       <defs>
        <path id="DejaVuSans-34" d="M 2419 4116 
L 825 1625 
L 2419 1625 
L 2419 4116 
z
M 2253 4666 
L 3047 4666 
L 3047 1625 
L 3713 1625 
L 3713 1100 
L 3047 1100 
L 3047 0 
L 2419 0 
L 2419 1100 
L 313 1100 
L 313 1709 
L 2253 4666 
z
" transform="scale(0.015625)"/>
       </defs>
       <use xlink:href="#DejaVuSans-34"/>
      </g>
     </g>
    </g>
    <g id="ytick_4">
     <g id="line2d_11">
      <g>
       <use xlink:href="#mbd56ce6cd8" x="57.6" y="172.937852" style="stroke: #000000; stroke-width: 0.8"/>
      </g>
     </g>
     <g id="text_12">
      <!-- 6 -->
      <g transform="translate(44.2375 176.737071)scale(0.1 -0.1)">
       <defs>
        <path id="DejaVuSans-36" d="M 2113 2584 
Q 1688 2584 1439 2293 
Q 1191 2003 1191 1497 
Q 1191 994 1439 701 
Q 1688 409 2113 409 
Q 2538 409 2786 701 
Q 3034 994 3034 1497 
Q 3034 2003 2786 2293 
Q 2538 2584 2113 2584 
z
M 3366 4563 
L 3366 3988 
Q 3128 4100 2886 4159 
Q 2644 4219 2406 4219 
Q 1781 4219 1451 3797 
Q 1122 3375 1075 2522 
Q 1259 2794 1537 2939 
Q 1816 3084 2150 3084 
Q 2853 3084 3261 2657 
Q 3669 2231 3669 1497 
Q 3669 778 3244 343 
Q 2819 -91 2113 -91 
Q 1303 -91 875 529 
Q 447 1150 447 2328 
Q 447 3434 972 4092 
Q 1497 4750 2381 4750 
Q 2619 4750 2861 4703 
Q 3103 4656 3366 4563 
z
" transform="scale(0.015625)"/>
       </defs>
       <use xlink:href="#DejaVuSans-36"/>
      </g>
     </g>
    </g>
    <g id="ytick_5">
     <g id="line2d_12">
      <g>
       <use xlink:href="#mbd56ce6cd8" x="57.6" y="131.954606" style="stroke: #000000; stroke-width: 0.8"/>
      </g>
     </g>
     <g id="text_13">
      <!-- 8 -->
      <g transform="translate(44.2375 135.753825)scale(0.1 -0.1)">
       <defs>
        <path id="DejaVuSans-38" d="M 2034 2216 
Q 1584 2216 1326 1975 
Q 1069 1734 1069 1313 
Q 1069 891 1326 650 
Q 1584 409 2034 409 
Q 2484 409 2743 651 
Q 3003 894 3003 1313 
Q 3003 1734 2745 1975 
Q 2488 2216 2034 2216 
z
M 1403 2484 
Q 997 2584 770 2862 
Q 544 3141 544 3541 
Q 544 4100 942 4425 
Q 1341 4750 2034 4750 
Q 2731 4750 3128 4425 
Q 3525 4100 3525 3541 
Q 3525 3141 3298 2862 
Q 3072 2584 2669 2484 
Q 3125 2378 3379 2068 
Q 3634 1759 3634 1313 
Q 3634 634 3220 271 
Q 2806 -91 2034 -91 
Q 1263 -91 848 271 
Q 434 634 434 1313 
Q 434 1759 690 2068 
Q 947 2378 1403 2484 
z
M 1172 3481 
Q 1172 3119 1398 2916 
Q 1625 2713 2034 2713 
Q 2441 2713 2670 2916 
Q 2900 3119 2900 3481 
Q 2900 3844 2670 4047 
Q 2441 4250 2034 4250 
Q 1625 4250 1398 4047 
Q 1172 3844 1172 3481 
z
" transform="scale(0.015625)"/>
       </defs>
       <use xlink:href="#DejaVuSans-38"/>
      </g>
     </g>
    </g>
    <g id="ytick_6">
     <g id="line2d_13">
      <g>
       <use xlink:href="#mbd56ce6cd8" x="57.6" y="90.97136" style="stroke: #000000; stroke-width: 0.8"/>
      </g>
     </g>
     <g id="text_14">
      <!-- 10 -->
      <g transform="translate(37.875 94.770578)scale(0.1 -0.1)">
       <use xlink:href="#DejaVuSans-31"/>
       <use xlink:href="#DejaVuSans-30" x="63.623047"/>
      </g>
     </g>
    </g>
    <g id="ytick_7">
     <g id="line2d_14">
      <g>
       <use xlink:href="#mbd56ce6cd8" x="57.6" y="49.988113" style="stroke: #000000; stroke-width: 0.8"/>
      </g>
     </g>
     <g id="text_15">
      <!-- 12 -->
      <g transform="translate(37.875 53.787332)scale(0.1 -0.1)">
       <use xlink:href="#DejaVuSans-31"/>
       <use xlink:href="#DejaVuSans-32" x="63.623047"/>
      </g>
     </g>
    </g>
    <g id="text_16">
     <!-- GFLOPS -->
     <g transform="translate(31.795312 194.007688)rotate(-90)scale(0.1 -0.1)">
      <defs>
       <path id="DejaVuSans-46" d="M 628 4666 
L 3309 4666 
L 3309 4134 
L 1259 4134 
L 1259 2759 
L 3109 2759 
L 3109 2228 
L 1259 2228 
L 1259 0 
L 628 0 
L 628 4666 
z
" transform="scale(0.015625)"/>
       <path id="DejaVuSans-4c" d="M 628 4666 
L 1259 4666 
L 1259 531 
L 3531 531 
L 3531 0 
L 628 0 
L 628 4666 
z
" transform="scale(0.015625)"/>
       <path id="DejaVuSans-4f" d="M 2522 4238 
Q 1834 4238 1429 3725 
Q 1025 3213 1025 2328 
Q 1025 1447 1429 934 
Q 1834 422 2522 422 
Q 3209 422 3611 934 
Q 4013 1447 4013 2328 
Q 4013 3213 3611 3725 
Q 3209 4238 2522 4238 
z
M 2522 4750 
Q 3503 4750 4090 4092 
Q 4678 3434 4678 2328 
Q 4678 1225 4090 567 
Q 3503 -91 2522 -91 
Q 1538 -91 948 565 
Q 359 1222 359 2328 
Q 359 3434 948 4092 
Q 1538 4750 2522 4750 
z
" transform="scale(0.015625)"/>
       <path id="DejaVuSans-50" d="M 1259 4147 
L 1259 2394 
L 2053 2394 
Q 2494 2394 2734 2622 
Q 2975 2850 2975 3272 
Q 2975 3691 2734 3919 
Q 2494 4147 2053 4147 
L 1259 4147 
z
M 628 4666 
L 2053 4666 
Q 2838 4666 3239 4311 
Q 3641 3956 3641 3272 
Q 3641 2581 3239 2228 
Q 2838 1875 2053 1875 
L 1259 1875 
L 1259 0 
L 628 0 
L 628 4666 
z
" transform="scale(0.015625)"/>
       <path id="DejaVuSans-53" d="M 3425 4513 
L 3425 3897 
Q 3066 4069 2747 4153 
Q 2428 4238 2131 4238 
Q 1616 4238 1336 4038 
Q 1056 3838 1056 3469 
Q 1056 3159 1242 3001 
Q 1428 2844 1947 2747 
L 2328 2669 
Q 3034 2534 3370 2195 
Q 3706 1856 3706 1288 
Q 3706 609 3251 259 
Q 2797 -91 1919 -91 
Q 1588 -91 1214 -16 
Q 841 59 441 206 
L 441 856 
Q 825 641 1194 531 
Q 1563 422 1919 422 
Q 2459 422 2753 634 
Q 3047 847 3047 1241 
Q 3047 1584 2836 1778 
Q 2625 1972 2144 2069 
L 1759 2144 
Q 1053 2284 737 2584 
Q 422 2884 422 3419 
Q 422 4038 858 4394 
Q 1294 4750 2059 4750 
Q 2388 4750 2728 4690 
Q 3069 4631 3425 4513 
z
" transform="scale(0.015625)"/>
      </defs>
      <use xlink:href="#DejaVuSans-47"/>
      <use xlink:href="#DejaVuSans-46" x="77.490234"/>
      <use xlink:href="#DejaVuSans-4c" x="135.009766"/>
      <use xlink:href="#DejaVuSans-4f" x="187.097656"/>
      <use xlink:href="#DejaVuSans-50" x="265.808594"/>
      <use xlink:href="#DejaVuSans-53" x="326.111328"/>
     </g>
    </g>
   </g>
   <g id="line2d_15">
    <path d="M 73.832727 243.91981 
L 73.832727 161.394989 
L 73.832727 295.47157 
L 73.832727 293.355198 
L 81.17577 262.08361 
L 81.175823 263.089928 
L 81.189807 239.22044 
L 81.276586 243.820873 
L 86.558039 264.656682 
L 86.616302 244.003011 
L 86.673961 239.222704 
L 86.862404 241.869915 
L 88.518918 226.812092 
L 88.527601 215.591097 
L 88.531096 263.627383 
L 88.613521 241.899406 
L 88.625371 246.860322 
L 88.691304 229.406744 
L 88.691304 229.829206 
L 88.720445 229.243759 
L 88.924528 242.141736 
L 89.034772 240.366358 
L 93.295797 262.250054 
L 93.298494 262.066397 
L 93.571236 238.352953 
L 93.631015 238.519816 
L 93.936354 240.97927 
L 94.123636 239.566418 
L 95.919063 262.364653 
L 95.959408 261.648878 
L 96.120592 242.713743 
L 96.164304 253.142885 
L 96.299682 239.221365 
L 96.398111 239.934714 
L 96.773271 241.227353 
L 99.283351 225.698898 
L 99.34897 208.273909 
L 99.370018 261.625682 
L 99.399878 226.892402 
L 99.444368 261.040331 
L 99.515195 232.176502 
L 99.639223 251.411814 
L 99.892081 226.817501 
L 100.465379 261.68467 
L 100.489159 260.97477 
L 100.520273 260.868863 
L 100.558241 257.632619 
L 100.586098 239.133556 
L 100.608628 258.428147 
L 100.675439 247.853671 
L 100.765487 254.637571 
L 100.902947 238.686397 
L 101.090765 242.210996 
L 101.476217 239.507735 
L 102.000536 238.674217 
L 103.215644 175.590698 
L 103.222475 164.527526 
L 103.228005 224.768563 
L 103.323032 177.390186 
L 103.334968 182.881968 
L 103.352725 261.961228 
L 103.455225 260.450755 
L 103.491113 260.696432 
L 103.54988 217.425934 
L 103.608163 221.957561 
L 103.814387 256.215756 
L 104.01633 226.718444 
L 104.236816 226.690636 
L 104.758862 239.73799 
L 105.391257 240.255506 
L 106.068124 262.174227 
L 106.086768 261.327644 
L 106.139091 261.369822 
L 106.248851 259.265636 
L 106.292224 259.61377 
L 106.433906 253.640261 
L 106.508401 256.232437 
L 106.791943 241.949432 
L 106.938449 243.093071 
L 107.700063 239.186634 
L 107.781404 261.551673 
L 107.807622 260.891656 
L 107.879174 261.422342 
L 107.920664 258.655718 
L 108.033473 260.42292 
L 108.07036 241.220437 
L 108.105825 250.258148 
L 108.30023 257.961183 
L 108.447931 239.002152 
L 108.832661 246.257368 
L 109.245635 239.046934 
L 110.232064 241.92682 
L 110.979169 261.096691 
L 111.052022 261.704951 
L 111.129165 256.57778 
L 111.244356 260.993161 
L 111.374645 246.820301 
L 111.574135 259.102068 
L 111.825561 238.337528 
L 111.825561 239.161221 
L 112.467203 260.960044 
L 112.637338 260.129645 
L 112.808618 221.152778 
L 112.819683 223.433343 
L 112.852642 220.545847 
L 112.921758 258.027125 
L 112.923499 212.718426 
L 112.952162 213.879609 
L 113.049232 195.686261 
L 113.102814 200.265551 
L 113.230842 261.475032 
L 113.309745 226.181418 
L 113.429303 226.321324 
L 113.565685 256.108343 
L 113.764723 259.364966 
L 114.03998 227.27974 
L 114.414545 227.381159 
L 114.820943 241.800724 
L 115.168693 239.108312 
L 115.231777 260.769215 
L 115.364253 262.118186 
L 115.39739 259.273436 
L 115.601557 261.55272 
L 115.661061 253.309271 
L 116.00245 260.149718 
L 116.129588 240.993819 
L 116.777155 251.960007 
L 117.159202 238.672508 
L 118.005399 223.063231 
L 118.038381 224.698907 
L 118.231778 208.69142 
L 118.278344 218.184368 
L 118.408457 194.493256 
L 118.49588 201.698101 
L 118.552479 261.366311 
L 118.679857 262.402363 
L 118.766637 225.577126 
L 118.963495 218.248077 
L 119.108131 247.728918 
L 119.471294 260.733716 
L 119.713814 225.130226 
L 119.749213 258.63654 
L 119.881659 258.96287 
L 120.346992 230.460376 
L 120.414191 248.573869 
L 120.572196 259.974526 
L 120.653749 252.325254 
L 120.80238 261.39519 
L 120.906733 257.823497 
L 121.018603 238.444312 
L 121.280008 260.160141 
L 121.504996 245.413284 
L 121.991929 243.292324 
L 122.182465 254.354536 
L 122.522996 245.354102 
L 122.575116 249.304902 
L 122.856752 240.588984 
L 122.958703 259.762323 
L 123.28448 261.394805 
L 123.308894 253.603655 
L 123.839882 260.075449 
L 123.911712 241.126126 
L 124.369175 248.594899 
L 124.865213 164.088545 
L 124.884128 256.665976 
L 124.967028 191.888334 
L 125.175584 239.480933 
L 125.197663 190.255468 
L 125.445718 203.887464 
L 125.951435 174.470011 
L 126.441704 259.304823 
L 126.458249 258.065455 
L 126.763347 262.185892 
L 126.85019 258.391184 
L 127.145591 220.741978 
L 127.17087 260.547451 
L 127.207818 222.566477 
L 127.283754 217.403752 
L 127.339468 225.903911 
L 127.384529 220.011507 
L 127.402751 260.282251 
L 127.518151 197.095517 
L 127.640653 249.033286 
L 127.66997 237.534031 
L 127.698246 208.932425 
L 127.973166 193.381157 
L 128.202693 255.327065 
L 128.348802 195.477018 
L 128.392251 259.084724 
L 128.392251 256.567744 
L 128.592559 256.846016 
L 128.987867 260.613017 
L 129.119707 222.661195 
L 129.2546 238.440137 
L 130.168345 226.253386 
L 131.031226 255.504669 
L 131.400752 254.109589 
L 131.773413 241.204712 
L 131.793635 260.787551 
L 132.83721 161.791966 
L 132.905696 224.958023 
L 132.9559 195.409581 
L 133.003304 125.995539 
L 133.003304 202.262549 
L 133.128674 257.869901 
L 133.149498 223.177574 
L 133.267034 184.936285 
L 133.383598 188.188401 
L 133.586715 192.30193 
L 133.796046 214.340926 
L 134.199932 176.775942 
L 134.338998 254.643802 
L 134.640905 175.183724 
L 134.669337 256.493802 
L 134.753829 249.159195 
L 135.062709 251.990624 
L 135.459784 261.08064 
L 135.684996 217.937939 
L 136.021396 257.675238 
L 136.845589 248.407177 
L 136.949788 218.077126 
L 138.303521 224.365901 
L 138.327747 260.449254 
L 138.340809 224.782576 
L 138.664974 218.590308 
L 138.751721 221.11816 
L 139.035085 209.38987 
L 139.184074 215.681989 
L 139.184074 215.252951 
L 139.700983 243.780727 
L 139.751159 192.658791 
L 140.044171 199.532484 
L 141.493278 261.992008 
L 141.567399 190.044129 
L 141.633426 224.078273 
L 141.730081 225.511775 
L 141.782517 222.88834 
L 141.925621 223.291195 
L 142.008601 218.234246 
L 142.234219 221.954084 
L 142.307992 195.781207 
L 142.378922 200.79357 
L 142.767732 215.902777 
L 143.063135 192.817011 
L 143.751526 239.192711 
L 143.832595 200.969901 
L 144.658543 195.860433 
L 145.408905 261.578287 
L 146.631401 195.234089 
L 148.026132 224.288733 
L 148.12561 222.433523 
L 148.271316 224.757615 
L 148.425603 214.620737 
L 148.655984 222.595681 
L 148.916562 197.933511 
L 149.315543 216.988681 
L 149.818394 201.268996 
L 149.818394 189.880702 
L 150.615753 204.304111 
L 151.101679 225.306941 
L 151.441948 222.837497 
L 151.784509 177.353387 
L 151.806638 179.286464 
L 151.863502 196.619547 
L 151.872556 169.279927 
L 151.906829 170.498632 
L 152.010789 216.79079 
L 152.01427 162.603722 
L 152.071597 171.181447 
L 152.265738 142.321882 
L 152.372901 161.672992 
L 152.47338 223.000937 
L 152.628957 223.064964 
L 152.786762 175.364781 
L 153.02588 182.059869 
L 153.09913 203.337138 
L 153.09913 199.096473 
L 153.298642 212.180727 
L 153.696719 217.694528 
L 153.961378 206.326373 
L 154.247233 174.657914 
L 154.996364 173.497783 
L 155.809158 192.136812 
L 156.504658 191.705605 
L 156.630826 222.874845 
L 156.895779 227.079282 
L 156.962054 220.038142 
L 157.370387 222.39648 
L 157.489394 203.277173 
L 158.172172 220.060879 
L 158.271596 198.845869 
L 158.426448 193.905259 
L 159.721583 207.846375 
L 160.485676 193.077611 
L 162.30364 177.268859 
L 162.339451 183.150262 
L 162.429513 164.140388 
L 162.429513 164.602475 
L 162.48506 182.619939 
L 162.630828 154.328385 
L 162.723961 181.244541 
L 162.984187 137.554352 
L 163.159034 165.074397 
L 163.272231 221.336013 
L 163.526986 225.262631 
L 163.700547 171.533625 
L 164.094263 169.377768 
L 164.383534 202.378654 
L 164.946187 222.368526 
L 165.044993 219.776106 
L 165.10986 224.121847 
L 165.594901 173.445839 
L 165.665699 217.180255 
L 165.930591 219.980127 
L 166.861257 177.866429 
L 166.995654 203.999024 
L 167.311666 223.141984 
L 167.47477 205.4671 
L 167.772032 224.674846 
L 167.980738 214.347591 
L 168.204479 192.777107 
L 168.204479 201.467765 
L 168.727288 221.17765 
L 169.177265 199.500119 
L 170.15113 196.854985 
L 170.532203 210.798591 
L 171.880776 194.487892 
L 172.084679 220.489821 
L 172.736232 226.990164 
L 172.78506 208.796358 
L 173.847037 221.484644 
L 173.990697 192.211061 
L 174.905622 205.643863 
L 175.935528 215.209425 
L 175.935528 212.66182 
L 176.101328 178.631245 
L 176.27929 171.449443 
L 176.51844 195.206287 
L 176.51844 192.252567 
L 176.562599 167.46855 
L 177.058708 158.017462 
L 178.070143 127.231719 
L 179.083771 219.822235 
L 179.693967 226.120889 
L 179.973803 208.874749 
L 179.973803 201.240718 
L 180.280996 177.875104 
L 180.363334 180.326619 
L 180.458454 170.51745 
L 180.509012 225.393211 
L 180.509012 221.489161 
L 180.582909 170.015849 
L 180.73478 163.273934 
L 180.846209 178.494656 
L 180.936331 166.558093 
L 180.972775 222.835364 
L 181.203576 145.198 
L 181.44858 206.489009 
L 181.507213 194.688603 
L 181.563765 166.656584 
L 182.113606 104.601404 
L 182.572659 215.170995 
L 182.864877 128.595255 
L 182.951774 216.856449 
L 183.35239 216.545786 
L 184.143006 220.811843 
L 184.406687 172.855813 
L 184.676474 193.092856 
L 186.503962 177.150725 
L 188.229725 212.142327 
L 188.968777 209.867013 
L 189.714099 199.382571 
L 189.714099 194.269166 
L 189.754543 222.986238 
L 191.546001 293.940608 
L 191.563158 293.192567 
L 191.793945 295.213557 
L 191.841692 294.926316 
L 192.079073 176.564664 
L 192.17388 178.919767 
L 192.322717 166.327972 
L 192.322717 170.996373 
L 192.42462 219.323831 
L 192.46627 170.62025 
L 192.70134 193.790638 
L 192.70134 222.853442 
L 192.934469 266.716287 
L 193.340703 141.364523 
L 193.759365 169.072449 
L 194.567137 90.779456 
L 194.845268 214.351881 
L 195.449082 154.055282 
L 195.505946 216.615043 
L 195.67493 198.327861 
L 195.67493 206.387285 
L 196.29269 205.530393 
L 196.29269 208.943765 
L 197.08684 223.276713 
L 197.537265 166.187104 
L 198.210066 217.991443 
L 199.858451 206.358926 
L 200.066848 94.953189 
L 200.066848 168.183431 
L 202.774315 177.547443 
L 202.822767 220.013241 
L 202.848891 178.757166 
L 203.058182 175.137116 
L 203.058182 176.803187 
L 203.16845 168.965244 
L 203.497221 165.852839 
L 203.670715 165.845138 
L 204.237444 165.980156 
L 204.535421 186.236096 
L 204.535421 169.797152 
L 205.569239 197.304566 
L 205.669591 112.227935 
L 205.669591 143.908667 
L 206.255614 128.530942 
L 209.153828 221.850161 
L 209.302071 109.038025 
L 209.434124 177.961988 
L 209.627436 179.331853 
L 209.732306 172.119622 
L 210.018515 174.076503 
L 210.184474 165.707881 
L 210.635711 166.831553 
L 210.783256 116.060012 
L 210.925117 170.460415 
L 210.925117 165.916244 
L 211.702737 172.864451 
L 212.293543 116.853484 
L 213.670325 191.21095 
L 213.832462 139.478566 
L 215.48436 97.981999 
L 216.985082 223.903524 
L 219.430074 116.894943 
L 222.023073 178.403788 
L 222.219537 179.286362 
L 222.418493 173.391537 
L 222.709904 171.315633 
L 223.018478 166.735653 
L 223.47924 170.883669 
L 224.000397 160.808246 
L 224.798358 176.602574 
L 225.80406 85.542309 
L 225.80406 109.515869 
L 227.398778 164.30842 
L 228.370632 175.137286 
L 229.05117 169.284144 
L 229.894276 103.537386 
L 230.188851 174.498289 
L 231.114033 177.017188 
L 231.425186 175.223215 
L 231.740797 174.075889 
L 232.219032 169.483784 
L 232.365533 135.354089 
L 232.764556 168.334702 
L 233.560711 167.307266 
L 234.090029 136.963168 
L 234.661738 117.230509 
L 236.16 150.605022 
L 237.785589 118.523303 
L 239.17659 100.64256 
L 239.428925 175.974916 
L 239.95883 175.814125 
L 240.09138 170.318584 
L 240.908046 172.277253 
L 241.146061 154.024858 
L 242.511617 175.948328 
L 242.710466 118.269275 
L 243.020169 127.351496 
L 245.610439 152.046694 
L 247.138624 96.217215 
L 252.711734 169.711548 
L 253.221245 183.492063 
L 253.355432 132.895735 
L 253.355432 136.167137 
L 253.568367 173.375861 
L 254.355799 168.655 
L 254.934342 162.016483 
L 256.059648 165.676236 
L 256.257259 175.459244 
L 256.386994 168.867755 
L 257.357074 94.306884 
L 257.498671 174.358946 
L 258.028454 173.834115 
L 259.889787 177.228798 
L 260.15858 131.845027 
L 260.790604 172.414598 
L 261.116814 150.491328 
L 261.711337 171.946262 
L 262.128749 171.805553 
L 262.57623 84.250449 
L 263.621849 169.031903 
L 264.521803 142.67374 
L 266.469533 124.235821 
L 267.231679 160.087811 
L 268.593804 132.427723 
L 268.80228 140.238754 
L 269.928825 120.716112 
L 270.336632 171.653993 
L 271.639737 173.946791 
L 271.737393 164.053094 
L 273.861347 175.74751 
L 274.148667 103.961102 
L 275.978517 154.197156 
L 277.74637 286.395727 
L 277.96267 289.835936 
L 277.96267 289.821701 
L 278.038329 161.634775 
L 278.038329 181.524252 
L 278.369929 292.540308 
L 279.204153 100.483653 
L 279.29247 294.564604 
L 282.307559 295.226279 
L 284.334815 168.248344 
L 285.555207 169.662164 
L 285.902577 173.656862 
L 286.114879 159.991736 
L 287.185297 176.457186 
L 287.185297 167.334828 
L 287.85969 168.401662 
L 288.055741 141.635873 
L 288.112822 164.558418 
L 289.064432 145.670205 
L 289.181699 77.608772 
L 291.312591 165.804667 
L 292.07082 162.716118 
L 292.07082 178.435481 
L 292.872053 163.871231 
L 294.453286 175.693719 
L 295.52022 96.28757 
L 299.175197 168.94383 
L 302.626722 165.746977 
L 304.104827 144.189744 
L 305.59547 129.427323 
L 305.59547 122.68271 
L 305.676359 176.155191 
L 309.054643 291.501687 
L 309.070695 290.323193 
L 309.259275 293.879525 
L 309.293589 293.285933 
L 309.500678 285.812269 
L 309.755162 293.696045 
L 309.850656 293.442076 
L 310.325419 293.500563 
L 310.515033 291.586286 
L 311.016513 166.888674 
L 311.569953 295.280049 
L 311.569953 295.222158 
L 312.036211 294.803362 
L 315.301546 295.241222 
L 315.857809 162.435793 
L 317.065436 294.911278 
L 317.179165 163.042365 
L 317.517133 138.548332 
L 317.517133 170.296789 
L 318.752653 152.484343 
L 318.752653 149.680761 
L 320.340953 178.00543 
L 321.241803 98.804761 
L 322.587404 161.79963 
L 325.884175 135.831234 
L 326.300969 167.834926 
L 331.812806 165.035053 
L 331.812806 161.580507 
L 337.305751 121.449165 
L 344.474929 169.002948 
L 344.474929 171.874849 
L 353.507922 112.838654 
L 360.137437 172.336218 
L 385.992042 286.233044 
L 386.129136 284.763918 
L 386.558897 288.964004 
L 386.788208 287.445923 
L 387.564769 291.929731 
L 387.993422 290.911303 
L 389.648866 294.257825 
L 390.605336 293.694792 
L 395.490749 294.993535 
L 398.487273 294.592013 
L 398.487273 294.592013 
" clip-path="url(#p699d6d4ea6)" style="fill: none; stroke: #1f77b4; stroke-width: 1.5; stroke-linecap: square"/>
   </g>
   <g id="line2d_16"/>
   <g id="patch_3">
    <path d="M 57.6 307.584 
L 57.6 41.472 
" style="fill: none; stroke: #000000; stroke-width: 0.8; stroke-linejoin: miter; stroke-linecap: square"/>
   </g>
   <g id="patch_4">
    <path d="M 414.72 307.584 
L 414.72 41.472 
" style="fill: none; stroke: #000000; stroke-width: 0.8; stroke-linejoin: miter; stroke-linecap: square"/>
   </g>
   <g id="patch_5">
    <path d="M 57.6 307.584 
L 414.72 307.584 
" style="fill: none; stroke: #000000; stroke-width: 0.8; stroke-linejoin: miter; stroke-linecap: square"/>
   </g>
   <g id="patch_6">
    <path d="M 57.6 41.472 
L 414.72 41.472 
" style="fill: none; stroke: #000000; stroke-width: 0.8; stroke-linejoin: miter; stroke-linecap: square"/>
   </g>
   <g id="text_17">
    <!-- Global Cubeness -->
    <g transform="translate(185.874375 35.472)scale(0.12 -0.12)">
     <defs>
      <path id="DejaVuSans-43" d="M 4122 4306 
L 4122 3641 
Q 3803 3938 3442 4084 
Q 3081 4231 2675 4231 
Q 1875 4231 1450 3742 
Q 1025 3253 1025 2328 
Q 1025 1406 1450 917 
Q 1875 428 2675 428 
Q 3081 428 3442 575 
Q 3803 722 4122 1019 
L 4122 359 
Q 3791 134 3420 21 
Q 3050 -91 2638 -91 
Q 1578 -91 968 557 
Q 359 1206 359 2328 
Q 359 3453 968 4101 
Q 1578 4750 2638 4750 
Q 3056 4750 3426 4639 
Q 3797 4528 4122 4306 
z
" transform="scale(0.015625)"/>
      <path id="DejaVuSans-6e" d="M 3513 2113 
L 3513 0 
L 2938 0 
L 2938 2094 
Q 2938 2591 2744 2837 
Q 2550 3084 2163 3084 
Q 1697 3084 1428 2787 
Q 1159 2491 1159 1978 
L 1159 0 
L 581 0 
L 581 3500 
L 1159 3500 
L 1159 2956 
Q 1366 3272 1645 3428 
Q 1925 3584 2291 3584 
Q 2894 3584 3203 3211 
Q 3513 2838 3513 2113 
z
" transform="scale(0.015625)"/>
     </defs>
     <use xlink:href="#DejaVuSans-47"/>
     <use xlink:href="#DejaVuSans-6c" x="77.490234"/>
     <use xlink:href="#DejaVuSans-6f" x="105.273438"/>
     <use xlink:href="#DejaVuSans-62" x="166.455078"/>
     <use xlink:href="#DejaVuSans-61" x="229.931641"/>
     <use xlink:href="#DejaVuSans-6c" x="291.210938"/>
     <use xlink:href="#DejaVuSans-20" x="318.994141"/>
     <use xlink:href="#DejaVuSans-43" x="350.78125"/>
     <use xlink:href="#DejaVuSans-75" x="420.605469"/>
     <use xlink:href="#DejaVuSans-62" x="483.984375"/>
     <use xlink:href="#DejaVuSans-65" x="547.460938"/>
     <use xlink:href="#DejaVuSans-6e" x="608.984375"/>
     <use xlink:href="#DejaVuSans-65" x="672.363281"/>
     <use xlink:href="#DejaVuSans-73" x="733.886719"/>
     <use xlink:href="#DejaVuSans-73" x="785.986328"/>
    </g>
   </g>
   <g id="legend_1">
    <g id="patch_7">
     <path d="M 339.12 78.82825 
L 407.72 78.82825 
Q 409.72 78.82825 409.72 76.82825 
L 409.72 48.472 
Q 409.72 46.472 407.72 46.472 
L 339.12 46.472 
Q 337.12 46.472 337.12 48.472 
L 337.12 76.82825 
Q 337.12 78.82825 339.12 78.82825 
z
" style="fill: #ffffff; opacity: 0.8; stroke: #cccccc; stroke-linejoin: miter"/>
    </g>
    <g id="text_18">
     <!-- Cluster -->
     <g transform="translate(355.673906 58.070437)scale(0.1 -0.1)">
      <defs>
       <path id="DejaVuSans-72" d="M 2631 2963 
Q 2534 3019 2420 3045 
Q 2306 3072 2169 3072 
Q 1681 3072 1420 2755 
Q 1159 2438 1159 1844 
L 1159 0 
L 581 0 
L 581 3500 
L 1159 3500 
L 1159 2956 
Q 1341 3275 1631 3429 
Q 1922 3584 2338 3584 
Q 2397 3584 2469 3576 
Q 2541 3569 2628 3553 
L 2631 2963 
z
" transform="scale(0.015625)"/>
      </defs>
      <use xlink:href="#DejaVuSans-43"/>
      <use xlink:href="#DejaVuSans-6c" x="69.824219"/>
      <use xlink:href="#DejaVuSans-75" x="97.607422"/>
      <use xlink:href="#DejaVuSans-73" x="160.986328"/>
      <use xlink:href="#DejaVuSans-74" x="213.085938"/>
      <use xlink:href="#DejaVuSans-65" x="252.294922"/>
      <use xlink:href="#DejaVuSans-72" x="313.818359"/>
     </g>
    </g>
    <g id="line2d_17">
     <path d="M 341.12 69.248562 
L 351.12 69.248562 
L 361.12 69.248562 
" style="fill: none; stroke: #1f77b4; stroke-width: 1.5; stroke-linecap: square"/>
    </g>
    <g id="text_19">
     <!-- Hopper -->
     <g transform="translate(369.12 72.748562)scale(0.1 -0.1)">
      <defs>
       <path id="DejaVuSans-48" d="M 628 4666 
L 1259 4666 
L 1259 2753 
L 3553 2753 
L 3553 4666 
L 4184 4666 
L 4184 0 
L 3553 0 
L 3553 2222 
L 1259 2222 
L 1259 0 
L 628 0 
L 628 4666 
z
" transform="scale(0.015625)"/>
       <path id="DejaVuSans-70" d="M 1159 525 
L 1159 -1331 
L 581 -1331 
L 581 3500 
L 1159 3500 
L 1159 2969 
Q 1341 3281 1617 3432 
Q 1894 3584 2278 3584 
Q 2916 3584 3314 3078 
Q 3713 2572 3713 1747 
Q 3713 922 3314 415 
Q 2916 -91 2278 -91 
Q 1894 -91 1617 61 
Q 1341 213 1159 525 
z
M 3116 1747 
Q 3116 2381 2855 2742 
Q 2594 3103 2138 3103 
Q 1681 3103 1420 2742 
Q 1159 2381 1159 1747 
Q 1159 1113 1420 752 
Q 1681 391 2138 391 
Q 2594 391 2855 752 
Q 3116 1113 3116 1747 
z
" transform="scale(0.015625)"/>
      </defs>
      <use xlink:href="#DejaVuSans-48"/>
      <use xlink:href="#DejaVuSans-6f" x="75.195312"/>
      <use xlink:href="#DejaVuSans-70" x="136.376953"/>
      <use xlink:href="#DejaVuSans-70" x="199.853516"/>
      <use xlink:href="#DejaVuSans-65" x="263.330078"/>
      <use xlink:href="#DejaVuSans-72" x="324.853516"/>
     </g>
    </g>
   </g>
  </g>
 </g>
 <defs>
  <clipPath id="p699d6d4ea6">
   <rect x="57.6" y="41.472" width="357.12" height="266.112"/>
  </clipPath>
 </defs>
</svg>
