<?xml version="1.0" encoding="utf-8" standalone="no"?>
<!DOCTYPE svg PUBLIC "-//W3C//DTD SVG 1.1//EN"
  "http://www.w3.org/Graphics/SVG/1.1/DTD/svg11.dtd">
<svg xmlns:xlink="http://www.w3.org/1999/xlink" width="460.8pt" height="345.6pt" viewBox="0 0 460.8 345.6" xmlns="http://www.w3.org/2000/svg" version="1.1">
 <metadata>
  <rdf:RDF xmlns:dc="http://purl.org/dc/elements/1.1/" xmlns:cc="http://creativecommons.org/ns#" xmlns:rdf="http://www.w3.org/1999/02/22-rdf-syntax-ns#">
   <cc:Work>
    <dc:type rdf:resource="http://purl.org/dc/dcmitype/StillImage"/>
    <dc:date>2024-05-02T16:24:38.569545</dc:date>
    <dc:format>image/svg+xml</dc:format>
    <dc:creator>
     <cc:Agent>
      <dc:title>Matplotlib v3.5.3, https://matplotlib.org/</dc:title>
     </cc:Agent>
    </dc:creator>
   </cc:Work>
  </rdf:RDF>
 </metadata>
 <defs>
  <style type="text/css">*{stroke-linejoin: round; stroke-linecap: butt}</style>
 </defs>
 <g id="figure_1">
  <g id="patch_1">
   <path d="M 0 345.6 
L 460.8 345.6 
L 460.8 0 
L 0 0 
z
" style="fill: #ffffff"/>
  </g>
  <g id="axes_1">
   <g id="patch_2">
    <path d="M 57.6 307.584 
L 414.72 307.584 
L 414.72 41.472 
L 57.6 41.472 
z
" style="fill: #ffffff"/>
   </g>
   <g id="PolyCollection_1">
    <path d="M 73.832727 102.13583 
L 73.832727 111.441443 
L 79.140427 110.348145 
L 84.448128 116.730493 
L 89.755828 147.210062 
L 95.063528 135.896812 
L 100.371228 293.660135 
L 105.678928 73.808887 
L 108.783734 295.488 
L 108.783734 292.400742 
L 108.783734 292.400742 
L 105.678928 72.736785 
L 100.371228 55.851434 
L 95.063528 83.895543 
L 89.755828 85.172754 
L 84.448128 103.565994 
L 79.140427 101.941662 
L 73.832727 102.13583 
z
" clip-path="url(#pe1d7d748c0)" style="fill: #1f77b4; fill-opacity: 0.2; stroke: #1f77b4; stroke-opacity: 0.2"/>
    <path d="M 114.091434 211.558235 
L 114.091434 294.046105 
L 116.294329 242.566325 
L 119.399134 244.60094 
L 349.384514 132.024084 
L 349.38457 132.351182 
L 349.385092 130.400005 
L 349.385169 146.128357 
L 349.385915 139.759513 
L 349.386027 143.935177 
L 349.387143 147.964918 
L 349.387316 143.092863 
L 349.389096 150.177722 
L 349.389381 152.979515 
L 349.39248 150.474885 
L 349.393002 152.011196 
L 349.399139 121.730767 
L 349.400255 134.32618 
L 349.415251 108.923004 
L 349.418349 109.997529 
L 349.473928 110.432153 
L 349.473928 109.029777 
L 349.488932 108.525033 
L 353.594854 156.384966 
L 353.594854 132.317965 
L 353.59637 136.398794 
L 353.598498 133.541456 
L 353.601615 139.23015 
L 353.606453 148.315739 
L 353.614571 151.174893 
L 353.614571 151.946432 
L 353.629833 139.603608 
L 353.664294 110.82381 
L 353.775848 108.070518 
L 354.698236 144.882477 
L 354.698617 156.354692 
L 354.70018 131.716804 
L 354.700703 132.014779 
L 354.702892 139.949093 
L 354.703637 144.098809 
L 354.706839 149.2509 
L 354.707955 140.348098 
L 354.712906 151.321555 
L 354.714687 143.054992 
L 354.722951 146.167964 
L 354.72605 147.616617 
L 354.741437 137.999004 
L 354.747575 147.274691 
L 354.781629 108.67697 
L 354.781629 109.396067 
L 354.796632 111.12995 
L 354.900888 109.435855 
L 354.95662 110.340037 
L 356.848677 136.525874 
L 356.849738 132.221241 
L 356.852704 140.702035 
L 356.85419 132.027288 
L 356.85419 139.537765 
L 356.858458 148.573537 
L 356.858458 143.878463 
L 356.860631 139.035079 
L 356.867102 144.37081 
L 356.870464 142.332942 
L 356.880995 144.091542 
L 356.886607 135.725205 
L 356.905585 138.394301 
L 356.91604 148.802431 
L 356.956284 108.603987 
L 356.97944 113.180138 
L 357.096634 107.312185 
L 357.167639 110.110041 
L 357.815369 131.912564 
L 357.81688 132.332417 
L 357.820478 143.403764 
L 357.822596 132.147095 
L 357.827756 149.373785 
L 357.830855 143.796197 
L 357.838643 147.576339 
L 357.843443 142.675095 
L 357.856023 146.272788 
L 357.86405 128.822323 
L 357.886434 143.069844 
L 357.901437 152.001879 
L 357.947718 107.103353 
L 357.981192 120.546876 
L 358.107453 108.398681 
L 358.212406 113.615397 
L 358.928585 136.535837 
L 358.937534 135.326 
L 358.950847 128.923629 
L 358.950847 146.869745 
L 358.971994 140.291297 
L 359.008884 146.105542 
L 359.008884 144.977004 
L 359.083548 121.424286 
L 359.235548 135.239462 
L 359.239677 132.062092 
L 359.244261 129.398365 
L 359.250182 140.023367 
L 359.257016 147.979399 
L 359.265949 138.211485 
L 359.276835 141.511606 
L 359.284813 112.279262 
L 359.291259 132.877671 
L 359.310342 140.300922 
L 359.335986 144.556335 
L 359.374969 110.999131 
L 359.427914 120.947079 
L 359.535438 106.581193 
L 359.679316 112.272424 
L 360.002543 73.134682 
L 360.002543 72.185607 
L 360.002543 72.185607 
L 359.679316 103.502978 
L 359.535438 102.679448 
L 359.427914 108.202838 
L 359.374969 103.515175 
L 359.335986 126.836308 
L 359.310342 125.773922 
L 359.291259 123.884665 
L 359.284813 103.574024 
L 359.276835 127.038582 
L 359.265949 126.297501 
L 359.257016 131.451654 
L 359.250182 124.010845 
L 359.244261 122.76948 
L 359.239677 123.844706 
L 359.235548 124.453564 
L 359.083548 106.815311 
L 359.008884 122.501993 
L 359.008884 124.583948 
L 358.971994 125.692495 
L 358.950847 127.617083 
L 358.950847 121.173073 
L 358.937534 123.632339 
L 358.928585 124.135847 
L 358.212406 102.052833 
L 358.107453 103.371821 
L 357.981192 104.429346 
L 357.947718 101.437299 
L 357.901437 128.989812 
L 357.886434 112.946866 
L 357.86405 120.44509 
L 357.856023 124.365316 
L 357.843443 126.285502 
L 357.838643 127.169442 
L 357.830855 123.885104 
L 357.827756 127.131755 
L 357.822596 124.631686 
L 357.820478 121.673546 
L 357.81688 124.384236 
L 357.815369 124.044821 
L 357.167639 103.356325 
L 357.096634 103.644843 
L 356.97944 103.889077 
L 356.956284 103.173332 
L 356.91604 129.415527 
L 356.905585 122.514748 
L 356.886607 122.972571 
L 356.880995 127.625212 
L 356.870464 128.409732 
L 356.867102 128.71402 
L 356.860631 126.52916 
L 356.858458 120.86687 
L 356.858458 128.268866 
L 356.85419 123.911662 
L 356.85419 124.656695 
L 356.852704 124.423561 
L 356.849738 124.142458 
L 356.848677 124.395662 
L 354.95662 103.102041 
L 354.900888 104.125951 
L 354.796632 102.242363 
L 354.781629 103.153637 
L 354.781629 100.610083 
L 354.747575 126.339446 
L 354.741437 110.474817 
L 354.72605 124.86306 
L 354.722951 121.969194 
L 354.714687 123.237647 
L 354.712906 125.113813 
L 354.707955 126.573634 
L 354.706839 127.805516 
L 354.703637 124.4463 
L 354.702892 124.239074 
L 354.700703 123.358697 
L 354.70018 121.522019 
L 354.698617 121.663715 
L 354.698236 122.568669 
L 353.775848 104.060445 
L 353.664294 103.863879 
L 353.629833 122.651661 
L 353.614571 121.324527 
L 353.614571 130.555547 
L 353.606453 129.943904 
L 353.601615 126.930564 
L 353.598498 125.493981 
L 353.59637 124.057937 
L 353.594854 123.401007 
L 353.594854 122.966888 
L 349.488932 104.370108 
L 349.473928 103.424477 
L 349.473928 102.595407 
L 349.418349 102.878017 
L 349.415251 103.527856 
L 349.400255 111.678488 
L 349.399139 106.075932 
L 349.393002 129.891032 
L 349.39248 124.19097 
L 349.389381 129.195538 
L 349.389096 126.485767 
L 349.387316 124.577935 
L 349.387143 127.125716 
L 349.386027 125.343401 
L 349.385915 123.623641 
L 349.385169 124.08191 
L 349.385092 124.824756 
L 349.38457 122.492569 
L 349.384514 123.09487 
L 119.399134 209.670362 
L 116.294329 188.466154 
L 114.091434 211.558235 
z
" clip-path="url(#pe1d7d748c0)" style="fill: #1f77b4; fill-opacity: 0.2; stroke: #1f77b4; stroke-opacity: 0.2"/>
    <path d="M 360.004496 69.330241 
L 360.004496 72.929782 
L 360.004782 74.401909 
L 360.00788 99.268667 
L 360.008403 72.699677 
L 360.014539 56.384668 
L 360.015655 61.900539 
L 360.030651 57.824517 
L 360.03375 56.424213 
L 360.038357 154.1546 
L 360.042633 131.479718 
L 360.049138 144.653196 
L 360.055275 129.463 
L 360.064899 153.308918 
L 360.074171 138.401084 
L 360.089329 155.237046 
L 360.089329 130.876564 
L 360.104332 118.719572 
L 360.130405 126.092922 
L 360.157184 144.989114 
L 360.208588 106.982329 
L 360.264321 128.081817 
L 360.394684 107.678232 
L 360.549687 120.130296 
L 360.712186 155.345265 
L 360.712186 145.370967 
L 360.716614 135.624198 
L 360.729026 141.564544 
L 360.729026 154.977411 
L 360.735557 141.32406 
L 360.754997 140.103714 
L 360.765236 134.125736 
L 360.798587 142.676811 
L 360.816065 147.104144 
L 360.816065 145.83432 
L 360.882225 124.802442 
L 360.916187 125.259491 
L 361.090354 114.661124 
L 361.097814 134.825915 
L 361.108723 143.939206 
L 361.114634 148.246265 
L 361.130744 144.613418 
L 361.14007 144.7383 
L 361.165369 138.654108 
L 361.173623 122.036401 
L 361.181551 134.859867 
L 361.181551 155.218918 
L 361.224863 140.332882 
L 361.257606 112.986334 
L 361.342245 123.761339 
L 361.432068 106.904434 
L 361.642448 123.064866 
L 361.777621 143.287158 
L 361.787766 131.596346 
L 361.798027 155.014769 
L 361.81303 156.74779 
L 361.828885 146.696767 
L 361.852498 143.734928 
L 361.879119 141.208284 
L 361.919701 142.658266 
L 361.970544 108.640394 
L 361.970544 109.919251 
L 362.050479 131.721915 
L 362.098786 156.213424 
L 362.098786 139.697285 
L 362.132433 144.449792 
L 362.173914 108.730217 
L 362.173914 109.027445 
L 362.188354 145.908885 
L 362.23353 143.101175 
L 362.248664 145.138519 
L 362.263984 144.181915 
L 362.28714 141.911356 
L 362.29422 141.692143 
L 362.29422 131.617278 
L 362.313469 145.722629 
L 362.351732 142.420439 
L 362.351732 153.724097 
L 362.377066 126.462499 
L 362.404334 122.318146 
L 362.475339 129.234193 
L 362.551641 121.728175 
L 362.616334 113.561223 
L 362.628011 148.527995 
L 362.652475 156.651293 
L 362.658583 151.402349 
L 362.696104 145.006895 
L 362.707005 145.01762 
L 362.769248 147.40731 
L 362.77827 143.898918 
L 362.77827 127.549657 
L 362.7923 117.483821 
L 362.908647 130.596423 
L 362.976468 106.283326 
L 363.218835 155.71947 
L 363.240615 156.000106 
L 363.246341 126.007896 
L 363.255418 155.287049 
L 363.288892 156.42985 
L 363.313393 145.063868 
L 363.360827 144.469085 
L 363.369126 143.875174 
L 363.37457 139.956081 
L 363.415153 109.391891 
L 363.421059 147.51816 
L 363.443115 143.177806 
L 363.520106 130.859912 
L 363.53116 133.998381 
L 363.55709 144.14431 
L 363.57044 134.691372 
L 363.594709 144.60304 
L 363.611703 153.210896 
L 363.629879 108.822032 
L 363.629879 108.459363 
L 363.672183 143.713467 
L 363.708407 134.010302 
L 363.786224 121.607985 
L 363.81646 139.098466 
L 363.870203 123.29804 
L 363.878395 126.454646 
L 363.922513 116.808318 
L 363.938421 153.549313 
L 363.989033 156.245006 
L 363.992812 152.687211 
L 364.074555 144.02395 
L 364.085546 119.958064 
L 364.155177 123.354463 
L 364.217016 72.979223 
L 364.221854 73.736864 
L 364.229972 74.877771 
L 364.229972 72.143352 
L 364.232809 143.509366 
L 364.232809 143.244779 
L 364.245234 71.641341 
L 364.276402 106.114071 
L 364.276402 109.084219 
L 364.279694 55.985784 
L 364.391248 57.848686 
L 364.462943 143.218188 
L 364.465351 155.406836 
L 364.509617 156.005123 
L 364.52217 143.268211 
L 364.529832 150.887988 
L 364.529832 154.893238 
L 364.568347 155.818346 
L 364.568347 145.244324 
L 364.592513 129.522443 
L 364.599524 127.994142 
L 364.601564 156.83079 
L 364.635495 133.221238 
L 364.639666 106.34568 
L 364.715064 140.400646 
L 364.741714 154.594332 
L 364.741714 143.998882 
L 364.769776 136.688483 
L 364.824856 147.832044 
L 364.843138 133.144457 
L 364.861798 106.632004 
L 364.987017 146.348042 
L 365.103414 148.317518 
L 365.152725 126.772152 
L 365.202135 123.379804 
L 365.204807 156.634703 
L 365.322239 72.626833 
L 365.322239 72.60356 
L 365.322239 72.60356 
L 365.204807 121.860581 
L 365.202135 106.625235 
L 365.152725 118.450127 
L 365.103414 124.303561 
L 364.987017 129.156649 
L 364.861798 100.986758 
L 364.843138 113.869752 
L 364.824856 127.341269 
L 364.769776 123.667615 
L 364.741714 119.902621 
L 364.741714 145.963277 
L 364.715064 123.234906 
L 364.639666 100.92576 
L 364.635495 111.633547 
L 364.601564 122.364875 
L 364.599524 117.395325 
L 364.592513 115.210191 
L 364.568347 126.163497 
L 364.568347 122.850904 
L 364.529832 143.643109 
L 364.529832 140.357275 
L 364.52217 124.787199 
L 364.509617 122.535387 
L 364.465351 122.076299 
L 364.462943 125.808473 
L 364.391248 57.460021 
L 364.279694 55.54154 
L 364.276402 103.232175 
L 364.276402 99.7496 
L 364.245234 62.647403 
L 364.232809 126.228771 
L 364.232809 118.033543 
L 364.229972 65.350002 
L 364.229972 69.204395 
L 364.221854 71.247259 
L 364.217016 72.809299 
L 364.155177 113.226737 
L 364.085546 108.882251 
L 364.074555 126.159241 
L 363.992812 127.185744 
L 363.989033 122.783044 
L 363.938421 128.748124 
L 363.922513 104.772402 
L 363.878395 111.458382 
L 363.870203 109.779407 
L 363.81646 125.345218 
L 363.786224 108.059612 
L 363.708407 116.695512 
L 363.672183 126.458263 
L 363.629879 99.66861 
L 363.629879 100.871775 
L 363.611703 133.843106 
L 363.594709 124.937881 
L 363.57044 118.561982 
L 363.55709 124.182622 
L 363.53116 116.377908 
L 363.520106 119.707786 
L 363.443115 124.813205 
L 363.421059 126.259136 
L 363.415153 102.601374 
L 363.37457 124.379685 
L 363.369126 125.073065 
L 363.360827 125.171277 
L 363.313393 123.514577 
L 363.288892 123.415447 
L 363.255418 121.265288 
L 363.246341 111.635028 
L 363.240615 123.888537 
L 363.218835 128.654667 
L 362.976468 101.925357 
L 362.908647 119.690209 
L 362.7923 107.914686 
L 362.77827 108.792386 
L 362.77827 108.850963 
L 362.769248 130.842467 
L 362.707005 130.070223 
L 362.696104 125.640697 
L 362.658583 127.110209 
L 362.652475 123.473014 
L 362.628011 127.324429 
L 362.616334 103.615026 
L 362.551641 106.986616 
L 362.475339 114.822338 
L 362.404334 107.797627 
L 362.377066 104.810221 
L 362.351732 127.1494 
L 362.351732 125.293898 
L 362.313469 131.483052 
L 362.29422 112.207804 
L 362.29422 107.88646 
L 362.28714 125.179261 
L 362.263984 123.709446 
L 362.248664 126.02393 
L 362.23353 126.372779 
L 362.188354 129.551215 
L 362.173914 101.629426 
L 362.173914 99.131963 
L 362.132433 125.798774 
L 362.098786 124.255802 
L 362.098786 121.479016 
L 362.050479 118.635241 
L 361.970544 102.016304 
L 361.970544 99.220938 
L 361.919701 124.801501 
L 361.879119 126.288971 
L 361.852498 123.965327 
L 361.828885 124.219323 
L 361.81303 123.027434 
L 361.798027 127.997465 
L 361.787766 121.028536 
L 361.777621 121.611322 
L 361.642448 108.032324 
L 361.432068 102.327208 
L 361.342245 110.400781 
L 361.257606 103.984361 
L 361.224863 126.496389 
L 361.181551 135.082958 
L 361.181551 115.993835 
L 361.173623 107.803403 
L 361.165369 125.487765 
L 361.14007 128.970395 
L 361.130744 125.078474 
L 361.114634 126.230744 
L 361.108723 120.902145 
L 361.097814 123.702945 
L 361.090354 104.183252 
L 360.916187 110.355648 
L 360.882225 110.167925 
L 360.816065 124.974678 
L 360.816065 124.712263 
L 360.798587 125.575229 
L 360.765236 124.233934 
L 360.754997 126.299634 
L 360.735557 124.946251 
L 360.729026 121.764957 
L 360.729026 123.762193 
L 360.716614 123.484257 
L 360.712186 122.340219 
L 360.712186 123.480983 
L 360.549687 103.132588 
L 360.394684 102.127099 
L 360.264321 105.320505 
L 360.208588 101.571463 
L 360.157184 122.876958 
L 360.130405 111.221319 
L 360.104332 72.177306 
L 360.089329 70.837282 
L 360.089329 58.899542 
L 360.074171 123.763716 
L 360.064899 131.021049 
L 360.055275 120.816794 
L 360.049138 121.67378 
L 360.042633 123.204764 
L 360.038357 122.78485 
L 360.03375 56.224301 
L 360.030651 57.407098 
L 360.015655 60.057538 
L 360.014539 55.742261 
L 360.008403 61.499422 
L 360.00788 67.44848 
L 360.004782 70.121216 
L 360.004496 69.330241 
z
" clip-path="url(#pe1d7d748c0)" style="fill: #1f77b4; fill-opacity: 0.2; stroke: #1f77b4; stroke-opacity: 0.2"/>
    <path d="M 365.328307 74.316141 
L 365.328307 74.543033 
L 365.328307 74.316141 
L 365.328307 74.316141 
z
" clip-path="url(#pe1d7d748c0)" style="fill: #1f77b4; fill-opacity: 0.2; stroke: #1f77b4; stroke-opacity: 0.2"/>
    <path d="M 365.338351 73.030772 
L 365.338351 75.074814 
L 365.34145 74.570787 
L 365.356838 58.603388 
L 365.356838 57.864154 
L 365.356838 57.864154 
L 365.34145 68.585748 
L 365.338351 73.030772 
z
" clip-path="url(#pe1d7d748c0)" style="fill: #1f77b4; fill-opacity: 0.2; stroke: #1f77b4; stroke-opacity: 0.2"/>
    <path d="M 365.362975 66.410063 
L 365.362975 67.409355 
L 365.379182 138.272783 
L 365.379182 123.667823 
L 365.379182 123.667823 
L 365.362975 66.410063 
z
" clip-path="url(#pe1d7d748c0)" style="fill: #1f77b4; fill-opacity: 0.2; stroke: #1f77b4; stroke-opacity: 0.2"/>
    <path d="M 365.397029 57.662257 
L 365.397029 58.029621 
L 365.412032 58.887855 
L 365.516288 57.732993 
L 365.533908 141.322823 
L 365.572021 56.229736 
L 365.5756 136.966427 
L 365.586228 155.096119 
L 365.586228 154.976559 
L 365.624954 151.0635 
L 365.624954 144.067198 
L 365.674452 156.020122 
L 365.702384 112.813772 
L 365.743918 137.547986 
L 365.844736 141.55979 
L 365.857388 156.29893 
L 366.022764 150.179948 
L 366.022764 156.028555 
L 366.184094 131.88546 
L 366.38967 146.969641 
L 366.38967 157.912298 
L 366.641072 108.619772 
L 366.641072 122.828954 
L 366.820467 157.871355 
L 366.820467 145.222373 
L 366.820467 145.222373 
L 366.641072 97.826187 
L 366.641072 102.904775 
L 366.38967 147.940772 
L 366.38967 128.499354 
L 366.184094 111.006106 
L 366.022764 126.673359 
L 366.022764 123.052648 
L 365.857388 147.556929 
L 365.844736 116.246548 
L 365.743918 123.06275 
L 365.702384 100.589252 
L 365.674452 122.406598 
L 365.624954 118.00966 
L 365.624954 111.432255 
L 365.586228 123.083218 
L 365.586228 112.679683 
L 365.5756 121.105198 
L 365.572021 55.873193 
L 365.533908 119.5499 
L 365.516288 57.337805 
L 365.412032 55.353535 
L 365.397029 57.662257 
z
" clip-path="url(#pe1d7d748c0)" style="fill: #1f77b4; fill-opacity: 0.2; stroke: #1f77b4; stroke-opacity: 0.2"/>
    <path d="M 367.476032 73.292527 
L 367.476032 74.215343 
L 367.482502 74.629388 
L 367.485865 74.744412 
L 367.496395 73.732215 
L 367.502008 73.916982 
L 367.520985 70.201702 
L 367.53144 70.773752 
L 367.571684 55.844631 
L 367.59484 57.696184 
L 367.712035 57.772081 
L 367.78304 56.046061 
L 368.443157 73.383487 
L 368.443157 72.780893 
L 368.443157 72.780893 
L 367.78304 55.329299 
L 367.712035 57.139973 
L 367.59484 55.19417 
L 367.571684 55.100059 
L 367.53144 65.850276 
L 367.520985 65.275409 
L 367.502008 69.591393 
L 367.496395 72.571107 
L 367.485865 73.898716 
L 367.482502 71.997064 
L 367.476032 73.292527 
z
" clip-path="url(#pe1d7d748c0)" style="fill: #1f77b4; fill-opacity: 0.2; stroke: #1f77b4; stroke-opacity: 0.2"/>
    <path d="M 368.471424 71.781805 
L 368.471424 75.279888 
L 368.471424 71.781805 
L 368.471424 71.781805 
z
" clip-path="url(#pe1d7d748c0)" style="fill: #1f77b4; fill-opacity: 0.2; stroke: #1f77b4; stroke-opacity: 0.2"/>
    <path d="M 368.501835 60.031001 
L 368.501835 63.497629 
L 368.516838 71.318024 
L 368.563118 56.282819 
L 368.596592 60.707762 
L 368.722853 57.886743 
L 368.827806 58.581955 
L 369.552934 73.612467 
L 369.566247 74.963047 
L 369.587394 74.169933 
L 369.624285 72.483579 
L 369.698949 61.228744 
L 369.859662 73.330135 
L 369.865583 74.556417 
L 369.872417 74.612489 
L 369.881349 75.038114 
L 369.892236 75.484716 
L 369.900213 55.961596 
L 369.906659 74.727021 
L 369.925742 70.932019 
L 369.951387 72.990828 
L 369.990369 56.677188 
L 370.043314 65.595113 
L 370.150838 56.236558 
L 370.294717 63.558951 
L 370.619897 184.356647 
L 370.619897 180.648124 
L 370.619897 180.648124 
L 370.294717 56.231339 
L 370.150838 55.777209 
L 370.043314 58.487494 
L 369.990369 55.852373 
L 369.951387 67.393381 
L 369.925742 66.208065 
L 369.906659 74.474156 
L 369.900213 54.763661 
L 369.892236 73.810658 
L 369.881349 74.877241 
L 369.872417 72.256195 
L 369.865583 73.651344 
L 369.859662 73.23232 
L 369.698949 59.994212 
L 369.624285 69.764652 
L 369.587394 71.318766 
L 369.566247 74.146138 
L 369.552934 73.452306 
L 368.827806 54.659657 
L 368.722853 56.780331 
L 368.596592 56.001819 
L 368.563118 55.781291 
L 368.516838 67.464024 
L 368.501835 60.031001 
z
" clip-path="url(#pe1d7d748c0)" style="fill: #1f77b4; fill-opacity: 0.2; stroke: #1f77b4; stroke-opacity: 0.2"/>
    <path d="M 370.623281 200.776182 
L 370.623281 201.986874 
L 370.623803 195.029557 
L 370.629939 234.562904 
L 370.631055 221.505604 
L 370.631055 220.176873 
L 370.631055 220.176873 
L 370.629939 232.886095 
L 370.623803 192.599771 
L 370.623281 200.776182 
z
" clip-path="url(#pe1d7d748c0)" style="fill: #1f77b4; fill-opacity: 0.2; stroke: #1f77b4; stroke-opacity: 0.2"/>
    <path d="M 370.646051 273.813842 
L 370.646051 276.353789 
L 370.64915 261.743124 
L 370.64915 260.822896 
L 370.64915 260.822896 
L 370.646051 273.813842 
z
" clip-path="url(#pe1d7d748c0)" style="fill: #1f77b4; fill-opacity: 0.2; stroke: #1f77b4; stroke-opacity: 0.2"/>
    <path d="M 370.704729 80.200219 
L 370.704729 295.447354 
L 370.704729 292.909013 
L 370.719732 294.800928 
L 370.745806 65.313089 
L 370.745806 64.242473 
L 370.745806 64.242473 
L 370.719732 85.338209 
L 370.704729 69.982887 
L 370.704729 80.200219 
z
" clip-path="url(#pe1d7d748c0)" style="fill: #1f77b4; fill-opacity: 0.2; stroke: #1f77b4; stroke-opacity: 0.2"/>
    <path d="M 370.823988 55.664793 
L 370.823988 56.655059 
L 370.879721 96.235467 
L 371.010084 56.369574 
L 371.010084 55.557949 
L 371.010084 55.557949 
L 370.879721 60.765279 
L 370.823988 55.664793 
z
" clip-path="url(#pe1d7d748c0)" style="fill: #1f77b4; fill-opacity: 0.2; stroke: #1f77b4; stroke-opacity: 0.2"/>
    <path d="M 371.165088 58.784284 
L 371.165088 61.013435 
L 371.165088 58.784284 
L 371.165088 58.784284 
z
" clip-path="url(#pe1d7d748c0)" style="fill: #1f77b4; fill-opacity: 0.2; stroke: #1f77b4; stroke-opacity: 0.2"/>
    <path d="M 371.332014 73.525683 
L 371.332014 73.622935 
L 371.332014 73.525683 
L 371.332014 73.525683 
z
" clip-path="url(#pe1d7d748c0)" style="fill: #1f77b4; fill-opacity: 0.2; stroke: #1f77b4; stroke-opacity: 0.2"/>
    <path d="M 371.350957 73.113063 
L 371.350957 74.902687 
L 371.370398 74.62207 
L 371.380637 74.555366 
L 371.413988 73.897337 
L 371.413988 71.1244 
L 371.413988 71.1244 
L 371.380637 72.027894 
L 371.370398 72.804206 
L 371.350957 73.113063 
z
" clip-path="url(#pe1d7d748c0)" style="fill: #1f77b4; fill-opacity: 0.2; stroke: #1f77b4; stroke-opacity: 0.2"/>
    <path d="M 371.431465 68.180758 
L 371.431465 73.159762 
L 371.497625 64.650352 
L 371.497625 62.503713 
L 371.531587 64.971625 
L 371.705754 56.625656 
L 371.713215 73.399676 
L 371.724123 73.780983 
L 371.730034 74.758305 
L 371.746144 75.064447 
L 371.75547 74.513077 
L 371.780769 73.807168 
L 371.789023 61.042201 
L 371.796951 93.449311 
L 371.796951 72.970407 
L 371.840263 75.6519 
L 371.873007 58.224023 
L 371.957645 81.724073 
L 372.047468 56.128655 
L 372.257848 65.176429 
L 372.393022 73.85264 
L 372.393022 73.064531 
L 372.393022 73.064531 
L 372.257848 61.860576 
L 372.047468 55.547799 
L 371.957645 61.103693 
L 371.873007 54.933084 
L 371.840263 73.674359 
L 371.796951 66.861367 
L 371.796951 74.174097 
L 371.789023 57.255439 
L 371.780769 72.644447 
L 371.75547 71.059719 
L 371.746144 73.275906 
L 371.730034 73.017289 
L 371.724123 73.751862 
L 371.713215 73.220466 
L 371.705754 54.648864 
L 371.531587 59.156761 
L 371.497625 61.971264 
L 371.497625 54.454767 
L 371.431465 68.180758 
z
" clip-path="url(#pe1d7d748c0)" style="fill: #1f77b4; fill-opacity: 0.2; stroke: #1f77b4; stroke-opacity: 0.2"/>
    <path d="M 372.413427 74.5389 
L 372.413427 76.447527 
L 372.413427 74.5389 
L 372.413427 74.5389 
z
" clip-path="url(#pe1d7d748c0)" style="fill: #1f77b4; fill-opacity: 0.2; stroke: #1f77b4; stroke-opacity: 0.2"/>
    <path d="M 372.444285 73.489386 
L 372.444285 74.900778 
L 372.444285 73.489386 
L 372.444285 73.489386 
z
" clip-path="url(#pe1d7d748c0)" style="fill: #1f77b4; fill-opacity: 0.2; stroke: #1f77b4; stroke-opacity: 0.2"/>
    <path d="M 372.49452 69.679968 
L 372.49452 71.319959 
L 372.49452 69.679968 
L 372.49452 69.679968 
z
" clip-path="url(#pe1d7d748c0)" style="fill: #1f77b4; fill-opacity: 0.2; stroke: #1f77b4; stroke-opacity: 0.2"/>
    <path d="M 372.585945 54.787554 
L 372.585945 56.083714 
L 372.665879 98.79619 
L 372.714187 75.25926 
L 372.747834 74.568053 
L 372.789314 56.094373 
L 372.803754 73.833012 
L 372.848931 76.619076 
L 372.864064 75.160629 
L 372.879385 74.447624 
L 372.90254 74.3353 
L 372.90962 69.59025 
L 372.928869 73.869645 
L 372.967132 74.56665 
L 372.992466 70.39576 
L 373.019735 67.924963 
L 373.09074 72.308017 
L 373.167042 63.16995 
L 373.231734 56.244382 
L 373.243411 75.9635 
L 373.267876 75.36408 
L 373.273983 74.844997 
L 373.311504 75.938806 
L 373.322405 71.067859 
L 373.384649 76.156071 
L 373.39367 66.597929 
L 373.4077 61.01559 
L 373.524047 72.088705 
L 373.591868 55.873815 
L 373.834235 76.913574 
L 373.834235 74.485277 
L 373.834235 74.485277 
L 373.591868 54.878837 
L 373.524047 64.155433 
L 373.4077 59.24221 
L 373.39367 59.315603 
L 373.384649 74.417968 
L 373.322405 66.936127 
L 373.311504 74.447799 
L 373.273983 74.443675 
L 373.267876 75.230443 
L 373.243411 72.859058 
L 373.231734 53.568 
L 373.167042 55.753372 
L 373.09074 64.335114 
L 373.019735 63.176043 
L 372.992466 60.722564 
L 372.967132 74.341991 
L 372.928869 72.555407 
L 372.90962 67.564816 
L 372.90254 74.036786 
L 372.879385 72.482814 
L 372.864064 75.127048 
L 372.848931 74.172015 
L 372.803754 72.132517 
L 372.789314 55.204553 
L 372.747834 74.04979 
L 372.714187 75.109203 
L 372.665879 61.728776 
L 372.585945 54.787554 
z
" clip-path="url(#pe1d7d748c0)" style="fill: #1f77b4; fill-opacity: 0.2; stroke: #1f77b4; stroke-opacity: 0.2"/>
    <path d="M 373.861741 59.112484 
L 373.861741 69.746213 
L 373.861741 69.028184 
L 373.870818 74.832185 
L 373.870818 74.670609 
L 373.870818 74.670609 
L 373.861741 66.440398 
L 373.861741 59.112484 
z
" clip-path="url(#pe1d7d748c0)" style="fill: #1f77b4; fill-opacity: 0.2; stroke: #1f77b4; stroke-opacity: 0.2"/>
    <path d="M 373.928794 68.674752 
L 373.928794 70.259722 
L 373.976227 74.603471 
L 373.976227 74.107529 
L 373.976227 74.107529 
L 373.928794 68.674752 
z
" clip-path="url(#pe1d7d748c0)" style="fill: #1f77b4; fill-opacity: 0.2; stroke: #1f77b4; stroke-opacity: 0.2"/>
    <path d="M 373.98997 73.889551 
L 373.98997 74.095129 
L 374.030553 56.721907 
L 374.036459 74.989683 
L 374.058515 74.363046 
L 374.058515 74.001739 
L 374.058515 74.001739 
L 374.036459 71.346063 
L 374.030553 56.20607 
L 373.98997 73.889551 
z
" clip-path="url(#pe1d7d748c0)" style="fill: #1f77b4; fill-opacity: 0.2; stroke: #1f77b4; stroke-opacity: 0.2"/>
    <path d="M 374.146561 62.446524 
L 374.146561 69.879632 
L 374.172491 73.780983 
L 374.18584 72.621063 
L 374.21011 76.192667 
L 374.227103 73.63019 
L 374.245279 56.527183 
L 374.245279 54.819763 
L 374.245279 54.819763 
L 374.227103 72.974613 
L 374.21011 74.563636 
L 374.18584 65.892743 
L 374.172491 72.66479 
L 374.146561 62.446524 
z
" clip-path="url(#pe1d7d748c0)" style="fill: #1f77b4; fill-opacity: 0.2; stroke: #1f77b4; stroke-opacity: 0.2"/>
    <path d="M 374.287583 75.100958 
L 374.287583 75.876558 
L 374.323808 84.846348 
L 374.401625 67.755771 
L 374.431861 72.79851 
L 374.485603 70.194325 
L 374.493796 70.988364 
L 374.537913 59.933217 
L 374.553821 76.176629 
L 374.604433 74.643909 
L 374.608213 74.046608 
L 374.689955 74.613998 
L 374.700947 60.923009 
L 374.770578 72.812616 
L 374.770578 64.493681 
L 374.770578 64.493681 
L 374.700947 55.21081 
L 374.689955 74.576396 
L 374.608213 69.866484 
L 374.604433 74.363046 
L 374.553821 73.433302 
L 374.537913 53.939283 
L 374.493796 61.832573 
L 374.485603 60.675806 
L 374.431861 67.702185 
L 374.401625 60.262416 
L 374.323808 63.047955 
L 374.287583 75.100958 
z
" clip-path="url(#pe1d7d748c0)" style="fill: #1f77b4; fill-opacity: 0.2; stroke: #1f77b4; stroke-opacity: 0.2"/>
    <path d="M 374.845372 189.134815 
L 374.845372 189.536015 
L 374.845372 189.134815 
L 374.845372 189.134815 
z
" clip-path="url(#pe1d7d748c0)" style="fill: #1f77b4; fill-opacity: 0.2; stroke: #1f77b4; stroke-opacity: 0.2"/>
    <path d="M 374.860634 211.699302 
L 374.860634 213.243318 
L 374.891802 56.473061 
L 374.895094 249.809011 
L 375.006649 276.319964 
L 375.078344 75.128044 
L 375.080751 74.188188 
L 375.080751 73.353505 
L 375.080751 73.353505 
L 375.078344 74.585723 
L 375.006649 275.337492 
L 374.895094 247.694307 
L 374.891802 54.831943 
L 374.860634 211.699302 
z
" clip-path="url(#pe1d7d748c0)" style="fill: #1f77b4; fill-opacity: 0.2; stroke: #1f77b4; stroke-opacity: 0.2"/>
    <path d="M 375.13757 71.093794 
L 375.13757 75.01024 
L 375.145232 72.04386 
L 375.145232 71.978591 
L 375.145232 71.978591 
L 375.13757 71.093794 
z
" clip-path="url(#pe1d7d748c0)" style="fill: #1f77b4; fill-opacity: 0.2; stroke: #1f77b4; stroke-opacity: 0.2"/>
    <path d="M 375.207913 67.723618 
L 375.207913 73.40284 
L 375.214924 73.777066 
L 375.214924 64.190838 
L 375.214924 64.190838 
L 375.207913 67.723618 
z
" clip-path="url(#pe1d7d748c0)" style="fill: #1f77b4; fill-opacity: 0.2; stroke: #1f77b4; stroke-opacity: 0.2"/>
    <path d="M 375.250895 68.71162 
L 375.250895 72.104269 
L 375.250895 68.71162 
L 375.250895 68.71162 
z
" clip-path="url(#pe1d7d748c0)" style="fill: #1f77b4; fill-opacity: 0.2; stroke: #1f77b4; stroke-opacity: 0.2"/>
    <path d="M 375.330464 67.443164 
L 375.330464 74.13962 
L 375.357115 73.282282 
L 375.357115 76.323922 
L 375.357115 74.002292 
L 375.357115 74.002292 
L 375.357115 72.625699 
L 375.330464 67.443164 
z
" clip-path="url(#pe1d7d748c0)" style="fill: #1f77b4; fill-opacity: 0.2; stroke: #1f77b4; stroke-opacity: 0.2"/>
    <path d="M 375.440256 74.69142 
L 375.440256 74.732794 
L 375.458538 71.565144 
L 375.477199 57.239967 
L 375.602417 73.7229 
L 375.718815 74.835538 
L 375.718815 71.363949 
L 375.718815 71.363949 
L 375.602417 69.904044 
L 375.477199 54.502512 
L 375.458538 64.67565 
L 375.440256 74.69142 
z
" clip-path="url(#pe1d7d748c0)" style="fill: #1f77b4; fill-opacity: 0.2; stroke: #1f77b4; stroke-opacity: 0.2"/>
    <path d="M 375.817535 61.56867 
L 375.817535 63.994607 
L 375.817535 62.754338 
L 375.820207 74.997196 
L 375.930981 203.222882 
L 375.930981 200.618839 
L 375.930981 200.618839 
L 375.820207 74.467163 
L 375.817535 61.785138 
L 375.817535 61.56867 
z
" clip-path="url(#pe1d7d748c0)" style="fill: #1f77b4; fill-opacity: 0.2; stroke: #1f77b4; stroke-opacity: 0.2"/>
    <path d="M 375.93764 231.079413 
L 375.93764 233.803712 
L 375.938756 223.872333 
L 375.943707 175.030246 
L 375.943707 174.43974 
L 375.943707 174.43974 
L 375.938756 220.957437 
L 375.93764 231.079413 
z
" clip-path="url(#pe1d7d748c0)" style="fill: #1f77b4; fill-opacity: 0.2; stroke: #1f77b4; stroke-opacity: 0.2"/>
    <path d="M 375.953752 193.394249 
L 375.953752 275.122544 
L 375.953752 277.087831 
L 375.956851 261.327356 
L 375.972238 225.842141 
L 375.972238 223.908867 
L 375.972238 223.908867 
L 375.956851 193.745581 
L 375.953752 194.785535 
L 375.953752 193.394249 
z
" clip-path="url(#pe1d7d748c0)" style="fill: #1f77b4; fill-opacity: 0.2; stroke: #1f77b4; stroke-opacity: 0.2"/>
    <path d="M 375.978375 202.282321 
L 375.978375 203.041481 
L 375.994583 74.95363 
L 376.012429 293.74645 
L 376.012429 291.760994 
L 376.027433 276.555233 
L 376.131689 279.070565 
L 376.149308 72.921884 
L 376.187421 261.203263 
L 376.191001 71.34319 
L 376.191001 68.656248 
L 376.191001 68.656248 
L 376.187421 260.250461 
L 376.149308 67.42973 
L 376.131689 275.240596 
L 376.027433 243.303114 
L 376.012429 264.149446 
L 376.012429 268.503351 
L 375.994583 70.848593 
L 375.978375 202.282321 
z
" clip-path="url(#pe1d7d748c0)" style="fill: #1f77b4; fill-opacity: 0.2; stroke: #1f77b4; stroke-opacity: 0.2"/>
    <path d="M 376.240354 64.539942 
L 376.240354 69.040049 
L 376.240354 64.539942 
L 376.240354 64.539942 
z
" clip-path="url(#pe1d7d748c0)" style="fill: #1f77b4; fill-opacity: 0.2; stroke: #1f77b4; stroke-opacity: 0.2"/>
    <path d="M 376.317785 55.902614 
L 376.317785 59.191053 
L 376.359318 71.369342 
L 376.460136 68.905004 
L 376.460136 65.690897 
L 376.460136 65.690897 
L 376.359318 70.748526 
L 376.317785 55.902614 
z
" clip-path="url(#pe1d7d748c0)" style="fill: #1f77b4; fill-opacity: 0.2; stroke: #1f77b4; stroke-opacity: 0.2"/>
    <path d="M 376.799495 57.213387 
L 376.799495 65.325011 
L 376.799495 57.213387 
L 376.799495 57.213387 
z
" clip-path="url(#pe1d7d748c0)" style="fill: #1f77b4; fill-opacity: 0.2; stroke: #1f77b4; stroke-opacity: 0.2"/>
    <path d="M 377.256472 54.23003 
L 377.256472 58.513765 
L 377.256472 54.23003 
L 377.256472 54.23003 
z
" clip-path="url(#pe1d7d748c0)" style="fill: #1f77b4; fill-opacity: 0.2; stroke: #1f77b4; stroke-opacity: 0.2"/>
    <path d="M 378.111795 182.925195 
L 378.111795 184.759143 
L 378.117408 177.535946 
L 378.136386 207.394327 
L 378.146841 197.911217 
L 378.187085 240.865078 
L 378.210241 229.999552 
L 378.327435 264.841438 
L 378.39844 250.671953 
L 378.39844 248.591851 
L 378.39844 248.591851 
L 378.327435 263.356562 
L 378.210241 228.069572 
L 378.187085 240.362681 
L 378.146841 196.175204 
L 378.136386 204.395925 
L 378.117408 175.140592 
L 378.111795 182.925195 
z
" clip-path="url(#pe1d7d748c0)" style="fill: #1f77b4; fill-opacity: 0.2; stroke: #1f77b4; stroke-opacity: 0.2"/>
    <path d="M 379.086824 192.13374 
L 379.086824 193.144444 
L 379.086824 192.13374 
L 379.086824 192.13374 
z
" clip-path="url(#pe1d7d748c0)" style="fill: #1f77b4; fill-opacity: 0.2; stroke: #1f77b4; stroke-opacity: 0.2"/>
    <path d="M 379.178519 254.411373 
L 379.178519 255.754344 
L 379.211993 220.492282 
L 379.338254 268.412589 
L 379.338254 262.552637 
L 379.338254 262.552637 
L 379.211993 217.771416 
L 379.178519 254.411373 
z
" clip-path="url(#pe1d7d748c0)" style="fill: #1f77b4; fill-opacity: 0.2; stroke: #1f77b4; stroke-opacity: 0.2"/>
    <path d="M 379.443206 237.57572 
L 379.443206 238.974301 
L 379.443206 237.57572 
L 379.443206 237.57572 
z
" clip-path="url(#pe1d7d748c0)" style="fill: #1f77b4; fill-opacity: 0.2; stroke: #1f77b4; stroke-opacity: 0.2"/>
    <path d="M 380.168334 211.636784 
L 380.168334 214.666882 
L 380.168334 211.636784 
L 380.168334 211.636784 
z
" clip-path="url(#pe1d7d748c0)" style="fill: #1f77b4; fill-opacity: 0.2; stroke: #1f77b4; stroke-opacity: 0.2"/>
    <path d="M 380.202795 181.837097 
L 380.202795 249.315049 
L 380.239685 196.333957 
L 380.314349 265.548036 
L 380.314349 231.095673 
L 380.314349 231.095673 
L 380.239685 194.329451 
L 380.202795 181.837097 
z
" clip-path="url(#pe1d7d748c0)" style="fill: #1f77b4; fill-opacity: 0.2; stroke: #1f77b4; stroke-opacity: 0.2"/>
    <path d="M 380.507636 178.756518 
L 380.507636 179.323097 
L 380.515614 241.259272 
L 380.52206 170.436779 
L 380.541142 201.316733 
L 380.566787 187.72701 
L 380.60577 233.716874 
L 380.658715 214.32609 
L 380.658715 210.340132 
L 380.658715 210.340132 
L 380.60577 231.791206 
L 380.566787 186.256854 
L 380.541142 198.452337 
L 380.52206 169.580922 
L 380.515614 239.388561 
L 380.507636 178.756518 
z
" clip-path="url(#pe1d7d748c0)" style="fill: #1f77b4; fill-opacity: 0.2; stroke: #1f77b4; stroke-opacity: 0.2"/>
    <path d="M 380.766238 254.371673 
L 380.766238 255.840102 
L 380.910117 230.195709 
L 381.24534 216.863575 
L 381.24534 216.295094 
L 381.24534 216.295094 
L 380.910117 228.79162 
L 380.766238 254.371673 
z
" clip-path="url(#pe1d7d748c0)" style="fill: #1f77b4; fill-opacity: 0.2; stroke: #1f77b4; stroke-opacity: 0.2"/>
    <path d="M 381.264551 243.422432 
L 381.264551 243.928803 
L 381.279938 226.48479 
L 381.279938 224.79707 
L 381.279938 224.79707 
L 381.264551 243.422432 
z
" clip-path="url(#pe1d7d748c0)" style="fill: #1f77b4; fill-opacity: 0.2; stroke: #1f77b4; stroke-opacity: 0.2"/>
    <path d="M 381.32013 187.205675 
L 381.32013 265.583589 
L 381.32013 266.686166 
L 381.335133 258.64477 
L 381.361206 210.121454 
L 381.361206 209.596498 
L 381.361206 209.596498 
L 381.335133 190.051112 
L 381.32013 188.261317 
L 381.32013 187.205675 
z
" clip-path="url(#pe1d7d748c0)" style="fill: #1f77b4; fill-opacity: 0.2; stroke: #1f77b4; stroke-opacity: 0.2"/>
    <path d="M 381.439389 251.202475 
L 381.439389 277.08598 
L 381.495121 262.848059 
L 381.625485 254.877145 
L 381.625485 253.8879 
L 381.625485 253.8879 
L 381.495121 213.704313 
L 381.439389 251.202475 
z
" clip-path="url(#pe1d7d748c0)" style="fill: #1f77b4; fill-opacity: 0.2; stroke: #1f77b4; stroke-opacity: 0.2"/>
    <path d="M 381.780488 218.707592 
L 381.780488 222.773221 
L 381.780488 218.707592 
L 381.780488 218.707592 
z
" clip-path="url(#pe1d7d748c0)" style="fill: #1f77b4; fill-opacity: 0.2; stroke: #1f77b4; stroke-opacity: 0.2"/>
    <path d="M 381.985798 170.620664 
L 381.985798 172.389111 
L 381.996037 168.685654 
L 382.029388 190.722008 
L 382.046865 184.078532 
L 382.113026 217.501359 
L 382.113026 215.674733 
L 382.146988 208.078547 
L 382.321154 234.329466 
L 382.321154 231.951535 
L 382.321154 231.951535 
L 382.146988 207.169134 
L 382.113026 215.210069 
L 382.113026 212.951669 
L 382.046865 184.053904 
L 382.029388 187.868345 
L 381.996037 168.672398 
L 381.985798 170.620664 
z
" clip-path="url(#pe1d7d748c0)" style="fill: #1f77b4; fill-opacity: 0.2; stroke: #1f77b4; stroke-opacity: 0.2"/>
    <path d="M 382.37087 172.240359 
L 382.37087 175.725522 
L 382.39617 165.735416 
L 382.404424 222.653036 
L 382.412352 195.330378 
L 382.455663 186.903615 
L 382.488407 228.790265 
L 382.573045 202.191006 
L 382.662868 249.030709 
L 382.873249 212.946159 
L 382.873249 210.835772 
L 382.873249 210.835772 
L 382.662868 246.926124 
L 382.573045 199.917403 
L 382.488407 225.400128 
L 382.455663 175.843753 
L 382.412352 194.911667 
L 382.404424 220.718553 
L 382.39617 163.788249 
L 382.37087 172.240359 
z
" clip-path="url(#pe1d7d748c0)" style="fill: #1f77b4; fill-opacity: 0.2; stroke: #1f77b4; stroke-opacity: 0.2"/>
    <path d="M 383.059685 182.862723 
L 383.059685 183.139173 
L 383.059685 182.862723 
L 383.059685 182.862723 
z
" clip-path="url(#pe1d7d748c0)" style="fill: #1f77b4; fill-opacity: 0.2; stroke: #1f77b4; stroke-opacity: 0.2"/>
    <path d="M 383.10992 205.177971 
L 383.10992 212.701068 
L 383.10992 205.177971 
L 383.10992 205.177971 
z
" clip-path="url(#pe1d7d748c0)" style="fill: #1f77b4; fill-opacity: 0.2; stroke: #1f77b4; stroke-opacity: 0.2"/>
    <path d="M 383.404714 247.163509 
L 383.404714 248.078007 
L 383.419155 180.279821 
L 383.419155 178.093109 
L 383.419155 178.093109 
L 383.404714 247.163509 
z
" clip-path="url(#pe1d7d748c0)" style="fill: #1f77b4; fill-opacity: 0.2; stroke: #1f77b4; stroke-opacity: 0.2"/>
    <path d="M 383.444086 205.082808 
L 383.444086 208.815959 
L 383.454541 196.950566 
L 383.454541 196.608753 
L 383.454541 196.608753 
L 383.444086 205.082808 
z
" clip-path="url(#pe1d7d748c0)" style="fill: #1f77b4; fill-opacity: 0.2; stroke: #1f77b4; stroke-opacity: 0.2"/>
    <path d="M 383.494785 177.529433 
L 383.494785 240.025394 
L 383.517941 230.45213 
L 383.52502 203.934719 
L 383.54427 186.344025 
L 383.582533 173.335334 
L 383.582533 172.970867 
L 383.582533 172.970867 
L 383.54427 183.651879 
L 383.52502 200.074554 
L 383.517941 174.454218 
L 383.494785 177.529433 
z
" clip-path="url(#pe1d7d748c0)" style="fill: #1f77b4; fill-opacity: 0.2; stroke: #1f77b4; stroke-opacity: 0.2"/>
    <path d="M 383.635135 221.227575 
L 383.635135 254.295739 
L 383.70614 249.208605 
L 383.782442 217.636017 
L 383.847135 226.138318 
L 383.847135 224.141125 
L 383.847135 224.141125 
L 383.782442 215.254203 
L 383.70614 210.468644 
L 383.635135 221.227575 
z
" clip-path="url(#pe1d7d748c0)" style="fill: #1f77b4; fill-opacity: 0.2; stroke: #1f77b4; stroke-opacity: 0.2"/>
    <path d="M 383.889383 168.015378 
L 383.889383 173.15425 
L 383.926905 157.467549 
L 383.937806 199.963752 
L 384.000049 173.953146 
L 384.009071 206.722607 
L 384.023101 222.944574 
L 384.139447 192.343688 
L 384.207269 244.788603 
L 384.207269 242.601957 
L 384.207269 242.601957 
L 384.139447 191.187633 
L 384.023101 222.01359 
L 384.009071 206.355571 
L 384.000049 170.873989 
L 383.937806 192.626969 
L 383.926905 157.239204 
L 383.889383 168.015378 
z
" clip-path="url(#pe1d7d748c0)" style="fill: #1f77b4; fill-opacity: 0.2; stroke: #1f77b4; stroke-opacity: 0.2"/>
    <path d="M 384.486219 179.354651 
L 384.486219 257.360175 
L 384.486219 255.250688 
L 384.519693 222.593005 
L 384.544194 202.41729 
L 384.591628 162.31346 
L 384.591628 161.485872 
L 384.591628 161.485872 
L 384.544194 200.979595 
L 384.519693 154.638892 
L 384.486219 179.558829 
L 384.486219 179.354651 
z
" clip-path="url(#pe1d7d748c0)" style="fill: #1f77b4; fill-opacity: 0.2; stroke: #1f77b4; stroke-opacity: 0.2"/>
    <path d="M 384.605371 159.390654 
L 384.605371 159.639887 
L 384.645954 263.54068 
L 384.645954 265.503541 
L 384.65186 184.972103 
L 384.673916 172.290707 
L 384.750907 238.184278 
L 384.761961 198.475237 
L 384.787891 169.478748 
L 384.80124 197.624316 
L 384.82551 159.477745 
L 384.842504 181.938346 
L 384.842504 179.397412 
L 384.842504 179.397412 
L 384.82551 156.204809 
L 384.80124 194.820237 
L 384.787891 166.274735 
L 384.761961 194.982282 
L 384.750907 193.197367 
L 384.673916 170.118405 
L 384.65186 172.998207 
L 384.645954 239.547487 
L 384.645954 239.975029 
L 384.605371 159.390654 
z
" clip-path="url(#pe1d7d748c0)" style="fill: #1f77b4; fill-opacity: 0.2; stroke: #1f77b4; stroke-opacity: 0.2"/>
    <path d="M 384.939208 204.427603 
L 384.939208 205.507425 
L 385.017025 211.136327 
L 385.047261 190.739012 
L 385.047261 185.686496 
L 385.047261 185.686496 
L 385.017025 210.480159 
L 384.939208 204.427603 
z
" clip-path="url(#pe1d7d748c0)" style="fill: #1f77b4; fill-opacity: 0.2; stroke: #1f77b4; stroke-opacity: 0.2"/>
    <path d="M 385.101004 199.745851 
L 385.101004 200.732048 
L 385.101004 199.745851 
L 385.101004 199.745851 
z
" clip-path="url(#pe1d7d748c0)" style="fill: #1f77b4; fill-opacity: 0.2; stroke: #1f77b4; stroke-opacity: 0.2"/>
    <path d="M 385.153314 221.51465 
L 385.153314 221.860864 
L 385.153314 221.640301 
L 385.169222 172.662927 
L 385.219833 153.58711 
L 385.223613 191.727748 
L 385.223613 189.097906 
L 385.223613 189.097906 
L 385.219833 152.873762 
L 385.169222 168.808221 
L 385.153314 219.57683 
L 385.153314 221.51465 
z
" clip-path="url(#pe1d7d748c0)" style="fill: #1f77b4; fill-opacity: 0.2; stroke: #1f77b4; stroke-opacity: 0.2"/>
    <path d="M 385.316347 214.657393 
L 385.316347 217.358079 
L 385.385978 194.755729 
L 385.46361 183.235042 
L 385.46361 181.425561 
L 385.46361 181.425561 
L 385.385978 193.889036 
L 385.316347 214.657393 
z
" clip-path="url(#pe1d7d748c0)" style="fill: #1f77b4; fill-opacity: 0.2; stroke: #1f77b4; stroke-opacity: 0.2"/>
    <path d="M 385.507203 235.842795 
L 385.507203 238.679295 
L 385.507203 235.842795 
L 385.507203 235.842795 
z
" clip-path="url(#pe1d7d748c0)" style="fill: #1f77b4; fill-opacity: 0.2; stroke: #1f77b4; stroke-opacity: 0.2"/>
    <path d="M 385.547385 193.660144 
L 385.547385 193.940514 
L 385.622049 222.402817 
L 385.693744 172.402061 
L 385.696152 175.676426 
L 385.696152 174.077585 
L 385.696152 174.077585 
L 385.693744 170.213264 
L 385.622049 221.549043 
L 385.547385 193.660144 
z
" clip-path="url(#pe1d7d748c0)" style="fill: #1f77b4; fill-opacity: 0.2; stroke: #1f77b4; stroke-opacity: 0.2"/>
    <path d="M 385.752971 172.070052 
L 385.752971 181.693623 
L 385.760633 198.887553 
L 385.799147 167.479404 
L 385.799147 167.094568 
L 385.799147 167.094568 
L 385.760633 196.533587 
L 385.752971 172.070052 
z
" clip-path="url(#pe1d7d748c0)" style="fill: #1f77b4; fill-opacity: 0.2; stroke: #1f77b4; stroke-opacity: 0.2"/>
    <path d="M 385.823314 202.214882 
L 385.823314 241.373494 
L 385.830325 194.032032 
L 385.830325 190.946542 
L 385.830325 190.946542 
L 385.823314 202.214882 
z
" clip-path="url(#pe1d7d748c0)" style="fill: #1f77b4; fill-opacity: 0.2; stroke: #1f77b4; stroke-opacity: 0.2"/>
    <path d="M 385.848843 199.502371 
L 385.848843 200.226219 
L 385.866296 195.967355 
L 385.866296 193.868078 
L 385.866296 193.868078 
L 385.848843 199.502371 
z
" clip-path="url(#pe1d7d748c0)" style="fill: #1f77b4; fill-opacity: 0.2; stroke: #1f77b4; stroke-opacity: 0.2"/>
    <path d="M 385.874487 187.459734 
L 385.874487 189.524445 
L 385.91347 233.269333 
L 385.945865 186.117198 
L 385.945865 183.685185 
L 385.945865 183.685185 
L 385.91347 232.614838 
L 385.874487 187.459734 
z
" clip-path="url(#pe1d7d748c0)" style="fill: #1f77b4; fill-opacity: 0.2; stroke: #1f77b4; stroke-opacity: 0.2"/>
    <path d="M 385.972515 177.457567 
L 385.972515 179.144093 
L 385.972515 177.457567 
L 385.972515 177.457567 
z
" clip-path="url(#pe1d7d748c0)" style="fill: #1f77b4; fill-opacity: 0.2; stroke: #1f77b4; stroke-opacity: 0.2"/>
    <path d="M 386.055657 161.271169 
L 386.055657 162.964925 
L 386.073939 242.161384 
L 386.092599 238.821787 
L 386.217817 228.706313 
L 386.334215 187.80986 
L 386.334215 185.82746 
L 386.334215 185.82746 
L 386.217817 188.113297 
L 386.092599 236.234978 
L 386.073939 205.002387 
L 386.055657 161.271169 
z
" clip-path="url(#pe1d7d748c0)" style="fill: #1f77b4; fill-opacity: 0.2; stroke: #1f77b4; stroke-opacity: 0.2"/>
    <path d="M 386.432935 212.15916 
L 386.432935 216.533412 
L 386.435608 173.363633 
L 386.587639 208.030846 
L 386.609983 175.475461 
L 386.609983 174.428084 
L 386.609983 174.428084 
L 386.587639 206.908126 
L 386.435608 161.777236 
L 386.432935 212.15916 
z
" clip-path="url(#pe1d7d748c0)" style="fill: #1f77b4; fill-opacity: 0.2; stroke: #1f77b4; stroke-opacity: 0.2"/>
    <path d="M 386.668906 210.575081 
L 386.668906 211.709274 
L 386.668906 210.575081 
L 386.668906 210.575081 
z
" clip-path="url(#pe1d7d748c0)" style="fill: #1f77b4; fill-opacity: 0.2; stroke: #1f77b4; stroke-opacity: 0.2"/>
    <path d="M 386.747089 248.745938 
L 386.747089 259.697551 
L 386.764709 187.862866 
L 386.764709 186.574396 
L 386.764709 186.574396 
L 386.747089 248.745938 
z
" clip-path="url(#pe1d7d748c0)" style="fill: #1f77b4; fill-opacity: 0.2; stroke: #1f77b4; stroke-opacity: 0.2"/>
    <path d="M 386.806401 179.108838 
L 386.806401 180.504207 
L 386.806401 179.108838 
L 386.806401 179.108838 
z
" clip-path="url(#pe1d7d748c0)" style="fill: #1f77b4; fill-opacity: 0.2; stroke: #1f77b4; stroke-opacity: 0.2"/>
    <path d="M 386.855755 192.292701 
L 386.855755 195.597016 
L 386.855755 192.292701 
L 386.855755 192.292701 
z
" clip-path="url(#pe1d7d748c0)" style="fill: #1f77b4; fill-opacity: 0.2; stroke: #1f77b4; stroke-opacity: 0.2"/>
    <path d="M 386.933185 230.243441 
L 386.933185 255.964426 
L 386.974719 174.678418 
L 387.075536 199.314174 
L 387.088188 220.798117 
L 387.253564 172.543682 
L 387.337088 191.395613 
L 387.354566 183.473357 
L 387.414895 211.026889 
L 387.414895 209.26765 
L 387.414895 209.26765 
L 387.354566 181.793314 
L 387.337088 189.560761 
L 387.253564 170.135642 
L 387.088188 172.980704 
L 387.075536 198.260223 
L 386.974719 172.671823 
L 386.933185 230.243441 
z
" clip-path="url(#pe1d7d748c0)" style="fill: #1f77b4; fill-opacity: 0.2; stroke: #1f77b4; stroke-opacity: 0.2"/>
    <path d="M 387.420726 217.578444 
L 387.420726 219.404457 
L 387.454688 206.07793 
L 387.620471 172.807579 
L 387.628855 235.288846 
L 387.628855 233.707674 
L 387.628855 233.707674 
L 387.620471 172.67165 
L 387.454688 205.219877 
L 387.420726 217.578444 
z
" clip-path="url(#pe1d7d748c0)" style="fill: #1f77b4; fill-opacity: 0.2; stroke: #1f77b4; stroke-opacity: 0.2"/>
    <path d="M 387.712124 221.228014 
L 387.712124 223.224596 
L 387.720052 197.103789 
L 387.763364 175.861088 
L 387.796107 227.674416 
L 387.871872 229.234182 
L 387.880746 199.589154 
L 387.970569 249.164098 
L 387.970569 248.091342 
L 387.970569 248.091342 
L 387.880746 197.763624 
L 387.871872 225.565193 
L 387.796107 226.327909 
L 387.763364 174.744487 
L 387.720052 194.56163 
L 387.712124 221.228014 
z
" clip-path="url(#pe1d7d748c0)" style="fill: #1f77b4; fill-opacity: 0.2; stroke: #1f77b4; stroke-opacity: 0.2"/>
    <path d="M 388.180949 211.722415 
L 388.180949 212.373948 
L 388.180949 211.722415 
L 388.180949 211.722415 
z
" clip-path="url(#pe1d7d748c0)" style="fill: #1f77b4; fill-opacity: 0.2; stroke: #1f77b4; stroke-opacity: 0.2"/>
    <path d="M 388.41762 206.416581 
L 388.41762 207.318821 
L 388.41762 206.416581 
L 388.41762 206.416581 
z
" clip-path="url(#pe1d7d748c0)" style="fill: #1f77b4; fill-opacity: 0.2; stroke: #1f77b4; stroke-opacity: 0.2"/>
    <path d="M 388.712415 248.269066 
L 388.712415 248.623638 
L 388.726855 181.925865 
L 388.726855 178.582698 
L 388.726855 178.582698 
L 388.712415 248.269066 
z
" clip-path="url(#pe1d7d748c0)" style="fill: #1f77b4; fill-opacity: 0.2; stroke: #1f77b4; stroke-opacity: 0.2"/>
    <path d="M 388.762241 180.960192 
L 388.762241 181.486559 
L 388.802485 224.534574 
L 388.802485 224.264446 
L 388.802485 224.264446 
L 388.762241 180.960192 
z
" clip-path="url(#pe1d7d748c0)" style="fill: #1f77b4; fill-opacity: 0.2; stroke: #1f77b4; stroke-opacity: 0.2"/>
    <path d="M 388.832721 199.871802 
L 388.832721 202.698879 
L 388.832721 199.871802 
L 388.832721 199.871802 
z
" clip-path="url(#pe1d7d748c0)" style="fill: #1f77b4; fill-opacity: 0.2; stroke: #1f77b4; stroke-opacity: 0.2"/>
    <path d="M 388.890233 172.644107 
L 388.890233 173.248894 
L 388.890233 172.644107 
L 388.890233 172.644107 
z
" clip-path="url(#pe1d7d748c0)" style="fill: #1f77b4; fill-opacity: 0.2; stroke: #1f77b4; stroke-opacity: 0.2"/>
    <path d="M 388.942835 210.849876 
L 388.942835 247.88998 
L 389.013841 232.177716 
L 389.090142 218.225055 
L 389.154835 227.803321 
L 389.154835 226.484619 
L 389.154835 226.484619 
L 389.090142 213.396944 
L 389.013841 193.250493 
L 388.942835 210.849876 
z
" clip-path="url(#pe1d7d748c0)" style="fill: #1f77b4; fill-opacity: 0.2; stroke: #1f77b4; stroke-opacity: 0.2"/>
    <path d="M 389.245506 191.166411 
L 389.245506 195.473262 
L 389.307749 170.858319 
L 389.316771 208.042165 
L 389.330801 224.12347 
L 389.447148 194.492715 
L 389.514969 243.060917 
L 389.514969 241.444618 
L 389.514969 241.444618 
L 389.447148 193.580554 
L 389.330801 221.395714 
L 389.316771 207.687496 
L 389.307749 169.12812 
L 389.245506 191.166411 
z
" clip-path="url(#pe1d7d748c0)" style="fill: #1f77b4; fill-opacity: 0.2; stroke: #1f77b4; stroke-opacity: 0.2"/>
    <path d="M 389.784842 199.250165 
L 389.784842 201.294801 
L 389.784842 199.250165 
L 389.784842 199.250165 
z
" clip-path="url(#pe1d7d748c0)" style="fill: #1f77b4; fill-opacity: 0.2; stroke: #1f77b4; stroke-opacity: 0.2"/>
    <path d="M 389.851895 198.143748 
L 389.851895 203.545945 
L 389.851895 198.143748 
L 389.851895 198.143748 
z
" clip-path="url(#pe1d7d748c0)" style="fill: #1f77b4; fill-opacity: 0.2; stroke: #1f77b4; stroke-opacity: 0.2"/>
    <path d="M 389.953654 235.130975 
L 389.953654 248.685133 
L 389.953654 235.130975 
L 389.953654 235.130975 
z
" clip-path="url(#pe1d7d748c0)" style="fill: #1f77b4; fill-opacity: 0.2; stroke: #1f77b4; stroke-opacity: 0.2"/>
    <path d="M 389.981616 170.120913 
L 389.981616 172.298235 
L 389.981616 170.120913 
L 389.981616 170.120913 
z
" clip-path="url(#pe1d7d748c0)" style="fill: #1f77b4; fill-opacity: 0.2; stroke: #1f77b4; stroke-opacity: 0.2"/>
    <path d="M 390.069661 196.564942 
L 390.069661 199.05469 
L 390.108941 194.461923 
L 390.150204 181.162331 
L 390.150204 180.042842 
L 390.150204 180.042842 
L 390.108941 192.640215 
L 390.069661 196.564942 
z
" clip-path="url(#pe1d7d748c0)" style="fill: #1f77b4; fill-opacity: 0.2; stroke: #1f77b4; stroke-opacity: 0.2"/>
    <path d="M 390.246908 203.102795 
L 390.246908 205.31677 
L 390.324726 211.876447 
L 390.354961 190.407936 
L 390.354961 189.234201 
L 390.354961 189.234201 
L 390.324726 210.847466 
L 390.246908 203.102795 
z
" clip-path="url(#pe1d7d748c0)" style="fill: #1f77b4; fill-opacity: 0.2; stroke: #1f77b4; stroke-opacity: 0.2"/>
    <path d="M 390.461014 220.703191 
L 390.461014 226.157389 
L 390.461014 221.526714 
L 390.531313 191.456338 
L 390.531313 189.344163 
L 390.531313 189.344163 
L 390.461014 220.446774 
L 390.461014 220.703191 
z
" clip-path="url(#pe1d7d748c0)" style="fill: #1f77b4; fill-opacity: 0.2; stroke: #1f77b4; stroke-opacity: 0.2"/>
    <path d="M 390.624047 215.127525 
L 390.624047 216.853671 
L 390.693678 198.087089 
L 390.77131 183.512666 
L 390.814903 239.688145 
L 390.855086 177.015759 
L 390.855086 174.302615 
L 390.855086 174.302615 
L 390.814903 236.418897 
L 390.77131 183.212071 
L 390.693678 193.644331 
L 390.624047 215.127525 
z
" clip-path="url(#pe1d7d748c0)" style="fill: #1f77b4; fill-opacity: 0.2; stroke: #1f77b4; stroke-opacity: 0.2"/>
    <path d="M 391.001444 167.527758 
L 391.001444 169.075934 
L 391.001444 167.527758 
L 391.001444 167.527758 
z
" clip-path="url(#pe1d7d748c0)" style="fill: #1f77b4; fill-opacity: 0.2; stroke: #1f77b4; stroke-opacity: 0.2"/>
    <path d="M 391.060671 170.759086 
L 391.060671 172.217814 
L 391.068333 198.259308 
L 391.106848 166.57181 
L 391.131014 223.765012 
L 391.138025 192.818032 
L 391.138025 191.598397 
L 391.138025 191.598397 
L 391.131014 189.334039 
L 391.106848 165.821936 
L 391.068333 196.081677 
L 391.060671 170.759086 
z
" clip-path="url(#pe1d7d748c0)" style="fill: #1f77b4; fill-opacity: 0.2; stroke: #1f77b4; stroke-opacity: 0.2"/>
    <path d="M 391.156543 183.267201 
L 391.156543 183.98992 
L 391.173996 197.080711 
L 391.173996 194.886225 
L 391.173996 194.886225 
L 391.156543 183.267201 
z
" clip-path="url(#pe1d7d748c0)" style="fill: #1f77b4; fill-opacity: 0.2; stroke: #1f77b4; stroke-opacity: 0.2"/>
    <path d="M 391.22117 216.418769 
L 391.22117 216.490829 
L 391.253565 185.854988 
L 391.280215 179.986034 
L 391.280215 176.818943 
L 391.280215 176.818943 
L 391.253565 183.958889 
L 391.22117 216.418769 
z
" clip-path="url(#pe1d7d748c0)" style="fill: #1f77b4; fill-opacity: 0.2; stroke: #1f77b4; stroke-opacity: 0.2"/>
    <path d="M 391.363357 162.199666 
L 391.363357 163.399037 
L 391.381639 204.248626 
L 391.400299 240.311359 
L 391.525518 212.743084 
L 391.641915 186.503812 
L 391.641915 184.403153 
L 391.641915 184.403153 
L 391.525518 178.942725 
L 391.400299 237.77562 
L 391.381639 201.43397 
L 391.363357 162.199666 
z
" clip-path="url(#pe1d7d748c0)" style="fill: #1f77b4; fill-opacity: 0.2; stroke: #1f77b4; stroke-opacity: 0.2"/>
    <path d="M 391.740636 212.603604 
L 391.740636 215.001866 
L 391.743308 161.042244 
L 391.917683 177.71194 
L 391.917683 177.389286 
L 391.917683 177.389286 
L 391.743308 159.762899 
L 391.740636 212.603604 
z
" clip-path="url(#pe1d7d748c0)" style="fill: #1f77b4; fill-opacity: 0.2; stroke: #1f77b4; stroke-opacity: 0.2"/>
    <path d="M 392.054789 228.966862 
L 392.054789 232.93155 
L 392.072409 188.944133 
L 392.072409 187.189138 
L 392.072409 187.189138 
L 392.054789 228.966862 
z
" clip-path="url(#pe1d7d748c0)" style="fill: #1f77b4; fill-opacity: 0.2; stroke: #1f77b4; stroke-opacity: 0.2"/>
    <path d="M 392.114101 178.609335 
L 392.114101 179.027243 
L 392.114101 178.609335 
L 392.114101 178.609335 
z
" clip-path="url(#pe1d7d748c0)" style="fill: #1f77b4; fill-opacity: 0.2; stroke: #1f77b4; stroke-opacity: 0.2"/>
    <path d="M 392.163455 192.057196 
L 392.163455 193.182244 
L 392.163455 192.057196 
L 392.163455 192.057196 
z
" clip-path="url(#pe1d7d748c0)" style="fill: #1f77b4; fill-opacity: 0.2; stroke: #1f77b4; stroke-opacity: 0.2"/>
    <path d="M 392.240885 228.983653 
L 392.240885 230.184099 
L 392.282419 176.44015 
L 392.383237 199.584681 
L 392.383237 197.871971 
L 392.383237 197.871971 
L 392.282419 174.443446 
L 392.240885 228.983653 
z
" clip-path="url(#pe1d7d748c0)" style="fill: #1f77b4; fill-opacity: 0.2; stroke: #1f77b4; stroke-opacity: 0.2"/>
    <path d="M 392.561265 170.201019 
L 392.561265 170.269185 
L 392.561265 170.201019 
L 392.561265 170.201019 
z
" clip-path="url(#pe1d7d748c0)" style="fill: #1f77b4; fill-opacity: 0.2; stroke: #1f77b4; stroke-opacity: 0.2"/>
    <path d="M 392.722595 208.307823 
L 392.722595 210.303563 
L 392.722595 208.307823 
L 392.722595 208.307823 
z
" clip-path="url(#pe1d7d748c0)" style="fill: #1f77b4; fill-opacity: 0.2; stroke: #1f77b4; stroke-opacity: 0.2"/>
    <path d="M 392.762388 189.957508 
L 392.762388 190.069258 
L 392.928171 174.660874 
L 392.936555 217.388321 
L 392.936555 216.38226 
L 392.936555 216.38226 
L 392.928171 170.36775 
L 392.762388 189.957508 
z
" clip-path="url(#pe1d7d748c0)" style="fill: #1f77b4; fill-opacity: 0.2; stroke: #1f77b4; stroke-opacity: 0.2"/>
    <path d="M 393.103807 210.485616 
L 393.103807 211.564078 
L 393.179573 226.738014 
L 393.278269 233.003231 
L 393.278269 232.727979 
L 393.278269 232.727979 
L 393.179573 225.86236 
L 393.103807 210.485616 
z
" clip-path="url(#pe1d7d748c0)" style="fill: #1f77b4; fill-opacity: 0.2; stroke: #1f77b4; stroke-opacity: 0.2"/>
    <path d="M 393.725321 189.57993 
L 393.725321 190.004727 
L 393.725321 189.57993 
L 393.725321 189.57993 
z
" clip-path="url(#pe1d7d748c0)" style="fill: #1f77b4; fill-opacity: 0.2; stroke: #1f77b4; stroke-opacity: 0.2"/>
    <path d="M 394.020115 231.598658 
L 394.020115 232.782705 
L 394.020115 231.598658 
L 394.020115 231.598658 
z
" clip-path="url(#pe1d7d748c0)" style="fill: #1f77b4; fill-opacity: 0.2; stroke: #1f77b4; stroke-opacity: 0.2"/>
    <path d="M 394.250536 193.98103 
L 394.250536 194.125261 
L 394.250536 193.98103 
L 394.250536 193.98103 
z
" clip-path="url(#pe1d7d748c0)" style="fill: #1f77b4; fill-opacity: 0.2; stroke: #1f77b4; stroke-opacity: 0.2"/>
    <path d="M 394.754848 175.39203 
L 394.754848 175.782441 
L 394.822669 226.961329 
L 394.822669 226.329615 
L 394.822669 226.329615 
L 394.754848 175.39203 
z
" clip-path="url(#pe1d7d748c0)" style="fill: #1f77b4; fill-opacity: 0.2; stroke: #1f77b4; stroke-opacity: 0.2"/>
    <path d="M 395.554609 189.587255 
L 395.554609 190.163079 
L 395.554609 189.587255 
L 395.554609 189.587255 
z
" clip-path="url(#pe1d7d748c0)" style="fill: #1f77b4; fill-opacity: 0.2; stroke: #1f77b4; stroke-opacity: 0.2"/>
    <path d="M 395.768714 205.643434 
L 395.768714 205.883415 
L 395.768714 205.643434 
L 395.768714 205.643434 
z
" clip-path="url(#pe1d7d748c0)" style="fill: #1f77b4; fill-opacity: 0.2; stroke: #1f77b4; stroke-opacity: 0.2"/>
    <path d="M 395.931747 200.536967 
L 395.931747 201.54143 
L 395.931747 200.536967 
L 395.931747 200.536967 
z
" clip-path="url(#pe1d7d748c0)" style="fill: #1f77b4; fill-opacity: 0.2; stroke: #1f77b4; stroke-opacity: 0.2"/>
    <path d="M 396.122603 220.051767 
L 396.122603 221.664814 
L 396.122603 220.051767 
L 396.122603 220.051767 
z
" clip-path="url(#pe1d7d748c0)" style="fill: #1f77b4; fill-opacity: 0.2; stroke: #1f77b4; stroke-opacity: 0.2"/>
    <path d="M 396.481696 176.776609 
L 396.481696 179.946161 
L 396.481696 176.776609 
L 396.481696 176.776609 
z
" clip-path="url(#pe1d7d748c0)" style="fill: #1f77b4; fill-opacity: 0.2; stroke: #1f77b4; stroke-opacity: 0.2"/>
    <path d="M 396.707999 221.463719 
L 396.707999 221.967496 
L 396.707999 221.463719 
L 396.707999 221.463719 
z
" clip-path="url(#pe1d7d748c0)" style="fill: #1f77b4; fill-opacity: 0.2; stroke: #1f77b4; stroke-opacity: 0.2"/>
    <path d="M 397.380109 169.147846 
L 397.380109 169.18717 
L 397.380109 169.147846 
L 397.380109 169.147846 
z
" clip-path="url(#pe1d7d748c0)" style="fill: #1f77b4; fill-opacity: 0.2; stroke: #1f77b4; stroke-opacity: 0.2"/>
    <path d="M 397.868965 152.684817 
L 397.868965 153.137837 
L 397.868965 152.684817 
L 397.868965 152.684817 
z
" clip-path="url(#pe1d7d748c0)" style="fill: #1f77b4; fill-opacity: 0.2; stroke: #1f77b4; stroke-opacity: 0.2"/>
   </g>
   <g id="matplotlib.axis_1">
    <g id="xtick_1">
     <g id="line2d_1">
      <defs>
       <path id="ma9f5126bb0" d="M 0 0 
L 0 3.5 
" style="stroke: #000000; stroke-width: 0.8"/>
      </defs>
      <g>
       <use xlink:href="#ma9f5126bb0" x="105.798105" y="307.584" style="stroke: #000000; stroke-width: 0.8"/>
      </g>
     </g>
     <g id="text_1">
      <!-- $\mathdefault{10^{-13}}$ -->
      <g transform="translate(91.848105 322.182437)scale(0.1 -0.1)">
       <defs>
        <path id="DejaVuSans-31" d="M 794 531 
L 1825 531 
L 1825 4091 
L 703 3866 
L 703 4441 
L 1819 4666 
L 2450 4666 
L 2450 531 
L 3481 531 
L 3481 0 
L 794 0 
L 794 531 
z
" transform="scale(0.015625)"/>
        <path id="DejaVuSans-30" d="M 2034 4250 
Q 1547 4250 1301 3770 
Q 1056 3291 1056 2328 
Q 1056 1369 1301 889 
Q 1547 409 2034 409 
Q 2525 409 2770 889 
Q 3016 1369 3016 2328 
Q 3016 3291 2770 3770 
Q 2525 4250 2034 4250 
z
M 2034 4750 
Q 2819 4750 3233 4129 
Q 3647 3509 3647 2328 
Q 3647 1150 3233 529 
Q 2819 -91 2034 -91 
Q 1250 -91 836 529 
Q 422 1150 422 2328 
Q 422 3509 836 4129 
Q 1250 4750 2034 4750 
z
" transform="scale(0.015625)"/>
        <path id="DejaVuSans-2212" d="M 678 2272 
L 4684 2272 
L 4684 1741 
L 678 1741 
L 678 2272 
z
" transform="scale(0.015625)"/>
        <path id="DejaVuSans-33" d="M 2597 2516 
Q 3050 2419 3304 2112 
Q 3559 1806 3559 1356 
Q 3559 666 3084 287 
Q 2609 -91 1734 -91 
Q 1441 -91 1130 -33 
Q 819 25 488 141 
L 488 750 
Q 750 597 1062 519 
Q 1375 441 1716 441 
Q 2309 441 2620 675 
Q 2931 909 2931 1356 
Q 2931 1769 2642 2001 
Q 2353 2234 1838 2234 
L 1294 2234 
L 1294 2753 
L 1863 2753 
Q 2328 2753 2575 2939 
Q 2822 3125 2822 3475 
Q 2822 3834 2567 4026 
Q 2313 4219 1838 4219 
Q 1578 4219 1281 4162 
Q 984 4106 628 3988 
L 628 4550 
Q 988 4650 1302 4700 
Q 1616 4750 1894 4750 
Q 2613 4750 3031 4423 
Q 3450 4097 3450 3541 
Q 3450 3153 3228 2886 
Q 3006 2619 2597 2516 
z
" transform="scale(0.015625)"/>
       </defs>
       <use xlink:href="#DejaVuSans-31" transform="translate(0 0.765625)"/>
       <use xlink:href="#DejaVuSans-30" transform="translate(63.623047 0.765625)"/>
       <use xlink:href="#DejaVuSans-2212" transform="translate(128.203125 39.046875)scale(0.7)"/>
       <use xlink:href="#DejaVuSans-31" transform="translate(186.855469 39.046875)scale(0.7)"/>
       <use xlink:href="#DejaVuSans-33" transform="translate(231.391602 39.046875)scale(0.7)"/>
      </g>
     </g>
    </g>
    <g id="xtick_2">
     <g id="line2d_2">
      <g>
       <use xlink:href="#ma9f5126bb0" x="158.6935" y="307.584" style="stroke: #000000; stroke-width: 0.8"/>
      </g>
     </g>
     <g id="text_2">
      <!-- $\mathdefault{10^{-10}}$ -->
      <g transform="translate(144.7435 322.182437)scale(0.1 -0.1)">
       <use xlink:href="#DejaVuSans-31" transform="translate(0 0.765625)"/>
       <use xlink:href="#DejaVuSans-30" transform="translate(63.623047 0.765625)"/>
       <use xlink:href="#DejaVuSans-2212" transform="translate(128.203125 39.046875)scale(0.7)"/>
       <use xlink:href="#DejaVuSans-31" transform="translate(186.855469 39.046875)scale(0.7)"/>
       <use xlink:href="#DejaVuSans-30" transform="translate(231.391602 39.046875)scale(0.7)"/>
      </g>
     </g>
    </g>
    <g id="xtick_3">
     <g id="line2d_3">
      <g>
       <use xlink:href="#ma9f5126bb0" x="211.588896" y="307.584" style="stroke: #000000; stroke-width: 0.8"/>
      </g>
     </g>
     <g id="text_3">
      <!-- $\mathdefault{10^{-7}}$ -->
      <g transform="translate(199.838896 322.182437)scale(0.1 -0.1)">
       <defs>
        <path id="DejaVuSans-37" d="M 525 4666 
L 3525 4666 
L 3525 4397 
L 1831 0 
L 1172 0 
L 2766 4134 
L 525 4134 
L 525 4666 
z
" transform="scale(0.015625)"/>
       </defs>
       <use xlink:href="#DejaVuSans-31" transform="translate(0 0.684375)"/>
       <use xlink:href="#DejaVuSans-30" transform="translate(63.623047 0.684375)"/>
       <use xlink:href="#DejaVuSans-2212" transform="translate(128.203125 38.965625)scale(0.7)"/>
       <use xlink:href="#DejaVuSans-37" transform="translate(186.855469 38.965625)scale(0.7)"/>
      </g>
     </g>
    </g>
    <g id="xtick_4">
     <g id="line2d_4">
      <g>
       <use xlink:href="#ma9f5126bb0" x="264.484291" y="307.584" style="stroke: #000000; stroke-width: 0.8"/>
      </g>
     </g>
     <g id="text_4">
      <!-- $\mathdefault{10^{-4}}$ -->
      <g transform="translate(252.734291 322.182437)scale(0.1 -0.1)">
       <defs>
        <path id="DejaVuSans-34" d="M 2419 4116 
L 825 1625 
L 2419 1625 
L 2419 4116 
z
M 2253 4666 
L 3047 4666 
L 3047 1625 
L 3713 1625 
L 3713 1100 
L 3047 1100 
L 3047 0 
L 2419 0 
L 2419 1100 
L 313 1100 
L 313 1709 
L 2253 4666 
z
" transform="scale(0.015625)"/>
       </defs>
       <use xlink:href="#DejaVuSans-31" transform="translate(0 0.684375)"/>
       <use xlink:href="#DejaVuSans-30" transform="translate(63.623047 0.684375)"/>
       <use xlink:href="#DejaVuSans-2212" transform="translate(128.203125 38.965625)scale(0.7)"/>
       <use xlink:href="#DejaVuSans-34" transform="translate(186.855469 38.965625)scale(0.7)"/>
      </g>
     </g>
    </g>
    <g id="xtick_5">
     <g id="line2d_5">
      <g>
       <use xlink:href="#ma9f5126bb0" x="317.379686" y="307.584" style="stroke: #000000; stroke-width: 0.8"/>
      </g>
     </g>
     <g id="text_5">
      <!-- $\mathdefault{10^{-1}}$ -->
      <g transform="translate(305.629686 322.182437)scale(0.1 -0.1)">
       <use xlink:href="#DejaVuSans-31" transform="translate(0 0.684375)"/>
       <use xlink:href="#DejaVuSans-30" transform="translate(63.623047 0.684375)"/>
       <use xlink:href="#DejaVuSans-2212" transform="translate(128.203125 38.965625)scale(0.7)"/>
       <use xlink:href="#DejaVuSans-31" transform="translate(186.855469 38.965625)scale(0.7)"/>
      </g>
     </g>
    </g>
    <g id="xtick_6">
     <g id="line2d_6">
      <g>
       <use xlink:href="#ma9f5126bb0" x="370.275081" y="307.584" style="stroke: #000000; stroke-width: 0.8"/>
      </g>
     </g>
     <g id="text_6">
      <!-- $\mathdefault{10^{2}}$ -->
      <g transform="translate(361.475081 322.182437)scale(0.1 -0.1)">
       <defs>
        <path id="DejaVuSans-32" d="M 1228 531 
L 3431 531 
L 3431 0 
L 469 0 
L 469 531 
Q 828 903 1448 1529 
Q 2069 2156 2228 2338 
Q 2531 2678 2651 2914 
Q 2772 3150 2772 3378 
Q 2772 3750 2511 3984 
Q 2250 4219 1831 4219 
Q 1534 4219 1204 4116 
Q 875 4013 500 3803 
L 500 4441 
Q 881 4594 1212 4672 
Q 1544 4750 1819 4750 
Q 2544 4750 2975 4387 
Q 3406 4025 3406 3419 
Q 3406 3131 3298 2873 
Q 3191 2616 2906 2266 
Q 2828 2175 2409 1742 
Q 1991 1309 1228 531 
z
" transform="scale(0.015625)"/>
       </defs>
       <use xlink:href="#DejaVuSans-31" transform="translate(0 0.765625)"/>
       <use xlink:href="#DejaVuSans-30" transform="translate(63.623047 0.765625)"/>
       <use xlink:href="#DejaVuSans-32" transform="translate(128.203125 39.046875)scale(0.7)"/>
      </g>
     </g>
    </g>
    <g id="text_7">
     <!-- Global close to cube -->
     <g transform="translate(185.375625 335.860562)scale(0.1 -0.1)">
      <defs>
       <path id="DejaVuSans-47" d="M 3809 666 
L 3809 1919 
L 2778 1919 
L 2778 2438 
L 4434 2438 
L 4434 434 
Q 4069 175 3628 42 
Q 3188 -91 2688 -91 
Q 1594 -91 976 548 
Q 359 1188 359 2328 
Q 359 3472 976 4111 
Q 1594 4750 2688 4750 
Q 3144 4750 3555 4637 
Q 3966 4525 4313 4306 
L 4313 3634 
Q 3963 3931 3569 4081 
Q 3175 4231 2741 4231 
Q 1884 4231 1454 3753 
Q 1025 3275 1025 2328 
Q 1025 1384 1454 906 
Q 1884 428 2741 428 
Q 3075 428 3337 486 
Q 3600 544 3809 666 
z
" transform="scale(0.015625)"/>
       <path id="DejaVuSans-6c" d="M 603 4863 
L 1178 4863 
L 1178 0 
L 603 0 
L 603 4863 
z
" transform="scale(0.015625)"/>
       <path id="DejaVuSans-6f" d="M 1959 3097 
Q 1497 3097 1228 2736 
Q 959 2375 959 1747 
Q 959 1119 1226 758 
Q 1494 397 1959 397 
Q 2419 397 2687 759 
Q 2956 1122 2956 1747 
Q 2956 2369 2687 2733 
Q 2419 3097 1959 3097 
z
M 1959 3584 
Q 2709 3584 3137 3096 
Q 3566 2609 3566 1747 
Q 3566 888 3137 398 
Q 2709 -91 1959 -91 
Q 1206 -91 779 398 
Q 353 888 353 1747 
Q 353 2609 779 3096 
Q 1206 3584 1959 3584 
z
" transform="scale(0.015625)"/>
       <path id="DejaVuSans-62" d="M 3116 1747 
Q 3116 2381 2855 2742 
Q 2594 3103 2138 3103 
Q 1681 3103 1420 2742 
Q 1159 2381 1159 1747 
Q 1159 1113 1420 752 
Q 1681 391 2138 391 
Q 2594 391 2855 752 
Q 3116 1113 3116 1747 
z
M 1159 2969 
Q 1341 3281 1617 3432 
Q 1894 3584 2278 3584 
Q 2916 3584 3314 3078 
Q 3713 2572 3713 1747 
Q 3713 922 3314 415 
Q 2916 -91 2278 -91 
Q 1894 -91 1617 61 
Q 1341 213 1159 525 
L 1159 0 
L 581 0 
L 581 4863 
L 1159 4863 
L 1159 2969 
z
" transform="scale(0.015625)"/>
       <path id="DejaVuSans-61" d="M 2194 1759 
Q 1497 1759 1228 1600 
Q 959 1441 959 1056 
Q 959 750 1161 570 
Q 1363 391 1709 391 
Q 2188 391 2477 730 
Q 2766 1069 2766 1631 
L 2766 1759 
L 2194 1759 
z
M 3341 1997 
L 3341 0 
L 2766 0 
L 2766 531 
Q 2569 213 2275 61 
Q 1981 -91 1556 -91 
Q 1019 -91 701 211 
Q 384 513 384 1019 
Q 384 1609 779 1909 
Q 1175 2209 1959 2209 
L 2766 2209 
L 2766 2266 
Q 2766 2663 2505 2880 
Q 2244 3097 1772 3097 
Q 1472 3097 1187 3025 
Q 903 2953 641 2809 
L 641 3341 
Q 956 3463 1253 3523 
Q 1550 3584 1831 3584 
Q 2591 3584 2966 3190 
Q 3341 2797 3341 1997 
z
" transform="scale(0.015625)"/>
       <path id="DejaVuSans-20" transform="scale(0.015625)"/>
       <path id="DejaVuSans-63" d="M 3122 3366 
L 3122 2828 
Q 2878 2963 2633 3030 
Q 2388 3097 2138 3097 
Q 1578 3097 1268 2742 
Q 959 2388 959 1747 
Q 959 1106 1268 751 
Q 1578 397 2138 397 
Q 2388 397 2633 464 
Q 2878 531 3122 666 
L 3122 134 
Q 2881 22 2623 -34 
Q 2366 -91 2075 -91 
Q 1284 -91 818 406 
Q 353 903 353 1747 
Q 353 2603 823 3093 
Q 1294 3584 2113 3584 
Q 2378 3584 2631 3529 
Q 2884 3475 3122 3366 
z
" transform="scale(0.015625)"/>
       <path id="DejaVuSans-73" d="M 2834 3397 
L 2834 2853 
Q 2591 2978 2328 3040 
Q 2066 3103 1784 3103 
Q 1356 3103 1142 2972 
Q 928 2841 928 2578 
Q 928 2378 1081 2264 
Q 1234 2150 1697 2047 
L 1894 2003 
Q 2506 1872 2764 1633 
Q 3022 1394 3022 966 
Q 3022 478 2636 193 
Q 2250 -91 1575 -91 
Q 1294 -91 989 -36 
Q 684 19 347 128 
L 347 722 
Q 666 556 975 473 
Q 1284 391 1588 391 
Q 1994 391 2212 530 
Q 2431 669 2431 922 
Q 2431 1156 2273 1281 
Q 2116 1406 1581 1522 
L 1381 1569 
Q 847 1681 609 1914 
Q 372 2147 372 2553 
Q 372 3047 722 3315 
Q 1072 3584 1716 3584 
Q 2034 3584 2315 3537 
Q 2597 3491 2834 3397 
z
" transform="scale(0.015625)"/>
       <path id="DejaVuSans-65" d="M 3597 1894 
L 3597 1613 
L 953 1613 
Q 991 1019 1311 708 
Q 1631 397 2203 397 
Q 2534 397 2845 478 
Q 3156 559 3463 722 
L 3463 178 
Q 3153 47 2828 -22 
Q 2503 -91 2169 -91 
Q 1331 -91 842 396 
Q 353 884 353 1716 
Q 353 2575 817 3079 
Q 1281 3584 2069 3584 
Q 2775 3584 3186 3129 
Q 3597 2675 3597 1894 
z
M 3022 2063 
Q 3016 2534 2758 2815 
Q 2500 3097 2075 3097 
Q 1594 3097 1305 2825 
Q 1016 2553 972 2059 
L 3022 2063 
z
" transform="scale(0.015625)"/>
       <path id="DejaVuSans-74" d="M 1172 4494 
L 1172 3500 
L 2356 3500 
L 2356 3053 
L 1172 3053 
L 1172 1153 
Q 1172 725 1289 603 
Q 1406 481 1766 481 
L 2356 481 
L 2356 0 
L 1766 0 
Q 1100 0 847 248 
Q 594 497 594 1153 
L 594 3053 
L 172 3053 
L 172 3500 
L 594 3500 
L 594 4494 
L 1172 4494 
z
" transform="scale(0.015625)"/>
       <path id="DejaVuSans-75" d="M 544 1381 
L 544 3500 
L 1119 3500 
L 1119 1403 
Q 1119 906 1312 657 
Q 1506 409 1894 409 
Q 2359 409 2629 706 
Q 2900 1003 2900 1516 
L 2900 3500 
L 3475 3500 
L 3475 0 
L 2900 0 
L 2900 538 
Q 2691 219 2414 64 
Q 2138 -91 1772 -91 
Q 1169 -91 856 284 
Q 544 659 544 1381 
z
M 1991 3584 
L 1991 3584 
z
" transform="scale(0.015625)"/>
      </defs>
      <use xlink:href="#DejaVuSans-47"/>
      <use xlink:href="#DejaVuSans-6c" x="77.490234"/>
      <use xlink:href="#DejaVuSans-6f" x="105.273438"/>
      <use xlink:href="#DejaVuSans-62" x="166.455078"/>
      <use xlink:href="#DejaVuSans-61" x="229.931641"/>
      <use xlink:href="#DejaVuSans-6c" x="291.210938"/>
      <use xlink:href="#DejaVuSans-20" x="318.994141"/>
      <use xlink:href="#DejaVuSans-63" x="350.78125"/>
      <use xlink:href="#DejaVuSans-6c" x="405.761719"/>
      <use xlink:href="#DejaVuSans-6f" x="433.544922"/>
      <use xlink:href="#DejaVuSans-73" x="494.726562"/>
      <use xlink:href="#DejaVuSans-65" x="546.826172"/>
      <use xlink:href="#DejaVuSans-20" x="608.349609"/>
      <use xlink:href="#DejaVuSans-74" x="640.136719"/>
      <use xlink:href="#DejaVuSans-6f" x="679.345703"/>
      <use xlink:href="#DejaVuSans-20" x="740.527344"/>
      <use xlink:href="#DejaVuSans-63" x="772.314453"/>
      <use xlink:href="#DejaVuSans-75" x="827.294922"/>
      <use xlink:href="#DejaVuSans-62" x="890.673828"/>
      <use xlink:href="#DejaVuSans-65" x="954.150391"/>
     </g>
    </g>
   </g>
   <g id="matplotlib.axis_2">
    <g id="ytick_1">
     <g id="line2d_7">
      <defs>
       <path id="mdd10fa20f4" d="M 0 0 
L -3.5 0 
" style="stroke: #000000; stroke-width: 0.8"/>
      </defs>
      <g>
       <use xlink:href="#mdd10fa20f4" x="57.6" y="231.626384" style="stroke: #000000; stroke-width: 0.8"/>
      </g>
     </g>
     <g id="text_8">
      <!-- $\mathdefault{10^{-1}}$ -->
      <g transform="translate(27.1 235.425603)scale(0.1 -0.1)">
       <use xlink:href="#DejaVuSans-31" transform="translate(0 0.684375)"/>
       <use xlink:href="#DejaVuSans-30" transform="translate(63.623047 0.684375)"/>
       <use xlink:href="#DejaVuSans-2212" transform="translate(128.203125 38.965625)scale(0.7)"/>
       <use xlink:href="#DejaVuSans-31" transform="translate(186.855469 38.965625)scale(0.7)"/>
      </g>
     </g>
    </g>
    <g id="ytick_2">
     <g id="line2d_8">
      <g>
       <use xlink:href="#mdd10fa20f4" x="57.6" y="141.675498" style="stroke: #000000; stroke-width: 0.8"/>
      </g>
     </g>
     <g id="text_9">
      <!-- $\mathdefault{10^{0}}$ -->
      <g transform="translate(33 145.474717)scale(0.1 -0.1)">
       <use xlink:href="#DejaVuSans-31" transform="translate(0 0.765625)"/>
       <use xlink:href="#DejaVuSans-30" transform="translate(63.623047 0.765625)"/>
       <use xlink:href="#DejaVuSans-30" transform="translate(128.203125 39.046875)scale(0.7)"/>
      </g>
     </g>
    </g>
    <g id="ytick_3">
     <g id="line2d_9">
      <g>
       <use xlink:href="#mdd10fa20f4" x="57.6" y="51.724611" style="stroke: #000000; stroke-width: 0.8"/>
      </g>
     </g>
     <g id="text_10">
      <!-- $\mathdefault{10^{1}}$ -->
      <g transform="translate(33 55.52383)scale(0.1 -0.1)">
       <use xlink:href="#DejaVuSans-31" transform="translate(0 0.684375)"/>
       <use xlink:href="#DejaVuSans-30" transform="translate(63.623047 0.684375)"/>
       <use xlink:href="#DejaVuSans-31" transform="translate(128.203125 38.965625)scale(0.7)"/>
      </g>
     </g>
    </g>
    <g id="ytick_4">
     <g id="line2d_10">
      <defs>
       <path id="ma6958d8876" d="M 0 0 
L -2 0 
" style="stroke: #000000; stroke-width: 0.6"/>
      </defs>
      <g>
       <use xlink:href="#ma6958d8876" x="57.6" y="294.499356" style="stroke: #000000; stroke-width: 0.6"/>
      </g>
     </g>
    </g>
    <g id="ytick_5">
     <g id="line2d_11">
      <g>
       <use xlink:href="#ma6958d8876" x="57.6" y="278.659791" style="stroke: #000000; stroke-width: 0.6"/>
      </g>
     </g>
    </g>
    <g id="ytick_6">
     <g id="line2d_12">
      <g>
       <use xlink:href="#ma6958d8876" x="57.6" y="267.421441" style="stroke: #000000; stroke-width: 0.6"/>
      </g>
     </g>
    </g>
    <g id="ytick_7">
     <g id="line2d_13">
      <g>
       <use xlink:href="#ma6958d8876" x="57.6" y="258.704299" style="stroke: #000000; stroke-width: 0.6"/>
      </g>
     </g>
    </g>
    <g id="ytick_8">
     <g id="line2d_14">
      <g>
       <use xlink:href="#ma6958d8876" x="57.6" y="251.581876" style="stroke: #000000; stroke-width: 0.6"/>
      </g>
     </g>
    </g>
    <g id="ytick_9">
     <g id="line2d_15">
      <g>
       <use xlink:href="#ma6958d8876" x="57.6" y="245.559953" style="stroke: #000000; stroke-width: 0.6"/>
      </g>
     </g>
    </g>
    <g id="ytick_10">
     <g id="line2d_16">
      <g>
       <use xlink:href="#ma6958d8876" x="57.6" y="240.343526" style="stroke: #000000; stroke-width: 0.6"/>
      </g>
     </g>
    </g>
    <g id="ytick_11">
     <g id="line2d_17">
      <g>
       <use xlink:href="#ma6958d8876" x="57.6" y="235.742311" style="stroke: #000000; stroke-width: 0.6"/>
      </g>
     </g>
    </g>
    <g id="ytick_12">
     <g id="line2d_18">
      <g>
       <use xlink:href="#ma6958d8876" x="57.6" y="204.548469" style="stroke: #000000; stroke-width: 0.6"/>
      </g>
     </g>
    </g>
    <g id="ytick_13">
     <g id="line2d_19">
      <g>
       <use xlink:href="#ma6958d8876" x="57.6" y="188.708905" style="stroke: #000000; stroke-width: 0.6"/>
      </g>
     </g>
    </g>
    <g id="ytick_14">
     <g id="line2d_20">
      <g>
       <use xlink:href="#ma6958d8876" x="57.6" y="177.470554" style="stroke: #000000; stroke-width: 0.6"/>
      </g>
     </g>
    </g>
    <g id="ytick_15">
     <g id="line2d_21">
      <g>
       <use xlink:href="#ma6958d8876" x="57.6" y="168.753413" style="stroke: #000000; stroke-width: 0.6"/>
      </g>
     </g>
    </g>
    <g id="ytick_16">
     <g id="line2d_22">
      <g>
       <use xlink:href="#ma6958d8876" x="57.6" y="161.63099" style="stroke: #000000; stroke-width: 0.6"/>
      </g>
     </g>
    </g>
    <g id="ytick_17">
     <g id="line2d_23">
      <g>
       <use xlink:href="#ma6958d8876" x="57.6" y="155.609066" style="stroke: #000000; stroke-width: 0.6"/>
      </g>
     </g>
    </g>
    <g id="ytick_18">
     <g id="line2d_24">
      <g>
       <use xlink:href="#ma6958d8876" x="57.6" y="150.392639" style="stroke: #000000; stroke-width: 0.6"/>
      </g>
     </g>
    </g>
    <g id="ytick_19">
     <g id="line2d_25">
      <g>
       <use xlink:href="#ma6958d8876" x="57.6" y="145.791425" style="stroke: #000000; stroke-width: 0.6"/>
      </g>
     </g>
    </g>
    <g id="ytick_20">
     <g id="line2d_26">
      <g>
       <use xlink:href="#ma6958d8876" x="57.6" y="114.597583" style="stroke: #000000; stroke-width: 0.6"/>
      </g>
     </g>
    </g>
    <g id="ytick_21">
     <g id="line2d_27">
      <g>
       <use xlink:href="#ma6958d8876" x="57.6" y="98.758018" style="stroke: #000000; stroke-width: 0.6"/>
      </g>
     </g>
    </g>
    <g id="ytick_22">
     <g id="line2d_28">
      <g>
       <use xlink:href="#ma6958d8876" x="57.6" y="87.519668" style="stroke: #000000; stroke-width: 0.6"/>
      </g>
     </g>
    </g>
    <g id="ytick_23">
     <g id="line2d_29">
      <g>
       <use xlink:href="#ma6958d8876" x="57.6" y="78.802526" style="stroke: #000000; stroke-width: 0.6"/>
      </g>
     </g>
    </g>
    <g id="ytick_24">
     <g id="line2d_30">
      <g>
       <use xlink:href="#ma6958d8876" x="57.6" y="71.680103" style="stroke: #000000; stroke-width: 0.6"/>
      </g>
     </g>
    </g>
    <g id="ytick_25">
     <g id="line2d_31">
      <g>
       <use xlink:href="#ma6958d8876" x="57.6" y="65.65818" style="stroke: #000000; stroke-width: 0.6"/>
      </g>
     </g>
    </g>
    <g id="ytick_26">
     <g id="line2d_32">
      <g>
       <use xlink:href="#ma6958d8876" x="57.6" y="60.441753" style="stroke: #000000; stroke-width: 0.6"/>
      </g>
     </g>
    </g>
    <g id="ytick_27">
     <g id="line2d_33">
      <g>
       <use xlink:href="#ma6958d8876" x="57.6" y="55.840538" style="stroke: #000000; stroke-width: 0.6"/>
      </g>
     </g>
    </g>
    <g id="text_11">
     <!-- GFLOPS -->
     <g transform="translate(21.020312 194.007688)rotate(-90)scale(0.1 -0.1)">
      <defs>
       <path id="DejaVuSans-46" d="M 628 4666 
L 3309 4666 
L 3309 4134 
L 1259 4134 
L 1259 2759 
L 3109 2759 
L 3109 2228 
L 1259 2228 
L 1259 0 
L 628 0 
L 628 4666 
z
" transform="scale(0.015625)"/>
       <path id="DejaVuSans-4c" d="M 628 4666 
L 1259 4666 
L 1259 531 
L 3531 531 
L 3531 0 
L 628 0 
L 628 4666 
z
" transform="scale(0.015625)"/>
       <path id="DejaVuSans-4f" d="M 2522 4238 
Q 1834 4238 1429 3725 
Q 1025 3213 1025 2328 
Q 1025 1447 1429 934 
Q 1834 422 2522 422 
Q 3209 422 3611 934 
Q 4013 1447 4013 2328 
Q 4013 3213 3611 3725 
Q 3209 4238 2522 4238 
z
M 2522 4750 
Q 3503 4750 4090 4092 
Q 4678 3434 4678 2328 
Q 4678 1225 4090 567 
Q 3503 -91 2522 -91 
Q 1538 -91 948 565 
Q 359 1222 359 2328 
Q 359 3434 948 4092 
Q 1538 4750 2522 4750 
z
" transform="scale(0.015625)"/>
       <path id="DejaVuSans-50" d="M 1259 4147 
L 1259 2394 
L 2053 2394 
Q 2494 2394 2734 2622 
Q 2975 2850 2975 3272 
Q 2975 3691 2734 3919 
Q 2494 4147 2053 4147 
L 1259 4147 
z
M 628 4666 
L 2053 4666 
Q 2838 4666 3239 4311 
Q 3641 3956 3641 3272 
Q 3641 2581 3239 2228 
Q 2838 1875 2053 1875 
L 1259 1875 
L 1259 0 
L 628 0 
L 628 4666 
z
" transform="scale(0.015625)"/>
       <path id="DejaVuSans-53" d="M 3425 4513 
L 3425 3897 
Q 3066 4069 2747 4153 
Q 2428 4238 2131 4238 
Q 1616 4238 1336 4038 
Q 1056 3838 1056 3469 
Q 1056 3159 1242 3001 
Q 1428 2844 1947 2747 
L 2328 2669 
Q 3034 2534 3370 2195 
Q 3706 1856 3706 1288 
Q 3706 609 3251 259 
Q 2797 -91 1919 -91 
Q 1588 -91 1214 -16 
Q 841 59 441 206 
L 441 856 
Q 825 641 1194 531 
Q 1563 422 1919 422 
Q 2459 422 2753 634 
Q 3047 847 3047 1241 
Q 3047 1584 2836 1778 
Q 2625 1972 2144 2069 
L 1759 2144 
Q 1053 2284 737 2584 
Q 422 2884 422 3419 
Q 422 4038 858 4394 
Q 1294 4750 2059 4750 
Q 2388 4750 2728 4690 
Q 3069 4631 3425 4513 
z
" transform="scale(0.015625)"/>
      </defs>
      <use xlink:href="#DejaVuSans-47"/>
      <use xlink:href="#DejaVuSans-46" x="77.490234"/>
      <use xlink:href="#DejaVuSans-4c" x="135.009766"/>
      <use xlink:href="#DejaVuSans-4f" x="187.097656"/>
      <use xlink:href="#DejaVuSans-50" x="265.808594"/>
      <use xlink:href="#DejaVuSans-53" x="326.111328"/>
     </g>
    </g>
   </g>
   <g id="line2d_34">
    <path d="M 73.832727 106.910857 
L 79.140427 105.874608 
L 84.448128 109.596313 
L 89.755828 110.864836 
L 95.063528 108.596472 
L 100.371228 79.310367 
L 105.678928 73.269159 
L 108.783734 293.913881 
L 110.986629 244.921351 
L 114.091434 243.775185 
L 116.294329 206.815789 
L 119.399134 223.354978 
L 349.384514 127.304909 
L 349.415251 106.014332 
L 349.393002 140.899064 
L 349.488932 106.410304 
L 353.594854 136.206435 
L 353.614571 140.076637 
L 353.664294 106.747769 
L 353.775848 105.930614 
L 354.698236 131.0999 
L 354.706839 137.530586 
L 354.781629 104.401201 
L 354.796632 106.235084 
L 354.900888 106.580155 
L 354.95662 106.410259 
L 356.848677 129.204734 
L 356.849738 127.973381 
L 356.91604 139.233709 
L 356.956284 105.961524 
L 356.97944 107.89179 
L 357.096634 105.39116 
L 357.167639 106.394627 
L 357.820478 130.953364 
L 357.822596 128.208941 
L 357.86405 124.528832 
L 357.901437 138.897858 
L 357.947718 104.184566 
L 357.981192 111.725591 
L 358.107453 105.752751 
L 358.212406 107.556747 
L 358.928585 129.115489 
L 358.937534 128.657799 
L 358.950847 135.983502 
L 359.083548 113.172147 
L 359.257016 138.79154 
L 359.276835 133.774763 
L 359.335986 134.800002 
L 359.374969 107.106276 
L 359.427914 114.090801 
L 359.535438 104.469266 
L 359.679316 107.568737 
L 360.008403 67.767511 
L 360.014539 56.033053 
L 360.064899 142.915976 
L 360.104332 91.699463 
L 360.157184 132.36359 
L 360.208588 104.089466 
L 360.264321 113.917212 
L 360.394684 105.088029 
L 360.549687 110.161908 
L 360.712186 136.250542 
L 360.798587 134.077849 
L 360.816065 133.486667 
L 360.816065 134.578137 
L 360.882225 116.54958 
L 360.916187 117.007628 
L 361.090354 108.785627 
L 361.181551 145.114316 
L 361.432068 104.489354 
L 361.642448 114.706477 
L 361.798027 142.079531 
L 361.879119 133.747339 
L 361.919701 132.587167 
L 361.970544 103.497965 
L 361.970544 105.638581 
L 362.098786 135.106592 
L 362.132433 133.515081 
L 362.173914 103.396264 
L 362.188354 136.784186 
L 362.23353 133.533487 
L 362.248664 133.876127 
L 362.263984 131.741811 
L 362.28714 131.534474 
L 362.377066 113.460896 
L 362.351732 141.750908 
L 362.404334 114.321603 
L 362.475339 121.347352 
L 362.616334 107.777888 
L 362.658583 138.177569 
L 362.707005 137.040777 
L 362.769248 138.313106 
L 362.7923 112.608876 
L 362.908647 124.597805 
L 362.976468 103.969943 
L 363.218835 142.673238 
L 363.240615 136.733769 
L 363.246341 118.031987 
L 363.313393 133.265031 
L 363.360827 133.107244 
L 363.369126 133.317227 
L 363.415153 105.832655 
L 363.421059 135.563147 
L 363.443115 132.702262 
L 363.53116 124.694587 
L 363.57044 125.975281 
L 363.611703 144.768456 
L 363.629879 103.62303 
L 363.708407 124.364043 
L 363.786224 113.796974 
L 363.81646 131.225368 
L 363.878395 118.439713 
L 363.922513 110.052854 
L 363.938421 139.021066 
L 363.992812 138.916314 
L 364.074555 134.155609 
L 364.217016 72.894169 
L 364.229972 68.599194 
L 364.232809 133.87026 
L 364.279694 55.743488 
L 364.391248 57.659931 
L 364.529832 148.864584 
L 364.568347 134.18647 
L 364.601564 135.914052 
L 364.639666 103.62716 
L 364.741714 150.04092 
L 364.824856 136.248451 
L 364.861798 103.74203 
L 364.987017 136.703402 
L 365.103414 136.202279 
L 365.356838 58.232023 
L 365.362975 66.906514 
L 365.379182 130.063841 
L 365.412032 56.497582 
L 365.516288 57.559749 
L 365.586228 135.861687 
L 365.572021 56.11009 
L 365.624954 129.445898 
L 365.674452 135.704342 
L 365.702384 105.699691 
L 365.743918 129.260039 
L 365.844736 127.773368 
L 365.857388 151.683902 
L 366.184094 120.132461 
L 366.38967 136.652906 
L 366.38967 152.609236 
L 366.641072 105.657858 
L 366.641072 107.170234 
L 366.820467 151.037131 
L 367.571684 55.494618 
L 367.712035 57.488336 
L 367.78304 55.68487 
L 368.446256 75.067642 
L 368.479451 74.4128 
L 368.563118 56.031381 
L 368.596592 58.623364 
L 368.827806 56.892687 
L 369.566247 74.552457 
L 369.587394 72.718344 
L 369.624285 71.170194 
L 369.698949 60.563443 
L 369.881349 74.957595 
L 369.892236 74.543524 
L 369.900213 55.369028 
L 369.906659 74.600384 
L 369.990369 56.241889 
L 370.043314 62.256347 
L 370.150838 55.976206 
L 370.294717 58.837066 
L 370.623281 201.343415 
L 370.623803 193.650242 
L 370.646051 275.063176 
L 370.664538 72.849799 
L 370.719732 127.878877 
L 370.823988 56.075941 
L 370.879721 72.830393 
L 371.010084 55.874047 
L 371.165088 56.815473 
L 371.165088 59.882961 
L 371.431465 76.151836 
L 371.497625 59.858266 
L 371.531587 62.60472 
L 371.705754 55.624937 
L 371.796951 82.634744 
L 371.796951 69.796591 
L 371.840263 74.650617 
L 371.873007 56.592883 
L 371.957645 69.31374 
L 372.047468 55.859207 
L 372.257848 63.453967 
L 372.467899 75.60695 
L 372.535102 75.986756 
L 372.585945 55.430259 
L 372.665879 76.021667 
L 372.747834 74.308062 
L 372.789314 55.717042 
L 372.848931 75.376388 
L 372.879385 73.452868 
L 372.90254 74.185758 
L 372.967132 74.454159 
L 373.019735 65.800903 
L 373.09074 68.992323 
L 373.231734 54.63136 
L 373.267876 75.297204 
L 373.322405 69.47858 
L 373.384649 75.277353 
L 373.4077 60.118838 
L 373.524047 67.422198 
L 373.591868 55.340106 
L 373.834235 75.68056 
L 373.856015 75.186261 
L 373.861741 62.51171 
L 373.928794 69.459199 
L 373.984527 74.551161 
L 373.98997 73.992205 
L 374.030553 56.463137 
L 374.058515 74.181975 
L 374.135506 73.067837 
L 374.21011 75.369661 
L 374.245279 54.878669 
L 374.287583 75.486833 
L 374.323808 70.444539 
L 374.537913 56.819022 
L 374.553821 74.531633 
L 374.608213 72.065772 
L 374.689955 74.595192 
L 374.700947 57.962596 
L 374.770578 69.567654 
L 374.860634 212.456408 
L 374.891802 55.643885 
L 374.895094 248.718942 
L 375.006649 275.807589 
L 375.145232 72.011212 
L 375.183747 74.860356 
L 375.255066 57.398424 
L 375.357115 75.145863 
L 375.440256 74.712102 
L 375.477199 55.847266 
L 375.718815 73.061192 
L 375.768125 71.251831 
L 375.817535 62.266733 
L 375.820207 74.73128 
L 375.93764 232.417819 
L 375.978375 202.660056 
L 375.994583 72.847216 
L 376.012429 279.120471 
L 376.027433 256.493805 
L 376.131689 276.700422 
L 376.240354 66.234907 
L 376.289852 73.324362 
L 376.317785 57.512242 
L 376.359318 71.057701 
L 376.460136 67.561832 
L 376.472788 71.807598 
L 376.638164 73.464026 
L 376.638164 71.013383 
L 376.799495 61.066453 
L 377.00507 72.312714 
L 377.00507 72.178748 
L 377.256472 56.31321 
L 377.435867 72.210283 
L 378.111795 184.064424 
L 378.117408 176.319912 
L 378.187085 240.572098 
L 378.210241 228.979819 
L 378.327435 264.027755 
L 378.39844 249.536765 
L 379.069444 170.641978 
L 379.178519 255.014909 
L 379.211993 218.865262 
L 379.338254 265.372839 
L 379.338254 264.807015 
L 379.443206 238.086963 
L 380.153072 191.011958 
L 380.168334 212.842527 
L 380.181648 162.614158 
L 380.239685 195.168039 
L 380.314349 245.176823 
L 380.487817 166.967027 
L 380.507636 179.058729 
L 380.515614 240.300074 
L 380.52206 170.006507 
L 380.60577 232.808507 
L 380.658715 211.845199 
L 380.658715 215.637615 
L 380.766238 255.041257 
L 380.910117 229.487622 
L 381.24534 216.578301 
L 381.2957 170.601245 
L 381.264551 243.674797 
L 381.335133 218.785593 
L 381.387985 180.055152 
L 381.439389 262.072992 
L 381.495121 238.576458 
L 381.625485 254.416886 
L 381.780488 220.68754 
L 381.959827 158.120157 
L 381.996037 168.679025 
L 382.113026 215.44171 
L 382.146988 207.59933 
L 382.321154 233.441096 
L 382.345435 161.576662 
L 382.412352 195.079533 
L 382.455663 180.983586 
L 382.488407 227.075205 
L 382.573045 201.037666 
L 382.662868 247.685201 
L 383.083299 162.173315 
L 383.201345 246.480486 
L 383.201345 242.944927 
L 383.363234 163.806693 
L 383.404714 247.618082 
L 383.464331 155.832768 
L 383.607867 205.381964 
L 383.635135 234.408988 
L 383.70614 228.79492 
L 383.782442 216.603823 
L 383.847135 224.988019 
L 383.926905 157.35321 
L 383.937806 195.769498 
L 384.000049 172.383237 
L 384.009071 206.531644 
L 384.023101 222.456224 
L 384.139447 191.761384 
L 384.207269 243.679982 
L 384.394524 192.34283 
L 384.424935 218.322198 
L 384.449636 164.919741 
L 384.486219 201.379486 
L 384.544194 201.691829 
L 384.605371 159.515071 
L 384.645954 254.008794 
L 384.673916 171.189458 
L 384.750907 216.618272 
L 384.761961 196.982579 
L 384.82551 157.807011 
L 384.842504 180.746028 
L 384.86068 243.769196 
L 384.902984 168.645897 
L 384.939208 204.995679 
L 385.017025 210.885276 
L 385.047261 188.131127 
L 385.109196 197.730473 
L 385.153314 221.687374 
L 385.169222 170.753521 
L 385.219833 153.228808 
L 385.223613 190.390701 
L 385.305356 164.126372 
L 385.316347 215.984402 
L 385.385978 194.319979 
L 385.46361 182.319825 
L 385.476035 196.651017 
L 385.507203 237.376069 
L 385.547385 193.800078 
L 385.622049 221.946553 
L 385.740417 152.973533 
L 385.799147 167.286512 
L 385.870467 233.905909 
L 385.832365 166.060549 
L 385.91347 232.928813 
L 386.055657 162.108868 
L 386.092599 237.506975 
L 386.334215 186.715296 
L 386.383526 186.976918 
L 386.432935 214.16642 
L 386.435608 167.142447 
L 386.587639 207.465453 
L 386.609983 174.948262 
L 386.62783 248.436247 
L 386.695685 182.744953 
L 386.747089 253.83922 
L 386.802822 203.899355 
L 386.905252 172.658265 
L 386.933185 241.024224 
L 386.974719 173.662238 
L 387.075536 198.758373 
L 387.088188 189.988846 
L 387.253564 171.321111 
L 387.420726 218.480782 
L 387.454688 205.646548 
L 387.620471 172.739555 
L 387.628855 234.548725 
L 387.720052 195.503983 
L 387.763364 175.298798 
L 387.871872 227.356629 
L 387.880746 198.665727 
L 387.970569 248.570723 
L 388.051268 166.766023 
L 388.180949 212.046823 
L 388.367386 184.444344 
L 388.41762 206.865096 
L 388.458202 171.558671 
L 388.509045 243.88328 
L 388.58898 193.452429 
L 388.712415 248.44595 
L 388.726855 180.218529 
L 388.832721 201.259772 
L 388.890233 172.94533 
L 388.915567 205.413304 
L 388.942835 225.135142 
L 389.013841 203.157571 
L 389.154835 227.108163 
L 389.307749 169.983642 
L 389.330801 222.735789 
L 389.447148 194.033972 
L 389.514969 242.134188 
L 389.747639 176.541489 
L 389.793919 178.478335 
L 389.851895 200.751539 
L 389.907627 169.033575 
L 389.953654 241.323131 
L 389.981616 171.194407 
L 390.069661 197.789984 
L 390.108941 193.540451 
L 390.150204 180.598576 
L 390.16838 244.985145 
L 390.210684 169.486151 
L 390.246908 204.491866 
L 390.324726 211.358568 
L 390.354961 189.81666 
L 390.416896 198.388555 
L 390.461014 223.335179 
L 390.461014 220.983012 
L 390.613056 166.343136 
L 390.624047 215.848331 
L 390.693678 195.802586 
L 390.77131 183.362079 
L 390.814903 237.792622 
L 390.855086 175.635638 
L 390.929749 205.408512 
L 391.001444 168.294177 
L 391.060671 171.481641 
L 391.140065 161.67203 
L 391.178167 233.935737 
L 391.182188 171.446008 
L 391.280215 178.370402 
L 391.308277 176.728763 
L 391.363357 162.794748 
L 391.400299 239.022919 
L 391.641915 185.375145 
L 391.691226 186.545925 
L 391.740636 213.490393 
L 391.743308 160.397334 
L 391.976607 193.077108 
L 392.003385 165.056038 
L 392.054789 230.898931 
L 392.124729 191.539831 
L 392.163455 192.61567 
L 392.212953 157.589886 
L 392.240885 229.579265 
L 392.282419 175.429042 
L 392.383237 198.49921 
L 392.395889 171.447683 
L 392.561265 170.235087 
L 392.644789 172.870816 
L 392.722595 209.29295 
L 392.762388 190.013343 
L 392.928171 172.455367 
L 392.936555 216.882052 
L 393.019824 205.071918 
L 393.103807 210.878461 
L 393.278269 232.865362 
L 393.358968 167.946054 
L 393.725321 189.791751 
L 393.816746 227.539689 
L 393.89668 178.522254 
L 394.020115 232.186196 
L 394.197933 155.053951 
L 394.250536 194.053079 
L 394.321541 178.570541 
L 394.462535 210.438802 
L 394.624471 190.60701 
L 394.638501 205.155349 
L 394.754848 175.586748 
L 394.822669 226.626604 
L 395.261354 221.709643 
L 395.457904 163.933007 
L 395.632426 193.853963 
L 395.662662 170.797267 
L 395.724596 177.639878 
L 395.768714 205.841398 
L 395.931747 201.03597 
L 396.079011 165.883231 
L 396.122603 220.849966 
L 396.368371 152.946259 
L 396.376033 180.373544 
L 396.438714 172.420079 
L 396.481696 178.329249 
L 396.485867 216.40104 
L 396.561265 167.201045 
L 396.689339 185.375464 
L 396.707999 221.714795 
L 396.833218 162.204092 
L 396.949615 169.404477 
L 397.048336 196.725929 
L 397.225383 156.722229 
L 397.380109 169.167503 
L 397.421802 162.220613 
L 397.703589 152.736271 
L 397.868965 152.910671 
L 398.030295 193.193343 
L 398.487273 209.247102 
L 398.487273 209.247102 
" clip-path="url(#pe1d7d748c0)" style="fill: none; stroke: #1f77b4; stroke-width: 1.5; stroke-linecap: square"/>
   </g>
   <g id="line2d_35"/>
   <g id="patch_3">
    <path d="M 57.6 307.584 
L 57.6 41.472 
" style="fill: none; stroke: #000000; stroke-width: 0.8; stroke-linejoin: miter; stroke-linecap: square"/>
   </g>
   <g id="patch_4">
    <path d="M 414.72 307.584 
L 414.72 41.472 
" style="fill: none; stroke: #000000; stroke-width: 0.8; stroke-linejoin: miter; stroke-linecap: square"/>
   </g>
   <g id="patch_5">
    <path d="M 57.6 307.584 
L 414.72 307.584 
" style="fill: none; stroke: #000000; stroke-width: 0.8; stroke-linejoin: miter; stroke-linecap: square"/>
   </g>
   <g id="patch_6">
    <path d="M 57.6 41.472 
L 414.72 41.472 
" style="fill: none; stroke: #000000; stroke-width: 0.8; stroke-linejoin: miter; stroke-linecap: square"/>
   </g>
   <g id="text_12">
    <!-- Global Cubeness -->
    <g transform="translate(185.874375 35.472)scale(0.12 -0.12)">
     <defs>
      <path id="DejaVuSans-43" d="M 4122 4306 
L 4122 3641 
Q 3803 3938 3442 4084 
Q 3081 4231 2675 4231 
Q 1875 4231 1450 3742 
Q 1025 3253 1025 2328 
Q 1025 1406 1450 917 
Q 1875 428 2675 428 
Q 3081 428 3442 575 
Q 3803 722 4122 1019 
L 4122 359 
Q 3791 134 3420 21 
Q 3050 -91 2638 -91 
Q 1578 -91 968 557 
Q 359 1206 359 2328 
Q 359 3453 968 4101 
Q 1578 4750 2638 4750 
Q 3056 4750 3426 4639 
Q 3797 4528 4122 4306 
z
" transform="scale(0.015625)"/>
      <path id="DejaVuSans-6e" d="M 3513 2113 
L 3513 0 
L 2938 0 
L 2938 2094 
Q 2938 2591 2744 2837 
Q 2550 3084 2163 3084 
Q 1697 3084 1428 2787 
Q 1159 2491 1159 1978 
L 1159 0 
L 581 0 
L 581 3500 
L 1159 3500 
L 1159 2956 
Q 1366 3272 1645 3428 
Q 1925 3584 2291 3584 
Q 2894 3584 3203 3211 
Q 3513 2838 3513 2113 
z
" transform="scale(0.015625)"/>
     </defs>
     <use xlink:href="#DejaVuSans-47"/>
     <use xlink:href="#DejaVuSans-6c" x="77.490234"/>
     <use xlink:href="#DejaVuSans-6f" x="105.273438"/>
     <use xlink:href="#DejaVuSans-62" x="166.455078"/>
     <use xlink:href="#DejaVuSans-61" x="229.931641"/>
     <use xlink:href="#DejaVuSans-6c" x="291.210938"/>
     <use xlink:href="#DejaVuSans-20" x="318.994141"/>
     <use xlink:href="#DejaVuSans-43" x="350.78125"/>
     <use xlink:href="#DejaVuSans-75" x="420.605469"/>
     <use xlink:href="#DejaVuSans-62" x="483.984375"/>
     <use xlink:href="#DejaVuSans-65" x="547.460938"/>
     <use xlink:href="#DejaVuSans-6e" x="608.984375"/>
     <use xlink:href="#DejaVuSans-65" x="672.363281"/>
     <use xlink:href="#DejaVuSans-73" x="733.886719"/>
     <use xlink:href="#DejaVuSans-73" x="785.986328"/>
    </g>
   </g>
   <g id="legend_1">
    <g id="patch_7">
     <path d="M 201.86 302.584 
L 270.46 302.584 
Q 272.46 302.584 272.46 300.584 
L 272.46 272.22775 
Q 272.46 270.22775 270.46 270.22775 
L 201.86 270.22775 
Q 199.86 270.22775 199.86 272.22775 
L 199.86 300.584 
Q 199.86 302.584 201.86 302.584 
z
" style="fill: #ffffff; opacity: 0.8; stroke: #cccccc; stroke-linejoin: miter"/>
    </g>
    <g id="text_13">
     <!-- Cluster -->
     <g transform="translate(218.413906 281.826187)scale(0.1 -0.1)">
      <defs>
       <path id="DejaVuSans-72" d="M 2631 2963 
Q 2534 3019 2420 3045 
Q 2306 3072 2169 3072 
Q 1681 3072 1420 2755 
Q 1159 2438 1159 1844 
L 1159 0 
L 581 0 
L 581 3500 
L 1159 3500 
L 1159 2956 
Q 1341 3275 1631 3429 
Q 1922 3584 2338 3584 
Q 2397 3584 2469 3576 
Q 2541 3569 2628 3553 
L 2631 2963 
z
" transform="scale(0.015625)"/>
      </defs>
      <use xlink:href="#DejaVuSans-43"/>
      <use xlink:href="#DejaVuSans-6c" x="69.824219"/>
      <use xlink:href="#DejaVuSans-75" x="97.607422"/>
      <use xlink:href="#DejaVuSans-73" x="160.986328"/>
      <use xlink:href="#DejaVuSans-74" x="213.085938"/>
      <use xlink:href="#DejaVuSans-65" x="252.294922"/>
      <use xlink:href="#DejaVuSans-72" x="313.818359"/>
     </g>
    </g>
    <g id="line2d_36">
     <path d="M 203.86 293.004312 
L 213.86 293.004312 
L 223.86 293.004312 
" style="fill: none; stroke: #1f77b4; stroke-width: 1.5; stroke-linecap: square"/>
    </g>
    <g id="text_14">
     <!-- Hopper -->
     <g transform="translate(231.86 296.504312)scale(0.1 -0.1)">
      <defs>
       <path id="DejaVuSans-48" d="M 628 4666 
L 1259 4666 
L 1259 2753 
L 3553 2753 
L 3553 4666 
L 4184 4666 
L 4184 0 
L 3553 0 
L 3553 2222 
L 1259 2222 
L 1259 0 
L 628 0 
L 628 4666 
z
" transform="scale(0.015625)"/>
       <path id="DejaVuSans-70" d="M 1159 525 
L 1159 -1331 
L 581 -1331 
L 581 3500 
L 1159 3500 
L 1159 2969 
Q 1341 3281 1617 3432 
Q 1894 3584 2278 3584 
Q 2916 3584 3314 3078 
Q 3713 2572 3713 1747 
Q 3713 922 3314 415 
Q 2916 -91 2278 -91 
Q 1894 -91 1617 61 
Q 1341 213 1159 525 
z
M 3116 1747 
Q 3116 2381 2855 2742 
Q 2594 3103 2138 3103 
Q 1681 3103 1420 2742 
Q 1159 2381 1159 1747 
Q 1159 1113 1420 752 
Q 1681 391 2138 391 
Q 2594 391 2855 752 
Q 3116 1113 3116 1747 
z
" transform="scale(0.015625)"/>
      </defs>
      <use xlink:href="#DejaVuSans-48"/>
      <use xlink:href="#DejaVuSans-6f" x="75.195312"/>
      <use xlink:href="#DejaVuSans-70" x="136.376953"/>
      <use xlink:href="#DejaVuSans-70" x="199.853516"/>
      <use xlink:href="#DejaVuSans-65" x="263.330078"/>
      <use xlink:href="#DejaVuSans-72" x="324.853516"/>
     </g>
    </g>
   </g>
  </g>
 </g>
 <defs>
  <clipPath id="pe1d7d748c0">
   <rect x="57.6" y="41.472" width="357.12" height="266.112"/>
  </clipPath>
 </defs>
</svg>
