<?xml version="1.0" encoding="utf-8" standalone="no"?>
<!DOCTYPE svg PUBLIC "-//W3C//DTD SVG 1.1//EN"
  "http://www.w3.org/Graphics/SVG/1.1/DTD/svg11.dtd">
<svg xmlns:xlink="http://www.w3.org/1999/xlink" width="460.8pt" height="345.6pt" viewBox="0 0 460.8 345.6" xmlns="http://www.w3.org/2000/svg" version="1.1">
 <metadata>
  <rdf:RDF xmlns:dc="http://purl.org/dc/elements/1.1/" xmlns:cc="http://creativecommons.org/ns#" xmlns:rdf="http://www.w3.org/1999/02/22-rdf-syntax-ns#">
   <cc:Work>
    <dc:type rdf:resource="http://purl.org/dc/dcmitype/StillImage"/>
    <dc:date>2024-05-04T11:10:17.035770</dc:date>
    <dc:format>image/svg+xml</dc:format>
    <dc:creator>
     <cc:Agent>
      <dc:title>Matplotlib v3.5.3, https://matplotlib.org/</dc:title>
     </cc:Agent>
    </dc:creator>
   </cc:Work>
  </rdf:RDF>
 </metadata>
 <defs>
  <style type="text/css">*{stroke-linejoin: round; stroke-linecap: butt}</style>
 </defs>
 <g id="figure_1">
  <g id="patch_1">
   <path d="M 0 345.6 
L 460.8 345.6 
L 460.8 0 
L 0 0 
z
" style="fill: #ffffff"/>
  </g>
  <g id="axes_1">
   <g id="patch_2">
    <path d="M 57.6 307.584 
L 414.72 307.584 
L 414.72 41.472 
L 57.6 41.472 
z
" style="fill: #ffffff"/>
   </g>
   <g id="PolyCollection_1">
    <path d="M 73.832727 108.129393 
L 73.832727 109.161957 
L 86.492857 108.545751 
L 93.898558 108.845832 
L 99.152987 108.251424 
L 103.228638 106.904927 
L 106.558688 108.482222 
L 109.374205 107.918674 
L 111.813116 107.152161 
L 113.964389 110.445812 
L 115.888768 107.109692 
L 119.218818 109.007899 
L 122.034334 107.505716 
L 123.294469 114.330469 
L 124.473246 107.513168 
L 126.624519 114.0654 
L 128.548898 111.595335 
L 129.440036 116.213824 
L 131.878947 112.506871 
L 132.624549 123.816228 
L 134.03022 114.866914 
L 134.694464 118.011988 
L 135.954599 116.725974 
L 137.133376 109.886841 
L 138.770116 129.783103 
L 139.284648 114.176423 
L 141.209027 113.362799 
L 142.100165 121.927114 
L 142.94984 117.233553 
L 143.3603 132.11767 
L 144.539077 112.265953 
L 144.915682 128.503627 
L 145.284679 120.642005 
L 146.690349 122.543826 
L 147.354594 122.284995 
L 148.614728 123.592298 
L 149.505866 124.65482 
L 149.793505 107.355889 
L 150.355541 131.404267 
L 151.430245 124.34617 
L 151.944778 123.928433 
L 152.69038 141.431199 
L 153.869157 118.232067 
L 154.096051 138.26923 
L 154.760295 127.687814 
L 155.609969 137.828641 
L 156.020429 133.242455 
L 157.199207 112.422242 
L 157.575812 132.43889 
L 157.761242 156.184916 
L 157.944808 135.294147 
L 158.835946 138.304953 
L 159.350479 137.711765 
L 159.685621 140.605175 
L 160.014724 121.442926 
L 161.274858 126.454209 
L 162.02046 155.765719 
L 162.165996 136.37772 
L 162.453635 99.820906 
L 163.015671 140.814814 
L 163.426131 140.745088 
L 164.090375 136.823089 
L 164.604908 125.248182 
L 164.981513 144.113506 
L 165.350509 141.479783 
L 165.831187 136.455735 
L 166.529287 122.908619 
L 166.75618 136.729697 
L 167.091322 144.641437 
L 167.420425 127.169558 
L 168.166026 147.408963 
L 168.270099 140.799073 
L 168.680559 138.762046 
L 169.571697 142.599254 
L 169.859336 102.379303 
L 170.235942 129.524965 
L 170.421372 139.634794 
L 170.604938 136.012975 
L 171.496076 142.109933 
L 172.010609 139.356172 
L 172.345751 144.18318 
L 172.674853 115.762375 
L 172.756211 149.118805 
L 173.236889 142.934404 
L 173.934988 122.121774 
L 174.086563 159.242914 
L 174.161881 141.034576 
L 174.311593 140.332691 
L 174.68059 156.161698 
L 174.826126 139.058205 
L 175.113765 90.613191 
L 175.6758 141.520701 
L 176.08626 141.957529 
L 176.421402 157.073228 
L 176.750505 131.01404 
L 177.265037 114.818036 
L 177.641643 144.688929 
L 177.827073 147.530249 
L 178.010639 146.209222 
L 178.491317 145.433394 
L 178.901777 139.595167 
L 179.189416 106.938462 
L 179.41631 143.636973 
L 179.751452 145.999568 
L 180.080554 115.803541 
L 180.45716 130.809399 
L 180.826156 140.759127 
L 180.930229 136.187098 
L 181.340689 135.208715 
L 181.492264 157.246108 
L 182.231827 142.93144 
L 182.519466 87.78123 
L 182.566969 140.316268 
L 182.896071 129.806371 
L 183.081501 143.341123 
L 183.265068 133.120679 
L 183.491961 141.585685 
L 184.156206 130.027571 
L 184.670739 119.515462 
L 185.00588 143.79072 
L 185.047344 141.06266 
L 185.334983 104.11752 
L 185.41634 146.406084 
L 185.897018 137.446894 
L 186.595117 105.13342 
L 186.746693 157.22993 
L 186.822011 146.271206 
L 186.971723 147.346774 
L 187.157153 147.425436 
L 187.340719 158.030996 
L 187.486255 130.515633 
L 187.773895 82.543505 
L 188.33593 131.728037 
L 188.712535 155.23389 
L 188.74639 141.680866 
L 189.081532 157.926912 
L 189.410634 124.069137 
L 189.637528 146.109774 
L 189.925167 102.103306 
L 190.487202 137.726587 
L 190.670769 118.178943 
L 190.822344 157.224518 
L 191.151447 137.503181 
L 191.561907 138.451419 
L 191.849546 93.70876 
L 192.07644 135.062109 
L 192.411581 148.020946 
L 192.740684 97.360595 
L 193.302719 138.025907 
L 193.486286 131.495811 
L 193.590358 123.883442 
L 194.000819 112.646647 
L 194.152394 130.901753 
L 194.227712 157.579509 
L 195.179596 75.004112 
L 195.227098 131.404124 
L 195.556201 99.336613 
L 195.741631 134.625029 
L 195.925197 112.15461 
L 196.152091 131.363127 
L 196.816335 99.412742 
L 196.967911 130.775954 
L 197.330868 98.006096 
L 197.66601 121.514794 
L 197.892904 148.847287 
L 197.995113 86.011871 
L 198.07647 131.715947 
L 199.255247 91.221625 
L 199.406822 131.695706 
L 199.817282 149.506217 
L 199.817282 127.573484 
L 199.817282 127.573484 
L 199.406822 126.460312 
L 199.255247 71.525517 
L 198.07647 130.291561 
L 197.995113 59.82617 
L 197.892904 127.150925 
L 197.66601 96.152064 
L 197.330868 92.456728 
L 196.967911 127.064646 
L 196.816335 95.990382 
L 196.152091 130.236568 
L 195.925197 97.282642 
L 195.741631 106.187182 
L 195.556201 92.903622 
L 195.227098 128.989751 
L 195.179596 60.06581 
L 194.227712 130.061488 
L 194.152394 126.970535 
L 194.000819 99.70196 
L 193.590358 101.02269 
L 193.486286 128.575689 
L 193.302719 128.088017 
L 192.740684 94.492717 
L 192.411581 128.299188 
L 192.07644 100.057442 
L 191.849546 70.07268 
L 191.561907 128.503891 
L 191.151447 127.865899 
L 190.822344 127.084861 
L 190.670769 85.897575 
L 190.487202 127.863756 
L 189.925167 81.019508 
L 189.637528 128.247957 
L 189.410634 103.702424 
L 189.081532 127.494664 
L 188.74639 129.192144 
L 188.712535 127.750966 
L 188.33593 102.352478 
L 187.773895 61.369777 
L 187.486255 107.621296 
L 187.340719 126.310281 
L 187.157153 128.078182 
L 186.971723 127.398544 
L 186.822011 128.947514 
L 186.746693 127.892128 
L 186.595117 91.294813 
L 185.897018 128.413319 
L 185.41634 129.473541 
L 185.334983 77.539715 
L 185.047344 127.980061 
L 185.00588 129.452014 
L 184.670739 99.003527 
L 184.156206 128.459481 
L 183.491961 128.908372 
L 183.265068 102.501972 
L 183.081501 129.433638 
L 182.896071 105.740752 
L 182.566969 127.455165 
L 182.519466 71.314105 
L 182.231827 129.493965 
L 181.492264 128.382056 
L 181.340689 116.212377 
L 180.930229 98.818539 
L 180.826156 127.170751 
L 180.45716 128.186255 
L 180.080554 98.609186 
L 179.751452 130.423721 
L 179.41631 131.205765 
L 179.189416 85.59408 
L 178.901777 126.99184 
L 178.491317 129.424752 
L 178.010639 129.382774 
L 177.827073 128.864125 
L 177.641643 128.378275 
L 177.265037 95.743677 
L 176.750505 112.925716 
L 176.421402 123.628849 
L 176.08626 131.056649 
L 175.6758 129.690423 
L 175.113765 70.735285 
L 174.826126 129.435489 
L 174.68059 123.615428 
L 174.311593 126.655987 
L 174.161881 125.912705 
L 174.086563 124.712251 
L 173.934988 104.56904 
L 173.236889 126.319419 
L 172.756211 127.102289 
L 172.674853 95.647167 
L 172.345751 127.827371 
L 172.010609 121.65478 
L 171.496076 130.645324 
L 170.604938 111.07344 
L 170.421372 127.34369 
L 170.235942 124.54693 
L 169.859336 85.09074 
L 169.571697 127.907692 
L 168.680559 129.694287 
L 168.270099 126.382677 
L 168.166026 124.027814 
L 167.420425 106.686814 
L 167.091322 123.451679 
L 166.75618 127.415258 
L 166.529287 103.048409 
L 165.831187 121.889181 
L 165.350509 125.215212 
L 164.981513 125.259194 
L 164.604908 107.625738 
L 164.090375 124.554674 
L 163.426131 124.805197 
L 163.015671 124.930733 
L 162.453635 79.233581 
L 162.165996 125.710455 
L 162.02046 124.420386 
L 161.274858 111.514394 
L 160.014724 99.823095 
L 159.685621 116.596682 
L 159.350479 127.885138 
L 158.835946 120.474911 
L 157.944808 116.626168 
L 157.761242 112.848384 
L 157.575812 124.848652 
L 157.199207 97.732549 
L 156.020429 120.272793 
L 155.609969 115.219222 
L 154.760295 117.201736 
L 154.096051 113.940618 
L 153.869157 101.858424 
L 152.69038 112.31874 
L 151.944778 110.79624 
L 151.430245 110.339279 
L 150.355541 111.469822 
L 149.793505 89.865078 
L 149.505866 107.315279 
L 148.614728 114.35152 
L 147.354594 106.504032 
L 146.690349 109.175747 
L 145.284679 105.095937 
L 144.915682 122.177248 
L 144.539077 102.306766 
L 143.3603 108.172393 
L 142.94984 106.30208 
L 142.100165 111.472582 
L 141.209027 102.520867 
L 139.284648 107.963773 
L 138.770116 114.181772 
L 137.133376 97.411634 
L 135.954599 108.151608 
L 134.694464 109.412855 
L 134.03022 104.713822 
L 132.624549 106.101472 
L 131.878947 104.348857 
L 129.440036 106.249195 
L 128.548898 106.046473 
L 126.624519 106.994345 
L 124.473246 99.224198 
L 123.294469 105.880286 
L 122.034334 105.807392 
L 119.218818 106.762349 
L 115.888768 106.357037 
L 113.964389 106.347333 
L 111.813116 101.938792 
L 109.374205 105.461653 
L 106.558688 107.241802 
L 103.228638 106.161785 
L 99.152987 107.111138 
L 93.898558 107.550407 
L 86.492857 107.80684 
L 73.832727 108.129393 
z
" clip-path="url(#p44cb647b2c)" style="fill: #1f77b4; fill-opacity: 0.2; stroke: #1f77b4; stroke-opacity: 0.2"/>
    <path d="M 200.146385 96.153749 
L 200.146385 98.265258 
L 200.434024 73.280618 
L 200.99606 99.29207 
L 201.40652 98.848528 
L 201.558095 157.606988 
L 202.070764 99.301189 
L 202.585297 86.24063 
L 202.961902 99.553111 
L 203.330899 99.575434 
L 203.811577 99.922582 
L 204.509676 82.898978 
L 204.736569 99.591054 
L 205.071711 100.203938 
L 205.400814 88.67853 
L 206.146416 98.320956 
L 206.250488 100.050356 
L 206.660948 99.593974 
L 207.552086 100.133139 
L 207.839725 67.657432 
L 208.216331 100.369155 
L 208.401761 99.839506 
L 208.585327 98.996349 
L 209.476465 100.159029 
L 209.990998 99.507322 
L 210.32614 99.910246 
L 210.655242 78.473557 
L 210.7366 100.144512 
L 211.217278 100.281586 
L 211.915377 81.424171 
L 211.915377 63.856637 
L 211.915377 63.856637 
L 211.217278 95.296027 
L 210.7366 96.868866 
L 210.655242 56.262414 
L 210.32614 96.468321 
L 209.990998 81.463567 
L 209.476465 98.846597 
L 208.585327 67.432055 
L 208.401761 95.477265 
L 208.216331 99.99338 
L 207.839725 54.820922 
L 207.552086 95.588937 
L 206.660948 97.549905 
L 206.250488 98.122514 
L 206.146416 97.198942 
L 205.400814 62.202177 
L 205.071711 99.307149 
L 204.736569 96.974827 
L 204.509676 62.669924 
L 203.811577 96.230666 
L 203.330899 97.384987 
L 202.961902 98.454891 
L 202.585297 66.173039 
L 202.070764 95.128656 
L 201.558095 126.152347 
L 201.40652 92.017107 
L 200.99606 98.264249 
L 200.434024 53.889609 
L 200.146385 96.153749 
z
" clip-path="url(#p44cb647b2c)" style="fill: #1f77b4; fill-opacity: 0.2; stroke: #1f77b4; stroke-opacity: 0.2"/>
    <path d="M 212.142271 94.572856 
L 212.142271 100.084464 
L 212.291982 100.736534 
L 212.660979 100.374991 
L 212.806515 100.368029 
L 213.094154 73.307615 
L 213.656189 99.932168 
L 214.066649 100.004911 
L 214.401791 99.720061 
L 214.730894 92.23694 
L 215.245427 75.943646 
L 215.622032 100.797678 
L 215.807462 100.001667 
L 215.991028 100.28948 
L 216.471706 100.793376 
L 216.882166 100.594696 
L 217.169805 74.495738 
L 217.396699 100.258664 
L 217.731841 100.01976 
L 218.060943 75.58216 
L 218.060943 57.685341 
L 218.060943 57.685341 
L 217.731841 98.486504 
L 217.396699 98.360339 
L 217.169805 57.588714 
L 216.882166 99.487817 
L 216.471706 98.932911 
L 215.991028 97.512547 
L 215.807462 96.822585 
L 215.622032 99.691492 
L 215.245427 58.259778 
L 214.730894 69.833959 
L 214.401791 98.718583 
L 214.066649 97.404883 
L 213.656189 98.639925 
L 213.094154 53.568 
L 212.806515 97.621416 
L 212.660979 98.777018 
L 212.291982 100.589451 
L 212.142271 94.572856 
z
" clip-path="url(#p44cb647b2c)" style="fill: #1f77b4; fill-opacity: 0.2; stroke: #1f77b4; stroke-opacity: 0.2"/>
    <path d="M 218.806545 98.820175 
L 218.806545 100.924948 
L 218.910618 100.546715 
L 219.321078 100.234418 
L 219.321078 72.558019 
L 219.321078 72.558019 
L 218.910618 59.802363 
L 218.806545 98.820175 
z
" clip-path="url(#p44cb647b2c)" style="fill: #1f77b4; fill-opacity: 0.2; stroke: #1f77b4; stroke-opacity: 0.2"/>
    <path d="M 220.212216 97.585333 
L 220.212216 100.163422 
L 220.499855 66.060756 
L 220.547358 101.063065 
L 220.87646 99.16501 
L 221.06189 101.224917 
L 221.245457 90.934572 
L 221.472351 100.971723 
L 222.136595 100.856837 
L 222.651128 81.34176 
L 222.986269 101.241044 
L 223.027733 99.482005 
L 223.315372 75.813007 
L 223.396729 99.143509 
L 223.877407 101.274659 
L 224.575507 70.547185 
L 224.575507 58.195943 
L 224.575507 58.195943 
L 223.877407 99.392868 
L 223.396729 96.918322 
L 223.315372 56.973696 
L 223.027733 96.899942 
L 222.986269 100.754817 
L 222.651128 58.774833 
L 222.136595 98.656367 
L 221.472351 98.986072 
L 221.245457 60.641083 
L 221.06189 100.652394 
L 220.87646 65.682702 
L 220.547358 99.253197 
L 220.499855 56.428602 
L 220.212216 97.585333 
z
" clip-path="url(#p44cb647b2c)" style="fill: #1f77b4; fill-opacity: 0.2; stroke: #1f77b4; stroke-opacity: 0.2"/>
    <path d="M 224.8024 95.747184 
L 224.8024 99.331534 
L 224.952112 99.26956 
L 225.137542 101.040902 
L 225.137542 96.504355 
L 225.137542 96.504355 
L 224.952112 98.789626 
L 224.8024 95.747184 
z
" clip-path="url(#p44cb647b2c)" style="fill: #1f77b4; fill-opacity: 0.2; stroke: #1f77b4; stroke-opacity: 0.2"/>
    <path d="M 225.466645 64.92051 
L 225.466645 93.751766 
L 225.754284 89.484826 
L 226.316319 91.725013 
L 226.692924 98.860485 
L 226.726779 99.253888 
L 227.061921 101.248801 
L 227.391023 87.078742 
L 227.617917 101.4723 
L 227.905556 75.238303 
L 228.467592 100.949809 
L 228.651158 86.423566 
L 228.651158 61.124996 
L 228.651158 61.124996 
L 228.467592 99.853617 
L 227.905556 62.716024 
L 227.617917 96.806059 
L 227.391023 59.898631 
L 227.061921 99.297691 
L 226.726779 97.892379 
L 226.692924 98.513564 
L 226.316319 59.251432 
L 225.754284 61.429404 
L 225.466645 64.92051 
z
" clip-path="url(#p44cb647b2c)" style="fill: #1f77b4; fill-opacity: 0.2; stroke: #1f77b4; stroke-opacity: 0.2"/>
    <path d="M 229.131836 98.493872 
L 229.131836 101.589123 
L 229.542296 101.471409 
L 229.829935 76.741853 
L 230.056829 98.043072 
L 230.39197 101.238172 
L 230.721073 69.052751 
L 231.283108 101.074492 
L 231.283108 98.516168 
L 231.283108 98.516168 
L 230.721073 57.223183 
L 230.39197 99.301843 
L 230.056829 68.352742 
L 229.829935 63.64427 
L 229.542296 98.686364 
L 229.131836 98.493872 
z
" clip-path="url(#p44cb647b2c)" style="fill: #1f77b4; fill-opacity: 0.2; stroke: #1f77b4; stroke-opacity: 0.2"/>
    <path d="M 231.570748 61.54797 
L 231.570748 88.275511 
L 231.981208 77.138909 
L 231.981208 63.65958 
L 231.981208 63.65958 
L 231.570748 61.54797 
z
" clip-path="url(#p44cb647b2c)" style="fill: #1f77b4; fill-opacity: 0.2; stroke: #1f77b4; stroke-opacity: 0.2"/>
    <path d="M 233.159985 63.621588 
L 233.159985 71.398436 
L 233.207487 100.959245 
L 233.53659 95.522337 
L 233.72202 100.984494 
L 233.905587 74.307052 
L 234.13248 100.995251 
L 234.796725 66.692628 
L 234.796725 59.824224 
L 234.796725 59.824224 
L 234.13248 98.333278 
L 233.905587 61.343719 
L 233.72202 68.310886 
L 233.53659 55.540104 
L 233.207487 99.007753 
L 233.159985 63.621588 
z
" clip-path="url(#p44cb647b2c)" style="fill: #1f77b4; fill-opacity: 0.2; stroke: #1f77b4; stroke-opacity: 0.2"/>
    <path d="M 235.311257 62.04451 
L 235.311257 65.460071 
L 235.646399 84.769565 
L 235.873293 101.035774 
L 235.975502 67.989427 
L 235.975502 60.297928 
L 235.975502 60.297928 
L 235.873293 97.069081 
L 235.646399 62.005715 
L 235.311257 62.04451 
z
" clip-path="url(#p44cb647b2c)" style="fill: #1f77b4; fill-opacity: 0.2; stroke: #1f77b4; stroke-opacity: 0.2"/>
    <path d="M 237.235636 64.553446 
L 237.235636 67.429576 
L 237.235636 64.553446 
L 237.235636 64.553446 
z
" clip-path="url(#p44cb647b2c)" style="fill: #1f77b4; fill-opacity: 0.2; stroke: #1f77b4; stroke-opacity: 0.2"/>
    <path d="M 237.797672 97.451776 
L 237.797672 101.116456 
L 237.797672 97.451776 
L 237.797672 97.451776 
z
" clip-path="url(#p44cb647b2c)" style="fill: #1f77b4; fill-opacity: 0.2; stroke: #1f77b4; stroke-opacity: 0.2"/>
    <path d="M 238.126774 61.909746 
L 238.126774 66.539724 
L 238.414413 150.097163 
L 238.976449 68.196698 
L 239.386909 68.635677 
L 239.386909 67.216082 
L 239.386909 67.216082 
L 238.976449 63.960193 
L 238.414413 74.757664 
L 238.126774 61.909746 
z
" clip-path="url(#p44cb647b2c)" style="fill: #1f77b4; fill-opacity: 0.2; stroke: #1f77b4; stroke-opacity: 0.2"/>
    <path d="M 240.051153 64.294669 
L 240.051153 68.20171 
L 240.565686 68.839273 
L 240.942291 68.602934 
L 241.311288 68.06913 
L 241.791966 65.910553 
L 242.490065 69.701677 
L 242.716959 68.680951 
L 243.0521 70.438485 
L 243.381203 68.696958 
L 244.126805 69.362018 
L 244.230877 68.526705 
L 244.641337 68.639397 
L 245.532475 69.387492 
L 245.820115 125.816314 
L 245.820115 69.334856 
L 245.820115 69.334856 
L 245.532475 64.712573 
L 244.641337 66.44262 
L 244.230877 65.602614 
L 244.126805 69.117283 
L 243.381203 64.786067 
L 243.0521 67.646532 
L 242.716959 67.055602 
L 242.490065 67.331194 
L 241.791966 63.012322 
L 241.311288 65.962585 
L 240.942291 62.085393 
L 240.565686 65.587978 
L 240.051153 64.294669 
z
" clip-path="url(#p44cb647b2c)" style="fill: #1f77b4; fill-opacity: 0.2; stroke: #1f77b4; stroke-opacity: 0.2"/>
    <path d="M 246.38215 66.080645 
L 246.38215 68.857382 
L 246.565716 69.450313 
L 247.456854 68.557657 
L 247.971387 69.879795 
L 248.306529 69.986537 
L 248.635631 69.560474 
L 248.716989 69.135093 
L 249.197667 69.993031 
L 249.895766 69.423327 
L 249.895766 67.619917 
L 249.895766 67.619917 
L 249.197667 66.177085 
L 248.716989 69.03637 
L 248.635631 69.287724 
L 248.306529 67.373873 
L 247.971387 67.781129 
L 247.456854 66.208777 
L 246.565716 67.889122 
L 246.38215 66.080645 
z
" clip-path="url(#p44cb647b2c)" style="fill: #1f77b4; fill-opacity: 0.2; stroke: #1f77b4; stroke-opacity: 0.2"/>
    <path d="M 250.641368 69.35756 
L 250.641368 71.416272 
L 250.786904 68.721611 
L 251.074543 295.488 
L 251.636578 69.12376 
L 252.047039 69.453972 
L 252.38218 71.918967 
L 252.711283 69.484011 
L 253.225816 68.246375 
L 253.225816 67.281054 
L 253.225816 67.281054 
L 252.711283 68.748432 
L 252.38218 69.29972 
L 252.047039 67.690849 
L 251.636578 67.633177 
L 251.074543 104.29605 
L 250.786904 66.734071 
L 250.641368 69.35756 
z
" clip-path="url(#p44cb647b2c)" style="fill: #1f77b4; fill-opacity: 0.2; stroke: #1f77b4; stroke-opacity: 0.2"/>
    <path d="M 253.787851 69.522073 
L 253.787851 69.5667 
L 253.971417 69.603181 
L 254.452095 69.427208 
L 254.862555 69.81506 
L 255.150195 143.164217 
L 255.377088 70.509596 
L 255.71223 70.382215 
L 256.041333 67.675237 
L 256.786934 69.087842 
L 256.891007 68.878893 
L 257.301467 70.01669 
L 257.301467 68.263477 
L 257.301467 68.263477 
L 256.891007 68.657149 
L 256.786934 67.61995 
L 256.041333 67.49195 
L 255.71223 68.115911 
L 255.377088 67.461311 
L 255.150195 76.597167 
L 254.862555 68.933913 
L 254.452095 68.892267 
L 253.971417 68.068309 
L 253.787851 69.522073 
z
" clip-path="url(#p44cb647b2c)" style="fill: #1f77b4; fill-opacity: 0.2; stroke: #1f77b4; stroke-opacity: 0.2"/>
    <path d="M 258.192605 67.815085 
L 258.192605 68.547528 
L 258.480244 286.103215 
L 258.527747 71.601311 
L 259.04228 70.496047 
L 259.225846 69.749953 
L 259.225846 67.819601 
L 259.225846 67.819601 
L 259.04228 68.16572 
L 258.527747 68.961824 
L 258.480244 113.592197 
L 258.192605 67.815085 
z
" clip-path="url(#p44cb647b2c)" style="fill: #1f77b4; fill-opacity: 0.2; stroke: #1f77b4; stroke-opacity: 0.2"/>
    <path d="M 260.116984 67.948236 
L 260.116984 68.053742 
L 260.631517 69.008559 
L 260.966658 70.053559 
L 261.295761 251.895385 
L 261.377119 69.924433 
L 261.857796 68.128752 
L 262.555896 68.358276 
L 262.555896 68.18552 
L 262.555896 68.18552 
L 261.857796 67.93545 
L 261.377119 67.99525 
L 261.295761 249.224121 
L 260.966658 69.317186 
L 260.631517 68.013177 
L 260.116984 67.948236 
z
" clip-path="url(#p44cb647b2c)" style="fill: #1f77b4; fill-opacity: 0.2; stroke: #1f77b4; stroke-opacity: 0.2"/>
    <path d="M 263.117931 69.991957 
L 263.117931 70.028178 
L 263.117931 69.991957 
L 263.117931 69.991957 
z
" clip-path="url(#p44cb647b2c)" style="fill: #1f77b4; fill-opacity: 0.2; stroke: #1f77b4; stroke-opacity: 0.2"/>
    <path d="M 263.734673 259.326526 
L 263.734673 282.583803 
L 264.296708 68.251343 
L 264.707168 69.376454 
L 265.04231 70.247628 
L 265.885945 270.700391 
L 266.447981 68.369568 
L 266.447981 68.264667 
L 266.447981 68.264667 
L 265.885945 269.672664 
L 265.04231 70.103483 
L 264.707168 68.40021 
L 264.296708 67.884125 
L 263.734673 259.326526 
z
" clip-path="url(#p44cb647b2c)" style="fill: #1f77b4; fill-opacity: 0.2; stroke: #1f77b4; stroke-opacity: 0.2"/>
    <path d="M 267.810324 263.331898 
L 267.810324 264.891633 
L 268.37236 68.540043 
L 268.37236 68.508632 
L 268.37236 68.508632 
L 267.810324 263.331898 
z
" clip-path="url(#p44cb647b2c)" style="fill: #1f77b4; fill-opacity: 0.2; stroke: #1f77b4; stroke-opacity: 0.2"/>
    <path d="M 271.140374 258.044036 
L 271.140374 268.378135 
L 273.955891 252.994954 
L 275.216025 249.174087 
L 276.394803 271.884408 
L 278.546075 264.391626 
L 280.470454 252.381183 
L 281.361592 232.874676 
L 283.800504 253.34501 
L 284.546105 229.248378 
L 284.546105 224.863046 
L 284.546105 224.863046 
L 283.800504 236.6731 
L 281.361592 230.723848 
L 280.470454 238.168078 
L 278.546075 243.172325 
L 276.394803 250.242463 
L 275.216025 247.202617 
L 273.955891 250.636359 
L 271.140374 258.044036 
z
" clip-path="url(#p44cb647b2c)" style="fill: #1f77b4; fill-opacity: 0.2; stroke: #1f77b4; stroke-opacity: 0.2"/>
    <path d="M 286.616021 222.325113 
L 286.616021 241.101156 
L 287.876155 244.185961 
L 289.054932 263.842837 
L 290.691672 211.935614 
L 291.206205 240.976903 
L 293.130584 237.878431 
L 294.021722 234.238956 
L 294.871396 236.217401 
L 295.281856 232.558625 
L 296.460633 247.298592 
L 296.460633 225.93654 
L 296.460633 225.93654 
L 295.281856 230.473326 
L 294.871396 232.259899 
L 294.021722 211.002283 
L 293.130584 217.861888 
L 291.206205 228.956042 
L 290.691672 211.566535 
L 289.054932 235.418479 
L 287.876155 224.712688 
L 286.616021 222.325113 
z
" clip-path="url(#p44cb647b2c)" style="fill: #1f77b4; fill-opacity: 0.2; stroke: #1f77b4; stroke-opacity: 0.2"/>
    <path d="M 297.206235 223.853253 
L 297.206235 226.788077 
L 298.611906 223.009432 
L 299.27615 233.643763 
L 300.536285 219.860395 
L 301.427423 215.601732 
L 301.715062 255.821891 
L 302.277097 216.578367 
L 303.351802 213.39818 
L 303.866334 228.094484 
L 304.611936 208.273663 
L 305.790713 226.132378 
L 306.017607 207.291746 
L 306.681851 206.1376 
L 307.531526 203.889372 
L 307.941986 202.442158 
L 309.120763 242.037684 
L 309.120763 216.101604 
L 309.120763 216.101604 
L 307.941986 200.759315 
L 307.531526 202.807785 
L 306.681851 203.577218 
L 306.017607 205.740998 
L 305.790713 208.527877 
L 304.611936 207.146164 
L 303.866334 211.520046 
L 303.351802 212.341283 
L 302.277097 214.664863 
L 301.715062 223.943621 
L 301.427423 215.035496 
L 300.536285 217.736206 
L 299.27615 207.138262 
L 298.611906 220.998311 
L 297.206235 223.853253 
z
" clip-path="url(#p44cb647b2c)" style="fill: #1f77b4; fill-opacity: 0.2; stroke: #1f77b4; stroke-opacity: 0.2"/>
    <path d="M 309.682798 198.212516 
L 309.682798 200.480665 
L 309.866365 199.37227 
L 310.757503 200.730046 
L 311.272036 202.699085 
L 311.607177 199.935156 
L 311.93628 238.156026 
L 313.196414 209.953771 
L 313.196414 195.557705 
L 313.196414 195.557705 
L 311.93628 200.265267 
L 311.607177 196.371003 
L 311.272036 197.667264 
L 310.757503 198.567915 
L 309.866365 197.478236 
L 309.682798 198.212516 
z
" clip-path="url(#p44cb647b2c)" style="fill: #1f77b4; fill-opacity: 0.2; stroke: #1f77b4; stroke-opacity: 0.2"/>
    <path d="M 314.087553 189.551797 
L 314.087553 193.269392 
L 314.375192 249.813597 
L 314.937227 191.344219 
L 315.347687 189.95455 
L 316.011931 188.74008 
L 316.526464 226.769135 
L 316.526464 195.825688 
L 316.526464 195.825688 
L 316.011931 186.789849 
L 315.347687 187.050705 
L 314.937227 189.732384 
L 314.375192 212.618052 
L 314.087553 189.551797 
z
" clip-path="url(#p44cb647b2c)" style="fill: #1f77b4; fill-opacity: 0.2; stroke: #1f77b4; stroke-opacity: 0.2"/>
    <path d="M 317.272066 183.328446 
L 317.272066 186.232377 
L 317.752744 183.655514 
L 318.450843 213.749207 
L 318.677737 184.398517 
L 319.012878 183.428542 
L 319.341981 221.476468 
L 320.087583 177.751105 
L 320.191656 178.010294 
L 320.602116 181.044362 
L 321.493254 175.922913 
L 321.780893 240.002218 
L 321.780893 208.375445 
L 321.780893 208.375445 
L 321.493254 175.529786 
L 320.602116 176.074525 
L 320.191656 175.737989 
L 320.087583 177.114165 
L 319.341981 187.140702 
L 319.012878 180.3693 
L 318.677737 181.054818 
L 318.450843 188.511054 
L 317.752744 182.15042 
L 317.272066 183.328446 
z
" clip-path="url(#p44cb647b2c)" style="fill: #1f77b4; fill-opacity: 0.2; stroke: #1f77b4; stroke-opacity: 0.2"/>
    <path d="M 322.342928 173.106105 
L 322.342928 182.093993 
L 322.526495 193.22278 
L 323.417633 174.632993 
L 323.932165 204.143564 
L 324.267307 175.263741 
L 324.59641 233.780991 
L 324.59641 186.249226 
L 324.59641 186.249226 
L 324.267307 172.646906 
L 323.932165 173.47949 
L 323.417633 172.883359 
L 322.526495 172.401796 
L 322.342928 173.106105 
z
" clip-path="url(#p44cb647b2c)" style="fill: #1f77b4; fill-opacity: 0.2; stroke: #1f77b4; stroke-opacity: 0.2"/>
    <path d="M 325.158445 172.555337 
L 325.158445 174.916251 
L 325.856544 216.544992 
L 325.856544 181.520192 
L 325.856544 181.520192 
L 325.158445 172.555337 
z
" clip-path="url(#p44cb647b2c)" style="fill: #1f77b4; fill-opacity: 0.2; stroke: #1f77b4; stroke-opacity: 0.2"/>
    <path d="M 326.747682 170.893303 
L 326.747682 170.907603 
L 327.035321 252.559204 
L 327.597357 171.105283 
L 328.007817 179.288912 
L 328.007817 165.989798 
L 328.007817 165.989798 
L 327.597357 168.628212 
L 327.035321 204.879495 
L 326.747682 170.893303 
z
" clip-path="url(#p44cb647b2c)" style="fill: #1f77b4; fill-opacity: 0.2; stroke: #1f77b4; stroke-opacity: 0.2"/>
    <path d="M 328.672061 166.596049 
L 328.672061 199.208172 
L 329.186594 239.977191 
L 329.748629 164.73702 
L 329.932196 168.07607 
L 330.412874 164.034327 
L 330.412874 163.141661 
L 330.412874 163.141661 
L 329.932196 163.23959 
L 329.748629 162.910074 
L 329.186594 190.938765 
L 328.672061 166.596049 
z
" clip-path="url(#p44cb647b2c)" style="fill: #1f77b4; fill-opacity: 0.2; stroke: #1f77b4; stroke-opacity: 0.2"/>
    <path d="M 331.110973 186.114719 
L 331.110973 232.525021 
L 331.110973 186.114719 
L 331.110973 186.114719 
z
" clip-path="url(#p44cb647b2c)" style="fill: #1f77b4; fill-opacity: 0.2; stroke: #1f77b4; stroke-opacity: 0.2"/>
    <path d="M 331.673008 162.880998 
L 331.673008 175.953437 
L 332.002111 233.91066 
L 332.002111 212.119313 
L 332.002111 212.119313 
L 331.673008 162.880998 
z
" clip-path="url(#p44cb647b2c)" style="fill: #1f77b4; fill-opacity: 0.2; stroke: #1f77b4; stroke-opacity: 0.2"/>
    <path d="M 332.851785 161.015885 
L 332.851785 233.050043 
L 333.262245 232.331762 
L 333.262245 158.684024 
L 333.262245 158.684024 
L 332.851785 161.015885 
z
" clip-path="url(#p44cb647b2c)" style="fill: #1f77b4; fill-opacity: 0.2; stroke: #1f77b4; stroke-opacity: 0.2"/>
    <path d="M 334.441022 217.688298 
L 334.441022 231.195837 
L 334.441022 217.688298 
L 334.441022 217.688298 
z
" clip-path="url(#p44cb647b2c)" style="fill: #1f77b4; fill-opacity: 0.2; stroke: #1f77b4; stroke-opacity: 0.2"/>
    <path d="M 335.003058 157.445319 
L 335.003058 160.975623 
L 335.186624 229.053991 
L 336.592295 223.320983 
L 336.927437 154.621775 
L 337.256539 223.697391 
L 338.516674 219.692017 
L 338.516674 217.835987 
L 338.516674 217.835987 
L 337.256539 203.118053 
L 336.927437 153.852332 
L 336.592295 221.29879 
L 335.186624 155.756264 
L 335.003058 157.445319 
z
" clip-path="url(#p44cb647b2c)" style="fill: #1f77b4; fill-opacity: 0.2; stroke: #1f77b4; stroke-opacity: 0.2"/>
    <path d="M 339.407812 216.09103 
L 339.407812 217.314411 
L 339.695451 239.871707 
L 340.257486 215.798161 
L 341.332191 211.240243 
L 341.846724 212.12141 
L 341.846724 209.951766 
L 341.846724 209.951766 
L 341.332191 210.314716 
L 340.257486 213.645485 
L 339.695451 209.817612 
L 339.407812 216.09103 
z
" clip-path="url(#p44cb647b2c)" style="fill: #1f77b4; fill-opacity: 0.2; stroke: #1f77b4; stroke-opacity: 0.2"/>
    <path d="M 343.771102 205.829945 
L 343.771102 208.17942 
L 343.997996 208.509154 
L 344.66224 204.797534 
L 345.511915 204.236394 
L 345.922375 202.681049 
L 347.101152 218.766963 
L 347.101152 199.659072 
L 347.101152 199.659072 
L 345.922375 200.862942 
L 345.511915 202.389004 
L 344.66224 203.331667 
L 343.997996 202.682151 
L 343.771102 205.829945 
z
" clip-path="url(#p44cb647b2c)" style="fill: #1f77b4; fill-opacity: 0.2; stroke: #1f77b4; stroke-opacity: 0.2"/>
    <path d="M 347.663187 195.558932 
L 347.663187 199.569664 
L 347.846754 201.535522 
L 348.737892 198.148394 
L 349.252425 198.487491 
L 349.587566 197.330497 
L 349.916669 225.28304 
L 351.176804 206.887246 
L 352.067942 194.019931 
L 352.355581 236.931652 
L 352.917616 191.46388 
L 353.328076 189.76776 
L 353.992321 190.789184 
L 354.506853 213.351385 
L 354.506853 190.057721 
L 354.506853 190.057721 
L 353.992321 187.381858 
L 353.328076 189.658262 
L 352.917616 188.670162 
L 352.355581 197.12286 
L 352.067942 191.703823 
L 351.176804 194.114482 
L 349.916669 201.256994 
L 349.587566 196.11698 
L 349.252425 196.062907 
L 348.737892 197.845977 
L 347.846754 196.704548 
L 347.663187 195.558932 
z
" clip-path="url(#p44cb647b2c)" style="fill: #1f77b4; fill-opacity: 0.2; stroke: #1f77b4; stroke-opacity: 0.2"/>
    <path d="M 355.252455 183.157869 
L 355.252455 184.36539 
L 355.733133 182.062409 
L 356.431232 203.435355 
L 356.658126 185.188965 
L 356.993267 183.096594 
L 357.32237 203.117104 
L 358.172045 179.271877 
L 358.582505 180.471479 
L 359.473643 175.829676 
L 359.761282 223.872734 
L 360.323317 174.18214 
L 360.506884 173.886825 
L 361.398022 174.804261 
L 361.912554 175.60383 
L 362.247696 177.352687 
L 362.576799 234.389661 
L 363.138834 171.328573 
L 363.836933 211.56245 
L 363.836933 171.740334 
L 363.836933 171.740334 
L 363.138834 169.658654 
L 362.576799 203.762036 
L 362.247696 172.212576 
L 361.912554 171.384862 
L 361.398022 172.455724 
L 360.506884 172.519571 
L 360.323317 172.578876 
L 359.761282 189.875406 
L 359.473643 175.17733 
L 358.582505 176.970094 
L 358.172045 177.118161 
L 357.32237 178.040775 
L 356.993267 179.680457 
L 356.658126 179.583186 
L 356.431232 181.870509 
L 355.733133 181.611638 
L 355.252455 183.157869 
z
" clip-path="url(#p44cb647b2c)" style="fill: #1f77b4; fill-opacity: 0.2; stroke: #1f77b4; stroke-opacity: 0.2"/>
    <path d="M 365.01571 198.055037 
L 365.01571 228.101165 
L 365.577746 170.179822 
L 365.988206 168.727114 
L 365.988206 168.380879 
L 365.988206 168.380879 
L 365.577746 167.818694 
L 365.01571 198.055037 
z
" clip-path="url(#p44cb647b2c)" style="fill: #1f77b4; fill-opacity: 0.2; stroke: #1f77b4; stroke-opacity: 0.2"/>
    <path d="M 367.166983 222.329647 
L 367.166983 222.677603 
L 367.729018 165.205268 
L 367.729018 163.911584 
L 367.729018 163.911584 
L 367.166983 222.329647 
z
" clip-path="url(#p44cb647b2c)" style="fill: #1f77b4; fill-opacity: 0.2; stroke: #1f77b4; stroke-opacity: 0.2"/>
    <path d="M 369.091362 188.473853 
L 369.091362 218.681943 
L 369.653397 162.663148 
L 369.9825 217.157798 
L 369.9825 215.99453 
L 369.9825 215.99453 
L 369.653397 161.2832 
L 369.091362 188.473853 
z
" clip-path="url(#p44cb647b2c)" style="fill: #1f77b4; fill-opacity: 0.2; stroke: #1f77b4; stroke-opacity: 0.2"/>
    <path d="M 371.242634 212.135722 
L 371.242634 213.346728 
L 371.242634 212.135722 
L 371.242634 212.135722 
z
" clip-path="url(#p44cb647b2c)" style="fill: #1f77b4; fill-opacity: 0.2; stroke: #1f77b4; stroke-opacity: 0.2"/>
    <path d="M 372.421412 187.64605 
L 372.421412 210.596438 
L 372.421412 187.64605 
L 372.421412 187.64605 
z
" clip-path="url(#p44cb647b2c)" style="fill: #1f77b4; fill-opacity: 0.2; stroke: #1f77b4; stroke-opacity: 0.2"/>
    <path d="M 374.572684 205.045106 
L 374.572684 206.347013 
L 375.236928 204.221738 
L 376.497063 201.152842 
L 376.497063 201.072039 
L 376.497063 201.072039 
L 375.236928 203.975767 
L 374.572684 205.045106 
z
" clip-path="url(#p44cb647b2c)" style="fill: #1f77b4; fill-opacity: 0.2; stroke: #1f77b4; stroke-opacity: 0.2"/>
    <path d="M 377.67584 198.192096 
L 377.67584 198.347668 
L 377.67584 198.192096 
L 377.67584 198.192096 
z
" clip-path="url(#p44cb647b2c)" style="fill: #1f77b4; fill-opacity: 0.2; stroke: #1f77b4; stroke-opacity: 0.2"/>
    <path d="M 379.31258 193.852181 
L 379.31258 193.972719 
L 379.827113 194.050025 
L 379.827113 193.500173 
L 379.827113 193.500173 
L 379.31258 193.852181 
z
" clip-path="url(#p44cb647b2c)" style="fill: #1f77b4; fill-opacity: 0.2; stroke: #1f77b4; stroke-opacity: 0.2"/>
    <path d="M 382.64263 186.635779 
L 382.64263 187.415328 
L 383.902764 184.715114 
L 385.081541 181.569794 
L 385.081541 181.241257 
L 385.081541 181.241257 
L 383.902764 183.514577 
L 382.64263 186.635779 
z
" clip-path="url(#p44cb647b2c)" style="fill: #1f77b4; fill-opacity: 0.2; stroke: #1f77b4; stroke-opacity: 0.2"/>
    <path d="M 385.827143 179.634795 
L 385.827143 183.053587 
L 386.718281 179.89275 
L 387.232814 179.693099 
L 387.897058 178.56245 
L 389.157193 175.435259 
L 390.048331 173.885019 
L 390.048331 173.185263 
L 390.048331 173.185263 
L 389.157193 174.935686 
L 387.897058 178.141338 
L 387.232814 179.381186 
L 386.718281 176.966257 
L 385.827143 179.634795 
z
" clip-path="url(#p44cb647b2c)" style="fill: #1f77b4; fill-opacity: 0.2; stroke: #1f77b4; stroke-opacity: 0.2"/>
    <path d="M 390.898005 171.406139 
L 390.898005 171.682951 
L 390.898005 171.406139 
L 390.898005 171.406139 
z
" clip-path="url(#p44cb647b2c)" style="fill: #1f77b4; fill-opacity: 0.2; stroke: #1f77b4; stroke-opacity: 0.2"/>
    <path d="M 398.303706 153.64853 
L 398.303706 154.137173 
L 398.303706 153.64853 
L 398.303706 153.64853 
z
" clip-path="url(#p44cb647b2c)" style="fill: #1f77b4; fill-opacity: 0.2; stroke: #1f77b4; stroke-opacity: 0.2"/>
   </g>
   <g id="matplotlib.axis_1">
    <g id="xtick_1">
     <g id="line2d_1">
      <defs>
       <path id="m4c08e20728" d="M 0 0 
L 0 3.5 
" style="stroke: #000000; stroke-width: 0.8"/>
      </defs>
      <g>
       <use xlink:href="#m4c08e20728" x="86.059682" y="307.584" style="stroke: #000000; stroke-width: 0.8"/>
      </g>
     </g>
     <g id="text_1">
      <!-- $\mathdefault{10^{3}}$ -->
      <g transform="translate(77.259682 322.182437)scale(0.1 -0.1)">
       <defs>
        <path id="DejaVuSans-31" d="M 794 531 
L 1825 531 
L 1825 4091 
L 703 3866 
L 703 4441 
L 1819 4666 
L 2450 4666 
L 2450 531 
L 3481 531 
L 3481 0 
L 794 0 
L 794 531 
z
" transform="scale(0.015625)"/>
        <path id="DejaVuSans-30" d="M 2034 4250 
Q 1547 4250 1301 3770 
Q 1056 3291 1056 2328 
Q 1056 1369 1301 889 
Q 1547 409 2034 409 
Q 2525 409 2770 889 
Q 3016 1369 3016 2328 
Q 3016 3291 2770 3770 
Q 2525 4250 2034 4250 
z
M 2034 4750 
Q 2819 4750 3233 4129 
Q 3647 3509 3647 2328 
Q 3647 1150 3233 529 
Q 2819 -91 2034 -91 
Q 1250 -91 836 529 
Q 422 1150 422 2328 
Q 422 3509 836 4129 
Q 1250 4750 2034 4750 
z
" transform="scale(0.015625)"/>
        <path id="DejaVuSans-33" d="M 2597 2516 
Q 3050 2419 3304 2112 
Q 3559 1806 3559 1356 
Q 3559 666 3084 287 
Q 2609 -91 1734 -91 
Q 1441 -91 1130 -33 
Q 819 25 488 141 
L 488 750 
Q 750 597 1062 519 
Q 1375 441 1716 441 
Q 2309 441 2620 675 
Q 2931 909 2931 1356 
Q 2931 1769 2642 2001 
Q 2353 2234 1838 2234 
L 1294 2234 
L 1294 2753 
L 1863 2753 
Q 2328 2753 2575 2939 
Q 2822 3125 2822 3475 
Q 2822 3834 2567 4026 
Q 2313 4219 1838 4219 
Q 1578 4219 1281 4162 
Q 984 4106 628 3988 
L 628 4550 
Q 988 4650 1302 4700 
Q 1616 4750 1894 4750 
Q 2613 4750 3031 4423 
Q 3450 4097 3450 3541 
Q 3450 3153 3228 2886 
Q 3006 2619 2597 2516 
z
" transform="scale(0.015625)"/>
       </defs>
       <use xlink:href="#DejaVuSans-31" transform="translate(0 0.765625)"/>
       <use xlink:href="#DejaVuSans-30" transform="translate(63.623047 0.765625)"/>
       <use xlink:href="#DejaVuSans-33" transform="translate(128.203125 39.046875)scale(0.7)"/>
      </g>
     </g>
    </g>
    <g id="xtick_2">
     <g id="line2d_2">
      <g>
       <use xlink:href="#m4c08e20728" x="128.115722" y="307.584" style="stroke: #000000; stroke-width: 0.8"/>
      </g>
     </g>
     <g id="text_2">
      <!-- $\mathdefault{10^{4}}$ -->
      <g transform="translate(119.315722 322.182437)scale(0.1 -0.1)">
       <defs>
        <path id="DejaVuSans-34" d="M 2419 4116 
L 825 1625 
L 2419 1625 
L 2419 4116 
z
M 2253 4666 
L 3047 4666 
L 3047 1625 
L 3713 1625 
L 3713 1100 
L 3047 1100 
L 3047 0 
L 2419 0 
L 2419 1100 
L 313 1100 
L 313 1709 
L 2253 4666 
z
" transform="scale(0.015625)"/>
       </defs>
       <use xlink:href="#DejaVuSans-31" transform="translate(0 0.684375)"/>
       <use xlink:href="#DejaVuSans-30" transform="translate(63.623047 0.684375)"/>
       <use xlink:href="#DejaVuSans-34" transform="translate(128.203125 38.965625)scale(0.7)"/>
      </g>
     </g>
    </g>
    <g id="xtick_3">
     <g id="line2d_3">
      <g>
       <use xlink:href="#m4c08e20728" x="170.171763" y="307.584" style="stroke: #000000; stroke-width: 0.8"/>
      </g>
     </g>
     <g id="text_3">
      <!-- $\mathdefault{10^{5}}$ -->
      <g transform="translate(161.371763 322.182437)scale(0.1 -0.1)">
       <defs>
        <path id="DejaVuSans-35" d="M 691 4666 
L 3169 4666 
L 3169 4134 
L 1269 4134 
L 1269 2991 
Q 1406 3038 1543 3061 
Q 1681 3084 1819 3084 
Q 2600 3084 3056 2656 
Q 3513 2228 3513 1497 
Q 3513 744 3044 326 
Q 2575 -91 1722 -91 
Q 1428 -91 1123 -41 
Q 819 9 494 109 
L 494 744 
Q 775 591 1075 516 
Q 1375 441 1709 441 
Q 2250 441 2565 725 
Q 2881 1009 2881 1497 
Q 2881 1984 2565 2268 
Q 2250 2553 1709 2553 
Q 1456 2553 1204 2497 
Q 953 2441 691 2322 
L 691 4666 
z
" transform="scale(0.015625)"/>
       </defs>
       <use xlink:href="#DejaVuSans-31" transform="translate(0 0.684375)"/>
       <use xlink:href="#DejaVuSans-30" transform="translate(63.623047 0.684375)"/>
       <use xlink:href="#DejaVuSans-35" transform="translate(128.203125 38.965625)scale(0.7)"/>
      </g>
     </g>
    </g>
    <g id="xtick_4">
     <g id="line2d_4">
      <g>
       <use xlink:href="#m4c08e20728" x="212.227803" y="307.584" style="stroke: #000000; stroke-width: 0.8"/>
      </g>
     </g>
     <g id="text_4">
      <!-- $\mathdefault{10^{6}}$ -->
      <g transform="translate(203.427803 322.182437)scale(0.1 -0.1)">
       <defs>
        <path id="DejaVuSans-36" d="M 2113 2584 
Q 1688 2584 1439 2293 
Q 1191 2003 1191 1497 
Q 1191 994 1439 701 
Q 1688 409 2113 409 
Q 2538 409 2786 701 
Q 3034 994 3034 1497 
Q 3034 2003 2786 2293 
Q 2538 2584 2113 2584 
z
M 3366 4563 
L 3366 3988 
Q 3128 4100 2886 4159 
Q 2644 4219 2406 4219 
Q 1781 4219 1451 3797 
Q 1122 3375 1075 2522 
Q 1259 2794 1537 2939 
Q 1816 3084 2150 3084 
Q 2853 3084 3261 2657 
Q 3669 2231 3669 1497 
Q 3669 778 3244 343 
Q 2819 -91 2113 -91 
Q 1303 -91 875 529 
Q 447 1150 447 2328 
Q 447 3434 972 4092 
Q 1497 4750 2381 4750 
Q 2619 4750 2861 4703 
Q 3103 4656 3366 4563 
z
" transform="scale(0.015625)"/>
       </defs>
       <use xlink:href="#DejaVuSans-31" transform="translate(0 0.765625)"/>
       <use xlink:href="#DejaVuSans-30" transform="translate(63.623047 0.765625)"/>
       <use xlink:href="#DejaVuSans-36" transform="translate(128.203125 39.046875)scale(0.7)"/>
      </g>
     </g>
    </g>
    <g id="xtick_5">
     <g id="line2d_5">
      <g>
       <use xlink:href="#m4c08e20728" x="254.283844" y="307.584" style="stroke: #000000; stroke-width: 0.8"/>
      </g>
     </g>
     <g id="text_5">
      <!-- $\mathdefault{10^{7}}$ -->
      <g transform="translate(245.483844 322.182437)scale(0.1 -0.1)">
       <defs>
        <path id="DejaVuSans-37" d="M 525 4666 
L 3525 4666 
L 3525 4397 
L 1831 0 
L 1172 0 
L 2766 4134 
L 525 4134 
L 525 4666 
z
" transform="scale(0.015625)"/>
       </defs>
       <use xlink:href="#DejaVuSans-31" transform="translate(0 0.684375)"/>
       <use xlink:href="#DejaVuSans-30" transform="translate(63.623047 0.684375)"/>
       <use xlink:href="#DejaVuSans-37" transform="translate(128.203125 38.965625)scale(0.7)"/>
      </g>
     </g>
    </g>
    <g id="xtick_6">
     <g id="line2d_6">
      <g>
       <use xlink:href="#m4c08e20728" x="296.339884" y="307.584" style="stroke: #000000; stroke-width: 0.8"/>
      </g>
     </g>
     <g id="text_6">
      <!-- $\mathdefault{10^{8}}$ -->
      <g transform="translate(287.539884 322.182437)scale(0.1 -0.1)">
       <defs>
        <path id="DejaVuSans-38" d="M 2034 2216 
Q 1584 2216 1326 1975 
Q 1069 1734 1069 1313 
Q 1069 891 1326 650 
Q 1584 409 2034 409 
Q 2484 409 2743 651 
Q 3003 894 3003 1313 
Q 3003 1734 2745 1975 
Q 2488 2216 2034 2216 
z
M 1403 2484 
Q 997 2584 770 2862 
Q 544 3141 544 3541 
Q 544 4100 942 4425 
Q 1341 4750 2034 4750 
Q 2731 4750 3128 4425 
Q 3525 4100 3525 3541 
Q 3525 3141 3298 2862 
Q 3072 2584 2669 2484 
Q 3125 2378 3379 2068 
Q 3634 1759 3634 1313 
Q 3634 634 3220 271 
Q 2806 -91 2034 -91 
Q 1263 -91 848 271 
Q 434 634 434 1313 
Q 434 1759 690 2068 
Q 947 2378 1403 2484 
z
M 1172 3481 
Q 1172 3119 1398 2916 
Q 1625 2713 2034 2713 
Q 2441 2713 2670 2916 
Q 2900 3119 2900 3481 
Q 2900 3844 2670 4047 
Q 2441 4250 2034 4250 
Q 1625 4250 1398 4047 
Q 1172 3844 1172 3481 
z
" transform="scale(0.015625)"/>
       </defs>
       <use xlink:href="#DejaVuSans-31" transform="translate(0 0.765625)"/>
       <use xlink:href="#DejaVuSans-30" transform="translate(63.623047 0.765625)"/>
       <use xlink:href="#DejaVuSans-38" transform="translate(128.203125 39.046875)scale(0.7)"/>
      </g>
     </g>
    </g>
    <g id="xtick_7">
     <g id="line2d_7">
      <g>
       <use xlink:href="#m4c08e20728" x="338.395925" y="307.584" style="stroke: #000000; stroke-width: 0.8"/>
      </g>
     </g>
     <g id="text_7">
      <!-- $\mathdefault{10^{9}}$ -->
      <g transform="translate(329.595925 322.182437)scale(0.1 -0.1)">
       <defs>
        <path id="DejaVuSans-39" d="M 703 97 
L 703 672 
Q 941 559 1184 500 
Q 1428 441 1663 441 
Q 2288 441 2617 861 
Q 2947 1281 2994 2138 
Q 2813 1869 2534 1725 
Q 2256 1581 1919 1581 
Q 1219 1581 811 2004 
Q 403 2428 403 3163 
Q 403 3881 828 4315 
Q 1253 4750 1959 4750 
Q 2769 4750 3195 4129 
Q 3622 3509 3622 2328 
Q 3622 1225 3098 567 
Q 2575 -91 1691 -91 
Q 1453 -91 1209 -44 
Q 966 3 703 97 
z
M 1959 2075 
Q 2384 2075 2632 2365 
Q 2881 2656 2881 3163 
Q 2881 3666 2632 3958 
Q 2384 4250 1959 4250 
Q 1534 4250 1286 3958 
Q 1038 3666 1038 3163 
Q 1038 2656 1286 2365 
Q 1534 2075 1959 2075 
z
" transform="scale(0.015625)"/>
       </defs>
       <use xlink:href="#DejaVuSans-31" transform="translate(0 0.765625)"/>
       <use xlink:href="#DejaVuSans-30" transform="translate(63.623047 0.765625)"/>
       <use xlink:href="#DejaVuSans-39" transform="translate(128.203125 39.046875)scale(0.7)"/>
      </g>
     </g>
    </g>
    <g id="xtick_8">
     <g id="line2d_8">
      <g>
       <use xlink:href="#m4c08e20728" x="380.451965" y="307.584" style="stroke: #000000; stroke-width: 0.8"/>
      </g>
     </g>
     <g id="text_8">
      <!-- $\mathdefault{10^{10}}$ -->
      <g transform="translate(369.401965 322.182437)scale(0.1 -0.1)">
       <use xlink:href="#DejaVuSans-31" transform="translate(0 0.765625)"/>
       <use xlink:href="#DejaVuSans-30" transform="translate(63.623047 0.765625)"/>
       <use xlink:href="#DejaVuSans-31" transform="translate(128.203125 39.046875)scale(0.7)"/>
       <use xlink:href="#DejaVuSans-30" transform="translate(172.739258 39.046875)scale(0.7)"/>
      </g>
     </g>
    </g>
    <g id="xtick_9">
     <g id="line2d_9">
      <defs>
       <path id="m8754c85e0f" d="M 0 0 
L 0 2 
" style="stroke: #000000; stroke-width: 0.6"/>
      </defs>
      <g>
       <use xlink:href="#m8754c85e0f" x="64.069472" y="307.584" style="stroke: #000000; stroke-width: 0.6"/>
      </g>
     </g>
    </g>
    <g id="xtick_10">
     <g id="line2d_10">
      <g>
       <use xlink:href="#m8754c85e0f" x="69.3239" y="307.584" style="stroke: #000000; stroke-width: 0.6"/>
      </g>
     </g>
    </g>
    <g id="xtick_11">
     <g id="line2d_11">
      <g>
       <use xlink:href="#m8754c85e0f" x="73.399552" y="307.584" style="stroke: #000000; stroke-width: 0.6"/>
      </g>
     </g>
    </g>
    <g id="xtick_12">
     <g id="line2d_12">
      <g>
       <use xlink:href="#m8754c85e0f" x="76.729602" y="307.584" style="stroke: #000000; stroke-width: 0.6"/>
      </g>
     </g>
    </g>
    <g id="xtick_13">
     <g id="line2d_13">
      <g>
       <use xlink:href="#m8754c85e0f" x="79.545118" y="307.584" style="stroke: #000000; stroke-width: 0.6"/>
      </g>
     </g>
    </g>
    <g id="xtick_14">
     <g id="line2d_14">
      <g>
       <use xlink:href="#m8754c85e0f" x="81.98403" y="307.584" style="stroke: #000000; stroke-width: 0.6"/>
      </g>
     </g>
    </g>
    <g id="xtick_15">
     <g id="line2d_15">
      <g>
       <use xlink:href="#m8754c85e0f" x="84.135303" y="307.584" style="stroke: #000000; stroke-width: 0.6"/>
      </g>
     </g>
    </g>
    <g id="xtick_16">
     <g id="line2d_16">
      <g>
       <use xlink:href="#m8754c85e0f" x="98.719811" y="307.584" style="stroke: #000000; stroke-width: 0.6"/>
      </g>
     </g>
    </g>
    <g id="xtick_17">
     <g id="line2d_17">
      <g>
       <use xlink:href="#m8754c85e0f" x="106.125512" y="307.584" style="stroke: #000000; stroke-width: 0.6"/>
      </g>
     </g>
    </g>
    <g id="xtick_18">
     <g id="line2d_18">
      <g>
       <use xlink:href="#m8754c85e0f" x="111.379941" y="307.584" style="stroke: #000000; stroke-width: 0.6"/>
      </g>
     </g>
    </g>
    <g id="xtick_19">
     <g id="line2d_19">
      <g>
       <use xlink:href="#m8754c85e0f" x="115.455592" y="307.584" style="stroke: #000000; stroke-width: 0.6"/>
      </g>
     </g>
    </g>
    <g id="xtick_20">
     <g id="line2d_20">
      <g>
       <use xlink:href="#m8754c85e0f" x="118.785642" y="307.584" style="stroke: #000000; stroke-width: 0.6"/>
      </g>
     </g>
    </g>
    <g id="xtick_21">
     <g id="line2d_21">
      <g>
       <use xlink:href="#m8754c85e0f" x="121.601159" y="307.584" style="stroke: #000000; stroke-width: 0.6"/>
      </g>
     </g>
    </g>
    <g id="xtick_22">
     <g id="line2d_22">
      <g>
       <use xlink:href="#m8754c85e0f" x="124.040071" y="307.584" style="stroke: #000000; stroke-width: 0.6"/>
      </g>
     </g>
    </g>
    <g id="xtick_23">
     <g id="line2d_23">
      <g>
       <use xlink:href="#m8754c85e0f" x="126.191343" y="307.584" style="stroke: #000000; stroke-width: 0.6"/>
      </g>
     </g>
    </g>
    <g id="xtick_24">
     <g id="line2d_24">
      <g>
       <use xlink:href="#m8754c85e0f" x="140.775852" y="307.584" style="stroke: #000000; stroke-width: 0.6"/>
      </g>
     </g>
    </g>
    <g id="xtick_25">
     <g id="line2d_25">
      <g>
       <use xlink:href="#m8754c85e0f" x="148.181553" y="307.584" style="stroke: #000000; stroke-width: 0.6"/>
      </g>
     </g>
    </g>
    <g id="xtick_26">
     <g id="line2d_26">
      <g>
       <use xlink:href="#m8754c85e0f" x="153.435982" y="307.584" style="stroke: #000000; stroke-width: 0.6"/>
      </g>
     </g>
    </g>
    <g id="xtick_27">
     <g id="line2d_27">
      <g>
       <use xlink:href="#m8754c85e0f" x="157.511633" y="307.584" style="stroke: #000000; stroke-width: 0.6"/>
      </g>
     </g>
    </g>
    <g id="xtick_28">
     <g id="line2d_28">
      <g>
       <use xlink:href="#m8754c85e0f" x="160.841683" y="307.584" style="stroke: #000000; stroke-width: 0.6"/>
      </g>
     </g>
    </g>
    <g id="xtick_29">
     <g id="line2d_29">
      <g>
       <use xlink:href="#m8754c85e0f" x="163.6572" y="307.584" style="stroke: #000000; stroke-width: 0.6"/>
      </g>
     </g>
    </g>
    <g id="xtick_30">
     <g id="line2d_30">
      <g>
       <use xlink:href="#m8754c85e0f" x="166.096111" y="307.584" style="stroke: #000000; stroke-width: 0.6"/>
      </g>
     </g>
    </g>
    <g id="xtick_31">
     <g id="line2d_31">
      <g>
       <use xlink:href="#m8754c85e0f" x="168.247384" y="307.584" style="stroke: #000000; stroke-width: 0.6"/>
      </g>
     </g>
    </g>
    <g id="xtick_32">
     <g id="line2d_32">
      <g>
       <use xlink:href="#m8754c85e0f" x="182.831892" y="307.584" style="stroke: #000000; stroke-width: 0.6"/>
      </g>
     </g>
    </g>
    <g id="xtick_33">
     <g id="line2d_33">
      <g>
       <use xlink:href="#m8754c85e0f" x="190.237594" y="307.584" style="stroke: #000000; stroke-width: 0.6"/>
      </g>
     </g>
    </g>
    <g id="xtick_34">
     <g id="line2d_34">
      <g>
       <use xlink:href="#m8754c85e0f" x="195.492022" y="307.584" style="stroke: #000000; stroke-width: 0.6"/>
      </g>
     </g>
    </g>
    <g id="xtick_35">
     <g id="line2d_35">
      <g>
       <use xlink:href="#m8754c85e0f" x="199.567674" y="307.584" style="stroke: #000000; stroke-width: 0.6"/>
      </g>
     </g>
    </g>
    <g id="xtick_36">
     <g id="line2d_36">
      <g>
       <use xlink:href="#m8754c85e0f" x="202.897723" y="307.584" style="stroke: #000000; stroke-width: 0.6"/>
      </g>
     </g>
    </g>
    <g id="xtick_37">
     <g id="line2d_37">
      <g>
       <use xlink:href="#m8754c85e0f" x="205.71324" y="307.584" style="stroke: #000000; stroke-width: 0.6"/>
      </g>
     </g>
    </g>
    <g id="xtick_38">
     <g id="line2d_38">
      <g>
       <use xlink:href="#m8754c85e0f" x="208.152152" y="307.584" style="stroke: #000000; stroke-width: 0.6"/>
      </g>
     </g>
    </g>
    <g id="xtick_39">
     <g id="line2d_39">
      <g>
       <use xlink:href="#m8754c85e0f" x="210.303424" y="307.584" style="stroke: #000000; stroke-width: 0.6"/>
      </g>
     </g>
    </g>
    <g id="xtick_40">
     <g id="line2d_40">
      <g>
       <use xlink:href="#m8754c85e0f" x="224.887933" y="307.584" style="stroke: #000000; stroke-width: 0.6"/>
      </g>
     </g>
    </g>
    <g id="xtick_41">
     <g id="line2d_41">
      <g>
       <use xlink:href="#m8754c85e0f" x="232.293634" y="307.584" style="stroke: #000000; stroke-width: 0.6"/>
      </g>
     </g>
    </g>
    <g id="xtick_42">
     <g id="line2d_42">
      <g>
       <use xlink:href="#m8754c85e0f" x="237.548063" y="307.584" style="stroke: #000000; stroke-width: 0.6"/>
      </g>
     </g>
    </g>
    <g id="xtick_43">
     <g id="line2d_43">
      <g>
       <use xlink:href="#m8754c85e0f" x="241.623714" y="307.584" style="stroke: #000000; stroke-width: 0.6"/>
      </g>
     </g>
    </g>
    <g id="xtick_44">
     <g id="line2d_44">
      <g>
       <use xlink:href="#m8754c85e0f" x="244.953764" y="307.584" style="stroke: #000000; stroke-width: 0.6"/>
      </g>
     </g>
    </g>
    <g id="xtick_45">
     <g id="line2d_45">
      <g>
       <use xlink:href="#m8754c85e0f" x="247.769281" y="307.584" style="stroke: #000000; stroke-width: 0.6"/>
      </g>
     </g>
    </g>
    <g id="xtick_46">
     <g id="line2d_46">
      <g>
       <use xlink:href="#m8754c85e0f" x="250.208192" y="307.584" style="stroke: #000000; stroke-width: 0.6"/>
      </g>
     </g>
    </g>
    <g id="xtick_47">
     <g id="line2d_47">
      <g>
       <use xlink:href="#m8754c85e0f" x="252.359465" y="307.584" style="stroke: #000000; stroke-width: 0.6"/>
      </g>
     </g>
    </g>
    <g id="xtick_48">
     <g id="line2d_48">
      <g>
       <use xlink:href="#m8754c85e0f" x="266.943973" y="307.584" style="stroke: #000000; stroke-width: 0.6"/>
      </g>
     </g>
    </g>
    <g id="xtick_49">
     <g id="line2d_49">
      <g>
       <use xlink:href="#m8754c85e0f" x="274.349675" y="307.584" style="stroke: #000000; stroke-width: 0.6"/>
      </g>
     </g>
    </g>
    <g id="xtick_50">
     <g id="line2d_50">
      <g>
       <use xlink:href="#m8754c85e0f" x="279.604103" y="307.584" style="stroke: #000000; stroke-width: 0.6"/>
      </g>
     </g>
    </g>
    <g id="xtick_51">
     <g id="line2d_51">
      <g>
       <use xlink:href="#m8754c85e0f" x="283.679755" y="307.584" style="stroke: #000000; stroke-width: 0.6"/>
      </g>
     </g>
    </g>
    <g id="xtick_52">
     <g id="line2d_52">
      <g>
       <use xlink:href="#m8754c85e0f" x="287.009804" y="307.584" style="stroke: #000000; stroke-width: 0.6"/>
      </g>
     </g>
    </g>
    <g id="xtick_53">
     <g id="line2d_53">
      <g>
       <use xlink:href="#m8754c85e0f" x="289.825321" y="307.584" style="stroke: #000000; stroke-width: 0.6"/>
      </g>
     </g>
    </g>
    <g id="xtick_54">
     <g id="line2d_54">
      <g>
       <use xlink:href="#m8754c85e0f" x="292.264233" y="307.584" style="stroke: #000000; stroke-width: 0.6"/>
      </g>
     </g>
    </g>
    <g id="xtick_55">
     <g id="line2d_55">
      <g>
       <use xlink:href="#m8754c85e0f" x="294.415505" y="307.584" style="stroke: #000000; stroke-width: 0.6"/>
      </g>
     </g>
    </g>
    <g id="xtick_56">
     <g id="line2d_56">
      <g>
       <use xlink:href="#m8754c85e0f" x="309.000014" y="307.584" style="stroke: #000000; stroke-width: 0.6"/>
      </g>
     </g>
    </g>
    <g id="xtick_57">
     <g id="line2d_57">
      <g>
       <use xlink:href="#m8754c85e0f" x="316.405715" y="307.584" style="stroke: #000000; stroke-width: 0.6"/>
      </g>
     </g>
    </g>
    <g id="xtick_58">
     <g id="line2d_58">
      <g>
       <use xlink:href="#m8754c85e0f" x="321.660144" y="307.584" style="stroke: #000000; stroke-width: 0.6"/>
      </g>
     </g>
    </g>
    <g id="xtick_59">
     <g id="line2d_59">
      <g>
       <use xlink:href="#m8754c85e0f" x="325.735795" y="307.584" style="stroke: #000000; stroke-width: 0.6"/>
      </g>
     </g>
    </g>
    <g id="xtick_60">
     <g id="line2d_60">
      <g>
       <use xlink:href="#m8754c85e0f" x="329.065845" y="307.584" style="stroke: #000000; stroke-width: 0.6"/>
      </g>
     </g>
    </g>
    <g id="xtick_61">
     <g id="line2d_61">
      <g>
       <use xlink:href="#m8754c85e0f" x="331.881362" y="307.584" style="stroke: #000000; stroke-width: 0.6"/>
      </g>
     </g>
    </g>
    <g id="xtick_62">
     <g id="line2d_62">
      <g>
       <use xlink:href="#m8754c85e0f" x="334.320273" y="307.584" style="stroke: #000000; stroke-width: 0.6"/>
      </g>
     </g>
    </g>
    <g id="xtick_63">
     <g id="line2d_63">
      <g>
       <use xlink:href="#m8754c85e0f" x="336.471546" y="307.584" style="stroke: #000000; stroke-width: 0.6"/>
      </g>
     </g>
    </g>
    <g id="xtick_64">
     <g id="line2d_64">
      <g>
       <use xlink:href="#m8754c85e0f" x="351.056055" y="307.584" style="stroke: #000000; stroke-width: 0.6"/>
      </g>
     </g>
    </g>
    <g id="xtick_65">
     <g id="line2d_65">
      <g>
       <use xlink:href="#m8754c85e0f" x="358.461756" y="307.584" style="stroke: #000000; stroke-width: 0.6"/>
      </g>
     </g>
    </g>
    <g id="xtick_66">
     <g id="line2d_66">
      <g>
       <use xlink:href="#m8754c85e0f" x="363.716184" y="307.584" style="stroke: #000000; stroke-width: 0.6"/>
      </g>
     </g>
    </g>
    <g id="xtick_67">
     <g id="line2d_67">
      <g>
       <use xlink:href="#m8754c85e0f" x="367.791836" y="307.584" style="stroke: #000000; stroke-width: 0.6"/>
      </g>
     </g>
    </g>
    <g id="xtick_68">
     <g id="line2d_68">
      <g>
       <use xlink:href="#m8754c85e0f" x="371.121885" y="307.584" style="stroke: #000000; stroke-width: 0.6"/>
      </g>
     </g>
    </g>
    <g id="xtick_69">
     <g id="line2d_69">
      <g>
       <use xlink:href="#m8754c85e0f" x="373.937402" y="307.584" style="stroke: #000000; stroke-width: 0.6"/>
      </g>
     </g>
    </g>
    <g id="xtick_70">
     <g id="line2d_70">
      <g>
       <use xlink:href="#m8754c85e0f" x="376.376314" y="307.584" style="stroke: #000000; stroke-width: 0.6"/>
      </g>
     </g>
    </g>
    <g id="xtick_71">
     <g id="line2d_71">
      <g>
       <use xlink:href="#m8754c85e0f" x="378.527587" y="307.584" style="stroke: #000000; stroke-width: 0.6"/>
      </g>
     </g>
    </g>
    <g id="xtick_72">
     <g id="line2d_72">
      <g>
       <use xlink:href="#m8754c85e0f" x="393.112095" y="307.584" style="stroke: #000000; stroke-width: 0.6"/>
      </g>
     </g>
    </g>
    <g id="xtick_73">
     <g id="line2d_73">
      <g>
       <use xlink:href="#m8754c85e0f" x="400.517796" y="307.584" style="stroke: #000000; stroke-width: 0.6"/>
      </g>
     </g>
    </g>
    <g id="xtick_74">
     <g id="line2d_74">
      <g>
       <use xlink:href="#m8754c85e0f" x="405.772225" y="307.584" style="stroke: #000000; stroke-width: 0.6"/>
      </g>
     </g>
    </g>
    <g id="xtick_75">
     <g id="line2d_75">
      <g>
       <use xlink:href="#m8754c85e0f" x="409.847876" y="307.584" style="stroke: #000000; stroke-width: 0.6"/>
      </g>
     </g>
    </g>
    <g id="xtick_76">
     <g id="line2d_76">
      <g>
       <use xlink:href="#m8754c85e0f" x="413.177926" y="307.584" style="stroke: #000000; stroke-width: 0.6"/>
      </g>
     </g>
    </g>
    <g id="text_9">
     <!-- Global Problem Size -->
     <g transform="translate(186.327969 335.860562)scale(0.1 -0.1)">
      <defs>
       <path id="DejaVuSans-47" d="M 3809 666 
L 3809 1919 
L 2778 1919 
L 2778 2438 
L 4434 2438 
L 4434 434 
Q 4069 175 3628 42 
Q 3188 -91 2688 -91 
Q 1594 -91 976 548 
Q 359 1188 359 2328 
Q 359 3472 976 4111 
Q 1594 4750 2688 4750 
Q 3144 4750 3555 4637 
Q 3966 4525 4313 4306 
L 4313 3634 
Q 3963 3931 3569 4081 
Q 3175 4231 2741 4231 
Q 1884 4231 1454 3753 
Q 1025 3275 1025 2328 
Q 1025 1384 1454 906 
Q 1884 428 2741 428 
Q 3075 428 3337 486 
Q 3600 544 3809 666 
z
" transform="scale(0.015625)"/>
       <path id="DejaVuSans-6c" d="M 603 4863 
L 1178 4863 
L 1178 0 
L 603 0 
L 603 4863 
z
" transform="scale(0.015625)"/>
       <path id="DejaVuSans-6f" d="M 1959 3097 
Q 1497 3097 1228 2736 
Q 959 2375 959 1747 
Q 959 1119 1226 758 
Q 1494 397 1959 397 
Q 2419 397 2687 759 
Q 2956 1122 2956 1747 
Q 2956 2369 2687 2733 
Q 2419 3097 1959 3097 
z
M 1959 3584 
Q 2709 3584 3137 3096 
Q 3566 2609 3566 1747 
Q 3566 888 3137 398 
Q 2709 -91 1959 -91 
Q 1206 -91 779 398 
Q 353 888 353 1747 
Q 353 2609 779 3096 
Q 1206 3584 1959 3584 
z
" transform="scale(0.015625)"/>
       <path id="DejaVuSans-62" d="M 3116 1747 
Q 3116 2381 2855 2742 
Q 2594 3103 2138 3103 
Q 1681 3103 1420 2742 
Q 1159 2381 1159 1747 
Q 1159 1113 1420 752 
Q 1681 391 2138 391 
Q 2594 391 2855 752 
Q 3116 1113 3116 1747 
z
M 1159 2969 
Q 1341 3281 1617 3432 
Q 1894 3584 2278 3584 
Q 2916 3584 3314 3078 
Q 3713 2572 3713 1747 
Q 3713 922 3314 415 
Q 2916 -91 2278 -91 
Q 1894 -91 1617 61 
Q 1341 213 1159 525 
L 1159 0 
L 581 0 
L 581 4863 
L 1159 4863 
L 1159 2969 
z
" transform="scale(0.015625)"/>
       <path id="DejaVuSans-61" d="M 2194 1759 
Q 1497 1759 1228 1600 
Q 959 1441 959 1056 
Q 959 750 1161 570 
Q 1363 391 1709 391 
Q 2188 391 2477 730 
Q 2766 1069 2766 1631 
L 2766 1759 
L 2194 1759 
z
M 3341 1997 
L 3341 0 
L 2766 0 
L 2766 531 
Q 2569 213 2275 61 
Q 1981 -91 1556 -91 
Q 1019 -91 701 211 
Q 384 513 384 1019 
Q 384 1609 779 1909 
Q 1175 2209 1959 2209 
L 2766 2209 
L 2766 2266 
Q 2766 2663 2505 2880 
Q 2244 3097 1772 3097 
Q 1472 3097 1187 3025 
Q 903 2953 641 2809 
L 641 3341 
Q 956 3463 1253 3523 
Q 1550 3584 1831 3584 
Q 2591 3584 2966 3190 
Q 3341 2797 3341 1997 
z
" transform="scale(0.015625)"/>
       <path id="DejaVuSans-20" transform="scale(0.015625)"/>
       <path id="DejaVuSans-50" d="M 1259 4147 
L 1259 2394 
L 2053 2394 
Q 2494 2394 2734 2622 
Q 2975 2850 2975 3272 
Q 2975 3691 2734 3919 
Q 2494 4147 2053 4147 
L 1259 4147 
z
M 628 4666 
L 2053 4666 
Q 2838 4666 3239 4311 
Q 3641 3956 3641 3272 
Q 3641 2581 3239 2228 
Q 2838 1875 2053 1875 
L 1259 1875 
L 1259 0 
L 628 0 
L 628 4666 
z
" transform="scale(0.015625)"/>
       <path id="DejaVuSans-72" d="M 2631 2963 
Q 2534 3019 2420 3045 
Q 2306 3072 2169 3072 
Q 1681 3072 1420 2755 
Q 1159 2438 1159 1844 
L 1159 0 
L 581 0 
L 581 3500 
L 1159 3500 
L 1159 2956 
Q 1341 3275 1631 3429 
Q 1922 3584 2338 3584 
Q 2397 3584 2469 3576 
Q 2541 3569 2628 3553 
L 2631 2963 
z
" transform="scale(0.015625)"/>
       <path id="DejaVuSans-65" d="M 3597 1894 
L 3597 1613 
L 953 1613 
Q 991 1019 1311 708 
Q 1631 397 2203 397 
Q 2534 397 2845 478 
Q 3156 559 3463 722 
L 3463 178 
Q 3153 47 2828 -22 
Q 2503 -91 2169 -91 
Q 1331 -91 842 396 
Q 353 884 353 1716 
Q 353 2575 817 3079 
Q 1281 3584 2069 3584 
Q 2775 3584 3186 3129 
Q 3597 2675 3597 1894 
z
M 3022 2063 
Q 3016 2534 2758 2815 
Q 2500 3097 2075 3097 
Q 1594 3097 1305 2825 
Q 1016 2553 972 2059 
L 3022 2063 
z
" transform="scale(0.015625)"/>
       <path id="DejaVuSans-6d" d="M 3328 2828 
Q 3544 3216 3844 3400 
Q 4144 3584 4550 3584 
Q 5097 3584 5394 3201 
Q 5691 2819 5691 2113 
L 5691 0 
L 5113 0 
L 5113 2094 
Q 5113 2597 4934 2840 
Q 4756 3084 4391 3084 
Q 3944 3084 3684 2787 
Q 3425 2491 3425 1978 
L 3425 0 
L 2847 0 
L 2847 2094 
Q 2847 2600 2669 2842 
Q 2491 3084 2119 3084 
Q 1678 3084 1418 2786 
Q 1159 2488 1159 1978 
L 1159 0 
L 581 0 
L 581 3500 
L 1159 3500 
L 1159 2956 
Q 1356 3278 1631 3431 
Q 1906 3584 2284 3584 
Q 2666 3584 2933 3390 
Q 3200 3197 3328 2828 
z
" transform="scale(0.015625)"/>
       <path id="DejaVuSans-53" d="M 3425 4513 
L 3425 3897 
Q 3066 4069 2747 4153 
Q 2428 4238 2131 4238 
Q 1616 4238 1336 4038 
Q 1056 3838 1056 3469 
Q 1056 3159 1242 3001 
Q 1428 2844 1947 2747 
L 2328 2669 
Q 3034 2534 3370 2195 
Q 3706 1856 3706 1288 
Q 3706 609 3251 259 
Q 2797 -91 1919 -91 
Q 1588 -91 1214 -16 
Q 841 59 441 206 
L 441 856 
Q 825 641 1194 531 
Q 1563 422 1919 422 
Q 2459 422 2753 634 
Q 3047 847 3047 1241 
Q 3047 1584 2836 1778 
Q 2625 1972 2144 2069 
L 1759 2144 
Q 1053 2284 737 2584 
Q 422 2884 422 3419 
Q 422 4038 858 4394 
Q 1294 4750 2059 4750 
Q 2388 4750 2728 4690 
Q 3069 4631 3425 4513 
z
" transform="scale(0.015625)"/>
       <path id="DejaVuSans-69" d="M 603 3500 
L 1178 3500 
L 1178 0 
L 603 0 
L 603 3500 
z
M 603 4863 
L 1178 4863 
L 1178 4134 
L 603 4134 
L 603 4863 
z
" transform="scale(0.015625)"/>
       <path id="DejaVuSans-7a" d="M 353 3500 
L 3084 3500 
L 3084 2975 
L 922 459 
L 3084 459 
L 3084 0 
L 275 0 
L 275 525 
L 2438 3041 
L 353 3041 
L 353 3500 
z
" transform="scale(0.015625)"/>
      </defs>
      <use xlink:href="#DejaVuSans-47"/>
      <use xlink:href="#DejaVuSans-6c" x="77.490234"/>
      <use xlink:href="#DejaVuSans-6f" x="105.273438"/>
      <use xlink:href="#DejaVuSans-62" x="166.455078"/>
      <use xlink:href="#DejaVuSans-61" x="229.931641"/>
      <use xlink:href="#DejaVuSans-6c" x="291.210938"/>
      <use xlink:href="#DejaVuSans-20" x="318.994141"/>
      <use xlink:href="#DejaVuSans-50" x="350.78125"/>
      <use xlink:href="#DejaVuSans-72" x="409.333984"/>
      <use xlink:href="#DejaVuSans-6f" x="448.197266"/>
      <use xlink:href="#DejaVuSans-62" x="509.378906"/>
      <use xlink:href="#DejaVuSans-6c" x="572.855469"/>
      <use xlink:href="#DejaVuSans-65" x="600.638672"/>
      <use xlink:href="#DejaVuSans-6d" x="662.162109"/>
      <use xlink:href="#DejaVuSans-20" x="759.574219"/>
      <use xlink:href="#DejaVuSans-53" x="791.361328"/>
      <use xlink:href="#DejaVuSans-69" x="854.837891"/>
      <use xlink:href="#DejaVuSans-7a" x="882.621094"/>
      <use xlink:href="#DejaVuSans-65" x="935.111328"/>
     </g>
    </g>
   </g>
   <g id="matplotlib.axis_2">
    <g id="ytick_1">
     <g id="line2d_77">
      <defs>
       <path id="m7ee43f08b3" d="M 0 0 
L -3.5 0 
" style="stroke: #000000; stroke-width: 0.8"/>
      </defs>
      <g>
       <use xlink:href="#m7ee43f08b3" x="57.6" y="238.797716" style="stroke: #000000; stroke-width: 0.8"/>
      </g>
     </g>
     <g id="text_10">
      <!-- $\mathdefault{10^{-1}}$ -->
      <g transform="translate(27.1 242.596935)scale(0.1 -0.1)">
       <defs>
        <path id="DejaVuSans-2212" d="M 678 2272 
L 4684 2272 
L 4684 1741 
L 678 1741 
L 678 2272 
z
" transform="scale(0.015625)"/>
       </defs>
       <use xlink:href="#DejaVuSans-31" transform="translate(0 0.684375)"/>
       <use xlink:href="#DejaVuSans-30" transform="translate(63.623047 0.684375)"/>
       <use xlink:href="#DejaVuSans-2212" transform="translate(128.203125 38.965625)scale(0.7)"/>
       <use xlink:href="#DejaVuSans-31" transform="translate(186.855469 38.965625)scale(0.7)"/>
      </g>
     </g>
    </g>
    <g id="ytick_2">
     <g id="line2d_78">
      <g>
       <use xlink:href="#m7ee43f08b3" x="57.6" y="141.773486" style="stroke: #000000; stroke-width: 0.8"/>
      </g>
     </g>
     <g id="text_11">
      <!-- $\mathdefault{10^{0}}$ -->
      <g transform="translate(33 145.572704)scale(0.1 -0.1)">
       <use xlink:href="#DejaVuSans-31" transform="translate(0 0.765625)"/>
       <use xlink:href="#DejaVuSans-30" transform="translate(63.623047 0.765625)"/>
       <use xlink:href="#DejaVuSans-30" transform="translate(128.203125 39.046875)scale(0.7)"/>
      </g>
     </g>
    </g>
    <g id="ytick_3">
     <g id="line2d_79">
      <g>
       <use xlink:href="#m7ee43f08b3" x="57.6" y="44.749255" style="stroke: #000000; stroke-width: 0.8"/>
      </g>
     </g>
     <g id="text_12">
      <!-- $\mathdefault{10^{1}}$ -->
      <g transform="translate(33 48.548474)scale(0.1 -0.1)">
       <use xlink:href="#DejaVuSans-31" transform="translate(0 0.684375)"/>
       <use xlink:href="#DejaVuSans-30" transform="translate(63.623047 0.684375)"/>
       <use xlink:href="#DejaVuSans-31" transform="translate(128.203125 38.965625)scale(0.7)"/>
      </g>
     </g>
    </g>
    <g id="ytick_4">
     <g id="line2d_80">
      <defs>
       <path id="mecd1d3fb2f" d="M 0 0 
L -2 0 
" style="stroke: #000000; stroke-width: 0.6"/>
      </defs>
      <g>
       <use xlink:href="#mecd1d3fb2f" x="57.6" y="306.614743" style="stroke: #000000; stroke-width: 0.6"/>
      </g>
     </g>
    </g>
    <g id="ytick_5">
     <g id="line2d_81">
      <g>
       <use xlink:href="#mecd1d3fb2f" x="57.6" y="289.529624" style="stroke: #000000; stroke-width: 0.6"/>
      </g>
     </g>
    </g>
    <g id="ytick_6">
     <g id="line2d_82">
      <g>
       <use xlink:href="#mecd1d3fb2f" x="57.6" y="277.407539" style="stroke: #000000; stroke-width: 0.6"/>
      </g>
     </g>
    </g>
    <g id="ytick_7">
     <g id="line2d_83">
      <g>
       <use xlink:href="#mecd1d3fb2f" x="57.6" y="268.00492" style="stroke: #000000; stroke-width: 0.6"/>
      </g>
     </g>
    </g>
    <g id="ytick_8">
     <g id="line2d_84">
      <g>
       <use xlink:href="#mecd1d3fb2f" x="57.6" y="260.32242" style="stroke: #000000; stroke-width: 0.6"/>
      </g>
     </g>
    </g>
    <g id="ytick_9">
     <g id="line2d_85">
      <g>
       <use xlink:href="#mecd1d3fb2f" x="57.6" y="253.82696" style="stroke: #000000; stroke-width: 0.6"/>
      </g>
     </g>
    </g>
    <g id="ytick_10">
     <g id="line2d_86">
      <g>
       <use xlink:href="#mecd1d3fb2f" x="57.6" y="248.200336" style="stroke: #000000; stroke-width: 0.6"/>
      </g>
     </g>
    </g>
    <g id="ytick_11">
     <g id="line2d_87">
      <g>
       <use xlink:href="#mecd1d3fb2f" x="57.6" y="243.237301" style="stroke: #000000; stroke-width: 0.6"/>
      </g>
     </g>
    </g>
    <g id="ytick_12">
     <g id="line2d_88">
      <g>
       <use xlink:href="#mecd1d3fb2f" x="57.6" y="209.590512" style="stroke: #000000; stroke-width: 0.6"/>
      </g>
     </g>
    </g>
    <g id="ytick_13">
     <g id="line2d_89">
      <g>
       <use xlink:href="#mecd1d3fb2f" x="57.6" y="192.505393" style="stroke: #000000; stroke-width: 0.6"/>
      </g>
     </g>
    </g>
    <g id="ytick_14">
     <g id="line2d_90">
      <g>
       <use xlink:href="#mecd1d3fb2f" x="57.6" y="180.383309" style="stroke: #000000; stroke-width: 0.6"/>
      </g>
     </g>
    </g>
    <g id="ytick_15">
     <g id="line2d_91">
      <g>
       <use xlink:href="#mecd1d3fb2f" x="57.6" y="170.980689" style="stroke: #000000; stroke-width: 0.6"/>
      </g>
     </g>
    </g>
    <g id="ytick_16">
     <g id="line2d_92">
      <g>
       <use xlink:href="#mecd1d3fb2f" x="57.6" y="163.29819" style="stroke: #000000; stroke-width: 0.6"/>
      </g>
     </g>
    </g>
    <g id="ytick_17">
     <g id="line2d_93">
      <g>
       <use xlink:href="#mecd1d3fb2f" x="57.6" y="156.802729" style="stroke: #000000; stroke-width: 0.6"/>
      </g>
     </g>
    </g>
    <g id="ytick_18">
     <g id="line2d_94">
      <g>
       <use xlink:href="#mecd1d3fb2f" x="57.6" y="151.176105" style="stroke: #000000; stroke-width: 0.6"/>
      </g>
     </g>
    </g>
    <g id="ytick_19">
     <g id="line2d_95">
      <g>
       <use xlink:href="#mecd1d3fb2f" x="57.6" y="146.213071" style="stroke: #000000; stroke-width: 0.6"/>
      </g>
     </g>
    </g>
    <g id="ytick_20">
     <g id="line2d_96">
      <g>
       <use xlink:href="#mecd1d3fb2f" x="57.6" y="112.566282" style="stroke: #000000; stroke-width: 0.6"/>
      </g>
     </g>
    </g>
    <g id="ytick_21">
     <g id="line2d_97">
      <g>
       <use xlink:href="#mecd1d3fb2f" x="57.6" y="95.481163" style="stroke: #000000; stroke-width: 0.6"/>
      </g>
     </g>
    </g>
    <g id="ytick_22">
     <g id="line2d_98">
      <g>
       <use xlink:href="#mecd1d3fb2f" x="57.6" y="83.359078" style="stroke: #000000; stroke-width: 0.6"/>
      </g>
     </g>
    </g>
    <g id="ytick_23">
     <g id="line2d_99">
      <g>
       <use xlink:href="#mecd1d3fb2f" x="57.6" y="73.956459" style="stroke: #000000; stroke-width: 0.6"/>
      </g>
     </g>
    </g>
    <g id="ytick_24">
     <g id="line2d_100">
      <g>
       <use xlink:href="#mecd1d3fb2f" x="57.6" y="66.273959" style="stroke: #000000; stroke-width: 0.6"/>
      </g>
     </g>
    </g>
    <g id="ytick_25">
     <g id="line2d_101">
      <g>
       <use xlink:href="#mecd1d3fb2f" x="57.6" y="59.778498" style="stroke: #000000; stroke-width: 0.6"/>
      </g>
     </g>
    </g>
    <g id="ytick_26">
     <g id="line2d_102">
      <g>
       <use xlink:href="#mecd1d3fb2f" x="57.6" y="54.151874" style="stroke: #000000; stroke-width: 0.6"/>
      </g>
     </g>
    </g>
    <g id="ytick_27">
     <g id="line2d_103">
      <g>
       <use xlink:href="#mecd1d3fb2f" x="57.6" y="49.18884" style="stroke: #000000; stroke-width: 0.6"/>
      </g>
     </g>
    </g>
    <g id="text_13">
     <!-- GFLOPS -->
     <g transform="translate(21.020312 194.007688)rotate(-90)scale(0.1 -0.1)">
      <defs>
       <path id="DejaVuSans-46" d="M 628 4666 
L 3309 4666 
L 3309 4134 
L 1259 4134 
L 1259 2759 
L 3109 2759 
L 3109 2228 
L 1259 2228 
L 1259 0 
L 628 0 
L 628 4666 
z
" transform="scale(0.015625)"/>
       <path id="DejaVuSans-4c" d="M 628 4666 
L 1259 4666 
L 1259 531 
L 3531 531 
L 3531 0 
L 628 0 
L 628 4666 
z
" transform="scale(0.015625)"/>
       <path id="DejaVuSans-4f" d="M 2522 4238 
Q 1834 4238 1429 3725 
Q 1025 3213 1025 2328 
Q 1025 1447 1429 934 
Q 1834 422 2522 422 
Q 3209 422 3611 934 
Q 4013 1447 4013 2328 
Q 4013 3213 3611 3725 
Q 3209 4238 2522 4238 
z
M 2522 4750 
Q 3503 4750 4090 4092 
Q 4678 3434 4678 2328 
Q 4678 1225 4090 567 
Q 3503 -91 2522 -91 
Q 1538 -91 948 565 
Q 359 1222 359 2328 
Q 359 3434 948 4092 
Q 1538 4750 2522 4750 
z
" transform="scale(0.015625)"/>
      </defs>
      <use xlink:href="#DejaVuSans-47"/>
      <use xlink:href="#DejaVuSans-46" x="77.490234"/>
      <use xlink:href="#DejaVuSans-4c" x="135.009766"/>
      <use xlink:href="#DejaVuSans-4f" x="187.097656"/>
      <use xlink:href="#DejaVuSans-50" x="265.808594"/>
      <use xlink:href="#DejaVuSans-53" x="326.111328"/>
     </g>
    </g>
   </g>
   <g id="line2d_104">
    <path d="M 73.832727 108.642512 
L 86.492857 108.12301 
L 93.898558 108.090158 
L 99.152987 107.638595 
L 103.228638 106.499725 
L 106.558688 107.808585 
L 109.374205 106.489023 
L 111.813116 105.189917 
L 113.964389 108.133344 
L 115.888768 106.729932 
L 119.218818 107.684942 
L 122.034334 106.636865 
L 123.294469 108.939784 
L 124.473246 103.62106 
L 126.624519 109.968365 
L 128.548898 108.247878 
L 129.440036 110.184773 
L 131.878947 108.219245 
L 132.624549 112.344244 
L 134.03022 109.485301 
L 134.694464 113.051723 
L 135.954599 112.131684 
L 137.133376 103.773635 
L 138.770116 121.255031 
L 139.284648 110.744981 
L 141.209027 107.943126 
L 142.100165 116.371614 
L 142.94984 109.803993 
L 143.3603 118.300601 
L 144.539077 107.018122 
L 144.915682 125.043577 
L 145.284679 111.0691 
L 146.690349 114.866515 
L 147.354594 114.333305 
L 148.614728 118.521886 
L 149.505866 114.154542 
L 149.793505 98.479135 
L 150.355541 120.033147 
L 151.430245 116.885286 
L 151.944778 117.050965 
L 152.69038 125.486949 
L 153.869157 109.481706 
L 154.096051 124.594734 
L 154.760295 122.215503 
L 155.609969 124.242587 
L 156.020429 126.204982 
L 157.199207 104.382496 
L 157.575812 127.98169 
L 157.761242 129.174891 
L 157.944808 124.65776 
L 158.835946 128.139741 
L 159.350479 132.504401 
L 159.685621 125.626209 
L 160.014724 110.007865 
L 161.274858 118.548732 
L 162.02046 137.243195 
L 162.165996 130.317278 
L 162.453635 88.876872 
L 163.015671 132.115934 
L 163.426131 131.749413 
L 164.090375 129.665411 
L 164.604908 115.75999 
L 164.981513 133.381304 
L 165.350509 132.584335 
L 165.831187 128.013921 
L 166.529287 112.029392 
L 166.75618 131.560186 
L 167.091322 131.930867 
L 167.420425 116.16485 
L 168.166026 134.012088 
L 168.270099 132.461001 
L 168.680559 133.965701 
L 169.571697 134.0022 
L 169.859336 92.935803 
L 170.235942 127.385315 
L 170.421372 132.559586 
L 170.604938 122.898117 
L 171.496076 135.576577 
L 172.010609 131.509917 
L 172.345751 135.184638 
L 172.674853 104.877945 
L 172.756211 136.578897 
L 173.236889 132.736678 
L 173.934988 112.381096 
L 174.086563 138.535176 
L 174.161881 131.592546 
L 174.311593 131.757665 
L 174.68059 136.821399 
L 174.826126 133.82697 
L 175.113765 79.83711 
L 175.6758 134.886386 
L 176.08626 135.848148 
L 176.421402 137.069321 
L 176.750505 121.894968 
L 177.265037 104.848189 
L 177.641643 135.675695 
L 177.827073 137.710711 
L 178.010639 136.811927 
L 178.491317 136.573978 
L 178.901777 132.324687 
L 179.189416 94.782011 
L 179.41631 136.535629 
L 179.751452 137.197947 
L 180.080554 106.558422 
L 180.45716 129.477418 
L 180.826156 133.104155 
L 180.930229 116.272421 
L 181.340689 125.904426 
L 181.492264 140.389446 
L 182.231827 135.82109 
L 182.519466 78.670433 
L 182.566969 133.158235 
L 182.896071 117.513289 
L 183.081501 135.72875 
L 183.265068 117.141244 
L 183.491961 133.317096 
L 184.156206 129.161285 
L 184.670739 107.966038 
L 185.00588 135.664725 
L 185.047344 132.598695 
L 185.334983 90.127627 
L 185.41634 137.139201 
L 185.897018 131.54613 
L 186.595117 97.387973 
L 186.746693 140.057701 
L 186.822011 136.694481 
L 186.971723 134.148077 
L 187.157153 135.873082 
L 187.340719 139.253656 
L 187.773895 71.287927 
L 188.712535 139.290416 
L 188.74639 134.830938 
L 189.081532 140.030352 
L 189.410634 112.609612 
L 189.637528 136.23942 
L 189.925167 91.016939 
L 190.487202 131.512083 
L 190.670769 99.019667 
L 190.822344 139.515477 
L 191.151447 131.463982 
L 191.561907 132.140413 
L 191.849546 80.943467 
L 192.07644 115.579561 
L 192.411581 134.000576 
L 192.740684 95.942742 
L 193.302719 131.737455 
L 193.486286 130.010459 
L 193.590358 110.089986 
L 194.000819 105.78185 
L 194.227712 141.612954 
L 195.179596 66.925679 
L 195.227098 130.179647 
L 195.556201 96.274488 
L 195.741631 119.318148 
L 195.925197 103.028068 
L 196.152091 130.796083 
L 196.816335 97.871463 
L 196.967911 128.879453 
L 197.330868 95.302749 
L 197.66601 107.341897 
L 197.892904 134.467995 
L 197.995113 71.135896 
L 198.07647 130.997735 
L 199.255247 80.714038 
L 199.406822 128.996751 
L 199.817282 134.778982 
L 200.000849 100.004481 
L 200.146385 97.239279 
L 200.434024 62.479588 
L 200.99606 98.806494 
L 201.40652 96.08539 
L 201.558095 139.010339 
L 202.070764 97.491283 
L 202.585297 74.99183 
L 202.961902 99.013098 
L 203.811577 97.795927 
L 204.509676 71.928156 
L 204.736569 98.346222 
L 205.071711 99.802307 
L 205.400814 73.571886 
L 206.250488 99.245057 
L 206.660948 98.768352 
L 207.552086 98.323811 
L 207.839725 60.164799 
L 208.216331 100.120984 
L 208.401761 97.877936 
L 208.585327 80.573015 
L 209.476465 99.523418 
L 209.990998 92.35041 
L 210.32614 98.443211 
L 210.655242 66.04281 
L 210.7366 98.436205 
L 211.217278 98.028648 
L 211.915377 71.807053 
L 212.066952 99.38004 
L 212.142271 98.09693 
L 212.291982 100.680828 
L 212.806515 99.174852 
L 213.094154 61.566679 
L 213.656189 99.274074 
L 214.066649 98.767739 
L 214.401791 99.216347 
L 214.730894 80.604088 
L 215.245427 65.797213 
L 215.622032 100.242633 
L 215.807462 98.045351 
L 215.991028 98.933628 
L 216.471706 99.900699 
L 216.882166 100.114869 
L 217.169805 65.131926 
L 217.396699 99.309225 
L 217.731841 99.113541 
L 218.060943 64.997169 
L 218.437549 98.94549 
L 218.806545 99.859421 
L 218.910618 76.144963 
L 219.321078 84.36653 
L 219.472653 97.237437 
L 220.212216 98.978365 
L 220.499855 60.558663 
L 220.547358 100.344358 
L 220.87646 79.19288 
L 221.06189 100.932327 
L 221.245457 75.30808 
L 221.472351 100.296975 
L 222.136595 99.742239 
L 222.651128 68.478077 
L 222.986269 100.990261 
L 223.027733 98.455795 
L 223.315372 65.198046 
L 223.396729 98.016228 
L 223.877407 100.423766 
L 224.575507 63.347573 
L 224.727082 100.655305 
L 224.8024 97.135495 
L 224.952112 99.02891 
L 225.137542 98.866826 
L 225.321108 99.26157 
L 225.466645 79.275577 
L 225.754284 71.509004 
L 226.316319 71.915926 
L 226.692924 98.686668 
L 226.726779 98.433141 
L 227.061921 100.261954 
L 227.391023 70.951823 
L 227.617917 98.739215 
L 227.905556 68.268836 
L 228.467592 100.450781 
L 228.651158 68.521909 
L 228.802733 98.920641 
L 229.131836 100.013083 
L 229.542296 100.343137 
L 229.829935 69.131237 
L 230.39197 100.258886 
L 230.721073 62.237268 
L 231.283108 99.896175 
L 231.466675 100.851731 
L 231.570748 72.844711 
L 231.981208 69.222471 
L 232.208101 100.838171 
L 233.159985 67.270928 
L 233.207487 99.972203 
L 233.53659 70.956924 
L 233.72202 82.285996 
L 233.905587 66.685048 
L 234.13248 99.643247 
L 234.796725 63.769758 
L 234.9483 98.116214 
L 235.311257 63.781742 
L 235.646399 71.436986 
L 235.873293 99.005768 
L 235.975502 64.179255 
L 236.056859 98.450821 
L 237.235636 66.087947 
L 237.387211 98.49968 
L 237.797672 99.244289 
L 237.981238 68.570142 
L 238.126774 64.281588 
L 238.414413 98.03 
L 238.976449 66.124821 
L 239.386909 67.761923 
L 239.538484 98.572471 
L 240.051153 66.221601 
L 240.565686 67.2863 
L 240.942291 65.218277 
L 241.311288 67.211878 
L 241.791966 64.06613 
L 242.490065 68.648501 
L 242.716959 68.054197 
L 243.0521 68.812791 
L 243.381203 66.796465 
L 244.126805 69.239473 
L 244.230877 67.0393 
L 244.641337 67.535718 
L 245.532475 67.69298 
L 245.820115 87.741818 
L 246.19672 69.221544 
L 246.38215 67.415481 
L 246.565716 68.839359 
L 247.456854 67.428436 
L 247.971387 68.689141 
L 248.306529 68.511681 
L 248.635631 69.423878 
L 248.716989 69.085703 
L 249.197667 68.492368 
L 249.895766 68.544934 
L 250.047341 66.84583 
L 250.12266 69.370785 
L 250.272371 68.479317 
L 250.641368 70.374344 
L 250.786904 67.657761 
L 251.074543 149.542531 
L 251.636578 68.298254 
L 252.047039 68.57788 
L 252.38218 70.588995 
L 252.711283 69.114616 
L 253.225816 67.608295 
L 253.602421 67.193089 
L 253.787851 69.544381 
L 253.971417 69.012786 
L 254.862555 69.372183 
L 255.150195 98.015284 
L 255.377088 68.673799 
L 255.71223 69.191076 
L 256.041333 67.583494 
L 256.786934 68.347504 
L 256.891007 68.767875 
L 257.301467 69.162273 
L 257.453042 68.047516 
L 258.192605 68.179715 
L 258.480244 158.200126 
L 258.527747 70.260904 
L 259.225846 68.875058 
L 259.45274 70.022344 
L 260.116984 68.000956 
L 260.631517 68.507929 
L 260.966658 69.684719 
L 261.295761 250.538589 
L 261.377119 68.948802 
L 261.857796 68.03199 
L 262.555896 68.27181 
L 262.707471 68.63538 
L 262.782789 69.927879 
L 263.301497 70.15851 
L 263.734673 270.216358 
L 264.296708 68.067334 
L 264.707168 68.885505 
L 265.04231 70.175494 
L 265.885945 270.038308 
L 266.447981 68.317085 
L 266.631547 68.37562 
L 266.783122 70.055826 
L 267.810324 264.053831 
L 268.37236 68.524335 
L 270.113172 68.507892 
L 271.140374 262.345916 
L 273.955891 251.799156 
L 275.216025 248.153467 
L 276.394803 259.854139 
L 278.546075 251.114853 
L 280.470454 243.833405 
L 281.361592 231.637339 
L 283.800504 244.589791 
L 284.546105 227.368875 
L 285.951776 253.138141 
L 286.616021 230.487969 
L 287.876155 233.326655 
L 289.054932 248.183808 
L 290.691672 211.729635 
L 291.206205 236.363082 
L 293.130584 227.253306 
L 294.021722 221.100967 
L 294.871396 234.192206 
L 295.281856 231.789034 
L 296.460633 235.758938 
L 296.837239 202.236378 
L 297.206235 225.033115 
L 298.611906 222.025099 
L 299.27615 218.424537 
L 300.536285 218.733361 
L 301.427423 215.317663 
L 301.715062 238.01067 
L 302.277097 215.744244 
L 303.351802 212.881279 
L 303.866334 218.666817 
L 304.611936 207.792258 
L 305.790713 215.817476 
L 306.017607 206.509238 
L 306.681851 204.951302 
L 307.531526 203.345108 
L 307.941986 201.590589 
L 309.120763 227.303605 
L 309.497368 201.175957 
L 309.866365 198.416754 
L 311.272036 199.97687 
L 311.607177 198.038644 
L 311.93628 215.121413 
L 314.087553 191.259531 
L 314.375192 228.294026 
L 314.937227 190.533318 
L 315.347687 188.217353 
L 316.011931 187.787696 
L 316.526464 207.746344 
L 316.903069 183.171148 
L 317.272066 184.645473 
L 317.752744 182.896247 
L 318.450843 198.553889 
L 318.677737 182.932137 
L 319.012878 181.97666 
L 319.341981 200.100402 
L 320.191656 176.921233 
L 320.602116 178.059288 
L 321.493254 175.725891 
L 321.780893 223.594124 
L 322.157498 173.604169 
L 322.526495 178.971222 
L 323.417633 173.890369 
L 323.932165 182.123776 
L 324.267307 173.981937 
L 324.59641 206.6539 
L 324.677767 172.973827 
L 325.158445 173.719261 
L 325.856544 195.604069 
L 326.008119 168.837019 
L 326.083438 169.790432 
L 326.233149 171.68775 
L 326.602146 170.857324 
L 326.747682 170.900452 
L 327.035321 228.308097 
L 327.597357 169.697976 
L 328.007817 171.070903 
L 328.342958 166.845554 
L 328.672061 179.840159 
L 329.186594 211.986184 
L 329.748629 163.813646 
L 329.932196 165.588477 
L 330.412874 163.58563 
L 330.823334 164.35867 
L 331.110973 204.785584 
L 331.337866 163.883162 
L 331.673008 167.013912 
L 332.002111 221.863766 
L 332.747713 159.51128 
L 332.851785 183.214783 
L 333.262245 181.126191 
L 333.413821 175.192601 
L 334.441022 224.770829 
L 334.488525 157.044021 
L 334.817628 202.94621 
L 335.003058 159.17351 
L 335.186624 178.146333 
L 336.592295 222.304406 
L 336.927437 154.235297 
L 337.256539 212.308929 
L 338.516674 218.684243 
L 338.668249 153.959949 
L 339.407812 216.698281 
L 339.695451 223.487648 
L 340.257486 214.708078 
L 341.332191 210.774939 
L 341.846724 211.036254 
L 342.592325 206.567636 
L 343.771102 207.049028 
L 343.997996 205.495008 
L 344.66224 204.147549 
L 345.511915 203.065566 
L 345.922375 201.706588 
L 347.101152 207.600663 
L 347.477757 197.621928 
L 347.663187 197.516597 
L 347.846754 199.090014 
L 348.737892 197.996914 
L 349.587566 196.71937 
L 349.916669 211.831221 
L 351.176804 198.897157 
L 352.067942 192.972357 
L 352.355581 212.64235 
L 352.917616 190.042771 
L 353.992321 189.17604 
L 354.506853 200.120635 
L 354.883459 186.072462 
L 355.252455 183.757304 
L 355.733133 181.836421 
L 356.431232 191.2302 
L 356.658126 182.054918 
L 356.993267 181.353916 
L 357.32237 186.064475 
L 358.172045 178.165317 
L 358.582505 178.683386 
L 359.473643 175.502241 
L 359.761282 205.214206 
L 360.323317 173.245802 
L 360.506884 173.197653 
L 361.398022 173.613632 
L 361.912554 173.377986 
L 362.247696 174.03311 
L 362.576799 216.352294 
L 363.138834 170.485341 
L 363.836933 187.122686 
L 363.988509 170.109844 
L 364.063827 171.282882 
L 365.01571 215.400611 
L 365.577746 168.863993 
L 365.988206 168.553641 
L 366.65245 194.552758 
L 367.166983 222.474713 
L 367.729018 164.553462 
L 367.912585 163.342457 
L 369.091362 196.4297 
L 369.653397 161.967525 
L 369.9825 216.418267 
L 370.832174 214.658625 
L 371.242634 212.736875 
L 371.39421 158.939311 
L 372.421412 201.420995 
L 372.798017 180.565947 
L 374.572684 205.54806 
L 376.497063 201.112421 
L 377.388201 197.217094 
L 377.67584 198.26981 
L 378.237875 197.342468 
L 379.31258 193.912407 
L 379.827113 193.760774 
L 381.751492 188.909826 
L 383.902764 184.122829 
L 385.081541 181.405205 
L 385.458147 181.517709 
L 385.827143 181.309527 
L 386.718281 178.404102 
L 387.232814 179.536854 
L 387.897058 178.351368 
L 389.157193 175.263629 
L 390.048331 173.533688 
L 390.33597 172.47327 
L 390.898005 171.512372 
L 391.308465 169.629915 
L 391.97271 169.30625 
L 393.232844 165.781228 
L 393.713522 163.934179 
L 394.411621 163.916359 
L 395.302759 160.281916 
L 396.152434 159.125841 
L 396.562894 158.003426 
L 397.454032 156.203962 
L 398.487273 153.70403 
L 398.487273 153.70403 
" clip-path="url(#p44cb647b2c)" style="fill: none; stroke: #1f77b4; stroke-width: 1.5; stroke-linecap: square"/>
   </g>
   <g id="line2d_105"/>
   <g id="patch_3">
    <path d="M 57.6 307.584 
L 57.6 41.472 
" style="fill: none; stroke: #000000; stroke-width: 0.8; stroke-linejoin: miter; stroke-linecap: square"/>
   </g>
   <g id="patch_4">
    <path d="M 414.72 307.584 
L 414.72 41.472 
" style="fill: none; stroke: #000000; stroke-width: 0.8; stroke-linejoin: miter; stroke-linecap: square"/>
   </g>
   <g id="patch_5">
    <path d="M 57.6 307.584 
L 414.72 307.584 
" style="fill: none; stroke: #000000; stroke-width: 0.8; stroke-linejoin: miter; stroke-linecap: square"/>
   </g>
   <g id="patch_6">
    <path d="M 57.6 41.472 
L 414.72 41.472 
" style="fill: none; stroke: #000000; stroke-width: 0.8; stroke-linejoin: miter; stroke-linecap: square"/>
   </g>
   <g id="text_14">
    <!-- Gustafson-like Scaling -->
    <g transform="translate(169.757812 35.472)scale(0.12 -0.12)">
     <defs>
      <path id="DejaVuSans-75" d="M 544 1381 
L 544 3500 
L 1119 3500 
L 1119 1403 
Q 1119 906 1312 657 
Q 1506 409 1894 409 
Q 2359 409 2629 706 
Q 2900 1003 2900 1516 
L 2900 3500 
L 3475 3500 
L 3475 0 
L 2900 0 
L 2900 538 
Q 2691 219 2414 64 
Q 2138 -91 1772 -91 
Q 1169 -91 856 284 
Q 544 659 544 1381 
z
M 1991 3584 
L 1991 3584 
z
" transform="scale(0.015625)"/>
      <path id="DejaVuSans-73" d="M 2834 3397 
L 2834 2853 
Q 2591 2978 2328 3040 
Q 2066 3103 1784 3103 
Q 1356 3103 1142 2972 
Q 928 2841 928 2578 
Q 928 2378 1081 2264 
Q 1234 2150 1697 2047 
L 1894 2003 
Q 2506 1872 2764 1633 
Q 3022 1394 3022 966 
Q 3022 478 2636 193 
Q 2250 -91 1575 -91 
Q 1294 -91 989 -36 
Q 684 19 347 128 
L 347 722 
Q 666 556 975 473 
Q 1284 391 1588 391 
Q 1994 391 2212 530 
Q 2431 669 2431 922 
Q 2431 1156 2273 1281 
Q 2116 1406 1581 1522 
L 1381 1569 
Q 847 1681 609 1914 
Q 372 2147 372 2553 
Q 372 3047 722 3315 
Q 1072 3584 1716 3584 
Q 2034 3584 2315 3537 
Q 2597 3491 2834 3397 
z
" transform="scale(0.015625)"/>
      <path id="DejaVuSans-74" d="M 1172 4494 
L 1172 3500 
L 2356 3500 
L 2356 3053 
L 1172 3053 
L 1172 1153 
Q 1172 725 1289 603 
Q 1406 481 1766 481 
L 2356 481 
L 2356 0 
L 1766 0 
Q 1100 0 847 248 
Q 594 497 594 1153 
L 594 3053 
L 172 3053 
L 172 3500 
L 594 3500 
L 594 4494 
L 1172 4494 
z
" transform="scale(0.015625)"/>
      <path id="DejaVuSans-66" d="M 2375 4863 
L 2375 4384 
L 1825 4384 
Q 1516 4384 1395 4259 
Q 1275 4134 1275 3809 
L 1275 3500 
L 2222 3500 
L 2222 3053 
L 1275 3053 
L 1275 0 
L 697 0 
L 697 3053 
L 147 3053 
L 147 3500 
L 697 3500 
L 697 3744 
Q 697 4328 969 4595 
Q 1241 4863 1831 4863 
L 2375 4863 
z
" transform="scale(0.015625)"/>
      <path id="DejaVuSans-6e" d="M 3513 2113 
L 3513 0 
L 2938 0 
L 2938 2094 
Q 2938 2591 2744 2837 
Q 2550 3084 2163 3084 
Q 1697 3084 1428 2787 
Q 1159 2491 1159 1978 
L 1159 0 
L 581 0 
L 581 3500 
L 1159 3500 
L 1159 2956 
Q 1366 3272 1645 3428 
Q 1925 3584 2291 3584 
Q 2894 3584 3203 3211 
Q 3513 2838 3513 2113 
z
" transform="scale(0.015625)"/>
      <path id="DejaVuSans-2d" d="M 313 2009 
L 1997 2009 
L 1997 1497 
L 313 1497 
L 313 2009 
z
" transform="scale(0.015625)"/>
      <path id="DejaVuSans-6b" d="M 581 4863 
L 1159 4863 
L 1159 1991 
L 2875 3500 
L 3609 3500 
L 1753 1863 
L 3688 0 
L 2938 0 
L 1159 1709 
L 1159 0 
L 581 0 
L 581 4863 
z
" transform="scale(0.015625)"/>
      <path id="DejaVuSans-63" d="M 3122 3366 
L 3122 2828 
Q 2878 2963 2633 3030 
Q 2388 3097 2138 3097 
Q 1578 3097 1268 2742 
Q 959 2388 959 1747 
Q 959 1106 1268 751 
Q 1578 397 2138 397 
Q 2388 397 2633 464 
Q 2878 531 3122 666 
L 3122 134 
Q 2881 22 2623 -34 
Q 2366 -91 2075 -91 
Q 1284 -91 818 406 
Q 353 903 353 1747 
Q 353 2603 823 3093 
Q 1294 3584 2113 3584 
Q 2378 3584 2631 3529 
Q 2884 3475 3122 3366 
z
" transform="scale(0.015625)"/>
      <path id="DejaVuSans-67" d="M 2906 1791 
Q 2906 2416 2648 2759 
Q 2391 3103 1925 3103 
Q 1463 3103 1205 2759 
Q 947 2416 947 1791 
Q 947 1169 1205 825 
Q 1463 481 1925 481 
Q 2391 481 2648 825 
Q 2906 1169 2906 1791 
z
M 3481 434 
Q 3481 -459 3084 -895 
Q 2688 -1331 1869 -1331 
Q 1566 -1331 1297 -1286 
Q 1028 -1241 775 -1147 
L 775 -588 
Q 1028 -725 1275 -790 
Q 1522 -856 1778 -856 
Q 2344 -856 2625 -561 
Q 2906 -266 2906 331 
L 2906 616 
Q 2728 306 2450 153 
Q 2172 0 1784 0 
Q 1141 0 747 490 
Q 353 981 353 1791 
Q 353 2603 747 3093 
Q 1141 3584 1784 3584 
Q 2172 3584 2450 3431 
Q 2728 3278 2906 2969 
L 2906 3500 
L 3481 3500 
L 3481 434 
z
" transform="scale(0.015625)"/>
     </defs>
     <use xlink:href="#DejaVuSans-47"/>
     <use xlink:href="#DejaVuSans-75" x="77.490234"/>
     <use xlink:href="#DejaVuSans-73" x="140.869141"/>
     <use xlink:href="#DejaVuSans-74" x="192.96875"/>
     <use xlink:href="#DejaVuSans-61" x="232.177734"/>
     <use xlink:href="#DejaVuSans-66" x="293.457031"/>
     <use xlink:href="#DejaVuSans-73" x="328.662109"/>
     <use xlink:href="#DejaVuSans-6f" x="380.761719"/>
     <use xlink:href="#DejaVuSans-6e" x="441.943359"/>
     <use xlink:href="#DejaVuSans-2d" x="505.322266"/>
     <use xlink:href="#DejaVuSans-6c" x="541.40625"/>
     <use xlink:href="#DejaVuSans-69" x="569.189453"/>
     <use xlink:href="#DejaVuSans-6b" x="596.972656"/>
     <use xlink:href="#DejaVuSans-65" x="651.257812"/>
     <use xlink:href="#DejaVuSans-20" x="712.78125"/>
     <use xlink:href="#DejaVuSans-53" x="744.568359"/>
     <use xlink:href="#DejaVuSans-63" x="808.044922"/>
     <use xlink:href="#DejaVuSans-61" x="863.025391"/>
     <use xlink:href="#DejaVuSans-6c" x="924.304688"/>
     <use xlink:href="#DejaVuSans-69" x="952.087891"/>
     <use xlink:href="#DejaVuSans-6e" x="979.871094"/>
     <use xlink:href="#DejaVuSans-67" x="1043.25"/>
    </g>
   </g>
   <g id="legend_1">
    <g id="patch_7">
     <path d="M 339.12 78.82825 
L 407.72 78.82825 
Q 409.72 78.82825 409.72 76.82825 
L 409.72 48.472 
Q 409.72 46.472 407.72 46.472 
L 339.12 46.472 
Q 337.12 46.472 337.12 48.472 
L 337.12 76.82825 
Q 337.12 78.82825 339.12 78.82825 
z
" style="fill: #ffffff; opacity: 0.8; stroke: #cccccc; stroke-linejoin: miter"/>
    </g>
    <g id="text_15">
     <!-- Cluster -->
     <g transform="translate(355.673906 58.070437)scale(0.1 -0.1)">
      <defs>
       <path id="DejaVuSans-43" d="M 4122 4306 
L 4122 3641 
Q 3803 3938 3442 4084 
Q 3081 4231 2675 4231 
Q 1875 4231 1450 3742 
Q 1025 3253 1025 2328 
Q 1025 1406 1450 917 
Q 1875 428 2675 428 
Q 3081 428 3442 575 
Q 3803 722 4122 1019 
L 4122 359 
Q 3791 134 3420 21 
Q 3050 -91 2638 -91 
Q 1578 -91 968 557 
Q 359 1206 359 2328 
Q 359 3453 968 4101 
Q 1578 4750 2638 4750 
Q 3056 4750 3426 4639 
Q 3797 4528 4122 4306 
z
" transform="scale(0.015625)"/>
      </defs>
      <use xlink:href="#DejaVuSans-43"/>
      <use xlink:href="#DejaVuSans-6c" x="69.824219"/>
      <use xlink:href="#DejaVuSans-75" x="97.607422"/>
      <use xlink:href="#DejaVuSans-73" x="160.986328"/>
      <use xlink:href="#DejaVuSans-74" x="213.085938"/>
      <use xlink:href="#DejaVuSans-65" x="252.294922"/>
      <use xlink:href="#DejaVuSans-72" x="313.818359"/>
     </g>
    </g>
    <g id="line2d_106">
     <path d="M 341.12 69.248562 
L 351.12 69.248562 
L 361.12 69.248562 
" style="fill: none; stroke: #1f77b4; stroke-width: 1.5; stroke-linecap: square"/>
    </g>
    <g id="text_16">
     <!-- Hopper -->
     <g transform="translate(369.12 72.748562)scale(0.1 -0.1)">
      <defs>
       <path id="DejaVuSans-48" d="M 628 4666 
L 1259 4666 
L 1259 2753 
L 3553 2753 
L 3553 4666 
L 4184 4666 
L 4184 0 
L 3553 0 
L 3553 2222 
L 1259 2222 
L 1259 0 
L 628 0 
L 628 4666 
z
" transform="scale(0.015625)"/>
       <path id="DejaVuSans-70" d="M 1159 525 
L 1159 -1331 
L 581 -1331 
L 581 3500 
L 1159 3500 
L 1159 2969 
Q 1341 3281 1617 3432 
Q 1894 3584 2278 3584 
Q 2916 3584 3314 3078 
Q 3713 2572 3713 1747 
Q 3713 922 3314 415 
Q 2916 -91 2278 -91 
Q 1894 -91 1617 61 
Q 1341 213 1159 525 
z
M 3116 1747 
Q 3116 2381 2855 2742 
Q 2594 3103 2138 3103 
Q 1681 3103 1420 2742 
Q 1159 2381 1159 1747 
Q 1159 1113 1420 752 
Q 1681 391 2138 391 
Q 2594 391 2855 752 
Q 3116 1113 3116 1747 
z
" transform="scale(0.015625)"/>
      </defs>
      <use xlink:href="#DejaVuSans-48"/>
      <use xlink:href="#DejaVuSans-6f" x="75.195312"/>
      <use xlink:href="#DejaVuSans-70" x="136.376953"/>
      <use xlink:href="#DejaVuSans-70" x="199.853516"/>
      <use xlink:href="#DejaVuSans-65" x="263.330078"/>
      <use xlink:href="#DejaVuSans-72" x="324.853516"/>
     </g>
    </g>
   </g>
  </g>
 </g>
 <defs>
  <clipPath id="p44cb647b2c">
   <rect x="57.6" y="41.472" width="357.12" height="266.112"/>
  </clipPath>
 </defs>
</svg>
